<svg width="301" height="300" viewBox="0 0 301 300" fill="none" xmlns="http://www.w3.org/2000/svg">
<path d="M250.6 0C231 0 214.1 7.90005 205.9 19.3L205.8 19.4C205.7 19.6 205.6 19.7 205.5 19.9C180.6 54.7 166.3 67.6 150.6 89.5C135 67.7 120.7 54.7 95.7 19.9C95.6 19.7 95.5 19.6 95.4 19.4L95.3 19.3C87.1 7.90005 70.2 0 50.6 0C23 0 0.599976 15.6 0.599976 34.9C0.599976 69.8 0.599976 69.7999 0.599976 104.7C0.599976 114.3 6.19995 123.1 15.2 129.4C65.2 164.3 65.2 164.3 115.2 199.2C124.2 205.5 136.7 209.4 150.6 209.4C164.5 209.4 176.9 205.5 186 199.2C236 164.3 236 164.3 286 129.4C295 123.1 300.6 114.4 300.6 104.7C300.6 69.7999 300.6 69.8 300.6 34.9C300.6 15.7 278.2 0 250.6 0Z" fill="#747575"/>
<path d="M50.6 300C70.2 300 87.1 292.1 95.3 280.7L95.4 280.6C95.5 280.4 95.6 280.3 95.7 280.1C120.6 245.3 134.9 232.4 150.6 210.5C166.2 232.3 180.5 245.3 205.5 280.1C205.6 280.3 205.7 280.4 205.8 280.6L205.9 280.7C214.1 292.1 231 300 250.6 300C278.2 300 300.6 284.4 300.6 265.1C300.6 230.2 300.6 230.2 300.6 195.3C300.6 185.7 295 176.9 286 170.6C236 135.7 236 135.7 186 100.8C177 94.5 164.5 90.6 150.6 90.6C136.7 90.6 124.3 94.5 115.2 100.8C65.2 135.7 65.2 135.7 15.2 170.6C6.19995 176.9 0.599976 185.6 0.599976 195.3C0.599976 230.2 0.599976 230.2 0.599976 265.1C0.599976 284.4 23 300 50.6 300Z" fill="#747575"/>
<path d="M186 100.9C177 94.6 164.5 90.7 150.6 90.7C136.7 90.7 124.3 94.6 115.2 100.9C77.7 127.1 68.3 133.6 44.8 150C68.3 166.4 77.6 172.9 115.2 199.1C124.2 205.4 136.7 209.3 150.6 209.3C164.5 209.3 176.9 205.4 186 199.1C223.5 172.9 232.9 166.4 256.4 150C232.8 133.7 223.5 127.1 186 100.9Z" fill="black"/>
<path d="M94.7 154.9C106.2 160.7 112.3 163.8 132.3 173.8C137.5 176.4 144.7 178 152.6 178C160.5 178 167.7 176.4 172.9 173.8C192.9 163.7 199 160.7 210.5 154.9C199 149.1 106.2 149.1 94.7 154.9Z" fill="white"/>
</svg>
