<svg width="301" height="299" viewBox="0 0 301 299" fill="none" xmlns="http://www.w3.org/2000/svg">
<path d="M183.2 16.7C183.2 16.7 183.2 16.8 183.1 16.8C183 16.9 183 17.1 182.9 17.2C167.9 47.1 159.4 64.3 150 83C140.6 64.2 132 47.1 117.1 17.2C117 17.1 117 16.9 116.9 16.8C116.9 16.8 116.9 16.7 116.8 16.7C111.9 6.9 101.7 0.1 90 0.1C73.4 0.1 60 13.5 60 30.1C60 44.7 60 52.2 60 59.5C52.5 59.5 45 59.5 30 59.5C13.4 59.5 0 72.9 0 89.5C0 101.2 6.79998 111.4 16.6 116.3C16.6 116.3 16.7 116.3 16.7 116.4C16.8 116.5 17 116.5 17.1 116.6C47 131.6 64.1999 140.1 82.8999 149.5C64.0999 158.9 47 167.5 17.1 182.4C17 182.5 16.8 182.5 16.7 182.6C16.7 182.6 16.6 182.6 16.6 182.7C6.79998 187.6 0 197.8 0 209.5C0 226.1 13.4 239.5 30 239.5C45 239.5 52.5 239.5 60 239.5C60 246.8 60 254.3 60 268.9C60 285.5 73.4 298.9 90 298.9C101.7 298.9 111.9 292.1 116.8 282.3C116.8 282.3 116.8 282.2 116.9 282.2C117 282.1 117 281.9 117.1 281.8C142 231.9 149.2 217.6 172 172C218.5 148.8 232.7 141.7 283 116.5C283.1 116.4 283.3 116.4 283.4 116.3C283.4 116.3 283.5 116.3 283.5 116.2C293.3 111.3 300.1 101.1 300.1 89.4C300.1 72.8 286.7 59.4 270.1 59.4C255.1 59.4 247.6 59.4 240.1 59.4C240.1 52.1 240.1 44.6 240.1 30C240.1 13.4 226.7 0 210.1 0C198.2 0.1 188.1 6.9 183.2 16.7Z" fill="#747575"/>
<path d="M283.3 182.6C283.2 182.5 283 182.5 282.9 182.4C231.3 156.6 217.7 149.8 168.2 125C163.2 121.1 156.8 118.8 150 118.8C133.4 118.8 120 132.2 120 148.8C120 148.9 120 149 120 149.1C120 149.2 120 149.3 120 149.4C120 155.7 121.9 161.5 125.2 166.3C150.3 216.4 157 229.9 182.9 281.7C183 281.8 183 282 183.1 282.1C183.1 282.1 183.1 282.2 183.2 282.2C188.1 292 198.3 298.8 210 298.8C226.6 298.8 240 285.4 240 268.8C240 254.2 240 246.7 240 239.4C247.5 239.4 255 239.4 270 239.4C286.6 239.4 300 226 300 209.4C300 197.8 293.2 187.6 283.3 182.6L283.4 182.7L283.3 182.6Z" fill="#212323"/>
<path d="M240 240.1L128.2 128.3C123.1 133.7 120 140.9 120 148.9C120 149 120 149.1 120 149.2C120 149.3 120 149.4 120 149.5C120 155.8 121.9 161.6 125.2 166.4C150.3 216.5 157 230 182.9 281.8C183 281.9 183 282.1 183.1 282.2C183.1 282.2 183.1 282.3 183.2 282.3C188.1 292.1 198.3 298.9 210 298.9C226.6 298.9 240 285.5 240 268.9C240 254.7 240 247.2 240 240.1Z" fill="black"/>
</svg>
