<svg width="261" height="301" viewBox="0 0 261 301" fill="none" xmlns="http://www.w3.org/2000/svg">
<path d="M252.1 125C246.3 109 237.7 94.7 225.9 82.3C220.7 76.8 214.7 71.9 207.8 78.4C201.3 84.6 204.4 91.2 210.2 96.7C210.7 97.2 211.1 97.7 211.6 98.2C235.1 125.5 244.1 156.9 236.7 192.1C226.3 242.1 183.5 277.8 132.5 278.9C110.4 279.4 89.5001 273.8 70.3001 260.1C104.3 255.4 126.2 236.8 129.8 208.1C131.7 193.2 131.2 177.8 130.3 162.7C128.5 132.7 143.7 113 167.4 98.1C179.7 90.3 181.4 86.5 177.6 72.4C175.5 64.7 171.8 58 166.5 52.2C163.8 49.2 162.8 46.2 162.7 42.3C162.1 19.8 149.5 8.19998 126.7 8.49998C126 10.7 128.7 12.6 128 14.9C126.4 12.9 122.1 9.89998 118.6 7.59998C105.3 -1.90002 90.7 -2.50002 79.1 6.19998C65.5 16.4 61.7001 31.6 69.8001 48.4C72.9001 54.9 68.7001 55.9 65.3001 58C22.5001 84.8 0.400058 123.1 1.00006 174C1.90006 245.4 65.1001 309.5 147.3 299C230.7 288.1 280.6 203.9 252.1 125ZM81.3001 22.3C82.1001 30.9 82.1 37.9 87.6 43.1C92.9 48.1 99.2001 49.4 106.3 49.5C97.8001 54.8 90.3001 52.7 83.9001 46C77.7001 39.6 76.0001 32.4 81.3001 22.3Z" fill="black"/>
</svg>
