<svg width="301" height="254" viewBox="0 0 301 254" fill="none" xmlns="http://www.w3.org/2000/svg">
<path d="M192.9 60L136.1 3.20001C128.3 -4.59999 102.8 8.10001 79.3 31.6C55.8 55.1 43.1 80.6 50.9 88.4L107.7 145.2C129.3 166.8 163.2 168.6 186.8 150.5L244.1 207.8C223.7 229.1 210.6 248.2 214.2 251.8C217.8 255.4 236.9 242.3 258.2 221.9L258.3 222L269.7 210.6L269.6 210.5C290 189.2 303.1 170.1 299.5 166.5C295.9 162.9 276.8 176 255.5 196.4L198.2 139.1C216.3 115.6 214.5 81.7 192.9 60Z" fill="#747575"/>
<path d="M192.4 146.3L249.2 89.5C257 81.7 244.3 56.2 220.8 32.7C197.3 9.20004 171.8 -3.49995 164 4.30005L107.2 61.1001C85.6 82.7001 83.8 116.6 101.9 140.2L44.6 197.5C23.3 177.1 4.19999 164 0.599992 167.6C-3.00001 171.2 10.1 190.3 30.5 211.6L30.4 211.7L41.8 223.1L41.9 223C63.2 243.4 82.3 256.5 85.9 252.9C89.5 249.3 76.4 230.2 56 208.9L113.3 151.6C136.8 169.6 170.8 167.9 192.4 146.3Z" fill="#747575"/>
<path d="M150.2 164.8C150.4 164.8 150.5 164.8 150.7 164.8C165.7 164.5 180.6 158.6 192.1 147.2L200.6 138.7C216.8 115.2 214.5 82.8 193.6 62L150.3 18.7L106.9 62C86 82.9 83.7 115.3 99.9 138.7L108.4 147.2C119.9 158.7 134.8 164.5 149.8 164.8C149.9 164.8 150.1 164.8 150.2 164.8Z" fill="#151919"/>
</svg>
