<svg width="210" height="301" viewBox="0 0 210 301" fill="none" xmlns="http://www.w3.org/2000/svg">
<path d="M206.6 117.5H146.8C161.5 105.3 170.8 86.9 170.8 66.4C170.8 29.8 141 0 104.4 0C67.7999 0 38 29.8 38 66.4C38 86.9 47.4 105.3 62 117.5H2.19995V168.6H206.5V117.5H206.6ZM104.5 51.2C112.9 51.2 119.8 58.1 119.8 66.5C119.8 74.9 112.9 81.8 104.5 81.8C96.1 81.8 89.2 74.9 89.2 66.5C89.2 58.1 96 51.2 104.5 51.2Z" fill="black"/>
<path d="M181.1 232.5C155.7 198.6 129.9 181.4 104.5 181.4C79.1 181.4 53.2999 198.6 27.8999 232.5C11.3999 254.5 0.4 276.3 0 277.3L45.7 300.1C45.8 299.9 55 281.5 68.8 263.1C86.9 238.9 99.7999 232.5 104.6 232.5C109.3 232.5 122 238.8 140 262.6C153.9 281 163.4 299.9 163.5 300.1L209.2 277.2C208.6 276.3 197.6 254.5 181.1 232.5Z" fill="black"/>
</svg>
