<svg width="300" height="300" viewBox="0 0 300 300" fill="none" xmlns="http://www.w3.org/2000/svg">
<path d="M149.1 150.593C182.607 117.087 196.188 76.3428 179.435 59.5895C162.681 42.8362 121.937 56.4174 88.4307 89.9241C54.9241 123.431 41.3429 164.174 58.0962 180.928C74.8495 197.681 115.593 184.1 149.1 150.593Z" fill="white"/>
<path d="M299.902 128.458C299.902 107.458 269.802 90.0584 230.102 86.3584C255.602 55.6584 264.502 22.0583 249.702 7.15835C233.002 -9.54165 192.202 3.9584 158.702 37.4584C153.002 43.1584 148.002 48.9584 143.502 54.8584C158.602 50.4584 171.702 51.6584 179.502 59.5584C196.202 76.2584 182.702 117.058 149.202 150.558C115.702 184.058 75.0022 197.658 58.2022 180.858C50.3022 172.958 49.2022 159.758 53.7022 144.458C48.2022 148.658 42.7023 153.458 37.5023 158.758C4.00227 192.258 -9.59777 232.958 7.20223 249.758C22.0022 264.558 55.6022 255.658 86.4022 230.158C90.1022 269.858 107.602 299.958 128.502 299.958C149.502 299.958 166.902 269.858 170.602 230.158C201.302 255.658 234.902 264.558 249.802 249.758C264.602 234.958 255.702 201.358 230.202 170.558C269.802 166.858 299.902 149.458 299.902 128.458Z" fill="#747575"/>
<path d="M141.283 141.969C174.789 108.462 188.371 67.7188 171.617 50.9654C154.864 34.2121 114.12 47.7934 80.6135 81.3C47.1069 114.807 33.5255 155.55 50.2789 172.304C67.0322 189.057 107.776 175.476 141.283 141.969Z" fill="black"/>
</svg>
