<svg width="111" height="301" viewBox="0 0 111 301" fill="none" xmlns="http://www.w3.org/2000/svg">
<path d="M99 208.3C106.9 203.7 110.9 197 110.4 187.3C109.7 175.1 110.2 162.8 110.2 150.5C110.2 137.5 110 124.5 110.3 111.5C110.4 105.6 108.5 100.6 104 97C100.4 94.1 96.3999 91.3 92.1999 89.4C75.8999 81.9 58.5999 81.4 41.1999 83.3C30.3999 84.5 20.1999 87.5 11.0999 93.7C4.29995 98.4 0.699996 104.3 0.899996 113.1C1.3 137.8 1.4 162.5 0.899996 187.2C0.699996 197 4.40002 203.6 12.3 208.2C16 210.4 16.5 212.5 15.5 216.4C10.9 233.5 6.89995 250.7 2.09995 267.8C-0.100053 275.6 2.1 281.6 7.9 286.4C11.4 289.2 15.3 291.7 19.3 293.5C37.9 301.6 57.3 302 77 298.3C87.3 296.4 96.9999 292.8 104.7 285.3C109.5 280.6 111.3 275.2 109.4 268.4C104.7 251.2 100.5 233.8 95.9 216.5C94.8 212.7 95.2 210.5 99 208.3ZM92.5999 105.3C75.4999 107.5 58.2999 109.8 41.1999 112C35.1999 112.8 29.3 113.7 23.3 114.2C21.5 114.3 19.5999 112.9 17.6999 112.2C17.7999 111.5 17.9999 110.9 18.0999 110.2C26.7999 109.1 35.3999 107.9 44.0999 106.8C58.6999 105 73.2 103.2 87.8 101.7C89.6 101.5 91.5 102.6 93.3 103.2C93.1 103.9 92.7999 104.6 92.5999 105.3Z" fill="black"/>
<path d="M60.6999 73.8C77.0999 71.9 89.8 56 89.9 37.4C89.8 22.9 83.9 11.3 70.8 4.60003C58.6 -1.79997 46.2 -0.69997 35.3 7.90003C22.9 17.6 19.1999 30.9 22.1999 45.8C25.9999 64.8 41.9999 76 60.6999 73.8Z" fill="black"/>
</svg>
