<svg width="240" height="301" viewBox="0 0 240 301" fill="none" xmlns="http://www.w3.org/2000/svg">
<path d="M208.6 153.3C206.2 200.9 179.7 238.4 147.4 238.4C113.5 238.4 86 197.2 86 146.4C86 95.6 113.5 54.4 147.4 54.4C181.3 54.4 208.8 95.6 208.8 146.4C208.8 146.6 208.8 146.7 208.8 146.9C217.2 137.1 224.5 125.1 230.1 111.6C249.3 64.6 239.5 16 208.1 3.19999C189.8 -4.30001 168.1 2.09996 149.5 18.1C130.7 2.29996 109 -3.90003 90.7 3.79997C71.9 11.7 61 32.4 59.6 57.9C33.2 59.1 11.6 70.2 3.69999 89.6C-3.80001 107.9 2.59996 129.6 18.6 148.2C2.79996 167 -3.40003 188.7 4.29997 207C12.3 226.1 33.5 237 59.5 238.1C59.9 265.9 71.2 288.8 91.3 297C109.6 304.5 131.3 298.1 149.9 282.1C168.7 297.9 190.4 304.1 208.7 296.4C239.9 283.3 249.3 234.7 229.7 187.8C224.1 174.5 216.9 162.9 208.6 153.3Z" fill="black"/>
<path d="M147.4 220.5C160.931 220.5 171.9 187.593 171.9 147C171.9 106.407 160.931 73.5 147.4 73.5C133.869 73.5 122.9 106.407 122.9 147C122.9 187.593 133.869 220.5 147.4 220.5Z" fill="black"/>
</svg>
