<svg width="300" height="163" viewBox="0 0 300 163" fill="none" xmlns="http://www.w3.org/2000/svg">
<path d="M88.4584 112.133C78.0584 109.033 67.4584 106.833 57.4584 102.233C41.9584 95.0333 30.2585 84.4333 25.6585 67.2333C24.5585 63.2333 25.0584 61.3333 29.9584 61.5333C40.6584 61.9333 51.3585 61.6333 62.1585 61.2333C53.9585 58.7333 45.4584 57.6333 37.5584 54.5333C20.3584 47.8333 6.45844 37.8333 0.858438 19.0333C-0.841562 13.2333 -0.541512 11.0333 6.65849 11.0333C70.1585 11.3333 133.658 11.2333 197.158 11.2333C199.758 11.2333 202.258 11.2333 204.758 11.2333C204.858 10.5333 205.258 10.0333 205.058 9.73329C199.758 0.0332947 199.758 0.0333428 210.658 0.0333428C224.158 0.0333428 237.758 0.0333428 251.258 0.0333428C253.758 0.0333428 256.758 -0.266694 258.758 0.933306C269.458 7.03331 281.258 11.8333 290.258 20.3333C301.758 31.1333 302.758 49.1333 294.258 61.4333C292.358 64.2333 291.458 65.9333 287.758 62.5333C271.358 47.2333 252.058 43.5333 231.458 52.2333C211.258 60.7333 202.058 77.3333 201.658 98.7333C201.258 118.333 201.458 137.933 201.558 157.533C201.558 160.633 201.458 162.733 197.258 162.633C169.758 161.833 142.158 164.133 114.758 161.133C98.1585 159.333 82.2585 154.733 68.7585 144.233C60.0585 137.433 53.9584 128.933 50.9584 118.133C49.7584 113.633 50.1584 111.833 55.4584 112.033C66.5584 112.333 77.5584 112.133 88.4584 112.133Z" fill="black"/>
</svg>
