<svg width="300" height="223" viewBox="0 0 300 223" fill="none" xmlns="http://www.w3.org/2000/svg">
<path d="M284.1 40.6C267 45 250.5 49.3 234 53.4C179.7 67 125.4 80.4999 71.1 94.1999C64.6 95.7999 59.5 95.4 53.8 91.4C36.6 79.3 18.9 67.9 0 55.3C4.7 54 8.20001 52.9 11.7 52.1C80.1 35 148.5 17.9 216.9 0.999977C220.3 0.199977 225 0.100026 227.7 1.80003C246 13.4 263.8 25.6999 281.8 37.6999C282.5 38.0999 282.9 39 284.1 40.6Z" fill="black"/>
<path d="M72.5 118.1C89.4 113.6 105.9 109.2 122.4 104.9C156 96.1001 189.6 87.6 223.1 78.6C228.7 77.1 233.1 77.7001 238 81.0001C253.4 91.7001 269.1 101.8 284.6 112.2C286.7 113.6 288.7 115.3 292.2 118C274.6 122.6 258.7 126.8 242.8 131C208.7 139.9 174.6 148.9 140.3 157.5C136.4 158.5 130.9 158.5 127.7 156.5C109.6 145.1 92 133 74.2 121.1C73.7 120.8 73.5 119.8 72.5 118.1Z" fill="black"/>
<path d="M140.9 182.2C156.6 177.7 170.1 173.8 183.6 170C195.8 166.5 208.5 164.1 220.2 159.3C233.3 153.9 243.3 156.5 254.2 164.8C268.3 175.6 283.6 184.7 300 195.7C283.3 200.5 268.2 204.8 253 209.2C238.5 213.3 224 217.6 209.4 221.5C206.7 222.2 202.9 223.1 201 221.9C181.4 209.3 162.1 196.3 140.9 182.2Z" fill="black"/>
</svg>
