<svg width="234" height="301" viewBox="0 0 234 301" fill="none" xmlns="http://www.w3.org/2000/svg">
<path d="M55.6 243.7C61.2 244.9 66.2 245.9 71.8 247.1C71.8 251.1 71.8 255.4 71.8 259.8C71.8 269.2 71.8 278.6 71.8 288C71.8 297.7 68.5 300.9 59 299.8C42.7 297.8 27.4 292.9 15.4 281C0.400043 266.2 -2.69996 248.2 3.30004 228.6C9.10004 209.7 20.2 193.4 31.3 177.2C42.5 160.8 55.4 145.9 71.3 133.8C71.9 133.3 72.3 132.7 72.9 132.1C34.3 101.5 37.2 49.8 64.4 22.4C93 -6.40002 137.1 -7.40003 167 19.7C195.1 45.1 202.3 99.9 161.6 131.8C169.7 139.7 178.3 147.3 185.9 155.8C203.1 174.9 217 196.4 227.6 219.8C239.4 245.9 233.3 271.6 211.4 286.1C203.5 291.3 194 294.3 184.9 297.6C180.3 299.3 175.1 299.6 170.1 300.1C163.4 300.7 159.8 297.2 159.8 290.5C159.8 276.1 159.8 261.7 159.8 247.2C166 245.9 171.8 244.7 178 243.3C177.4 241.6 177.2 240.7 176.8 239.9C166.4 219.2 153.9 199.9 137.2 183.7C133.1 179.7 128.2 176.4 123.5 173.1C119.2 170.2 114.5 170.2 110.3 173.2C105.3 176.7 100.2 180.2 96 184.5C79.9 200.8 67.4 219.7 57 240.1C56.6 240.9 56.3 241.8 55.6 243.7ZM116.7 90.4C126.2 90.5 134.2 82.6 134.2 73.2C134.2 64 126.4 56.2 117.2 56C107.7 55.9 99.8 63.7 99.8 73.2C99.8 82.7 107.3 90.3 116.7 90.4Z" fill="black"/>
</svg>
