<svg xmlns="http://www.w3.org/2000/svg" xmlns:xlink="http://www.w3.org/1999/xlink" width="100" height="232" fill="none" xmlns:v="https://vecta.io/nano"><style><![CDATA[.B{opacity:.5}.C{opacity:.2}.D{fill:#202020}]]></style><g fill="#57dcff"><path d="M.3 227.88h14.8v-74.5l-14.8 7.3v67.2z"/><path d="M70.8 1.48l-8.5-.1v16.5H21.9l-8.1 3-.5 205.5h81v-217l-23.5-7.9z"/></g><g class="D"><path d="M68.2 45.377c.1-.5.2-.9.2-1.6a6.96 6.96 0 0 0-.2 1.6z" class="B"/><path d="M73.802 157.678c0-.5-.2-1.2-.1-1.8.1-1.5-.2-2.3-.1-3.6v.1c.1-.5 0-1.4.1-2.3 0 .2-.1.5-.1-.1.1-1 0-1.7.1-2.4l-.1-.7-.2-20.4-.2-21.5c.1-.8.1-2 .1-2.9-.1.5-.1.3-.1-.1 0-2.7-.1-.2-.1-2.9-.1-3.1 0-15.1.1-17.8-.2-1.5 0-3.3-.2-4.8v.1c-.1-1.6.1-10.4 0-12.2v.2c-.1-1.6.1-1.4.1-2.6-.2.2-.3-1.2-.3-1.7 0-.8-.2-2.6-.2-3.8l.1.1c-.1-1.1-.1-3.1-.1-3.9 0-1.8.2-4.5.1-6.9l.3-1.5v-.2s-3.8-2.5-4.6.7h-.1v.6c-.1.7.1 1.1 0 1v-1c0 .7-.1.2-.2-.1 0 .3 0 .6-.1.9 0 .1 0-.1.1-.2 0 .4.1 1 .1 1.4 0 .8-.2 0-.2.9l-.2 14c0 .1 0 0-.1-.2 0 1.4 0 2.7.1 4 0 .4-.1.5-.2.6.1-.2.1 7.2.1 7.3l.2.1c0 1.4-.2.4-.2 1.7.3.5 0 2.2.1 2.6 0 0 0 .6-.1.6.2.2 0 .7.1 1.1 0 .1 0-.1.1-.2l.1.9c0 .4-.1.4-.2.1-.1 2.4-.2 13.9-.1 16.5.1-.3 0-1.1.2-1.4.1.7 0 1 .1 1.3-.3.3-.1 1.5-.3 2l.2.2-.1.3c.2 3 .1.7 0 3.4 0 1.5.2 2.3.2 3.1 0-.1.1-.5.1-.1-.1.1.1 1.1 0 1.3 0 .4 0 1.7.2 1.2-.1.2-.1 1.3-.2.7v1l.1-.5c0 1.3-.1 2 .1 2.8l.1-.5c0 .8 0 1.4-.2 1.7l-.1-.8c0 1.3 0 2.1.1 3.1v-.4c.2 1.4.3 8.5.6 9.7l.1-.6.1 1.1c0-.1-.5-.5-.4-.6v16.4c-.1.9-.2.2-.2.1.1 1 .2.5.1 1.3 0 .2-.1-.1-.1-.2v.8c.1-.5.2-.3.3-.5v1.1l-.1-.1c0 .3.3.6.2 1.8v5.9c-.1 0-.1-.4-.1-.8v.9c.1-.5.1.8.1.4.3 1.4 0 3.2.2 4.4.2.1 4.2 2.6 4.5 2.6v.9c.1-.1.1-.9.1-1.3l-.2-.1c-.1-.9.1-.2.1-1.1.1 0 .2.8.2 1.5 0-.7.1-1.3 0-1.6-.1 0 0 .7.1-.1zm-45.7-52.098c-.1 0-.1-.1-.1-.1l.1.1zm.5 29.5c.1 0 .1.1 0 0 .1 0 .2-.1.1-.2 0 0 0 .2-.1.2zm1.798-54.4c.1.1.1 0 0 0h0zM29 93.48c-.1.1-.1.3-.1.6h.2l-.1-.6z" class="B"/><path d="M32.6 109.08c-.1-.5-.4-1-.8-1.5l.6-.7v-7.1c.4-1.9-.2-4.1.2-6.3.2-.4.1-4.8-.1-5.2l-.3.5c-.1-1.6.2-2.4-.1-3.8l.1.1c.1-.2-.6-.3.2-2.6 0-.1-.1-.1 0-.2l-.2.4c-.1-.2-.2-.4-.2-.8 0-.1.1-.1.1-.1l-.1-.8.2-.2c-.1-.2-.5-.1-.3-.8-.3.2-.2-.3-.3-.2 0 0 .1-.1.1-.2 0-.4-.1-1.1-.3-1.2 0 0-.6 1.5-.9 1.8.1-.5 0-.1-.1 0h.1c-.1.3-.3.3-.3.5h.2s.1 0 .1.1v.5h-.2c.1.1.1.3 0 .6v-3.4 3.4c-.1.5-.4 1.1-.4 1.3-.2.3 0 .7 0 1.1 0 .6-.2.3-.4.6-.1.4.2-.1.2.1l-.2.5c0-.3-.1-.1-.2-.1 0 .4-.3 1 0 1.2-.1.5-.3.5-.3.8.1-.1.1-.2.2-.2-.1.2 0 .1.1 0 .1.3-.5 1.7-.2 1.8H29c.2.1.5 0 .6.2l-.1.2.1.2c-.1.2-.1.1-.2.1.1.4 0 .9-.1 1.4l.7-.5c-.2.4-.5 1.1-.3 1.2l-.2.2c-.4.8.2.5.1.9l-.2.4v-.4c-.1.4-.2.5-.4.9v.1c.1 0 .2.3.2.5 0 .4.1.7-.1 1.3l.3.2-.1.5h-.2c0-.5-.1-1.3-.1-1.9h-.1c0 .4.1.7.1 1 0 .1-.2.4-.4.2l.2.2c0 1.2 0 1.2-.2 2.4l.1-.1c.1.2.1.5 0 .6a5.92 5.92 0 0 1-.4 2l.2.1c0 .2-.4.4 0 .5l.1.3c0 .2.1.3 0 .6-.1.5.2 0 .1.5-.2.2.3.2.2.5l-.3.3c-.2.5.1.6.1 1.3-.1.3-.4.5-.7.3.3.3.2.1.4.5-.1.1-.2 0-.3-.1-.1.4.1.2.1.5.2.1.5.1.6.2-.1.1-.3.3-.4.5l.1-.1c-.1.1-.3.4-.4.8s-.1.7-.2 1h-.1c-.1.4 0 .7.1 1s.2.4.4.7l.6.9h-.4c.1 0 .1.1.2.2h-.3c.3.2-.1.1.1.4-.1 0-.1-.1-.2 0l.3.6-.1-.3.4.1c.2.4-.1.5 0 .7l-.1-.2c0 .4-.1.4-.2.7.1-.1.2-.2.2 0 0 .1-.1.1-.2.2.2.1.3.4.2.7h-.1c0 .1.1.1 0 .3l-.3-.1c.1.1.2.2.3.2-.1.1.1.4-.1.3l-.1-.1-.1 1.1h-.2c.3.1-.1.6.3.6-.2.2.1.8-.3.7 0 .7.4 1.1.2 2-.4.3-.2 1.2-.3 1.8l.4 3c-.5.7.2 1.7-.1 2.5l.2.2c-.3.5.1 1.2-.2 1.9.1.2.1.3.1.3s0-.1.2-.1c-.1.2 0 .6-.2.6v-.1c-.2 0 .1.6-.1.8l.3-.1v.4l-.1-.1c.6 1.6-.3 2.4.3 3.9-.3-.2.2.3-.2.3-.4.4.1.7.2 1h.1v.6c-.4-.3.3.4 0 .1-.3 1.4 0 3.3-.1 5l.1-.1c0 .4.1.9-.1 1.3-.2.3.3.7.3.8.2.4-.2.7-.2.5 0 .4.4.7.3 1.3-.3.2.3 1.4-.1 1.4-.3.7.2 1.3-.1 2H29l1.2 1.5.2-.1v.1-.1l1.1-.4 1-1.3-.2-3.4.4-2.7-.1-6.7-.3-.5c.5-1.3-.1-3 .3-4.4h-.2c0-.4.1-.4.2-.5-.1-3.7-.4-7.5-.1-10.9.2-.3.1-1.3.2-1.6-.3-1.1-.3-2.3-.3-3.3v-.4h.1c-.2-.5.2-1.3.3-2.1v.1c0-1 .1-1.6-.2-2.6zm-3.7-2.5l-.1.1h-.1l.2-.2v.1z" class="B"/><path d="M29.3 90.88l-.1.1.1-.1zm.002-5.602v-.2c-.1.2-.1.3 0 .2zM32 79.68c0-.1-.1-.1-.1 0v.2c0-.1.1-.2.1-.2zm-1.4.5c-.1.1-.1.1 0 0h0z" class="B"/><path d="M58.4 24.777l.1.1-.1-.1z"/><use xlink:href="#B"/><use xlink:href="#C"/><path d="M17.502 24.977l2.2-.1v.1c2.1-.1 4.1.2 6.1.1 1.5.1 3-.1 4.5-.2h1.9c.7.2 1.4.1 2.1 0h2.3c.3.1.6.1.8.1s.3 0 .4.1.3.1.5.2c.6.2 1.3.3 1.9.2.6 0 1.3-.2 1.9-.5.2 0 .5-.1.7-.1h3.8c.6-.5.6-.5 1.4 0h.6c1.2.4 2.6.5 3.8.2.3 0 .6 0 .9-.1h.9v-.1c.3.2.6 0 .9-.1h.2c.1 0 .1 0 .2.1s.2 0 .4-.1h1.4c.1 0 .1.1.1.2-.2 0 .2.2-.1.2.1 0 .6 0 .5-.2 0-.2.2-.3 0-.4v-1.8h-5.4c-1.6.4-3.8.5-5.5.4.5 0 1 0 1.6-.1l-.1.1c.1 0 .2-.1.3-.1 0 0 0 .1-.1.1.4.2 1.2-.2 1.4 0 .1 0 .2-.1.1-.2l2.2-.4c.3-.1.4 0 .6-.1h.6c.4 0 .8-.1 1.1-.1.1 0 .1.1.1.1.5-.1 1-.2 1.6-.2h2v1.2c.1.1.1-.1.2 0v-.7c0-.2-.1-.4-.1-.6h-.7l.1-.1c-.5 0-.2.2-.6.1-.2-.1 0-.1 0-.1-.6 0-1.2 0-1.8.1-.1-.2-.6 0-.9-.2-.2.1-.3 0-.4.2h-1.9l-.2.1-.4.1c-.2.1-.5.1-.7.1-1 .2-2.1.2-3.1.2-.5.2-1 .1-1.6.1-.3 0-.6-.1-.9-.1h-.9c-.4.1-.9.1-1.4.1l-.4.1-4.1-.5h-4.2c-1.6 0-3.1-.1-4.6-.1h-1.1l-.2.1-1 .3c-.7.2-1.4.2-2.1.1 0 0 0-.1.1 0-.2 0-.4-.1-.6-.2h-2c-.3 0-.5.1-.8.1h-.9c-.5.2-1 .3-1.5.3s-1 0-1.5-.1c-.1 0-.2-.1-.3-.1 0 0-.1-.1-.2-.1h-.2c-.3 0-.5 0-.8.1h-1.5v2.2h2.4zm16.1-2.1h-.4.4zm-.7 0h-.2.2zm-1.1 0h-1.4c.5-.2 1-.1 1.4 0zm-1.6 0h-.1.1z"/><use xlink:href="#D"/><use xlink:href="#B" y="8"/><use xlink:href="#E"/><use xlink:href="#D" y="4"/><use xlink:href="#B" y="12"/><use xlink:href="#F"/><path d="M58.3 34.376h-.7l.1-.1c-.5 0-.2.2-.6.1-.1-.1 0-.1 0-.1-.6 0-1.2 0-1.8.1-.1-.2-.6 0-.9-.2-.2.1-.3 0-.4.2h-.2c-.1 0-.2 0-.3.1l-.4.1c-.2.1-.5.1-.7.2-.5.1-1 .1-1.5.1s-1-.1-1.5-.2c-.1 0-.2-.1-.4-.1l-.3-.1h-1.1c-1 .3-2.2-.1-3.4 0-.4.1-.9.1-1.4.1l-.4.1c-.7-.1-1.4-.1-2.1-.1l-6.3.3c-3.2 0-5.9-.4-9-.2l.1-.1c-1 0-1.7-.1-2.6 0-2.1.3-4.3 0-6.4.2h-1.3v2.2h2.4l2.3-.1v.1c2.1-.1 4.1.2 6.2.1 1.5.1 3-.1 4.6-.2h2c.7.1 1.4.1 2.1 0h.1c.9-.3 1.6-.4 2.2-.3.3.1.5.2.7.3.1.1.3.2.5.2h2.4c.9 0 1.7-.1 2.6-.2h7.4c.5.4 1.9-.7 2.4-.5.2.1.1.3.1.6 0 .1 0 .1.1.1h1.2v-.1c.3.2.6 0 .9-.1h.2c.1 0 .1 0 .2.1s.3 0 .4-.1h1.4c.1 0 .1.1.1.2-.2 0 .2.2-.1.2.1 0 .6 0 .5-.2 0-.2.2-.3 0-.4v-1.8h-3.9c-1.6.5-2.6.5-4.2.2-.1 0-.3-.1-.4-.1s-.2-.1-.3-.1c.1 0 .3.1.4.1.3 0 .5 0 .6.1.1 0 .2-.1.1-.1.7.1 1.5.1 2.2 0l1.1-.3.3-.1c.1-.1.3-.1.4-.1l.6-.1c.1 0 .1.1.1.1.5-.1 1-.2 1.6-.2h.8l1.2.1c-.1.5-.1.9-.1 1.3.1.1.1-.1.2 0v-.7c-.1-.2-.1-.4-.1-.6zm-24.9.9h-.2.2zm-.5 0h-.2.2zm-1.2 0h-1.2c.4-.2.8-.1 1.2 0zm16.9-.4H47c.5 0 1-.1 1.5-.1l-.1.1c.1 0 .2-.1.3-.1 0 0-.1 0-.1.1h0z"/><use xlink:href="#D" y="8"/><use xlink:href="#B" y="16"/><use xlink:href="#C" y="16"/><path d="M58.302 38.376h-.7l.1-.1c-.5 0-.2.2-.6.1-.1-.1 0-.1 0-.1-.6 0-1.2 0-1.8.1-.1-.2-.6 0-.9-.2-.2.1-.3 0-.4.2-2.1-.1-4.2.1-6.3.1-1 .3-2.2-.1-3.4 0-.4.1-.9.1-1.4.1l-.4.1c-2.8-.3-5.6-.1-8.4-.2h-1.1c-.4-.1-.9 0-1.3.1l-2.1.6c-.3 0-.6 0-.9-.1-.2 0-.2-.1-.6-.2h-1.5l-.3.1c-.2.1-.6 0-1-.1 0 0 0-.1.1 0-.2-.1-.4-.1-.7-.2h-1.5l-.2.1-.3.1c-.9.4-2 .4-3 .2-.3-.1-.5-.1-.8-.2h-.9c-.5 0-1 .1-1.5.1h-1.5v2.2h4.1l.1-.1.2-.1v.1c.4-.3 1-.3 1.5-.2s.9.4 1.4.6.9.5 1.5.5h.4c.1 0 .3-.1.4-.1l.2-.1c.1 0 .1-.1.1-.1h.4c1.5-.1 3-.5 4.5-.8.6-.1 1.2-.1 1.7-.1h.3c.6.1 1.3.1 2 .1l2 .3h.4c1.2.2 2.5.3 3.7.2.3 0 .7-.1.9 0 .3 0 .6.1 1 .1h.8c.9.1 1.9.1 2.8 0h.4l1.3-.2c.1 0 .3-.1.4-.1h5c.6.1 1.2.2 1.8.2v-.1c.3.2.6 0 .9-.1h.2c.1 0 .1 0 .2.1s.3 0 .4-.1h1.4c.1 0 .1.1.1.2-.2 0 .2.2-.1.2.1 0 .6 0 .5-.2 0-.2.2-.3 0-.4v-1.8h-11c.5 0 1-.1 1.5-.1l-.1.1c.1 0 .2-.1.3-.1 0 0 0 .1-.1.1.4.2 1.2-.1 1.4 0 .1 0 .2-.1.1-.2l4.5-.2c.1 0 .1.1.1.1.5-.1 1-.2 1.6-.2h.8l1.3-.3c-.1.5-.1.9-.1 1.3.1.1.1-.1.2 0v-.7c-.1-.2-.1-.4-.1-.6zm-27.9 1.1c.4-.3.8-.4 1.3-.5-.4.2-.8.3-1.3.5zm3.1-.6h-.4c.1-.1.3 0 .4 0zm-.7-.1h-.1.1zm-2.6.8h-.1c0-.1 0 0 .1 0z"/><use xlink:href="#D" y="20"/><path d="M58.2 52.176l.2.5c.2-.3-.3-.4-.2-.5z"/><use xlink:href="#C" y="28"/><path d="M57.502 50.376l.1-.1c-.5 0-.2.2-.6.1-.1-.1 0-.1 0-.1-.6 0-1.2 0-1.8.1-.1-.2-.6 0-.9-.2-.2.1-.3 0-.4.2-2.1-.1-4.3.1-6.4.1-.1 0-.3.1-.5.1s-.3.2-.4.3l-.1.2-.1.1c-.1.1-.3.3-.3.5 0 .1 0 .2-.1.2-.2-.1-.5-.3-.8-.4-.2-.1-.5-.1-.9-.1h-.3c-.1 0-.1-.1-.2-.1l-.2-.1h-.1l-.3-.3c-.1-.1-.2-.1-.3-.2-.1 0-.1-.1-.2-.1-.1-.1-.2-.1-.3-.1h-7.5c-3.3-.1-6.1-.3-9.3.1l.1-.1c-.9.1-1.7-.1-2.6 0-2.1.3-4.4 0-6.5.2h-1.6v2.2h2.4l2.3-.1v.1c2.1-.1 4.2.2 6.3.1 1.5.1 3.1-.1 4.7-.2h2c.7.2 1.4.1 2.2 0h2.3c.6.1 1.2.2 1.8.2h1c.1 0 .2 0 .3-.1l.2-.1c.1-.1.3-.1.4-.2.6-.2 1.2-.3 1.9-.4.1-.1.3-.1.4-.2.1 0 .1 0 .2.1l.1.1c.1.1.2.1.4.2.2-.2.2.8.2.8.1.1.2.1.2.2-.1 0-.2.1-.3.1-.1.1-.2.1-.3.2l-.1.1v.1l-.1-.1c-.3.1-.5.2-.8.4-.1.1-.2.3-.2.3h-.1c-.2 0-.5 0-.7-.1h-4.6c-.1 0-.2 0-.3.1l-.2.1c-.2.1-.3.1-.4.1 0-.1 0-.1-.1-.3 0 0-.1-.1-.1-.2-.1-.1-.3-.2-.4-.1-.3.1-.3.3-.4.4-.2.4-.3.7-.3 1-.1.2-.1.3-.2.4s-.2 0-.2-.1-.1-.2-.1-.2l-.1-.2-.1-.4c-.1-.1-.1-.3-.2-.4l-.4-.1-.2-.1h-.1l-.3-.1h-.3l-4.7.2.1-.1c-.9.1-1.8-.1-2.6 0-2.2.3-4.5 0-6.6.2h-3.6v2.2l2.7-.1v.1c2.2-.1 4.2.2 6.4.1 1.5.1 3.1-.1 4.7-.2h2c.3.1.7.1 1.1.1s.8-.1 1.2 0c.7.2 1.5.3 2.3.3.3 0 .6.1.9 0 .2 0 .3 0 .5-.1.2 0 .3-.1.4-.1h2c.9 0 1.8-.1 2.7-.2h10.4c.6.1 1.2.2 1.8.2v-.1c.3.2.6 0 .9-.1h.2c.1 0 .1 0 .2.1s.3 0 .4-.1h1.4c.1 0 .1.1.1.2-.2 0 .2.2-.1.2.1 0 .6 0 .5-.2 0-.2.2-.3 0-.4v-1.8h-9.4c-.1 0-.2-.1-.3-.1s-.2-.1-.2-.1c-.1 0-.2-.1-.3-.1a2.76 2.76 0 0 0-.6-.8c.1.1.2.1.3.2s.3.3.4.5c.1.1.3.1.5.2h-.1.3c.2.2.5.2.8.1.3 0 .5-.1.7 0 .1 0 .2-.1.1-.2l4.7-.2c.1 0 .1.1.1.1.5-.1 1.1-.2 1.7-.2h2.1v1.2c.1.1.1-.2.2 0 .1-.5 0-.9-.1-1.2h-.8l.1-.1c-.5 0-.2.2-.6.1-.1-.1 0-.1 0-.1-.6 0-1.3 0-1.8.1-.1-.2-.7 0-.9-.2-.2.1-.3 0-.4.2h-5.4l-.3-.1h.1c-.1 0-.3-.1-.3-.1-.1 0-.1 0-.2-.1-.1 0-.1-.1-.2-.2s-.2-.2-.4-.3c-.3-.2-.6-.4-.9-.4h-.3c.5-.3 1-.7 1.5-.6.1 0 .1.1.2.1l.2.2c.1 0 .2.1.4.1.4.1.7.1 1.1 0h3.3c.6.1 1.2.2 1.8.2v-.1c.3.2.6 0 .9-.1h.2c.1 0 .1 0 .2.1s.3 0 .4-.1h1.4c.1 0 .1.1.1.2-.2 0 .2.2-.1.2.1 0 .6 0 .5-.2 0-.2.2-.3 0-.4v-1.8h-10.8a.76.76 0 0 0-.2.4l.1-.1c.1-.1.1-.2.2-.3h1.1l-.1.1c.1 0 .2-.1.3-.1 0 0 0 .1-.1.1.4.2 1.2-.1 1.4 0 .1 0 .2-.1.1-.2l4.6-.2c.1 0 .1.1.1.1.5-.1 1.1-.2 1.6-.2h2.1v1.2c.1.1.1-.2.2 0 .1-.5 0-.9-.1-1.2l-1.7.1zm-23.2.5h-.4.4zm-.7 0h-.2.2zm-1.1 0h-1.5c.5-.2 1-.1 1.5 0zm-1.7 0h-.1.1zm4.3 5.5c-.1.2-.1.3-.2.4v-.1c.1-.1.2-.2.2-.3zm-1.3-1.3c.1.1.1.5.2.6 0 .1 0 .2.1.3-.1-.2-.2-.5-.3-.9-.2.1-.3 0-.5 0h-.1c.3-.1.5-.1.6 0zm-.8-.2c-.1 0-.1 0 0 0-.1 0-.1 0 0 0z"/><use xlink:href="#D" y="24"/><path d="M58.2 56.176l.2.5c.2-.3-.3-.4-.2-.5zm.1-.2c.1-.2-.1-.2-.1-.3.1.1-.1.4.1.3z"/><use xlink:href="#D" y="28"/><use xlink:href="#B" y="36"/><use xlink:href="#E" y="28"/><path d="M58.3 58.376h-.6l.1-.1c-.5 0-.2.2-.6.1-.2-.1 0-.1 0-.1-.6 0-1.2 0-1.8.1-.1-.2-.6 0-.8-.2-.2.1-.3 0-.4.2-2.1-.1-4.1.1-6.3.1-1 .3-2.2-.1-3.3 0-.4.1-.9.1-1.4.1l-.4.1c-2.7-.3-5.5-.1-8.3-.2-3.2-.1-5.9-.3-9 .1l.1-.1c-.9.1-1.7-.1-2.5 0-2.1.3-4.3 0-6.3.2h-1.5v2.2h2.3l2.2-.1v.1c1-.1 2 0 3.1 0H24l.4.1c.5.1 1 .2 1.5.2.5.1 1.1.1 1.6.1h.8c.3 0 .6-.1.8-.1.4 0 .8-.2 1.2-.4h.2c.2 0 .3-.1.5-.1h1.4c.6.2 1.4.1 2.1 0h2.3c2.1.4 4.2.2 6.3 0H53l1.7.2v-.1c.3.2.6 0 .9-.1h.2c.1 0 .1 0 .2.1s.2 0 .4-.1h1.4c.1 0 .1.1.1.2-.2 0 .2.2-.1.2.1 0 .6 0 .5-.2 0-.2.2-.3 0-.4v-1.8H47.4c.5 0 1-.1 1.5-.1l-.1.1c.1 0 .2-.1.3-.1 0 0 0 .1-.1.1.4.2 1.2-.1 1.4 0 .1 0 .2-.1.1-.2l4.5-.2c.1 0 .1.1.1.1.5-.1 1-.2 1.6-.2h.8l.8.2c-.1.5-.1.9-.1 1.3.1 0 .1-.1.2 0v-.7c-.1-.2-.1-.4-.1-.6zm-25.3.5h-.2.2zm-1 0h-1.4c.4-.2.9-.1 1.4 0zm-1.7 0h-.1.1zm3 0h0z"/><use xlink:href="#D" y="32"/><use xlink:href="#B" y="40"/><use xlink:href="#F" y="28"/><path d="M58.302 62.378h-.7l.1-.1c-.5 0-.2.2-.6.1-.1-.1 0-.1 0-.1-.6 0-1.2 0-1.8.1-.1-.2-.6 0-.9-.2-.2.1-.3 0-.4.2h-5.6c-.2.1-.3.1-.4.1s-.2.1-.4.1c-.4.2-1 .3-1.5.2-.3 0-.5-.1-.8-.1-.1 0-.3-.1-.4-.1s-.2-.1-.4-.2c-.4 0-.5.1-.8.1h-.7l-.4.1-1-.1h-.6c-.2.1-.4.2-.5.2-.6.2-1.2.2-1.9 0-.3-.1-.6-.2-1-.2l-.3-.1h-4.5l-.3.1c-.2 0-.4.1-.5.1-.7.1-1.4.1-2.2.1-.7 0-1.4 0-2.2-.1-.4 0-.7 0-1.1-.1-.2 0-.3-.1-.6-.1l-.6.1.1-.1c-.9.1-1.7-.1-2.6 0-2.1.3-4.3 0-6.4.2h-1.4v2.2h2.3l2.3-.1v.1c1-.1 2.1 0 3.1 0 .5 0 1.1 0 1.5.1.5.1 1 .1 1.5.2.3.1.5.1.8.1h.5l.4-.1c.5-.1 1-.2 1.6-.1.4.1.8.2 1.2.2.5.1 1.1 0 1.7-.4.1 0 .1-.1.2-.1.6.1 1.4 0 2.1-.1h2.3c.3 0 .6.1.9.1.3.2.6.1.9.1l.8-.3c.5-.2 1-.4 1.4-.2.1.1.2.1.3.3s.3.1.4.1l.8-.1h10.4c.6.1 1.2.2 1.8.2v-.1c.3.2.6 0 .9-.1h.2c.1 0 .1 0 .2.1s.3 0 .4-.1h1.4c.1 0 .1.1.1.2-.2 0 .2.2-.1.2.1 0 .6 0 .5-.2 0-.2.2-.3 0-.4v-1.8h-9.2c-.5.2-1.2.3-1.8.4.5-.1 1-.2 1.5-.4v.1c.1-.1.1-.2.3-.2v.1c.4.1 1.2-.1 1.4 0 .1 0 .2-.1.1-.2l4.5-.2c.1 0 .1.1.1.1.5-.1 1-.2 1.6-.2h.8l1.2.3c-.1.5-.1.9-.1 1.3.1.1.1-.1.2 0v-.7c-.1-.2-.1-.4-.1-.6zm-24.6.5h-.4.4zm-.7 0c-.1 0-.1.1-.2.1.1-.1.2-.1.2-.1zm-1.1.2c-.4.1-.9.1-1.4.1.5-.1.9-.1 1.4-.1zm-1.6.2h-.1.1z"/><use xlink:href="#D" y="48"/><use xlink:href="#B" y="56"/><use xlink:href="#E" y="48"/><path d="M58.3 78.376h-.6l.1-.1c-.5 0-.2.2-.6.1-.2-.1 0-.1 0-.1-.6 0-1.2 0-1.8.1-.1-.2-.6 0-.8-.2-.2.1-.3 0-.4.2-2.1-.1-4.2.1-6.3.1-1 .3-2.2-.1-3.3 0-.4.1-.9.1-1.4.1l-.4.1c-2.7-.3-5.5-.1-8.3-.2-1.6 0-3.1-.1-4.5-.1h-1.3l-.4.2a.9.9 0 0 1-.5.1c-.7.2-1.4.3-2.1.3l.1-.1c-.4 0-.8-.1-1.2-.2-.1 0-.2-.1-.3-.1-.1-.1-.3 0-.4 0h-.6c-2.1.3-4.3 0-6.3.2h-1.6v2.2h2.2l2.2-.1v.1h1.5l1.5.3c1 .2 2 .3 3.1.1a4.53 4.53 0 0 0 1.6-.3c.4-.1 1.1-.1 1.6-.1.4 0 .9-.1 1.3-.1h1.9c.6.2 1.4.1 2.1 0h2.3c2.1.4 4.2.2 6.3 0h9.9l1.7.2v-.1c.3.2.6 0 .9-.1h.2c.1 0 .1 0 .2.1s.2 0 .4-.1h1.4c.1 0 .1.1.1.2-.2 0 .2.2-.1.2.1 0 .6 0 .5-.2 0-.2.2-.3 0-.4v-1.8H47.3c.5 0 1-.1 1.5-.1l-.1.1c.1 0 .2-.1.3-.1 0 0 0 .1-.1.1.4.2 1.2-.1 1.4 0 .1 0 .2-.1.1-.2l4.5-.2c.1 0 .1.1.1.1.5-.1 1-.2 1.6-.2h1.7c-.1.5-.1.9-.1 1.3.1 0 .1-.1.2 0v-.7c-.1-.2-.1-.4-.1-.6zm-25.3.5h-.2.2zm-1.1 0h-1.4c.5-.2 1-.1 1.4 0zm-1.6 0h-.1.1zm3 0h0z"/><use xlink:href="#D" y="52"/><use xlink:href="#B" y="60"/><use xlink:href="#E" y="52"/><path d="M58.3 82.376h-.6l.1-.1c-.5 0-.2.2-.6.1-.2-.1 0-.1 0-.1-.6 0-1.2 0-1.8.1-.1-.2-.6 0-.8-.2-.2.1-.3 0-.4.2H51c-1 .3-1.9.5-2.9.3-.5.1-1 0-1.6-.2-.6 0-1.2-.1-1.8-.1-.4.1-.9.1-1.4.1l-.4.1c-2.7-.3-5.5-.1-8.3-.2-3.2-.1-5.9-.3-9 .1l.1-.1c-.9.1-1.7-.1-2.5 0-2.1.3-4.3 0-6.3.2h-1.6v2.2h2.2l2.2-.1v.1c2.1-.1 4.1.2 6.1.1 1.5.1 3-.1 4.5-.2h1.9c.6.2 1.4.1 2.1 0h2.3c1.2.2 2.5.3 3.7.2.6 0 1.3-.1 1.9-.1h.6c2.9.4 4.8.4 7.3-.1h2.6l1.7.2v-.1c.3.2.6 0 .9-.1h.2c.1 0 .1 0 .2.1s.2 0 .4-.1h1.4c.1 0 .1.1.1.2-.2 0 .2.2-.1.2.1 0 .6 0 .5-.2 0-.2.2-.3 0-.4v-1.8h-6.7c-.8.2-1.5.3-2.2.4.4 0 .8-.2 1-.1.1 0 .1-.1.1-.2l1.1-.3h1.1l2.3-.1c.1 0 .1.1.1.1.5-.1 1-.2 1.6-.2h.8l1.1.1c-.1.5-.1.9-.1 1.3.1 0 .1-.1.2 0v-.7c-.1-.2-.1-.4-.1-.6zm-24.5.5h-.4.4zm-.7 0h-.2.2zm-1.1 0h-1.4c.5-.2.9-.1 1.4 0zm-1.6 0h-.1.1zm16.6.2h.1c.4.1.9.1 1.4.1l-.1.1c.1 0 .2-.1.3-.1 0 0 0 .1-.1.1.1.1.2.1.3.1l-1.9-.3z"/><use xlink:href="#D" y="60"/><use xlink:href="#B" y="68"/><use xlink:href="#E" y="60"/><path d="M58.302 90.378h-.6l.1-.1c-.5 0-.2.2-.6.1-.2-.1 0-.1 0-.1-.6 0-1.2 0-1.8.1-.1-.2-.6 0-.8-.2-.2.1-.3 0-.4.2h-6.4c-.9.5-2.1.2-3.2.3-.4.1-.9.1-1.4 0l-.4.1c-.3-.1-.7-.1-1-.2l-.5-.1c-.3-.1-.4 0-.6 0h-6.3c-.8 0-1.6-.1-2.4-.1l-.3.1h-.3l-.5.1c-.4 0-.7.1-1.1.1-1.4.1-2.8.1-4.4-.1h-2.5c-2.1.3-4.3 0-6.3.2h-1.6v2.2h2.3l2.2-.1v.1c1-.1 2 0 3.1 0h1.1l.4.1c.5.2 1 .2 1.6.2 1.1.1 2.2-.3 3.2-.5.4 0 .9-.1 1.3-.1h1.9c.6.2 1.4.1 2.1 0h2.3c.6.1 1.2.2 1.8.2h1.8c.8.3 1.7.3 2.5.1.7 0 1.3-.2 1.8-.4h8.1l1.7.2v-.1c.3.2.6 0 .9-.1h.2c.1 0 .1 0 .2.1s.2 0 .4-.1h1.4c.1 0 .1.1.1.2-.2 0 .2.2-.1.2.1 0 .6 0 .5-.2 0-.2.2-.3 0-.4v-1.8h-9.6c-.3.1-.7.2-1.1.2l1.4-.3-.1.1c.1 0 .2-.1.3-.1 0 0 0 .1-.1.1.4.2 1.2-.1 1.4 0 .1 0 .2-.1.1-.2l4.5-.2c.1 0 .1.1.1.1.5-.1 1-.2 1.6-.2h.8l1.2.3c-.1.5-.1.9-.1 1.3.1 0 .1-.1.2 0v-.7c-.1-.2-.1-.4-.1-.6zm-24.6.5h-.4.4zm-.7 0h-.2.2zm-1.3.1h.3c-.4.1-.9.2-1.4.2.3-.2.7-.2 1.1-.2zm-1.4.2h-.1.1z"/><use xlink:href="#D" y="64"/><use xlink:href="#B" y="72"/><use xlink:href="#E" y="64"/><path d="M58.3 94.376h-.6l.1-.1c-.5 0-.2.2-.6.1-.2-.1 0-.1 0-.1-.6 0-1.2 0-1.8.1-.1-.2-.6 0-.8-.2-.2.1-.3 0-.4.2-2.1-.1-4.1.1-6.3.1-1 .3-2.2-.1-3.3 0-.4.1-.9.1-1.4.1l-.4.1c-2.7-.3-5.5-.1-8.3-.2-3.2-.1-5.9-.3-9 .1l.1-.1c-.9.1-1.7-.1-2.5 0-2.1.3-4.3 0-6.3.2h-1.5v2.2h2.3l2.2-.1v.1c1-.1 2 0 3.1 0 .5 0 1.1 0 1.5.1l1.5.3c.5.1 1.1.1 1.6.1.5-.1 1.1-.2 1.6-.5.2-.1.5-.1.8-.1h2.4c.6.2 1.4.1 2.1 0h2.3c2.1.4 4.2.2 6.3 0h9.9l1.7.2v-.1c.3.2.6 0 .9-.1h.2c.1 0 .1 0 .2.1s.2 0 .4-.1h1.4c.1 0 .1.1.1.2-.2 0 .2.2-.1.2.1 0 .6 0 .5-.2 0-.2.2-.3 0-.4v-1.8H47.3c.5 0 1-.1 1.5-.1l-.1.1c.1 0 .2-.1.3-.1 0 0 0 .1-.1.1.4.2 1.2-.1 1.4 0 .1 0 .2-.1.1-.2l4.5-.2c.1 0 .1.1.1.1.5-.1 1-.2 1.6-.2h.8l.9.1c-.1.5-.1.9-.1 1.3.1 0 .1-.1.2 0v-.7c-.1-.2-.1-.4-.1-.6zm-25.3.5h-.2.2zm-1 0h-1.4c.4-.2.9-.1 1.4 0zm-1.7 0h-.1.1zm3 0h0z"/><use xlink:href="#D" y="68"/><use xlink:href="#B" y="76"/><use xlink:href="#E" y="68"/><path d="M58.302 98.376h-.6l.1-.1c-.5 0-.2.2-.6.1-.2-.1 0-.1 0-.1-.6 0-1.2 0-1.8.1-.1-.2-.6 0-.8-.2-.2.1-.3 0-.4.2-2.1-.1-4.2.1-6.3.1-.5.2-1 .1-1.6.1-.3 0-.6 0-.9-.1-.3 0-.4.1-.5.1s-.3.1-.4.1c-.3.2-.9.3-1.3.3-.1.1-.2.1-.4.1-.7-.1-1.3-.2-2-.4-.2 0-.3-.1-.6-.1h-5.7c-1.6 0-3.1-.1-4.5-.1-.1 0-.3 0-.4.1l-.2.1c-.2 0-.3.1-.5.1-.3.1-.7.1-1 .2-.7.1-1.4.1-2.1 0 0 0 0-.1.1 0-.1 0-.2 0-.3-.1s-.3 0-.4 0h-1.8c-2.1.3-4.3 0-6.3.2h-1.6v2.2h2.3l2.2-.1v.1c2.1-.1 4.1.2 6.1.1h.4l.4-.2c.2-.1.5-.2.7-.2.5 0 1 .2 1.6.2.4 0 .9 0 1.3-.1h1.9c.6.2 1.4.1 2.1 0h2.3c1.2.2 2.5.3 3.7.2l.9-.1h.4l.5.1h.6c1.2.2 2.1.1 3.6-.3h6.4l1.7.2v-.1c.3.2.6 0 .9-.1h.2c.1 0 .1 0 .2.1s.2 0 .4-.1h1.4c.1 0 .1.1.1.2-.2 0 .2.2-.1.2.1 0 .6 0 .5-.2 0-.2.2-.3 0-.4v-1.8h-10.8c.5 0 1-.1 1.5-.1l-.1.1c.1 0 .2-.1.3-.1 0 0 0 .1-.1.1.4.2 1.2-.1 1.4 0 .1 0 .2-.1.1-.2l4.5-.2c.1 0 .1.1.1.1.5-.1 1-.2 1.6-.2h.8l.8-.1c-.1.5-.1.9-.1 1.3.1.1.1-.1.2 0v-.7c-.1-.2-.1-.4-.1-.6zm-24.6.5h-.4.4zm-.7 0h-.2.2zm-1.1 0h-1.4c.5-.2 1-.1 1.4 0zm-1.6 0h-.1.1z"/><use xlink:href="#D" y="72"/><use xlink:href="#B" y="80"/><use xlink:href="#C" y="80"/><path d="M58.302 102.376h-.6l.1-.1c-.5 0-.2.2-.6.1-.2-.1 0-.1 0-.1-.6 0-1.2 0-1.8.1-.1-.2-.6 0-.8-.2-.2.1-.3 0-.4.2-2.1-.1-4.2.1-6.3.1-1 .3-2.2-.1-3.3 0-.4.1-.9.1-1.4.1l-.4.1c-2.7-.3-5.5-.1-8.3-.2-.8 0-1.6-.1-2.3-.1h-.2c-.1 0-.1.1-.2.1-.1.1-.1.1-.2.1s-.3.1-.5.1c-.3 0-.7.1-1 .1h-1.5c-.1 0-.2-.1-.4 0h-.3c-.7.1-1.4.2-2.1.1 0 0 0-.1.1 0-.2 0-.4-.1-.6-.1l-.3-.1c-.1-.1-.3 0-.4-.1h-1.2c-2.1.3-4.3 0-6.3.2h-1.6v2.2h1.2c.4 0 .7.1 1.1.1.7.1 1.4.1 2.2.1v.1l6.1.2c1.1.1 2.2-.1 3.2-.1h1.1c.5 0 .8-.1 1.6-.2.1 0 .2-.1.3-.1 0 0 .1 0 .1-.1h.1c.6.1 1.4 0 2.1 0h2.3c2.1.4 4.2.2 6.3 0h9.9l1.7.2v-.1c.3.2.6 0 .9-.1h.2c.1 0 .1 0 .2.1s.2 0 .4-.1h1.4c.1 0 .1.1.1.2-.2 0 .2.2-.1.2.1 0 .6 0 .5-.2 0-.2.2-.3 0-.4v-1.8h-10.9c.5 0 1-.1 1.5-.1l-.1.1c.1 0 .2-.1.3-.1 0 0 0 .1-.1.1.4.2 1.2-.1 1.4 0 .1 0 .2-.1.1-.2l4.5-.2c.1 0 .1.1.1.1.5-.1 1-.2 1.6-.2h.8l.7-.1c-.1.5-.1.9-.1 1.3.1 0 .1-.1.2 0v-.7c-.1-.2-.1-.4-.1-.6zm-25.3.5h-.2.2zm-1.3.1c.1 0 .2 0 .3-.1-.3.2-.8.3-1.3.3.2-.1.6-.1 1-.2zm-1.4.3h-.1.1zm2.9-.4h0z"/><use xlink:href="#D" y="80"/><use xlink:href="#B" y="88"/><use xlink:href="#E" y="80"/><path d="M58.3 110.376h-.6l.1-.1c-.5 0-.2.2-.6.1-.2-.1 0-.1 0-.1-.6 0-1.2 0-1.8.1-.1-.2-.6 0-.9-.2-.2.1-.3 0-.4.2H52l-.4.1c-.2.1-.5.1-.7.2-1 .2-1.9.2-2.9-.1h-1.7c-.6 0-1.2-.1-1.7-.1-.4.1-.9.1-1.4.1l-.4.1c-2.7-.3-5.6-.1-8.3-.2h-2.1c-.1 0-.3.1-.4.1-.6.2-1.3.2-2 .3h-2.3c-.7.1-1.4.1-2.2 0 0 0 0-.1.1 0-.2 0-.4-.1-.6-.2h-2c-2.1.3-4.3 0-6.3.2h-1.5v2.2h2.3l2.2-.1v.1c1-.1 2.1 0 3.1 0l1.5.1h1.2c.1 0 .1 0 .3.1.5.2 1 .3 1.5.3s1-.1 1.5-.3c.2-.4.8-.6 1.2-.6s.9.1 1.5.2c.1 0 .3.1.4.1.7.2 1.4.1 2.2 0h2.2c2.2.4 4.3.2 6.4 0h.8c2.6.5 4.6.5 7.4 0h1.5c.6.1 1.1.2 1.7.2v-.1c.3.2.6 0 .9-.1h.2c.1 0 .1 0 .2.1s.2 0 .4-.1h1.4c.1 0 .1.1.1.2-.2 0 .2.2-.1.2.1 0 .6 0 .5-.2 0-.2.2-.3 0-.4v-1.8h-5.6c-1.3.4-2.2.5-3.2.3.4.1.9-.1 1 0 .1 0 .2-.1.1-.2.4 0 .7-.1 1.1-.2l.5-.1.3-.1c.1 0 .3-.1.3-.1l2.3-.1c.1 0 .1.1.1.1.5-.1 1-.2 1.6-.2h2.1c-.1.5-.1.9-.1 1.3.1.1.1-.1.2 0v-.7c-.1-.2-.1-.4-.1-.6zm-24.7.5h-.4.4zm-.6 0h-.2.2zm-1.1.2c-.4.1-.9.2-1.4.2.4-.2.7-.2 1.1-.2h.3zm-1.6.2h-.1.1zm17.3-.4H47c.2 0 .5-.1.7 0s.5.1.7.1h-.1c.1 0 .2-.1.3 0l-.1.1c.1.1.2.1.3.1-.3 0-.7-.1-1.2-.3z"/><use xlink:href="#D" y="84"/><use xlink:href="#B" y="92"/><use xlink:href="#E" y="84"/><path d="M58.3 114.376h-.6l.1-.1c-.5 0-.2.2-.6.1-.2-.1 0-.1 0-.1-.6 0-1.2 0-1.8.1-.1-.2-.6 0-.8-.2-.2.1-.3 0-.4.2-2.1-.1-4.2.1-6.3.1-1 .3-2.2-.1-3.3 0-.4.1-.9.1-1.4.1l-.4.1c-2.7-.3-5.5-.1-8.3-.2h-2.4c-.8.2-1.4.2-2.2.3-.7 0-1.4.1-2.1 0-.4 0-.7 0-1.1-.1l-.5-.1-.3-.1h-.3l.1-.1c-.9.1-1.7-.1-2.5 0-2.1.3-4.3 0-6.3.2h-1.5v2.2h2.3l2.2-.1v.1c2.1-.1 4.1.2 6.1.1h2.4c.2.1.5.1.8.2h1.2c.7 0 1.4 0 1.9-.2h.1c.2 0 .3-.1.5 0h.5c.4 0 .7-.1 1.1-.1h2.3c1.2.2 2.5.3 3.7.2.6 0 1.3-.1 1.9-.1.2 0 .5 0 .7-.1h.6c3 .5 5 .5 7.8 0H53c.6.1 1.1.2 1.7.2v-.1c.3.2.6 0 .9-.1h.2c.1 0 .1 0 .2.1s.2 0 .4-.1h1.4c.1 0 .1.1.1.2-.2 0 .2.2-.1.2.1 0 .6 0 .5-.2 0-.2.2-.3 0-.4v-1.8H47.4c.5 0 1-.1 1.5-.1l-.1.1c.1 0 .2-.1.3-.1 0 0 0 .1-.1.1.4.2 1.2-.1 1.4 0 .1 0 .2-.1.1-.2l4.5-.2c.1 0 .1.1.1.1.5-.1 1-.2 1.6-.2h.8l.8.1c-.1.5-.1.9-.1 1.3.1 0 .1-.1.2 0v-.7c-.1-.2-.1-.4-.1-.6zm-25.3.5h-.2.2zm-1.1.1c-.4.1-.9.2-1.4.2.4-.2.7-.2 1.1-.2h.3zm-1.6.2h-.1.1zm3-.3h0z"/><use xlink:href="#D" y="92"/><use xlink:href="#B" y="100"/><use xlink:href="#C" y="100"/><path d="M58.302 122.376h-.7l.1-.1c-.5 0-.2.2-.6.1-.1-.1 0-.1 0-.1-.6 0-1.2 0-1.8.1-.1-.2-.6 0-.9-.2-.2.1-.3 0-.4.2-2.1-.1-4.2.1-6.3.1-1 .3-2.2-.1-3.4 0-.4.1-.9.1-1.4.1l-.4.1c-2.9 0-5.5.7-8.4.6-.1 0-.1 0-.2.1h-.8c-.3 0-.7-.1-1.1-.2l-2.1-.6c-.8-.2-1.6-.3-2.4-.2-.4 0-.8.1-1.2.2-.3.1-.1.1-.4 0h-.6l.1-.1c-1 .1-1.8.3-2.6.5-.5.2-1 .2-1.5.1-.2-.1-.5-.2-.7-.3-.1 0-.1-.1-.2-.1h-.7l-3.2.1h-1.4v2.2h3.6l1.1-.3v.1c2-.3 4.1-.7 6-.2.2.1.5.2.7.4.1.1.2.1.3.2s.2.1.2.1h.2c.6 0 1.1-.1 1.7-.1l.8-.1.4-.1c.3-.6.8-.8 1.4-.9h.3c.3.1.7.1 1 .2.3 0 .6.1.9.1.2 0 .3-.1.5-.1l2-.3c2.1.1 4.2-.1 6.3.3.5.1 1 .3 1.5.5h8.4c.6.1 1.2.2 1.8.2v-.1c.3.2.6 0 .9-.1h.2c.1 0 .1 0 .2.1s.3 0 .4-.1h1.4c.1 0 .1.1.1.2-.2 0 .2.2-.1.2.1 0 .6 0 .5-.2 0-.2.2-.3 0-.4v-1.8h-11c.5 0 1-.1 1.5-.1l-.1.1c.1 0 .2-.1.3-.1 0 0 0 .1-.1.1.4.2 1.2-.1 1.4 0 .1 0 .2-.1.1-.2l4.6-.2c.1 0 .1.1.1.1.5-.1 1.1-.2 1.6-.2h.8l1.3.1c-.1.5-.1.9-.1 1.3.1.1.1-.1.2 0v-.7c-.1-.2-.1-.4-.1-.6zm-24.9 1.4h-.4.4zm-.6 0h-.2.2zm-1.1-.2c-.5-.1-.9-.2-1.4-.4.5 0 .9.2 1.4.4zm-1.6-.4h-.1c0-.1 0-.1.1 0z"/><use xlink:href="#D" y="96"/><use xlink:href="#B" y="104"/><use xlink:href="#F" y="92"/><path d="M17.4 128.976l2.1-.1v.1c2.1-.1 4.1.2 6.2.1h1.1c.1 0 .3.1.4.1.6.1 1.1.1 1.7.1.5 0 1-.1 1.6-.1.3 0 .7-.1 1.1-.2.2 0 .4-.1.6-.1.6.1 1.4 0 2.1 0h2.3c1.2.2 2.5.3 3.7.2.6 0 1.3-.1 1.9-.1.2 0 .5 0 .7-.1h.5c1.1.3 1.8.4 2.7.4h.4c1.7.2 3.7-1.8 5.4-.3h.5c.6.1 1.2.2 1.8.2v-.1c.3.2.6 0 .9-.1h.2c.1 0 .1 0 .2.1s.3 0 .4-.1h1.4c.1 0 .1.1.1.2-.2 0 .2.2-.1.2.1 0 .6 0 .5-.2 0-.2.2-.3 0-.4v-1.8h-3.6c-.3 0-.6.1-.9.1-.1 0-.3 0-.5.1-1.6.3-3.6.3-5.5.1h-.8c.6 0 1.1.1 1.7.1l-.1.1c.1 0 .2-.1.3-.1l-.1.1c.4.2 1.2-.1 1.4.1.1 0 .2-.1.1-.2.7 0 1.5-.1 2.2-.2.2 0 .4-.1.5-.1l1.2-.2c.1 0 .1 0 .3-.1h.3c.1 0 .1.1.1.1.5-.1 1-.2 1.6-.2h2v1.2c.1.1.1-.1.2 0v-.7c0-.2-.1-.4-.1-.6h-.7l.1-.1c-.5 0-.2.2-.6.1-.1-.1 0-.1 0-.1-.6 0-1.2 0-1.8.1-.1-.2-.6 0-.9-.2-.1 0-.1 0-.3.1-.1 0-.1.1-.2.1-.5.1-1 .1-1.6.2-.5.1-1 .1-1.5.2-1 .1-2.1.1-3.1 0-.5.1-1.1 0-1.6-.1-.3-.1-.6-.1-.8-.2-.2 0-.2 0-.5-.1h-.5c-.4.1-.9.1-1.4.1l-.4.1c-2.8-.3-5.6-.1-8.4-.2h-.5c-.1 0-.1 0-.3-.1s-.4-.3-.7-.5c-.1 0-.2-.1-.3-.2s-.2-.1-.3-.1c-.2 0-.5.1-.7.2l-.6.6h-.3c-.1.1-.3.3-.4.3s-.1.1-.1.1h-.4l-.7-.1-.7.1-2.5.3.1-.1c-.9 0-1.7-.2-2.5-.2h-3.3l-3.2.1h-1.8v2.2c1.2-.2 1.9-.2 2.7-.2zm15.6-2.4c.2.1.3.1.4.2-.1 0-.2 0-.4-.2.1.1.1.1 0 0zm-.1-.1c-.1 0-.1 0 0 0-.1 0-.1-.1-.2-.1.1.1.1.1.2.1zm-1.8.3a1.41 1.41 0 0 1 .7-.6c-.1.1-.3.3-.7.6-.1.1-.2.1-.3.1.1 0 .2-.1.3-.1zm-.5.3c-.1.1-.1.1-.1 0h.1z"/><use xlink:href="#D" y="100"/><use xlink:href="#B" y="108"/><use xlink:href="#E" y="100"/><path d="M58.3 130.376h-.6l.1-.1c-.5 0-.2.2-.6.1-.2-.1 0-.1 0-.1-.6 0-1.2 0-1.8.1-.1-.2-.6 0-.8-.2-.2.1-.3 0-.4.2-2.1-.1-4.2.1-6.3.1-1 .3-2.2-.1-3.3 0-.4.1-.9.1-1.4.1l-.4.1c-2.7-.3-5.5-.1-8.3-.2-3.2-.1-5.9-.3-9 .1l.1-.1h-1.3l-1.2.3c-1 .3-2 .2-3.1 0l-.8-.2h-.8c-.5 0-1 .1-1.5.1h-1.6v2.2h2.2l2.2-.1v.1h1.5c.3 0 .5.1.7.1.2.1.5.1.7.2 1 .2 2 .3 3.1.1a4.53 4.53 0 0 0 1.6-.3c.4-.1 1.1-.1 1.6-.1.4 0 .9-.1 1.3-.1h1.9c.6.2 1.4.1 2.1 0h2.3c1.2.2 2.5.3 3.7.2h2.5c3.4.3 6.5.2 10-.1.6 0 1.2.1 1.7 0v-.1c.3.2.6 0 .9-.1h.2c.1 0 .1 0 .2.1s.2 0 .4-.1h1.4c.1 0 .1.1.1.2-.2 0 .2.2-.1.2.1 0 .6 0 .5-.2 0-.2.2-.3 0-.4v-1.8H47.1c.5 0 1-.1 1.5-.1l-.1.1c.1 0 .2-.1.3-.1 0 0 0 .1-.1.1.4.2 1.2-.1 1.4 0 .1 0 .2-.1.1-.2 1.5 0 3-.1 4.5-.2.1 0 .1.1.1.1.5-.1 1-.2 1.6-.2h.8l1.1.2c-.1.5-.1.9-.1 1.3.1 0 .1-.1.2 0v-.7c-.1-.2-.1-.4-.1-.6zm-25.3.5h-.2.2zm-1.1 0h-1.4c.5-.2.9-.1 1.4 0zm-1.6 0h-.1.1zm3 0h0z"/><use xlink:href="#D" y="112"/><use xlink:href="#B" y="120"/><use xlink:href="#F" y="108"/><path d="M57.6 142.377l.1-.1c-.5 0-.2.2-.6.1-.1-.1 0-.1 0-.1-.6 0-1.2-.1-1.8.2-.2-.2-.6.1-.9-.1-.1.1-.3.1-.3.2l-6.3.3c-1 .3-2.2-.1-3.4 0-.4.1-1 .1-1.4 0l-.4.1c-1.8-.3-3.6-.3-5.5-.4h-3c-.8 0-1.6-.1-2.3-.1h-.5c-.2 0-.3-.1-.5-.2l-1.1-.3-1.2-.3c-.4 0-.9-.1-1.4.1-.2.1-.5.3-.6.5-.1.1 0 .2-.1.2 0 0-.3 0-.5.1l-.6.1.1-.1c-.2 0-.4 0-.7.1-.2.1-.4.1-.6.1-.4.1-.8.1-1.2.2-1 .2-2.1.2-3.2.1-.5-.1-1.1-.1-1.6-.2-.6 0-1.1 0-1.6.1h-1.3v2.2h2.4l2.3-.1v.1h.9c.1.1.1.1.2.1s.2-.1.2-.2c.1-.2.1-.3.1-.4.2-.2.6-.3.9-.4.3 0 .7.1 1 .2.7.2 1.3.5 2 .8.1.1.3.1.5.1h1.2c.5 0 1.1-.1 1.7-.1.4 0 .9-.1 1.3-.1h2c.7.2 1.4.1 2.2 0h2.3c.1 0 .3 0 .4.1.2 0 .3 0 .4.1.3.1.7.1 1 .1.7 0 1.3-.2 1.9-.4s1.2-.3 1.8-.4c.3 0 .5 0 .8.1.1 0 .2.1.3.1l9.6-.2c.6.1 1.1.2 1.7.2v-.1c.2.1.4 0 .6.1.1 0 .2.1.2.1l.2.2h-.1c.1.1.3 0 .4-.1H57c.1 0 .1.1.1.2-.2 0 .2.2-.1.2.1 0 .6 0 .5-.2 0-.2.2-.3 0-.4v-1.8h-2.8c-2.4.3-5.4.4-8.2.4.5 0 1-.1 1.5-.1l-.1.1c.1 0 .2-.1.3-.1 0 0 0 .1-.1.1.4.2 1.2-.1 1.4 0 .1 0 .2-.1.1-.2l4.5-.5c.1 0 .1.1.1.1.3-.1.5-.2.8-.2.3-.1.6-.1.8-.1h2.1v1.2c.1.1.1-.1.2 0 .1-.4 0-.9-.1-1.3 0-.1-.2-.1-.4-.1zm-24.3.5h-.4.4zm-.7 0h-.3.3zm-1.4-.1c.1 0 .3.1.4.1h-.1c-.1 0-.2 0-.3-.1-.4 0-.8-.2-1.1-.3l1.1.3zm-1.3-.3h-.1.1z"/><use xlink:href="#D" y="-4"/><path d="M58.2 28.176l.2.5c.2-.3-.3-.4-.2-.5z"/><use xlink:href="#C" y="4"/><path d="M15.202 28.975h3.2l2.7.1h.4v.1c1.1 0 2.1.2 3.2.3 1 .1 2.1.1 3.2-.1 1.1 0 2.2-.2 3.3-.4.4 0 .9-.1 1.3-.1h2c.7.2 1.5.1 2.2 0h2.4c2.2.4 4.3.2 6.5 0h3c.3.2.8.3 1.3.4h.4c.5-1.4.7-.2.9.8h-.3c-.5 0-1.2.1-1.7.4h-1.4c-1 .3-2.2-.1-3.3 0-.4.1-.9.1-1.4.1l-.4.1c-2.7-.3-5.5-.1-8.3-.2-1.6 0-3.1-.1-4.5-.1h-1.8l-.5.1c-.7.2-1.4.3-2.2.4l.1-.1c-.9.1-1.6-.1-2.4-.2-.1 0-.2 0-.4-.1h-2.9l-3.1.1h-1.6v2.2h2.2l2.2-.1v.1c2.1-.1 4.1.2 6.1.1 1.5.1 3-.1 4.5-.2h1.9c.6.2 1.4.1 2.1 0h2.3c2.1.4 4.2.2 6.3 0h5.8c.3.2 1 .4 1.8.4h.2c.4.1 1.2.1 2 0 .6 0 1.2 0 1.8-.2l-.1-.1h.3c.1 0 .2-.1.3-.1s.1 0 .2-.1h.2c.1 0 .1 0 .2.1s.2 0 .4-.1h1.4c.1 0 .1.1.1.2-.2 0 .2.2-.1.2.1 0 .6 0 .5-.2 0-.2.2-.3 0-.4v-1.8h-4.3c-.5-.2-1-.3-1.6-.3 0-.1.1-.2.1-.2h.3c.4 0 .8.1 1.2.2h1.1c.1 0 .1.1.1.1.5-.1 1-.2 1.6-.2h2v1.2c.1 0 .1-.1.2 0v-.7c0-.2-.1-.4-.1-.6h-.6l.1-.1c-.5 0-.2.2-.6.1-.2-.1 0-.1 0-.1-.6 0-1.2 0-1.8.1-.1-.2-.6 0-.8-.2-.2.1-.3 0-.4.2h-.4c-.2 0 0 0-.2-.1-.3-.1-.5-.2-.8-.2-.2 0-.4 0-.5-.1a8.11 8.11 0 0 0 .3-1.1h.4l.5.1c.3 0 .6.1.9 0v-.1c.3.2.6 0 .9-.1h.2c.1 0 .1 0 .2.1s.3 0 .4-.1h1.4c.1 0 .1.1.1.2-.2 0 .2.2-.1.2.1 0 .6 0 .5-.2 0-.2.2-.3 0-.4v-1.8h-9.8l-.1.1c.1 0 .2-.1.3-.1 0 0 0 .1-.1.1.4.2 1.2-.1 1.5 0 .1 0 .2-.1.1-.2l4.7-.2c.1 0 .1.1.1.1.5-.1 1.1-.2 1.7-.2h2.1v1.2c.1.1.1-.2.2 0 .1-.5 0-.9-.1-1.2h-.8l.1-.1c-.5 0-.2.2-.6.1-.1-.1 0-.1 0-.1-.6 0-1.2 0-1.8.1-.1-.2-.7 0-.9-.2-.2.1-.3 0-.4.2-2.1-.1-4.3.1-6.5.1-.1 0-.3.1-.4.1s-.4 0-.5.1c-.2.1-.5.1-.8.2-.6.1-1.1 0-1.7.1h-.6c-.1 0-.2 0-.3-.1l-.1-.1-.2-.1-.3.1-.2.1-4.3-.2h-1.1c-.4.1-.7.1-1.1.2-.7.1-1.4.1-2.1.1-1.6 0-3.1-.2-4.6-.4l-.6-.1h-1.9c-.8 0-1.5.1-2.3.2l.1-.1c-.9.1-1.8-.1-2.6 0-1.1.1-2.1.1-3.2.1h-2.4c-.3 0-.6 0-.9.1v.2c-.4.9-.4 1.6-.4 2.3zm33.3 1.8s0 .1 0 0c0 0 .1-.1.2 0 0 0 0 .1-.1.1.2.1.5.1.8 0 .2-.1.5-.3.6-.2.1 0 .1-.1.1-.2.4-.1.9-.2 1.3-.2 0 .1 0 .2.1.2-.8 0-1.6.1-2 .4h-2.5c.5 0 1-.1 1.5-.1zm-14.8.1h-.4.4zm-.6 0h-.2.2zm-1.1 0h-1.4c.5-.2.9-.1 1.4 0zm-1.7 0h-.1.1zm16.3-3.9h.2c-.1 0-.2.1-.3.1 0-.1 0-.1.1-.1zm-13.8.3h-.4.4zm-1.9-.1c-.4 0-.9-.1-1.3-.1.4-.1.8 0 1.3.1zm-1.7-.2c-.1 0 0 0 0 0h0z"/><use xlink:href="#D" y="12"/><path d="M58.2 44.078c0 .1 0 .1 0 0l.2.5c.2-.2-.3-.3-.2-.5zm-.098-.402c.1.1 0 .3.1.3.1-.2 0-.2-.1-.3zm-42.902 1.3h3.5l3.4-.1v.1c2.2-.1 4.3.2 6.5.1 1.6.1 3.2-.1 4.8-.2h2c.7.2 1.5.1 2.3 0h2.4c1.1.2 2.1.3 3.3.2.7-.3 1.3-.4 2-.5.3-.1.7-.2 1-.1.1 0 .1.1.2.1.1.1.2.1.3.2h.3c.7-1 1.9-.4 2.8-.1.1 0 .2.1.4.1v1.2c0 .1-.1.2-.1.4h-2.5c-1 .3-2.2-.1-3.3 0-.4.1-.9.1-1.4.1l-.4.1c-2.7-.3-5.6-.1-8.3-.2-1.6 0-3.1-.1-4.5-.1h-.6c-.1 0-.5 0-.7.1l-1 .3c-.3.1-.7.1-1 .1-.2 0-.3 0-.5-.1-.2 0-.3-.1-.6-.2h-2.6c-2.1.3-4.3 0-6.3.2h-1.4v2.2h2.3l2.2-.1v.1c1-.1 2.1 0 3.1 0l1.5.1h1.2l.4-.1c.5-.1 1-.2 1.5-.2s1 .1 1.4.5h1.4c.5 0 1.1 0 1.6-.1h.3c.7.1 1.4-.1 2.1-.3h2.3c1.2.2 2.5.3 3.7.2l.9-.1a2.39 2.39 0 0 0 .9.2h.6c.9.1 1.9 0 2.4-.3h7.6l1.7.2v-.1c.3.2.6 0 .9-.1h.2c.1 0 .1 0 .2.1s.2 0 .4-.1h1.4c.1 0 .1.1.1.2-.2 0 .2.2-.1.2.1 0 .6 0 .5-.2 0-.2.2-.3 0-.4v-1.8h-6.7v-.2c1.1 0 2.3-.1 3.5-.2.1 0 .1.1.1.1.5-.1 1-.2 1.6-.2h2v1.2c.1.1.1-.1.2 0v-.7c0-.2-.1-.4-.1-.6h-.6l.1-.1c-.5 0-.2.2-.6.1-.2-.1 0-.1 0-.1-.6 0-1.2 0-1.8.1-.1-.2-.6 0-.9-.2-.2.1-.3 0-.4.2h-3v-.5c.2-.6.3-1.2.4-1h.3c.1-.4.4-.6.7-.7.6-.1 1.2.2 1.7.4v-.1c.2.2.5.3.8.3h.2c.1 0 .2.1.2.1.1.1.3 0 .4-.1h1.4c.1 0 .1.1.1.2-.2 0 .3.2-.1.2.1 0 .6 0 .6-.2s.2-.3 0-.4v-1.8h-2.3c-1.2.5-3.2.5-3.8.4h-.5c-.7.1-1.5 0-2.1 0H49a3.73 3.73 0 0 1-1.2-.2c-.1 0-.3.1-.4.1-.4.1-.8.1-1.2.1.5-.1 1.1-.1 1.6-.3h0c.1 0 .2-.1.3 0l-.1.1c.3.2.8.1 1.1.1h.3c.1 0 .2-.1.1-.2l2.4-.1c.8 0 1.6-.1 2.3-.3.1 0 .1.1.1.1l.7-.3.2-.1c.1-.1.2-.1.3-.1h2.6v1.1c.1.1.1-.2.2 0 .1-.5 0-.9-.1-1.2-.3 0-.6.1-.9 0l.1-.1c-.3 0-.3 0-.3.1 0 0-.1.1-.2 0s0-.1 0-.1h-1.4l-.2.1s-.1 0-.1.1l-.2.1c-.2-.1-.6.1-.8 0-.1.1-.3.1-.3.2h-5.7c-.1 0-.2 0-.4-.1l-.5.1c-.5.2-1 .3-1.6.2-.3 0-.6-.1-.9-.1l-.4-.1c-.1 0-.1 0-.2-.1-.1 0-.1 0-.2-.1-.6-.1-1.1 0-1.6 0l-.4.1c-2.9-.3-5.9-.1-8.8-.2h-2.5c-.8.2-1.4.3-2.1.3s-1.4-.1-2.2 0h-2.5c-.3-.1-.7-.5-1.1-.7-.3-.1-.6-.2-.9 0-.2.1-.4.3-.5.4-1 .1-1.9.1-2.9.1h-3.2c0 .3 0 .5.1.7-.2 1.2-.2 1.7-.2 2.3zm33.2 1.8c-.1 0-.1.1 0 0 0 0 .1-.1.2 0 0 0 0 .1-.1.1.4.2 1.2-.1 1.4 0 .1 0 .2-.1.1-.2h.1v.1s-.1.1 0 .1l.1.1h-3.4c.6-.1 1.1-.2 1.6-.2zm-14.8.1h-.4.4zm-.7 0h-.2.2zm-1.1 0h-1.4c.5-.2.9-.1 1.4 0zm-1.6 0h-.1.1zm2-4h-.4.4zm-.7 0h-.2.2zm-1.1.1l-1.4.3c.4-.2.7-.2 1.1-.2.1 0 .2-.1.3-.1zm-1.7.3h-.1.1z"/><use xlink:href="#D" y="16"/><use xlink:href="#B" y="24"/><use xlink:href="#E" y="16"/><use xlink:href="#D" y="36"/><use xlink:href="#B" y="44"/><use xlink:href="#E" y="36"/><path d="M58.302 66.378h-.6l.1-.1c-.5 0-.2.2-.6.1-.2-.1 0-.1 0-.1-.6 0-1.2 0-1.8.1-.1-.2-.6 0-.8-.2-.2.1-.3 0-.4.2h-1.3l-.4.1c-.5.1-1 .1-1.5.2l-3.1.2c-1 .3-2.1-.1-3.3-.2h-1.5l-.4.1c-2.7-.3-5.5-.1-8.3-.2-1.1 0-2.1-.1-3.2-.1l-.2.1h-.1c-.1 0-.1 0-.3-.1l-1-.3c-.3-.1-.7-.1-1.1-.1-.2 0-.4.1-.6.1-.1 0-.2.1-.3.2h-1c-.4 0-.7.1-1.1.1l.1-.1c-.9.1-1.7-.1-2.5 0-2.1.3-4.3 0-6.3.2h-1.7v2.2h2.2l2.1-.1v.1c2.1-.1 4.1.2 6.1.1 1.5.1 3-.1 4.5-.2h1.9c.6.2 1.4.1 2.1 0h2.3c2.1.4 4.2.2 6.3 0h9.9l1.7.2v-.1c.3.2.6 0 .9-.1h.2c.1 0 .1 0 .2.1s.2 0 .4-.1h1.4c.1 0 .1.1.1.2-.2 0 .2.2-.1.2.1 0 .6 0 .5-.2 0-.2.2-.3 0-.4v-1.8h-4.6c-1.2.2-2.7.3-4.2.4.4 0 .8-.2 1-.1.1 0 .2-.1.1-.2.7-.1 1.5-.1 2.2-.3.2 0 .4-.1.6-.1.1 0 .2 0 .3-.1h.3c.4 0 .8-.1 1.1-.1.1 0 .1.1.1.1.5-.1 1-.2 1.6-.2h.8l1.2.3c-.1.5-.1.9-.1 1.3.1 0 .1-.1.2 0v-.7c-.1-.2-.1-.4-.1-.6zm-24.6.5h-.4.4zm-.7 0h-.2.2zm-1.6-.1c.2 0 .4 0 .6.1h-.2c-.1 0-.3 0-.4-.1a.76.76 0 0 1-.4.2c-.1 0-.3 0-.4-.1h-.1c.4 0 .6 0 .9-.1zm-1 0h-.1v-.1l.1.1zm16.5.5c.5 0 1 0 1.5-.1l-.1.1c.1 0 .2-.1.3-.1 0 0 0 .1-.1.1.1 0 .2.1.3.1-.5-.1-1.2-.1-1.9-.1z"/><use xlink:href="#D" y="40"/><use xlink:href="#B" y="48"/><use xlink:href="#E" y="40"/><path d="M58.3 70.376h-.6l.1-.1c-.5 0-.2.2-.6.1-.2-.1 0-.1 0-.1-.6 0-1.2 0-1.8.1-.1-.2-.6 0-.9-.2-.2.1-.3 0-.4.2h-2.5l-.8.1-3.1.3c-1 .4-2.2.1-3.3.2-.4.1-.9.1-1.4.1l-.4.1c-1.4-.2-2.8-.1-4.1-.2-.7-.1-1.4-.1-2-.3-.1 0-.3-.1-.3 0h-1.8c-.8 0-1.6-.1-2.3-.1h-1.8l-.5.1c-1.4.2-2.9.3-4.4.4l.1-.1c-.9 0-1.7-.1-2.5-.1-.5 0-1 0-1.6-.1h-1.6l-3.1.1h-1.4v2.2h2.3l2.2-.1v.1c2.1-.1 4.1.2 6.1.1h.8c.2 0 .5.1.8.2.5.1 1.1.1 1.7.1.4 0 .8-.1 1.2-.2s.7-.1 1.2-.2h.8c.7.2 1.4.1 2.1 0h2.3c.3.1.6.1.8.1s.3 0 .4.1l.5.2.9.3c.2 0 .3.1.5.1s.4 0 .5-.1c.7-.2 1.1-.7 1.7-1 .2-.1.6-.1.8-.1l3.9.1h.5l5.3.4c.6.1 1.2.2 1.8.1v-.1c.3.1.6-.1.9-.1h.2c.1 0 .1 0 .2.1s.2 0 .4-.1h1.4c.1 0 .1.1.1.2-.2 0 .2.2-.1.2.1 0 .6 0 .5-.2 0-.2.2-.3 0-.4v-1.8h-5.7c-1.4.2-3 .3-4.6.4h-.5c.5-.1.9-.1 1.4-.2l-.1.1c.1 0 .2-.1.3-.1 0 0 0 .1-.1.1.4.2 1.1-.2 1.4-.1.1 0 .2-.1.1-.2.7-.1 1.4-.2 2.3-.2l2.3-.1c.1 0 .1.1.1.1.5-.1 1-.2 1.6-.2h.8l1-.3c-.1.5-.1.9-.1 1.3.1.1.1-.1.2 0v-.7c-.1-.2-.1-.4-.1-.6zm-24.7.5h-.4.4zm-.6 0h-.2.2zm-1.4 0h.3-1.1c-.1 0-.2 0-.3.1.3-.2.7-.2 1.1-.1zm-1.4.1h-.1.1z"/><use xlink:href="#D" y="44"/><use xlink:href="#B" y="52"/><use xlink:href="#E" y="44"/><path d="M58.3 74.376h-.6l.1-.1c-.5 0-.2.2-.6.1-.2-.1.1-.1 0-.1-.6 0-1.2 0-1.8.1-.1-.2-.6 0-.8-.2-.2.1-.3 0-.4.2-2.1-.1-4.1.1-6.2.1-1 .3-2.2-.1-3.3 0-.4.1-.9.1-1.4.1l-.4.1c-2.7-.3-5.5-.1-8.3-.2-3.2-.1-5.9-.3-9 .1l.1-.1c-.9.1-1.7-.1-2.5 0-2.1.3-4.3 0-6.3.2h-1.6v2.2h2.2l2.2-.1v.1c2.1-.1 4 .2 6.1.1 1.5.1 3-.1 4.5-.2h1.9c.6.2 1.4.1 2.1 0h2.3c2.1.4 4.2.2 6.2 0h9.9l1.7.2v-.1c.3.2.6 0 .9-.1h.2c.1 0 .1 0 .2.1s.2 0 .4-.1h1.4c.1 0 .1.1.1.2-.2 0 .2.2-.1.2.1 0 .6 0 .5-.2 0-.2.2-.3 0-.4v-1.8H47.1c.5 0 1-.1 1.5-.1l-.1.1c.1 0 .2-.1.3-.1 0 0 0 .1-.1.1.4.2 1.2-.1 1.4 0 .1 0 .2-.1.1-.2l4.5-.2c.1 0 .1.1.1.1.5-.1 1-.2 1.6-.2h.8l1.1.1c-.1.5-.1.9-.1 1.3.1 0 .1-.1.2 0v-.7c-.1-.2-.1-.4-.1-.6zm-25.2.5h-.2.2zm-1.1 0h-1.4c.5-.2.9-.1 1.4 0zm-1.7 0h-.1.1zm3 0h0z"/><use xlink:href="#D" y="56"/><use xlink:href="#B" y="64"/><use xlink:href="#E" y="56"/><path d="M58.3 86.376h-.6l.1-.1c-.5 0-.2.2-.6.1-.2-.1 0-.1 0-.1-.6 0-1.2 0-1.8.1-.1-.2-.6 0-.8-.2-.2.1-.3 0-.4.2-2.1-.1-4.1.1-6.3.1-1 .3-2.2-.1-3.3 0-.4.1-.9.1-1.4.1l-.4.1c-2.7-.3-5.5-.1-8.3-.2-3.2-.1-5.9-.3-9 .1l.1-.1c-.9.1-1.7-.1-2.5 0-2.1.3-4.3 0-6.3.2h-1.5v2.2h2.3l2.2-.1v.1c.5-.1 1 0 1.5.1l1.5.2c1 .1 2 .2 3.1.1.3 0 .5 0 .8.1h.8c.6 0 1.1-.1 1.6-.4.3-.2.7-.3 1.1-.3h2c.6.2 1.4.1 2.1 0h2.3c2.1.4 4.2.2 6.3 0h9.9l1.7.2v-.1c.3.2.6 0 .9-.1h.2c.1 0 .1 0 .2.1s.2 0 .4-.1h1.4c.1 0 .1.1.1.2-.2 0 .2.2-.1.2.1 0 .6 0 .5-.2 0-.2.2-.3 0-.4v-1.8H47.2c.5 0 1-.1 1.5-.1l-.1.1c.1 0 .2-.1.3-.1 0 0 0 .1-.1.1.4.2 1.2-.1 1.4 0 .1 0 .2-.1.1-.2l4.5-.2c.1 0 .1.1.1.1.5-.1 1-.2 1.6-.2h.8l1 .2c-.1.5-.1.9-.1 1.3.1 0 .1-.1.2 0v-.7c-.1-.2-.1-.4-.1-.6zm-25.3.5h-.2.2zm-1 0h-1.4c.4-.2.9-.1 1.4 0zm-1.7 0h-.1.1zm3 0h0z"/><use xlink:href="#D" y="76"/><use xlink:href="#B" y="84"/><use xlink:href="#F" y="72"/><path d="M17.202 108.976c.7 0 1.3 0 2-.1v.1c1.8-.1 3.6.1 5.3.1.1 0 .2.1.4.2.1 0 .3.1.4.1.5.1 1 .1 1.5.1.1 0 .3 0 .4-.1h.2l.2-.1c.2-.2.4-.3.6-.4a2.2 2.2 0 0 1 1.4-.2c.4 0 .9.1 1.5.3.1 0 .3.1.4.1h.1c.2.1.4.1.6 0 .5 0 1.1 0 1.6-.1h2.3c2.1.4 4.2.2 6.4 0h10.1c.6.1 1.2.2 1.8.2v-.1c.3.2.6 0 .9-.1h.2c.1 0 .1 0 .2.1s.3 0 .4-.1h1.4c.1 0 .1.1.1.2-.2 0 .2.2-.1.2.1 0 .6 0 .5-.2 0-.2.2-.3 0-.4v-1.8h-9.6l-.1.1c.1 0 .2-.1.3-.1 0 0 0 .1-.1.1.4.2 1.2-.1 1.4 0 .1 0 .2-.1.1-.2l4.6-.2c.1 0 .1.1.1.1.5-.1 1.1-.2 1.6-.2h2.1v1.2c.1.1.1-.1.2 0 .1-.4 0-.9-.1-1.3h-.7l.1-.1c-.5 0-.2.2-.6.1-.1-.1 0-.1 0-.1-.6 0-1.2 0-1.8.1-.1-.2-.6 0-.9-.2-.2.1-.3 0-.4.2-2.1-.1-4.2.1-6.4.1-.3.1-.5.1-.9.2-.3.2-.5.2-.7.2h-1.7c-.4 0-.9 0-1.3-.2-.1 0-.4 0-.5.1-2.8-.3-5.6-.1-8.4-.2h-1.8l-.2.1c-.2.1-.2.1-.3.1l-.2.1c-.1 0-.3.1-.4.1s-.3 0-.5.1h-.4c-.7 0-1.1 0-1.7-.2l-.5-.2h-.3v-.4h-1.1c-.2 0-.5 0-.7-.1 0 0 0-.1.1 0-.5-.1-.9-.1-1.4-.1a1.08 1.08 0 0 0-.7.3l-.4.4v.1c-.1.1-.2.1-.5.1h-2.4l-3.2.1h-2.1v2.2c.3-.4.9-.4 1.6-.4zm29.4-1.9c.1 0 .1-.1.2-.1 0 0-.1.1-.2.1zm-13.2-.2h-.4.4zm-.7 0s-.1 0 0 0c-.1 0 0 0 0 0zm-1.4.3h.3c-.2 0-.3.1-.5.1-.1 0-.3.1-.5.1h-.4c.4-.2.7-.2 1.1-.2zm-1.3.2h-.1.1z"/><use xlink:href="#D" y="88"/><use xlink:href="#B" y="96"/><use xlink:href="#E" y="88"/><path d="M58.3 118.378h-.6l.1-.1c-.5 0-.2.2-.6.1-.2-.1 0-.1 0-.1-.6 0-1.2 0-1.8.1-.1-.2-.6 0-.8-.2-.2.1-.3 0-.4.2h-.5l-.4.1-.8.1c-.5.1-1 .1-1.5.2-1 .1-2.1.1-3.1 0-.5.1-1 0-1.6-.1l-.4-.1c-.1 0-.1 0-.3-.1h-1.1c-.4.1-.9.1-1.4.1l-.4.1c-2.7-.3-5.5-.1-8.3-.2-.8 0-1.6 0-2.3-.1l-2.3.1-4.4.4.1-.1c-.9.1-1.7 0-2.5 0-2.1.2-4.3-.3-6.3-.1h-1.5v2.2h2.3l2.2-.1v.1c2.1-.3 4.1-.2 6.1-.3 1 .1 2 0 3 0h.4c.1 0 .3-.1.4-.1.2-.1.4-.1.6-.1.6 0 1.2.1 1.6.4h.4c.6.2 1.4.1 2.1 0h2.3c1.2.2 2.5.3 3.7.2.6 0 1.3 0 1.9-.2.2-.1.4-.1.6-.2 3.2-.5 6.5-1.1 9.8 0l.4.2c.1.1.3.1.5.1.3 0 .6.1.9 0v-.1c.3.2.6 0 .9-.1h.2c.1 0 .1 0 .2.1s.2 0 .4-.1h1.4c.1 0 .1.1.1.2-.2 0 .2.2-.1.2.1 0 .6 0 .5-.2 0-.2.2-.3 0-.4v-1.8h-3.7a20.71 20.71 0 0 1-5 .3c.3 0 .7-.1.9 0 .1 0 .2-.1.1-.2.7 0 1.5-.1 2.2-.2.4-.1.7-.1 1.1-.2l.6-.1c.3 0 .4 0 .6-.1.1 0 .1.1.1.1.5-.1 1-.2 1.6-.2h.8l1 .3c-.1.5-.1.9-.1 1.3.1.1.1-.1.2 0v-.7c-.1-.2-.1-.4-.1-.6zm-24.6.5h-.4.4zm-.7 0h-.2.2zm-1.1 0c-.4 0-.9.1-1.3.1.4-.1.8-.1 1.3-.1zm15.3.2h1.3l-.1.1c.1 0 .2-.1.3-.1l-.1.1c.1 0 .2 0 .2.1-.5-.1-1.1-.1-1.6-.2z"/><use xlink:href="#D" x="-0.1" y="104"/><path d="M58.2 136.176s-.1 0 0 0l.2.5c.2-.2-.3-.4-.2-.5zm.002-.1c.1-.2-.1-.2-.1-.3.1.1 0 .3.1.3z"/><path d="M57.7 134.377l.1-.1c-.5 0-.2.2-.6.1-.2-.1.1-.1 0-.1h-1.1l-.8.3c-.2-.1-.6.1-.8 0-.1.1-.3.1-.3.2-1 0-2 0-3-.1-.3 0-.5-.1-.8-.1h-2.5c-1 .3-2.2-.1-3.3 0-.4.1-.9.1-1.4.1l-.4.1c-2.7-.3-5.5-.1-8.3-.2-3.2-.1-5.9-.3-9 .1l.1-.1c-.9.1-1.7-.1-2.5 0-2.1.3-4.3 0-6.3.2h-1.5v2.2h2.3l2.2-.1v.1c1-.1 2 0 3.1 0H24c.1 0 .2.1.4.1.5.1 1 .2 1.6.2.5.1 1.1 0 1.6-.1.3-.1.5-.1.8-.2.1 0 .3-.1.4-.1h.4c.4 0 .9-.1 1.3-.1h1.9c.6.2 1.4.1 2.1 0h2.3c2.1.4 4.2.2 6.3 0h1.5c2 .5 3 .5 5 0h2.9c.2 0 .3.1.5.1.5.2 1.1.4 1.7.4v-.1c.3.2.6 0 .9-.1h.2c.1 0 .1 0 .2.1s.3 0 .4-.2c.3 0 .6-.1.9-.1h.4c.1 0 .2 0 .2.1-.1 0 .3.1-.1.3.1 0 .6-.1.5-.2 0-.2.1-.3-.1-.4l.1-1.3v-.5h-1.5c-2 .5-4 .5-6.2 0h-3.1c.5 0 1-.1 1.5-.1l-.1.1c.1 0 .2-.1.3-.1 0 0 0 .1-.1.1.4.2 1.2-.1 1.4 0 .1 0 .2-.1.1-.1 1.4.3 3 .4 4.4 0 .1 0 .1.1.1.1l.9-.3.5-.1s.2-.1.3-.1h1.7c.1 0 .2 0 .1.1v1.1c.1.1.1-.2.2 0 .1-.3 0-.7 0-1-.4-.3-.9-.1-1.1-.2zm-24.6.5h-.2.2zm-1.1 0h-1.4c.5-.2.9-.1 1.4 0zm-1.7 0h-.1.1zm3 0h0z"/><use xlink:href="#D" y="108"/><path d="M58.502 140.477c0-.1-.1-.1-.1-.2-.1-.1-.3-.2-.2-.3l-.1.1c.2.1.3.4.4.5v-.1zm-.402-.6c0-.2-.2-.2-.2-.2.1 0 .1.3.2.2z"/><path d="M16.6 138.776h-1.4v2.2h2.3l2.2-.1v.1c2.1-.1 4 .2 6.1.1h.4l.4.1c.3.1.5.1.8.1.5.1 1.1.1 1.6 0 .5 0 1-.1 1.4-.2.3 0 .7-.1 1-.2.3 0 .5-.1.8-.1.6.1 1.4.1 2.1 0h2.3c2.1.4 4.2.2 6.2 0h9.9l1.7.2v-.1c.3.2.6 0 .9-.1h.2c.1 0 .1 0 .2.1s.2 0 .4-.1h1.4c.1 0 .1.1.1.2-.2 0 .2.2-.1.2.1 0 .6 0 .5-.2 0-.2.2-.3 0-.4v-.4c-.5-2-2.5-1-3.4-1.5h-5.3c-.7-.4-1.6-.5-2.8.1 0 0 .1 0 .1-.1.4-.2.8-.4 1.3-.5l-.1.1c.1-.1.2-.1.3-.1l-.1.1c.2.1.5.1.8.1.1 0 .3.1.4.1.1.1.2.1.2.1.1 0 .2-.1.1-.2l4.5-.2c.1 0 .1.1.1.1.2 0 .3-.1.5-.1.1 0 .2 0 .3.1H56c.3 0 .7 0 1.1.2a1.59 1.59 0 0 1 1 .8c.1 0 0-.2.1-.1-.1-.3-.4-.4-.6-.5s-.5-.1-.7-.3l.1-.1c-.3-.1-.1.2-.4 0-.1-.1 0-.1 0-.1h-1.7c0-.1-.1-.1-.2-.1h-.3c-.2 0-.3 0-.5-.1-.2.1-.3 0-.4.2h-4.2s-.2-.1-.3-.1c-.6-.2-1.2-.2-1.8 0-.2.1-.5.3-.7.4s-.5.3-.7.3c-.5 0-1.1-.1-1.6-.2h-.6c-.1 0-.2 0-.3-.1-.1 0-.3-.1-.4-.1l-.4.1c-2.7-.3-5.5-.1-8.3-.2-.9 0-1.8-.1-2.7-.1h-.7c-.4 0-.5.1-.7.1-.4.1-.8.2-1.3.2h-.1l-.8.1c-.8.1-1.5.1-2.4.1 0 0 0-.1.1-.1-.2 0-.4 0-.6-.1-.2 0-.3-.1-.7-.1h-1.2c-2.3.4-4.5.1-6.5.4zm13.1.2h0zm3.5-.1h-.4.4zm-.7 0h-.2.2zm-1.3 0h.3-1c-.1 0-.3 0-.4.1.2-.1.3-.2.5-.2s.4 0 .6.1z"/><use xlink:href="#D" y="116"/><use xlink:href="#B" y="124"/><use xlink:href="#C" y="124"/><path d="M58.3 146.376h-.7l.1-.1c-.5 0-.2.2-.6.1-.1-.1 0-.1 0-.1-.6 0-1.2 0-1.8.1-.1-.2-.6 0-.9-.2-.2.1-.3 0-.4.2-2.1-.1-4.2.1-6.3.1-.3.1-.5.1-.8.1-.3.1-.5.1-.8.2-.5.1-1.1.1-1.6.1-.4.1-.9 0-1.3-.1h-.4c-.1 0-.2-.1-.3-.1h-3.9c-.7.3-1.3.4-2 .4-.3 0-.6-.1-1-.2-.2 0-.3-.1-.5-.1-.2-.1-.5 0-.7 0l-9 .5.1-.1c-.9.1-1.7-.1-2.5-.1-1 .1-2.1 0-3.2-.2-1.2-.1-2.2 0-3.2.1h-1.4v2.2h2.3l2.3-.1v.1c.3 0 .5-.1.7 0l.2.1.2-.1.4-.1 1.5-.3c1-.2 2-.3 3-.3l1.5.3c.3.1.5.1.8.2l.4.1h.4c.4 0 .8-.1 1.1-.2.1 0 .3-.1.4-.1.2 0 .4-.1.6-.1.1 0 .3-.1.4-.1h.5c.6.1 1.3-.1 2 .1a.76.76 0 0 1 .4.2c.1.1.2.1.3.2.5-.1 1.1-.1 1.6-.1l3.6.6c.6.1 1.3.1 1.9.1.2 0 .4 0 .7-.1 3 0 5.8 0 8.6-.5h1.4c.6.1 1.1.2 1.7.2v-.1c.3.2.6 0 .9-.1h.2c.1 0 .1 0 .2.1s.3 0 .4-.1h1.4c.1 0 .1.1.1.2-.2 0 .2.2-.1.2.1 0 .6 0 .5-.2 0-.2.2-.3 0-.4v-1.8H46.9c.4 0 .9-.1 1.3-.1l-.1.1c.1 0 .2-.1.3-.1 0 0 0 .1-.1.1.4.2 1.2-.1 1.4 0 .1 0 .2-.1.1-.2l4.5-.2c.1 0 .1.1.1.1.5-.1 1-.2 1.6-.2h.8l1.5-.2c-.1.5-.1.9-.1 1.3.1.1.1-.1.2 0v-.7c-.1-.2-.1-.4-.1-.6zm-25 .7h0zm-.3 0h-.1.1zm-1.1.1h-1.4c.5-.1 1 0 1.4 0zm-1.6.1h-.1.1zm16.5-.3h.1c0-.1 0-.1-.1 0z"/><use xlink:href="#D" y="120"/><use xlink:href="#B" y="128"/><use xlink:href="#C" y="128"/><path d="M17.4 152.978l2.1-.1v.1c2.1-.1 4.1.2 6.1.1 1.5.1 3-.1 4.5-.2H32c.6.2 1.4.1 2.1 0h2.3c1.2.2 2.5.3 3.7.2.6 0 1.3 0 1.9-.2.2 0 .4-.1.6-.1 3-.4 5.8-.4 8.9.1h1l1.7.2v-.1c.3.2.6 0 .9-.1h.2c.1 0 .1 0 .2.1s.2 0 .4-.1h1.4c.1 0 .1.1.1.2-.2 0 .2.2-.1.2.1 0 .6 0 .5-.2 0-.2.2-.3 0-.4v-1.8h-6.1l-2.7.3c.4 0 .8-.2 1-.1.1 0 .1-.1.1-.2.4-.1.7-.1 1.1-.2.2 0 .3-.1.6-.1h.6l2.3-.1c.1 0 .1.1.1.1.5-.1 1-.2 1.6-.2h2v1.2c.1 0 .1-.1.2 0v-.7c0-.2-.1-.4-.1-.6h-.6l.1-.1c-.5 0-.2.2-.6.1-.2-.1 0-.1 0-.1-.6 0-1.2 0-1.8.1-.1-.2-.6 0-.8-.2-.2.1-.3 0-.4.2h-2.8l-.4.1a16.28 16.28 0 0 1-3.1.3c-1 .4-2.1 0-3.3 0-.4.1-.9 0-1.4 0l-.4.1c-.3-.1-.6-.2-1-.2s-.7 0-1-.1h-6.3c-1.6 0-3.1-.1-4.5-.1h-3.1c-.1 0-.3.1-.4.1l-1 .3v-.1c-.9.2-1.7.1-2.5.1h-1.5c-.3 0-.5-.1-.8-.2-.4-.1-.6 0-.9 0l-3.1.1h-1.6v2.2c.6.1 1.4.1 2.1.1zm31-1.8s.1-.1.2-.1c0 0 0 .1-.1.1h.3c-.7 0-1.3.1-1.9.1.6-.1 1-.1 1.5-.1zm-14.7-.3h-.4.4zm-.7 0h-.2.2zm-1 0h-1.4c.5-.2.9-.1 1.4 0zm-1.7 0h-.1.1z"/><use xlink:href="#D" y="124"/><use xlink:href="#B" y="132"/><use xlink:href="#F" y="120"/><path d="M57.802 156.677v-1.8h-7.7a.76.76 0 0 1-.4.2h-.7c.1 0 .2 0 .4-.1.3 0 .4-.2.6-.2.1-.1.1-.2.1-.2l4.6-.2c.1 0 .1.1.1.1.5-.1 1-.2 1.6-.2h2v1.2c.1.1.1-.1.2 0v-.7c0-.2-.1-.4-.1-.6h-.7l.1-.1c-.5 0-.2.2-.6.1-.1-.1 0-.1 0-.1-.6 0-1.2 0-1.8.1-.1-.2-.6 0-.9-.2-.2.1-.3 0-.4.2h-3.9c-.1 0-.2 0-.3.1l-.2.1c-.1.1-.1.1-.2.1-.5.1-1.1.1-1.6.1-1 .4-2.2 0-3.3.1-.4.1-.9.1-1.4 0l-.4.1-4.1-.5c-1.5-.1-2.8 0-4.2-.1-3.2-.1-6-.3-9.1.1l.1-.1h-1.4c-.4.2-.7.2-1.1.3-.5.1-1 .1-1.5 0-.3-.1-.5-.1-.7-.2-.4-.1-.6 0-.9 0l-3.2.1h-1.3v2.2h2.4l2.3-.1v.1h.2c.1 0 .1-.1.2-.1l.3-.2c.2-.2.5-.2.7-.3s.5-.1.7-.1h.8c1 .1 1.9.4 3 .7 1 .4 2.1.6 3.3.4.3-.1.6-.1.8-.3.1-.1.2-.1.4-.2h2c.7.2 1.4.1 2.2 0h2.3c.3.1.6.1 1 .1h1.1l.2-.1.1-.1c.1-.1.2-.1.3-.2.2-.1.4-.2.6-.2.1 0 .2-.1.3-.1h2.5c1.6.1 3.3.3 4.7.8.1 0 .3 0 .4.1.9.1 1.8 0 2.3-.2.1 0 .3-.1.5-.1h2c.6.1 1.2.2 1.8.2v-.1c.3.2.6 0 .9-.1h.2c.1 0 .1 0 .2.1s.3 0 .4-.1h1.4c.1 0 .1.1.1.2-.2 0 .2.2-.1.2.1 0 .6 0 .5-.2-.7.3-.5.2-.7 0zm-9.4-1.6c-.1.1-.1.1 0 0 0 0 .1-.1.2-.1 0 0 0 .1-.1.1h.3l-2 .1c.6.1 1.1 0 1.6-.1zm-14.9-.2h-.4.4zm-.6 0h-.2.2zm-1.1 0h-1.4c.4-.2.9-.1 1.4 0zm-1.7 0h-.1.1z"/><path d="M97.5 166.976c-.1-1.3.1-4-.2-4.8-.3 2.3.3 2.3-.1 4.9l-.3-.7v-5.5c-.1.3-.1.4-.2.2-.1-2.6-.4-3.4-.3-5.9.3-.3.2 1.2.3 2.2.2-1.6 0-1.7.1-4.3.3-.1 0 1.7.2 2l-.1-2.8h.1c-.4-.4 0-2.2-.1-3.9 0-4.1-.6-4.7-.9-7 .1-.6.2-.8.3-.5-.2 1 0 .8.1 1.2 0-1.4.4-3 .6-2.3-.1-2.2-.2.8-.4-.6v-3c-.2.4-.3 1.4-.4-.1-.1-1.3 0-1.9 0-3.7.1.2.3-.5.3.7.1-.8.1-2.1-.1-2.6-.2 1.9-.2-3.1-.5-1.7l.2-1.9c0 .4.1.5.1 1.1.3-.5-.1-1.5-.1-2.2.1-.7.1-2.4.2-2.5-.1-.6 0-2 .2-2.3-.1-.9-.2-.1-.3-.3v-3c.2-.2.7-.4.8 0-.2-1.1-.5-.4-.5-2.1.4 1 .3-2.3.7-.8.3-1 .3-3.8.2-5.3-.3-1-.2 1.7-.4 1.6-.1-4.3-.9-4.6-.8-7.8l-.1.8c-.2-2-.1-1.8-.4-2.9.4.6 1-2.3.9-5.5-.2-.3-.3 1.8-.6 1.3l-.1-2.2c0-.2.1.1.1.4-.1-1.9.5-3.6 0-4.2l.3-1.2c-.2-.3-.2-2.5-.3-2.9-.2-2.2 0-3 .2-4.3-.1.4-.5 1.4-.5-.4.6 0 .2-3.7.5-3.6 0-.7.2-2-.1-2l.4.1c-.5-.2-.5-2.7-.6-4.7.7.4-.1-2.2.6-3-.5-.4-.2-3.5-.6-3.9 0-1.5.4-1.4.6-1.8l-.2-.7c.2-.8.3-3.6.4-5.3l-.4-1.6.2-.6c-.1-.3-.2-1.6-.3-.8v-.9c-.4-.1-.1-1.2-.3-2.9.1-.4.2-.3.2.1 0-.9.2-.5.4-1-.1.6-.8-3.1-1-.8-.2.2-.3-1.2-.2-2l.4-.5-.4-1c-.1-1.3.2-1.9.2-2.9 0 1.1.8 2.4.8-.4.1 1.5.3 2.2.4 3 0-.6.1-.9.2 0-.1-2.2-.2-.7-.3-2.9.4.1.5-.5.6-2.4l-.3 1.4c0-.1-.1-.2-.1-.3 0 .5-.1.7-.2.8 0-.4-.4-2.5-.2-2.9-.6 2.2-.4-3.8-.8-2.4-.1-.2-.1-1.8.1-1.9.3 1.8.4-1.4.7-1.1-.1-.7-.3 1.4-.4.5 0-1.1.2-1.9.3-2.5l.1.5.2-1.7c-.2-.3-.3 1.6-.4.1.1-.4 0-1.9.1-1.9.2.7.6.2.6 1.5 0-1.1-.1-4.6-.4-3.2v-1.3c-.2.8-.4 3.1-.5.5h.1l-.3-1.8.2-.8c-.1 0-.2-.3-.2-.9.1-.2.2-.8.3-.8 0-2-.2-1.8-.3-2 0-1.1.1-1.5.3-1l.2-5.1c-.2-2-.1.4-.3-.8 0-.1.1-.2.1-.3s.1-.3.1-.4c0-.3.1-.7.1-1.1.1-.8.1-1.7.1-2.8l-4.4-1.4-3.1-.9c.6.8-.7-.1-1.5 0 .1-.1-2.7-1.3-.1-.6l-2-.3c-1-.7 2.8.7 1.2-.3-1.9-.6-3.3-.4-5.4-1.4.9-.1-1.7-.4-1-.7.5 0 1.1.3 1.7.4l-.4-.2c-4-1.5-1.3 0-3.5-.4-2.5-.8-1.9-.9-1.9-1.2-.4-.2-1.6-.6-2.3-.7 1.6.3 2.7 1.2 1.9 1.2-.9-.8-3.7-1.3-4.4-1.3 3.4 1.6 2.4.8 5.6 2.4.5 0 .6-.4 2.5.4-1.3-.2 0 .2.3.4-.3-.3 1.4.4 2 .5.5.4-1.4.1.6.9l.6-.4c.8.3-.5.3 1.3.7-1 0 .1.5-2.2-.2 2.6 1.3 4.2 1.2 6.4 1.7h-.5c.5 0 1.3.3 1.9.5 1.4.6-1.2-.1-.9.1l2.3.7v.1c.6.1 1.3.3 1.4.5-.8-.1-1.1 0-1.6 0l2.5.5c-.2 0 .3.3.5.4 0 .2-.1.3-.1.1-.1 0-.3 0-.5-.1l.5.1.1 2.9-.4.3c.1.9.1.9.2-.1-.1 1.3.6 5.6-.1 4.9.3 2.9.2 3.9.4 7.5-.3-2.7-.4 3.1-.6.2-.2 1.7.2 2 .3 3.3-.2 1.2-.5.7-.6-.7l.2 1.6h-.1l.2 1.4c-.2 1.4-.4.3-.4 1.8l.3.3-.2 1c.1-.4.2.5.2 1.6h-.1l.1 1.3c-.2-1.3-.1 1.2-.3.6v3.2l.2-.4c.2 2.7-.3.1-.3 2.3l.3-.1c-.4 3.1.2 5.3 0 7.5-.1-1.3-.4-1-.3-1l.3 7.2c-.4.7-.5.9-.6 3 0 1.5.1 1.7.3 2.2-.1 1.5.1 4.2-.2 4.3.2.3 0 1.3.1 2.1l-.1.2.3-.1c-.6 2.6.3 4.4-.2 7.1l-.1-.5.1 1.1c-.1.2-.2-.3-.3-.3v5.2l.2-1c0 1.1.3 1.8.1 3.1-.4-2.1 0 1.7-.3 2.1l-.1-1.1c0 1.5 0 1.5.3 1.4.1 2-.5 1.3-.2 3.2v-1.3c.1-.4.4.5.3 1.4 0 .2-.2.8-.2.2l.1 4.6c-.1.8-.3.6-.3.1l.2 4.8-.1-.1.2 1.1-.3 1.6.2-.6c0 1.1.1 1.8 0 3l-.2-.5c.1 3.1-.4 3.5-.1 6.5 0 .2-.1-.3-.1-.5.3 2.1-.1 2.2-.1 3.4l-3.9-2.3v-.9c-.1.1-.1.8-.1 1.2l.2.1c.1.9-.1.2-.1 1.1-.1 0-.2-.8-.2-1.5 0 .6-.1 1.3 0 1.5-.1.6-.2-.1-.2.7 0 .5.2 1.2.1 1.8-.1 1.5.2 2.2.1 3.5v-.1c-.1.5 0 1.4-.1 2.2 0-.2.1-.5.1.1-.1 1 0 1.6-.1 2.3l.1.7v1c-.4 0-.7 0-1.1-.1-.7-.1-1.3-.3-1.9.1v-.1c-.2.1-.4-.1-.5 0-.4.3-.9 0-1.4.2h-.4v.8c0 .2 0 .5.1.7h-.1c.1.2 0 .5 0 .8.2.1.5.1.8.1.3.1.7-.1 1-.2h.4c.1.2.3.1.5 0h.5c.4.4.9.2 1.3 0h.9v1.7c-.4 0-.7 0-1.1-.1-.7-.1-1.3-.3-1.9.1v-.1c-.2.1-.4-.1-.5 0-.4.3-.9 0-1.4.2h-.4v.8c0 .2 0 .5.1.7h-.1c.1.2 0 .5 0 .8.2.1.5.1.8.1.3.1.7-.1 1-.2h.4c.1.2.3.1.5 0h.5c.4.4.9.2 1.3 0h.9v1.7c-.4 0-.8 0-1.1-.1-.7-.1-1.3-.3-1.9.1v-.1c-.2.1-.4-.1-.5 0-.4.3-.9 0-1.4.2h-.4v.8c0 .2 0 .5.1.7h-.1c.1.2 0 .5 0 .8.2.1.5.1.8.1.3.1.7-.1 1-.2h.4c.1.2.3.1.5 0h.5c.4.4.9.2 1.3 0h1v1.7c-.4 0-.8 0-1.2-.1-.7-.1-1.3-.3-1.9.1v-.1c-.2.1-.4-.1-.5 0-.4.3-.9 0-1.4.2H83v.8c0 .2 0 .5.1.7H83c.1.2 0 .5 0 .8.2.1.5.1.8.1.3.1.7-.1 1-.2h.4c.1.2.3.1.5 0h.5c.4.4.9.2 1.3 0h1v1.7c-.4 0-.8 0-1.2-.1-.7-.1-1.3-.3-1.9.1v-.1c-.2.1-.4-.1-.5 0-.4.3-.9 0-1.4.2h-.4v.8c0 .2 0 .5.1.7h-.1c.1.2 0 .5 0 .8.2.1.5.1.8.1.3.1.7-.1 1-.2h.4c.1.2.3.1.5 0h.5c.4.4.9.2 1.3 0h1.1v1.7c-.4 0-.8 0-1.2-.1-.7-.1-1.3-.3-1.9.1v-.1c-.2.1-.4-.1-.5 0-.4.3-.9 0-1.4.2h-.4v.8c0 .2 0 .5.1.7h-.1c.1.2 0 .5 0 .8.2.1.5.1.8.1.3.1.7-.1 1-.2h.4c.1.2.3.1.5 0h.5c.4.4.9.2 1.3 0h1.1v1.7c-.4-.1-.9 0-1.3-.1-.7-.1-1.3-.3-1.9.1v-.1c-.2.1-.4-.1-.5 0-.4.3-.9 0-1.4.2h-.4v.8c0 .2 0 .5.1.7h-.1c.1.2 0 .5 0 .8.2.1.5.1.8.1.3.1.7-.1 1-.2h.4c.1.2.3.1.5 0h.5c.4.4.9.2 1.3 0H89v1.7c-.4-.1-.9 0-1.3-.1-.7-.1-1.3-.3-1.9.1v-.1c-.2.1-.4-.1-.5 0-.4.3-.9 0-1.4.2h-.4v.8c0 .2 0 .5.1.7h-.1c.1.2 0 .5 0 .8.2.1.5.1.8.1.3.1.7-.1 1-.2h.4c.1.2.3.1.5 0h.5c.4.4.9.2 1.3 0h1.1v1.7c-.4-.1-.9 0-1.3-.1-.7-.1-1.3-.3-1.9.1v-.1c-.2.1-.4-.1-.5 0-.4.3-.9 0-1.4.2h-.4v.8c0 .2 0 .5.1.7h-.1c.1.2 0 .5 0 .8.2.1.5.1.8.1.3.1.7-.1 1-.2h.4c.1.2.3.1.5 0h.5c.4.4.9.2 1.3 0h1.2v1.7c-.5-.1-.9 0-1.4-.1-.7-.1-1.3-.3-1.9.1v-.1c-.2.1-.4-.1-.5 0-.4.3-.9 0-1.4.2h-.4v.8c0 .2 0 .5.1.7h-.1c.1.2 0 .5 0 .8.2.1.5.1.8.1.3.1.7-.1 1-.2h.4c.1.2.3.1.5 0h.5c.4.4.9.2 1.3 0h1.2v1.7c-.5-.1-1 0-1.5-.1-.7-.1-1.3-.3-1.9.1v-.1c-.2.1-.4-.1-.5 0-.4.3-.9 0-1.4.2h-.4v.8c0 .2 0 .5.1.7h-.1c.1.2 0 .5 0 .8.2.1.5.1.8.1.3.1.7-.1 1-.2h.4c.1.2.3.1.5 0h.5c.4.4.9.2 1.3 0h1.2v.7c.1-.5.1-.3.1.1v1c-.5-.1-1 0-1.5-.1-.7-.1-1.3-.3-1.9.1v-.1c-.2.1-.4-.1-.5 0-.4.3-.9 0-1.4.2h-.4v.8c0 .2 0 .5.1.7h-.1c.1.2 0 .5 0 .8.2.1.5.1.8.1.3.1.7-.1 1-.2h.4c.1.2.3.1.5 0h.5c.4.4.9.2 1.3 0h1.4v1.8c-.5-.2-1.1-.1-1.6-.2-.7-.1-1.3-.3-1.9.1v-.1c-.2.1-.4-.1-.5 0-.4.3-.9 0-1.4.2h-.4v.8c0 .2 0 .5.1.7h-.1c.1.2 0 .5 0 .8.2.1.5.1.8.1.3.1.7-.1 1-.2h.4c.1.2.3.1.5 0h.5c.4.4.9.2 1.3 0h1.5v1.8c-.5-.2-1.1-.1-1.6-.2-.7-.1-1.3-.3-1.9.1v-.1c-.2.1-.4-.1-.5 0-.4.3-.9 0-1.4.2h-.4v.8c0 .2 0 .5.1.7h-.1c.1.2 0 .5 0 .8.2.1.5.1.8.1.3.1.7-.1 1-.2h.4c.1.2.3.1.5 0h.5c.4.4.9.2 1.3 0H90v1.8c-.5-.2-1.1 0-1.6-.1-.7-.1-1.3-.3-1.9.1v-.1c-.2.1-.4-.1-.5 0-.4.3-.9 0-1.4.2h-.4v.8c0 .2 0 .5.1.7h-.1c.1.2 0 .5 0 .8.2.1.5.1.8.1.3.1.7-.1 1-.2h.4c.1.2.3.1.5 0h.5c.4.4.9.2 1.3 0h1.4v1.7c-.5-.2-1 0-1.6-.1-.7-.1-1.3-.3-1.9.1v-.1c-.2.1-.4-.1-.5 0-.4.3-.9 0-1.4.2h-.4v.8c0 .2 0 .5.1.7h-.1c.1.2 0 .5 0 .8.2.1.5.1.8.1.3.1.7-.1 1-.2h.4c.1.2.3.1.5 0h.5c.4.4.9.2 1.3 0h1.3v1.8c-.5-.1-1 0-1.5-.1-.7-.1-1.3-.3-1.9.1v-.1c-.2.1-.4-.1-.5 0-.4.3-.9 0-1.4.2h-.4v.8c0 .2 0 .5.1.7h-.1c.1.2 0 .5 0 .8.2.1.5.1.8.1.3.1.7-.1 1-.2h.4c.1.2.3.1.5 0h.5c.4.4.9.2 1.3 0h1.4c0 .6 0 1.2.1 1.8v-.1.1c-.5-.2-1.1 0-1.6-.1-.7-.1-1.3-.3-1.9.1v-.1c-.2.1-.4-.1-.5 0-.4.3-.9 0-1.4.2h-.4v.8c0 .2 0 .5.1.7h-.1c.1.2 0 .5 0 .8.2.1.5.1.8.1.3.1.7-.1 1-.2h.4c.1.2.3.1.5 0h.5c.4.4.9.2 1.3 0h1.4v1.8c-.5-.2-1.1 0-1.6-.1-.7-.1-1.3-.3-1.9.1v-.1c-.2.1-.4-.1-.5 0-.4.3-.9 0-1.4.2h-.4v.8c0 .2 0 .5.1.7h-.1c.1.2 0 .5 0 .8.2.1.5.1.8.1.3.1.7-.1 1-.2h.4c.1.2.3.1.5 0h.5c.4.4.9.2 1.3 0h1.4v1.7c-.5-.2-1 0-1.6-.1-.7-.1-1.3-.3-1.9.1v-.1c-.2.1-.4-.1-.5 0-.4.3-.9 0-1.4.2h-.4v.8c0 .2 0 .5.1.7h-.1c.1.2 0 .5 0 .8.2.1.5.1.8.1.3.1.7-.1 1-.2h.4c.1.2.3.1.5 0h.5c.4.4.9.2 1.3 0h1.4v1.8c-.5-.2-1.1 0-1.6-.1-.7-.1-1.3-.3-1.9.1v-.1c-.2.1-.4-.1-.5 0-.4.3-.9 0-1.4.2h-.4v.8c0 .2 0 .5.1.7h-.1c.1.2 0 .5 0 .8.2.1.5.1.8.1.3.1.7-.1 1-.2h.4c.1.2.3.1.5 0h.5c.4.4.9.2 1.3 0h1.3c.2-.2.3 1.2.3 1.7v.1c-.6-.3-1.2-.1-1.7-.2-.7-.1-1.3-.3-1.9.1v-.1c-.2.1-.4-.1-.5 0-.4.3-.9 0-1.4.2h-.4v.8c0 .2 0 .5.1.7h-.1c.1.2 0 .5 0 .8.2.1.5.1.8.1.3.1.7-.1 1-.2h.4c.1.2.3.1.5 0h.5c.4.4.9.2 1.3 0h1.7c0 .5.1 1 .1 1.5h-.1v.3l-.1.1c-.6-.3-1.2-.1-1.8-.2-.7-.1-1.3-.3-1.9.1v-.1c-.2.1-.4-.1-.5 0-.4.3-.9 0-1.4.2h-.4v.8c0 .2 0 .5.1.7h-.1c.1.2 0 .5 0 .8.2.1.5.1.8.1.3.1.7-.1 1-.2h.4c.1.2.3.1.5 0h.5c.4.4.9.2 1.3 0h1.7v1.7h-.1l-.1.1c-.6-.3-1.2-.1-1.8-.2-.7-.1-1.3-.3-1.9.1v-.1c-.2.1-.4-.1-.5 0-.4.3-.9 0-1.4.2h-.4v.8c0 .2 0 .5.1.7h-.1c.1.2 0 .5 0 .8.2.1.5.1.8.1.3.1.7-.1 1-.2h.4c.1.2.3.1.5 0h.5c.4.4.9.2 1.3 0h1.6v1.8c-.6-.3-1.2-.1-1.8-.2-.7-.1-1.3-.3-1.9.1v-.1c-.2.1-.4-.1-.5 0-.4.3-.9 0-1.4.2h-.4v.8c0 .2 0 .5.1.7h-.1c.1.2 0 .5 0 .8.2.1.5.1.8.1.3.1.7-.1 1-.2h.4c.1.2.3.1.5 0h.5c.4.4.9.2 1.3 0h1.6l-.2 1.1c-2.3.2-2.9-.4-4.8.2-1-.1-3 0-2.9-.3l-8.1.4a.76.76 0 0 1-.2-.4s.1 0 .1.1c-.1-.1-.1-.2-.1-.3.1-.2.1.2.2.1v-.3c0-.1-.1-.2 0-.2.1.1.2.1.2.2l-.2-.3c.1 0 .2-.3.2 0v-.5h.2c0-.1-.1-.1-.1 0 0-.2-.3-.8 0-.7-.2-.4-.1-.6-.2-1 .2.4.2-.4.3 0 .1-.2-.1-.3-.2-.5.1-.2.3-.1.3.1l-.2-.4c.1-.2.2 0 .2-.3h-.2l.1-.1c-.1.1-.1-.1-.1-.2v-.2c.1.2 0-.2.1-.1v-.4l-.1.1c-.1-.4.2 0 .2-.3h-.1c.2-.4-.1-.7 0-1.1 0 .2.2.1.1.1 0-.3 0-.7-.2-1 .2-.1.2-.1.3-.4 0-.2 0-.2-.1-.3.1-.2 0-.6.1-.6-.1 0 0-.2-.1-.3h0c.3-.4-.2-.6.1-1v.1l-.1-.2h.2v-.7l-.1.1c0-.2-.1-.3-.1-.4.2.3 0-.2.2-.3l.1.2c0-.2 0-.2-.1-.2 0-.3.2-.2.1-.4v.2c-.1.1-.2-.1-.2-.2 0 0 .1-.1.1 0-.1-.2 0-.5 0-.6s.1-.1.2 0c-.1-.5 0-.2-.1-.7h.1l-.1-.2.1-.1c0-.2-.1-.2 0-.4l.1.1c-.1-.4.2-.5 0-.9 0 0 .1 0 .1.1-.2-.4.2-.3 0-.7h.1l-.1-.2h.1l-.2-.1.1-.1-.1-.1c.3-.2.1-.4.3-.7h-.2c-.4-.6.2-1.5 0-2.2h.1l-.2-.3c.1-.2.1.1.2 0-.1-.3-.2-.1-.3-.5.1-.2.1.1.2.2-.1-.4-.2-.9-.1-1.2h-.1c-.1-.2 0-.6 0-.8.1 0 .1.1.1.1 0-.1.1-.2 0-.3l.1.1c0-.2-.1-.6.1-.7-.1 0-.2 0-.2-.2.2-.1-.1-.5 0-.8.1 0 .1.2.1.2.1-.1 0-.3-.1-.4h.1l-.1-.7c.2-.1 0-.6.1-.6 0-.2-.1.2-.1-.1.1-.1 0-.3.1-.3v-.2l.1.1c0-.2-.2-.3-.3-.3.1-.2 0-.4.1-.5v.1c-.1-.5.4-.8.1-1.2h.1v-.3l.1.1-.2-.5h.1v-1.2c-.1-.5.1-.4 0-.8v-.3l.1.1c-.2-.2.2-.6.1-.5a.76.76 0 0 1-.2-.4c0-.3.1-.1.2-.3 0-.2-.1-.3-.1-.6h.1c0-.2-.1-.2-.1-.5v.1c-.2-.3.2-.4-.1-.7.1-.1 0-.4.2-.4-.1-.4-.1-.8-.2-1.2.2-.1 0-.1.1-.4h-.1c0-.6.3-1.3.2-2h.1l-.1-.1c.1-.7.1-1.7.1-2.2-.1-.2-.2-.5-.2-.8-.1-.5-.1-1.1-.1-1.6h.1c-.1-.1 0-.3 0-.5l-.1.1c-.1-.2 0-.4.1-.5l-.1-.3.2-.1c0-.1-.1-.4-.2-.5.1 0 .1-.3.1-.1v-.9l-.1.1c-.1 0-.2-.3-.2-.4.1.2.2 0 .3-.1-.1-.1-.1.1-.2 0-.1-.2-.1-.5-.1-.6l.1.1c0-.2.2-.3.2-.5-.1-.2 0-.3-.2-.3 0-.3.1-.1.2-.2-.1-.1 0-.5.1-.6-.3-.1.1-.7-.2-.8l.1-.2c-.1 0-.2 0-.3-.2.1-.2.2-.1.3-.2l-.3-.1c.3-1 .1-2.3.3-3.4-.1-.5-.2-1.1-.2-1.7v.1l.1-.6-.1.4c0-.1-.1-.2-.1-.3.1-.6.2-1.5.1-2.2-.3-.5.3-.3 0-.8l.1.1c-.1-.5-.2-.8-.4-1.3.3.1 0-.3.2-.3h-.1c.1-.1.1-.4.2-.3l-.2-.2h.1c0-.3-.1-.9.2-1.1-.2-.7-.2-1.9-.1-2.9-.1-.1-.1-.4-.1-.6l.1-.2c0-.2-.2-.4-.1-.6v-.1c0-.2 0-.4-.1-.5 0-.2.1-.5.2-.4-.3 0 0-.5 0-.5s.5-12.4-.9-15.4c-.1-.1-.2-.4-.4-.3 0-.2.2-.3 0-.4-.1.3-.3 0-.4.1h-.1v-.1.1c-.7 0-2.8-.1-4.8-.1l-.3-27.4-.4-29.5c.2-1.2.2-2.7.3-4-.1.7-.3.4-.3-.1 0-3.7-.2-.2-.3-4-.2-4.3 0-20.6.2-24.4-.4-2-.1-4.6-.3-6.6l.1.2c-.1-2.1.2-14.3.1-16.8l-.1.3c-.2-2.2.2-1.9.3-3.6-.4.2-.6-1.6-.7-2.3h.1c0-.5-.1-1.3-.2-2.1 0-1 0-2.1-.1-3.1v-.2c0-1.4-.1-2.9-.1-4.3v-.9c.1-2.2.4-5.3.2-8.2.1 0 .3-.1.4-.1s.1-.1.2-.1.3-.1.4-.1c.3-.1.6-.1.8-.1.5-.1.8-.2.4-.4 1.5-.1 2.3.4 2.6.1-2.1-.2.7-.6-1.4-1h1.3c.3-.2-1.8.2-1.5-.1l-.4.5c-1.1-.1-1.7-.2-2-.4-.4.1-.6.2-.8.3l.5-1.7-.1-.3s-7.6-3.4-9.3.9l-.2-.1v.8c-.1 1 .1 1.5-.1 1.4v-1.4c-.1 1-.2.3-.3-.1 0 .4 0 .8-.1 1.2.1.2.1-.1.1-.3.1.5.3 1.3.2 2 0 1-.4.1-.4 1.3l-.3 10.7c-7.2-.3-11.3-1.4-18.1-1.1-1-.3.7-.2 1.4-.3-5.1.3-7.1-.6-11.5-.5l-.1.2c-1-.1-1.9-.2-3-.2-.5 0-1-.1-1.5-.1h-2.1c-1.5.5-3 1.1-4.5 1.6-2 .7-4.1 1.5-6.2 2.3v2.6c-.9-.1-1.8.3-2.1 1.9l-.1-.1v.7c-.1.9.1 1.3 0 1.2v-1.2c0 .9-.1.3-.2-.1 0 .4 0 .7-.1 1 0 .2 0-.1.1-.3 0 .5.1 1.1.1 1.7 0 .9-.2.1-.2 1.1l-.2 16.7c0 .1 0 0-.1-.2 0 1.7 0 3.2.1 4.8 0 .4-.1.5-.2.7.1-.3.1 8.6.1 8.7l.2.1c0 1.7-.2.5-.2 2 .3.6 0 2.6.1 3.1 0 0 0 .7-.1.7.2.2 0 .8.1 1.3 0 .2 0-.1.1-.3l.1 1.1c0 .4-.1.5-.2.1-.1 2.9-.2 16.6-.1 19.7.1-.4 0-1.3.2-1.7.1.8 0 1.2.1 1.6-.3.3-.1 1.8-.3 2.4l.2.2-.1.4c.2 3.6.1.8 0 4 0 1.8.2 2.7.2 3.7 0-.2.1-.6.1-.1-.1.1.1 1.3 0 1.5 0 .5 0 2 .2 1.5-.1.3-.1 1.6-.2.8v1.2l.1-.6c0 1.5-.1 2.4.1 3.4l.1-.6c0 .9 0 1.7-.2 2.1l-.1-.9c0 1.5 0 2.4.1 3.7v-.5c.2 1.6.3 10.1.6 11.6l.1-.7.1 1.3c0-.2-.5-.6-.4-.7v19.6c-.1 1-.2.2-.2.2.1 1.2.2.5.1 1.6 0 .3-.1-.1-.1-.2v.9c.1-.6.2-.3.3-.6v1.4l-.1-.1c0 .3.3.8.2 2.1v7c-.1 0-.1-.5-.1-1v1c.1-.5.1 1 .1.5.1.4.1.9.1 1.3l-.5.4c-.3 0 .4-.3-.1-.2l-.1.3c-.1-.1-1.4.6-.6-.1l-2 1c-.4.2-.1.4-.7.6-.1-.1.1-.2 0-.3-1.6.5-1.4 1.5-2.8 2l.1-.1c-.2.2-.6.4-.6.5.3.3.2-.3.7-.3.1.3-.4.4-.3.6-.4.1-.5.3-.8.5-.1 0-.4.1-.6.2s-.5.2-.7.3c-.5.2-.9.4-1.3.5-.1.1-.2.3-.4.4.1.4.2.8.2 1.3-.3.6-.2-.3-.3.6l.2.2c0 .7-.1.6-.2.6 0 .4.1.6.1.7.1.1.1.2 0 .5l-.2-.3c.1.4 0 .6 0 1.2-.1 0-.1-.3-.1-.4-.3.3.1.6.1.8.1-.1.1-.5.3-.3 0 .3.3.7 0 .9l-.2-.3c.1.6.2.3.2 1.1H.5c.2.5 0 1.1 0 1.8l-.1-.1c.1.3.2.4.2.6.1-.4.2-.3.3-.3-.3.5.4.8.2 1.6-.1 0-.2-.2-.1-.5-.3-.3-.6-.3-.7-.8.1.3.1.7 0 .6l.3.1v.5c.2.1.3-.4.4.1s-.3.3-.2.3c.1.7.3.3.2 1 0-.1-.1-.2 0-.3-.1.5.1 1.2-.3 1.3-.1-.1-.2-.1-.2-.3h.1c-.3-.5.1.4-.3.3.2 0 .1.6.1.9l.2-.1c.7 1-.4-.1-.3 1 .1.6.1-.2.2.2 0 .4-.2.6-.1 1.2-.1.2-.2.5-.4.6.1.4-.1 1.2.1 1.4.2-.7-.3-.7.1-1.4l.2.2c0 .5.1 1.2 0 1.6 0-.1.1-.1.2-.1.1.8.3 1 .3 1.7-.2.1-.2-.3-.2-.6-.2.5 0 .5-.1 1.2-.2 0 0-.5-.2-.6l.1.8c.3.1 0 .6.1 1.1 0 1.2.4 1.4.7 2-.1.2-.2.2-.2.1.1-.3 0-.2-.1-.3 0 .4-.3.9-.4.6.1.6.2-.2.3.2v.9c.2-.1.2-.4.3 0v1.1c-.1-.1-.2.2-.2-.2-.1.2-.1.6.1.8.1-.3.1-.1.2.2v.6c-.1.1-.1.2 0 .4v1c.1.2 0 .6-.1.7 0 .2.1.1.1.1v.2h.1v.4s-.1.1-.1.2c-.2 0-.4.1-.5 0 .1.3.4.1.4.6-.3-.3-.2.7-.5.2-.2.3-.2 1.1-.1 1.5.2.3.1-.5.3-.5 0 .7.2 1 .4 1.3-.1 1.8-.3 6-.2 7 .1-.2 0-.5.2-.7.1.3 0 .5.1.6-.3.1-.1.7-.4.9l.2.1-.1.2c.1 1.4.1.3 0 1.6 0 .7.2 1.1.1 1.5 0-.1.1-.2.1 0-.1 0 .1.5-.1.6 0 .2 0 .8.2.6-.1 0-.2.1-.2.1l.1.2c0 .1-.1.2-.1 0v.4c-.1.3-.1.8-.2 1.1l.3.4c0 .1-.1.1-.1.2v-.4c0 .6 0 1 .1 1.5v-.2c0 .1.1.3.1.6 0 0-.1 0-.1.1 0 0 .1 0 .2.1 0 .5.1 1.1.1 1.7-.1.1-.1.2-.1.4 0-.4-.2-.6-.3-.9 0 .2 0 .3-.2 0 .1.6.2.2.2.8-.3 0-.4.1-.5.7l.2-.4s.1 0 .1.1c0-.2.1-.2.2-.2 0 .1.3.7.2.8.1-.2.2-.2.2-.1 0 .4.1.7.1.8l.1-.1c0 .1.1.2.1.1l.1.3c0-.1-.5-.3-.4-.3v.7c-.1.1-.1.2-.2.2 0 .1.1-.1.2-.2v.5c0 .1-.1.1-.1.2l-.1-.1-.1.5c.1.1.2-.4.3-.1v.2c0 .2 0 .4-.1.4-.2-.2-.4-.1-.5-.4 0 .3 0 1.3.3.9v.4c.1-.1.2-.4.3-.5v4.1c0 .4 0 .7-.1.9-.1.4-.2.1-.2.1 0 .5.1.2.1.6 0 .1-.1 0-.1-.1v.4c0-.2.2-.2.3-.2v.5h-.1s.1.1.1.2v.5h.1v.8s0-.1-.1-.2v.5c-.2.3-.2-.8-.5-.3 0 .6.5.9.3 1.6-.3-.2.1.5-.2.3-.1-.1-.1-.3-.1-.5l-.1.1c-.1 1 .2.6.4.8.1.1.1.3.1.5 0 .4-.2.3-.4.4-.1.1 0 .5.1.7-.2-.4.1-.8.3-.7v.1c-.2.3-.1.7 0 1v.1c0 .1.1.1.1.1v-.1c.7.2 4 1.3 4.3 1.3v.4c.1 0 .1-.4.1-.6h-.2c0-.4.1-.1.1-.5.1 0 .1.4.2.7 0-.3.1-.6 0-.7.1-.3.2 0 .2-.3 0-.1 0-.2-.1-.3l.3-.1c.1.4.8-.2 1.1.2-.5.1 0 .1 0 .3h1.2c.1.1-.3.1-.1.1.2.1.4-.1.5-.1.1.1.9 0 .9.3.8.2.4-.3 1.1-.2.1.2-.6 0-.3.2l.8-.1c-.1.1-.2.3-.5.2.2 0 .4.1.6.1v1.3l-.2-.9c0 .4.1.7.1 1 1.6-.1 2.8-.2 5.5-.1.5.3-3.1.2-5 .4 1.3 0 3.5 0 5.2-.1s2.7-.1 1.8-.3h1.2c.3 0 .5 0 .7.1.4.1.8.1 1.2.2 0-.1-1.4-.2-.5-.3 2.1.2 5.4.2 7.9.2 0 .1.2.2-.1.2 2.1-.4 1.8.3 4.7.2l25-.4c1.6-.4 4-.4 6.4-.5l.3.5 2-.2c.8.2-1.5.1-.1.3l.8-.3c.2.2 5.1.1 1.8.5h7.8c1.7 0 1-.4 2.9-.3.4.1-.7.1-.5.3 2.9.2 4.5-.1 6.1-.3.8-.1 1.6-.3 2.5-.4.5 0 1-.1 1.5-.1H95c1 0 1.7 0 1.7-.1-.8-.3-1.1-.2-1.7-.1-.3 0-.6.1-1.1.1h-1.8c0-.1.1-.1.1-.1.1 0 .3-.1.4-.1.3 0 .7-.1 1.1-.1.8 0 1.5-.1 1.4-.2 1.7.1 2.7 0 3.9-.1v-1.1a71.78 71.78 0 0 0 .2-5v-1.8c0-.5.1-.9.2-1.3-.1-.9-.6-1.9-.6-3.9.3-1.4.3.3.5-1.6l-.3-.3c0-1.6.1-1.3.2-1.3 0-1.7-.3-1.4-.2-3.5l.2 1.2c-.1-1.5-.1-2.2 0-4.3.1 0 .1.9.1 1.5.4-1.2-.2-2-.1-2.6-.1.2-.2 1.7-.4.9 0-1.1-.3-2.3 0-3l.2 1.2c-.2-2.2-.3-1.2-.2-3.7 0 .1.1.1.1.1-.3-1.6 0-3.7 0-6.1l.1.5c-.1-1-.3-1.5-.3-2-.1 1.4-.2 1-.5 1.1.4-1.8-.5-2.8-.2-5.7.1 0 .3.8.2 1.6.4 1 .8 1.1 1 2.9-.1-1.1-.2-2.4 0-2.2l-.4-.3v-1.7c-.3-.3-.4 1.4-.6-.2-.1-1.8.4-.9.2-1.2-.2-2.4-.4-1-.3-3.3 0 .2.1.7.1.9.2-1.7-.1-4.1.4-4.6.1.2.2.3.2.9h-.1c.3 1.7 0-1.1.3-1-.2-.4-.1-2.3-.1-3.2l-.3.3c-.9-3.5.6.2.5-3.3-.2-2.2-.1.8-.3-.5.1-1.5.3-2.1.2-4.3-2-1.9-1.8-3.2-1.5-3.3zm-11.4-43.1c.1-.2.2-.1.3 0h-.3zm0 4c.1-.2.2-.1.3 0h-.3zm0 4c.1-.2.2-.1.3 0h-.3zm0 4c.1-.2.2-.1.3 0h-.3zm0 4c.1-.2.2-.1.3 0h-.3zm0 4c.1-.2.2-.1.3 0h-.3zm0 4c.1-.2.2-.1.3 0h-.3zm0 4c.1-.2.2-.1.3 0h-.3zm0 4c.1-.2.2-.1.3 0h-.3zm0 4c.1-.2.2-.1.3 0h-.3zm0 4c.1-.2.2-.1.3 0h-.3zm0 4c.1-.2.2-.1.3 0h-.3zm0 4c.1-.2.2-.1.3 0h-.3zm0 4c.1-.2.2-.1.3 0h-.3zm0 4c.1-.2.2-.1.3 0h-.3zm0 4c.1-.2.2-.1.3 0h-.3zm0 4c.1-.2.2-.1.3 0h-.3zm0 4c.1-.2.2-.1.3 0h-.3zm0 4c.1-.2.2-.1.3 0h-.3zm0 4c.1-.2.2-.1.3 0h-.3zm0 4c.1-.2.2-.1.3 0h-.3zm0 4c.1-.2.2-.1.3 0h-.3zm0 4c.1-.2.2-.1.3 0h-.3zm0 4c.1-.2.2-.1.3 0h-.3zm0 4c.1-.2.2-.1.3 0h-.3zm-82.9-45.7l.1-.1c0 .3-.1.4 0 .6l.1-.1c0 .2 0 .3-.2.4l-.1-.2v.2c-.3 0-.5-.1-.8-.1 0-.1-.1-.1-.1-.2l.1.1-.2-1.4c.3-.2 0-1.3.2-1.2 0-.5-.1.4-.2-.2.1-.1 0-.3.1-.5.2 0 .4 0 .7.1h.2c-.1.1 0 .3-.3.4H3l-.1.1c.2.6.1.1 0 .7 0 .3.2.5.2.7 0 0 .1-.1.1 0-.1 0 .1.2 0 .3 0 .1 0 .3.2.3-.1 0-.1.3-.2.1 0-.1-.1-.1 0 0zm5.2-10h1.2v1.6H8.3c0-.5.1-1 0-1.1v.1c-.2-.4 0-.3.1-.6zm-1.5 26.7l.2-.1.1.2s-.1-.1-.3-.1zm.1 2.8l.1.1c-.1.3 0 .6 0 .8-.1 0-.1 0-.1-.1-.1-.2-.1-.5 0-.8zm-2.8-9v.1c-.1-.5 0-.6.1-.9.4.1 1.2.2 2 .3v.1h.1l.1.1c0 .1-.1.1-.2 0-.1.3-.2 2-.1 2.4.1 0 0-.2.2-.2.1.1 0 .1.1.2-.3 0-.1.2-.3.3h.1c.2.4.1.1 0 .5 0 .2.1.3.2.4-.6 0-1.4-.1-2.2-.1-.1-1.3-.1-2.7-.1-3.2zm2.1 27.1c0-.1-.1-.2-.1-.3l.1-.1c.1.2-.1.3 0 .4zm-.1-3.8c0 .2-.1.9-.1 1.6-.5 0-1.3-.1-2.2-.1v-5c.7.1 1.6.2 2.2.2H6c.1 0 .1 1.7.1 1.7h.2c0 .3-.2.1-.2.4.3.1 0 .5.1.6 0 0 0 .1-.1.1.2 0 0 .2.1.2h.1l.1.2c-.1.1-.1.2-.2.1zm.6 13.7v-.2.2zm0 .8v.3-.3zm.1 1.9c0-.3 0-.9-.1-1.6.1.1.2.2.1.3v1.3zm0 .5c0-.1 0-.1 0 0 0-.1.1 0 0 0zm0 .3h0zm-.2-6.9v3.2c-.1-.8 0-2.3-.2-3.1.1-.1.1-.3.1-.4-.1.1-.1 0-.1 0 0-.4-.1 0-.1-.4-.1-.2 0-.8 0-1.3.1.5.3 1.8.5 2.1l.1-.1.1.3c.1-.2-.4-.3-.4-.3zm2.4-19.3c.1 0 0-.2.2-.2.1.1 0 .2.1.2-.3 0-.1.2-.3.3h.1c-.7 0-1.4 0-1.9.2 0-.8 0-2-.2-2.6.1-.1.1-.3.1-.4-.1.1-.1 0-.1 0 0-.4-.1 0-.1-.4-.1-.2 0-.8 0-1.3 0 0 0 .1.1.1.3.2 0 .5.2.6.1 0 1 .1 2 .2v.1c.3.1 0 .3.1.4 0 0 0 .1-.1.1.2 0 0 .1.1.2h.1l.1.1c-.1.1-.1.1-.2 0-.2.3-.4 2-.3 2.4zm.5-21.7c-.1.2-.2.7-.1.9.1 0 .1 0 .1-.1v.1l-.2.1h.1c.2.2.1 0 0 .2l.1.1v.6H8.5c0-.6-.1-1.2-.1-1.5v-.4c.4-.1.8-.1 1.2 0zm46.6-160.2v.3h-.9c.2-.1.4-.3.9-.3zm15.4 200.3c-.2 0-.2.1-.3.3l.1-.2c.2 0 .2-.1.2-.1 0 .1.2.4.1.5.3-.3.2.5.4.3.1 0 .1.2 0 .3-.1-.3-.2.2-.3.2.1.1.1-.2.2-.1 0 .2-.1.3-.2.3v-.1l-.1.2c.1 0 .2-.2.2 0 0 .1 0 .3-.1.3-.1-.1-.3 0-.3-.2 0 .2 0 .6.2.4v.2c.1-.1.2-.4.2-.1l.1.3-.1.1s.1 0 .1.1c-.1 0-.1.1-.1.1 0 .3.1.3.2.3 0 .2 0 .2-.1.1 0 .2 0 .6-.1.7.1.3 0-.1.2.1-.3.2-.1.9-.1 1.4.3-.1 0 .1.3.2l-.1.1-.1-.1c-.4-.1-.8.1-2.2-.1l.1.3c-4.3 0-9.3-.6-14.1-.5l-.1-.3-1 .3-15.9-.2c-1.3.1-3.4.4-5.5.3h.2c-3.7.1-7.6.3-11.7.1.3-.1-.1-.2.3-.3-1 .3-2.4 0-3.2 0l1 .2c-.6.1-1.3.1-1.9.1h-.5v-.1c0-1 0-2 .1-3l-.1.2c-.2-.3-.2-.7-.2-1 .1 0 .3.2.3-.3-.1.1-.1.4-.2.3.4-1.7.3-5.2.5-8-.1-3.7.2-7.8.1-11.5 0 .6-.4.3-.3-.1.7-1.2-.1-2 .4-3.2-.2-2.1.4-4-.1-6h.2c.1-.3 0-.4-.1-.7h.1c.1-.7-.1-1.6 0-2.1h-.2c0-.4.2-.2 0-.7h.1l-.2-.5c.4.1 0-1.2.2-1.6a16.86 16.86 0 0 1-.2-2.5c.2-.2.2-1.2.3-1.9 0-1.3-.1-3.2 0-4.8h-.2v-.4c.1 0 .1-.1.1 0 .3-.3-.1-1 .1-1.4-.2.2 0 .3 0 .6-.1.4-.4 0-.2-.5h.1l-.1-.3c.2 0 .3-.3.5-.4 0-1.4-.4-2.4-.3-3.9.2.2-.1-1.1.3-.8-.1-.9-.3.1-.6-.3 0-.2-.1-.5 0-.6.1.1.2-.2.3 0v-.6c0-.1.1.1.1.1-.2-1.2.2-2.1 0-3.2-.1-.1 0 .4-.2.4-.3-1.1.2-1 0-2l.2.2c-.1-.3-.3-.5-.1-1 .2-.1.2.5.3.7 0-.4 0-1.3-.2-1-.1-.4.1-.6.2-.8-.1 0-.1.4-.2.2.1-.3.1-.7.1-1.1v-1.3c.1 0 .1-.1.2 0-.3-1.1.2-1.1.1-2.7-.1-2.1-.8-6.5-1.2-6.3l.1-1.8-.2 1.9c-.1 0-.1.1-.2.1 0-.5-.1-.9-.1-1.4.2-4.4.5-10.4.3-15.9-.6-3.5.6-2.4.1-5.8.1.3.1.4.2.7-.2-3.7-.3-5.6-.7-9.3.6.4 0-2.4.3-2.1l-.2-.3c.2-.8.2-2.7.4-2.5l-.3-1.6.3-.1c0-2.1-.2-6.7.3-7.9-.4-5.3-.2-13.7-.1-20.3-.2-.9-.2-2.9-.2-4.4l.3-1.6c-.1-1.5-.5-3.2-.3-4.6 0 0 .1.1.1.2-.1-1.6.1-3.1-.2-4.5 0-1.5.2-3 .4-3-.3-.6.2-3.6.2-3.6l.2-11.9.2-25.6.3-.1 1-.4c1.1-.4 2.3-.8 3.4-1.3H33l10.5-.1 13.2-.2v3.8c-.1.1-.1 0-.1-.2l.2 5.5c-.1.5-.2.6-.3.8.2-.3.2 9.8.2 10l.4.1c0 1.9-.5.6-.4 2.3.6.7-.1 3 .2 3.6 0 0-.1.9-.2.8.3.3.1.9.1 1.4.1.2.1-.1.2-.3l.1 1.3c-.1.5-.3.6-.3.1-.1 3.3-.4 19.1-.3 22.7.2-.5.1-1.6.4-2 .2.9-.1 1.4.1 1.8-.5.4-.1 2.1-.7 2.8l.3.3-.2.5c.3 4.1.2.9.1 4.6 0 2.1.5 3.1.3 4.3 0-.2.2-.6.3-.1-.3.1.2 1.5-.1 1.7 0 .5 0 2.3.4 1.7-.2.3-.3 1.8-.4.9 0 .5-.1 1 0 1.4l.1-.7c.1 1.8-.2 2.7.1 3.9l.1-.7c0 1.1.1 1.9-.3 2.4l-.1-1.1c0 1.8 0 2.8.2 4.3v-.5c.4 1.9.7 11.6 1.1 13.3l.3-.8.2 1.5c0-.2-.9-.7-.8-.9l.1 22.5c-.2 1.2-.4.2-.5.2.1 1.4.3.6.3 1.8-.1.3-.2-.1-.3-.3 0 .5-.1 1 .1 1.1.1-.7.5-.4.7-.7v1.6l-.2-.1c0 .3.6.9.5 2.4 0 1.2-.1 2.4-.1 3.7h-.1c.1 0 .1.1.1.3v2.9c-.1.4-.1.7-.1 1-.1-.2-.1-.6-.2-1 0 .4 0 .9-.1 1.2.2-.6.2 1.1.3.6.5 1.9 0 4.4.4 6.1.1 0 .5.2 1.2.5-.2.1-.4 0-.4 0 .1.2.3.1.3.2h-.3c0 .1-.1.1.1.1.1-.1.5 0 .7-.1v.2h-.2s.6.1.5.3c-.1.3 0 .6-.1.9-.1 0-.2-.1-.3-.1 0 0 0 .1-.1.1.2-.1.2.1.3.1.5.2 0 .5.4.7.3 0 2.9.1 5.3.2.9.3 1.5.6 1.7.6 0 .5 0 1-.1 1.2.1-.1.2-1.2.1-1.7h.2v.4-.4c.9 0 1.6.1 1.7.1 0 .1 0 .1-.1.1.1 0 .2-.1.1-.2h-.3c-.1-.1.1-.1.1-.1h.3s.1.1.1.2c0-.1.1-.1.1-.2h.7c0 1.1-.1 2.3 0 3.3 0-.3.3-.2.2 0-.4.6.1 1-.2 1.6.2 1-.2 2 .1 2.9h-.1c-.1.1 0 .2 0 .3 0 .4.1.8 0 1h.1c0 .2-.1.1 0 .3h-.1l.1.3c-.3 0 0 .6-.1.8 0 .3.2.8.1 1.2-.1.1-.1.6-.2.9 0 .6.1 1.6.1 2.4h.2v.2h-.1c-.2.2.1.5-.1.7.1-.1 0-.1 0-.3.1-.2.2 0 .2.2l.1.2c-.1 0-.2.2-.3.2 0 .7.3 1.2.2 1.9-.1-.1 0 .5-.2.4.1.4.2-.1.4.1 0 .1.1.2 0 .3-.1-.1-.1.1-.2 0v.3s-.1 0-.1-.1c.2.6-.1 1 0 1.6.1 0 0-.2.1-.2.2.5-.2.5 0 1l-.1-.1c.1.2.2.2.1.5-.1 0-.1-.2-.2-.3 0 .2 0 .6.2.5.1.2-.1.3-.1.4 0 0 .1-.2.2-.1-.1.3-.1.8-.1 1.1h-.1c.2.3-.1.3-.1.7.1 1.1.3 2.4.2 3.5.2.2.2.6.3.9H71l.1.3c-.1.1-.1-.2-.1 0l.2.1c-.1 0-.1.7-.2.3v1.1c0 .2.2.1.2.4-.1.1-.1-.1-.1-.1-.2.8.5.9.4 1.7v-.1c.1.1.1.4.1.4.3-.1-.1-.1 0-.4.2 0 .1.3.3.3-.1.2 0 .3.1.4-.1.3 0 .6-.2.8.1.1.3.3.3.5-.2.2-.2 0-.2.2h.1c0 .2-.1.2-.1.2 0 .2.2.2.1.5l-.1-.2c.1.2 0 .3 0 .6-.1 0-.1-.1 0-.2-.2.2.1.3.1.4.1 0 .1-.2.2-.1 0 .1.2.3 0 .4l-.1-.2c.1.3.2.2.1.5h-.1c.2.2 0 .5 0 .9.1.1.1.2.1.2.1-.2.1-.1.2-.2-.2.3.2.4.1.8-.1 0-.2-.1-.1-.2-.2-.1-.4-.2-.5-.4.1.2.1.3 0 .3h.2v.2c.1 0 .2-.2.3 0s-.2.1-.1.2c.1.3.2.1.2.5 0 0-.1-.1 0-.1-.1.2 0 .6-.2.6-.1 0-.1 0-.1-.1-.2-.3 0 .2-.2.1.1 0 .1.3.1.5h.1c.4.5-.3 0-.2.5.1.3 0-.1.1.1 0 .2-.2.3-.1.6-.1.1-.1.3-.3.3.1.2-.1.6.1.7.1-.3-.2-.3 0-.7l.2.1c0 .3.1.6 0 .8 0 0 .1-.1.1 0 .1.4.2.5.2.8-.1 0-.1-.2-.1-.3-.1.2 0 .2 0 .6-.1 0 0-.2-.1-.3v.4c.2.1 0 .3.1.5 0 .6.3.7.5 1-.1.1-.1.1-.2.1.1-.1 0-.1 0-.2 0 .2-.2.4-.3.3.1.3.1-.1.2.1v.4c.1-.1.1-.2.2 0v.5c-.1 0-.2.1-.2-.1 0 .1 0 .3.1.4.1-.3.1.4.3.2l-.1.3c0-.1-.1-.1-.1-.2-.2.1 0 .2.1.3 0 .1 0 .3-.1.4 0 .1 0 .3-.1.3 0 .1.1 0 .2 0v.4c-.1 0-.3.1-.4 0 .1.2.3.1.3.3-.2-.1-.1.3-.3.1-.1.1-.1.5-.1.8.1.1.1-.2.2-.2.1.6.5.6.4 1.1v-.1c.1.3.1.2.2.4-.2-.1-.5.3-.4.8.1 0 .2-.3.3-.2v.3h-.1c.1.3-.2.5 0 .6l-.2.2c.1 0 .1.3.2.4.1.3 0 .4-.1.6.1-.1.2-.2.3.1-.3 0-.1.5-.3.5 0 .1-.1.3 0 .3h-.2c.3 0 .2.4.3.7-.3-.1 0 .3-.3.4.2 0 .1.5.3.5 0 .2-.2.2-.3.2l.1.1c-.1.1-.1.5-.2.7l.2.2-.1.1c.1 0 .1.2.2.1v.1c.2 0 .1.2.2.4 0 .1-.1 0-.1 0 0 .1-.1.1-.2.1.1-.1.4.4.5.1.1 0 .2.2.1.3l-.2.1.2.1c0 .2-.1.3-.1.4 0-.2-.4-.3-.4.1 0-.2-.1-.3-.2-.4 0 .1 0 .1-.1 0-.8.5-.8.3-.8.6zm.7-75.2l-.1.2c.1-.2-.1-.5-.1-.3-.1.3.1-.1.1.2 0 .2-.1.1-.2.1v.3c-.1 0 0-.2-.1-.1l.1.3c-.2.1.1.3-.1.5-.1-.1-.2-.3-.3-.4h.2c-.2-.2-.1-.5-.2-.6.1-.3.5-.7.2-1.1l.4-.1h.1c0 .2-.1.2-.2.3.1.1.4.2.3.6v-.1c.1.2-.1.1-.1.2zm16.2 80.9h-.2.2zM66.2 186.68l.2.2c.2-.2-.3-.2-.2-.2zm.1-.1c.1-.1-.1-.1-.1-.1.1 0-.1.1.1.1z"/><path d="M66.2 186.48h.2c.1-.2-.2-.3 0-.4h.1c0-.1-.2 0-.1-.1h.1c0-.2 0-.4-.1-.6.2 0 0-.2.2-.3-.1-.1 0-.1-.2-.1v-1.4h-1.8c-.4.3-.8-.1-1.2 0-.1.1-.3.1-.5.1l-.1.1c-1-.3-2-.1-3-.2-1.1-.1-2.1-.3-3.2.1v-.1c-.3.1-.6-.1-.9 0-.8.3-1.5 0-2.3.2h-.6l.1 2.4h-.1v.8l.8.1h.7c.5.1 1.1-.1 1.6-.2h.7c.2.2.5.1.8 0h.8c.8.4 1.5.2 2.2 0H64c.2.1.4.2.6.2v-.1c.1.2.2 0 .3-.1h.1l.1.1c0 .1.1 0 .1-.1h.4s0 .1.1.2c-.1 0 .1.2 0 .2 0 0 .2 0 .2-.2s.1-.3 0-.4v-2.8h-1.6c.2 0 .4-.1.5-.1v.1l.1-.1v.1c.1.2.4-.1.5 0 0 0 .1-.1.1-.2h.7c0 .5.1 1.1.2 1.4h-.1c.1.4 0 .9-.1 1.4zm-7-2.6c-.1 0 0 0 0 0h0zm-.4 0h-.5c.2-.2.3-.1.5 0zm.5 0h0z"/><g class="C"><path d="M33.7 175.777l.2.1c.2-.1-.3-.1-.2-.1zm.1-.1c.1 0-.1 0-.1-.1.1.1-.1.1.1.1z" class="C"/><path d="M33.7 175.68h.2c.1-.1-.2-.2 0-.2h.1c0-.1-.2 0-.1-.1h.1c0-.1 0-.2-.1-.4.2 0 0-.1.2-.2-.1 0 0-.1-.2-.1v-1.3c-.1-.1-.1-.2-.1-.4s.1-.4.1-.5h-.1c-.2.1-.4.1-.5.1s-.1.1-.2.1c-.4-.1-.6-.2-.9-.2h-.8c-.6-.1-1.2-.3-1.8.1v-.1c-.2.1-.3-.1-.5 0s-.4.1-.6.1-.5 0-.7.1h-.3v.7c0 .2 0 .4.1.7h-.1c.1.4-.2.8-.1 1.3-.1.2 0 .4 0 .6.2 0 .4-.1.5-.1h.4c.1.2.3.1.4 0h.5c.4.4.8.2 1.3 0h2c.1.1.2.2.4.2v-.1c.1.2.1 0 .2-.1v.1c0 .1.1 0 .1-.1h.3v.4s.1 0 .1-.2v-2.8c0 .1.1.2.1.3h-.1s.1 0 .1.1h-.1c-.2.1.1.2 0 .3h.2c0 .3.1.6.2.9h-.1c0 .2-.1.5-.2.8zm-3-2.8h-.3c.1-.2.2-.1.3 0z" class="C"/><path d="M48.2 167.777l.2.1c.2-.1-.3-.1-.2-.1zm.1-.1c.1 0-.1 0-.1-.1.1.1-.1.1.1.1z"/><path d="M48.2 167.68h.2c.1-.1-.2-.2 0-.2h.1c0-.1-.2 0-.1-.1h.1c0-.1 0-.2-.1-.4.2 0 0-.1.2-.2-.1 0 0-.1-.2-.1v-1.3c-.1-.1-.1-.2-.1-.4s.1-.4.1-.5h-.1c-.2.1-.4.1-.5.1s-.1.1-.2.1c-.4-.1-.6-.2-.9-.2h-.8c-.6-.1-1.2-.3-1.8.1v-.1c-.2.1-.3-.1-.5 0s-.4.1-.6.1-.5 0-.7.1H42v.7c0 .2 0 .4.1.7H42c.1.4-.2.8-.1 1.3-.1.2 0 .4 0 .6.2 0 .4-.1.5-.1h.4c.1.2.3.1.4 0h.5c.4.4.8.2 1.3 0h2c.1.1.2.2.4.2v-.1c.1.2.1 0 .2-.1v.1c0 .1.1 0 .1-.1h.3v.4s.1 0 .1-.2v-2.8c0 .1.1.2.1.3h-.1s.1 0 .1.1h-.1c-.2.1.1.2 0 .3h.2c0 .3.1.6.2.9h-.1c0 .2-.1.5-.2.8zm-3-2.8h-.3c.1-.2.2-.1.3 0z"/></g><path d="M73.2 196.68l.2.2c.2-.2-.3-.2-.2-.2zm.1-.1c.1-.1-.1-.1-.1-.1.1 0-.1.1.1.1z"/><path d="M73.2 196.48h.2c.1-.2-.2-.3 0-.4h.1c0-.1-.2 0-.1-.1h.1c0-.2 0-.4-.1-.6.2 0 0-.2.2-.3-.1-.1 0-.1-.2-.1v-1.4h-1.8c-.4.3-.8-.1-1.2 0-.1.1-.3.1-.5.1l-.1.1c-1-.3-2-.1-3-.2-1.1-.1-2.1-.3-3.2.1v-.1c-.3.1-.6-.1-.9 0-.8.3-1.5 0-2.3.2h-.6l.1 2.4h-.1v.8l.8.1h.7c.5.1 1.1-.1 1.6-.2h.7c.2.2.5.1.8 0h.8c.8.4 1.5.2 2.2 0H71c.2.1.4.2.6.2v-.1c.1.2.2 0 .3-.1h.1l.1.1c0 .1.1 0 .1-.1h.4s0 .1.1.2c-.1 0 .1.2 0 .2 0 0 .2 0 .2-.2s.1-.3 0-.4v-2.8h-1.6c.2 0 .4-.1.5-.1v.1l.1-.1v.1c.1.2.4-.1.5 0 0 0 .1-.1.1-.2h.7c0 .5.1 1.1.2 1.4h-.1c.1.4 0 .9-.1 1.4zm-7-2.6c-.1 0 0 0 0 0h0zm-.4 0h-.5c.2-.2.3-.1.5 0zm.5 0h0z"/><g class="C"><path d="M40.7 196.78l.2.1c.2 0-.3-.1-.2-.1z" class="C"/><path d="M40.7 196.78h.2c.1 0-.2-.1 0-.1h.1c0-.1 0-.1-.1-.2.2 0 0-.1.2-.1-.1 0 0 0-.2 0 .1-.2-.1-.5-.1-.7-.3-.1.1-.2 0-.4-.1 0-.1-.1-.1-.2h-.1c.1-.2.2-.3.2-.5v-1c-.2 0-.4-.1-.6-.1s-.5.1-.6.2v-.1c-.1.1-.2-.1-.3 0-.2.3-.7 0-.8.2h-.2c0 .3 0 .6.1.8h-.1c.1.2-.2.5-.1.7-.1.2.1.3.2.5v.2c-.2.1-.1.2 0 .2v.3c-.2.2-.3.5-.2.6.2 0 .4-.1.5-.2h1.1c.1.1.1.2.2.2v-.1c0 .2.1 0 .1-.1v.1c0 .1 0 0 0-.1h.1v.4s.1 0 .1-.2v-1.7c0 .1.1.1.1.2h-.1c-.2 0 .1.1 0 .2h.2c0 .2.1.3.2.5h-.1c.3.2.2.3.1.5zm-.5-2.9H40c.1-.1.2-.1.2 0zm.1.1c0-.1 0 0 0 0h0z" class="C"/></g><g class="B"><path d="M21.2 196.68c0 .1 0 .1 0 0l.2.1c.2 0-.3 0-.2-.1zm.1-.002c.1 0-.1-.1-.1-.1.1.1-.1.1.1.1z" class="B"/><path d="M21.2 196.58h.2c.1-.1-.2-.2 0-.3h.1c0-.1-.2 0-.1-.1h.1c0-.1 0-.3-.1-.4.2 0 0-.1.2-.2-.1 0 0-.1-.2-.1v-1.7c-.1-.1-.1-.2-.1-.4-.1 0-.3-.1-.6-.1-.2.1-.3.1-.5.1l-.1.1c-.6-.3-1.2-.1-1.9-.2s-1.3-.3-2 .1v-.1c-.2.1-.4-.1-.6 0-.5.3-.9 0-1.5.2h-.4v.8c0 .2 0 .5.1.7h-.1c.1.5-.2.9-.1 1.5v.3c.3 0 .6-.1.8-.2h.6c.1.2.3.1.5 0h.5c.5.4.9.2 1.4 0h2.2a.76.76 0 0 0 .4.2v-.1c.1.2.1 0 .2-.1v.1c0 .1.1 0 .1-.1h.3v.2s.1.2 0 .2c0 0 .1 0 .1-.2v-3.1c0 .1.1.2.1.3h-.1c-.2.1.1.3 0 .3h.2c0 .3.1.7.2 1H21c.4.7.3 1 .2 1.3zm-3.7-2.7h-.3c.1-.2.2-.1.3 0zm-.3 0c-.1 0-.1 0 0 0h0z" class="B"/><path d="M50.2 204.68l.2.2c.2-.2-.3-.2-.2-.2zm.1-.1c.1-.1-.1-.1-.1-.1.1 0-.1.1.1.1z" class="B"/><path d="M50.2 204.48h.2c.1-.2-.2-.3 0-.4h.1c0-.1-.2 0-.1-.1h.1c0-.2 0-.4-.1-.6.2 0 0-.2.2-.3-.1-.1 0-.1-.2-.1v-1.4h-1.8c-.4.3-.8-.1-1.2 0-.1.1-.3.1-.5.1l-.1.1c-1-.3-2-.1-3-.2-1.1-.1-2.1-.3-3.2.1v-.1c-.3.1-.6-.1-.9 0-.8.3-1.5 0-2.3.2h-.6l.1 2.4h-.1v.8l.8.1h.7c.5.1 1.1-.1 1.6-.2h.7c.2.2.5.1.8 0h.8c.8.4 1.5.2 2.2 0H48c.2.1.4.2.6.2v-.1c.1.2.2 0 .3-.1h.1l.1.1c0 .1.1 0 .1-.1h.4s0 .1.1.2c-.1 0 .1.2 0 .2 0 0 .2 0 .2-.2s.1-.3 0-.4v-2.8h-1.6c.2 0 .4-.1.5-.1v.1l.1-.1v.1c.1.2.4-.1.5 0 0 0 .1-.1.1-.2h.7c0 .5.1 1.1.2 1.4h-.1c.1.4 0 .9-.1 1.4zm-7-2.6c-.1 0 0 0 0 0h0zm-.4 0h-.5c.2-.2.3-.1.5 0zm.5 0h0z" class="B"/><path d="M37.2 186.68l.2.2c.2-.2-.3-.2-.2-.2zm.1-.1c.1-.1-.1-.1-.1-.1.1 0-.1.1.1.1z" class="B"/><path d="M37.2 186.48h.2c.1-.2-.2-.3 0-.4h.1c0-.1-.2 0-.1-.1h.1c0-.2 0-.4-.1-.6.2 0 0-.2.2-.3-.1-.1 0-.1-.2-.1v-1.4h-1.8c-.4.3-.8-.1-1.2 0-.1.1-.3.1-.5.1l-.1.1c-1-.3-2-.1-3-.2-1.1-.1-2.1-.3-3.2.1v-.1c-.3.1-.6-.1-.9 0-.8.3-1.5 0-2.3.2h-.6l.1 2.4h-.1v.8l.8.1h.7c.5.1 1.1-.1 1.6-.2h.7c.2.2.5.1.8 0h.8c.8.4 1.5.2 2.2 0H35c.2.1.4.2.6.2v-.1c.1.2.2 0 .3-.1h.1l.1.1c0 .1.1 0 .1-.1h.4s0 .1.1.2c-.1 0 .1.2 0 .2 0 0 .2 0 .2-.2s.1-.3 0-.4v-2.8h-1.6c.2 0 .4-.1.5-.1v.1l.1-.1v.1c.1.2.4-.1.5 0 0 0 .1-.1.1-.2h.7c0 .5.1 1.1.2 1.4h-.1c.1.4 0 .9-.1 1.4zm-7-2.6c-.1 0 0 0 0 0h0zm-.4 0h-.5c.2-.2.3-.1.5 0zm.5 0h0z" class="B"/><path d="M66.7 173.68l.2.1c.2 0-.3 0-.2-.1zm.1.002c.1 0-.1-.1-.1-.1.1.1-.1.1.1.1z" class="B"/><path d="M66.7 173.58h.2c.1-.1-.2-.2 0-.3h.1c0-.1-.2 0-.1-.1h.1c0-.1 0-.3-.1-.4.2 0 0-.2.2-.2-.1 0 0-.1-.2-.1v-1.9h-.1c-.3.1-.4.1-.6 0-.1 0-.4-.1-.5 0s-.2.1-.3.1l-.1.1c-.7-.3-1.4-.1-2.1-.2-.8-.1-1.5-.3-2.2.1v-.1c-.2.1-.4-.1-.6 0-.5.3-1 0-1.6.2h-.4v.9c0 .3 0 .5.1.8h-.1c.1.2 0 .5 0 .7-.1.3-.1.6-.1.9h.1c.3.1.7 0 1-.1.1 0 .2-.1.3-.1h.5c.2.2.3.1.5 0h.6c.5.4 1 .2 1.5 0h2.4a.76.76 0 0 0 .4.2v-.1c.1.2.1 0 .2-.1v.1c0 .1.1 0 .1-.1h.3v.2s.1.2 0 .2c0 0 .1 0 .1-.2v-3.3h-.2.2v.2h-.1c-.2.2.1.3 0 .4h.2c0 .4.1.8.2 1.1h-.1c.4.5.3.8.2 1.1zm-4.3-2.7h-.3c.1-.2.2-.1.3 0zm.3 0h0z" class="B"/></g></g><defs ><path id="B" d="M58.2 24.176l.2.5c.2-.2-.3-.4-.2-.5z"/><path id="C" d="M58.102 23.777c.1.1 0 .3.1.3.1-.2 0-.3-.1-.3z"/><path id="D" d="M58.5 32.877l-.1-.1.1.1z"/><path id="E" d="M58.3 32.077c.1-.2-.1-.2-.1-.3.1.1-.1.3.1.3z"/><path id="F" d="M58.3 36.077c.1-.2-.1-.2-.1-.3.1 0-.1.3.1.3z"/></defs></svg>