<svg xmlns="http://www.w3.org/2000/svg" xmlns:xlink="http://www.w3.org/1999/xlink" width="82" height="146" fill="none" xmlns:v="https://vecta.io/nano"><path d="M15.8 2.602l61 2.6 1 137.5-57.5-.6v.6l-17 .1-1-135.5 13.5-4.7z" fill="#1d6e00"/><g fill="#202020"><path d="M48.7 18.902c2 2 3.8-.9 5.2-.3.1.1.3.2.4.3h1.4v-2.4h-2.8c-1.1-.2-2.1-.2-3.5 0h-.8v2.3s0 .1.1.1zm2-.5c1-.3 2.1-.4 3 .1-.9-.1-1.9-.1-3-.1zm.5-1.1c-.6 0-1.3-.1-2.1-.3.8-.2 1.5.1 2.1.3zM40.9 18.9h6.4v-2.2l-.4-.1c-.5 0-1 0-1.4-.1h-.4c-.8-.1-2-.1-2.9 0 .1 0 .2.1.2.1-.4.1-.8.1-1.3.3v.3c-.4.2-.4 1.2-.2 1.6v.1zm-3.6-2c-.6-.5-2.6-.5-3.8 0h-1.2v1.8c-.2.1 0 .3 0 .4 0 .2.4.2.5.2-.3-.1 0-.2-.1-.2 0-.1.1-.2.1-.2h1.4c.1.1.3.2.4.1 0-.1.1-.1.2-.1h.2c.3.1.6.2.9.1v.1c.6 0 1.2-.1 1.7-.2h2.3v-.5c.1-1 .1-1 0-1.5h-.3c-.7.6-1.7-1.4-1.8.1-.2-.1-.4-.1-.5-.1zm-5.6 1.9l-.1.1.1-.1zm.2-.597c0 .1-.5.2-.3.4l.3-.4z"/><use xlink:href="#B"/><path d="M67.8 19.002c0-.1.1-.1.1-.1a16.32 16.32 0 0 1 4.4-.3c.8.3 1.6.6 2.2.4h.4v-.8c-.1-.2-.1-.4-.2-.6-.1.2-.2.3-.3.4-1.8-1.3-3.6.2-5.6-1 2.1.3 4 .4 5.8.4-1.3-2.5-3.9-.1-5.7-.7h-.5c-.5 0-.9 0-1.3-.1-.7-.1-1.4 0-2.1 0v2.5l2.4-.1h.4z"/><path d="M74.8 17.402h-.2c0 .1.1.1.1.2 0-.1 0-.1.1-.2zM56.9 17.1v2c.3 0 .7 0 1-.1h1.2a1.38 1.38 0 0 0 .4-.3 1.38 1.38 0 0 1 .4.3h.4l3.3.2v-2.6c-.6-.1-1.1-.1-1.7-.1h-.4c-.8.4-1.5.3-2.3.2-.4-.1-.8-.3-1.2-.2-.3 0-.5 0-.7.1h.2c-.2.1-.4.2-.7.4.1-.2.3-.4.5-.4h-.7c.2-.2.2.5.3.5zm-15.3-.598c.2 0 .3 0 .6-.1-.2 0-.4 0-.6.1zm-.5.4c.2-.2.3-.3.5-.3-.2 0-.4.1-.5.1v.2zm-9.2.8v-1.2h5.9c-1 0-3 0-4.2-.1H33c-.1 0 .2 0 0 .1-.5.1-.1-.1-.6-.1l.1.1h-.6c0 .2-.1.4-.1.6v.7c0-.2 0-.1.1-.1zM59.8 22.9l3.9.2v-2.6c-2.3-.2-4.5-.1-6.8-.1v2.5c.3 0 .7 0 1-.1h1.9v.1zm0-2h-.1.1zm-.3 0h-1.4c.5-.1.9-.2 1.4 0zm-2.5 0h0z"/><use xlink:href="#C"/><path d="M31.7 22.8l-.1.1.1-.1z"/><use xlink:href="#D"/><use xlink:href="#B" y="4"/><path d="M70.5 23.002h4.4v-2.2h-1.6c-.5-.4-2.5-.4-3.6-.1h-.9c-.1-.3-1.1-.3-1.1 0h-.8c-.7-.1-1.4 0-2.1 0v2.5c2 .2 4-.8 5.7-.2zm-3.4-.5c1-.4 1.9-.6 2.9.1-1.1-.2-1.9-.2-2.9-.1zm.8-1.2h-.3.3zM53.5 22.9h2.2v-2.4h-2.4c-.4-.1-1.3-.1-2.1-.1-.2-.1-.4-.2-.5 0-.2 0-.5.1-.6.1h-.4c-.4 0-.9 0-1.3.1V23c1.8.2 3.4.2 5.1-.1z"/><use xlink:href="#E"/><use xlink:href="#F"/><path d="M48.5 25.1c.5.7 1 1 1.5 1.2-.5 0-1 0-1.4-.1v.3c2 .7 4.6.8 6.5.1.2.2.5.4.7.7v-1c0-.3-.1-.6-.2-1.1.3.1.3 0 .2-.5v-.3H53c-1.1-.2-3.1-.2-4.4.1l-.1.6zm3.6 1.3c.9-.1 1.7-.3 2.5 0h-2.5zm-12.4-1.498h-7.5v1.8c-.2.1 0 .3 0 .4 0 .2.4.2.5.2-.3-.1 0-.2-.1-.2 0-.1.1-.2.1-.2h1.4c.1.1.3.2.4.1 0-.1.1-.1.2-.1h.2c.3.1.6.2.9.1v.1c.6 0 1.2-.1 1.8-.2h1.6s.1 0 .1-.1c.5-.4.5-.5.4-1.9zm-8 1.898l-.1.1.1-.1z"/><use xlink:href="#D" y="4"/><use xlink:href="#B" y="8"/><path d="M65.1 24.902l-.1.1v.5c.5.5 1 .8 1.5 1.1H65v.3c2.9 2.6 5.9-.4 8.5.2H75v-2.2h-2.4c-.8-.3-.8-.3-1.6-.1h-2.1v-.3c-.7-.7-1.9-.4-2.9 0h-1.1c.1.1.1.2.2.3-.1-.1-.1 0 0 .1zm7.1 1.6h-1.1 1.1zm-3.3-1.5h.3c-.2.1-.3.1-.3 0zm2.6.3c-.3.1-.6 0-.7-.2.3 0 .5.1.7.2zm-9.5-.9h-1.6l-3.4.1v.5c.5 1.1 1 1.6 1.5 1.8h-.8.9c.3.1.6.1.9 0l4.4.5c-1-1-2.1-1-3.3-.9 1.2-.5 2.4-1.1 3.3-.1-1-1-2-1-3.5-1-.1 0-.2-.1-.3-.2l-.2-.2c.1 0 .1 0 .2.1.1 0 .3.1.4.1 1.4.2 2.4.2 3.4.2.9-1.9-1.1.1-1.9-.9zm-5 .5h0zm1.1 0c.3 0 .6-.1.9-.1a.9.9 0 0 1 .5.1h-.1c-.6.5-.6.5-1.3 0zm-17.2-.4v.4c.2.3.4.5.6.6-.2 0-.4-.1-.6-.2v.2c.2.4.5.6.7.8h-.7v.2h.9c1.1.7 2.3.3 3.5 0h0c.8-.2 1.7-.3 2.4 0-.4-.6-.9-1-1.4-1.2a2.2 2.2 0 0 1 1.4.2c-1.9-3.1-4.9-.1-6.8-1zm-9 1.2v-1.2h2c.5 0 1 .1 1.6.2 0-.1 0-.1.1-.1l3.8.2h.4v-.2c-1.3 0-2.5-.1-3.8 0-.1-.1-.2-.1-.4-.2-.2.2-.7 0-.8.2-.6-.2-1.1-.1-1.8-.1-.1 0 .2 0 0 .1-.5.1-.1-.1-.6-.1l.1.1h-.6c0 .2-.1.4-.1.6v.7c0-.3 0-.2.1-.2zM55.8 30.4c0-.6 0-.8-.3-1-.1-.2-.3-.5-.5-.8-.1 0-.2 0-.4-.1-.5-.1-1.1-.1-1.7 0-.2 0-.3 0-.5.1-.7-.2-2.7-.2-4 .1v.4c.4.6.9 1 1.3 1.2-.5 0-.9 0-1.3-.1v.3c1.7 2.1 3.8.3 5.6-.2h-.8c1-.1 1.9-.2 2.6.1zm-24.1.4l-.1.1.1-.1z"/><use xlink:href="#D" y="8"/><use xlink:href="#B" y="12"/><path d="M74.9 31.002v-2.2h-1.6c-1.1-.2-2.4-.1-3.6-.1h-.9c0-.3-1-.3-1.4-.1-.2 0-.4-.1-.6-.1-.6-.1-1.3 0-2 .1v2.5h.8c1 .3 3 .3 4-.1h.8v-.1l2.2.1h2.3zm-8-1.8c.2 0 .4.1.5.1-.2 0-.4-.1-.5-.1zM47.3 28.7l-.4-.1c-.2 0-.3-.1-.5-.1-1.6-.1-3.6-.1-5.5 0v.5c.7.2 1.5.3 2.3.3-.9.1-1.7.2-2.3-.3v.2c.3.6.7.9 1.1 1.2-.4 0-.8 0-1.1-.1v.3c.4 0 .9-.1 1.4-.1.9.4 2 .2 3-.1h.1c.9-.2 1.7-.4 2.4 0-.3-.5-.7-.8-1-1h1s0-1-.5-.7zm-15.4 1.003v-1.2h2c.5 0 1 .1 1.6.2 0-.1 0-.1.1-.1.7.1 1.4.1 2.1.1h.4c0-.3-.1-.3-.2-.3H36c-.1-.1-.2-.1-.4-.2-.2.2-.7 0-.8.2-.6-.2-1.1-.1-1.8-.1-.1 0 .2 0 0 .1-.5.1-.1-.1-.6-.1l.1.1h-.6c0 .2-.1.4-.1.6v.7c0-.1 0 0 .1 0zm25.5-.803H57v-.5c-.1.1-.1.2-.1.5h.1l-.1.1c-.2.3-.2 1.1.1 1.6h-.1v.3h.5c.2 0 .3 0 .5-.1h1.9l3.9.2v-2.6c-.3 0-.6-.1-.9-.1h-.4c.3 0-.7 0-.8 0H60c-.7.7-1.8.1-2.5 0 0 .3 0 .5-.1.6zm2.4 0h-.1.1zm-.5 0c.1 0 .1 0 .2.1h-1.1c.7-.2.8-.2.9-.1z"/><path d="M57 26.703h-.1v.3h.1v1.5l.1-.1h.3c0-.5-.1-1-.2-1.4.1 0 .3-.1.4-.1-.2 0-.3 0-.5-.1 0-.2 0-.3-.1-.1zM54.1 30.4h1.6c-.4-.2-1-.2-1.6 0zm-17 .1c.4-.7 2.7.6 2.5-1.3 0 0-.1 0-.3.1-.5.2-.5.2-2-.3h-5.1v1.8c-.2.1 0 .3 0 .4 0 .2.4.2.5.2-.3-.1 0-.2-.1-.2 0-.1.1-.2.1-.2h1.4c.1.1.3.2.4.1 0-.1.1-.1.2-.1h.2c.3.1.6.2.9.1v.1h.9c.1 0 .3 0 .4-.1.8-.6 1.8-.6 2.8-.6-1.1-.1-2-.1-2.8 0zm2.3 2.402h-7.1v1.8c-.2.1 0 .3 0 .4 0 .2.4.2.5.2-.3-.1 0-.2-.1-.2 0-.1.1-.2.1-.2h1.4c.1.1.3.2.4.1 0-.1.1-.1.2-.1h.2c.3.1.6.2.9.1v.1h.9c.3 0 .6-.1.9-.1.3-.3.3-.4.3-.5.9-.5 2.9.6 2-1.5-.3-.1-.4-.1-.6-.1zM31.7 34.8l-.1.1.1-.1z"/><use xlink:href="#D" y="12"/><use xlink:href="#G"/><path d="M74.9 35.003v-2.2h-1.6c-2-.3-4.2 0-6.3-.2-.7-.1-1.4 0-2.1 0v2.5l5.6-.1v-.1l2.2.1h2.2zM48.5 32.9V35c.7.1 1.4.1 2.1.1h.4c.7.3.7.3 1.3-.1h.4c.3 0 .5-.1.8-.1h2.2v-2.4h-.2l-7 .1v.3zm-8.8-.2v-.2c-1.3 0-2.5-.1-3.8 0-.1-.1-.2-.1-.4-.2-.2.2-.7 0-.8.2-.6-.2-1.1-.1-1.8-.1-.1 0 .2 0 0 .1-.5.1-.1-.1-.6-.1l.1.1h-.6c0 .2-.1.4-.1.6v.7c.1-.1.1.1.2 0v-1.2h2c.5 0 1 .1 1.6.2 0-.1 0-.1.1-.1 1.3-.1 2.7 0 4.1 0zm18.2 2.2h1.9l3.8.2v-2.6c-2.3-.2-4.5-.1-6.8-.1v2.5c0 .5 1 .5 1.1 0zm1.9-2h-.1.1zm-.3 0h-1.4c.5-.1.9-.2 1.4 0zm-2.5 0h0zm-16.1 1.802c1.8-.3 2.8-.3 5 .1 0 .1.1.1.1.2h1.3v-2.2l-.4-.1c-1.1-.2-1.1-.2-1.8-.1h-.4c-.8-.1-2.8-.1-3.4 0H41v.4c.3.2.8.3 1.3.4-.5 0-1-.2-1.3-.3v.2c.2.7.5 1.1.8 1.3H41l-.1.1zm4.7-.4H43c.9-.1 1.9-.5 2.6 0z"/><use xlink:href="#H"/><path d="M56.9 36.9v.1c.4.7.9 1.2 1.4 1.4-.1 0-.3.1-.4.1h.6c.7.3 1.5.2 2.3 0 1.1.2 2.2.3 3.1-.1h-2.5c.9-.2 1.8-.4 2.5 0a2.59 2.59 0 0 0-1.1-1c.4-.2.7-.5 1.1-1-2.1 1-5.1-1-7 .5zm.1.1c.8-.7 1.9-.2 3 .2-1.1.1-2.2.4-3-.2 0 0 0-.1 0 0zm9.3 1.5h-1.4v.2c2.9 1.7 5.9-.3 8.5.3h1.5v-2.2h-1.6c-.1 0-.3 0-.4-.1h-.4c-1.7-.3-2.7-.3-5-.1h-2.1c-.5-.2-.5.8-.5.8.1 0 .3.1.4.1.2.5.6.8 1 1zm5 0h-.8.8zm-39.6.3l-.1.1.1-.1z"/><use xlink:href="#D" y="16"/><use xlink:href="#G" y="4"/><path d="M56.9 39h.3c.2-.2.4-.4.7-.5-.3 0-.7.1-.9.1v.4h-.1zm-4.6.1h.4c.1 0 .3 0 .4-.1.2-.2.4-.3.7-.4.1.1.3.2.4.3h.8c.2-.1.4-.3.6-.5h0c.5-.5.8-1 .1-1-2-3-5 0-7.2-.7v.4c1.8 1.9 3.5.8 4.9 1.3-1.6 0-3.5 0-5-.1v.3c1.4 1.8 3.4-.2 3.9.5zm-11.1-2.6h-.3v.4c.1.1.2.1.3.2-.1-.1-.2-.1-.3-.2v.2a3.61 3.61 0 0 0 1.1 1.3c-.4 0-.7 0-1.1-.1v.4c.4-.1.9-.1 1.5-.2.9.3 1.8.1 2.8-.1h.1c.9-.2 1.7-.4 2.4 0-.3-.4-.6-.7-.9-.9.3 0 .6-.1.9-.1-1.9-3-4.9 0-6.5-.9zm-9.4-.097c0 .2-.1.4-.1.6v.7c.1-.1.1.1.2 0-.1-.4-.1-.8-.1-1.3h2.1c.5 0 1 .1 1.6.2 0-.1 0-.1.1-.1l2.6.2h.9c-.2-.2-.4-.3-.7-.3h-2.3c-.1-.1-.2-.1-.4-.2-.2.2-.7 0-.8.2-.6-.2-1.1-.1-1.8-.1-.1 0 .2 0 0 .1-.5.1-.1-.1-.6-.1l.1.1h-.8zM55.7 42.9v-2.4h-.2l-7 .1V43c1.7.1 3.3.2 5-.1h2.2zm-14.8-.597v.6h6.4v-2.2l-.4-.1c-1.1-.2-1.1-.2-1.8-.1h-.4c-.9 0-1.7.2-2.5 0H41v.4h.5s-.1 0-.1-.1c.1 0 .2.1.3.1l-.1-.1c.5 0 1 .1 1.5.1h-2.2v1.4z"/><use xlink:href="#H" y="4"/><path d="M31.7 42.8l-.1.1.1-.1z"/><use xlink:href="#D" y="20"/><use xlink:href="#G" y="8"/><path d="M58.2 40.403h-1.3v2.5c-.2.4.8.4 1-.1h1.9l3.8.2v-2.6c-1.3-.1-2.5-.2-3.8-.1h-.4c.3 0-.7 0-.8 0-.1.1-.2.1-.4.1zm-1.2.5h0zm2.8 0h-.1.1zm-.3 0h-1.4c.5-.1.9-.2 1.4 0z"/><use xlink:href="#I"/><path d="M66.3 40.6H65v2.5l4.4-.1h.4s.1 0 .2-.1.2-.1.3-.1c1.1-.3 2.6-.3 3.1.2h1.5v-2.2h-1.6c-.1 0-.3 0-.4-.1h-.4c-.1-.1-.2-.1-.3-.1s-.2-.1-.2-.1c-.6 0-.7 0-.8.1s-.3.1-.5.1h-.5c-1.1 0-2.1 0-3.2-.1h-.7z"/><use xlink:href="#C" y="24"/><path d="M31.7 46.8l-.1.1.1-.1z"/><use xlink:href="#D" y="24"/><use xlink:href="#B" y="28"/><path d="M64.9 44.903v2.2l3.2-.1h.4c1.3.4 1.3.4 2 0v-.1l2.2.1h2.2v-2.2h-1.6c-2-.3-4.2 0-6.3-.2-.7-.1-1.4 0-2.1 0v.3zm-6.6-.5c.3 0 .7.1 1 .2-.3-.2-.6-.2-1-.2z"/><path d="M48.5 44.9V47c.3 0 .6 0 .9.1h.4c1 .3 1 .3 2.1 0h.4c.4 0 .8-.1 1.2-.2h1.6c.7-1.2.8-1.7.6-1.9h1.2c-.1.3-.1 1.1.1 1.6h-.1v.4c.3 0 .7 0 1-.1h1.2c.2-.1.3-.2.5-.3.1 0 .3 0 .4-.1.4 0 .9.1 1.2.4h.4c.7.1 1.4.1 2.1.1v-2.6c-.4 0-.9-.1-1.3-.1H62c-.3.2-.7.2-1 .3-.4 0-.8-.1-1.4-.1h-2c.3-.1.5-.2.7-.2a1.39 1.39 0 0 0-1.1.2h-3.9l-4.8.1v.3zm12.3.1c.3 0 .5.1.8.1a13.41 13.41 0 0 1-4 0l3.2-.1zm-6.9 0h1.2c-.9.3-2.4 1.3-1.5.1l.1-.1h.2z"/><use xlink:href="#I" y="4"/><path d="M32.8 46.9h.9v.5c1 0 3 1 3.9-.5h1c.2.5 1.2.5 1.2 0V45h-7.4v1.8c-.2.1 0 .3 0 .4 0 .2.4.2.5.2-.3-.1 0-.2-.1-.2-.1-.2-.1-.3 0-.3zm13.3 2.502c-.2-.2-.4-.5-.6-.8H45c-1 0-2 .3-2.9 0h-1.2v.4c-.1-.5.9-.5.7-.1h.5c.4 0 .7 0 1 .1h-1.9c-.4 0-.4.2-.4.5v1.5h5.1c-.3.5.7.5.5 0 .2-.3.3-.5.5-.7 1.3-1.9.2-1.4-.8-.9zm-.5.2c-.4.1-.6.1-.4-.3.2.1.3.2.4.3zm-6.2-.702a1.82 1.82 0 0 0-1.4-.3c-.1-.2-.3-.2-.6-.2h-4.8s-.1-.1-.3-.1l.1.1h-.6c0 .2-.1.4-.1.6v.7c.1-.1.1.1.2 0v-1.2h2.8c1.2 0 1.2 0 2.3.2h.9c-.2.1-.3.2-.4.3H36c-.2.1-.5.2-.7.2-.9.2-1.8.2-2.8-.2h-.2v1.8c-.2.1 0 .3 0 .4 0 .2.4.2.5.2-.3-.1 0-.2-.1-.2 0-.1.1-.2.1-.2h.6c.4-.2.8-.3 1.1-.3.2.1.4.2.5.4.2.1.5.2.7 0v.1c.6 0 1.2-.1 1.7-.2h2.3v-.5c.1-1 .1-1 0-1.5 0-.1-.1-.1-.3-.1zm-7.7 1.9l-.1.1.1-.1z"/><use xlink:href="#D" y="28"/><use xlink:href="#G" y="16"/><path d="M64.9 48.903v2.2h.8c1 .3 3 .3 4-.1h.8v-.1l2.2.1h2.2v-2.2h-1.6c-.6-.1-1.2-.1-1.8-.1H71c-.2 0-.4-.1-.6-.1-.8-.3-1.4-.3-1.9-.1l-2 .1h-1.7v.3h.1zm1.9 1.6c-.3 0-.6 0-.9.1.1-.3.4-.3.9-.1zm-18.4-1.5c.3.3.3 1 .2 1.3h-.1v.7c1 .1 2 .1 3 .1h.4c.4.1.9-.3 1.4-.5.7 0 1.4.1 2 .3h.3v-2.4h-2.4c-1.6-.2-2.6-.2-4.9.1l.1.4c0-.1 0-.1 0 0 0-.1 0-.1 0 0z"/><use xlink:href="#J"/><path d="M31.7 54.8l-.1.1.1-.1z"/><use xlink:href="#D" y="32"/><use xlink:href="#G" y="20"/><path d="M74.9 55.003v-2.2h-1.6c-2-.3-4.2 0-6.3-.2-.7-.1-1.4 0-2.1 0v2.5c.8.3.8.3 1.6 0h.4c1.2-.1 2.4-.1 3.6-.1v-.1l2.2.1h2.2zm-42.1-.1h.5c.3.2.6.3.9.4 1.7.6 2.6-.8 3.9-.5h.1l.1.1h1.2v-2h-7.6v1.8c-.2.1 0 .3 0 .4 0 .2.4.2.5.2-.3-.1 0-.2-.1-.2.4-.1.4-.2.5-.2z"/><path d="M31.8 52.402c0 .2-.1.4-.1.6v.7c.1-.1.1.1.2 0-.1-.4-.1-.8-.1-1.3h2.1c.5 0 1 .1 1.6.2 0-.1 0-.1.1-.1.3 0 .6.1.8.1l1.7.1c.6 0 1.1 0 1.7.1v-.2c-1.3 0-2.5-.1-3.8 0-.1-.1-.2-.1-.4-.2-.2.2-.7 0-.8.2-.6-.2-1.1-.1-1.8-.1-.1 0 .2 0 0 .1-.5.1-.1-.1-.6-.1l.1.1c-.3-.2-.5-.2-.7-.2zm16.7.698V55c1.7.1 3.3.2 5-.1h2.2v-2.4h-1.1c-.9-.1-.9-.1-1.8 0h-2.5c-1.4-.1-3.3-.1-5.8-.1h-.4c-.7.1-1.4.1-2-.1h-1.2v.4h.5s-.1 0-.1-.1c.1 0 .2.1.3.1l-.1-.1c.5 0 1 .1 1.5.1h-2.1v2h2.5c0-.1.1-.1.1-.1 1.3-.4 3.2-.4 4.2-.4-.8 0-2.3 0-3.6-.1 1.3-.6 2.7.1 3.6.1-.5-.5-1.1-1.1-1.7-1.4 1 .3 1.8.3 2.5.3zm10.2-.7h-1.8v2.5c.3 0 .7 0 1-.1h2.4c.3 0 .6 0 .8.1.8.1 1.7.1 2.5.1v-2.6c-.3 0-.6-.1-.9-.1h-.9c-1 .1-2 .1-3.1.1zm-.2.5h-.1.1zm-1.5 0h0zm5.4.1a3.21 3.21 0 0 1-1.7.2c.5 0 .9-.1 1.4-.2.1.1.2 0 .3 0zm-30.7 5.8l-.1.1.1-.1z"/><use xlink:href="#D" y="36"/><use xlink:href="#B" y="40"/><path d="M62.9 56.502h-.8c-1.7-.1-3.3 0-5.1.1v2.5c.3 0 .7 0 1-.1h1.9l3.9.2v-.7c0-.9 0-1-.9-1.4h.1c.8.1 1.4.1 2 .1l.1.1c-.2 1.8.5.7 1.5 1.3h-1.5v.6l5.6-.1v-.1l2.2.1h2.2v-2.2h-1.6c-1.4-.2-3-.1-4.5-.1h-.5c-.6-.3-2.6-.3-3.6-.3v.1c-.7-.1-1.3-.1-2-.1zm-3.1.4h-.1.1zm-.3 0h-1.4c.5-.1.9-.2 1.4 0zm-2.5 0h0zm10.9.1c-.8.3-1.4.3-2 .2.2-.1.4-.1.6-.2.4 0 .7-.1.7-.2.3.1.5.1.7.2zM42.2 56.5H41v.4h.5s-.1 0-.1-.1c.1 0 .2.1.3.1l-.1-.1c.5 0 1 .1 1.5.1h-2.2v2h6.4v-2.2l-.4-.1c-.5 0-1 0-1.4-.1-1.2-.1-2.4.3-3.3 0zm-10.3 1.202v-1.2h3c-.1.1-.1.2-.1.5h-2.3v1.8c-.2.1 0 .3 0 .4 0 .2.4.2.5.2-.3-.1 0-.2-.1-.2 0-.1.1-.2.1-.2h1.4c.1.1.3.2.4.1 0-.1.1-.1.2-.1h.2c.3.1.6.2.9.1v.1c.6 0 1.2-.1 1.7-.2h2.3v-2.1h-3.3c-.3.3-.8-.2-1.2-.5.7 0 .9 0 2 .2h.4l2.1.1v-.2h-4.6c-.1-.1-.2-.1-.3 0-.3 0-.5 0-.7-.1h-1.2c-.1 0 .2 0 0 .1-.5.1-.1-.1-.6-.1l.1.1h-.6c0 .2-.1.4-.1.6v.7c-.3-.2-.3-.1-.2-.1zM53.5 58.9h2.2v-2.4h-.2l-7 .1V59c1.7.2 3.3.2 5-.1zM47.3 61v-.3l-.4-.1c-.5 0-1 0-1.4-.1-1.2-.1-2.3.3-3.3 0H41v.4h.5s-.1 0-.1-.1c.1 0 .2.1.3.1l-.1-.1c.5 0 1 .1 1.5.1h-2.2v2h3.2c.1 0 .1-.1.2-.1h.1c.6-.1 1.5.1 2.2-.4h0c.3-.2.5-.5.6-1 .1-.1.1-.2.1-.4zm-15.6 1.8l-.1.1.1-.1z"/><use xlink:href="#D" y="40"/><use xlink:href="#B" y="44"/><path d="M74.9 61.703v.6c.2 0 .2-.1 0-.6z"/><path d="M74.8 62.3c0-1.8-1.9-.1-2.8-1.3h.1c.8.3 1.8.3 2.8.3.1.1.1.2.1.3 0-1-.4-1.8-2.4-1h-.5c-1.6-.1-3.4.1-5-.1-.7-.1-1.4 0-2.1 0V63l5.6-.1v-.1h2.2c1.1.4 1.1.4 2.1.4 0-.3.1-.7.1-1.1l-.2.2zm-26.3.402c.1.3.2.5.3.6v.1-.1c.1.1.2.1.4.1h.4c.3 0 1.3 0 1.2-.3.1 0 .3-.1.4-.1h.5c1.4.9 1.9.1 2.5-.3.6.2 1.1.4 1.3.2h.3v-2.4h-4.6c-.4-.2-1.4-.2-1.8 0h-.9v.8c.1.4.2.7.2.9h-.2v.5zm3.9-.3c.3-.1.6-.1.9 0h-.9zm-.6-1.4c-.2.1-.4.2-.6.2.1-.1.3-.1.6-.2z"/><use xlink:href="#E" y="40"/><path d="M56.9 60.502v2.5c.3 0 .7 0 1-.1h1.9l3.9.2v-2.6c-2.3-.2-4.5-.1-6.8 0zm1.2.4c.5-.1.9-.2 1.4 0h-1.4zm-1.1 0h0zm2.7 0h0zm-27.8.8v-1.2h2c.5 0 1 .1 1.6.2 0-.1 0-.1.1-.1l4.3.2v-.2c-1.3 0-2.5-.1-3.8 0-.1-.1-.2-.1-.4-.2-.2.2-.7 0-.8.2-.6-.2-1.1-.1-1.8-.1-.1 0 .2 0 0 .1-.5.1-.1-.1-.6-.1l.1.1H32c0 .2-.1.4-.1.6v.7c-.1-.3-.1-.2 0-.2zm42.8 5.3h.1v-2.3c-.1-.4-1.1-.4-1.1 0h-.5c-1-.1-2.1-.1-3.1-.1h-.5c-.9-.3-1.9-.3-3.4-.1h-1.3v2.5h1.6c1.2.3 3.2.3 4-.1h3.6c-.2.5.5.5.6.1zm-4.5-1.9c-.4.1-.8.2-1.4.2.5-.1.9-.1 1.4-.2zm-10.8 1.8h.3c.1 0 .2-.1.3-.1.4.1 1 .5 1.3.2h.4c.7.1 1.4.1 2.1.1v-2.6c-.3 0-.6-.1-.9-.1H57v2.5c.3 0 .7 0 1-.1h.5c.2.1.5.1.9.1zm1.5-1.6c.4 0 .9-.1 1.4-.2-.4.1-.9.2-1.4.2zm-2.5-.4h0zm-1.4 0h0zm-1.3 2v-2.4h-1.1c-.8-.1-.9-.1-1.9 0h-.3c-.7-.2-2.7-.2-4 .1v.4c.2.2.2.8.2 1.2h-.2v.4h.1c0 .1 0 .1-.1.1v.1h.2v.5c1.9.9 3.8.1 5.3-.5l1.8.1zm-24-.1l-.1.2c.2.4.2-.6.1-.2z"/><path d="M31.9 66.203l-.2.2.2-.2z"/><use xlink:href="#B" y="48"/><path d="M33.8 64.4c.5 0 1 .1 1.6.2 0-.1 0-.1.1-.1l4.3.2v-.2c-1.3 0-2.5-.1-3.8 0-.1-.1-.2-.1-.4-.2-.2.2-.7 0-.8.2-.6-.2-1.1-.1-1.8-.1-.1 0 .2 0 0 .1-.5.1-.1-.1-.6-.1l.1.1h-.6c0 .2-.1.4-.1.6v.7c.1-.1.1.1.2 0v-1.2h1.2c.1-.2.4-.2.6-.2zm13.5 2.503v-2.2c-.5-.3-1.5-.3-2.2-.2h-.4c-.3 0-.6 0-.9.1h-.4c-.6-.2-1.6-.2-2.1-.1H41v.4c.3.2.7.3 1.1.3-.4 0-.7-.1-1.1-.3v.2c0 .7.1 1 .2 1.2h-.1v.4c.6-.2 2.2-.3 3 0 0 .1 0 .1.1.2h3.1zm-5.2-.5c.7-.2 1.5-.6 1.8 0h-1.8z"/><path d="M37.4 66.902h2.3v-2h-7.4v1.5c-.2.7-.2.9-.1.9s.2-.1.3-.1c.3.2.3.1.5-.3h1.1c.1.1.3.2.4.1 0-.1.1-.1.2-.1h.2c.3.1.6.2.9.1v.1c.4 0 1-.1 1.6-.2zM32.6 70.7c-.2 0-.3.1-.3.1-.1.8-.1 1.4-.1 1.7a.78.78 0 0 0-.4.4v.4c.1-.2.3-.4.5-.5 0 .5 0 .5.1.3-.1.3-.1.7 0 1.3v.4c-.2.1 0 .3 0 .4 0 .2.4.2.5.2-.3-.1 0-.2-.1-.2 0-.1.1-.2.1-.2h1.4c.1.1.3.2.4.1 0-.1.1-.1.2-.1h.2c.3.1.6.2.9.1v.1c.6 0 1.2-.1 1.7-.2H40v-2.1h-3.3c-.5.2-1.1 0-1.7-.2.7.1 1.4.2 2.1-.1h.4l2.5.1v-.2h-2.7c-1 .5-2 .3-2.9.1-.5-.2-1-.3-1.4-.2h-.3c.1-.5.3-1 .4-1.4.5.3 1.1.3 1.8.2.9.5 1.9 1 2.7-.3h2.2v-2h-6c-.1-.1-.3-.1-.4-.2.2 0 .4-.1.6-.3h.6c.3 0 .7.1 1 .2 0-.1 0-.1.1-.1l4.3.2v-.2c-1.3 0-2.5-.1-3.8 0-.1-.1-.2-.1-.4-.2-.2.2-.7 0-.8.2-.3-.1-.6-.1-.9-.1h-.3c-.2.2-.3.3-.5.3-.1 0-.3-.1-.4-.1-.4-.2-.8-.5-.9.2-.3.1-.6.3-.9.7.7-.1 1.6-.1 1.5 1.2zm-.1 1.9c-.1 0-.1 0 0 0-.1 0-.1 0 0 0-.1 0-.1 0 0 0zm.1-4c-.3 0-.5 0-.8.2.1-.5.4-.4.8-.2zm23.1 2.3v-2.4h-.2l-7 .1V71c1.7.1 3.3.2 5-.1h2.2zm-24-.198l-.1.2c.2.5.2-.5.1-.2zm15.6.2v-2.2l-.4-.1c-.5 0-1 0-1.4-.1h-1.7c-.2 0-.5-.1-.7-.1.3.1.6.3.8.4h-.4c-.6-.5-1.6-.5-2.4 0v2h6.2v.1zm9.6-2.002V71c.3 0 .7 0 1-.1h1.9l3.9.2v-2.6c-2.3-.2-4.5-.1-6.8-.1v.5zm2.9 0h-.1.1zm-.3 0h-1.4c.5-.1.9-.2 1.4 0zm-2.3 0H57h.2z"/><path d="M41 68.9c.3-.2.5-.4.8-.4h-.7l-.1.4zm.7-.497H43c-.4-.1-.8-.1-1.3 0zm-.8 5.897v.6h6.3v-2.2l-.4-.1c-.5 0-1 0-1.4-.1-1.2-.1-2.3.3-3.3 0h-1.2v.4h.5s-.1 0-.1-.1c.1 0 .2.1.3.1l-.1-.1c.5 0 1 .1 1.5.1h-2.1v1.4zm-9.3.6l.1-.1-.1.1z"/><path d="M31.6 74.6s.1-.1.1-.2c.1-.2 0-.1-.1 0 0 .1-.1.2 0 .2zm.2-.5c.1 0 0-.2.1-.3 0 0-.2.1-.1.3zm33.1-1.496v2.5l5.6-.1v-.1h.8c.6.5 2.6.5 3.6.5v-2c-.1.3-.3.5-.5.6a.76.76 0 0 0-.4-.2c-.1-.1-.3-.1-.4-.2-.7-.2-1.7-.2-2.5-.1h-.4c-.5 0-1-.2-1.4-.6h.5c.2 0 .3.1.5.1s.3.1.4.1c1.1.3 2.1.3 3.1.2h1v-.6c-.4-.7-.8-1.1-1.2-1.3.5-.2.9-.5 1.2-1.1 0-.2-.1-.5-.2-.7.1-.1.1-.2.2-.3h-.3c-.3-.6-.9-1-1.2-1-.1 0-.2-.1-.4 0-.1 0-.1.1-.2.1s-.2.1-.2.2c-.1 0-.3 0-.4-.1l-1.9-.2c-.5-.2-1.1-.2-1.7.1-.2 0-.3 0-.5.1h-.9c-.7-.1-1.4 0-2.1 0v2.5l4.4-.1h.4c.1 0 .2.1.4.1.1 0 .3.1.4.1.6.1 1.3.4 2.1.4-.8.4-1.4 1.4-2.3 1h-1.1c-.8 0-1.5 0-2.3-.1l-2.1.2zm-8 .296V75c-.2.4.8.4 1-.1h1.6c.2.5.2.5.8 0h.4l2.9.2v-2.6c-2.3-.2-4.5-.1-6.8-.1v.5h.1zm2.9 0h-.1.1zm-.3 0h-1.4c.5-.1.9-.2 1.4 0zm-2.3 0H57h.2zm-8.7 0V75c1.7.1 3.3.2 5-.1h2.2v-2.4h-.2l-7 .1v.3zm-4.7 3.703h-.4c-.6-.2-1.6-.2-2.4-.1v.4c.3.2.6.3 1 .4a1.93 1.93 0 0 1-1-.3v.1c-.2 1.9 1.1.9 2.4 1.3-.9 0-1.7 0-2.3-.2v.4c.5-.2 1.8-.2 2.7-.1.1.1.2.2.4.3h3.1v-1.5h.5c0-.1-.1-.2-.2-.2.1-.3.2-.8.2-.8-.9.1-2.7-.7-4 .3zm-5.3.3h-6.3v1.8c-.2.1 0 .3 0 .4 0 .2.4.2.5.2-.3-.1 0-.2-.1-.2 0-.1.1-.2.1-.2h1.4c.1.1.3.2.4.1 0-.1.1-.1.2-.1h.2c.3.1.6.2.9.1v.1c.6 0 1.2-.1 1.7-.2h2.3v-2h-1.3zM31.6 78.9l.1-.1-.1.1z"/><use xlink:href="#D" y="56"/><use xlink:href="#G" y="44"/><path d="M74.9 76.803h-1.6c-2-.3-4.2 0-6.3-.2-.7-.1-1.4 0-2.1 0v2.5l5.6-.1v-.1h2.1c3.2 1.5 2.2-1.5 2.3-2.1zM57 77.3s0 .1 0 0c-.2 1.8.5.7 1.1 1.1-.4 0-.6 0-1.1.1v.4c.6 1.1.8-.2 1.2-.4a1.38 1.38 0 0 1 .3.4h1.4l3.9.2v-2.6c-.6-.1-1.1-.1-1.7-.1h-.2c-1-.5-1.8-.2-2.5.1h-.1c-.1 0-.2 0-.2-.1-.1 0-.3 0-.4-.1-.4 0-.9 0-1.2.1h-.1c-.2-.1-.3-.1-.4 0-.5 0-1.1 0-1.7.1h-1.5l-5.3.1V79c1.7.1 3.3.2 5-.1h1.9c.3-1.2.3-1.4 0-1.7.4.1 1 .1 1.6.1zm.7 0c.3 0 .6-.1.9-.1-.2.1-.5.1-.9.1zm.8-.9c.1 0 .3 0 .4.1.1 0 .2 0 .3.1-.1 0-.1.1-.2.1v.1h-.1c-.2-.1-.4-.1-.6-.1.1-.2.1-.2.2-.3zm-22.6.003c-.1-.1-.2-.1-.4-.2-.2.2-.7 0-.8.2-.6-.2-1.1-.1-1.8-.1-.1 0 .2 0 0 .1-.5.1-.1-.1-.6-.1l.1.1h-.6c0 .2-.1.4-.1.6v.7c.1-.1.1.1.2 0v-1.2h2c.5 0 1 .1 1.6.2 0-.1 0-.1.1-.1l3.4.2h.8c-.3-.3-.5-.3-.8-.3-1.1-.1-2.1-.1-3.1-.1zm23.9 6.5l3.9.2v-2.6c-1.7-.2-3.4-.2-5.1-.1h-1.8v2.5c.3 0 .7 0 1-.1h2v.1zm0-2h-.1.1zm-.3 0h-1.4c.5-.1.9-.2 1.4 0zm-2.5 0h0zM48.5 82.3v.7c1.7.1 3.3.2 5-.1h2.2v-2.4h-.2l-7 .1v1.7zm-16.9.5l-.1.1c.3.5.3-.5.1-.1z"/><use xlink:href="#B" y="64"/><path d="M73.8 80.8h-.5c-2-.3-4.2 0-6.3-.2-.7-.1-1.4 0-2.1 0v2.5l5.6-.1v-.1l2.2.1h2.2v-2.2c-.1-.4-1.1-.4-1.1 0zm-36.4 2.102h2.3v-2h-7.4v1.5c-.4.7-.5.9-.2.8.1.2.6.2.4.1h.3c-.3-.1 0-.2-.1-.2 0-.1.1-.2.1-.2h1.3c.1.1.3.2.4.1 0-.1.1-.1.2-.1h.2c.3.1.6.2.9.1v.1c.4 0 1-.1 1.6-.2z"/><path d="M42.2 80.5H41v.4h.5s-.1 0-.1-.1c.1 0 .2.1.3.1l-.1-.1c.5 0 1 .1 1.5.1h-2.2v2h1.3c1.6.5 2.6.5 4.3 0h.7v-2.2l-.4-.1c-.5 0-1 0-1.4-.1-1.1-.1-2.3.3-3.2 0zm-10.4-.1c0 .2-.1.4-.1.6v.7a.47.47 0 0 0 .1-.6v-.7h2.1c.5 0 1 .1 1.6.2 0-.1 0-.1.1-.1l4.3.2v-.2c-1.3 0-2.5-.1-3.8 0-.1-.1-.2-.1-.4-.2-.2.2-.7 0-.8.2-.6-.2-1.1-.1-1.8-.1-.1 0 .2 0 0 .1-.5.1-.1-.1-.6-.1l.1.1c-.4-.1-.6-.1-.8-.1zm23.9 4.7v-.5H53c-1.3-.1-2.3-.1-3.7.1-.1 0-.3 0-.4.1-.1 0-.3 0-.4.1 0 0 0 .1.1.3.2 0 .3.1.5.1.1 0 .3.1.5.1.6.1 1.4.2 2.2.2-.8 0-1.6 0-2.3-.1h-.4c-.1 0-.3 0-.4-.1 0 0 0 .1.1.2l.3.3c.1.1.2.2.3.2.1.2.1.3.2.4l.1.1h-.5c.1.1.3.1.4.2s.3.1.4.1c.4-.1.9-.2 1.3-.2h.9c.1 0 .3 0 .4.1.5.1.6.1.7.1h.5c.7 0 1.4-.1 2 0 0-.1 0-.2.1-.3-.2-.6-.2-1-.2-1.5zm-24.1 1.8l.1-.1-.1.1zm.2-.697c.1.1-.4.3-.2.5l.2-.5z"/><use xlink:href="#B" y="68"/><path d="M73.3 84.803c-2-.3-4.2 0-6.3-.2-.7-.1-1.4 0-2.1 0v2.5l5.6-.1v-.1l2.2.1h2.2v-2.2h-1.6zm-16.3 2c.1-.1.2-.1.3-.2H57v.2z"/><path d="M57.3 86.602l1.7-.2c-.5-.1-1.1-.2-1.7.2zm-19.9.298h1.2c1.2.5 1.2.5 1.2-.1V85h-7.4v1.8c-.2.1 0 .3 0 .4 0 .2.4.2.5.2-.3-.1 0-.2-.1-.2 0-.1.1-.2.1-.2h1.4c.1.1.3.2.4.1 0-.1.1-.1.2-.1h.2c.3.1.6.2.9.1v.1c.3-.1.8-.2 1.4-.3z"/><path d="M56.9 84.703v.4c.8 2.2 2.8.2 5 .9.1 0 .2 0 .3.1.2 0 .3.1.5.2H59c.8.3 1.6.9 2.7.8h.4c.3 0 .5-.1.8-.2h.8v-2.6c-.3 0-.6-.1-.9-.1h-2.4c.4 0-.6 0-.8 0h-.4l-2.1.1c-.2.2-.2.3-.2.4zm5.1.5c-.1 0-.2.1-.3.1.1 0 .2 0 .3-.1zm-21.1-.7v.4h.3c.1 0 .2 0 .3-.1.3-.2.6-.3.9-.4h-1.1c-.2.1-.3.1-.4.1z"/><path d="M42.3 84.502h1.9c-.6-.2-1.2-.2-1.9 0z"/><path d="M47.6 85.202c.1-.1.1-.2.1-.3l-.3-.3a27.26 27.26 0 0 0-3.2-.2l1 .3c-1.2-.3-2.2-.2-3.8.1H41v2h1.3c1.2-.4 2.6.1 4.1-.5h0c.3-.1.6-.2.9-.5.1 0 .2-.1.2-.2-.1-.2-.2-.3-.3-.4-.2-.1-.3-.1-.4-.2.2.1.5.1.7.1-.1.2 0 .2.1.1zM33.1 84.4h.8c.5 0 1 .1 1.6.2 0-.1 0-.1.1-.1l4.3.2v-.2c-1.3 0-2.5-.1-3.8 0-.1-.1-.2-.1-.4-.2-.2.2-.7 0-.8.2-.6-.2-1.1-.1-1.8-.1-.1 0 .2 0 0 .1-.5.1-.1-.1-.6-.1l.1.1H32v1.3c.1-.1.1.1.2 0v-1.2h.6c-.1-.2.3-.2.3-.2zm30.6 5.003v-1c-1.3-.1-2.5-.2-3.8-.1h-.4l-2.6.1v2.6c.3 0 .7 0 1-.1h.8c1 .5 2 .5 4.1.2h.8v-.3c.1-.7.1-1.1.1-1.4zm-3.9-.5h-.1.1zm-.3 0h-1.4c.5-.1.9-.2 1.4 0zm-2.5 0h0zM55.7 90.9v-2.4h-.6a33.78 33.78 0 0 0-4.5 0h-.4c-.6 0-1.2 0-1.8.1V91c.9.1 1.7.1 2.6.1h.9c.2.1.3 0 .5 0 .1 0 .2-.1.3-.1l.9-.4c.2 0 .4 0 .6.1a.9.9 0 0 1 .5.1c.3.1.5.2.7.3.2-.2.3-.2.3-.2zm-16.3-2c-.6.5-1.4-.9-1.9-.4h-1.7c-.1-.1-.2-.1-.4-.2-.2.2-.7 0-.8.2-.6-.2-1.1-.1-1.8-.1-.1 0 .2 0 0 .1-.5.1-.1-.1-.6-.1l.1.1h-.6c0 .2-.1.4-.1.6v.7c.1-.1.1.1.2 0v-1.2h2c.5 0 1 .1 1.6.2 0-.1 0-.1.1-.1.6.1 1.1.1 1.7.1h.3c0 .1-.1.2-.1.3h-5.1v1.8c-.2.1 0 .3 0 .4 0 .2.4.2.5.2-.3-.1 0-.2-.1-.2 0-.1.1-.2.1-.2h1.4c.1.1.3.2.4.1 0-.1.1-.1.2-.1h.2c.3.1.6.2.9.1v.1c.6 0 1.2-.1 1.7-.2h2.3V91c.1-1.3.1-1.3 0-1.9-.2-.2-.3-.2-.5-.2zm-7.7 1.9l-.1.1.1-.1z"/><use xlink:href="#D" y="68"/><use xlink:href="#G" y="56"/><path d="M73.3 88.802c-1.1-.2-2.4-.1-3.6-.1h-1.8c-.3 0-.6 0-.9-.1h-2v.5c.8 2.3 2.7.5 3.3 1.4l-3.2.1v.3c-.2 1.6 1.8-.4 3.2.5h.5c.7 0 1.4-.1 1.8-.3v-.1l2.2.1H75v-2.2c-.7-.1-1.2-.1-1.7-.1zM40.9 90.7s0 .1 0 0v.2h6.4v-2.2l-.4-.1c-1.1-.2-1.1-.2-1.8-.1h-.4c-.9 0-1.7.2-2.5 0h-.6c.2-.1-.8-.1-.7 0v.4c-.1-.4.7-.5.8-.2-.2-.3-.8-.2-.8.2v.1c-.1.4-.1 1.4.1 1.4v.3h-.1zm1.2-1.9c.3 0 .7 0 1 .1h-1.4v-.1h.4zm-1.2 5.503v.6h1.3c.3.3 1-.1 1.7-.4.6 0 1.1 0 1.8.1l.3.3h1.3v-2.2l-.4-.1h-.8c-1.4-.2-2.4-.2-3.6 0-.1 0-.3 0-.4-.1h-1.2v.4h.5s-.1 0-.1-.1c.1 0 .2.1.3.1l-.1-.1h1c0 .1 0 .2.1.2-.2-.1-.3-.1-.4-.2h-1.3v1.5zm3.6.1h0zm1.4-1.4a6.28 6.28 0 0 1-1.9.3c.6-.2 1.3-.5 1.9-.3zm9.8 1.897v-2.4h-1.1c-.9-.1-.9-.1-1.8 0h-.9l-3.5.1V95c1.7.1 3.3.2 5-.1h2.3zm-24-.1l-.1.1.1-.1zm.1-.597c.1.1-.4.3-.2.5l.2-.5z"/><use xlink:href="#B" y="76"/><path d="M73.3 92.802c-2-.3-4.2 0-6.3-.2h-1.9v.5c-.8 1 .4 1.2.9 1.5h-.2c.1-.1-.9-.1-.9 0v.3c0 .6 0 .6.9.3h.4l4.4-.1v-.1l2.2.1H75v-2.2c-.7-.1-1.2-.1-1.7-.1zm-10.4-.3h-4.3c-.5 0-1.1 0-1.6.1v2.5c.3 0 .7 0 1-.1h1.2c.4.3.7.4 1 .4 1.2.6 2.8-.8 3.7.1-.5-1-1.2-1-1.9-.9.6-.3 1.2-.5 1.9-.1 0-1.8-.8-.4-1.8-1.1.6.1 1.2.1 1.8.1.9-1.1-.1-1.1-1-1zm-3.1.4h-.1.1zm-.3 0h-1.4c.5-.1.9-.2 1.4 0zm-2.5 0h0z"/><use xlink:href="#F" y="72"/><use xlink:href="#E" y="72"/><path d="M55.7 98.9v-2.4h-.2l-7 .1V99c1.7.1 3.3.2 5-.1h2.2zm-11.9-2.297H43c-.3 0-.5 0-.8-.1H41v.4h.5s-.1 0-.1-.1c.1 0 .2.1.3.1l-.1-.1h.6-1.3v2h6.4v-1.5h.5c0-.1-.1-.2-.2-.2.1-.3.2-.8.2-.8-.9.1-2.7-.7-4 .3zm29.5.2c-2-.3-4.2 0-6.3-.2-.7-.1-1.4 0-2.1 0v2.5l5.6-.1v-.1l2.2.1h2.2v-2.2h-1.6zM62.1 98.5c.6-.1 1.1-.1 1.6-.1v-2c-.3 0-.6-.1-.9-.1h-3.7l-2.1.1v2.5c.3 0 .7 0 1-.1h2.5c1.4.5 2.4.5 3.4.5-.6-.7-1.2-.9-1.8-.8zm-2.3-1.6h-.1.1zm-.3 0h-1.4c.5-.1.9-.2 1.4 0zm-2.5 0h0zm-24.7 2c.1 0 .2-.1.3-.1l2.4.1v.1c.1 0 .2.1.4.1.1 0 .2 0 .3-.1v.1c.6 0 1.2-.1 1.7-.2h1.1c1.2.5 1.2.5 1.2-.5V97h-5.1c-1 0-2 .1-2.8.2v-.6h2.3c.4 0 .9.1 1.3.2 0-.1 0-.1.1-.1l4.3.2v-.2c-1.3 0-2.5-.1-3.8 0-.1-.1-.2-.1-.4-.2-.2.2-.7 0-.8.2-.6-.2-1.1-.1-1.8-.1-.1 0 .2 0 0 .1h-.3s-.1-.1-.3-.1l.1.1h-.6v.7c-7.2.2-7.1.9.4 1.5 0-.1 0-.1 0 0zm23.4 4v-2.4h-.2l-7 .1v2.4c1 .1 2 .1 3 .1h.4c.4.2.9-.3 1.5-.6.8-.1 1.6.1 2 .4h.3zm-16.3-1.997a1.82 1.82 0 0 0-1.4-.3c-.1-.2-.3-.2-.6-.2h-1.5c-.1-.1-.2-.1-.4-.2-.2.2-.7 0-.8.2-.3-.1-.6-.1-.9-.1h-.3c.2.1-.8.1-.6.1h-.3s-.1-.1-.3-.1l.1.1h-.6c0 .2-.1.4-.1.6v.7c.1-.1.1.1.2 0v-1.2h2c.5 0 1 .1 1.6.2 0-.1 0-.1.1-.1.6.1 1.1.1 1.7.1h.6c-.2.1-.3.2-.4.3h-5.1v1.8c-.2.1 0 .3 0 .4 0 .2.4.2.5.2-.3-.1 0-.2-.1-.2 0-.1.1-.2.1-.2h1.4c.1.1.3.2.4.1 0-.1.1-.1.2-.1h.2c.3.1.6.2.9.1v.1c.6 0 1.2-.1 1.7-.2H40v-.5c.1-1 .1-1 0-1.5-.3-.1-.4-.1-.6-.1zm-7.8 1.997l.1-.1-.1.1z"/><use xlink:href="#D" y="80"/><use xlink:href="#G" y="68"/><path d="M73.3 100.8c-1.3-.2-2.7-.1-4-.1h-.5c-1-.3-1-.3-1.8-.1-.7-.1-1.4 0-2.1 0v2.5h.8c.5.7 1.3 0 2.1-.6.7.2 1.5.6 2.2.4h.4v-.1l2.2.1h2.2v-2.2c-.5.1-1 .1-1.5.1zm-4 .2h0c-.3.2-.7.3-1.1.3.5-.1.9-.2 1.1-.3zm-3.1 1.5c.4-.2.8-.2 1.3 0h-1.3z"/><use xlink:href="#J" y="52"/><path d="M40.9 102.703v.2h3.9c1-.5 3 1.5 2.5-.2v-2.1l-.4-.1c-.5 0-1 0-1.4-.1-1.2-.1-2.3.3-3.3 0H41v.4c-.1-.5.9-.5.5-.1.1 0 .2.1.3.1l-.1-.1h.6-.9c-.4 0-.4.2-.4.5v1c-.1.3-.1.4-.1.5zm-1.5 2.2h-7.1v1.8c-.2.1 0 .3 0 .4 0 .2.4.2.5.2-.3-.1 0-.2-.1-.2 0-.1.1-.2.1-.2h1.4c.1.1.3.2.4.1 0-.1.1-.1.2-.1h.2c.3.1.6.2.9.1v.1c.6 0 1.2-.1 1.7-.2h2c.4-.5.4-1.5.3-2h-.5zm-7.8 1.998l.1-.1-.1.1z"/><use xlink:href="#D" y="84"/><use xlink:href="#G" y="72"/><path d="M74.9 107.003v-2.2h-1.6c-.7-.1-1.5-.1-2.2-.1h-.5c-.2-.1-.5-.1-.8-.1-.8-.4-1.9-.7-2.7 0H65v2.5l5.6-.1v-.1l2.2.1h2.1zm-34-2.1c.1-.1.3-.2.4-.3a.76.76 0 0 1-.4-.2v.5zm.5-.202c.5.1 1.1.1 1.6 0-.5-.2-1.1-.3-1.6 0zm-9.6-.3c0 .2-.1.4-.1.6v.7c.1-.1.1.1.2 0-.1-.4-.1-.8-.1-1.3h2.1c.5 0 1 .1 1.6.2 0-.1 0-.1.1-.1l3.4.2h.8v-.2c-1.3 0-2.5-.1-3.8 0-.1-.1-.2-.1-.4-.2-.2.2-.7 0-.8.2-.6-.2-1.1-.1-1.8-.1-.1 0 .2 0 0 .1-.5.1-.1-.1-.6-.1l.1.1c-.3-.1-.5-.1-.7-.1z"/><path d="M41 106.702c1.8-.3 2.8-.3 5 .1 0 .1.1.1.1.2h1.3v-.4c-.2-.4-.3-.7-.5-1l-.1-.1c-.2-.2-.3-.3-.5-.4-1.1-.7-2.1-.4-3.2-.3.4.1.7.3 1.1.5-1.1.4-2.3 1-3.2-.2v.2c.2.7.4 1 .7 1.2H41v.2zm4.7-.3c-.8 0-1.7 0-2.6-.1.9-.2 1.9-.6 2.6.1zm2.8.598c.6 0 1.1.1 1.7.1h.4c1.3.8 1.8-.1 2.4-.5.6.2 1.2.5 1.5.3h1.2v-2.4h-.2c-.8-.1-2.8-.1-4 0h-3.1v.4h.1v2.1zm3.1-.6h0zm6.9.5h1.3l3.9.2v-2.6c-2.3-.2-4.5-.1-6.8-.1v2.5c.3 0 .7 0 1-.1.2.1.4.1.6.1zm1.3-2h-.1.1zm-.3 0h-1.4c.5-.1.9-.2 1.4 0zm-2.5 0h0zm-18.7 4.002h-6v1.8c-.2.1 0 .3 0 .4 0 .2.4.2.5.2-.3-.1 0-.2-.1-.2 0-.1.1-.2.1-.2h1.4c.1.1.3.2.4.1 0-.1.1-.1.2-.1h.2c.3.1.6.2.9.1v.1c.6 0 1.2-.1 1.7-.2h.6c.8-1.5 1.8.5 1.7-2h-.3c.2.5-.8.5-1.3 0zm-6.7 1.998l.1-.1-.1.1zm.2-.697c.1.1-.4.3-.2.5l.2-.5z"/><use xlink:href="#B" y="92"/><path d="M31.8 108.4c0 .2-.1.4-.1.6v.7c.1-.1.1.1.2 0-.1-.4-.1-.8-.1-1.3h2.1c.5 0 1 .1 1.6.2 0-.1 0-.1.1-.1l3 .2h.4c-.1-.1.2-.2.4-.2h-3.3c-.1-.1-.2-.1-.4-.2-.2.2-.7 0-.8.2-.6-.2-1.1-.1-1.8-.1-.1 0 .2 0 0 .1-.5.1-.1-.1-.6-.1l.1.1c-.4-.1-.6-.1-.8-.1zm12.2.1h-.4c-.1 0-.2 0-.3.1-.5-.1-1.5-.1-2.4 0v.5c1.2-1 3.4 0 4.7.4-1.7 0-3.5-.1-4.7-.4v.2c.2.5.4.8.7 1.1h-.7v.4c.3 0 .6-.1.9-.1 1.3 1.4 2.9.7 4.3-.1h0c.6-.4 1.2-.7 1.7-1h-1c1-2.2-2-.2-2.8-1.1zm11.7 1.902c0-.3-.1-.6-.2-1.1.3.1.3 0 .2-.5v-.3h-2c-1-.2-2-.2-2.6 0h-.4c-.9-.2-.9-.2-1.6 0h-.6v.4l1.1 1.3h-1.1v.4c1 1.2 2.1 1.1 3.2.7 1.5.3 2.9 0 4.1 0 0-.4 0-.6-.1-.9h0zm-5.9-1.1h-.3.3zm4.3 3.2c-1 .1-2.2.6-3.4.1h-.4c-.6 0-1.2 0-1.8.1v2.4h.4c-.1.3.9.3 1.1.1h.8c1 .3 1 .3 1.5-.1h.4v-.1h.3c.3.2.7-.1 1-.3h.1a.76.76 0 0 1 .4.2v.1c1.2.5 1.2.5 1.1-.1v-.4c0-.4 0-.7-.1-1h.1c-.1-.1-.1-.2-.2-.3 0-1-.6-1-1.3-.7zm.2 2c.2-.1.3-.2.3 0v.1c-.1-.1-.2-.1-.3-.1zm-3.1-1.4h.3v-.1l1.2.3c-.7.3-1.3.5-1.5-.2zm-10.3 1.2v.6h1.3c1.5-.5 2.5-.5 4.1 0h.9v-2.2l-.4-.1H46c-1.4-.2-3.4-.2-4-.1h-1.2v.4h.5s-.1 0-.1-.1c.1 0 .2.1.3.1l-.1-.1h.5c.1-.1.2-.1.3-.1-.1 0-.2.1-.2.1h-1.3v1.5h.2z"/><use xlink:href="#K"/><path d="M31.6 114.9l.1-.1-.1.1z"/><use xlink:href="#D" y="92"/><use xlink:href="#G" y="80"/><path d="M73.3 112.8c-.4-.1-.8-.2-1.2-.2h-.2c-.6-.1-1.2-.1-1.8 0h-.2c-.2 0-.4 0-.6.1h-1.5c-.1.1-.3.2-.5.2-.5-.3-.7-.4-1.1-.2-.8-.2-1.5-.6-1.4.3v2.3l5.6-.1v-.1l2.2.1h2.2V113h-1.1c-.1-.2-.2-.2-.4-.2zm-16.3.002c-.1 0-.2 0-.1.1v2.2h.1v1.4h.6l-.3-1.4c.2 0 .4 0 .6-.1h1.9l3.9.2v-2.3c.1-.1.1-.2.1-.4-.1 0-.2.1-.3.1s-.3 0-.5.1c-1.7.3-3.9-.8-5.6-.1v.4h1.8c.1 0 .1 0 .2.1h-1.3c-.2.2-.5.1-.8 0 0-.2-.1-.3-.3-.3.2-.1.3-.1.4-.2 0-.4-.1-.9-.2-1.4.6-.2 1.3-.4 2-.5 1.6.4 3.2 1.4 4.5.7-.3-.5-.7-.8-1-1h1c-1-2-2.9-.1-5.3-1.4.4.1 1.3.2 2.9.2.8.3 1.6.4 2.3 0h.1c.7.2.9.3 1.3.2.5.5 1 .9 1.5 1.2-.7 0-1.3.1-1.8.2v.2c-.1-.4-.1.6-.1.6 3 0 7 1 10-1 1-1 0-2-2.3-1.7h-3.6c0-.3-1-.3-1.4-.1h-3.9c-.2-.1-.5-.1-.8 0-.1 0-.3.1-.4.1h-.4c-.6 0-.7-.1-.7-.2h-2.4c-.6 0-1.3 0-1.9.1v.6c-.2 1.3-.2 1.3-.2 2.3.1 0 .1-.1.2-.1.2.1.2.5.2 1.2zm2.8.1h-.1.1zm7.9-3.6h0zm4.2 1.5l1.8-.3c-.6.3-1.2.3-1.8.3zm2.9-1.4c-.1.1-.1.2-.2.2-.5-.6-1.8.3-2.4-.5.7.3 1.6.3 2.6.3zm-9.1-.3c-.1.1-.4.2-.6.2.2-.1.4-.1.6-.2zm-5.9-.5c-1.1 0-1.7.2-1.6.3h-.5c.8-.5 1.5-.5 2.1-.3zm-2.8.3h0z"/><use xlink:href="#L"/><path d="M57.2 116.902H57v-.5c-.2 0-.2.2-.1.5h.1c-.1.1-.1.3-.1.5v1.7c.3 0 .7 0 1-.1h1.7c1.2.5 2.2.5 3.3.2h.8v-2.6c-1.7-.2-3.4-.2-5.1-.1h-1.1c0 .2.1.4.1.5-.1-.1-.3-.1-.4-.1zm2.6 0h-.1.1zm-.3 0h-1.1c.3-.1.7-.1 1.1 0z"/><use xlink:href="#K" y="4"/><path d="M31.6 118.9l.1-.1-.1.1z"/><use xlink:href="#D" y="96"/><use xlink:href="#G" y="84"/><path d="M67 116.602h-2.1v2.5l5.6-.1v-.1l2.2.1h2.2v-2.2h-1.6c-2-.3-4.2 0-6.3-.2zm-18.4.098v2.4c1.7.1 3.3.2 5-.1h2.2v-.5c-.2-.4-.4-.7-.7-1h.7c-2-3.1-5-.1-7.2-.8zm.1.3c.9.2 1.9.2 2.9.3-1 .4-2 .6-2.9-.3zm-1.4-.297l-.4-.1c-.4-.6-.8-.4-1.2-.1l-2.8.1h-.4c-.1 0-.3 0-.4-.1h-1.2v.4h.5s-.1 0-.1-.1c.1 0 .2.1.3.1l-.1-.1h.9-1.5v2h1.3c.2.2.7 0 1.2-.2.2-.1.3-.1.5-.2.6 0 1.3.1 1.9.2l.2.2h1.3v-1.9c.5-.5.5-.5 0-.2zm-2.4.7c-.4.4-.8.7-1.3-.1.5 0 .9.1 1.3.1z"/><use xlink:href="#L" y="4"/><use xlink:href="#C" y="100"/><use xlink:href="#K" y="8"/><path d="M31.6 122.9l.1-.1-.1.1z"/><use xlink:href="#D" y="100"/><use xlink:href="#G" y="88"/><path d="M72.9 120.802h-.4c-.7-.3-1.7-.3-2.7 0h-1c0-.3-1-.3-1.4-.1h-2.1c-.5-.2-.5.8-.5.8.2.1.4.1.6.2.5.4.9.7 1.4.9-.6 0-1.3 0-1.9.1v.2c1.3.7 2.5.4 3.8 0 .9 0 1.7-.2 2.5-.3h1.2c.2 0 .5.1.7.2l.3.3h1.5v-2.2h-1.6c-.1-.1-.3-.1-.4-.1zm-9.1.6c0-.5-.1-.8-.3-.9s-.5-.1-.8 0c-.9-.1-2.9-.1-3.4-.1h-.8c-.5 0-1 0-1.5.1v2.5c.3 0 .7 0 1-.1h1.7c.6-.2 1.4-.4 2.2-.4.8.2 1.5.4 2-.1 0-.4-.1-.6-.3-.8-.2-.1-.5-.2-.8-.2-.5 0-1 0-1.5-.1.6.1 1.2.1 2 .1h.5zm-4.8-.6c.2 0 .3 0 .5.1h-1.4c.3 0 .6-.1.9-.1zm-2 .1h0zm3.3 1.5c.2 0 .4-.1.6 0 .1 0 .2 0 .4.1-.4-.1-.7-.1-1-.1z"/><use xlink:href="#L" y="8"/><path d="M51.9 123.1h.4c.4 0 .8-.1 1.2-.2h2.2v-2.4h-.2l-7 .1v2.4c.7.1 1.4.1 2.1.1h.4c-.2.3.8.3.9 0z"/><use xlink:href="#C" y="104"/><use xlink:href="#K" y="12"/><path d="M31.6 126.9l.1-.1-.1.1z"/><use xlink:href="#D" y="104"/><use xlink:href="#G" y="92"/><path d="M67 124.602h-1.9v2.5l5.6-.1v-.1l2.2.1h2.2v-2.2h-1.6c-2.2-.3-4.4 0-6.5-.2zm-18.5.3v2.1c1.7.1 3.3.2 5-.1h2.2v-2.4h-2.5c-.6-.2-2.6-.2-3.9 0h-.8v.4z"/><use xlink:href="#L" y="12"/><use xlink:href="#J" y="76"/><use xlink:href="#K" y="16"/><use xlink:href="#C" y="108"/><path d="M31.6 130.9l.1-.1-.1.1z"/><use xlink:href="#D" y="108"/><use xlink:href="#G" y="96"/><path d="M67 128.602h-2.1v2.5c.5.2 1.1.2 1.8.2h.3c.3-.1.7-.1 1-.2h2.4v-.1l2.2.1h2.2v-2.2h-1.6c-1.9-.4-4.1-.1-6.2-.3zm-8.5 2.298h1.3l3.9.2v-2.6c-2.3-.2-4.5-.1-6.8-.1v2.5c-.2.4.8.4.5 0 .2 0 .3 0 .5-.1.2.1.4.1.6.1zm1.3-2h-.1.1zm-.3 0h-1.4c.5-.1.9-.2 1.4 0zm-2.5 0h0zm-8.5 0v2.1c.7.1 1.4.1 2.1.1h.4c-.3.3.7.3.9 0h.4c.4 0 .8-.1 1.2-.2h2.2v-2.4h-.2l-7 .1v.3z"/><use xlink:href="#L" y="16"/><use xlink:href="#K" y="20"/><path d="M31.6 134.9l.1-.1-.1.1z"/><use xlink:href="#D" y="112"/><use xlink:href="#G" y="100"/><path d="M58.3 132.402c.3 0 .6.1 1 .2-.3-.2-.6-.2-1-.2zm-9.7.298v.7c-.4.4 0 .7.5.9h-.6v.8h4.2v-.1c.2-.1.4-.2.5-.3.3 0 .8 0 1.2.2 0 .1.1.1.1.2h1.2v-.5c-.3-.5-.6-.8-1-1h1c-1.9-3.2-4.9-.2-7.1-.9zm4.8 1.8c.4-.3.5-.6.9 0h-.9zm-4.6-1.4c.7.1 1.4.2 2.2.2-.7.1-1.5.1-2.2-.2zm-1.5-.4l-.4-.1c-.5 0-1 0-1.4-.1-1.2-.1-2.3.3-3.3 0H41v.4h.5s-.1 0-.1-.1c.1 0 .2.1.3.1l-.1-.1c.5 0 1 .1 1.5.1h-2.2v2h6.4v-1.5c0-.2 0-.3-.1-.4h.1v-.3z"/><use xlink:href="#L" y="20"/><path d="M73.3 132.802c-2.5-.4-5.5-.4-8.5-.4l.1.1h-3.2c-.8.4-1.6.3-2.3.2.5.2 1 .4 1.6.5-1.3.3-2.3.2-3.8-.1.5-.4.9-.6 1.3-.6-.6-.1-1.1 0-1.4.5v.5c-.1 0-.1.7.1 1.2h-.1v.4c.3 0 .7 0 1-.1h1.1c-.3.5.7-.5.6 0h.7l3.3.2v-.7c0-.9 0-1-.9-1.4h.1c.8.1 1.4.1 2 .1v.3c-.1.6-.1.9 0 1.1v.6l3.2-.1c-.1.1 0 .1.1 0h2.3v-.1h.8c-.4.5.6.5.7 0h3v-2.2h-1.8zm-.1.2c-.8.3-1.6.3-2.4.2.8-.1 1.6-.3 2.4-.2z"/><use xlink:href="#K" y="24"/><path d="M31.6 138.9l.1-.1-.1.1z"/><use xlink:href="#D" y="116"/><use xlink:href="#B" y="120"/><path d="M69.7 136.703h-1.8c-.3 0-.6 0-.9-.1-.7-.1-1.4 0-2.1 0v2.5h1.6c1.2.3 3.2.3 4-.1v-.1l2.2.1h2.2v-2.2h-1.6c-1.1-.2-2.4-.1-3.6-.1zm-11.4-.3h.7c-.3-.1-.5-.1-.7 0zm-2.6.097h-.2l-7 .1v2.4c1.6.1 3.1.2 4.7-.1.1 0 .3 0 .4-.1.2-.4 0-.4-.2-.4h-.1c.3-.6 2.8.4 2.2-1.2.2 0 .2-.1.1-.5.1 0 .1-.2.1-.2zm-8.8.1c-.5 0-1 0-1.4-.1-1.2-.1-2.3.3-3.3 0H41v.4h.5s-.1 0-.1-.1c.1 0 .2.1.3.1l-.1-.1c.5 0 1 .1 1.5.1h-2.2v2h6.4v-2.2l-.4-.1z"/><use xlink:href="#L" y="24"/><path d="M63.2 138.7c.2-.1.3-.2.5-.3v-2c-1.6-.2-3.2-.2-4.8-.1.4.1.8.5 1.1.6-.6.3-1.4.3-2.1-.1h-.2c.2-.2.3-.4.5-.5h-1.3v.9l1.4 1.3c-.5.1-1 .1-1.5 0v.3c.5-.1 1-.2 1.6-.2 1 .7 2.2.9 3.5.4l1.7.2c0-.1-.2-.3-.4-.5zm-6.2-1.8h0z"/><path d="M81.2 143.7l-.1-.5.3-1.1c0-.3-.1-1.3-.2-2.3 0-.5-.1-1-.1-1.4-.1-.3-.1-.5-.2-.6.1-.1.2-1.3.3-.4l.1-4.7-.1.7c-.3.1-.4-1.3-.3-2 .2 1 .4.1.5-.3-.1-.6-.2.6-.4.2-.2-.8-.3-2.5-.2-2.9l.1.5c-.1-1.1.3-1.6.3-2.7-.2-1 0-1.7-.5-1.5-.1-1.4.3-.5.3-1-.2-.7-.1-2.6.1-2.8-.6-.8.2-3.7-.3-4l.3-1.1c-.1 0-.5-.3-.5-1.2.2-.9.4-.7.5-.9l-.5-.6c.5-5 .1-11.6.5-17.1-.1-2.5-.4-5.5-.3-8.4l.1.3.1-2.8-.2 2.1c-.1-.6-.2-1.1-.2-1.7.2-3.1.4-7.3.1-11.2-.6-2.5.5-1.7.1-4 .1.2.1.3.2.5-.2-2.6-.3-4-.7-6.5.6.3 0-1.7.3-1.4l-.3-.2c.1-.6.2-1.9.4-1.7l-.3-1.1.3-.1c0-1.5-.2-4.7.3-5.5-.4-3.7-.3-9.6-.3-14.3-.2-.7-.2-2-.3-3.1l.3-1.1c-.1-1.1-.5-2.2-.3-3.2 0 0 .1 0 .1.1-.1-1.1.1-2.2-.2-3.2 0-1.1.1-2.1.4-2.1-.3-.4.1-2.5.1-2.5V1.6L60.9.7 44.2.2C34.4 0 25.6 0 20.5.5l-.3-.1h-.1v.1c-.4 0-.8.1-1.1.1h-.1c-.1-.3-.1-.4-.1-.5h.2c0-.1-.2-.1-.2 0v.2c-.1.1-.1-.1-.2 0 0-.1.1-.2.2-.2-.1 0-.2 0-.2.1-.1 0 0-.2-.2-.2-.1.1-.1.2-.3.2-.3 0-.3.3-.6.2-.1 0-.2.1-.4.1 0 0 .1.1 0 .1-.2 0-.3.1-.4 0l-.1.2c-.6.2-2.7 1-3.3 1.2-.8.3-2.6.9-3.4 1.3-.2-.1-.4 0-.5 0 .1 0 .1.1 0 .1-.4.1 0 .1-.4.3 0 0-.1 0-.1.1-1.1 0-3.4 0-4 .1h-.1c-.1 0 .1 0 0 0h-.2s.1 0 .1.1h-.2c-.1.2-.2.4-.2.6h-.1c0 .1 0 .1.1.2h-.2l.1.1C3 4.9 1.5 4.9 1 5H.9c-.1 0 .1.1 0 .1V5H.7s0 0-.1 0c0 0 0 0 .1 0l.1.1s-.2 0-.2.1c-.1.3-.2.5-.2.8H.3c0 .1 0 .1.1.2H.2c.1 0 .1.4.1.4h0L0 6.4s.1.6.3 1.3v.2H.2.3v.2a9.83 9.83 0 0 0 .5 1.6c-.1 0-.1.1-.1.1.1 0 .1-.1.1-.1v.1H.7v.1h.1s.1 0 .1.1c0 0-.2 0-.2.1 0 .3-.1.5-.1.7H.5c.1.1.1.1.1.2 0 0-.1 0-.2.1.1 0 .2.4.1.4h.2c0 .1-.2.1-.2.1.3 0 0 .1.1.1 0 0 0 0-.1.1h.1s0 0 .1 0h.1-.2c0 .1-.1.7 0 .9.1 0 0-.1.2-.1.1 0 0 .1.1.1-.3.1-.1.1-.3.2h.1c.2.1.1 0 .1.2 0 .1.3.1.2.1h.1c-.1 0 .1 0 0 .1 0 0 0 .1.2 0-.1 0-.1.1-.2.1v.1c0 .1-.1.1.1.1h.1s0 .1-.1.1h-.1c0 .1 0 .1.1.1s.1 0 .2.1c0 .1 0 .1.1.1 0 0 .1 0 .1.1 0 .3.1.6.1.9H.8c-.1 0 .1 0 0 0H.5l-.2.2H.2a687.58 687.58 0 0 0 .1.1H.1c.1 0 .1.1.1.1h.1c-.1 0-.2.2-.1.3h.1c.2.1.1 0 0 .1 0 0 .2 0 .2.1h.1c-.1 0 .1 0 0 0 0 0 0 0 .2 0H.7s-.1 0 .1 0h.1-.3s0 0 .1.1c.2 0 .3.1.6.2h.2-.4s.1.2 0 .3H.9h.4v.1h-.1.1c.3 0 0 .1.2.1h.3c0 .1-.1.1-.2 0 .2 1.3.2 2 .3 3-.3 0-.6 0-.8.1H1c-.1 0 .1.1 0 .1v-.1H.8l.1.1s-.2 0-.2.1c-.1.3-.2.5-.2.8H.4c0 .1 0 .1.1.2H.3c.1 0 .1.4.1.4h.2c0 .1-.2 0-.2.1.3 0 0 .1.1.1H.4c.2 0 0 0 .1.1h0c-.1.1-.2.8-.1.9.1 0 0-.1.2-.1.1 0 0 .1.1.1-.3 0-.1.1-.3.1h.1c.2.2.1 0 0 .2 0 .1.2.1.2.2h.1c-.1 0 .1.1 0 .1 0 0 0 .1.2.1-.1 0-.1.1-.2 0v.1h.1c0 .1-.1.1.1.2h.1s0 .1-.2.1H.8c0 .1 0 .1.1.2.2.1.3.5.6.5h.1l.1.1h-.4c0 .1.1.4.1.6-.1-.2-.2-.4-.2-.8l.2 1h-.2c.1.1.2 0 .1.1h-.1.1l.2.9c-.2 1-.4.2-.4 1.3l.3.2-.2.7c0-.1.1-.1.1 0h-.1c-.1 0 .1 0 0 0H1s.1 0 .1.1H.9c-.1.2-.2.4-.2.6 0 0 0 0-.1 0 0 .1 0 .1.1.2H.5c.1 0 .1.3.1.3h.2c0 .1-.2 0-.2.1.3 0 0 .1.1.1 0 0 0 0-.1 0 .2 0 0 0 .1 0h0c-.1.1-.2.6-.1.7.1 0 0 0 .2-.1.1 0 0 0 .1.1-.3 0-.1.1-.3.1h.1c.2.1.1 0 0 .1 0 .1.2.1.2.1H1c-.1 0 .1 0 0 .1 0 0 0 .1.2 0h-.1c0 .1-.1.1.1.1h.1s0 0-.2 0H1c0 .1 0 .1.1.1 0 0 .1 0 .1.1 0 .4 0 .7.1 1.8l.2-.3c.2 1.9-.3.1-.3 1.6l.3-.1c-.1.5-.1 1-.1 1.4v.1s0 .1-.1.1h.1v.3s-.1 0-.1.1c-.1.7-.2 1.4-.2 2.1H1c.1.2 0 .4.1.6 0 .1-.1.1-.2.1.1 0 .1 1.1.1 1.1h.2c0 .2-.2.1-.2.2.3.1 0 .3.1.4 0 0 0 .1-.1.1.2 0 0 .1.1.2 0 0 0 0 .1 0v.2h-.1c0 .4-.2 2.1-.1 2.5.1-.1 0-.2.2-.2.1.1 0 .2.1.2-.3 0-.1.2-.3.3h.2l-.1.1c.2.5.1.1.1.5 0 .1 0 .1.1.2-.1.3-.2.7-.3 1.5 0 1.1.1 1.2.3 1.6v.9h-.2c-.1 0 .1.1 0 .1v-.1H.9s0 0-.1.1h.1l.1.1s-.2 0-.2.1c-.1.3-.2.5-.2.8H.5c0 .1 0 .2.1.2H.4c.1 0 .1.4.1.4h.2c0 .1-.2 0-.2.1.3 0 0 .1.1.2H.5c.2 0 0 0 .1.1 0 0 0 0 .1 0l.1.1H.6c-.1.1-.2.8-.1 1 .1 0 0-.1.2-.1.1 0 0 .1.1.1-.3 0-.1.1-.3.1h.1c.2.2.1 0 0 .2 0 .1.2.1.2.2h.1c-.1 0 .1.1 0 .1 0 0 0 .1.2.1-.1 0-.1.1-.2 0v.1H1c0 .1-.1.1.1.2h.1s0 .1-.2.1H.9c0 .1 0 .1.1.2.1 0 .2.2.3.3v1.2h-.1s.1 0 .1.1h-.1.1c.1.7.2 1.4.1 2.3h-.2c-.1 0 .1 0 0 0H.9c-.1.1-.2.2-.2.3 0 0 0 0-.1 0 0 0 0 .1.1.1H.5c.1 0 .1.1.1.1h0c.3 0 0 0 .1 0 0 0 0 0-.1 0 .2 0 0 0 .1 0h0c-.1 0-.2.3-.1.3s0 0 .2 0h.1-.2c.2.1.1 0 0 .1 0 0 .2 0 .2.1H1c-.1 0 0 0 0 0H.9 1s-.1 0 0 0H.9a687.58 687.58 0 0 0 .1.1v1.2c-.1.1-.2.2-.2.3H.7s0 .1.1.1H.6c.1 0 .1.1.1.1h.1c-.1 0-.2.3-.1.3h.1c.2.1.1 0 0 .1 0 0 .2 0 .2.1h.1v.1H1h.1v.6l.2-.6h.1c.1.7.3 1.2.1 2-.4-1.5 0 1.2-.3 1.4l-.1-.8c0 1.1 0 1.1.3 1v.4h-.2c-.1.2-.2.3-.2.5H.9s0 .1.1.1H.8c.1 0 .1.2.1.2H1c.3 0 0 .1.1.1H1h.1c-.1.1-.2.5-.1.6.1 0 0 0 .2-.1-.1 0 0 0-.3.1H1c.2.1.1 0 0 .1 0 .1.2.1.2.1h.1c-.1 0 .1 0 0 0h.1s-.1.1.1.1h-.2s0 .1.1.1h.1c0 1 0 2.4.1 2.8-.1.6-.3.4-.3.1.2 2.3 0 1.1.2 3.4h-.1l.2.8-.2.7v.2h-.1l-.1.2.1-.2v.2c-.1.1-.2.6-.1.7.1 0 0 0 .2-.1v.1c-.1 0 0 .1-.3.1h.1c.2.1.1 0 0 .1l.1.1v.3l-.2-.4c.1 2.2-.3 2.5 0 4.5 0 .1-.1-.2-.1-.3.4 1.9-.4 1.4.1 3.3-.1-.1-.2.1-.2 0l.1.9-.3-.1.4.7-.3.5.1.3c-.5.9-.1 2.2-.5 3.5l.4-.2c.8 3.2-.4 7.3 0 11.2l-.3-.1.4 1.6c-.2.9-.3-.5-.4-.2.2 1.7.4.7.5 2.7-.2 1-.2-.4-.3-.8.2 1.9.3 4.6.2 5.9 0 0 .1.1.1 0 .1 1.2 0 2.9 0 4.3-.1 0-.2-.4-.2-.7 0 .5-.1 1.2 0 1.6l-.3-.5c0 1.1.2 3.1-.1 3.3.1-.1.3-.1.3.8-.4.5.2 2.5 0 3.9-.1-.2-.1-1.2-.1-.9-.1.7.1 1.4.2 2l-.2-.2.3 3.4c-.4.5.1 3.2-.2 3 0 1.2.2-1 .2.5-.2.4.1 1.4-.2 1.3v-.2 1.1l-.3-.7c.1.9.4 1.6.6 1.6-.2.9 0 2.1-.3 2.5l-.1-.3c.1 1.2-.1 2.2-.3 3.2-.1 1.6-.2 3.4 0 4.9 0 .3-.1.3-.1-.2v2.7l-.2-.4.1.6 4.1-.3-.1.1h4.6c1.1 0 2.3-.1 3.4-.1l-.3.1c2.3-.2 2.2.1 4 0-.1 0-.1.1-.2.1h1.5l-.3.1c1.1-.3 3.2.4 2.5.1.4-.1.9-.2 1.2-.3l2-.5c.8 0 1.2-.2 2.6-.1v.1c.8 0 1.2-.1 2.3-.1l-.3.1c1.7-.3 2.2.4 3.5-.2.7.1 2.1 0 2 .3 2.2-.2 3.9-.2 6-.3.3.5.5 0 1.8.3l-.1-.3c3 0 6.5.7 9.9.6l.1.3.7-.3c3.6.2 8.3.3 11.2.3.9-.1 2.4-.4 3.9-.3h-.2c1.3-.1 2.6-.1 4-.1H72c.8 0 1.6.1 2.4.1-.3.1.1.2-.2.2 1.2-.2 2.9 0 4.1.1l-1.4-.2c1.4-.2 3.5 0 4.5.2h.3l-.3-2.2c-.2.4-.2.2-.2.2zM1.1 9.6h0zm19.5-4.7h-.2.2c.3 0 .4-.1.4 0h-.4zm-.7-3.4c-.2 1.2-.3 2.7.4 3.2v.1c-.3 0-.8-.1-1.2-.1.2-.3.5-.2.6-.4 0-.1-.3-1.4-.5-2.6.2-.1.4-.1.7-.2zm-16 26.2c0-.8.2-1.3.3-1.7l.1.3s0 .1-.1 0c.2 0 0 .1.1.2h.1l.1.1c0 .1-.1.1-.2 0 0 .1-.1.5-.1.9 0 .1-.1.3-.1.4H4l-.1-.2zm.1.1c0-.1.1-.2.1-.3 0 .1 0 .2-.1.3h0zm.2-1.7s0 .1 0 0h0zm-.1-.6c0-.1 0 0 0 0h0zm.7 6.8v.1c0 .1.1.2.1.3 0 0-.1-.1-.1-.2 0 .4-.1.5-.2.6 0-.1-.1-.4-.2-.8h.4zM17 39.1c0-.9-.1-.2-.2-.9.1.1.3.2.2.5v.4zm-.1-1c-.1 0-.1 0 0 0-.1-.1-.1-.2-.1-.3h.1v.3zm-.1-.9c0 .1 0 .1 0 0a38.43 38.43 0 0 1 0-4.8c0 1.5.1 4.3 0 4.8zm-.1 49.5c0 1.6.1 3.9.1 5.3 0-1.3-.1-3.5-.1-5.3zm.1-1.3v-.5c0 .2.1.4.1.5l.1-.3.1.5s-.2-.2-.3-.2zm0-53.6c-.1-.4-.1-.8-.1-1.2.1.5.2 1 .3 1.2l.1-.2.1.4c-.1 0-.4-.1-.4-.2zm-.4-26.1s-.1 0 0 0c-.1 0-.1 0 0 0zM14 125.9c0-.1-.2-.4-.2-.5h.1c-.1-.2-.1-.4-.1-.6 0-.3.2-.6.1-1l.1-.1c.5.2 1.2.4 1.9.6 0 .1-.1.1-.2.1.1 0 .1 1.4.1 1.5h.2c0 .3-.2.1-.2.3.1 0 .1.1.1.2-.6 0-1.3 0-1.8.1-.1-.2.1-.2.1-.4-.1.1-.2-.1-.2-.2zm-1.3-72.4h-.2v-.9c-.1-.4.1-.3.1-.6-.2 0-.3-.3-.3-.4 0-.2-.2-.6-.2-.9h.1c-.1-.2-.1-.7-.1-.9 0-.3.2-.8.1-1.2h.5c.1 1.5.2 3.9.1 4.4-.1.3-.2.1-.2.1 0 .3.1.2.1.4zm-.1-36.4c.1-.2.1-.4.1-.6-.1.1-.1.1-.1 0 0-.6-.1 0-.1-.6v-.5c.7 0 2.5.1 3.5.1.2.2 0 .7.1.8 0 0 0 .2-.1.2.2.1 0 .2.1.3l.1-.1.1.3c0 .1-.1.1-.2 0 0 .3 0 1-.1 1.9-.7-.1-2.1-.3-3.1-.1-.1-.6-.2-1.3-.3-1.7zm3.5-10.6v.1c-.1 0-.1-.1 0-.1zm-.2 56.1c.3.2 0 1 .1 1.2v.1c-.3-.1-.9-.2-1.5-.3 0-.5-.1-.9-.1-1.2.1-.1.1-.3.1-.4-.1.1-.1 0-.1 0 0-.4-.1 0-.1-.4-.1-.3-.1-.9 0-1.5.6 0 1.2-.1 1.7-.1v1.9h.2c-.1.5-.3.1-.3.7zm.2 2.3v-.1.1zm0-42.3v-.5l.1-.1c.1.2 0 .3.1.4-.2.1-.2.2-.2.2zm0-16.2c-.1 0-.2-.1-.2-.1 0-.1-.2-.2-.2-.3.2-.1.4-.1.5-.2 0 .1.1.2 0 .3.1.2-.1 0-.1.3zm-4.7 71.5c-.8 0-1.5 0-2 .2 0-.2.1-.4.1-.5-.2-.2 0-.4-.2-.6-.1-.2.1-1.2 0-1.4s.1-.2.1-.3c-.2 0-.3-.1-.3-.2s-.2-.3-.2-.4H9c-.1-.1-.1-.4-.1-.4 0-.2.2-.4.1-.6.5.1 1.4.2 2.2.3 0 .6 0 1.2.1 1.7 0 .2-.1.2-.2.3.2-.1.2.9.3 1.9zM4.6 33.4c.2 0 .3 0 .3-.2 0 .4.1 1.2.1 1.7h-.2c-.1-.7-.2-.2-.2-1.5zm.5-.5l.1-.1.1.2s-.2 0-.2-.1c-.1 0-.1 0 0 0 0 0-.1 0 0 0zm-.3 40.5c0-.7.1-1.5.1-2.3-.2-.2-.3 1.3-.6.9l-.1-1.5c0-.1.1.1.1.3-.1-.7 0-1.3.1-1.8l2.8.2v.1c.1 0 .1-.1.1-.2h-.2c-.1-.1.1 0 .1-.1.1 0 .2.1.2.2 0-.1.1-.2 0-.2.1-.1.2 0 .2-.1s-.2-.1-.1-.2c.1-.2-.2-.3-.1-.4v-.1c.2 0 .4.1.7.1v2c-.1.2-.2 0-.2 0 .1.2.2.1.1.3 0 .1-.1 0-.1 0v.2c.1-.1.2-.1.3-.1v.3h-.1c0 .1.3.1.2.4v1.3c-.1 0-.1-.1-.1-.2v.2c.1-.1.1.2.1.1.2.2.1.5.1.7-1-.3-2.9-.4-3.6-.1zm1.6-30.1c-.1-.5 0-2.3.1-2.8-.2-.2-.1-.5-.2-.7s.1-1.6 0-1.8.1-.2.1-.4c-.1 0-.2-.1-.3-.1.7.1 1.6.1 2.4.2-.1.6-.1 1.7-.1 2 .1 0 0-.2.2-.2.1.1 0 .1.1.2-.3 0-.1.2-.3.3h.1c.2.4.1.1 0 .5 0 .2.2.3.2.5 0 0 .1-.1.1 0-.1 0 .1.2 0 .2 0 .1 0 .2.2.2-.1 0-.1.2-.2.1v.1l.1-.1c0 .2-.1.3.1.4l.1-.1c0 .1 0 .2-.2.2l-.1-.1c0 .2 0 .3.1.4v-.1c.1.1.2.6.4 1h-.5c-.6.2-1.5.1-2.4.1zm2.9.5v-.2c0 .1.1.2.1.2l.1-.1.1.2c.1 0-.2-.1-.3-.1zm.3 3v.7c-.1-.1-.1-.5 0-.9 0 .1.1.2 0 .2zm-.3-2.9v.8l-.2-.2h.1c-.1-.1-.1-.2-.1-.3.1-.2.2-.2.2-.3zM9.7 32c0-.7-.1-1.6-.2-2.1.1-.1.1-.3.1-.4-.1.1-.1 0-.1 0 0-.4-.1 0-.1-.4-.1-.2-.1-.6 0-1.1.6.1 1.3.2 2 .2v1.2h.2c0 .5-.2.1-.2.6.3.2 0 .7.1.9 0 0 0 .2-.1.2.2.1 0 .2.1.4l.1-.1.1.3c0 .1-.1.1-.1.1v-.1.1c-.7.1-1.4.1-1.9.2zm-6.2 1.6c0 .8.8 1.7.8-.3 0 .7.2 1.1.3 1.5H3.4c0-.3.1-.7.1-1.2zm3 53.8c-.2-.2-.1-.6-.2-.8v-.2c.7 0 1.6.1 2.4.1-.1.1 0 .2-.2.3h.2l-.1.1c.2.5.1.1 0 .5 0 .2.2.4.2.5 0 0 .1-.1.1 0-.1 0 .1.2 0 .2 0 .1 0 .3.2.2-.1 0-.1.2-.2.1v.2l.1-.1c0 .2-.1.3.1.4l.1-.1c0 .1 0 .2-.2.3l-.1-.1a.9.9 0 0 0 .1.5v-.1c.2.2.3 1.3.6 1.5l.1-.1.1.2s-.5-.1-.4-.1c0 .4.1 2.3.1 2.6-.1.1-.2 0-.2 0 .1.2.2.1.1.2h-.1v.1c.1-.1.2 0 .3-.1v.2h-.1s.3.1.2.3v.9c-.1 0-.1-.1-.1-.1v.1c.1-.1.1.1.1.1.3.2 0 .5.2.7.1 0 1 .1 2 .2 0 .2.1.4 0 .7 0-.1.1-.2.1 0-.1 0 .1.6 0 .7 0 .2 0 .9.2.6-.1.1-.1.7-.2.4v.2c0 .7-.1 1.1.1 1.5l.1-.3c0 .4 0 .7-.1.9l-.1-.4c0 .4 0 .8.1 1.1-1 0-2.1 0-2.5.3h-.1v.1c-.1.1.1.2 0 .2v-.2c0 .1-.1.1-.1 0v-.1c.1-.1.1-.1.1-.2-.1 0-.1.1-.1.1 0-.7.1-1.4.1-1.7-.2-.4-.1-.8-.2-1.2s.1-2.6 0-3.1v.1c-.1-.4.1-.3.1-.7-.2 0-.3-.3-.3-.4 0-.2-.2-.6-.3-1h.1c-.1-.3-.1-.8-.1-1 0-.4.2-1.1.1-1.7l.3-.4v-.1s-1.5-.2-2.8-.2v-.1c-.1-.4 0-2.4.1-2.8zm2.9 14.7c-.1 0-.1-.1-.1-.1.1 0 .1 0 .1.1zm-.1 22v-.2c.1.1.1.1 0 .2h0zm.7 11.2l.1-.1.1.2s-.1 0-.2-.1c0 .1 0 .1 0 0zm-.1 4.6c.1-.1.1 0 .1 0h-.1zm.1 0c.1-.1.1-.1 0 0h.1v.1h.6c-.1-.1-.3-.1-.7-.1h0zm-.4-16.2h-.1.1c-.1.2 0 .2-.1.2v-.1c0 .1-.1.1-.1 0v-.1c.1-.1.1-.1.1-.2-.1 0-.1.1-.1.1 0-.7.1-1.3.1-1.6-.2-.3-.1-.8-.2-1.1v-1.3c.4.1.7.1.8.1v.2c.1 0 .1-.2.1-.3H10c-.1-.2.1-.1.1-.3.1 0 .2.2.2.4 0-.2.1-.3 0-.4 0-.1.1-.1.1-.1s0 .1.1.1 1.6.1 2.9.2v1.2c-.1 0-.1-.2-.2-.4v.5c.1-.2.1.4.1.2.3.7.1 1.7.2 2.3-1.3.1-3.4.1-3.9.4zm-6-106.1c0-.8 0-1.1.3-.7v-.6h.4v.1c.2.2.3 1 .6 1.1l.1-.1.1.1s-.5-.1-.4-.1c0 .3.1 1.5.1 1.8h-1c0-.1.1-.2.2-.2-.1-1.3-.3-1.2-.4-1.4zm-2.2 7.1h0zM1 65.3c-.1 0-.1 0 0 0h0zm-.1.6h0zm.2.4h0zm-.2 8.1c.1-.1.1 0 0 0h0zm4.2 65.1c.1-.3.1-.4.1-.6h.2v.4c-.1.1-.2.1-.3.2zm4.1.9c-.4 0-.8.1-1.1.1h-.5c-.1 0-.2 0-.2-.1l.2-.1.4-.1c-.2 0-.4 0-.4.1-.1 0-.1 0-.1.1-.1 0-.1.1-.2.1h-.6c.1 0 .1-.1.1-.1-.3.2-.7.2-.9.1 0-.2.1-.4.1-.7.7.1 2.5.3 3.5.4-.1 0-.1.1-.3.2zm2.3-.3l.3-.1c.3 0 .6 0 .9.1-.2.1-.5.1-1.2 0zm62.9-12.3c-.1-.3-.3.5-.3 0v1.4c0 .1-.1-.2-.1-.3.3 3-.3 5.2 0 7.9.2.2 0-1.1.2-.9.2 1.3.1 1.9 0 2.5-.1.2-.2.1-.1.4-.1-.1-.2-.1-.2-.2.2.1.4.4.2.4-.3-.3-.2-.3-.4-.5 0 0 0 .1.1.1 0 0 0 .1.2.3-.1.1-.3-.2-.3-.2 0 .1.2.2.2.3-.1 0-.1-.1-.2-.1h-.8c-1 0-2 0-2.9-.1 0-.1-.1-.2 0-.2-1.5.4-1.3-.3-3.3-.2-5.3.1-12.3.4-17.5.2-1.2.4-2.8.4-4.5.4l-.2-.5-1.4.1c-.6-.2 1.1-.1.1-.3l-.5.3c-.1-.2-3.6-.2-1.2-.5L36 138c-1.2 0-.7.4-2 .3-.3-.2.5-.1.4-.3-4-.4-4.6.9-8.4.7l.3-.1c-.6.1-1.8.1-1.9.2.5.5.7-.3 1.8 0-.1.4-1.4.2-1.4.5-.9-.2-1.4.1-2.2.1-.2-.1-.5-.1-.8-.1-.1-1.1-.2-2.6-.2-3.1-.1-1.1-.1-3.2-.3-4.3.1-.2.1-.4.1-.6-.1.1-.1.1-.1 0 0-.5-.1 0-.1-.6-.1-.6 0-3 .1-3.6-.2-.3-.1-.7-.2-1s.1-2.1 0-2.5c-.1-.3.1-.3.1-.5-.2 0-.3-.2-.3-.3 0-.2-.2-.5-.2-.8h.1c-.1-.2-.1-.6-.1-.8 0-.4.2-.9.1-1.4l.3-.3s-1.7-.2-3-.2H18v-.1c.1-.5 0-.9.1-1.3l-.1-.4c0-.5 0-1.5-.1-2.7 1.2 0 3.7-.1 3.9-.1.1 0 .1 0 .1-.1h-.2c-.1 0 .1 0 .1 0 .1 0 .2 0 .2.1 0 0 .1-.1 0-.1h.2s-.2 0-.1-.1-.2-.1-.1-.1 0-.1 0-.1h-.1c.1 0 0-.1.1-.1h-.1c0-.1-.2-.7-.2-.8-.1-.2-.1-.6-.3-.9.1 0 .1-.1.1-.1h-.1c0-.1-.1 0-.1-.1-.1-.1 0-.6.1-.7-.2-.1-.1-.1-.2-.2s.1-.4 0-.5.1-.1.1-.1c-.2 0-.3 0-.3-.1l-.2-.1h.1c-.1 0-.1-.1-.1-.2s.2-.2.1-.3l.3-.1s-2 0-3.5.1c0-.9-.1-1.8-.1-2.4h4.1c.1 0 .1 0 .1-.1h-.2c-.1 0 .1 0 .1-.1.1 0 .2 0 .2.1 0 0 .1-.1 0-.1h.2s-.2-.1-.1-.1c.1-.1-.2-.1-.1-.2.1 0 0-.1 0-.1h-.1c.1-.1 0-.1.1-.1h-.1c0-.2-.2-.8-.2-1-.1-.3-.1-.8-.3-1 .1 0 .1-.1.1-.1h-.1c0-.1-.1 0-.1-.1-.1-.1 0-.7.1-.9-.2-.1-.1-.2-.2-.2-.1-.1.1-.5 0-.6s.1-.1.1-.1c-.2 0-.3 0-.3-.1 0 0-.2-.1-.2-.2h.1c-.1 0-.1-.1-.1-.2s.2-.2.1-.3l.3-.1s-2.3 0-3.7.1c0-1-.1-2-.1-2.9.6.2 4.1 1.2 4.4 1.2v.4c.1 0 .1-.4.1-.6h-.2c-.1-.4.1-.1.1-.5.1 0 .2.4.2.7 0-.3.1-.6 0-.7.1-.3.2 0 .2-.3 0-.2-.2-.6-.1-.8.1-.7-.2-1-.1-1.6v.1c.1-.2 0-.6 0-1 0 .1-.1.2-.1 0 .1-.5 0-.8.1-1.1l-.1-.3c0-1.6-.2-7.8-.2-9.4v.1c-.1-2.4-.1-7.4-.3-9.8.1-.4.1-.9.1-1.3-.1.2-.1.1-.1 0 0-1.2-.1-.1-.1-1.3-.1-1.4 0-6.9.1-8.1-.2-.7-.1-1.5-.2-2.2v.1c-.1-.7.1-4.8 0-5.6v.1c-.1-.7.1-.6.1-1.2-.2.1-.3-.5-.3-.8 0-.4-.2-1.2-.2-1.8h.1c-.1-.5-.1-1.4-.1-1.8 0-.8.2-2.1.1-3.1l.3-.7v-.1s-2.2-.6-3.6-.3v-.3c-.1-1.3-.1-3.4-.3-5.3.3 0 4.2.8 4.5.8v.3c.1 0 .1-.3.1-.4h-.2c-.1-.3.1-.1.1-.4.1 0 .2.3.2.5 0-.2.1-.4 0-.5.1-.2.2 0 .2-.2s-.2-.4-.1-.6c.1-.5-.2-.7-.1-1.2.1-.2 0-.5 0-.8 0 .1-.1.2-.1 0 .1-.3 0-.5.1-.8l-.1-.2c0-1.1-.2-5.6-.2-6.8-.1-1.7-.1-5.3-.3-7.1.1-.3.1-.7.1-1-.1.2-.1.1-.1 0 0-.9-.1-.1-.1-1-.1-1 0-5 .1-5.9-.2-.5-.1-1.1-.2-1.6s.1-3.4 0-4v.1c-.1-.5.1-.5.1-.9-.2.1-.3-.4-.3-.6 0-.3-.2-.8-.2-1.3h.1c-.1-.4-.1-1-.1-1.3 0-.6.2-1.5.1-2.3l.3-.5v-.1h.4c.3 0 0 .2.4.2 2 .2 3.9.4 6 .4l-.1.1h1.7c.2.1.2.1.2.2-.1-.1 3.1 0 3.1 0v-.2c.6 0 .2.2.7.2.2-.3.9.1 1.1-.1 0 0 .3 0 .2.1.1-.2.3 0 .5-.1.1 0 0 0-.1-.1h.4c.2.1.2.1 0 .2 1 .1 5.9.4 7.1.4-.1-.1-.5-.1-.6-.2.3-.1.4.1.6 0 .1.3.6.1.9.4l.1-.2.1.1c1.3-.1.3-.1 1.4 0 .7 0 1-.2 1.3-.1-.1 0-.2-.1 0-.1 0 .1.5-.1.5.1.2 0 .6 0 .6-.1h.1c.2.1.4.1.2.2h.4l-.2-.1c.6 0 .8.1 1.2 0h-.1.4c.1 0 .2.1.2.1h-.3.8c-.2 0-.8 0-1.1.1 3.6-.2 5 .8 8 .9l.1-.2c4.2.8 9.3.7 14.1 1.1l-.6-.2c.3-.1.8-.1 1.2-.2h.6c.1 0 .1 0 .2-.1 0 .1-.2.5.1.4 0-.1-.2-.2-.1-.3.2.1.5.2.7.3-.1.3-.1.6-.1.9 0 1.3 0 2.6-.1 4l-.1 8.5c.2 9.1-.1 19.1.1 28 0-1.4.5-.8.4.2-.9 2.8.2 4.9-.4 7.8.3 5.2-.4 9.9.3 14.8l-.3.1c-.1.7.1.9.1 1.7h-.1c-.1 1.8.2 4 .1 5l.3.1c0 1.1-.2.6 0 1.7h-.1l.3 1.3c-.5-.1 0 3-.2 3.9.1 1.4.3 4 .3 6.1-.3.4-.2 3-.4 4.6.1 3.2.2 7.8.1 11.8l.3-.1v1.1c-.1 0-.1.1-.1 0-.4.8.1 2.5-.1 3.3.3-.5 0-.7 0-1.4.1-.9.5 0 .3 1.1H74l.2.8c-.3.1-.4.8-.6.9.1 3.5.5 5.9.4 9.5-.3-.4.1 2.6-.4 1.9.2 2.2.4-.4.8.6.1 1.4.2 2 0 2.2z"/><path opacity=".5" d="M31.7 17.803c.1-.3.2-.6.2-1.1-.2.3-.2.7-.2 1.1z"/><path opacity=".5" d="M37.3 95.202c0-.4-.2-.8-.1-1.3.1-1-.2-1.6-.1-2.5v.1c.1-.3 0-1 .1-1.6 0 .2-.1.3-.1 0 .1-.7 0-1.1.1-1.6l-.1-.5-.4-28.8c.1-.6.1-1.4.1-2-.1.3-.1.2-.1 0 0-1.8-.1-.1-.1-2-.1-2.1 0-10.4.1-12.3-.2-1 0-2.3-.2-3.3v.1c-.1-1.1.1-7.2 0-8.4v.2c-.1-1.1.1-.9.1-1.8-.2.1-.3-.8-.3-1.2 0-.5-.2-1.8-.2-2.6h.1c-.1-.7-.1-2.1-.1-2.7 0-1.2.2-3.1.1-4.7l.3-1.1v-.2s-3.8-1.7-4.6.5h-.1v.4c-.1.5.1.7 0 .7v-.7c0 .5-.1.2-.2 0 0 .2 0 .4-.1.6 0 .1 0-.1.1-.2 0 .3.1.7.1 1 0 .5-.2 0-.2.6l-.2 9.6c0 .1 0 0-.1-.1 0 1 0 1.9.1 2.8 0 .2-.1.3-.2.4.1-.1.1 5 .1 5l.2.1c0 1-.2.3-.2 1.2.3.4 0 1.5.1 1.8 0 0 0 .4-.1.4.2.1 0 .5.1.7 0 .1 0-.1.1-.1l.1.6c0 .2-.1.3-.2 0-.1 1.7-.2 9.6-.1 11.4.1-.2 0-.8.2-1 .1.5 0 .7.1.9-.3.2-.1 1-.3 1.4l.2.1-.1.2c.2 2.1.1.5 0 2.3 0 1.1.2 1.6.2 2.2 0-.1.1-.3.1 0-.1 0 .1.7 0 .9 0 .3 0 1.1.2.8-.1.1-.1.9-.2.5v.7l.1-.3c0 .9-.1 1.4.1 2l.1-.3c0 .5 0 1-.2 1.2l-.1-.5c0 .9 0 1.4.1 2.2v-.3c.2.9.3 5.8.6 6.7l.1-.4.1.7c0-.1-.5-.4-.4-.4v11.3c-.1.6-.2.1-.2.1.1.7.2.3.1.9 0 .2-.1 0-.1-.1v.5c.1-.3.2-.2.3-.3v.8h-.1c0 .2.3.4.2 1.2v4c-.1 0-.1-.3-.1-.6v.6c.1-.3.1.6.1.3.3 1 0 2.2.2 3.1.2.1 4.2 1.8 4.5 1.8v.6c.1-.1.1-.6.1-.9h-.2c-.1-.6.1-.1.1-.8.1 0 .2.5.2 1 0-.5.1-.9 0-1.1-.1-.4 0 0 .1-.5z"/><path opacity=".25" d="M47.4 107.5c-.1.1-.1.3-.2.5.1-.2.2-.3.2-.5z"/><path opacity=".25" d="M46.6 117.3h.2c0 .5-.2.1-.2.5.3.2 0 .7.1.8 0 0 0 .2-.1.2.2.1 0 .2.1.3l.1-.1v.3c-.1.1-.1.1-.2 0-.1.8-.3 4.5-.3 5.3.1-.1 0-.4.2-.5.1.2 0 .3.1.4-.3.1-.1.5-.4.6l.2.1-.1.1c.1 1 .1.2 0 1.1 0 .5.2.7.1 1 0 0 .1-.1.1 0-.1 0 .1.3-.1.4 0 .1 0 .5.2.4-.1.1-.1.4-.2.2v.3l.1-.2c0 .4-.1.6 0 .9l.1-.2c0 .2 0 .5-.2.6v-.3c0 .4 0 .7.1 1v-.1c.2.4.3 2.7.5 3.2l.1-.2.1.4s-.5-.2-.4-.2l-.1 5.3c-.1.3-.2 0-.2 0 0 .3.1.2.1.4 0 .1-.1 0-.1-.1v.3c.1-.2.2-.1.3-.1v.4h-.1c0 .1.3.2.2.6-.1.6 0 1.3-.1 1.9-.1 0-.1-.1-.1-.3v.3c.1-.1.1.3.1.1.3.5 0 1 .2 1.4.2 0 4.2 1 4.5 1v.3c.1 0 .1-.3.1-.4h-.2c0-.3.1-.1.1-.4.1 0 .1.3.2.5 0-.2.1-.4 0-.5.1-.2.2 0 .2-.2s-.2-.4-.1-.6c.1-.5-.2-.7 0-1.2.1-.2 0-.5.1-.7 0 .1-.1.1-.1 0 .1-.3 0-.5.1-.8l-.1-.2c.1-1.1 0-5.5 0-6.6v-7c.1-.3.1-.6.2-.9-.1.2-.1.1-.1 0 0-.9-.1-.1-.1-.9-.1-1 .1-4.9.3-5.8-.2-.5 0-1.1-.1-1.6s.2-3.4.1-4v.1c-.1-.5.1-.4.2-.8-.2 0-.3-.4-.3-.6 0-.3-.2-.8-.2-1.2h.1c-.1-.4 0-1 0-1.3.1-.6.3-1.4.2-2.2l.3-.5v-.1s-3.8-.9-4.6.1h-.1v.2c-.1.2.1.4 0 .3v-.3c0 .2-.1.1-.2 0 0 .1 0 .2-.1.3l.1-.1c0 .1.1.3.1.5s-.2 0-.2.3l-.3 4.5-.1-.1v1.3l-.2.2c-.1.4-.2 2.8-.2 2.9z"/></g><defs ><path id="B" d="M31.8 18.1c.2 0 0-.2.1-.3 0 0-.2.1-.1.3z"/><path id="C" d="M40.9 22.3v.6h6.4v-2.2l-.4-.1c-.5 0-1 0-1.4-.1-1.2-.1-2.3.3-3.3 0H41v.4h.5s-.1 0-.1-.1c.1 0 .2.1.3.1l-.1-.1c.5 0 1 .1 1.5.1h-2.2v1.4z"/><path id="D" d="M31.6 22.603l.3-.4h-.1c.1.1-.4.3-.2.4z"/><path id="E" d="M37.4 22.902h2.3v-2h-7.4v1.8c-.2.1 0 .3 0 .4 0 .2.4.2.5.2-.3-.1 0-.2-.1-.2 0-.1.1-.2.1-.2h1.4c.1.1.3.2.4.1 0-.1.1-.1.2-.1h.2c.3.1.6.2.9.1v.1c.3 0 .9-.1 1.5-.2z"/><path id="F" d="M31.8 20.4c0 .2-.1.4-.1.6v.7c.1-.1.1.1.2 0-.1-.4-.1-.8-.1-1.3h2.1c.5 0 1 .1 1.6.2 0-.1 0-.1.1-.1l4.3.2v-.2c-1.3 0-2.5-.1-3.8 0-.1-.1-.2-.1-.4-.2-.2.2-.7 0-.8.2-.6-.2-1.1-.1-1.8-.1-.1 0 .2 0 0 .1-.5.1-.1-.1-.6-.1l.1.1c-.4-.1-.6-.1-.8-.1z"/><path id="G" d="M31.9 33.8s-.2.1-.1.3c.2 0 0-.2.1-.3z"/><path id="H" d="M39.7 38.802v-1.9h-7.4v1.8c-.2.1 0 .3 0 .4 0 .2.4.2.5.2-.3-.1 0-.2-.1-.2 0-.1.1-.2.1-.2h1.4c.1.1.3.2.4.1 0-.1.1-.1.2-.1h.2c.3.1.6.2.9.1v.1c.6 0 1.2-.1 1.7-.2h2.3v-.1h-.2z"/><path id="I" d="M39.7 40.5c-1.3 0-2.5-.1-3.8 0-.1-.1-.2-.1-.4-.2-.2.2-.7 0-.8.2-.6-.2-1.1-.1-1.8-.1-.1 0 .2 0 0 .1-.5.1-.1-.1-.6-.1l.1.1h-.6c0 .2-.1.4-.1.6v.7c.1-.1.1.1.2 0v-1.2h2c.5 0 1 .1 1.6.2 0-.1 0-.1.1-.1l4.3.2v-.4h-.2z"/><path id="J" d="M63.7 50.9v-2.4c-2.3-.2-4.5-.1-6.8-.1v2.5c.3 0 .7 0 1-.1h1.9l3.9.2v-.1zm-3.9-2h-.1.1zm-.3 0h-1.4c.5-.1.9-.2 1.4 0zm-2.5 0h0z"/><path id="K" d="M32.3 114.702c-.2.1 0 .3 0 .4 0 .2.4.2.5.2-.3-.1 0-.2-.1-.2 0-.1.1-.2.1-.2h1.4c.1.1.3.2.4.1 0-.1.1-.1.2-.1h.2c.3.1.6.2.9.1v.1c.6 0 1.2-.1 1.7-.2h2.3v-2h-7.4v1.8h-.2z"/><path id="L" d="M35.9 112.403c-.1-.1-.2-.1-.4-.2-.2.2-.7 0-.8.2-.6-.2-1.1-.1-1.8-.1-.1 0 .2 0 0 .1-.5.1-.1-.1-.6-.1l.1.1h-.6c0 .2-.1.4-.1.6v.7c.1-.1.1.1.2 0v-1.2h2c.5 0 1 .1 1.6.2 0-.1 0-.1.1-.1l4.3.2v-.2c-1.5-.2-2.7-.2-4-.2z"/></defs></svg>