<svg xmlns="http://www.w3.org/2000/svg" xmlns:xlink="http://www.w3.org/1999/xlink" width="152" height="193" fill="none" xmlns:v="https://vecta.io/nano"><path d="M4.248 16.5v172.4h143.3V10.3l-109.3-8.8-34 15z" fill="#efefef"/><g fill="#202020"><path d="M87.45 7c-.1 0-.1.1-.1.1.1 0 .1-.1.1-.1zM57.248 4.2h0c-.4-.1-1-.1-2-.2l2 .2zm87.002 104.098v-.7c0 .4-.1.6 0 .7zm.6-63.798c.1.2.1.5.1.9 0-.5 0-.8-.1-.9zM41.55.098l.8.3c.1-.1-.2-.2-.8-.3zm89 185.3l.2-.1-.2.1zM57.85.897c.9-.1 2.7.3 2.7.1-1 0-2.3-.3-2.7-.1zm92.098 79.6c0-.7 0-1.3-.2-2.1-.1.7 0 1.6.2 2.1zm.2-29.398c0-.1.1-.3.1-.6-.1.2-.1.4-.1.6z"/><path d="M151.748 189l-.1-5.3-.1-3.3-.2-6.9-.1-13.3c-.4-1.7-.4-4.3-.5-6.8l.5-.3-.2-2.1c.2-.9.1 1.6.3.1l-.3-.8c.2-.2.1-5.5.5-1.9v-8.3c0-1.8-.4-1.1-.3-3.1.1-.4.1.7.3.6.4-6.1-1-7-.8-12.7l.1.5c-.1-1-.1-2.8-.2-2.8-.5.7.3 1 0 2.7-.4-.2-.2-2.2-.6-2 .2-1.3-.1-2.1-.1-3.3.3-2 .1-4.8.4-6.3-.1-1-.6-2-.6-4.1.3-1.5.3.4.5-1.7l-.3-.3c0-1.7.1-1.4.2-1.3 0-1.8-.3-1.5-.2-3.7l.2 1.2c-.1-1.6-.1-2.3 0-4.6.1.1.1 1 .1 1.6.4-1.2-.2-2.1-.1-2.8-.1.2-.2 1.8-.4 1 0-1.1-.3-2.4 0-3.2l.2 1.2c-.2-2.4-.3-1.3-.2-4 0 .1.1.1.1.1-.3-1.7 0-4 0-6.5l.1.5c-.1-1-.3-1.6-.3-2.1-.1 1.5-.2 1.1-.5 1.2.4-1.9-.5-2.9-.2-6.1.1.1.3.8.2 1.7.4 1.1.8 1.2 1 3.1-.1-1.2-.2-2.6 0-2.3l-.4-.4v-1.8c-.3-.3-.4 1.5-.6-.2-.1-1.9.4-1 .2-1.3-.2-2.6-.4-1.1-.3-3.6 0 .2.1.7.1.9.2-1.8-.1-4.4.4-4.9.1.3.2.3.2 1h-.1c.3 1.8 0-1.1.3-1.1-.2-.4-.1-2.4-.1-3.4l-.3.4c-.9-3.8.6.2.5-3.5-.2-2.4-.1.9-.3-.6.1-1.6.3-2.2.2-4.5.1-.6.3-2 .6-2.1-.1-1.4.1-4.3-.2-5.1-.3 2.4.3 2.4-.1 5.3l-.3-.8c0-2-.1-4.5 0-5.8-.1.3-.1.4-.2.2-.1-2.8-.4-3.6-.3-6.3.3-.4.2 1.2.3 2.4.2-1.8 0-1.8.1-4.6.3-.1 0 1.8.2 2.1l-.1-3h.1c-.4-.4 0-2.3-.1-4.1 0-4.4-.6-5-.9-7.5.1-.7.2-.8.3-.6-.2 1.1 0 .9.1 1.3 0-1.5.4-3.2.6-2.4-.1-2.3-.2.8-.4-.6v-3.2c-.2.4-.3 1.5-.4-.2-.1-1.4 0-2.1 0-3.9.1.3.3-.6.3.8.1-.9.1-2.3-.1-2.8-.2 2-.2-3.3-.5-1.8l.2-2c0 .5.1.5.1 1.2.2-.3.1-.7.1-1.1 0-.2-.1-.4-.1-.6s-.1-.4-.1-.7c.1-1 .1-3.6.2-3.9V8.4c-.9-.1-1.9-.2-2.1-.4-1.4 0-.2.2-.7.3l-4-.4c-.2-.2-.4-.7.1-.8-1.2.1-.5.5-2.3.3 1.1-.3-2.4-.5-.8-.8-1-.3-4-.6-5.7-.6-1 .2 1.8.3 1.6.6-4.6-.3-5 .5-8.3.1l.9.2c-2.1 0-1.9 0-3.1.1.6-.3-2.3-1.2-5.8-1.4-.3.2 1.9.5 1.3.7l-2.3-.1c-.2 0 .1-.1.4-.1-2.1 0-3.8-.8-4.4-.4l-2.1-.7.8.3c-.3.2-2.6 0-3.1.1-2.4 0-3.2-.2-4.5-.5.4.2 1.4.6-.5.5.1-.6-3.9-.5-3.8-.8-.8-.1-2.1-.3-2.2-.1l.2-.4c-.2.5-3 .2-5.1.2.5-.6-2.3-.1-3.2-.8-.4.4-3.7-.1-4.1.3-1.6-.1-1.4-.5-1.8-.7l-.8.1c-.8-.3-3.8-.6-5.6-.9l-1.7.3-.6-.2c-.3.1-1.7 0-.8.3l-.9-.1c-.1.4-1.3 0-3.1.1-.4-.1-.3-.2.1-.2-.9-.1-.5-.3-1-.5.6.2-3.3.5-.9.9.2.2-1.3.2-2.2.1l-.5-.4-1.1.3c-1.4-.1-2-.4-3.1-.5 1.2.1 2.6-.6-.4-.8 1.6.1 2.4-.1 3.2-.1-.6-.1-.9-.1.1-.2-2.3-.1-.8.2-3.1.1.2-.3-.5-.5-2.5-.8l1.5.4c-.1 0-.2.1-.3.1.6.1.7.2.8.3-.5 0-2.7.2-3.1 0 2.3.7-4.1.1-2.6.6-.3.1-1.9 0-2-.2 2-.1-1.4-.5-1.1-.8-.7 0 1.5.4.5.4-1.2-.1-2-.4-2.6-.5h.5l-1.8-.3c-.3.2 1.7.4.1.4-.4-.1-2.1-.1-2-.3.8-.2.3-.6 1.7-.5-1.2-.1-4.8-.3-3.4.1l-1.4-.1c.9.2 3.3.7.5.5V.6l-1.9.1-.8-.3c0 .1-.3.2-1 .1-.2-.1-.8-.2-.8-.4-.5 0-.9-.1-1.2-.1h-.8c-.3 0-.4.1-.5.1h-.1c-.7.3-1.1.5-1.3.5s-.2 0 0-.3c-1.5.6-4 1.8-5.1 2-1.9 1 .4-.1-.6.6-.4 0-1 .2-1.6.4-1.9 0-3.7 0-4.5.2h-.2v.1c-.1.1.1.2-.1.1v-.1c-.1.1-.2 0-.3 0 0 0 0 .1-.1.1h.1c.1.1.3.1.2.2 0 .1-.4 0-.4.1-.2.6-.4 1.2-.4 1.8h-.1c-2.3-.2-5.2-.3-6.1.8h-.2V7c-.1.4.1.7-.1.6V7c-.1.4-.2.1-.3 0 0 .2-.1.4-.1.5.1.1.1-.1.1-.1.1.2.2.5.2.8-1.9-.1-3.9 0-4.7.3h-.2v.2c-.1.2.1.3-.1.3v-.3c-.1.2-.2.1-.3 0 0 .1-.1.2-.1.2.1 0 .1 0 .1-.1.1.1.3.3.2.4 0 .2-.4 0-.4.2-.1.3-.1.7-.2 1-1.1-.1-2.4-.1-2.9.5h-.1v.2c-.1.3.1.4 0 .4v-.4c0 .3-.1.1-.2 0 0 .1 0 .2-.1.3 0 .1 0 0 .1-.1 0 .2.1.4.1.5 0 .3-.2 0-.2.4v.3c-.4.1-.3-.2-.4-.2-.2 0-.6.2-1 .4-1-.1-1.9 0-2.3.5h-.1v.2c-.1.3.1.4 0 .4v-.3c0 .3-.1.1-.2 0 0 .1 0 .2-.1.3 0 .1 0 0 .1-.1 0 .1.1.3.1.5 0 .3-.2 0-.2.3v.2c-.3.2-.5.3-.7.4.2-.1.4-.1.6-.2-.1 1.4-.3 2.9-.3 4.3l-.1-.1v1.4c-.1.1-.1.2-.2.2.1-.1 0 2.4 0 2.5h.2c0 .5-.2.1-.2.6.3.2 0 .7.1.9 0 0 0 .2-.1.2.2.1 0 .2.1.4 0 .1 0 0 .1-.1v.3c-.1.1-.1.1-.2 0-.1.8-.3 4.7-.3 5.6.1-.1 0-.4.2-.5.1.2 0 .3.1.4-.3.1-.1.5-.4.7l.2.1-.1.1c.1 1 .1.2 0 1.1 0 .5.2.8.1 1.1 0 0 .1-.2.1 0-.1 0 .1.4 0 .4 0 .1 0 .3.1.4v.2c0 .1-.1.1-.1 0v.3l.1-.2c0 .4-.1.7 0 1v-.1.3c0 .1-.1.1-.1.2v-.3c0 .4 0 .7.1 1.1v-.1c0 .1.1.3.1.5v1.5c-.1.4-.2-1.2-.1-.5-.2.9.1 1.4.1 1.9-.2.4 0 3.4-.4 3.3-.2 2.3.1 1.9.3 2.7v1.6c-.2.4-.1-2.3-.3-1l.1 3c-.1-.3-.4-.6-.3-1.7-.3 8.2-1.5 12.6-1.2 20-.3 1.1-.2-.8-.3-1.5.3 5.4-.6 7.6-.5 12.2l.2.1c-.7 6.4-.3 14.1-.6 21.4l.2-.9c.2 1 .2 2.6.3 3.8-.1.2-.5-.9-.4 1.2.1-.4.2-1.3.3-1.1-.6 6.2-.4 19.4-.7 29.6.2 13.8-.3 28.9-.1 42.5 0-2.1.5-1.2.4.4-.5 2.1-.4 4-.3 5.9 0 .5 0 .9.1 1.4v1.9c0 1.8-.1 3.7-.2 5.9v.9h9.5c1.8 0 3.7.1 5.5.1 3.5.1 6.9.1 10.3-.2v.1s.1-.1.1-.2h.3l.1.3c1.1.1 1.4-.1 2.6-.1v.1c2 .1 4.2 0 5.9-.1 0 .1 0 .2-.1.2.1 0 .1-.1.1-.2h1.6l.1-.3c1.6 0 .8.2 2.5.1v.1l1.9-.3c-.2.5 4.6 0 5.9.3 2.1-.1 6.1-.3 9.3-.2.6.3 4.5.3 7 .4 4.8-.1 11.8-.1 17.9-.1l-.1-.3h1.6c0 .1.2.1 0 .1 1.2.4 3.7-.1 5 .1-.8-.3-1.1 0-2-.1-1.3-.2-.1-.5 1.7-.3v.1l1.2-.2c.1.3 1.2.4 1.4.6 5.3-.1 8.9-.5 14.4-.4-.6.3 3.9-.1 2.8.4 3.3-.2-.5-.4 1-.8.9 0 1.9-.1 2 .1-.4.1.7.3 0 .3h2.2c.2 0-.3.1-.5.1 4.5-.3 7.9.3 11.9 0 .3-.2-1.6-.1-1.3-.2 4-.4 3.6.3 7.3.1l-.8.2c1.2-.2 1.7-.4 3.7-.2.3.3-1.7.2-2.7.4 1.4 0 4.8-.1 3.8-.3 1.6-.1 2.2.2 3.1.2 0-.1-1.5-.2-.6-.3 1.1.1 2.5.1 4 .1h5.6c0 .1.4.2-.1.2 2.9-.3 3.6 0 5.9.1.7-.2.7-1.4.7-3.3zM8.448 79.7c0-.1 0-.1 0 0h0zm-.2 52.8c.5.1 1.1.3 1.8.4 0 .5.1 1 .1 1.5v-.5c.1.6.2 2.3.3 4.3-.7-.1-1.6-.2-2.3-.1.1-.6.1-2.6.1-5.6zm2.1-42.4c0 .6-.1 1.6-.1 2.9-.6-.1-1.3-.1-1.8.1v-5.4c.3.1 1.1.2 2 .3.1.3-.1.7 0 1.1.1.2.1-.1.2-.3l.1 1.1c-.1.6-.3.7-.4.2zm-2.1-31.6c0-2-.1-4-.1-5.9.3.1.5.1.7.1 0 .3 0 .6.1.8.1 0 1.2.3 2.3.6-.1 1.3-.1 2.7-.2 4-1.2 0-2.4 0-2.8.4zm.5-6.1v.2h-.1c0-.2.1-.2.1-.2zm15.6 23c.1.1.1.1.2 0h.1l.1.3c-.1.1-.3.2-.3 0-.1.6-.2 2.3-.3 3.9-1-.1-2.1-.2-3.2-.2 0-1.6.1-3.2.1-4.8 1 .3 2.2.6 3.3.8zm-.2 58.5v3l.4.1c0 .9-.5.3-.4 1.1.5.3 0 1.3.2 1.6-.9-.1-2.4-.3-3.8-.3v-6c1.2.2 2.5.4 3.6.5zm1.5 36.2l.2-.3.2.7s-.2-.1-.5-.2c.1 0 .1-.1.1-.2zm1.6-114.8c.7.1 1.9.2 3.2.3v.4c.2-.1.1-.2.4-.3.2.1-.1.2.1.2-.5 0-.1.3-.7.4h.3l-.2.1c.3.6.2.1.1.6 0 .3.5.4.3.6 0 0 .2-.1.3 0-.3 0 .2.2-.1.2 0 .1 0 .3.4.2-.2 0-.3.2-.4.1 0 .1-.1.1 0 .2l.1-.1c.1.2-.2.4.1.5l.1-.1c0 .1 0 .3-.3.3l-.1-.1c0 .2 0 .4.2.6v-.1c.3.2.5.9.8 1.4-1.5-.1-3.3-.2-4.6 0-.1-2.1-.1-4.1-.1-5v.1c.1-.1.1-.3.1-.5zm2.6 51.6v.1h.4c0 .6-.5.2-.4.7.6.2-.1.9.2 1.1 0 0-.1.3-.2.3.3.1.1.3.1.5.1.1.1 0 .2-.1l.1.4c-.1.2-.3.2-.3 0-.1 1-.5 6.1-.3 7.2-1.1 0-2.1.1-2.9.3-.1-2.7-.1-6.8-.3-9 .2-.4.2-.9.3-1.4-.1.2-.3.1-.3 0 0-.8 0-.6-.1-.7.2.2 1.8.4 3.5.6zm.3 10.3h-.5c.2-.1.1-.5.4-.6.2.3-.1.4.1.6zm-4-23.3v-.2l.1.2c0 .1 0 0-.1 0zm6.3-72.7c-1.8-.1-4.1-.2-5.5 0v-1.8c1.2.1 3.1.2 4.8.2.3.3.6 1.1 1 1.2l.3-.1.2.2-.8-.1c-.1.2 0 .3 0 .4zm-21 125.3v-.8l.2 1-.2-.2zm2-115.8s-.1 0-.2-.1v-.2l.2.3zm0 13.1v-4.6c.4 0 1.5.1 2.7.3l-.1.1.3.1-.2.2c.3 1.8.2.4.1 2 0 .7.2 1.1.3 1.4-1.1-.1-2.2 0-3.1.5zm-2 101.6v.1-.1zm-3.2-132.3c-.3 0-.6-.1-.9-.1.7-.2 1.1-.1.9.1zm.3 172.2c-.2.1-.2.2-.4.3l.1-.3h-.4v-.9c0-.2 0-.5.1-.7.1-.4.1-.8.2-1-.1-1.6-.2-3.4-.2-5.3.9.2 2.1.5 2.9.6v1.2c-.1 0-.2-.5-.3-1 0 .3 0 .8-.1 1.1.2-.6.1 1 .2.6.5 1.8 0 4 .3 5.5 0 0 .1 0 .2.1l-.1.1c-.8-.1-2.8-.1-2.5-.3zM145.348 14c0 .6 0 1.2-.1 1.9 0 .7-.1 1.3-.1 2-.2 2.7-.3 5.5-.2 8.2l-.3-.1.3 2.4c-.2 1.3-.2-.8-.4-.4.2 2.6.4 1.1.5 4.1-.2 1.5-.2-.5-.3-1.3.1 2.8.3 7 .1 9 0 0 .1.2.1.1.1 1.9 0 4.4 0 6.4-.1-.1-.2-.6-.2-1.1 0 .7-.1 1.8 0 2.4l-.2-.8c-.1 1.6.2 4.7-.1 5 .1-.2.3-.1.3 1.3-.4.8.2 3.7-.1 5.9-.1-.3-.1-1.9-.1-1.4-.1 1.1.1 2.1.2 3.1l-.2-.3.2 5.1c-.4.8.1 4.9-.3 4.5 0 1.8.2-1.5.2.8-.2.6.1 2.1-.2 2v-.2 1.6l-.3-1c.1 1.4.3 2.4.6 2.5-.2 1.3 0 3.2-.3 3.8l-.1-.5c.1 3.7-.8 6.2-.3 9.1 0 .2-.1.2-.1-.3v2.3l-.2-.5.3 3.8h-.1c-.1 2.5 0 6.4.1 9.7l-.1-.5c.2 3.5-.1 3.4 0 6 0-.1-.1-.2-.1-.3v2.3l-.1-.5c.3 1.7-.4 4.9-.1 3.9.1 1 .3 2.6.5 2.9 0 2.5-.2.6-.3 2.2 0 1.8.2 2.2.1 4.6l-.1-.1c0 1.2.1 1.9.2 3.5l-.1-.5c.3 2.6-.4 3.3.2 5.4-.1 1.1 0 3.2-.3 3.1.2 3.3.3 5.8.4 9.1-.5.5 0 .7-.2 2.7l.3-.1c0 4.6-.6 9.9-.5 15l-.3.1.3 1-.2 16.9c.1.7.2 1.6.3 2.6 0 .5.1 1 .1 1.6v.8c0 .2.1.4.1.7h-1.1c-1.5 0-3 0-4.6-.1.3-.1-.2-.2.3-.3-1 .3-2.5 0-3.5 0l1.1.2c-1.2.2-3 0-3.6-.2l-1.9.3c-.1 0-.3-.1-.4-.1l-.3.1-1-.3c-.5.1-3 .2-3.8.5-.2-.1-2-.2-.6-.3l-7.1-.1 1.1.1c.1.3-2 .4-3.1.3 1.4-.2.1-.4-.5-.5-1 .1.8.2.3.4-1.2.2-3.8.3-4.4.1l.7-.1c-1.6.1-2.4-.3-4-.3-1.5.2-2.5 0-2.2.5-2.1.1-.8-.3-1.5-.3-1 .2-3.9.1-4.3-.1-1.2.6-5.7-.2-6.1.3l-1.7-.3c-.1.1-.4.5-1.8.5-1.3-.2-1-.4-1.4-.6l-.9.5c-7.6-.6-17.6-.2-26-.7-3.7.1-8.4.4-12.7.3l.5-.1-4.3-.1 3.1.2c-.9.1-1.7.2-2.6.2-1.7-.1-3.6-.2-5.6-.2 0-.2 0-.4.1-.6l-.2-.2c.1-1.2-.2-5.9-.3-7.1-.1-1.8 0-5.6-.4-7.4.2-.3.2-.7.3-1-.1.2-.3.1-.3 0 0-.9-.2-.1-.3-1-.2-1.1.1-5.2.3-6.2-.4-.5-.1-1.2-.3-1.7l.1.1c-.1-.5.2-3.6.1-4.2l-.1.1c-.2-.6.2-.5.3-.9-.4.1-.6-.4-.7-.6h.1c-.1-.3-.4-.9-.5-1.3h.2c-.2-.4-.1-1.1-.1-1.3.1-.6.5-1.5.2-2.4l.6-.5-.1-.1s-2.7-.3-5.3-.4c0-1.6.1-3.4.2-4.7 2.5.4 5.7.8 6 .8 0 .2 0 .3-.1.4.1 0 .2-.4.1-.5h-.3c-.1-.4.2-.1.2-.5.3 0 .3.3.3.7 0-.3.2-.6-.1-.7.1-.3.3 0 .4-.3-.1-.2-.3-.5-.2-.8.3-.6-.4-1-.1-1.6l.1.1c.1-.2 0-.6.1-1-.1.1-.2.2-.3 0 .2-.4 0-.7.2-1l-.2-.3c.1-1.5-.2-7.4-.2-9v.1c-.1-2.3 0-7-.3-9.4.2-.4.2-.9.3-1.3-.1.2-.3.1-.3 0 0-1.2-.2-.1-.3-1.3-.2-1.4.1-6.6.3-7.8-.4-.7-.1-1.5-.3-2.1l.1.1c-.1-.7.3-4.5.1-5.3l-.1.1c-.2-.7.2-.6.3-1.1-.4.1-.6-.5-.7-.8h.1c-.1-.3-.4-1.1-.5-1.7h.2c-.2-.5-.1-1.4-.1-1.7.1-.8.5-2 .2-3l.6-.7-.1-.1s-2.8-.4-5.4-.5c0-1.2-.1-2.7-.1-4.2l6.5.3c0 .1 0 .1-.1.1.1 0 .2-.1.1-.2h-.3c-.1-.1.2 0 .2-.2.3 0 .3.1.3.2 0-.1.2-.2-.1-.2.1-.1.3 0 .4-.1-.1-.1-.3-.2-.2-.3.3-.2-.4-.3-.1-.6h.1c.1-.1 0-.2.1-.3-.1 0-.2.1-.3 0 .2-.2 0-.3.2-.4l-.2-.1c.1-.5-.3-2.6-.3-3.1-.1-.8-.1-2.5-.4-3.3.2-.1.2-.3.3-.4-.1.1-.3 0-.3 0 0-.4-.2 0-.3-.4-.2-.5 0-2.3.3-2.7-.4-.2-.1-.5-.3-.7h.1c-.1-.2.2-1.6.1-1.9h-.1c-.2-.2.2-.2.3-.4-.4 0-.6-.2-.7-.3h.1c-.1-.1-.4-.4-.5-.6h.2c-.2-.2-.1-.5-.2-.6.1-.3.5-.7.2-1l.6-.2h-.1s-3.4-.2-6.2-.2c.1-1.1.1-2.2.1-2.6l-.1.1c-.2-.6.2-.5.3-1-.4.1-.6-.5-.7-.7h.1c0-.1-.1-.3-.2-.5 2.4.2 7.1.5 7.6.5 0 .1 0 .1-.1.2.1 0 .2-.2.1-.2h-.3c-.1-.2.2 0 .2-.2.3 0 .3.1.3.3 0-.1.2-.2-.1-.3.1-.1.3 0 .4-.1-.1-.1-.3-.2-.2-.3.3-.3-.4-.4-.1-.7h.1c.1-.1 0-.3.1-.4-.1 0-.2.1-.3 0 .2-.2 0-.3.2-.4l-.2-.1c.1-.6-.3-3.1-.3-3.8-.1-1-.1-3-.4-4 .2-.2.2-.4.3-.5-.1.1-.3.1-.3 0 0-.5-.2 0-.3-.5-.2-.6 0-2.8.3-3.3-.4-.3-.1-.6-.3-.9h.1c-.1-.3.2-1.9.1-2.2h-.1c-.2-.3.2-.3.3-.5-.4 0-.6-.2-.7-.3h.1c-.1-.1-.4-.5-.5-.7h.2c-.2-.2-.1-.6-.2-.7.1-.3.5-.8.2-1.3l.6-.3h-.1s-3-.2-5.7-.2c-.1-.9-.1-2.2-.1-3.5l6.6.2s0 .1-.1.1c.1 0 .2-.1.1-.1h-.3c-.1-.1.2 0 .2-.1.3 0 .3.1.3.2 0-.1.2-.2-.1-.2.1-.1.3 0 .4-.1-.1-.1-.3-.1-.2-.2.3-.2-.4-.3-.1-.4h.1c.1-.1-.1-.2.1-.3-.1 0-.2.1-.3 0 .2-.1 0-.2.2-.3l-.2-.1c0-.4-.3-2-.3-2.4-.1-.6-.1-1.9-.4-2.5.2-.1.2-.2.3-.3-.1.1-.3 0-.3 0 0-.3-.2 0-.3-.3-.2-.4 0-1.7.2-2.1-.4-.2-.1-.4-.3-.6h.1c-.1-.2.2-1.2.1-1.4h-.1c-.2-.2.2-.2.3-.3-.4 0-.6-.1-.7-.2h.1c-.1-.1-.4-.3-.5-.4h.2c-.2-.1-.1-.4-.2-.5.1-.2.5-.5.2-.8l.6-.2h-.1l-6.3-.1c.1-.8.1-1.5 0-1.8l-.1.1c-.2-.5.2-.4.3-.8-.4 0-.6-.4-.7-.5h.1c-.1-.2-.3-.6-.4-.9l7.8.4c0 .1 0 .1-.1.1.1 0 .2-.1.1-.2h-.3c-.1-.1.2 0 .2-.2.3 0 .3.1.3.2 0-.1.2-.2-.1-.2.1-.1.3 0 .4-.1-.1-.1-.3-.2-.2-.3.3-.2-.4-.3-.1-.5h.1c.1-.1 0-.2.1-.3-.1 0-.2.1-.3 0 .2-.1 0-.2.2-.3l-.2-.1c.1-.5-.3-2.4-.3-2.9-.1-.7-.1-2.3-.4-3 .2-.1.2-.3.3-.4-.1.1-.3 0-.3 0 0-.4-.2 0-.3-.4-.2-.4 0-2.1.3-2.5-.4-.2-.1-.5-.3-.7h.1c-.1-.2.2-1.5.1-1.7h-.1c-.2-.2.2-.2.3-.4-.4 0-.6-.2-.7-.2h.1l-.5-.5h.2c-.2-.2-.1-.4-.2-.5.1-.2.5-.6.2-1l.6-.2h-.1s-4.4-.2-7.2-.2c0-.2.1-.3.1-.4-.4-.2-.1-.5-.3-.7h.1c-.1-.2.2-1.4.1-1.7h-.1c-.2-.2.2-.2.3-.4-.4 0-.6-.2-.7-.2h.1l-.5-.5h.2c-.2-.2-.1-.4-.2-.5.1-.2.5-.6.2-1l.6-.2h-.3c1.4-.8 2.8-1.5 2.6-.9.7-.4 1.2-.7 1.7-.9.8 0 1.6.1 2.5.1.9.1 1.9.1 3.4.2-2.9.1 3.2.7.2.6 1.8.3 2.2-.1 3.6 0 1.3.3.7.6-.7.6h1.7v.1l1.5-.1c1.5.3.3.4 1.9.6l.4-.3 1.1.3c-.4-.2.6-.2 1.7-.1v.1l1.4.1c-1.4.1 1.3.2.6.4 1.2.1 1.2.1 3.4.2l-.4-.3c2.8 0 .1.3 2.4.5l-.1-.3c3.3.7 5.6.2 8 .7-1.4-.1-1.1.3-1 .2 2.1.1 5.5.4 7.7.3.8.4.9.6 3.2.9 1.6.1 1.9.1 2.4-.1 1.6.3 4.5.3 4.6.6.4-.2 1.4.2 2.3 0l.2.1-.1-.3c2.7.8 4.7.1 7.5.8h-.5 1.2c.2.1-.3.2-.4.3l5.5.5-1.1-.3c1.2.1 2-.1 3.3.1-2.2.2 1.8.2 2.2.5h-1.2c1.6.1 1.6.1 1.5-.2 2.1.1 1.4.6 3.3.5l-1.4-.1c-.4-.2.6-.3 1.5-.2.2.1.9.2.2.2 1.6 0 4.1.4 4.8.3.9.2.6.3.1.3 3.5.1 1.6.2 5.1.2l-.1.1 1.2-.1 1.7.4-.6-.2c1.2.1 1.9 0 3.2.2l-.6.2c3.3.1 3.7.7 6.9.6.2.1-.3.1-.5.1 2.9-.1 2.1.6 5.1.4-.2.1.1.2 0 .2h1.3l-.1.3 1.1-.3.8.4.5-.1c.3.2.7.3 1.1.4.2 0 .4.1.6.1a.9.9 0 0 1 .5.1c.3 0 .7.1.9.3.1-.1.1-.2.2-.4.2 0 .4-.1.6-.1 2.1.2 2.1.8 2.1 1.4zm4.902 57.497c-.1-.1-.1-.1 0 0-.1-.1-.1 0 0 0zm.198-28.9l-.2-1.7v1.1s.1.1.2.6zm-.398 50.7c0 .1 0 .3.1.4 0-.3-.1-.4-.1-.4zm.5 12.7c-.1-.9-.1-.1-.2.3.1.1.1.1.2-.3zm-1-95.797c-.1-.4-.1-.4-.1-.3 0 .2.1.4.1.3zm-82.7-8.5c.1 0 .2 0 .3.1 0-.1-.1-.1-.3-.1zm82.7 29.398c0 .3 0 .6.1.9 0-.5 0-.7-.1-.9z"/><path d="M73.248 2.5l1.1.1v-.1h-1.1zm-7.798-1c.4 0 1 .1 1.4.2-.5-.2-1-.2-1.4-.2zm53.1 4.9h.1c1-.1.4-.1-.1 0zM78.248 2.397h.2l.3-.1-.5.1zM60.55.998h.6c-.2 0-.4-.1-.6 0 0 0 0-.1 0 0zm41 3.6c-.3.1-.5.1-.5.2.4 0 .6 0 .5-.2zm-84.302 2.6c.2-.3.3-.6.3-.9-.3.1-.3.5-.3.9zm-4.798 1.2c-.2.1-.3.3-.3.4.3-.1.4-.2.3-.4zM8.648 11.3c.1-.2.2-.4.2-.6-.1.2-.1.4-.2.6zM4.55 13.7c.1-.2.2-.3.2-.5-.2 0-.2.3-.2.5zm20.2-10.102c-.2 0-.3.1-.3.2.3 0 .4-.1.3-.2zM83.95 33.7c3.9 4.4 7.4-1 10.2.2.3.2.6.5.9.8h.5l2.2.2v-4.7h-.3l-4.4-.3c-.3 0-.6 0-.9-.1-2.3-.5-4.2-.7-7-.5h-1.8v4.4s.3-.1.6 0zm3.9-.8c2.1-.4 4.1-.5 5.9.6-1.8-.1-3.7-.3-5.9-.6zm1-2c-1.2-.1-2.5-.4-4.2-1 1.7-.3 3 .4 4.2 1zm-20.4 1.4l12.6 1.1V29h-.1l-.8-.3c-.9 0-2-.2-2.8-.4v.1c-.3-.1-.6-.1-.9-.1-1.7-.3-4-.6-5.7-.6.2.1.3.1.5.3-.8 0-1.6.1-2.5.3v.6c-.7.4-.7 2.4-.4 3.1.1.2.1.3.1.3zm-7.1-4.603c-1.1-1.1-5.1-1.4-7.6-.6-.3 0-.6 0-.8-.1l-1.7-.1v3.6c-.4.2-.1.5 0 .9-.1.3.8.5 1 .4-.7-.2.1-.5-.2-.5 0-.2.1-.3.3-.3h.7l1.9.2c.2.2.5.5.7.3h-.1c.1-.1.2-.2.3-.2h.4c.5.1 1.2.6 1.7.3l-.1.1c1.2.2 2.3.1 3.5 0l4.6.4v-1.1l.1-3.1h-.6c-1.3 1-3.3-3.1-3.5-.2-.1.1-.4 0-.6 0zm-11.3 2.7l-.2.2.1.1.1-.3zm.5-1s-.1 0-.1-.1c.2.3-.8.5-.5.9l.6-.8z"/><use xlink:href="#B"/><path d="M135.648 35.2h-.4c.1.1.1.3.2.4a.76.76 0 0 0 .2-.4z"/><path d="M121.75 37.097l.3-.3c2.7-.3 5.9-.2 8.8.2 1.6.8 3.1 1.4 4.3 1.3.3 0 .5.1.7.1v-1.6c-.1-.5-.3-.9-.5-1.3-.2.3-.4.6-.7.8-3.5-2.8-7.1-.3-11-2.9 4.2 1 7.9 1.4 11.5 1.7-2.6-5.2-7.9-.8-11.4-2.5-.3 0-.6-.1-.9-.1-.9-.1-1.8-.2-2.7-.4v.1c-1.4-.2-2.7-.2-4.1-.4v5c1.6.2 3.2.2 4.7.3h1zm-21.5-5.7v3.9c.7.1 1.4.1 2 0h.6c.3 0 .7.1 1.1.1.2 0 .4 0 .6.1 0 0 .1 0 .1-.1h.1l.9-.5c.3.1.6.4.8.7.3 0 .6.1.8.1l6.6.9v-5l-3.4-.5c-.3 0-.6-.1-.8-.1-1.5.7-3 .4-4.5-.1-.7-.4-1.5-.6-2.3-.6-.5-.1-1-.1-1.4.1.1 0 .3.1.4.1-.4.1-.9.4-1.3.7.3-.4.6-.7.9-.8-.4-.1-.8-.1-1.3-.2-.2-.1-.2 1.2.1 1.2zM69.85 27.7h1.1c-.3-.1-.7-.1-1.1 0z"/><path d="M68.85 28.3c.4-.3.7-.5 1-.6-.4 0-.8.1-1 .1v.5zm-18.4 0l-.1-2.4 2.4.2c.3 0 .5 0 .8.1l8.6.7-8.4-.9c-.2 0-.4 0-.6-.1s-.4 0-.6-.1c-.2 0 .3.1-.1.2-.9.1-.3-.3-1.3-.3l.2.2c-.4.1-.8 0-1.2-.1 0 .4-.1.8-.2 1.2 0 .4-.1 1 0 1.3.3-.3.4.1.5 0zM68.448 39v1.3l12.6 1.1V37h-.1l-.8-.3c-.9 0-2-.2-2.8-.4v.1c-2.3-.4-4.7.1-6.6-.7l-2.5-.2v.8c.4.1.8.1 1.1 0-.1 0-.2-.1-.1-.1.2 0 .4.2.6.2-.1 0-.1-.1-.1-.1l3 .4-4.4-.4V39h.1zm-18.398-.703l-.2.2.1.1.1-.3z"/><use xlink:href="#C"/><use xlink:href="#B" y="8"/><path d="M127.148 45.597v-.1l4.3.5 4.4.4v-4.4l-2.1-.2c-.3 0-.7-.1-1-.1-1.1-.9-5-1.2-7.1-.9-.3 0-.6 0-.9-.1-.3 0-.5 0-.8-.1-.2-.5-2.2-.7-2.3-.3-.2 0-.5-.1-.7-.1s-.5-.1-.7-.1v.1l-4.1-.4v5c3.6.9 7.6-.7 11 .8zm-6.6-1.6c2.1-.5 3.7-.9 5.8.6-2.2-.4-3.9-.6-5.8-.6zm1.3-2.3h-.2.2zm-28.298.7l4.3.4v-4.7h-.3l-3.5-.2c-.3 0-.6-.1-.9-.1-.7-.3-2.6-.5-4.1-.6-.4-.3-.8-.4-.9 0-.5 0-.9 0-1.1.1-.3 0-.6 0-.9-.1-.9-.1-1.7-.1-2.6-.1v4.6c3.3.7 6.6 1.1 10 .7zM61.45 39.6l4.6.4v-4l-14.8-1.3v3.7c-.4.2-.1.5 0 .9-.1.3.8.5 1 .4-.7-.2.1-.5-.2-.5 0-.2.1-.3.3-.3h.7l1.9.2c.2.2.5.5.7.3h-.1c.1-.1.2-.2.3-.2h.4c.5.1 1.2.6 1.7.3l-.1.1c1.3.2 2.5.1 3.6 0zm41.398 3.697l3.4.3 7.5 1.1v-5.1c-4.6-.9-8.9-1.1-13.5-1.3v5c.7.1 1.4.1 2 0 .2-.1.4-.1.6 0zm3.2-3.7h-.2.2c0-.1 0-.1 0 0zm-.7-.1l-2.8-.2c1-.1 1.8-.2 2.8.2zm-5-.5c.1 0 .2.1.4.1l-.4-.1z"/><path d="M50.248 33.7c0 .4-.1.8-.2 1.2 0 .4-.1 1 0 1.3.2-.2.2.1.3 0l-.1-2.4 2.4.2c.5 0 1 .1 1.6.1a16.96 16.96 0 0 1 3.1.6c0-.1 0-.2.1-.3l8.4 1.2v-.5l-7.5-.7c-.1-.2-.4-.2-.7-.4-.4.3-1.4-.1-1.7.2-1.1-.5-2.3-.4-3.5-.6-.2 0 .3.1-.1.2-.9.1-.3-.3-1.3-.3l.2.2c-.1.1-.5.1-1 0zm63.202 17.097c.1.1.3.2.4.4-.1-.2-.3-.3-.4-.4zm-29.9-4.8c.9 1.4 1.9 2.2 2.9 2.6l-2.7-.3v.5c3.9 1.8 9.1 2.4 13 1.3.5.4.9.9 1.3 1.6 0-.9 0-1.4-.1-2h0c-.1-.5-.2-1.2-.5-2.3.5.2.5 0 .4-.9v-.5h-.3l-4.4-.3c-.3 0-.6 0-.9-.1-2.3-.5-6.2-.9-8.7-.6v1zm7.2 3.1c1.7-.1 3.4-.3 5 .5-1.6-.2-3.3-.3-5-.5zM66.15 44.1s-.3-.1-.7-.1c-.2 0-.4 0-.7-.1l-13.4-1.2v3.6c-.4.2-.1.5 0 .9-.1.3.8.5 1 .4-.7-.2.1-.5-.2-.5 0-.2.1-.3.3-.3h.7c.6 0 1.2.1 1.9.2.2.2.5.5.7.3h-.1c.1-.1.2-.2.3-.2h.4c.5.1 1.2.6 1.7.3l-.1.1c1.2.2 2.3.1 3.5 0l2.3.2c.3 0 .7.1 1 .1.1 0 .1-.1.2-.1h.1c1.1-.7 1.1-.8 1.1-3.6zm-16.1 2.197l-.2.2.1.1.1-.3zm-.1-.197l.6-.8s-.1 0-.1-.1c.2.3-.8.4-.5.9z"/><use xlink:href="#B" y="15.898"/><path d="M116.348 48.3c-.1 0-.2.1-.3.1 0 0 0 .4-.1 1 1 1.1 2 1.9 2.9 2.4l-3-.2v.5c5.7 5.7 11.7.3 16.9 1.9.5 0 1 .1 1.5.2.5 0 1 .1 1.5.1v-4.4l-3.1-.3c-.3-.1-.5-.1-.8-.2-.3 0-.5-.1-.8-.1-1.5-.8-1.5-.8-3.2-.4-.3 0-.5 0-.8-.1-.8-.1-1.6-.1-2.5-.2-.3 0-.6-.1-.9-.1V48c-1.4-1.5-3.8-1.2-5.7-.5-.9-.1-1.6-.2-2.2-.2l.3.6c.2.2.3.3.3.4zm7.6.9h.5c-.2.3-.4.2-.5 0zm6.8 3.7l-2.3-.3c.8 0 1.6.1 2.3.3zm-1.6-2.7c-.6.1-1.2-.2-1.3-.6.6.3 1 .5 1.3.6zm-18.8-3.302c-.3 0-.6-.1-.8-.1-.3 0-.6-.1-.8-.1l-1.7-.2-6.8-.4v1.2c.9 2.2 1.9 3.3 3.1 3.8-.6-.1-1.1-.1-1.6-.1.5.1 1.1.1 1.7.1.6.2 1.2.3 1.7.2l8.7 1.8c-1.9-2.1-4.2-2.3-6.6-2.3 2.2-.7 4.4-1.6 6.2-.1-1.9-1.8-3.8-2-6.5-2.2-.2-.1-.4-.3-.6-.4-.1-.1-.3-.3-.4-.5.1.1.3.1.5.2l.8.3c2.7.7 4.7.9 6.7 1 1.9-3.7-2.1-.1-3.6-2.2zm-10 .1c.1 0 .2.1.3.1-.1-.1-.2-.1-.3-.1zm2.2.2c.6 0 1.2-.1 1.8 0 .3 0 .6.1 1 .3h-.2c-1.2.9-1.2.9-2.4-.2-.1-.1-.2-.1-.2-.1zm-20.498-.8c-4-6.3-9.9-.9-13.6-2.9v.7c.4.5.8 1 1.2 1.3-.4-.1-.8-.3-1.2-.6v.4c.4.7.9 1.3 1.4 1.8-.5-.1-1-.1-1.4-.2v.3c.5 0 1.1.1 1.7.1 2.1 1.5 4.6.9 7 .6 1.7.1 3.4.3 4.8.4-1.4-.1-3-.3-4.7-.4 1.7-.3 3.3-.4 4.7.4a7.31 7.31 0 0 0-2.7-2.6c1.1.1 2 .2 2.8.7zM50.45 44.2l-.1-2.4 2.4.2c.5 0 1 .1 1.6.1a16.96 16.96 0 0 1 3.1.6c0-.1 0-.2.1-.3 2.5.5 5.1.8 7.6 1.1.3 0 .6.1.8.1v-.5l-7.5-.7c-.1-.2-.4-.2-.7-.4-.4.3-1.4-.1-1.7.2-1.1-.5-2.3-.4-3.5-.6-.2 0 .3.1-.1.2-.9.1-.3-.3-1.3-.3l.2.2c-.4.1-.8 0-1.2-.1 0 .4-.1.8-.2 1.2 0 .4-.1 1 0 1.3.3-.2.4.2.5.1zm47.5 13.498c0-1.2 0-1.6-.5-2.1-.2-.4-.6-1-1.1-1.7-.2-.1-.5-.1-.8-.2-1-.2-2.1-.3-3.3-.3h-.9c-1.4-.4-5.3-.8-7.9-.5v.9a8.44 8.44 0 0 0 2.6 2.7l-2.6-.3v.7c3.4 4.5 7.6 1.4 11.2.5-.5 0-1.1-.1-1.6-.2 1.8-.1 3.5-.3 4.9.5zM50.05 54.2l-.2.2.1.1.1-.3z"/><use xlink:href="#C" y="15.898"/><use xlink:href="#B" y="23.898"/><path d="M132.748 57.6c-2.3-.5-4.7-.7-7.1-.9-.6-.1-1.2-.1-1.8-.2-.1-.5-2.1-.7-2.7-.4-.3-.1-.7-.2-1.1-.3-1.2-.3-2.6-.3-3.9-.2v5.1c.5.1 1.1.1 1.6.1 2.1.8 6.1 1.2 7.8.4.5.1 1.1.1 1.6.2v-.1l4.3.5 4.4.4v-4.4l-3.1-.2zm-12.7-.4l1 .3a1.69 1.69 0 0 1-1-.3zM81.05 52.898l-.8-.3c-.4-.1-.7-.2-.9-.2-3.2-.5-7.2-.8-10.9-1v.9c1.3.4 2.9.8 4.6 1-1.7.1-3.3.1-4.6-1v.4c.6 1.2 1.3 1.9 2.1 2.5l-2.2-.3v.6h2.8c1.9 1 4 .6 6 .4 1.8.1 3.5.3 5 .4l-4.8-.4c1.7-.2 3.4-.4 4.8.4-.6-1-1.3-1.7-2-2.2.7.1 1.4.1 2 .2-.1 0-.1-1.9-1.1-1.4zm-30.6-.8l-.1-2.4 2.4.2c.5 0 1 .1 1.6.1a16.96 16.96 0 0 1 3.1.6c0-.1 0-.2.1-.3l4.2.7c.3 0 .6.1.9.2.1-.5-.2-.5-.5-.6l-3.7-.3c-.1-.2-.4-.2-.7-.4-.4.3-1.4-.1-1.7.2-1.1-.5-2.3-.4-3.5-.6-.2 0 .3.1-.1.2-.9.1-.3-.3-1.3-.3l.2.2c-.4.1-.8 0-1.2-.1 0 .4-.1.8-.2 1.2 0 .4-.1 1 0 1.3.3-.1.4.2.5.1zm49.998-1.5c-.1 0-.2-.1-.3-.1v.6h.2v2.9c.1-.1.2-.1.3-.1.2 0 .3 0 .6.1l-.4-2.9c.3 0 .5-.1.8-.1-.3 0-.6-.1-.9-.2-.1-.5-.2-.6-.3-.2z"/><path d="M101.248 54.998h-.8v-1c-.2.2-.3.5-.2 1 .1 0 .2 0 .2.1-.1 0-.1.1-.2.2-.3.6-.4 2.1.2 3.1h-.3v.7c.4.1.7.1 1 .1h1.6l3.4.3 7.5 1.1v-5.2l-1.7-.3c-.3 0-.6-.1-.8-.1.7 0-1.3-.2-1.7-.2-.3 0-.6-.1-.8-.1l-1.7-.2c-.3 0-.6-.1-.8-.1-1.5 1.2-3.6-.2-4.9-.5.1.5.1 1 0 1.1zm4.8.5h-.2.2c0-.1 0-.1 0 0zm-1.1-.3c.1 0 .2.1.4.1l-2.8-.2h.6c1.4 0 1.6.1 1.8.1zm-10.3 2.2l3.3.3c-1-.6-2.1-.5-3.3-.3zM60.85 54.6c.8-1.2 5.3 1.7 5-2.1 0 0-.2 0-.6.1-1.1.2-1.1.2-3.9-1-.2 0-.4 0-.7-.1l-9.4-.8v3.6c-.4.2-.1.5 0 .9-.1.3.8.5 1 .4-.7-.2.1-.5-.2-.5 0-.2.1-.3.3-.3h.7c.6 0 1.2.1 1.9.2.2.2.5.5.7.3h-.1c.1-.1.2-.2.3-.2h.4c.5.1 1.2.6 1.7.3l-.1.1c.6.1 1.2.1 1.8.1h.9c1.5-1 3.5-.8 5.5-.6l-5.2-.4zm4.6 5.198c-.4 0-1-.1-1.7-.1l-12.5-1.1v3.6c-.4.2-.1.5 0 .9-.1.3.8.5 1 .4-.7-.2.1-.5-.2-.5 0-.2.1-.3.3-.3h.7c.6 0 1.2.1 1.9.2.2.2.5.5.7.3h-.1c.1-.1.2-.2.3-.2h.4c.5.1 1.2.6 1.7.3l-.1.1c.6.1 1.2.1 1.8.1s1.2-.1 1.8-.1c.5-.5.7-.8.6-.9 1.8-.8 5.7 1.6 3.9-2.7.1.1-.1.1-.5 0zM50.05 62.2l-.2.2.1.1.1-.3z"/><use xlink:href="#C" y="23.8"/><use xlink:href="#B" y="31.797"/><path d="M135.848 70.198v-4.4l-3.1-.3c-4-.9-8.4-.7-12.5-1.6v.1c-1.4-.2-2.7-.2-4.1-.4v5c3.7.4 7.3.2 11 .8v-.1c1.4.2 2.9.3 4.3.5 1.5.1 3 .2 4.4.4zm-52.298-8.8v4.1l4.2.6c.3 0 .6.1.8.1 1.4.7 1.4.7 2.5.1h.9c.5 0 1-.1 1.5-.1l4.3.4v-4.7h-.3c-4.7-.2-9.4-.8-14-1v.5h.1zm-17.502-1.9v-.5l-7.5-.7c-.1-.2-.4-.2-.7-.4-.4.3-1.4-.1-1.7.2-1.1-.5-2.3-.4-3.5-.6-.2 0 .3.1-.1.2-.9.1-.3-.3-1.3-.3l.2.2c-.4.1-.8 0-1.2-.1 0 .4-.1.8-.2 1.2 0 .4-.1 1 0 1.3.2-.2.2.1.3 0l-.1-2.4 2.4.2c.5 0 1 .1 1.6.1a16.96 16.96 0 0 1 3.1.6c0-.1 0-.2.1-.3 2.9.6 5.9 1 8.6 1.3zm36.202 7.6h.5l3.5.3 7.5 1.1v-5.1c-4.6-.9-8.9-1.1-13.5-1.3v5c-.3.7 1.7.9 2 0zm3.8-3.7h-.2.2s0-.1 0 0zm-.7-.1l-2.8-.2c1-.1 1.8-.2 2.8.2zm-5-.5c.1 0 .2.1.4.1l-.4-.1zm-31.8.9c3.5-.3 5.5-.1 9.9 1 .1.1.1.2.2.3h.5l1.9.2v-4.4h-.1l-.8-.3c-2.2-.5-2.2-.5-3.6-.4h-.9c-1.7-.4-5.6-.7-6.7-.7-.2 0-.4 0-.6-.1v.8c.6.4 1.6.8 2.7 1-1.1-.2-2-.5-2.7-.9v.3c.3 1.4.9 2.2 1.5 2.6-.5-.1-1-.1-1.5-.2l.2.8zm9.2.1l-5.1-.4c1.8-.3 3.7-.9 5.1.4zM66.05 71.6v-3.8l-14.8-1.3v3.6c-.4.2-.1.5 0 .9-.1.3.8.5 1 .4-.7-.2.1-.5-.2-.5 0-.2.1-.3.3-.3h.7l1.9.2c.2.2.5.5.7.3h-.1c.1-.1.2-.2.3-.2h.4c.5.1 1.2.6 1.7.3l.1.2c1.2.2 2.3.1 3.5 0l4.6.4v-.2h-.1zm34.098-.7v.2c.8 1.5 1.7 2.5 2.7 3-.3 0-.5.1-.7.2h1.1c1.4.7 3 .6 4.5.4 2.2.5 4.3 1 6.1.3l-5.1-.4c1.8-.2 3.6-.5 5.1.4-.7-1-1.4-1.7-2.1-2.2.7-.3 1.4-.8 2.1-1.7-4 1.6-9.9-2.9-13.7-.2zm.3 0c1.6-1.3 3.8-.1 6 .9-2.3.2-4.5.5-6.2-.9h.2zm18.402 4.698l-2.8-.2v.4c5.8 3.8 11.7.4 16.9 2 .5 0 1 .1 1.5.2.5 0 1 .1 1.5.1v-4.4l-3.1-.3c-.3-.1-.6-.1-.9-.2s-.6-.1-.9-.1c-3.3-.9-5.3-1.1-9.9-1.1-.3-.1-.6-.1-.9-.2v.1c-.9-.2-1.8-.2-2.7-.3h-.7c-1-.4-1 1.5-1 1.5.3.1.6.2.8.3.7 1.1 1.4 1.7 2.2 2.2zm10.1.9c-.6-.1-1.2-.1-1.8-.2.5 0 1.1 0 1.8.2zm-78.9-6.4l-.2.2.1.1.1-.3z"/><use xlink:href="#C" y="31.8"/><use xlink:href="#B" y="39.797"/><path d="M100.248 74.3v.7h.5c.4-.4.9-.6 1.4-.8-.7.1-1.3.1-1.9.1zm-9.098-.003h1.8c.4-.3.8-.5 1.3-.6.3.2.6.4.9.7h.5c.3 0 .6.1.9.1.4-.2.8-.6 1.2-.9h0c1-.9 1.6-1.8.2-2-4-6.3-9.9-.9-14.3-2.6v.8c3.6 4 6.9 2.3 9.7 3.3-3.3-.3-6.9-.7-9.9-1.2v.6c2.6 4 6.6.4 7.7 1.8zm-9.1-4.097c-4-6.3-9.9-.9-13-3-.2 0-.4 0-.6-.1v.8c.2.2.4.4.6.5-.2-.1-.4-.3-.6-.5v.3c.7 1.3 1.4 2.1 2.2 2.7a52.78 52.78 0 0 1-2.1-.3v.8c.9-.1 1.9-.1 2.9-.1 1.7.8 3.6.5 5.5.3 1.8.1 3.6.3 5.1.4-1.4-.1-3.1-.3-4.9-.4 1.7-.2 3.4-.4 4.9.4-.6-.9-1.2-1.6-1.8-2 .6.2 1.2.2 1.8.2zm-31.802-4.703c0 .4-.1.8-.2 1.2 0 .4-.1 1 0 1.3.2-.2.2.1.3 0l-.1-2.4 2.4.2c.5 0 1 .1 1.6.1a16.96 16.96 0 0 1 3.1.6c0-.1 0-.2.1-.3l5.1.8 1.7.2c-.4-.5-.9-.6-1.4-.6l-4.5-.4c-.1-.2-.4-.2-.7-.4-.4.3-1.4-.1-1.7.2-1.1-.5-2.3-.4-3.5-.6-.2 0 .3.1-.1.2-.9.1-.3-.3-1.3-.3l.2.2c-.1.1-.5 0-1 0zm47.602 17v-4.7h-.3c-4.7-.2-9.4-.8-14-1v4.6c3.3.6 6.6.9 10 .6l4.3.5zM68.448 78.7V80l12.6 1.1v-4.4h-.1l-.8-.3c-2.2-.5-2.2-.5-3.6-.4-.3 0-.6 0-.9-.1-1.7-.1-3.4.1-4.9-.5l-2.5-.2v.8c.4.1.8.1 1.1 0-.1 0-.2-.1-.1-.1.2 0 .4.2.6.2-.1 0-.1-.1-.1-.1l3 .4-4.4-.4v2.7h.1zm-2.398.798v-3.8l-14.8-1.3v3.6c-.4.2-.1.5 0 .9-.1.3.8.5 1 .4-.7-.2.1-.5-.2-.5 0-.2.1-.3.3-.3h.7l1.9.2c.2.2.5.5.7.3h-.1c.1-.1.2-.2.3-.2h.4c.5.1 1.2.6 1.7.3l.1.3c1.2.2 2.3.1 3.5 0l4.6.4v-.3h-.1zm-16-1.4l-.2.2h.1l.1-.2z"/><use xlink:href="#C" y="39.698"/><use xlink:href="#B" y="47.7"/><path d="M102.85 78.1c-.8 0-1.7-.1-2.6-.1v5c-.3.8 1.7.9 2 0h.5l3.5.3 7.5 1.1v-5.1c-2.6-.5-5-.8-7.6-.9-.3 0-.6 0-.8-.1.6.1-1.4-.1-1.7-.1-.3-.1-.6-.1-.8-.1zm-2.5.6c.1 0 .2.1.4.1l-.4-.1zm5.7.6h-.2.2s0-.1 0 0zm-.7-.1l-2.8-.2c1-.1 1.8-.2 2.8.2z"/><use xlink:href="#D"/><path d="M132.75 81.4c-.3-.1-.6-.1-.9-.2s-.6-.1-.9-.1l-.6-.3c-.2-.1-.3-.1-.4-.2-1.1-.1-1.3-.1-1.6 0-.3 0-.6.1-.9.1s-.6-.1-.9-.1c-2.1-.2-4.3-.3-6.3-.8v.1c-.2 0-.5-.1-.7-.1s-.5 0-.7-.1h-.7c-.7 0-1.4-.1-2.1-.2v5l8.7.5c.3 0 .5 0 .8.1.1 0 .2-.1.3-.1h.1c.2-.1.4-.2.6-.2 2.2-.5 5.2-.1 6.2 1 .3 0 .6.1.9.1.7.1 1.5.1 2.2.2v-4.4l-3.1-.3zm-64.302 5.3V88l12.6 1.1v-4.4h-.1l-.8-.3c-.9 0-2-.2-2.8-.4v.1c-2.3-.4-4.7.1-6.6-.7l-2.5-.2v.8c.4.1.8.1 1.1 0-.1 0-.2-.1-.1-.1.2 0 .4.2.6.2-.1 0-.1-.1-.1-.1l3 .4-4.4-.4v2.7h.1zM50.05 86l-.2.2.1.1.1-.3z"/><use xlink:href="#C" y="47.698"/><path d="M50.35 84.7c.3.1 0-.4.2-.5-.1 0-.3.1-.2.5zm82.398 4.7c-4-.9-8.4-.7-12.5-1.6v.1c-1.4-.2-2.7-.2-4.1-.4v5c2.1.2 4.2.3 6.3.3h.8c2.5 1.1 2.5 1.1 4 .4v-.1c1.4.2 2.9.3 4.3.5 1.5.2 3 .3 4.4.4v-4.4c-1.2-.1-2.2-.2-3.2-.2zm-29.698-3.502c.6.1 1.3.4 2.1.6-.8-.3-1.4-.6-2.1-.6z"/><path d="M83.55 85.298v4.1l1.7.3c.3 0 .6.1.8.1 2 .7 2 .7 4.2.3h.9l2.4-.1 2.1.2c.3 0 .6.1.9.1 1.4-2.2 1.6-3.3 1.3-3.6l2.4.3c-.2.6-.3 2.1.2 3.1h-.2v.7c.7.1 1.4.1 2 0h.5c.4 0 .8.1 1.2.1.2 0 .4 0 .6.1h.2c.3-.2.6-.3 1-.4.2-.1.5-.1.8-.1.9 0 1.8.4 2.4 1.1.3 0 .6.1.8.1l4.1.5v-5.1c-.9-.2-1.7-.3-2.5-.4-.3 0-.6-.1-.9-.1-.7.2-1.3.3-2 .3l-2.8-.4c-.2 0-.3-.1-.5-.1.1 0 .1.1.2.1l-3.7-.4c.5-.2 1-.3 1.4-.3-.8-.2-1.6-.2-2.1.2l-6.9-.6c-.3 0-.6 0-.9-.1l-9.6-.7v.7zm26.6 2.6c-2.9.3-5.8 0-8.7-.8l6.5.5c.7.2 1.4.3 2.2.3zm-15.9-1.6l2.4.3c-1.8.4-4.7 2.1-3-.1l.2-.2h.4z"/><use xlink:href="#D" y="7.903"/><path d="M52.35 86.498h.7c.3 0 .7.1 1.1.1.1.4.1 1 .1 1 2 .2 5.9 2.5 7.7-.3.2 0 .5 0 .7.1.4 0 .8.1 1.1.1.4 1 2.4 1.2 2.3.2v-4l-14.8-1.3v3.6c-.4.2-.1.5 0 .9-.1.3.8.5 1 .4-.7-.2.1-.5-.2-.5.1-.2.2-.3.3-.3zm26.498 7.2l-1.3-1.7c-.3-.1-.6-.1-.9-.1-2-.2-4 .1-5.7-.6-.4 0-.9-.1-1.3-.1s-.8-.1-1.3-.1v.8c-.2-1 1.8-.8 1.5 0 .3 0 .6.1.9.1l2 .3-2.9-.2c-.3 0-.6-.1-.8-.1-.7-.1-.7.4-.7.9v3l9.2.8c.3 0 .7.1 1 .1-.5.9 1.5 1.1 1 .1.4-.5.6-.9.9-1.3 2.4-3.4.2-2.6-1.6-1.9zm-1.1.3c-.7.2-1.1.1-.7-.6.2.2.5.4.7.6zm-12.298-2.4a4.02 4.02 0 0 0-2.9-.9c-.2-.3-.7-.4-1.1-.4-.3 0-.7-.1-1-.1l-5.3-.5c-.5-.1-1.1-.1-1.6-.2s-1.1-.1-1.7-.2c-.1-.1-.2-.2-.7-.2l.2.2c-.4.1-.8 0-1.2-.1 0 .4-.1.8-.2 1.2 0 .4-.1 1 0 1.3.2-.2.2.1.3 0l-.1-2.4a8.33 8.33 0 0 0 1.2.1l2.9.2c.5 0 .9.1 1.4.1 2.3.2 2.3.2 4.5.7.2 0 .4.1.6.1.4.1.8.1 1.2.2-.3.1-.6.3-.8.5-.4 0-.9-.1-1.3-.1-.2 0-.5 0-.7-.1-.2 0-.5 0-.7-.1-.5.2-.9.3-1.4.4-1.8.3-3.5 0-5.5-1h-.4v3.6c-.4.2-.1.5 0 .9-.1.3.8.5 1 .4-.7-.2.1-.5-.2-.5 0-.2.1-.3.3-.3.3 0 .7.1 1.2.1.8-.2 1.6-.4 2.2-.4.4.2.8.4.9.8.4.2.9.4 1.3.2l-.1.1c1.2.2 2.3.1 3.5 0l4.6.4v-1c.1-1.9.1-1.9 0-3 .2 0 0 0-.4 0zm-15.4 2.3l-.2.2.1.1.1-.3z"/><use xlink:href="#C" y="55.597"/><use xlink:href="#B" y="63.598"/><path d="M132.75 97.297c-1.1-.3-2.3-.4-3.5-.6-.3 0-.6-.1-.9-.1-.3-.1-.7-.2-1.1-.3-1.5-.8-2.7-.8-3.7-.6l-4-.1c-.2 0-.5-.1-.7-.1l-2.8-.2v5c.3 0 .5.1.8.1s.5 0 .8.1c2.1.8 6.1 1.2 7.8.4.3 0 .5.1.8.1s.5.1.8.1v-.1l4.3.5 4.4.4v-4.4c-1 0-2-.1-3-.2zm-14.8 2.1c.3-.5.9-.3 1.8 0h-1.8zm-34.602-6c.5.7.6 2.1.4 2.6h-.3v1.5l5.9.7h.9c.8.4 1.8-.4 2.9-.8 1.4.2 2.7.6 3.9 1 .4 0 .6.1.6.1v-4.7h-.3l-3.5-.2c-.3 0-.6 0-.9-.1-3.1-.6-5.1-.8-9.7-.7v.5c.1-.1.1-.1.1.1zm30.4 6.4v-4.7c-4.6-.9-8.9-1.1-13.5-1.3v5c.7.1 1.4.1 2 0h.6l3.4.3c2.5.3 5.1.9 7.5 1.1v-.4zm-7.7-4.6h-.2.2c0-.1 0-.1 0 0zm-.7-.1l-2.8-.2c1-.1 1.8-.2 2.8.2zm-5-.5c.1 0 .2.1.4.1l-.4-.1zM78.75 101l4.8.5v3.8c3.3.6 6.6.9 10 .6l4.3.4v-4.7h-.3c-.6 0-1.2-.1-1.8-.1-1.8-.4-1.8-.4-3.5-.3-.6 0-1.2-.1-1.8-.1l-3.5-.3-11.2-1.1h-.9c-1.4 0-2.8 0-4-.5-.8-.1-1.6-.2-2.5-.2v.8c.4.1.8.1 1.1 0-.1 0-.2-.1-.1-.1.2 0 .4.2.6.2-.1 0-.1-.1-.1-.1 1 .1 2 .3 3 .4l-4.4-.4v4s1 .1 2.5.2c.7.1 1.6.1 2.5.2l.3-.3c2.5-.5 6.4-.1 8.3 0a85.45 85.45 0 0 1-7.1-.8c2.5-1 5.5.6 7.1.8-1-1-2.1-2.2-3.3-2.9zm-28.7.898l-.2.2.1.1.1-.3z"/><use xlink:href="#C" y="63.597"/><use xlink:href="#B" y="71.5"/><path d="M135.848 109.897v-4.4l-3.1-.3c-4-.9-8.4-.7-12.5-1.6v.1c-1.4-.2-2.7-.2-4.1-.4v5c1.7.8 1.7.8 3.2.2h.8c2.4.1 4.7.1 7.1.5v-.1c1.4.2 2.9.3 4.3.5s2.9.4 4.3.5zm-83.498-7.5h1.3c.7.5 1.3.8 1.8.9 3.3 1.6 5.2-1.2 7.8-.3h.2c.1.1.2.1.3.2.3 0 .7.1.9.1a12.53 12.53 0 0 0 1.4.1h0v-3.8l-2.3-.2c-.7-.1-1.5-.1-2.4-.2l-2.7-.2-2.7-.3-4.7-.4v3.6c-.4.2-.1.5 0 .9-.1.3.8.5 1 .4-.7-.2.1-.5-.2-.5.1-.2.2-.3.3-.3zM50.248 97.2c0 .4-.1.8-.2 1.2 0 .4-.1 1 0 1.3.2-.2.2.1.3 0l-.1-2.4 2.4.2c.5 0 1 .1 1.6.1a16.96 16.96 0 0 1 3.1.6c0-.1 0-.2.1-.3l1.7.3 3.4.5 3.4.4v-.5l-7.5-.7c-.1-.2-.4-.2-.7-.4-.4.3-1.4-.1-1.7.2-1.1-.5-2.3-.4-3.5-.6-.2 0 .3.1-.1.2-.9.1-.3-.3-1.3-.3l.2.2c-.2.2-.6.1-1.1 0zm53.4 4.797c-.6 0-1.2-.1-1.7-.1-.6 0-1.1-.1-1.7-.1v5c.7.1 1.4.1 2 0h.6c.5 0 1.1.1 1.7.1.5 0 1.1.1 1.6.1.3 0 .7.1 1 .1l1.7.3 4.9.7v-5.1l-1.7-.3c-.6-.1-1.1-.2-1.7-.2l-6.7-.5zm-.3.9c-.3 0-.6-.1-.8-.1h.6c.1 0 .1 0 .2.1zm-3-.3c.1 0 .2.1.4.1-.2-.1-.3-.1-.4-.1zm10.7 1.2c-.9.3-2 .3-3.1.2.8 0 1.6-.1 2.5-.2h.6zm-13.198 6.9v-1.1h-.3c-4.7-.2-9.4-.8-14-1v4.6c3.3.6 6.6.9 10 .6l4.3.4v-3.5zm-47.8-.9l-.2.2.1.1.1-.3z"/><use xlink:href="#C" y="71.5"/><use xlink:href="#B" y="79.5"/><path d="M112.048 110.7c-.6-.1-1.1-.2-1.7-.2-3.4-.4-6.6-.6-10.1-.8v5c.7.1 1.4.1 2 0h.6l3.4.3c2.5.3 5.1.9 7.5 1.1v-1.5c.1-1.8.1-1.9-1.8-2.9h.1l4 .5c.1.1.1.2.2.2-.3 3.5 1 1.5 2.9 2.8-1-.1-2.1-.2-3.1-.2v1.2c3.7.4 7.3.2 11 .8v-.1c1.4.2 2.9.3 4.3.5 1.5.2 3 .3 4.4.4v-4.4l-3.1-.3c-2.8-.6-5.9-.7-8.9-1-.3 0-.6-.1-.9-.1-1.2-.6-5.1-.9-7.1-1.1v.2c-1-.2-2.3-.3-3.7-.4zm-6 .4h-.2.2c0-.1 0-.1 0 0zm-.7-.1c-1-.1-2-.2-2.8-.2 1-.1 1.8-.2 2.8.2zm-5-.5c.1 0 .2.1.4.1-.2 0-.3 0-.4-.1zm20.5 1.8c.4 0 .9.1 1.2.3-1.6.4-2.9.4-4 .2.4-.1.8-.2 1.3-.3.8 0 1.3-.1 1.5-.2zm-52.398-5.402v.8c.4.1.8.1 1.1 0-.1 0-.2-.1-.1-.1.2 0 .4.2.6.2-.1 0-.1-.1-.1-.1l3 .4-4.4-.4v4l12.6 1.1v-4.4h-.1l-.8-.3c-.9 0-2-.2-2.8-.4v.1c-2.3-.4-4.7.1-6.6-.7-.7 0-1.6-.1-2.4-.2z"/><path d="M50.45 107.7l-.1-2.4 2.4.2c.5 0 1 .1 1.6.1a.9.9 0 0 1 .5.1c.2 0 .4 0 .5.1h.8a3.02 3.02 0 0 0-.3.9c-.2 0-.4 0-.6-.1l-4-.4v3.6c-.4.2-.1.5 0 .9-.1.3.8.5 1 .4-.7-.2.1-.5-.2-.5 0-.2.1-.3.3-.3h.7l1.9.2c.2.2.5.5.7.3h-.1c.1-.1.2-.2.3-.2h.4c.5.1 1.2.6 1.7.3l-.1.1c1.2.2 2.3.1 3.5 0l4.6.4v-3.9l-6-.5c-.2 0-.5 0-.7-.1-.6.5-1.6-.6-2.3-1.1 1.3.1 1.8.2 3.9.7.3 0 .6.1.9.1l4.2.5v-.5l-4.5-.5c-.3 0-.5-.1-.8-.1l-3.8-.3c-.2-.1-.4-.2-.6-.1-.5-.1-1-.1-1.3-.2-.2 0-.4-.1-.6-.1-.6-.1-1.2-.1-1.8-.2-.2 0 .3.1-.1.2-.9.1-.3-.3-1.3-.3l.2.2c-.4.1-.8 0-1.2-.1 0 .4-.1.8-.2 1.2 0 .4-.1 1 0 1.3.3-.1.4.2.5.1zm30.7 9.298v-.6h-.1l-.8-.3c-.9 0-2-.2-2.8-.4v.1c-2.3-.4-4.7.1-6.6-.7l-2.5-.2v.8c.4.1.8.1 1.1 0-.1 0-.2-.1-.1-.1.2 0 .4.2.6.2-.1 0-.1-.1-.1-.1l3 .4-4.4-.4v4l5 .4c.4 0 .9.1 1.4.1.1-.1.3-.1.4-.2h.1c.1 0 .2 0 .3-.1 1.2-.1 3.1.5 4.3-.3h0c.5-.3.9-.9 1.2-1.8v-.8c0 .1 0 .1 0 0zm-31.1.8l-.2.2.1.1.1-.3z"/><use xlink:href="#C" y="79.398"/><use xlink:href="#B" y="87.398"/><path d="M135.95 123.2c0 .4 0 .8-.1 1.2.4 0 .5-.3.1-1.2z"/><path d="M135.648 124.397c-.1-3.6-3.7-.5-5.6-3h.1c1.5.8 3.5 1 5.5 1.2l.3.6c0-1.9-.8-3.6-4.9-2.4-.3-.1-.6-.1-.9-.1-3.2-.4-6.7-.4-9.9-1.1v.1l-4.1-.4v5c3.7.4 7.3.2 11 .8v-.1c1.2.1 2.4.3 3.6.4.2 0 .5.1.7.1 2.2 1 2.2 1 4.2 1.2 0-.5.1-1.3.2-2.1 0-.1-.1-.1-.2-.2zm-21.9-.8v-4.7c-4.6-.9-8.9-1.1-13.5-1.3v5c.7.1 1.4.1 2 0h.6l3.4.3c2.5.3 5.1.9 7.5 1.1v-.4zm-7.7-4.6h-.2.2zm-.7-.1l-2.8-.2c1 0 1.8-.2 2.8.2zm-5-.4c.1 0 .2.1.4.1l-.4-.1zm-16.298 3.3v.3-.3c.2.2.4.3.7.3h.7c.6.1 2.6.3 2.5-.5.3 0 .6-.1.8-.1h.2c.2.1.4.1.7.1 2.7 1.9 3.7.5 5-.2 1.1.5 2.1 1.1 2.7.7h.6v-4.7h-.3l-7-.5c-.6-.1-1.2-.1-1.8-.1-.7-.4-2.7-.6-3.5-.2-.6 0-1.2-.1-1.7-.1v1.5c.2.9.4 1.4.4 1.8-.2 0-.3 0-.5-.1v.7c0 .7.2 1.1.5 1.4zm7.1-1.1c.6-.1 1.2-.1 1.8.1-.6 0-1.2 0-1.8-.1zm-1-2.9c-.3.1-.6.1-.9.2.2-.1.5-.1.7-.2h.2zm-28.7 1.303l4.6.4v-4l-14.8-1.3v3.6c-.4.2-.1.5 0 .9-.1.3.8.5 1 .4-.7-.2.1-.5-.2-.5 0-.2.1-.3.3-.3h.7l1.9.2c.2.2.5.5.7.3h-.1c.1-.1.2-.2.3-.2h.4c.5.1 1.2.6 1.7.3l-.1.1c1.3.3 2.5.2 3.6.1zm-11-3.4l-.1-2.4 2.4.2c.5 0 1 .1 1.6.1a16.96 16.96 0 0 1 3.1.6c0-.1 0-.2.1-.3l8.4 1.2v-.5l-7.5-.7c-.1-.2-.4-.2-.7-.4-.4.3-1.4-.1-1.7.2-1.1-.5-2.3-.4-3.5-.6-.2 0 .3.1-.1.2-.9.1-.3-.3-1.3-.3l.2.2c-.4.1-.8 0-1.2-.1 0 .4-.1.8-.2 1.2 0 .4-.1 1 0 1.3.3-.2.4.2.5.1zm33.1 13.2h.4a5.81 5.81 0 0 1 .1 1c3.8 2.2 7.5.9 10.4-.1 1.9.2 3.4.3 3.4.3v-4.7h-1.2c-.3 0-.6-.1-.9-.1-1.6-.4-1.8-.4-3.8-.3h-.6c-1.4-.4-5.3-.8-7.9-.5v.8c.4.5.5 1.6.3 2.5h-.3v.7c.1 0 .1-.1.2-.1 0 .1-.1.2-.2.3.1.1.1.2.1.2zm-33.5-3.2l-.1.3c.3 1 .3-1 .1-.3zm.5-1.002s-.1 0-.1-.1c.1.1-.1.2-.3.4.3-.1.4-.3.4-.3z"/><path d="M50.35 124.398c.3.1 0-.4.2-.5-.1 0-.3.1-.2.5zm85.598 7.8v-2.9c-.2-.8-2.2-.9-2.1-.2-.3 0-.7-.1-1-.1-2-.5-4.1-.6-6.2-.8-.3 0-.6 0-1-.1-1.9-.7-3.8-.9-6.7-.8h-.7c-.7 0-1.4-.1-2.1-.2v5l2.4.2h.8c2.5.9 6.5 1.2 7.9.4.2 0 .5.1.7.1l3.6.4c.5.1 1 .1 1.5.2.4 0 .8.1 1.1.1-.1.7 1.3.8 1.6.2h.3c-.2-.5-.1-1-.1-1.5zm-9.3-3.2c-.7.2-1.7.3-2.8.2.9.1 1.8 0 2.8-.2zm-72.2-7.5a16.96 16.96 0 0 1 3.1.6c0-.1 0-.2.1-.3l8.4 1.2v-.5l-7.5-.7c-.1-.2-.4-.2-.7-.4-.4.3-1.4-.1-1.7.2-1.1-.5-2.3-.4-3.5-.6-.2 0 .3.1-.1.2-.9.1-.3-.3-1.3-.3l.2.2c-.4.1-.8 0-1.2-.1 0 .4-.1.8-.2 1.2 0 .4-.1 1 0 1.3.2-.2.2.1.3 0l-.1-2.4 2.4.2 1.8.2zm59.3 10.102v-4.7l-1.7-.3c-.3 0-.6-.1-.9-.1-1.3-.2-5.3-.5-7.5-.7h-.8c-.8 0-1.7-.1-2.6-.1v5c.7.1 1.4.1 2 0h.5c.7.1 1.5.1 2.3.2.2 0 .4 0 .6.1.2-.1.4-.1.6-.2.8.3 1.9 1.1 2.5.6.3 0 .6.1.8.1l4.1.5v-.4h.1zm-5.6-3.7c.8 0 1.8-.1 2.8-.2-.8.2-1.8.2-2.8.2zm-5-1.3c.1 0 .2.1.2.1h-.8c.2-.1.4-.1.6-.1zm-2.8-.2c.1 0 .2.1.3.1-.1 0-.2 0-.3-.1zm-19.198 2.297v-4.3c-1-.7-3-.9-4.4-.8-.3 0-.6 0-.9-.1h-2.5c-1.1-.5-3.1-.7-4.2-.6-.2 0-.4 0-.6-.1v.8c.7.5 1.4.8 2.2.9-.8-.1-1.5-.4-2.2-.9v.3c-.1 1.3.1 2 .4 2.5h-.2v.8c1.2-.4 4.3-.2 5.9.5 0 .1.1.3.1.5.2 0 .5 0 .7.1l5.7.4s-.1 0 0 0zm-10.3-1.9c1.4-.3 3-1.1 3.7.4l-3.7-.4zm-9.4.2l4.6.4v-4l-14.8-1.3v2.9c-.3 1.3-.3 1.8-.1 1.8.1 0 .3-.1.6-.2.6.5.7.3 1.1-.4.2 0 .5.1.6 0 .1 0 .1.1.2.1.4 0 .9.1 1.4.1.2.2.5.5.7.3h-.1c.1-.1.2-.2.3-.2h.4c.5.1 1.2.6 1.7.3l-.1.1c1.2.3 2.4.2 3.5.1zm-9.5 6.7c-.4 0-.6.1-.7.1l-.2 3.5c-.3.2-.6.4-.9.8v.7c.3-.5.6-.8.9-1 0 .9.1 1 .2.7-.1.6-.1 1.4 0 2.6v.7c-.4.2-.1.5 0 .9-.1.3.8.5 1 .4-.7-.2.1-.5-.2-.5 0-.2.1-.3.3-.3h.7l1.9.2c.2.2.5.5.7.3h-.1c.1-.1.2-.2.3-.2h.4c.5.1 1.2.6 1.7.3l-.1.1c1.2.2 2.3.1 3.5 0l4.6.4v-4l-6-.5c-.2 0-.5 0-.7-.1-.9.2-2.2-.2-3.4-.7 1.3.4 2.7.6 4.1.1.3.1.6.1.9.2l5.1.6v-.6l-4.5-.5c-.3 0-.5-.1-.8-.1-2.1.7-4 .2-5.7-.2-1.1-.5-2.1-.8-2.8-.6h-.5l.9-2.6c1.1.8 2.3.8 3.5.7 1.8 1.2 3.7 2.2 5.4-.2h.3c.1 0 .2 0 .2.1.2 0 .4 0 .6.1l3.4.3v-4l-11.3-1c-.2 0-.5-.1-.7-.1-.3-.2-.6-.3-.8-.4a1.92 1.92 0 0 0 1.2-.4.9.9 0 0 1 .5.1c.2 0 .3.1.5.1.7.1 1.4.3 2 .5 0-.1 0-.2.1-.3l8.4 1.2v-.5l-7.5-.7c-.1-.2-.4-.2-.7-.4-.4.3-1.4-.1-1.7.2-.6-.2-1.1-.3-1.7-.4-.2 0-.4 0-.6-.1-.3.4-.7.6-1 .6-.3-.1-.6-.2-.8-.2-.9-.4-1.6-1.1-1.8.2-.6.2-1.3.6-1.9 1.1 2.1.1 4.1.3 3.8 2.8zm-.3 3.7c0 .1 0 .1 0 0-.1.1 0 .1 0 0zm-1.4-7.7c.3-.9.9-.5 1.6-.2-.5-.1-1.1 0-1.6.2zm-.2 3.903l-.1.4c.3 1 .3-1 .1-.4zm84.998 4.8h-.2.2c-.7-1.2-1.7-2.1-2.4-2.2-.2-.1-.4-.1-.7-.1a.76.76 0 0 0-.4.2c-.1.1-.3.2-.5.3-.3-.1-.5-.1-.8-.2-1.4-.4-2.6-.6-3.8-.7-1.1-.4-2.1-.6-3.4-.1h-1c-.3 0-.6-.1-.9-.1s-.6-.1-.9-.2v.1l-4.1-.4v5l8.7.5c.3 0 .5 0 .8.1.2.1.4.2.7.3.2.1.5.2.8.3 1.2.3 2.7 1 4.1 1.2-1.5.8-2.9 2.6-4.5 1.6h-1c-.3 0-.6-.1-.9-.1a34.69 34.69 0 0 1-4.5-.6v.1l-4.1-.4v5c3.7.4 7.3.2 11 .8v-.1c.2 0 .5.1.7.1s.5.1.7.1c1.1 1 5.1 1.4 7.1 1.5v-4c-.3.5-.6.9-.9 1.1-.3-.2-.5-.4-.8-.5-.3-.2-.6-.3-.9-.4-1.4-.5-3.4-.7-4.9-.6-.3 0-.5 0-.8-.1-1-.1-1.9-.5-2.8-1.3h.1c.3 0 .6 0 .9.1s.7.2 1 .3l.9.3c2.2.7 4.1.9 6.3 1 .3 0 .6.1.9.1s.6.1 1 .1v-1.3c-.8-1.5-1.6-2.3-2.3-2.7.9-.2 1.7-.8 2.3-2 0-.5-.1-1-.3-1.4l.3-.6c-.3 0-.5-.1-.7-.1zm-21.3 1.5v-5.1c-4.6-.9-8.9-1.1-13.5-1.3v5c.7.1 1.4.1 2 0h.6l3.4.3c2.5.4 5 1 7.5 1.1zm-7.7-5h-.2.2s0-.1 0 0zm-.7-.1l-2.8-.2c1-.1 1.8-.2 2.8.2zm-5-.5c.1 0 .2.1.4.1l-.4-.1zm-19.198 2.397v-4.4h-.1l-.8-.3c-.9 0-2-.2-2.8-.4v.1c-.9-.2-1.7-.2-2.6-.2h-.9l-1.5-.3c.6.3 1.1.7 1.5 1-.3 0-.5-.1-.7-.1-1.3-1.1-3.2-1.2-4.8-.4v.3c0 1 0 1.4-.1 1.7v2l12.8 1s-.1 0 0 0zm2.4-3.8v4.1c3.3.6 6.6.9 10 .6l4.3.4v-4.6h-.3c-4.7-.2-9.4-.8-14-1v.5zm-13.5-2.098c.8.1 1.7.1 2.5.3-.7-.3-1.5-.6-2.5-.3z"/><path d="M68.55 131.5a3.4 3.4 0 0 1 1.5-.7c-.5 0-1-.1-1.5-.1v.8zm-.1 10.8v1.3h.4c.3 0 .6.1 1.1.1s1 .1 1.6.1c.6.1 1.2.1 1.9.2l2.7.2 2.5.2c.7.1 1.4.1 1.8.1s.6.1.7.1v-4.4h-.1l-.8-.3c-.9 0-2-.2-2.8-.4v.1c-2.3-.4-4.7.1-6.6-.7l-2.5-.2v.8c.4.1.8.1 1.1 0-.1 0-.2-.1-.1-.1.2 0 .4.2.6.2-.1 0-.1-.1-.1-.1l3 .4-4.4-.4v2.8zm-18.5-.402l.1-.3-.2.2.1.1zm-.002-.5s.1-.2.3-.4c.3-.3.1-.2-.1-.1s-.4.3-.2.5z"/><use xlink:href="#B" y="111.2"/><path d="M100.25 142.3v4.2c-.3.8 1.7.9 2 0h.5c.6 0 1.2.1 1.8.2.3 0 .7.1 1 .1.4 1 .4 1 1.6.2.3 0 .6.1.8.1l5.8.8v-5.1c-4.6-.9-8.9-1.1-13.5-1.3v.8zm5.8.5h-.2.2zm-.7 0l-2.8-.2c1-.1 1.8-.2 2.8.2zm-4.6-.4h-.3l-.1-.1c.1 0 .2 0 .4.1zm-17.2-1.503v4.1c3.3.6 6.6.9 10 .6l4.3.4v-4.7h-.3c-4.7-.2-9.4-.8-14-1v.6zm16.8 10.4c-.3 3.3 1 1.2 2.2 2.2-.7-.1-1.1-.1-2.2-.1v.8c1.2 2.3 1.6-.3 2.4-.6.2.2.4.5.5.9.2 0 .4 0 .6.1.7.1 1.5.1 2.2.2l7.7 1.1v-5.2l-3.4-.5c-.2 0-.3 0-.5-.1-2-1.2-3.5-.8-4.9-.3-.1 0-.1 0-.2.1-.1-.1-.3-.1-.4-.2-.2-.1-.5-.1-.7-.2-.8 0-1.7-.1-2.3 0h-.2c-.3-.2-.6-.3-.7-.1-1-.1-2.1-.1-3.4-.1-.2 0-.4 0-.6-.1h-.6c-.6 0-1.2-.1-1.8-.1-3.5-.3-7-.7-10.5-.8v4.6c3.3.6 6.6.9 10 .6a75.39 75.39 0 0 1 3 .3c.3 0 .5 0 .7.1.5-2.3.7-2.8 0-3.4.8.3 1.9.4 3 .5.1.1.1.2.1.3zm1.5-.2c.6 0 1.1-.1 1.6-.1-.4.2-.9.2-1.6.1zm1.5-1.6c.3.1.6.1.8.2s.3.1.5.2c-.1.1-.3.1-.4.2 0 .1-.1.1-.1.2h-.1c-.4-.1-.7-.2-1.1-.3.1-.2.3-.3.4-.5zm-29.2-2.2c0 .1 0 .1 0 0h-.9c-1.1-.5-3.1-.7-4.7-.7v.8c.6.4 1.2.7 1.9.9-.7-.1-1.3-.4-1.9-.9v.3c-.4 3.8 2.3 2 4.7 3.1-1.9-.2-3.4-.3-4.5-.7l-.1.8c1.1-.3 3.6-.2 5.3.3.3.2.5.4.7.7.2 0 .5 0 .7.1l5.6.5v-3h.1c.3 0 .6.1.8.1-.1-.2-.2-.4-.3-.5.3-.6.3-1.5.3-1.5-1.6-.1-5.1-2-7.7-.3zm-10.4-.198l-12.5-1.1v3.6c-.4.2-.1.5 0 .9-.1.3.8.5 1 .4-.7-.2.1-.5-.2-.5 0-.2.1-.3.3-.3h.7l1.9.2c.2.2.5.5.7.3h-.1c.1-.1.2-.2.3-.2h.4c.5.1 1.2.6 1.7.3l-.1.1c1.2.2 2.3.1 3.5 0l4.6.4v-3.9s-.2 0-.6-.1c-.3 0-.9-.1-1.6-.1zm-13.8 2.698l.1-.2-.2.2h.1zm.5-1.298c.2.3-.8.5-.5.9l.6-.8c0-.1-.1-.1-.1-.1z"/><use xlink:href="#B" y="119.2"/><path d="M135.948 153.2c-.4 0-.7-.1-1.1-.1l-2-.2c-4-.9-8.4-.7-12.5-1.6v.1c-1.4-.2-2.7-.2-4.1-.4v5c3.7.4 7.3.2 11 .8v-.1l2.9.3c.5.1 1 .1 1.4.2 6.1 3.3 4.1-2.8 4.4-4zm-77.4-7.503c-.1-.2-.4-.2-.7-.4-.4.3-1.4-.1-1.7.2-1.1-.5-2.3-.4-3.5-.6-.2 0 .3.1-.1.2-.9.1-.3-.3-1.3-.3l.2.2c-.4.1-.8 0-1.2-.1 0 .4-.1.8-.2 1.2 0 .4-.1 1 0 1.3.2-.2.2.1.3 0l-.1-2.4 2.4.2c.5 0 1 .1 1.6.1a16.96 16.96 0 0 1 3.1.6c0-.1 0-.2.1-.3l6.8 1 1.7.2c-.5-.5-1-.6-1.5-.7l-5.9-.4zM50.05 157.5l-.1.3c.3 1 .3-1 .1-.3zm.5-1.902c-.1.1-.4.2-.2.5.3.2 0-.4.2-.5zm65.598 4.002v4.4c3.7.4 7.3.2 11 .8v-.1c1.4.2 2.9.3 4.3.5 1.5.2 3 .3 4.4.4v-4.4c-.2-.8-2.2-.9-2.1-.2-.3 0-.7-.1-1-.1-4-.9-8.4-.7-12.5-1.6v.1c-1.4-.2-2.7-.2-4.1-.4v.6zm-2.4 3.798v-4.7c-3.4-.6-6.7-.9-10.1-1.1-.6 0-1.1-.1-1.7-.1s-1.1-.1-1.7-.1v5c.7.1 1.4.1 2 0h.6l3.4.3c2.5.3 5.1.9 7.5 1.1v-.4zm-7.7-4.7h-.2.2zm-.7 0l-2.8-.2c1-.1 1.8-.2 2.8.2zm-5-.5c.1 0 .2.1.4.1l-.4-.1zm-38.9.6l4.6.4v-4l-14.8-1.3v2.9c-.7 1.4-.9 1.8-.4 1.6.2.4 1.2.5.8.3.2.1.5.1.6 0-.7-.2.1-.5-.2-.5 0-.2.1-.3.3-.3h1.2c.4 0 .9.1 1.4.1.2.2.5.5.7.3h-.1c.1-.1.2-.2.3-.2h.4c.5.1 1.2.6 1.7.3l-.1.1c1.3.5 2.5.4 3.6.3zM83.55 156.2v4.6c3.3.6 6.6.9 10 .6l4.3.4v-4.7h-.3c-4.7-.1-9.4-.7-14-.9z"/><path d="M68.45 154.598v.8c.4.1.8.1 1.1 0-.1 0-.2-.1-.1-.1.2 0 .4.2.6.2-.1 0-.1-.1-.1-.1l3 .4-4.4-.4v4l2 .2h.5c3.1 1.3 5.1 1.4 8.6.8.3 0 .6 0 .8.1.4 0 .6.1.7.1v-4.4h-.1l-.8-.3c-.9 0-2-.2-2.8-.4v.1c-2.3-.4-4.7.1-6.6-.7l-2.4-.3zm-18-.398V153l2.4.2c.5 0 1 .1 1.6.1a16.96 16.96 0 0 1 3.1.6c0-.1 0-.2.1-.3l8.4 1.2v-.5l-7.5-.7c-.1-.2-.4-.2-.7-.4-.4.3-1.4-.1-1.7.2-1.1-.5-2.3-.4-3.5-.6-.2 0 .3.1-.1.2-.9.1-.3-.3-1.3-.3l.2.2c-.4.1-.8 0-1.2-.1 0 .4-.1.8-.2 1.2v1.3c.4-.3.4-.7.4-1.1zm47.398 11.697v-.8h-.3c-1 0-2-.1-3-.2h-.6c-.2 0-.4-.1-.6-.1s-.5-.1-.7-.1c-2.5-.4-4.5-.6-7.3-.5h-.9c-.3 0-.5 0-.8.1a2.18 2.18 0 0 0 .1.6c.3.1.6.2.9.2s.7.2.9.2c1.3.4 2.9.6 4.3.8-1.5-.1-3.2-.4-4.5-.7-.2 0-.5-.1-.8-.2s-.5-.1-.8-.2a1.75 1.75 0 0 0 .1.5l.6.6c.2.2.4.4.6.5.1.3.2.6.4.8.1.1.1.2.2.2-.2 0-.5-.1-.7-.1h-.3c.2.2.5.3.8.5s.5.2.8.3c.9-.2 1.9-.2 2.8-.2.6.1 1.2.1 1.8.3.3.1.5.1.8.2 1 .3 1.2.3 1.3.4h.9c1.5.1 2.9.1 4 .4.1-.2.1-.4.1-.6.1-.7.1-1.6 0-2.6-.1-.1-.1-.3-.1-.3zm-47.898-.2l.1-.3-.2.2.1.1zm.5-1.4c.2.3-.8.5-.5.9l.6-.8s-.1 0-.1-.1zm-.1-.2c.3.1 0-.4.2-.5-.1 0-.3.2-.2.5zm69.898 3.1c-1.4-.2-2.7-.2-4.1-.3v5c3.7.4 7.3.2 11 .8v-.1c1.4.2 2.9.3 4.3.5 1.5.2 3 .3 4.4.4v-4.4l-3.1-.3c-3.9-.9-8.4-.7-12.5-1.6zm-10.698 2.8l-5.2-.4c1.6.7 3.2 2.1 5.3 2.1h.8c.5 0 1.1-.1 1.6-.2l1.7.2v-5.1l-1.7-.3c-.6-.1-1.1-.2-1.7-.2l-1.7-.2c-.3 0-.6-.1-.8-.1-.3 0-.6-.1-.8-.1.9.1-1.1-.1-1.7-.1-.3 0-.6 0-.8-.1l-4.2-.2v1.5c1.6 4.5 5.6.9 9.9 2.7.2 0 .5.1.7.2.3.1.6.3 1 .5-.5-.1-.9-.1-1.4-.1-.3-.1-.7-.1-1-.1zm.2-2.3c.2 0 .4 0 .6-.1-.2.1-.4.2-.6.1zm-9.4 2.2l.6-.3h-.5l-.1.3z"/><path d="M100.95 169.598h3.4c-1.1-.5-2.1-.7-3.4 0zm-39.5-2.9c.4 0 .8.1 1.2.1s.8.1 1.1.1c2.4 1.2 2.4 1.2 2.3-.1v-3.7l-14.8-1.3v3.6c-.4.2-.1.5 0 .9-.1.3.8.5 1 .4-.7-.2.1-.5-.2-.5 0-.2.1-.3.3-.3h.7c.6 0 1.2.1 1.9.2.2.2.5.5.7.3h-.1c.1-.1.2-.2.3-.2h.4c.5.1 1.2.6 1.7.3l-.1.1c1.3.3 2.5.2 3.6.1zm19.8-2.7c-1.6-.4-4-.7-6.3-.9.7.2 1.3.5 1.9.8-2.3-.8-4.3-.7-7.5-.3h-.9v4l2 .2h.5c2.4-.5 5.2.6 8.1-.3.3 0 .6.1 1 .1-.3 0-.6-.1-1-.1.6-.2 1.1-.4 1.7-.8.2-.1.3-.2.5-.3-.2-.4-.4-.6-.6-.8-.3-.1-.5-.3-.8-.4l1.3.3c.2 0 .4-.1.6-.2.1-.1.2-.3.2-.5-.2-.4-.4-.7-.7-.8zm-12.8-1.498v.8c.2 0 .4.1.6.1s.4 0 .5-.1c.6-.3 1.1-.5 1.7-.6-.8-.1-1.5-.1-2.2-.1-.2 0-.4 0-.6-.1z"/><path d="M71.248 162.7l3.7.3c-1.2-.4-2.4-.6-3.7-.3zm-18.4-1.602c.5 0 1 .1 1.6.1a16.96 16.96 0 0 1 3.1.6c0-.1 0-.2.1-.3l8.4 1.2v-.5l-7.5-.7c-.1-.2-.4-.2-.7-.4-.4.3-1.4-.1-1.7.2-1.1-.5-2.3-.4-3.5-.6-.2 0 .3.1-.1.2-.9.1-.3-.3-1.3-.3l.2.2h-.6c-.2 0-.4 0-.6-.1 0 .2 0 .4-.1.6 0 .2-.1.4-.1.6 0 .4-.1 1 0 1.3.2-.2.2.1.3 0v-2.4a8.33 8.33 0 0 0 1.2.1l1.3.2zm12.7 9.9c-1.1.8-2.7-2-3.7-1.2-.1-.1-.2-.1-.3-.1l-3-.2c-.1-.2-.4-.2-.7-.4-.4.3-1.4-.1-1.7.2-1.1-.5-2.3-.4-3.5-.6-.2 0 .3.1-.1.2-.9.1-.3-.3-1.3-.3l.2.2c-.4.1-.8 0-1.2-.1 0 .4-.1.8-.2 1.2 0 .4-.1 1 0 1.3.2-.2.2.1.3 0l-.1-2.4 2.4.2c.5 0 1 .1 1.6.1a16.96 16.96 0 0 1 3.1.6c0-.1 0-.2.1-.3l3.4.5c.2 0 .4.1.6.1-.1.1-.2.3-.2.5-.4 0-.9-.1-1.3-.1l-8.8-.8v3.6c-.4.2-.1.5 0 .9-.1.3.8.5 1 .4-.7-.2.1-.5-.2-.5 0-.2.1-.3.3-.3h.7l1.9.2c.2.2.5.5.7.3h-.1c.1-.1.2-.2.3-.2h.4c.5.1 1.2.6 1.7.3l-.1.1c1.2.2 2.3.1 3.5 0l4.6.4v-4c.2.2 0 .2-.3.2zm-15.598 2.7l.1-.3-.2.2.1.1zm0-.5l.6-.8s-.1 0-.1-.1c.2.3-.8.4-.5.9z"/><use xlink:href="#B" y="143"/><path d="M125.648 175.9c-.6-.1-1.2-.1-1.8-.2s-1.2-.1-1.8-.2l-1.8-.3v.1l-2-.2h-1.4c-.2 0-.5 0-.7-.1v.9c1.6 4.6 5.4 1.4 6.6 3.3l-6.4-.4v.5c-.5 3.2 3.5-.4 6.5 1.6.3 0 .6.1.9.1 1.5.1 2.8 0 3.5-.3v-.1l4.3.5 4.4.4v-4.4l-3.1-.3c-2.3-.6-4.8-.7-7.2-.9zm-28.998-2.802c-2.7-.5-6.6-.8-8.9-.7-.3 0-.5 0-.7-.1l-3.5-.2v4.6l5.1.7c.6 0 1.2.1 1.8.1.3.2.7.1 1 0 .2-.1.4-.1.6-.2l1.8-.7c.3.1.7.1 1.2.2.3.1.6.1.9.2.6.2 1 .4 1.4.7.4 0 .6.1.6.1v-4.7h-1.3zm-16.4-1.4c-2.2-.5-2.2-.5-3.6-.4-.3 0-.6 0-.9-.1-1.7-.1-3.4.1-4.9-.5-.2 0-.4 0-.6-.1-.2 0-.4 0-.7-.1.5-.1-1.5-.3-1.3-.1v.8c-.1-.8 1.4-.8 1.6-.2-.3-.6-1.7-.6-1.6.3v.3c-.2.7-.2 2.7.1 2.7v1.1l12.7 1v-4.4h-.1l-.7-.3zm-9.3-.2c-.4 0-.7-.1-1-.1v-.2c.3 0 .6.1.8.1l2.1.3c-.7 0-1.3 0-1.9-.1zm31.298 6.802h.5c.2 0 .4 0 .7.1.2 0 .4 0 .6.1 2 1.2 4 1.3 8.1 1.1.3 0 .5.1.8.1s.5.1.8.1v-5c-2.6-.5-5-.8-7.6-.9-.3 0-.6 0-.8-.1l-5.1-.3v5c.7-.2 1.3-.1 2-.2zm3.8-3.7h-.2.2zm-.7-.1l-2.8-.2c1 0 1.8-.2 2.8.2zm-5-.4c.1 0 .2.1.4.1l-.4-.1zm-49.098 7.3c-.4.2-.1.5 0 .9-.1.3.8.5 1 .4-.7-.2.1-.5-.2-.5 0-.2.1-.3.3-.3h.7l1.9.2c.2.2.5.5.7.3h-.1c.1-.1.2-.2.3-.2h.4c.5.1 1.2.6 1.7.3l-.1.1c1.2.2 2.3.1 3.5 0l4.6.4v-4l-14.8-1.3v3.7h.1zm-1.3.197l.1-.3-.2.2.1.1z"/><use xlink:href="#C" y="143"/><path d="M50.35 180c.3.1 0-.4.2-.5-.1 0-.3.1-.2.5zm69.898 3.097h-.7c-.2 0-.5 0-.7-.1h-.7c-.7 0-1.4-.1-2.1-.2v.9c-1.6 1.7.9 2.5 1.8 3.1h-.3c.2-.3-1.8-.4-1.7-.2v.5c-.1 1.2-.1 1.2 1.8.8h.8c2.9.2 5.7.1 8.7.6v-.1l4.3.5 4.4.4v-4.4l-3.1-.3c-3.9-.8-8.4-.6-12.5-1.5zm-8.2-.897c-.3 0-.6-.1-.8-.1-.5-.1-1-.1-1.6-.2l-4.6-.4c-.5 0-1-.1-1.6-.1l-3.2-.2v5c.7.1 1.4.1 2 0h.5c.4 0 .8.1 1.2.1.2 0 .4 0 .6.1.7.7 1.4 1 2.1 1 2.4 1.4 5.6-1.1 7.3.8-.9-2-2.3-2.2-3.8-2.1 1.1-.5 2.3-.7 3.8.1 0-3.5-1.5-1-3.5-2.4 1.2.3 2.4.4 3.5.5 1.9-1.9-.1-2.1-1.9-2.1zm-6 .4h-.2.2c0-.1 0-.1 0 0zm-.7-.1c-.4 0-.8-.1-1.2-.1-.6-.1-1.1-.1-1.6-.1 1-.1 1.8-.2 2.8.2zm-5-.5c.1 0 .2.1.4.1-.2 0-.3 0-.4-.1zm-4.598-1.1c-1.8-.4-1.8-.4-3.5-.3-.6 0-1.2-.1-1.8-.1l-7-.5v4.6c3.3.6 6.6.9 10 .6l4.3.4v-4.7h-.3c-.5.1-1.1.1-1.7 0z"/><path d="M80.25 179.698h-.7c-.2 0-.5 0-.7-.1-2.7-.6-4.7-.8-7.2-.6-.3-.1-.5-.1-.8-.2l-2.5-.2v.8c.4.1.8.1 1.1 0-.1 0-.2-.1-.1-.1.2 0 .4.2.6.2-.1 0-.1-.1-.1-.1.3 0 .6.1.9.1s.6.1.9.1c0 .2.1.4.1.5-.4-.1-.6-.3-.8-.5h-.5l-2-.2v4l2 .2h.6c.6.6 1.9-.1 3.4-.5 1.1.1 2.3.3 3.6.6.2.2.4.3.5.6h.5l1.9.2v-4.5h-.1l-.6-.3zm-1.9.5c-1.1.3-2.5.4-3.8.3 1.1-.3 2.5-.6 3.8-.3zm-2.9 2.6c.4 0 .8 0 1.3.1-.4 0-.8-.1-1.3-.1zm-17.602-5.7c-.4.3-1.4-.1-1.7.2-1.1-.5-2.3-.4-3.5-.6-.2 0 .3.1-.1.2-.9.1-.3-.3-1.3-.3l.2.2c-.4.1-.8 0-1.2-.1 0 .4-.1.8-.2 1.2 0 .4-.1 1 0 1.3.2-.2.2.1.3 0l-.1-2.4 2.4.2c.5 0 1 .1 1.6.1a16.96 16.96 0 0 1 3.1.6c0-.1 0-.2.1-.3l8.4 1.2v-.5l-7.5-.7c.1-.2-.2-.2-.5-.3z"/><path opacity=".5" d="M131.748 37.1c.1-.6.2-1.2.2-2.1-.2.5-.2 1.3-.2 2.1z"/><path opacity=".5" d="M137.248 182.4c.2-1.9-.2-3 0-4.7v.2c.1-.6 0-1.9.1-3 0 .3-.1.6-.1-.1l.1-3.1-.1-.9-.4-55.1c.1-1.1.1-2.6.1-3.8-.1.6-.1.4-.1-.1 0-3.5-.1-.2-.1-3.8-.1-4.1 0-19.8.1-23.4-.2-2 0-4.4-.2-6.3v.2c-.1-2.1.1-13.7 0-16.1v.3c-.1-2.1.1-1.8.1-3.4-.2.2-.3-1.6-.3-2.3 0-1-.2-3.4-.2-5.1l.1.1c-.1-1.4-.1-4.1-.1-5.1 0-2.3.2-5.9.1-9l.3-2v-.3s-3.8-3.2-4.6.9l-.1-.1v.8c-.1 1 .1 1.4 0 1.4v-1.3c0 1-.1.3-.2-.1 0 .4 0 .8-.1 1.1 0 .2 0-.1.1-.3 0 .5.1 1.3.1 1.9 0 1-.2.1-.2 1.2l-.2 18.4c0 .1 0 0-.1-.2 0 1.9 0 3.5.1 5.3 0 .5-.1.6-.2.7.1-.3.1 9.4.1 9.6l.2.1c0 1.8-.2.5-.2 2.2.3.7 0 2.8.1 3.4 0 0 0 .8-.1.8.2.3 0 .9.1 1.4 0 .2 0-.1.1-.3l.1 1.2c0 .5-.1.6-.2.1-.1 3.2-.2 18.3-.1 21.7.1-.4 0-1.5.2-1.9.1.9 0 1.3.1 1.7-.3.3-.1 2-.3 2.7l.2.3-.1.4c.2 4 .1.9 0 4.4 0 2 .2 3 .2 4.1 0-.2.1-.6.1-.1-.1.1.1 1.4 0 1.7 0 .5 0 2.2.2 1.6-.1.3-.1 1.8-.2.9v1.4l.1-.6c0 1.7-.1 2.6.1 3.7l.1-.6c0 1 0 1.9-.2 2.3l-.1-1c0 1.7 0 2.7.1 4.1v-.5c.2 1.8.3 11.1.6 12.8l.1-.8.1 1.4c0-.2-.5-.7-.4-.8v21.6c-.1 1.1-.2.2-.2.2.1 1.4.2.6.1 1.8 0 .3-.1-.1-.1-.2v1c.1-.6.2-.4.3-.6v1.5l-.1-.1c0 .3.3.9.2 2.3v7.7c-.1 0-.1-.6-.1-1.1v1.2c.1-.6.1 1.1.1.6.3 1.8 0 4.2.2 5.8.2.1 4.2 3.5 4.5 3.5v1.2c.1-.1.1-1.1.1-1.6l-.2-.1c-.1-1.2.1-.3.1-1.5.1-.1.2 1 .2 2 0-.9.1-1.7 0-2.1.1-.8.2.1.2-.9-.3-.8-.4-1.7-.3-2.5zM54.05 27.498l-1-.1 1 .1zm69.598 6.8l-.3-1.1-1.2-1.2-3.5-.1-2.7-.7-6.7-.5-.5.2c-1.3-.6-3-.2-4.4-.7l-.1.2c-.4 0-.4-.2-.5-.2-3.7-.3-7.5-.3-10.8-1-.3-.2-1.3-.2-1.5-.4-1.1.2-2.3.1-3.3-.1h-.4v-.1c-.5.1-1.3-.3-2.1-.5h.1c-.5-.1-1.1-.2-2-.1-.5.1-1.1.3-1.5.7l-.7-.6h-.2c-2.3-.1-4.6-.3-6.9-.7-1.9-.6-4.1-.2-6.2-.8-.4-.3-4.8-.5-5.2-.5l.5.4c-1.6 0-2.4-.4-3.8-.3l.1-.1c-.2-.1-.4.6-2.5-.5-.1 0-.1.1-.2 0l.4.2c-.2.1-.5.2-.8.2-.1 0-.1-.1-.1-.2h-.8l-.2-.2c-.2.1-.2.5-.8.2.2.3-.3.1-.3.3 0 0-.1-.1-.1-.2-.4 0-1.1 0-1.3.1 0 0 1.4.7 1.8 1.1-.5-.1-.1 0 0 .1v-.1c.3.1.3.3.4.3v-.2s0-.1.1 0c.1 0 .4 0 .5.1v.2c.1-.1.3 0 .6.1l-2.4-.2c.6.1 1.4.1 2.4.2.5.2 1 .5 1.2.6.3.2.7 0 1.1.2.6.1.3.2.6.4.4.1-.1-.2.1-.2l.4.3c-.3 0-.1.1-.1.2.4.1 1 .4 1.2.1.5.2.5.3.8.4-.1-.1-.2-.1-.2-.2.2.2.1 0 0-.1.3-.1 1.7.7 1.8.4v.1c.1-.2 0-.5.2-.6l.1.1.2-.1c.1.1.1.2.1.2.4-.1.9.1 1.4.2l-.4-.7c.4.2 1 .6 1.1.4l.2.2c.7.5.6-.1.9 0l.4.3h-.4c.4.2.5.3.8.4h.1c.1-.1.3-.2.5-.1.4.1.7-.1 1.3.2l.2-.2.5.2v.2c-.5-.1-1.3-.1-1.9-.1v.1h1c.1.1.4.3.2.4l.2-.2c1.2.1 1.2.1 2.4.4l-.1-.1c.2 0 .5-.1.5.1.7.1 1.5.3 1.9.6l.1-.2c.2 0 .3.4.5.1l.3-.1c.2 0 .4-.1.6.1.5.2 0-.2.5 0 .2.2.2-.3.5-.2l.2.4c.5.2.6-.1 1.3 0 .3.2.5.5.2.7.3-.3.2-.2.6-.3 0 .1 0 .2-.1.3.3.2.2-.1.5-.1l.3-.6c.1.1.2.3.4.4l-.1-.2c.1.1.4.3.7.5s.7.2.9.3v.1c.4.1.7.1 1 0s.5-.2.7-.3l1-.5c0 .1 0 .3-.1.4l.2-.2v.3c.2-.3.1.1.4 0 0 .1-.1.1 0 .2.2-.1.4-.1.6-.2l-.4.1.1-.3c.4-.2.4.1.7.1l-.2.1c.4 0 .4.2.7.3-.1-.1-.2-.2 0-.2.1 0 0 .1.2.2.1-.2.4-.3.7-.2v.1c.1 0 .1-.1.3 0l-.1.3c.1-.1.2-.1.3-.2.1.1.4-.1.3.1h-.1l1.1.2v.2c.1-.3.6.2.6-.2.2.2.8-.1.7.3.7.1 1.2-.3 2 0 .3.4 1.2.4 1.7.4 1.1 0 1.9-.1 3-.1.6.6 1.7 0 2.4.3l.2-.2c.5.4 1.2.1 1.9.4.2-.1.3-.1.3-.1s-.1-.1-.1-.2c.2.1.6 0 .5.3h-.1c-.1.2.6-.1.8.2l-.1-.3.4.1h-.1c1.7-.4 2.3.5 3.9.1-.2.3.3-.1.3.2.3.4.7 0 1-.1v-.1l.5.1c-.4.4.4-.3.1 0 1.4.4 3.3.3 5 .6l-.1-.1c.4.1 1 0 1.3.2s.7-.2.8-.2c.4-.1.7.2.5.2.4 0 .8-.3 1.3-.1.1.4 1.4-.2 1.4.2.6.3 1.3-.1 2 .2v.1l1.6-1 .3-.3c-.1 0-.1 0 0 0zm-42.6-2.7l-.2-.1h.1l.1.1z"/><path opacity=".5" d="M79.95 32.2l-.1.1.1-.1zm-3.7-.7c-.1 0-.1.1 0 0h0zm33.098 2.998h0c0-.2-.1-.2-.2-.1 0 .1.2.1.2.1zm-53.998-7c.1-.1 0-.1 0 0h0zm12.698 2.6s-.1 0 0 0c.1.1.3.1.5.1v-.1h-.5zM65.45 29.6l-.1-.1.1.2v-.1zm-11.002-3.803c-.1 0-.1 0 0 .1h.2s-.1-.1-.2-.1zm12.9 90.803l-.1-.1c-.1 0 0 .1.1.1zm2.102-33.1c.1.1 0 .2.1.2 0-.1 0-.2-.1-.2zm-2.802 22.098c0-.1-.1-.1 0 0h0zM69.45 92.5s0 .1.1.1l-.1-.1z"/><path opacity=".5" d="M70.45 98.7c-.1-.5-.2-1.1-.2-1.5-.2-.1-.2-.2-.2-.4h.3l-.1-.1c.1 0 0 .1.1 0h-.2c.1 0 .1-.3.2-.1v-.5c0-.1-.2-.1-.1-.2h.1c.2-.3-.5-.4-.4-.7-.1-.1-.1-.2-.1-.2-.3 0 .1.1 0 .2-.2 0-.1-.1-.3-.1.1-.1 0-.1-.1-.2.1-.1 0-.3.2-.4-.1-.1-.3-.1-.3-.2.2-.1.2 0 .2-.1h-.1c0-.1.1-.1.1-.1 0-.1-.2-.1-.1-.2l.1.1v-.3c.1 0 .1.1 0 .1.2-.1-.1-.1-.1-.2-.1 0-.1.1-.2.1 0-.1-.2-.1 0-.2l.1.1c-.1-.1-.2-.1-.1-.2h.1c-.2-.1 0-.2 0-.4-.1 0-.1-.1-.1-.1-.1.1-.1.1-.2.1.2-.1-.2-.2-.1-.3.1 0 .2 0 .1.1.2.1.4.1.5.2 0-.1-.1-.1 0-.1h-.2v-.1c-.1 0-.2.1-.3 0s.2-.1.1-.1c-.1-.1-.2-.1-.1-.2 0 0 .1 0 0 .1.1-.1 0-.2.2-.3.1 0 .1 0 .1.1.2.1 0-.1.2-.1-.1 0-.1-.1-.1-.2h-.1c-.4-.2.3 0 .2-.2-.1-.1 0 .1-.1 0 0-.1.2-.1.1-.3.1 0 .1-.1.3-.1-.1-.1.1-.2-.1-.3-.1.1.2.1 0 .3h-.2c0-.1-.1-.3 0-.3h-.1c-.1-.2-.2-.2-.2-.4.1 0 .1.1.1.1.1-.1 0-.1.1-.3.1 0 0 .1.1.1v-.2c-.2 0 0-.1 0-.2 0-.2-.3-.3-.5-.4h.2c-.1.1 0 .1 0 .1 0-.1.2-.2.3-.1-.1-.1-.1 0-.2 0v-.2c-.1 0-.1.1-.2 0v-.2h.2c0-.1 0-.1-.1-.2-.1.1-.1-.2-.3-.1l.1-.1s.1 0 0 .1c.2 0 0-.1-.1-.1 0 0 0-.1.1-.2 0 0 0-.1.1-.1 0-.1-.1 0-.2 0v-.2h.4c-.1-.1-.3 0-.3-.1.2.1.1-.1.3-.1.1-.1.1-.2.1-.3-.1-.1-.1.1-.2.1-.1-.3-.5-.3-.4-.5v.1l-.2-.2c.2 0 .5-.1.4-.3-.1 0-.2.1-.3.1v-.1h.1c-.1-.1.2-.2 0-.3l.3-.1h-.1c-.1 0-.1-.1-.1-.2-.1-.1 0-.2.1-.3-.1 0-.2.1-.3 0 .3 0 .1-.2.3-.2 0 0 .1-.1 0-.1h.2c-.3 0-.2-.2-.3-.3.3 0 0-.1.3-.2-.2 0-.1-.2-.3-.2 0-.1.2-.1.3-.1h-.1c.1 0 .1-.2.2-.3l-.2-.1h.1c-.1 0-.1-.1-.2 0v-.1c-.2 0-.1-.1-.2-.2h.1c0-.1.1 0 .2-.1-.1 0-.4-.2-.5 0-.1 0-.2-.1-.1-.1h.2l-.2-.1c0-.1.1-.1.1-.2 0 .1.4.1.4 0 0 .1.1.1.2.2 0 0 0-.1.1 0-.1-.1-.1 0-.1-.2.2 0 .2 0 .3-.1l-.1.1h-.1s-.2-.2-.1-.2c-.3.1-.2-.2-.4-.1-.1 0-.1-.1 0-.1.1.1.2-.1.3-.1-.1 0-.1.1-.2 0 0-.1.1-.1.2-.2l.1-.1c-.1 0-.2.1-.2 0 0 0 0-.1.1-.1s.3 0 .3.1c0-.1 0-.3-.2-.2V83c-.1 0-.2.2-.2 0l-.1-.1h.1s-.1 0-.1-.1h.1c0-.1-.1-.1-.2-.1 0-.1 0-.1.1-.1 0-.1 0-.2.1-.3-.1-.1 0 0-.2 0 .3-.1.1-.4.1-.6-.3.1 0-.1-.3-.1.1 0 .2-.2.3 0v-.1c.2-.1.1.2.3.1 0-.1-.3-.2-.2-.3.2 0-.1-.1.1-.1.1 0 0 .1.1.1.1-.3-.2-.1-.4-.2 0-.2.2-.1.2-.1v-.1c.1.1-.1.2-.2.1.2-.1 0-.2-.1-.3-.2.2 0 .2-.3.4.1 0 .3 0 .2.2-.1-.1-.1 0-.1 0 .1 0 0 .1.1.1-.1 0-.3-.1-.3.1h.3c0 .1-.2 0-.1.1-.1-.1-.2 0-.3-.1-.2.2.1.3.2.4h-.1c.1 0 .1.1.1.1-.1.1-.1-.1-.2 0v.1s.1.1 0 .1-.2-.1-.2-.1l.2.2c-.1 0-.2.1-.2 0v.2h-.2c0 .1.1.1.1 0 0 .1.3.3 0 .3.1.2.1.2.2.5-.2-.2-.2.2-.3 0-.1.1.1.1.1.2-.1.1-.3 0-.3 0l.2.2c-.1.1-.2 0-.2.1h.2l-.1.1c.1 0 .1 0 .1.1v.1c-.1-.1 0 .1-.2 0v.2h.1c.1.2-.2 0-.2.1h.1c-.2.2.1.3 0 .5 0-.1-.2-.1-.1-.1 0 .1 0 .3.2.4-.2 0-.2.1-.3.2 0 .1 0 .1.1.1-.1.1 0 .3-.1.3.1 0 0 .1.1.1h-.1.1c-.3.2.2.3-.1.4v.1h-.2v.3l.1-.1c0 .1.1.1.1.2-.2-.1 0 .1-.2.1v-.1c0 .1 0 .1.1.1 0 .1-.2.1-.1.2V87c.1 0 .2 0 .2.1h-.1v.3c0 .1-.1 0-.2 0 .1.2 0 .1.1.3h-.1l.1.1-.2.1h.1c0 .1.1.1 0 .2h-.1c.1.2-.2.2 0 .4h-.1c.2.2-.2.1 0 .3h-.1l.1.1h-.1l.2.1h-.1.1c-.3.1-.1.2-.3.3h.2c.4.3-.2.6 0 1h-.1l.2.1c-.1.1-.1 0-.2 0 .1.1.2.1.3.2-.1.1-.1 0-.2-.1.1.2.1.4.1.5h.1c.1.1 0 .2 0 .4-.1 0-.1 0-.1-.1 0 0-.1.1 0 .1h-.1c0 .1.1.3-.1.3.1 0 .2 0 .2.1-.2 0 .1.2 0 .3-.1 0-.1-.1-.1-.1-.1.1 0 .1.1.2h-.1l.1.3c-.2 0 0 .3-.1.3 0 .1.1-.1.1 0-.1 0 0 .1-.1.1v.1l-.1-.1c0 .1.2.1.3.1-.1.1 0 .2-.1.2.1.2-.4.4-.1.5h-.1v.1h-.1l.2.2h-.1v.6c.1.2-.1.2 0 .3v.1h-.1c.2.1-.2.3-.1.2l.2.2c0 .1-.1 0-.2.1 0 .1.1.1.1.3h-.1c0 .1.1.1.1.2.2.2-.2.2.1.3-.1.1 0 .2-.2.2.1.2.1.3.2.5-.2 0 0 0-.1.2h.1c0 .3-.3.6-.2.9h-.1l.1.1c-.1.3-.1.7-.1 1 .1.1.2.2.2.3.1.2.1.5.1.7h-.1c.1.1 0 .1 0 .2l.1-.1c.1.1 0 .2-.1.2l.1.1h-.1.1l-.2.1s.1.2.2.2c-.1 0-.1.1-.1 0l-.1.4.1-.1c.1 0 .2.1.1.2-.1-.1-.2 0-.3 0 .1.1.1 0 .2 0 .1.1.1.2.1.3h-.1c0 .1-.2.1-.2.2.1.1 0 .1.2.1 0 .1-.1 0-.2.1.1.1 0 .2-.1.2.3.1-.1.3.2.3l-.2.1c.1 0 .2 0 .3.1-.1.1-.2.1-.3.1l.3.1c-.3.4-.1 1-.3 1.5.1.2.2.5.1.7l-.1.2.1-.2c0 .1.1.1.1.1-.1.3-.2.6-.1 1 .3.2-.3.1 0 .3h-.1c.1.2.2.3.3.6-.3 0 0 .1-.2.1h.1c-.1 0-.1.2-.2.1l.2.1h-.1c0 .1.1.4-.2.5.2.3.1.8.1 1.2.1.1.1.2.1.3l-.2.1c0 .1.2.2.1.3 0 .1 0 .2.1.3 0 .1-.1.2-.2.2.3 0 0 .2 0 .2s-.6 5.4.8 6.7c.1 0 .2.2.4.1 0 .1-.2.1 0 .2.1-.1.3 0 .5-.1v.1c.1 0-.1-.1.1-.1h-.2c0-.1.1-.1.2-.1-.1-.1-.4-.1-.3-.2 0-.1.2-.1.2-.1l.1-.1c-.1.1.1.2.1.1.1-.1-.1 0-.1-.1s.1 0 .2 0v-.1c.1 0 0 .1.1 0l-.1-.1c.3 0-.1-.2.1-.2.1.1.1 0 .2 0v-.3s.1.1.1 0c.1 0-.1-.1-.1-.1.1 0 0-.2.2-.2.1-.2-.2-.1-.1-.2.1 0 0 .1.1.1v-.2c.1 0 .2 0 .2.1.1-.5.7-.7.6-1.1.1-.1.1 0 .2.1-.2-.3.3-.4.3-.7h-.1c.3-.4.1-.8.3-1.2h-.1l-.2-.2c.1 0 .2 0 .2-.1l-.1.1c.3-.4.2-1.1.3-1.7-.1-.8.1-1.6.1-2.4 0 .1-.3.1-.2 0 .5-.2-.1-.4.2-.7-.1-.5.2-.9-.1-1.3h.1c.1-.1 0-.1 0-.1 0-.2-.1-.3 0-.4h-.1c0-.1.1 0 0-.1h.1l-.1-.1c.3 0 0-.3.1-.3 0-.1-.2-.3-.1-.5.1 0 .1-.3.2-.4 0-.3-.1-.7 0-1h-.2v-.1h.1c.2-.1-.1-.2.1-.3-.1 0 0 .1 0 .1-.1.1-.2 0-.2-.1l-.1-.1c.1 0 .2-.1.3-.1 0-.3-.2-.5-.2-.8.1 0 0-.2.2-.2-.1-.2-.2 0-.4-.1 0-.1-.1-.1 0-.1h.2v-.1h.1c-.1-.3.2-.5 0-.7-.1 0 0 .1-.1.1-.2-.2.2-.2 0-.4h.1c-.1-.1-.2-.1-.1-.2.1 0 .1.1.2.2 0-.1 0-.3-.2-.2 0-.1.1-.1.1-.2 0 0-.1.1-.2 0 .1-.1.1-.3.1-.5h.1c-.4-1.1 0-1-.1-1.2z"/><path opacity=".5" d="M69.748 94.1h.1c0-.1 0 0-.1 0zm27.6 66.5l-.1-.1c-.1 0 0 .1.1.1zm2.102-33.1c.1.1 0 .2.1.2 0-.1 0-.2-.1-.2zm-2.802 22.098c0-.1-.1-.1 0 0h0zM99.45 136.5s0 .1.1.1l-.1-.1z"/><path opacity=".5" d="M100.45 142.7c-.1-.5-.2-1.1-.2-1.5-.2-.1-.2-.2-.2-.4h.3l-.1-.1c.1 0 0 .1.1 0h-.2c.1 0 .1-.3.2-.1v-.5c0-.1-.2-.1-.1-.2h.1c.2-.3-.5-.4-.4-.7-.1-.1-.1-.2-.1-.2-.3 0 .1.1 0 .2-.2 0-.1-.1-.3-.1.1-.1 0-.1-.1-.2.1-.1 0-.3.2-.4-.1-.1-.3-.1-.3-.2.2-.1.2 0 .2-.1h-.1c0-.1.1-.1.1-.1 0-.1-.2-.1-.1-.2l.1.1v-.3c.1 0 .1.1 0 .1.2-.1-.1-.1-.1-.2-.1 0-.1.1-.2.1 0-.1-.2-.1 0-.2l.1.1c-.1-.1-.2-.1-.1-.2h.1c-.2-.1 0-.2 0-.4-.1 0-.1-.1-.1-.1-.1.1-.1.1-.2.1.2-.1-.2-.2-.1-.3.1 0 .2 0 .1.1.2.1.4.1.5.2 0-.1-.1-.1 0-.1h-.2v-.1c-.1 0-.2.1-.3 0s.2-.1.1-.1c-.1-.1-.2-.1-.1-.2 0 0 .1 0 0 .1.1-.1 0-.2.2-.3.1 0 .1 0 .1.1.2.1 0-.1.2-.1-.1 0-.1-.1-.1-.2h-.1c-.4-.2.3 0 .2-.2-.1-.1 0 .1-.1 0 0-.1.2-.1.1-.3.1 0 .1-.1.3-.1-.1-.1.1-.2-.1-.3-.1.1.2.1 0 .3h-.2c0-.1-.1-.3 0-.3h-.1c-.1-.2-.2-.2-.2-.4.1 0 .1.1.1.1.1-.1 0-.1.1-.3.1 0 0 .1.1.1v-.2c-.2 0 0-.1 0-.2 0-.2-.3-.3-.5-.4h.2c-.1.1 0 .1 0 .1 0-.1.2-.2.3-.1-.1-.1-.1 0-.2 0v-.2c-.1 0-.1.1-.2 0v-.2h.2c0-.1 0-.1-.1-.2-.1.1-.1-.2-.3-.1l.1-.1s.1 0 0 .1c.2 0 0-.1-.1-.1 0 0 0-.1.1-.2 0 0 0-.1.1-.1 0-.1-.1 0-.2 0v-.2h.4c-.1-.1-.3 0-.3-.1.2.1.1-.1.3-.1.1-.1.1-.2.1-.3-.1-.1-.1.1-.2.1-.1-.3-.5-.3-.4-.5v.1l-.2-.2c.2 0 .5-.1.4-.3-.1 0-.2.1-.3.1v-.1h.1c-.1-.1.2-.2 0-.3l.3-.1h-.1c-.1 0-.1-.1-.1-.2-.1-.1 0-.2.1-.3-.1 0-.2.1-.3 0 .3 0 .1-.2.3-.2 0 0 .1-.1 0-.1h.2c-.3 0-.2-.2-.3-.3.3 0 0-.1.3-.2-.2 0-.1-.2-.3-.2 0-.1.2-.1.3-.1h-.1c.1 0 .1-.2.2-.3l-.2-.1h.1c-.1 0-.1-.1-.2 0v-.1c-.2 0-.1-.1-.2-.2h.1c0-.1.1 0 .2-.1-.1 0-.4-.2-.5 0-.1 0-.2-.1-.1-.1h.2l-.2-.1c0-.1.1-.1.1-.2 0 .1.4.1.4 0 0 .1.1.1.2.2 0 0 0-.1.1 0-.1-.1-.1 0-.1-.2.2 0 .2 0 .3-.1l-.1.1h-.1s-.2-.2-.1-.2c-.3.1-.2-.2-.4-.1-.1 0-.1-.1 0-.1.1.1.2-.1.3-.1-.1 0-.1.1-.2 0 0-.1.1-.1.2-.2l.1-.1c-.1 0-.2.1-.2 0 0 0 0-.1.1-.1s.3 0 .3.1c0-.1 0-.3-.2-.2v-.1c-.1 0-.2.2-.2 0l-.1-.1h.1s-.1 0-.1-.1h.1c0-.1-.1-.1-.2-.1 0-.1 0-.1.1-.1 0-.1 0-.2.1-.3-.1-.1 0 0-.2 0 .3-.1.1-.4.1-.6-.3.1 0-.1-.3-.1.1 0 .2-.2.3 0v-.1c.2-.1.1.2.3.1 0-.1-.3-.2-.2-.3.2 0-.1-.1.1-.1.1 0 0 .1.1.1.1-.3-.2-.1-.4-.2 0-.2.2-.1.2-.1v-.1c.1.1-.1.2-.2.1.2-.1 0-.2-.1-.3-.2.2 0 .2-.3.4.1 0 .3 0 .2.2-.1-.1-.1 0-.1 0 .1 0 0 .1.1.1-.1 0-.3-.1-.3.1h.3c0 .1-.2 0-.1.1-.1-.1-.2 0-.3-.1-.2.2.1.3.2.4h-.1c.1 0 .1.1.1.1-.1.1-.1-.1-.2 0v.1s.1.1 0 .1-.2-.1-.2-.1l.2.2c-.1 0-.2.1-.2 0v.2h-.2c0 .1.1.1.1 0 0 .1.3.3 0 .3.1.2.1.2.2.5-.2-.2-.2.2-.3 0-.1.1.1.1.1.2-.1.1-.3 0-.3 0l.2.2c-.1.1-.2 0-.2.1h.2l-.1.1c.1 0 .1 0 .1.1v.1c-.1-.1 0 .1-.2 0v.2h.1c.1.2-.2 0-.2.1h.1c-.2.2.1.3 0 .5 0-.1-.2-.1-.1-.1 0 .1 0 .3.2.4-.2 0-.2.1-.3.2 0 .1 0 .1.1.1-.1.1 0 .3-.1.3.1 0 0 .1.1.1h-.1.1c-.3.2.2.3-.1.4v.1h-.2v.3l.1-.1c0 .1.1.1.1.2-.2-.1 0 .1-.2.1v-.1c0 .1 0 .1.1.1 0 .1-.2.1-.1.2v-.1c.1 0 .2 0 .2.1h-.1v.3c0 .1-.1 0-.2 0 .1.2 0 .1.1.3h-.1l.1.1-.2.1h.1c0 .1.1.1 0 .2h-.1c.1.2-.2.2 0 .4h-.1c.2.2-.2.1 0 .3h-.1l.1.1h-.1l.2.1h-.1.1c-.3.1-.1.2-.3.3h.2c.4.3-.2.6 0 1h-.1l.2.1c-.1.1-.1 0-.2 0 .1.1.2.1.3.2-.1.1-.1 0-.2-.1.1.2.1.4.1.5h.1c.1.1 0 .2 0 .4-.1 0-.1 0-.1-.1 0 0-.1.1 0 .1h-.1c0 .1.1.3-.1.3.1 0 .2 0 .2.1-.2 0 .1.2 0 .3-.1 0-.1-.1-.1-.1-.1.1 0 .1.1.2h-.1l.1.3c-.2 0 0 .3-.1.3 0 .1.1-.1.1 0-.1 0 0 .1-.1.1v.1l-.1-.1c0 .1.2.1.3.1-.1.1 0 .2-.1.2.1.2-.4.4-.1.5h-.1v.1h-.1l.2.2h-.1v.6c.1.2-.1.2 0 .3v.1h-.1c.2.1-.2.3-.1.2l.2.2c0 .1-.1 0-.2.1 0 .1.1.1.1.3h-.1c0 .1.1.1.1.2.2.2-.2.2.1.3-.1.1 0 .2-.2.2.1.2.1.3.2.5-.2 0 0 0-.1.2h.1c0 .3-.3.6-.2.9h-.1l.1.1c-.1.3-.1.7-.1 1 .1.1.2.2.2.3.1.2.1.5.1.7h-.1c.1.1 0 .1 0 .2l.1-.1c.1.1 0 .2-.1.2l.1.1h-.1.1l-.2.1s.1.2.2.2c-.1 0-.1.1-.1 0l-.1.4.1-.1c.1 0 .2.1.1.2-.1-.1-.2 0-.3 0 .1.1.1 0 .2 0 .1.1.1.2.1.3h-.1c0 .1-.2.1-.2.2.1.1 0 .1.2.1 0 .1-.1 0-.2.1.1.1 0 .2-.1.2.3.1-.1.3.2.3l-.2.1c.1 0 .2 0 .3.1-.1.1-.2.1-.3.1l.3.1c-.3.4-.1 1-.3 1.5.1.2.2.5.1.7l-.1.2.1-.2c0 .1.1.1.1.1-.1.3-.2.6-.1 1 .3.2-.3.1 0 .3h-.1c.1.2.2.3.3.6-.3 0 0 .1-.2.1h.1c-.1 0-.1.2-.2.1l.2.1h-.1c0 .1.1.4-.2.5.2.3.1.8.1 1.2.1.1.1.2.1.3l-.2.1c0 .1.2.2.1.3 0 .1 0 .2.1.3 0 .1-.1.2-.2.2.3 0 0 .2 0 .2s-.6 5.4.8 6.7c.1 0 .2.2.4.1 0 .1-.2.1 0 .2.1-.1.3 0 .5-.1v.1c.1 0-.1-.1.1-.1h-.2c0-.1.1-.1.2-.1-.1-.1-.4-.1-.3-.2 0-.1.2-.1.2-.1l.1-.1c-.1.1.1.2.1.1.1-.1-.1 0-.1-.1s.1 0 .2 0v-.1c.1 0 0 .1.1 0l-.1-.1c.3 0-.1-.2.1-.2.1.1.1 0 .2 0v-.3s.1.1.1 0c.1 0-.1-.1-.1-.1.1 0 0-.2.2-.2.1-.2-.2-.1-.1-.2.1 0 0 .1.1.1v-.2c.1 0 .2 0 .2.1.1-.5.7-.7.6-1.1.1-.1.1 0 .2.1-.2-.3.3-.4.3-.7h-.1c.3-.4.1-.8.3-1.2h-.1l-.2-.2c.1 0 .2 0 .2-.1l-.1.1c.3-.4.2-1.1.3-1.7-.1-.8.1-1.6.1-2.4 0 .1-.3.1-.2 0 .5-.2-.1-.4.2-.7-.1-.5.2-.9-.1-1.3h.1c.1-.1 0-.1 0-.1 0-.2-.1-.3 0-.4h-.1c0-.1.1 0 0-.1h.1l-.1-.1c.3 0 0-.3.1-.3 0-.1-.2-.3-.1-.5.1 0 .1-.3.2-.4 0-.3-.1-.7 0-1h-.2v-.1h.1c.2-.1-.1-.2.1-.3-.1 0 0 .1 0 .1-.1.1-.2 0-.2-.1l-.1-.1c.1 0 .2-.1.3-.1 0-.3-.2-.5-.2-.8.1 0 0-.2.2-.2-.1-.2-.2 0-.4-.1 0-.1-.1-.1 0-.1h.2v-.1h.1c-.1-.3.2-.5 0-.7-.1 0 0 .1-.1.1-.2-.2.2-.2 0-.4h.1c-.1-.1-.2-.1-.1-.2.1 0 .1.1.2.2 0-.1 0-.3-.2-.2 0-.1.1-.1.1-.2 0 0-.1.1-.2 0 .1-.1.1-.3.1-.5h.1c-.4-1.1 0-1-.1-1.2z"/><path opacity=".5" d="M99.748 138.1h.1c0-.1 0 0-.1 0z"/></g><defs ><path id="B" d="M50.55 28.5c-.1.1-.4.2-.2.5.3.1 0-.4.2-.5z"/><path id="C" d="M49.95 38.1l.6-.8s-.1 0-.1-.1c.2.3-.8.5-.5.9z"/><path id="D" d="M66.048 74.897l-7.5-.7c-.1-.2-.4-.2-.7-.4-.4.3-1.4-.1-1.7.2-1.1-.5-2.3-.4-3.5-.6-.2 0 .3.1-.1.2-.9.1-.3-.3-1.3-.3l.2.2c-.4.1-.8 0-1.2-.1 0 .4-.1.8-.2 1.2 0 .4-.1 1 0 1.3.2-.2.2.1.3 0l-.1-2.4 2.4.2c.5 0 1 .1 1.6.1a16.96 16.96 0 0 1 3.1.6c0-.1 0-.2.1-.3l8.4 1.2v-.4h.2z"/></defs></svg>