<svg xmlns="http://www.w3.org/2000/svg" xmlns:xlink="http://www.w3.org/1999/xlink" width="100" height="226" fill="none" xmlns:v="https://vecta.io/nano"><path d="M80.5 37.2V11.8L47.7 2.2v.4l-26 3.7-1.4 24.4-14.3 2-3 188h90.1V40.9l-12.6-3.7z" fill="#efefef"/><g fill="#202020"><path d="M96.7 218.8c0-.5-.1-1-.1-1.5 0-.4 0-.8-.1-1.2V214l.1.4-.2-2.4c-.5.6.3.9 0 2.3-.4-.1-.2-1.8-.6-1.7.2-1.1-.1-1.8-.1-2.8.3-1.7.1-4.1.4-5.4-.1-.8-.6-1.7-.6-3.5.3-1.3.3.3.5-1.4l-.3-.3c0-1.4.1-1.2.2-1.1 0-1.5-.3-1.3-.2-3.2l.2 1.1c-.1-1.4-.1-2 0-3.9.1 0 .1.8.1 1.4.4-1.1-.2-1.8-.1-2.4-.1.2-.2 1.5-.4.9 0-1-.3-2.1 0-2.8l.2 1.1c-.2-2-.3-1.1-.2-3.4 0 .1.1.1.1.1-.3-1.5 0-3.4 0-5.6l.1.4c-.1-.9-.3-1.4-.3-1.8-.1 1.2-.2.9-.5 1 .4-1.6-.5-2.5-.2-5.2.1 0 .3.7.2 1.4.4.9.8 1 1 2.7-.1-1-.2-2.2 0-2l-.4-.4v-1.6c-.3-.3-.4 1.2-.6-.2-.1-1.6.4-.9.2-1.1-.2-2.2-.4-.9-.3-3 0 .2.1.6.1.8.2-1.5-.1-3.7.4-4.2.1.2.2.3.2.8h-.1c.3 1.6 0-1 .3-.9-.2-.3-.1-2.1-.1-2.9l-.3.3c-.9-3.2.6.2.5-3-.2-2-.1.8-.3-.5.1-1.4.3-1.9.2-3.9.1-.6.3-1.7.6-1.8-.1-1.2.1-3.7-.2-4.4-.3 2.1.3 2.1-.1 4.5l-.3-.7v-5c-.1.2-.1.3-.2.2-.1-2.4-.4-3.1-.3-5.4.3-.3.2 1.1.3 2 .2-1.5 0-1.6.1-3.9.3-.1 0 1.6.2 1.8l-.1-2.6h.1c-.4-.4 0-2-.1-3.5 0-3.7-.6-4.3-.9-6.4.1-.6.2-.7.3-.5-.2.9 0 .8.1 1.1 0-1.3.4-2.8.6-2.1-.1-2-.2.7-.4-.5v-2.7c-.2.3-.3 1.3-.4-.1-.1-1.2 0-1.8 0-3.3.1.2.3-.5.3.7.1-.8.1-1.9-.1-2.4-.2 1.7-.2-2.8-.5-1.5l.2-1.7c0 .4.1.4.1 1 .3-.5-.1-1.4-.1-2 .1-.6.1-2.2.2-2.3-.1-.5 0-1.9.2-2.1-.1-.8-.2-.1-.3-.3v-2.7c.2-.1.7-.4.8 0-.2-1-.5-.4-.5-1.9.4.9.3-2.1.7-.8.3-.9.3-3.5.2-4.9-.3-.9-.2 1.5-.5 1.4-.1-4-.9-4.2-.8-7.1l-.1.8c-.2-1.8-.1-1.6-.4-2.7.4.5 1-2.1.9-5-.2-.3-.3 1.7-.6 1.2l-.1-2c0-.1.1.1.1.3-.1-1.8.5-3.3 0-3.8l.5-1.8-.2.7c-.2-.2-.2-2.2-.3-2.6-.2-2 0-2.8.2-3.9-.1.4-.5 1.2-.5-.4.6 0 .2-3.3.5-3.3 0-.6.2-1.8-.1-1.9l.4.1c-.5-.2-.5-2.5-.6-4.3.7.4-.1-2 .6-2.8-.5-.3-.2-3.2-.6-3.5 0-1.4.4-1.2.6-1.6l-.2-.6c.2-.7.3-3.3.4-4.8l-.4-1.4.2-.5c-.1-.2-.2-1.4-.3-.7v-.8c-.4-.1-.1-1.1-.3-2.7.1-.4.2-.3.2.1 0-.8.2-.4.4-.9-.1.6-.8-2.8-1-.7-.2.1-.3-1.1-.2-1.8l.4-.5-.4-.9c0-.6 0-1 .1-1.4s.1-.9.2-1.5c0 .6.2 1.3.4 1.4.1 0 .2 0 .3-.3s.1-.9.1-1.8c0 .5 0 .9.1 1.3v.9c.1.4.2.8.2 1.1 0-.5.1-.8.2 0-.1-2-.2-.4-.3-3.3.3 0 .5-.7.6-3.1-.1 0-.4-.1-.6-.2l.5.2-.2 1.6c0-.1-.1-.2-.1-.3 0 .8-.1 1-.2 1.2 0-.3-.1-1.2-.2-1.9-.8-.2-1.6-.3-1.7-.5 1.1.6-.2.4-1.4.1-.3-.1-.6-.1-.9-.2s-.6-.1-.7-.1c-.3 0-.4 0-.1.2-.2 0-1.6-.3-1.7-.5 1.7.2-1.1-.7-.8-.9-.6-.1 1.2.6.3.5-1-.3-1.6-.7-2.1-.9l.4.1-1.4-.6c-.3.1 1.3.7 0 .4-.3-.2-1.7-.5-1.6-.6.7-.1.3-.5 1.5-.2-.6-.2-1.9-.5-2.6-.6.1-.7.1-1.2 0-1.3l.4.1c-.5-.1-.5-1.7-.6-2.9.7.3-.1-1.3.6-1.9-.5-.2-.2-2.2-.6-2.4 0-.9.4-.8.6-1.1l-.2-.4c.2-.5.3-2.2.4-3.3l-.4-1 .2-.4c-.1-.2-.2-1-.3-.5V20c-.4 0-.1-.7-.3-1.8.1-.2.2-.2.2.1 0-.5.2-.3.4-.6-.1.4-.8-1.9-1-.5-.2.1-.3-.7-.2-1.2l.4-.3-.4-.6c-.1-.9.2-1.4.2-2.2 0 .8.8 1.8.8-.7.1 1.3.3 1.9.4 2.6 0-.5.1-.8.2 0-.1-2.1-.2-.7-.3-2.7.3 0 .5-.6.6-2.2-.1 0-.2-.1-.4-.1l.3.2-.2 1.1s-.1-.1-.1-.2c0 .5-.1.7-.2.9 0-.2-.1-.8-.2-1.3-.6-.1-1.1-.2-1.2-.3.7.5-.2.3-1.1.2-.9-.2-1.8-.4-1.3-.1-.1 0-.5 0-.8-.1s-.5-.2-.6-.3c1.1.1-.7-.6-.4-.8-.4 0 .8.5.2.5-.6-.2-1.1-.5-1.4-.7h.3l-.9-.4c-.2.1.9.6-.1.4-.2-.1-1.2-.3-1.1-.4.5-.1.3-.5 1.1-.4-.7-.2-2.7-.7-2-.2l-.8-.2c.4.3 1.7.9.2.5v-.1L71.6 8l-.4-.3c0 .1-.2.1-.6 0-.1-.1-.4-.3-.4-.4-1.2-.3-1.1-.1-1.3-.1-.7-.2-.9-.3-.5-.4-.9-.3-2.4-.7-3-1.1-1.2-.2.2.1-.5.2-.8-.9-3.8-1.4-5.8-1.9.4.7-.5 0-1 .3.1-.2-1.6-.9 0-.6l-1-.2c-.6-.5 1.8.3.8-.4-1.2-.3-2.1 0-3.4-.6.6-.2-1.1-.2-.6-.5.3-.1.7.1 1.1.2l-.2-.1c-2.5-.8-.9.2-2.3.1-1.6-.4-1.1-.7-1.2-.9a4.88 4.88 0 0 0-1.4-.3c1 0 1.7.7 1.2.9-.4-.4-1.2-.6-1.9-.6l-.1-.1c-.5 0-8.3-.9-8.9-1 0-.1 0-.2.1-.2-.1 0-.2.2-.1.3h.3c.1.2-.2 0-.2.3-.3 0-.3-.2-.3-.4 0 .2-.2.3.1.4-.1.1-.3 0-.4.2.1.1.3.3.2.5l-11.7-.2h.1c-.2 0-.3 0-.2.1h.5c.2.1-.3 0-.2.1-.4 0-.5 0-.5-.1 0 0-.3.1.1.1h-.6c.1 0 .5.1.3.1h-.1c-.4.1.6.1.2.2h-.1c-.2 0 .1.1-.2.1h.4c-.2.1 0 .1-.3.1h.4c0 .1 0 .2.1.3l-7.2-.6c0-.1 0-.1.1-.1-.1 0-.2.1-.1.2h.3c.1.2-.2 0-.2.2-.3 0-.3-.1-.3-.3 0 .1-.2.2.1.3-.1.1-.3 0-.4.1.1.1.3.2.2.3-.3.2.4.4.1.6h-.1c-.1.1 0 .2-.1.4.1 0 .2-.1.3 0-.2.2 0 .3-.2.4l.2.1c0 .2 0 .7.1 1.2h-.3l-.1 5.1c-.1.2-.1.3-.1.2 0 0 0-.1-.1-.3 0-.4 0-.9-.1-1.3v2.7c0 .6-.1 1.1-.2 1.7-.2 1-.4 2-.4 3.3l.2.1c-.7 3.7-.4 8.2-.7 12.3l.2-.5c.2.5.2 1.2.3 1.8-1.7-.2-3.2-.3-3.5-.3 0-.1 0-.2.1-.2-.1 0-.2.2-.1.3h.3c.1.2-.2.1-.2.3-.3 0-.3-.2-.3-.4 0 .2-.2.3.1.4-.1.2-.3 0-.4.2.1.1.3.3.2.5 0 .1-.1.1-.1.2H15l-6.7-1c0-.2 0-.4.1-.4-.1 0-.2.4-.1.6h.3c.1.4-.2.1-.2.5-.3 0-.3-.4-.3-.7 0 .3-.2.6.1.7-.1.3-.3 0-.4.3 0 .1 0 .1.1.2-.8.1-1.6.1-2.4.2-.1 1.1-.1 2.3-.2 3.6v3.3c-.3.9-.2-.6-.3-1.3.3 4.6-.7 6.5-.7 10.4l.2.1C3.7 53 4 59.6 3.7 65.8l.2-.7c.2.9.2 2.2.3 3.3-.1.2-.5-.7-.4 1.1.1-.4.2-1.1.3-.9-.5 3.9-.6 11-.8 18h-.1c0-.1 0-.2.1-.2-.1 0-.2.2-.1.3h.1v.3c-.2 0-.3-.2-.3-.4 0 .2-.2.4.1.4-.1.2-.3 0-.4.2.1.1.3.3.2.5-.3.4.4.6.1 1h-.1c-.1.1 0 .4-.1.6.1-.1.2-.1.3 0-.2.3 0 .5-.2.7l.2.2c0 .5 0 1.9.1 3.2v.5c0 9.6-.4 19.8-.6 29.6v.6c-.1-.1-.1-.3-.2-.5 0 .2-.2.4.1.5-.1.2-.3 0-.4.2.1.2.3.4.2.6-.3.5.4.8.1 1.2l-.1-.1c-.1.2 0 .5-.1.8.1-.1.2-.2.3 0-.2.3 0 .6-.2.8l.2.2c0 .8.1 3 .1 4.8-.2 2.6.3 4.9-.3 7.8.2 6.8-.7 12.8-.1 19.1l-.3.1c-.1.9 0 1.2.1 2.2h-.1c-.1 2.3.1 5-.1 6.4-.1 0-.2.1-.1.1h.2c-.3 0-.3-.1-.3-.1 0 .1-.2.1.1.1-.1.1-.3 0-.4.1.1 0 .3.1.2.2-.3.1.4.2.1.3h-.1c-.1 0 0 .1-.1.2h.3c-.2.1 0 .1-.2.2l.2.1c-.1.3.3 1.5.3 1.8.1.3.1.6.2 1-.3.5 0 3.9-.2 4.9.1 1.5.2 4 .1 6.4h-.4s0-.1.1-.1c-.1 0-.2.1-.1.1H2c.1.1-.2 0-.2.1-.3 0-.3-.1-.3-.2 0 .1-.2.2.1.2-.1.1-.3 0-.4.1.1.1.3.1.2.2-.3.2.4.3.1.4h-.1c-.1.1 0 .2-.1.3.1 0 .2-.1.3 0-.2.1 0 .2-.2.3l.2.1c-.1.4.3 2 .3 2.4v.2c-.1 1.1-.1 2.4-.2 3.3l-.1 13c-.1 0-.1 0 0 0-.1 0-.2 0-.2-.1 0 0-.2 0 .1.1h-.4c.1 0 .3.1.2.1-.3.1.4.1.1.1h-.1c-.1 0 .1.1-.1.1h.3c-.2 0 0 .1-.2.1h.2c0 .1.1.3.2.5v1.4l.3-.1v1.4c-.1 0-.1.2-.1 0-.1.4-.2.9-.2 1.5-.1 0-.1.1 0 .1v.1c-.2 0-.2-.1-.2-.2 0 .1-.2.1.1.2-.1.1-.3 0-.4.1.1.1.3.1.2.2-.3.2.4.2.1.4h-.1c-.1.1.1.2-.1.2h.3c-.2.1 0 .2-.2.3l.2.1c0 .2.1.8.2 1.3.1.4.1.7.2.9 0 .1 0 .2.1.4-.1.3-.2.6-.4.7.1 4.1.1 7.4.1 10.9 1.4 0 2.9-.1 4.5-.1h4.2c-.5.3 3.4-.1 2.4.4 2.8-.2-.5-.4.8-.8.8 0 1.6-.1 1.8.1-.4.1.6.3 0 .3h1.9c.2 0-.2.1-.4.1 3.8-.3 6.8.3 10.2 0 .3-.2-1.4-.1-1.1-.2 3.5-.4 3 .3 6.3.1l-.7.2c1-.2 1.5-.4 3.2-.2.3.3-1.5.2-2.3.4 1.2 0 4.1-.1 3.2-.3 1.4-.1 1.9.2 2.7.2 0-.1-1.3-.2-.5-.3 1.9.2 4.9.2 7.2.2 0 .1.1.2-.1.2 1.9-.4 1.7.3 4.3.2l22.7-.4c1.5-.4 3.7-.4 5.8-.5l.2.5 1.8-.2c.7.2-1.4.1-.1.3l.7-.3c.1.2 4.7.1 1.6.5h7.1c.8 0 1-.1 1.3-.2.1 0 .3-.1.5-.1h1.4c.7.1-1.2.1-.9.3 3.6.1 6.1.1 8.1-.1-2.6-2.5-2.8-4.3-2.9-6.2zM0 167.8h0zM6.7 209h-.2v-.8h.2v.8zm.4-25.6v-.5c.1.1.1.2.1.2h-.1c0 .1.1.2.1.3h-.1zm75-147.3c0-.1 0-.1 0 0 .1-.1.1 0 0 0zM49.4 8.7c0-.6-.1-3.5.1-4.1.2-.2.5 0 .5 0-.1-.3-.3-.1-.3-.3.1-.1.2 0 .3.1 0-.1.1-.2-.1-.2-.1.1-.5.1-.7.1V4h.2s-.1-.1-.2-.1l.3-1.2c.1-.2.1-.4 0-.4 0 .2-.1.4-.1.4l-.3.4v-1c.1 0 .2.1.3.2 0-.1 0-.2.1-.2-.2.1-.1-.2-.3-.1-.3-.2-.3-.4-.3-.6 1.1.5 1 .2 2.6 1.1.3-.1.4-.4 1.6.1-.8 0 0 .2.2.4-.2-.3.9.2 1.3.2.3.3-.9.3.3.7l.4-.4c.5.2-.3.3.8.5-.6.1 0 .5-1.4.1 1.6.9 2.7.5 4 .7-.1 0-.2.1-.3.1.3-.1.8.1 1.2.2.8.4-.8 0-.6.2l1.4.4c.4 0 .8.1.8.3-.5 0-.7.2-1 .2l1.6.1c-.2.1 1.1.7 0 .5l2.2.6.1.4c.5.1.6 0 0-.2.7.3 3.5.4 2.9.9 1.8.2 2.4.5 4.5.9-1.7-.1 1.7.9 0 .6.9.4 1.3.1 2.1.3.7.4.3.6-.6.5l1 .1v.1h.9c.8.4.1.4.9.7l.3-.3.5.4c-.1-.1 0-.1.2-.1s.5.1.7.1v.1l.6.1c-.7 0 .5.2.1.3.4.1.5.1 1.1.3v.3l.2-.3c.2 1.2-.3.3-.3 1.2l.3-.2c-.4 1.3.2 2.9 0 4.2-.1-.8-.4-.6-.3-.6.1 1.2 0 3.2.3 4.4-.4.5-.5.6-.6 1.9 0 .9.1 1.1.3 1.4-.1.9.1 2.6-.2 2.7.2.2 0 .8.1 1.3l-.1.1.3-.1c-.6 1.6.3 2.7-.2 4.3l-.1-.3.1.7c-.1.1-.2-.2-.3-.2l.1 1.7c0 .1-.3.1-.9-.1-.1-.1-.7-.4-.6-.5-1.7-.5-1.6-.3-1.9-.2-1-.3-1.3-.4-.8-.5-1.3-.4-3.6-1-4.4-1.5-1.8-.4.3.2-.8.1-1.3-1-5.7-1.9-8.6-2.7.6.7-.7-.1-1.4.1.1-.1-2.5-1.1-.1-.6l-1.5-.4c-1-.6 2.6.5 1.1-.3-1.7-.5-3-.2-5-1 .8-.2-1.6-.3-1-.6.5 0 1 .2 1.6.3l-.3-.2c-3.7-1.2-1.2.1-3.2-.2-.6-.2-1-.3-1.2-.4.1-.8.3-1.5.3-2.3h.1c-.1-.4 0-.7-.1-1 .1-.1.2-.1.3-.1-.2 0-.1-1.8-.1-1.8H50c0-.3.5-.1.4-.4-.6-.1.1-.5-.2-.7 0 0 .1-.2.2-.1-.3-.1-.1-.2-.1-.3h-.2l-.1-.2c.1-.1.3-.1.3 0 .1-.6.5-3.4.4-4.1-.2.1-.1.3-.5.3-.2-.2.1-.2-.1-.3.5 0 .1-.4.7-.5l-.3-.1.2-.1c-.3-.8-.2-.2-.1-.8 0-.4-.5-.6-.3-.8 0 0-.2.1-.3 0 .3 0-.2-.3.1-.3 0-.1 0-.4-.4-.3.2 0 .3-.3.4-.2 0-.1.1-.2 0-.3l-.1.1c0-.3.2-.5-.1-.7l-.2.1c0-.2 0-.4.3-.4l.1.2c0-.3 0-.5-.2-.8v.1c-.4-.3-.6-2.1-1-2.4l-.3.1-.2-.3c.2.5 1.1.7 1 .7zM32.5 51.8c0-.2 0-.3-.2-.5l-.1.2c0-.4 0-.7.3-.8l.1.4c0-.6 0-1-.2-1.5v.2c-.2-.4-.4-2-.7-3.3 1.8.1 4.3.2 5.8.1 0 .4.1.8.1 1.1-.2.4-.2.8-.3 1.2.1-.2.3-.1.3 0 0 1.1.2.1.3 1.2.1.5.1 1.4.1 2.5l-5.5-.8zm1.5 82.7c-.1-.1-.1-.1-.1-.2 0 .1.1.1.1.2zm-.8 34.8c.1-.4 0-.8.1-1.2.1 0 .1.1.1.2 0 .4-.1.9-.1 1.3 0-.1-.1-.2-.1-.3zm.1 4.3v.1-.1l-.2.1-.1-.2s.2.1.3.1zm0-5.6c-.3-.3 0-.7-.2-.9-.1 0-1.1-.2-2.1-.3 0-.2.1-.5 0-.8-.1-.1-.1.1-.2.2l-.1-.9c.1-.4.3-.4.3-.1 0-.5.1-1.3.1-2.4.6 0 1.3.1 1.8 0 0 .4.1.8.1 1.2-.2.3-.2.6-.3.9.1-.2.3-.1.3 0 0 .9.2.1.3.9.1.4.1 1.3 0 2.3.1 0 .1-.2 0-.1zm-2.7-71.6c.1.2.2.4.2.5h-.1c.1.3.4 1 .4 1.6-.2 0-.4-.1-.6-.1.1-.6.1-1.3.1-2zm2.8 26.3c0 1.5-.2 3.2-.4 3.8.4.5.1 1.1.3 1.5h-.1c.1.4-.1 2.1-.1 3.2-.5-.1-1.1-.2-1.8-.3 0-.4-.1-.7-.1-1.2v.4c-.2-1-.4-4.9-.6-7.5.8.1 2 .2 2.8.1zM40.2 17c0-.3-.2-2-.1-2.4 0 0 .1.1.1.3.1.4.1 1.4 0 2.3l-.3-.3-.3.1-.2-.2c0 .1.9.1.8.2zm-.3-2.7v-.1.1zm.1-.9c-.2.2-.2.4-.2.6-.1 0-.2-.1-.1-.2.1-.3 0-.6.1-.9.1 0 .2 0 .2.1v.4zm-9.2-3.8l-.1.1c0-.2.2-.3-.1-.5l-.1.1c0-.1 0-.2.3-.3l.1.1c0-.1 0-.2-.1-.3 1.9-.3 3.7-.7 5.4-1 .8-.2 1.6-.3 2.4-.5h1.2v.9c.1 1.2 0 3.4.2 4.8-.1 0 0-.1-.1-.1-.5-.2 0-.5-.4-.7-.4 0-5.9-.3-8.1-.4v-.1c-.1 0-.1.1-.2.1h-.4s0-.1-.1-.1c.5 0 .1-.2.7-.3h-.3l.2-.1c-.3-.5-.2-.1-.1-.6 0-.3-.5-.4-.3-.5 0 0-.2.1-.3 0 .3 0-.2-.2.1-.2 0-.1 0-.3-.4-.2.2 0 .3-.2.4-.1.1 0 .2-.1.1-.1zm-5.2 10.9c1.8.1 3.4.1 4.1-.1h.2v-.1c.1-.1-.1-.2.1-.2v.2c.1-.1.2 0 .3 0 0-.1.1-.1.1-.1h-.1c-.1-.1-.3-.2-.2-.2 0-.1.4 0 .4-.1.1-.3.2-.6.2-.9.1.4.1.8.3 1.1-.2.1-.2.3-.3.4.1-.1.3 0 .3 0 0 .4.2 0 .3.4.2.5 0 2.2-.2 2.7.4.2.1.5.3.7h-.1v.1l-2.2-.2c0-.1 0-.1.1-.2-.1 0-.2.2-.1.2h.3c.1.2-.2 0-.2.2-.3 0-.3-.2-.3-.3 0 .1-.2.2.1.3-.1.1-.3 0-.4.1.1.1.3.2.2.4-.3.3.4.4.1.7h-.1c-.1.1 0 .3-.1.4.1 0 .2-.1.3 0-.2.2 0 .3-.2.5l.2.1c0 .4.1 1.6.2 2.6l-1 .1c-.8-.1-1.7-.3-2.5-.4.1-2.4.1-4.9.1-7.5-.2-.2-.2-.6-.2-.9zM10.4 192.7h.2c.1-.3.4-1.7.3-2-.2 0-.1.1-.4.2-.2-.1.1-.1-.1-.2.5 0 .1-.2.7-.2H11c-.3-.4-.2-.1-.1-.4 0-.2-.5-.3-.3-.4 0 0-.2.1-.3 0 .3 0-.2-.1.1-.2 0 0 0-.2-.4-.2.2 0 .3-.2.4-.1 0 0 .1-.1 0-.1l-.1.1c-.1-.2.2-.2-.1-.3l-.1.1c0-.1 0-.2.3-.2l.1.1v-.2c1.3.1 2.7.1 3.8 0v.3c0 1 .1 2.5.1 4-.9-.1-2.4-.2-4-.3zm4.4 7.8c.1 0 .1.1 0 0h0zm.5-38.3l-.1-.2h.1v.2zm.2-9.8c0-.1 0-.2-.1-.3-.2 0-1.9-.2-3.8-.4.1 0 .1-.1.1-.2-.6-.2.1-.7-.2-.9 0 0 .1-.2.2-.2-.3-.1-.1-.2-.1-.4-.1-.1-.1 0-.2.1l-.1-.3c.1-.1.3-.1.3 0 .1-.8.5-4.7.3-5.6-.2.1-.1.4-.4.5-.2-.2.1-.3-.1-.4.5-.1.1-.5.7-.7l-.3-.1.1-.1c1.1 0 2.2 0 3-.2.1 1.8.1 4.3.3 5.7-.2.3-.2.6-.3.9.1-.2.3-.1.3 0 0 .9.2.1.3.9v1.7zm.5-51.3c-.1 0-.1-.1 0 0l-.3.2-.2-.6s.4.1.6.2c-.1.1-.1.2-.1.2zm4.5 76.1c-1.2-.1-2.5-.3-3.6-.5v-.1c.1-.1.3-.1.3 0 .1-.8.4-4.5.3-5.3-.2.1-.1.4-.4.5-.2-.2.1-.3-.1-.4.5-.1.1-.5.7-.6l-.3-.1.2-.1c-.3-1-.2-.2-.1-1.1 0-.4-.3-.6-.3-.8 1.1.1 2.4.2 3.7.2v.4l-.1-.1c0 .9-.2 4.8-.3 8zm.4-45.3c-1.2-.1-2.5-.3-3.7-.4.1-.1.1-.1.2-.1-.2.1-.2-3.7-.1-3.8l-.4-.1c0-.7.5-.2.4-.9-.6-.3.1-1.1-.2-1.3 0 0 .1-.3.2-.3-.3-.1-.1-.3-.1-.5-.1-.1-.1.1-.2.1l-.1-.5c.1-.2.3-.2.3 0 .1-.5.2-2 .2-3.5.9.1 2.2.2 3.5.2.1 3.1 0 7.2 0 11.1zm1.5-66.1c-1.2-.1-3-.2-4.5-.4.1-2.1.3-5.3.2-6.2-.2.2-.1.5-.4.7-.2-.3.1-.5-.1-.6.5-.1.1-.7.7-1l-.3-.1.2-.2c1.4.1 3.2.1 4.6.1a104.65 104.65 0 0 1-.4 7.7zM28.2 209c-.9 0-2.2-.1-3.5-.1h-.1c0-.5.5-.1.4-.6-.6-.2.1-.8-.2-1 0 0 .1-.2.2-.2-.3-.1-.1-.2-.1-.4-.1-.1-.1 0-.2.1l-.1-.3c.1-.1.3-.2.3 0 .1-.5.2-2.2.3-3.7 1 0 2-.1 2.8-.4 0 1.3 0 3 .1 4-.1.2-.1.5-.1.7.1-.1.1-.1.1 0 0 .6.1 0 .1.7.1.1.1.6 0 1.2zM25.7 87.2c0-.3.1-.7.1-1.1h.1c-.1-.3-.1-.6-.1-.9.1-.1.2-.1.3-.1-.1 0-.1-.2-.1-.4 1.6.1 3.4.1 4.6-.2-.1 1.2-.2 2.3-.2 2.8.2.5.2 1 .2 1.6v-.2c-.4 0-2.7-.8-4.9-1.5zm4.1 32.6c0 .1.3.2.5.4v.1l-.3.6-.2-1.1zm8.1 75.9c-1.2-.1-3.4-.4-5.1-.5-.2-.3 0-.7-.2-1-.1 0-1.2-.2-2.3-.4.1-1 .1-2.1.2-3.1 1.1.1 2.3.1 2.7-.3h.1v-.1c.1-.2-.1-.2 0-.2v.2c0-.2.1 0 .2 0 0-.1 0-.1.1-.2h-.1c0-.1-.1-.2-.1-.3 0-.2.2 0 .2-.2.1-1 .3-1.9.2-2.9h.1c0-.3 0-.6-.1-.8.1-.1.1-.1.2-.1-.1 0-.1-1.5 0-1.5h-.2c0-.3.2-.1.2-.4-.2-.1-.1-.3-.1-.4a30.09 30.09 0 0 0 3.5.2c0 1.4.1 2.6.2 3.6-.2.4-.2 1-.3 1.5.1-.3.3-.2.3 0 0 1.4.2.1.3 1.5.1 1 .1 3.3 0 5.4zm-4.1-16v.1-.1zm.1-.2s0-.1 0 0c.1-.1.1 0 0 0zm4-32.9c0 .1 0 .1.1.2l-3.3-.3v-.2c0-.4-.2-.6-.1-.9 0 0-.1.1-.1 0 .1 0-.1-.3 0-.3 0-.1 0-.5-.2-.3.1-.1.1-.4.2-.2v-.3l-.1.1c0-.4.1-.5 0-.8l-.1.1c0-.2 0-.4.2-.5l.1.2c0-.4 0-.6-.1-.9v.1c-.2-.4-.3-2.3-.5-2.7l-.1.2-.1-.3s.5.2.4.2v-1.5a30.09 30.09 0 0 0 3.5.2c-.1 1.4-.2 2.7-.1 3.1l.1-.1c.2.9-.2.8-.3 1.5.4-.1.6.7.6 1h-.1c.1.5.4 1.5.4 2.3l-.4.1zm54-103.1l.3-.1c-.1.3-.1.5-.1.8v1c0 .6 0 1.2.1 1.7.1 1.1.2 2.1 0 3.2-.1-1.2-.4-.9-.3-.9.1 1.8 0 4.7.3 6.6-.4.7-.5.8-.6 2.7 0 1.4.1 1.6.3 2-.1 1.3.1 3.9-.2 3.9.2.3 0 1.2.1 1.9l-.1.2.3-.1c-.6 2.4.3 4-.2 6.4l-.1-.4.1 1c-.1.2-.2-.3-.3-.3v4.7l.2-.9c0 1 .3 1.7.1 2.8-.4-1.9 0 1.6-.3 1.9l-.1-1c0 1.4 0 1.4.3 1.3.1 1.8-.5 1.2-.2 2.9v-1.2c.1-.3.4.5.3 1.3 0 .2-.2.7-.2.1.1 1.4 0 3.5.1 4.1-.1.8-.3.5-.3.1.2 3 0 1.4.2 4.4l-.1-.1.2 1-.3 1.5.2-.5c0 1 .1 1.6 0 2.8l-.2-.5c.1 2.8-.4 3.2-.1 5.9 0 .2-.1-.2-.1-.4.3 2.5-.4 1.9 0 4.3-.1-.2-.2.1-.2 0l.1 1.1-.3-.1.4.9-.3.7.1.4c-.6 1.2-.1 2.9-.6 4.5l.4-.3c.8 4.2-.4 9.5-.1 14.5l-.3-.1.3 2.1c-.2 1.1-.2-.7-.4-.3.2 2.2.4.9.5 3.5-.2 1.3-.2-.5-.3-1.1.1 2.4.3 6 .1 7.7l.1.1c.1 1.6 0 3.7 0 5.5-.1 0-.2-.5-.2-.9 0 .6-.1 1.5 0 2.1l-.2-.7c-.1 1.4.2 4-.1 4.3.1-.2.3-.1.3 1.1-.4.6.2 3.2-.1 5.1-.1-.2-.1-1.6-.1-1.2-.1.9.1 1.8.2 2.6l-.2-.3.2 4.4c-.4.7.1 4.1-.3 3.8 0 1.6.2-1.3.2.7-.2.5.1 1.8-.2 1.7v-.2 1.4l-.3-.9c.1 1.2.3 2.1.6 2.1-.2 1.1 0 2.7-.3 3.3l-.1-.4c.1 3.2-.8 5.3-.3 7.8 0 .2-.1.2-.1-.2v2l-.2-.5.3 3.3h-.1c-.1 2.1 0 5.5.1 8.3l-.1-.4c.2 3-.1 2.9 0 5.1 0-.1-.1-.2-.1-.2v2l-.1-.4c.3 1.5-.4 4.2-.1 3.3.1.8.3 2.3.5 2.5 0 2.2-.2.5-.3 1.9 0 1.6.2 1.8.1 4h-.1c0 1 .1 1.6.2 3l-.1-.4c0 .3.1.5.1.8v.4c0 .1-.1.1-.1.2-.1.1-.1.1.2.6 0 0 0 .1-.1.1-.3 0-.5 0-.6-.3-.1 0-.2.1-.3.1h-1.7c-1.2.1-2.5.1-3.9.2-.4-.5-.6 0-2.3-.2l.1.3c-3.9 0-8.5-.6-12.8-.5l-.1-.3-.9.3-14.5-.2c-1.2.1-3.1.4-5 .3h.2-.6s.1-.1.1-.2c.2-2.4.5-4.8.4-7.3.1-.1.1 0 .1.1-.1-.7 0-1.4-.1-2.1.1-.2.2-.2.3-.3-.2.1-.2-3.8-.1-3.8l-.4-.1c0-.7.5-.2.4-.9-.6-.3.1-1.1-.2-1.4 0 0 .1-.3.2-.3-.3-.1-.1-.3-.1-.6-.1-.1-.1.1-.2.1l-.1-.5c.1-.2.3-.2.3 0 .1-1.3.5-7.3.3-8.6-.2.2-.1.6-.4.7-.2-.4.1-.5-.1-.7.5-.1.1-.8.7-1.1l-.3-.1.2-.2c-.3-1.6-.2-.4-.1-1.8 0-.8-.5-1.2-.3-1.6 0 .1-.2.2-.3 0 .3 0-.2-.6.1-.7 0-.2 0-.9-.4-.6.2-.1.3-.7.4-.3 0-.2.1-.4 0-.5l-.1.3c0-.7.2-1-.1-1.5l-.1.2c0-.4 0-.7.3-.9l.1.4c0-.7 0-1.1-.2-1.6v.2c-.4-.7-.6-4.4-1.1-5.1l-.3.3-.2-.6c0 .1.9.3.8.3 0-1.2-.2-7.5 0-8.6.2-.4.5-.1.5-.1-.1-.5-.3-.2-.3-.7.1-.1.2 0 .3.1 0-.2.1-.4-.1-.4-.1.3-.5.1-.7.2v-.6h.2c0-.1-.6-.3-.5-.9.1-1 0-2.1.1-3.1.1 0 .2.2.3.4 0-.1 0-.3.1-.5-.2.2-.2-.4-.3-.2-.5-.7 0-1.7-.4-2.3-.2 0-1.7-.3-3.4-.6-.2-.8-.4-1.9-.7-2.2l-.3.2-.2-.3s.9.2.8.2c0-.4-.1-1.6-.1-2.7 1.7.1 3.3-.1 4-.8h.2v-.4c.1-.4-.1-.6.1-.6v.6c.1-.4.2-.1.3 0 0-.2.1-.4.1-.5-.1-.1-.1.1-.1.1-.1-.2-.3-.6-.2-.9 0-.4.4 0 .4-.5.3-2.8.6-5.4.7-8.2.1-.1.1 0 .1.1-.1-.8 0-1.6-.1-2.4.1-.2.2-.3.3-.3-.2.1-.1-4.3 0-4.3l-.4-.1c0-.8.5-.2.4-1-.6-.3.1-1.3-.2-1.6 0 0 .1-.4.3-.3-.3-.1-.1-.4-.1-.6-.1-.1-.1.1-.2.1l-.1-.5c.1-.2.3-.3.3 0 .2-1.4.7-8.2.6-9.8-.2.2-.1.7-.5.8-.2-.4.1-.6-.1-.8.5-.1.2-.9.7-1.2l-.3-.1.2-.2c-.3-1.8-.1-.4 0-2 0-.9-.4-1.4-.3-1.9 0 .1-.2.3-.3 0 .3 0-.2-.6.1-.7 0-.2 0-1-.3-.7.2-.1.3-.8.4-.4 0-.2.1-.4 0-.6l-.1.3c0-.8.3-1.2 0-1.7l-.2.3c0-.5 0-.8.3-1l.1.5c0-.8 0-1.2-.2-1.9v.2c-.3-.8-.5-5-.9-5.8l-.3.3-.2-.6c0 .1.9.3.8.4 0-1.4 0-8.5.3-9.7.2-.5.5-.1.5-.1-.1-.6-.3-.3-.2-.8.1-.1.2 0 .3.1 0-.2.1-.4-.1-.5-.1.3-.5.2-.7.3l.1-.7h.2c0-.2-.6-.4-.5-1.1.1-1.1.1-2.3.2-3.5.1 0 .2.3.3.5 0-.2 0-.4.1-.5-.2.3-.1-.5-.2-.3-.5-.8 0-1.9-.3-2.6-.3-.1-4-.9-6.6-1.4 0-.4.1-.9.1-1.3 2.3.2 5 .3 5.9.3h.2c.1 0-.1-.1.1-.1v.1h.3c-.1 0-.3-.1-.2-.1h.4c.2-.3.5-.6.4-.9h.1c-.1-.1 0-.2-.1-.3h.3c-.2 0-.2-.5-.1-.5h-.4c0-.1.5 0 .4-.1-.6-.1.1-.1-.2-.2h.2c-.3 0-.1 0-.1-.1H48l-.1-.1h.3c.1-.1.5-.9.3-1.1-.2 0-.1.1-.4.1-.2-.1.1-.1-.1-.1.5 0 .1-.1.7-.1h-.1c-.3-.2-.2-.1-.1-.2 0-.1-.5-.2-.3-.2h-.3c.3 0-.2-.1.1-.1 0 0 0-.1-.4-.1.2 0 .3-.1.4 0 0 0 .1 0 0-.1h-.1c0-.1.2-.1-.1-.2h-.1c0-.1 0-.1.3-.1l.1.1c0-.1 0-.1-.2-.2-.4-.1-.6-.6-1.1-.7h-.3l-.2-.1.8.1c0-.2-.2-.9 0-1.1h.5c-.1-.1-.3 0-.3-.1h.3s.1 0-.1-.1h-.7V78h.2s-.6-.1-.5-.1c.1-.1 0-.3.1-.4.1 0 .2 0 .3.1l.1-.1c-.2 0-.2-.1-.3 0-.5-.1 0-.2-.4-.3-.3 0-3-.2-5.3-.4-.1-.5-.4-.8-.2-1.1 0 .1-.2.2-.3 0 .3 0-.2-.5.1-.6 0-.2 0-.8-.4-.6.2-.1.3-.6.4-.3 0-.2.1-.3 0-.5l-.1.2c0-.4.1-.6.1-.9 2.3.2 5.4.3 6.3-.5h.2v-.3c.1-.3-.1-.5.1-.4v.4c.1-.3.2-.1.3 0 0-.1.1-.3.1-.4-.1-.1-.1 0-.1.1-.1-.2-.3-.4-.2-.6 0-.3.4 0 .4-.4.2-2 .5-3.9.4-5.9.1 0 .1 0 .1.1-.1-.6-.1-1.1-.1-1.7.1-.2.2-.2.3-.2-.2.1-.2-3-.1-3.1h-.4c0-.6.5-.2.4-.7-.6-.2.1-.9-.2-1.1 0 0 .1-.3.2-.2-.3-.1-.1-.3-.1-.4-.1-.1-.1 0-.2.1l-.1-.4c.1-.2.3-.2.3 0 .1-1 .5-5.8.3-6.9-.2.1-.1.5-.4.6-.2-.3.1-.4-.1-.6.5-.1.1-.6.7-.8l-.3-.1.2-.1c-.3-1.3-.2-.3-.1-1.4 0-.6-.5-1-.3-1.3 0 .1-.2.2-.3 0 .3 0-.2-.4.1-.5 0-.2 0-.7-.4-.5.2-.1.3-.6.4-.3 0-.2.1-.3 0-.4l-.1.2c0-.5.2-.8-.1-1.2l-.1.2c0-.3 0-.6.3-.7l.1.3c0-.5 0-.9-.2-1.3v.2c-.4-.6-.6-3.6-1.1-4.1l-.3.2-.2-.5c0 .1.9.2.8.3 0-1-.2-6 0-6.9.2-.4.5-.1.5-.1-.1-.4-.3-.2-.3-.6.1-.1.2 0 .3.1 0-.2.1-.3-.1-.3-.1.2-.5.1-.7.2v-.5h.2c0-.1-.6-.3-.5-.7.1-.5.1-1 .1-1.4 1.1 0 2-.1 2.4-.3h.2V28c.1-.2-.1-.3.1-.3v.2c.1-.2.2 0 .3 0 0-.1.1-.1.1-.2-.1 0-.1 0-.1.1-.1-.1-.3-.2-.2-.4 0-.2.4 0 .4-.2 0-.1.1-.3.1-.4.1.1.2.1.4.2.5 0 .5-.4 2.3.3-1.2-.1 0 .2.3.4-.3-.3 1.3.3 1.9.4.5.3-1.2.2.6.8l.5-.4c.7.3-.4.3 1.2.6-.9 0 .1.5-2 0 2.4 1.2 3.9.9 5.9 1.3h-.5c.5 0 1.2.2 1.8.4 1.2.5-1.1-.1-.8.2l2.1.6v.1c.6.1 1.1.2 1.3.4-.7 0-1 .1-1.4.1l2.3.3c-.3.1 1.7.8.1.5l3.2.9.2.4c.8.2.8.1-.1-.2 1.1.4 5.1.8 4.3 1.3 2.6.5 3.5.8 6.6 1.6-2.5-.4 2.6 1.2 0 .6 1.4.6 1.8.3 3 .6 1 .5.5.7-.8.5l1.4.2v.1l1.3.2c1.2.6.2.4 1.5.9l.4-.2.8.4c-.3-.2.5-.1 1.5.2v.1l1.1.3H90s.1.1.3.1c.3.1.5.2.3.3.6.2.7.2 1.6.5v.4l.2-.4c0 1.8-.5.2-.5 1.7zm-24.802 9.898c-.1 0-.1.1 0 0l.2.1c.2 0-.4 0-.2-.1z"/><path d="M67.1 53.4c.1 0-.1-.1-.1-.1.1.1-.1.1.1.1z"/><path opacity=".5" d="M60.3 51.1c0 .2.1.3.1.5h.2l.3.1h.1c.1.2.3.2.5.1l.5.2c.3.5.8.5 1.4.5l2.2.7c.1.1.2.3.3.3v-.1c0 .2.1 0 .2 0v.1c0 .1.1 0 .1-.1l.2.1h.1v.2s0 .2-.1.2c0 0 .1.1.2-.1s.2-.3.1-.5l-.1.1v-2.9c0 .1.1.2.1.4h-.1s.1 0 .1.1h-.1c-.2.1.1.3 0 .3h.2c0 .3.1.7.2 1h-.1c.3.3.2.6.1.9h.2c.1-.1-.2-.2 0-.3h.1c0-.1-.2 0-.1-.1h.1c0-.1 0-.3-.1-.4.2 0 0-.1.2-.2-.1 0 0-.1-.2-.1.1-.5-.1-1-.1-1.4-.3-.3.1-.4 0-.9-.1-.1-.1-.2-.1-.3h-.1l-.2.1c-.1-.1-.4-.2-.5-.3s-.3-.1-.4-.2l-.9-.3c-.7-.3-1.2-.7-2-.5v-.1c-.2 0-.4-.2-.6-.2-.3 0-.5 0-.7-.1s-.6-.2-.8-.1c-.1 0-.2-.1-.4-.1 0 .5 0 1.2.1 1.6h-.1c.1.5-.2.9-.1 1.4-.1.1-.1.3 0 .4zm4.1-2c-.1 0-.1 0 0 0h0zm-.3-.1l-.3-.1c.1-.1.2 0 .3.1zm-.4-.2c0 .1 0 .1 0 0h0z"/><path d="M82 48.3l.2.1c.2-.1-.3-.1-.2-.1zm.1-.102c.1 0-.1-.1-.1-.1 0 .1-.1.1.1.1z"/><path opacity=".2" d="M75.198 45.9c0 .2.1.3.1.5h.2l.3.1h.1c.1.2.3.2.5.1l.5.2c.3.5.8.5 1.4.5l2.2.7c.1.1.2.3.3.3v-.1c0 .2.1 0 .2 0v.1c0 .1.1 0 .1-.1l.2.1h.1v.2s0 .2-.1.2c0 0 .1.1.2-.1s.2-.3.1-.5l-.1.1v-2.9c0 .1.1.2.1.4h-.1s.1 0 .1.1h-.1c-.2.1.1.3 0 .3h.2c0 .3.1.7.2 1h-.1c.3.3.2.6.1.9h.2c.1-.1-.2-.2 0-.3h.1c0-.1-.2 0-.1-.1h.1c0-.1 0-.3-.1-.4.2 0 0-.1.2-.2-.1 0 0-.1-.2-.1.1-.5-.1-1-.1-1.4-.3-.3.1-.4 0-.9-.1-.1-.1-.2-.1-.3h-.1l-.2.1c-.1-.1-.4-.2-.5-.3s-.3-.1-.4-.2l-.9-.3c-.7-.3-1.2-.7-2-.5V43c-.2 0-.4-.2-.6-.2-.3 0-.5 0-.7-.1s-.6-.2-.8-.1c-.1 0-.2-.1-.4-.1 0 .5 0 1.2.1 1.6h-.1c.1.5-.2.9-.1 1.4v.4zm3.9-2.1l-.3-.1c.1-.1.2 0 .3.1zm-.4-.2c0 .1 0 .1 0 0h0z"/><path d="M83.098 174.398c-.1 0-.1.1 0 0l.2.1c.2 0-.4 0-.2-.1z"/><path d="M83.1 174.4c.1 0-.1-.1-.1-.1.1.1-.1.1.1.1z"/><path opacity=".2" d="M83 174.3h.2c.1-.1-.2-.2 0-.3h.1c0-.1-.2 0-.1-.1h.1c0-.1 0-.3-.1-.4.2 0 0-.1.2-.2-.1 0 0-.1-.2-.1.1-.5-.1-1-.1-1.4-.3-.3.1-.4 0-.9-.1-.1-.1-.2-.1-.3h-.1l-.2.1c-.1-.1-.4-.2-.5-.3s-.3-.1-.4-.2l-.9-.3c-.7-.3-1.2-.7-2-.5v-.1c-.2 0-.4-.2-.6-.2-.3 0-.5 0-.7-.1s-.6-.2-.8-.1c-.1 0-.2-.1-.4-.1 0 .5 0 1.2.1 1.6h-.1c.1.5-.2.9-.1 1.4v.5c0 .2.1.3.1.5h.2l.3.1h.1c.1.2.3.2.5.1l.5.2c.3.5.8.5 1.4.5l2.2.7c.1.1.2.3.3.3v-.1c0 .2.1 0 .2 0v.1c0 .1.1 0 .1-.1l.2.1h.1v.2s0 .2-.1.2c0 0 .1.1.2-.1s.2-.3.1-.5l-.1.1v-2.9c0 .1.1.2.1.4h-.1s.1 0 .1.1h-.1c-.2.1.1.3 0 .3h.2c0 .3.1.7.2 1h-.1c.3.2.2.5.1.8zm-3.2-4.4c.2-.1.2 0 .3.1l-.3-.1z"/><path d="M77 133.3l.2.1c.2-.1-.3-.1-.2-.1zm.1-.102c.1 0-.1-.1-.1-.1 0 .1-.1.1.1.1z"/><path opacity=".7" d="M73.3 132.3l2.2.7c.1.1.2.3.3.3v-.1c0 .2.1 0 .2 0v.1c0 .1.1 0 .1-.1l.2.1h.1v.2s0 .2-.1.2c0 0 .1.1.2-.1s.2-.3.1-.5l-.1.1v-2.9c0 .1.1.2.1.4h-.1s.1 0 .1.1h-.1c-.2.1.1.3 0 .3h.2c0 .3.1.7.2 1h-.1c.3.3.2.6.1.9h.2c.1-.1-.2-.2 0-.3h.1c0-.1-.2 0-.1-.1h.1c0-.1 0-.3-.1-.4.2 0 0-.1.2-.2-.1 0 0-.1-.2-.1.1-.5-.1-1-.1-1.4-.3-.3.1-.4 0-.9-.1-.1-.1-.2-.1-.3h-.1l-.2.1c-.1-.1-.4-.2-.5-.3s-.3-.1-.4-.2l-.9-.3c-.7-.3-1.2-.7-2-.5v-.1c-.2 0-.4-.2-.6-.2-.3 0-.5 0-.7-.1s-.6-.2-.8-.1c-.1 0-.2-.1-.2-.1 0-.1.1-.2 0-.3v.1-3.7l-1.3-.4c.2 0 .4.1.6.1l.1-.1v.1c.1.2.5 0 .5.2.1 0 .2-.1.2-.1h.1c0 .8.1 1.3.2 1.8h-.1c.3.5.2 1 .1 1.6.1 0 .1-.1.2 0 .1-.2-.2-.3 0-.5h.1c0-.1-.2 0-.1-.1h.1c0-.2 0-.5-.1-.7.2-.1 0-.3.2-.3-.1-.1 0-.1-.2-.1.1-.5 0-.9 0-1.8l-.8-.2c-.2 0-.3-.1-.5-.1-.5.2-.8-.3-1.3-.4-.2 0-.4 0-.6-.1l-.2.1c-1-.6-2.1-.8-3.1-1.2-1.2-.5-2.2-1-3.5-1v-.1c-.4-.1-.6-.3-1-.3-.9 0-1.6-.6-2.5-.6-.2-.1-.4-.1-.6-.2v1.4c0 .4 0 .9.1 1.3H57c.1.4 0 .8 0 1.3l.6.3c.2.1.4.1.6.2.5.3 1.2.3 1.8.4l.6.2s.1 0 .1.1c.2.2.5.2.8.3l.9.3c.7.6 1.5.7 2.4.8l3.8 1.2c.2.2.4.3.6.4v-.1c.1.2.2 0 .4 0h.1v.1c0 .1.1 0 .2-.1l.4.1h.1v.2c-.1 0 0 .2-.1.2 0 0 .2.1.2 0 0 .5 0 .9.1 1.3h-.1c.1.5-.2.9-.1 1.4v.5c0 .2.1.3.1.5h.2l.3.1h.1c.1.2.3.2.5.1l.5.2c.2.5.7.5 1.2.4zm.8-3.5l-.3-.1c.1-.1.2 0 .3.1zm-.4-.2c0 .1 0 .1 0 0h0zm-10.9-7.4c.2-.1.4.1.5.2l-.5-.2zm1 .3c-.1 0 0 0 0 0h0z"/><path d="M93.1 89.498v-.1H93l.1.1z"/><path d="M92.8 89.2l.2.2c.2-.1-.3-.2-.2-.2zm.1-.1c.1-.1-.1-.1-.1-.1.1 0-.1.1.1.1zm-9.902-6.902c-.4-.1-.6-.3-1-.3-.9 0-1.6-.6-2.5-.6-.2-.1-.4-.1-.6-.2v1.4c0 .4 0 .9.1 1.3h-.1c.1.4 0 .8 0 1.3l.6.3c.2.1.4.1.6.2.5.3 1.2.3 1.8.4l.6.2s.1 0 .1.1c.2.2.5.2.8.3l.9.3c.7.6 1.5.7 2.4.8l3.8 1.2c.2.2.4.3.6.4v-.1c.1.2.2 0 .4 0h.1v.1c0 .1.1 0 .2-.1l.4.1h.1v.2c-.1 0 0 .2-.1.2 0 .1.2.1.2-.1.1-.2.2-.3.1-.5v.1-3.7l-1.3-.4c.2 0 .4.1.6.1l.1-.1v.1c.1.2.5 0 .5.2.1 0 .2-.1.2-.1h.1c0 .8.1 1.3.2 1.8h-.1c.3.5.2 1 .1 1.6.1 0 .1-.1.2 0 .1-.2-.2-.3 0-.5h.1c0-.1-.2 0-.1-.1h.1c0-.2 0-.5-.1-.7.2-.1 0-.3.2-.3-.1-.1 0-.1-.2-.1.1-.5 0-.9 0-1.8l-.8-.2c-.2 0-.3-.1-.5-.1-.5.2-.8-.3-1.3-.4-.2 0-.4 0-.6-.1l-.2.1c-1-.6-2.1-.8-3.1-1.2-1.3-.5-2.3-1-3.6-1.1 0 0 0 .1 0 0zm2.8 1.3c-.1 0 0 0 0 0h0zm-.4-.1l-.5-.2c.2-.1.3 0 .5.2zm7.702 113.1v-.1H93l.1.1z"/><path d="M92.8 196.2l.2.2c.2-.1-.3-.2-.2-.2zm.1-.1c.1-.1-.1-.1-.1-.1.1 0-.1.1.1.1z"/><path opacity=".2" d="M92.798 195.998c.1 0 .1-.1.2 0 .1-.2-.2-.3 0-.5h.1c0-.1-.2 0-.1-.1h.1c0-.2 0-.5-.1-.7.2-.1 0-.3.2-.3-.1-.1 0-.1-.2-.1.1-.5 0-.9 0-1.8l-.8-.2c-.2 0-.3-.1-.5-.1-.5.2-.8-.3-1.3-.4-.2 0-.4 0-.6-.1l-.2.1c-1-.6-2.1-.8-3.1-1.2-1.2-.5-2.2-1-3.5-1v-.1c-.4-.1-.6-.3-1-.3-.9 0-1.6-.6-2.5-.6-.2-.1-.4-.1-.6-.2v1.4c0 .4 0 .9.1 1.3h-.1c.1.4 0 .8 0 1.3l.6.3c.2.1.4.1.6.2.5.3 1.2.3 1.8.4l.6.2s.1 0 .1.1c.2.2.5.2.8.3l.9.3c.7.6 1.5.7 2.4.8l3.8 1.2c.2.2.4.3.6.4v-.1c.1.2.2 0 .4 0h.1v.1c0 .1.1 0 .2-.1l.4.1h.1v.2c-.1 0 0 .2-.1.2 0 .1.2.1.2-.1.1-.2.2-.3.1-.5v.1-3.7l-1.3-.4c.2 0 .4.1.6.1l.1-.1v.1c.1.2.5 0 .5.2.1 0 .2-.1.2-.1h.1c0 .8.1 1.3.2 1.8h-.1c.2.5.1 1 0 1.6zm-8-5.8c.2-.1.4.1.5.2l-.5-.2zm1 .3c-.1 0 0 0 0 0h0z"/><path d="M71.1 127.398H71l.1.1v-.1z"/><path d="M70.8 127.2l.2.2c.2-.1-.3-.2-.2-.2zm.1-.1c.1-.1-.1-.1-.1-.1.1 0-.1.1.1.1zm5.698-42.602l-.2-.1.1.1h.1z"/><use xlink:href="#B"/><path d="M76.3 84.4c.1 0-.1 0-.1 0 .1-.1 0 0 .1 0z"/><path opacity=".5" d="M73.7 83.9h.3l1.3.4c0 .1.1.2.2.2v-.1c0 .2.1 0 .1 0v.1c0 .1 0 0 .1-.1h.1v.2s0 .2-.1.2c0 0 .1 0 .1-.1a.9.9 0 0 0 .1-.5v.1-1.7c0 .1.1.1.1.2h-.1c-.2.1.1.2 0 .2h.2c0 .2.1.4.2.6h-.1c.3.2.2.3.1.5h.2c.1-.1-.2-.1 0-.2h.1c0-.1 0-.2-.1-.2.2 0 0-.1.2-.1h-.2c.1-.3-.1-.6-.1-.8-.3-.1.1-.3 0-.4s-.1-.1-.1-.2l-.1-.1c.1-.2.2-.4.2-.6v-.6c0-.2.1-.5.1-.7-.2-.1-.4-.2-.6-.2-.3-.1-.3 0-.5.1V80c-.1 0-.2-.1-.3-.1-.2.1-.4 0-.6-.1s-.4-.1-.4 0c-.1 0-.1-.1-.2-.1 0 .3 0 .7.1 1h-.1c.1.3-.2.6-.1.8-.1.2.1.4.2.6v.4c-.2.1-.1.2 0 .3v.3c-.5.2-.5.6-.3.8zm2.1-3h0zm.1-.3s0 .1-.1.1l.1-.1h-.2.2z"/><path d="M91.598 117.498l-.2-.1.1.1h.1z"/><use xlink:href="#B" x="15" y="33"/><path d="M91.3 117.4c.1 0-.1 0-.1 0 .1-.1 0 0 .1 0z"/><use xlink:href="#C" opacity=".5"/><path d="M49.498 40.498h.1l-.2-.1.1.1z"/><use xlink:href="#B" x="-27" y="-44"/><path d="M49.3 40.4c.1 0-.1 0-.1 0 .1-.1 0 0 .1 0z"/><path opacity=".2" d="M46.7 39.9h.3l1.3.4c0 .1.1.2.2.2v-.1c0 .2.1 0 .1 0v.1c0 .1 0 0 .1-.1h.1v.2s0 .2-.1.2c0 0 .1 0 .1-.1a.9.9 0 0 0 .1-.5v.1-1.7c0 .1.1.1.1.2h-.1c-.2.1.1.2 0 .2h.2c0 .2.1.4.2.6h-.1c.3.2.2.3.1.5h.2c.1-.1-.2-.1 0-.2h.1c0-.1 0-.2-.1-.2.2 0 0-.1.2-.1h-.2c.1-.3-.1-.6-.1-.8-.3-.1.1-.3 0-.4s-.1-.1-.1-.2l-.1-.1c.1-.2.2-.4.2-.6v-.6c0-.2.1-.5.1-.7-.2-.1-.4-.2-.6-.2-.3-.1-.3 0-.5.1V36c-.1 0-.2-.1-.3-.1-.2.1-.4 0-.6-.1s-.4-.1-.4 0c-.1 0-.1-.1-.2-.1 0 .3 0 .7.1 1h-.1c.1.3-.2.6-.1.8-.1.2.1.4.2.6v.4c-.2.1-.1.2 0 .3v.3c-.5.2-.5.6-.3.8zm2.1-3h0zm.1-.3s0 .1-.1.1l.1-.1h-.2.2zm-.7 117.7c0 .1.1.2.2.2v-.1c0 .2.1 0 .1 0v.1c0 .1 0 0 .1-.1h.1v.2s0 .2-.1.2c0 0 .1 0 .1-.1.1-.2.1-.3.1-.5v.1-1.7c0 .1.1.1.1.2h-.1c-.2.1.1.2 0 .2h.2c0 .2.1.4.2.6h-.1c.3.2.2.3.1.5h.2c.1-.1-.2-.1 0-.2h.1c0-.1 0-.2-.1-.2.2 0 0-.1.2-.1h-.2c.1-.3-.1-.6-.1-.8-.3-.1.1-.3 0-.4s-.1-.1-.1-.2l-.1-.1c.1-.2.2-.4.2-.6v-.6c0-.2.1-.5.1-.7-.2-.1-.4-.2-.6-.2-.3-.1-.3 0-.5.1v-.1c-.1 0-.2-.1-.3-.1-.2.1-.4 0-.6-.1s-.4-.1-.4 0c-.1 0-.1-.1-.2-.1 0 .3 0 .7.1 1h-.1c.1.3-.2.6-.1.8-.1.2.1.4.2.6v.2c-.2.1-.1.2 0 .3v.3a.53.53 0 0 0-.1.8h.3l1.1.6zm.6-3.4h0zm.1-.3s0 .1-.1.1l.1-.1h-.2.2z"/><path d="M49.598 154.498l-.2-.1.1.1h.1z"/><use xlink:href="#B" x="-27" y="70"/><path d="M49.3 154.4c.1 0-.1 0-.1 0 .1-.1 0 0 .1 0zm22.198 56.098h.1l-.2-.1.1.1z"/><use xlink:href="#B" x="-5" y="126"/><path d="M71.3 210.4c.1 0-.1 0-.1 0 .1-.1 0 0 .1 0z"/><use xlink:href="#C" x="-20" y="93" opacity=".2"/><path opacity=".5" d="M47.4 73.8c.2.2.4.2.6.2l.5.2c.4.5.9.5 1.5.5l2.5.8c.1.1.2.3.4.3v-.1c0 .2.2 0 .2 0v.1c0 .1.1 0 .1-.1l.2.1h.1v.2s0 .2-.1.2c0 0 .1.1.2-.1s.2-.3.1-.5l-.1.1v-3.2c0 .1.1.2.1.4h-.1s.1 0 .1.1h-.1c-.2.1.1.3 0 .4h.2c0 .4.1.8.2 1.2h-.1c.3.3.2.7.1 1h.2c.1-.1-.2-.2 0-.3h.1c0-.1-.2 0-.1-.1h.1c0-.1 0-.3-.1-.4.2 0 0-.2.2-.2-.1 0 0-.1-.2-.1.1-.5-.1-1.1-.1-1.6-.3-.2 0-.6 0-1h-.2c-.2 0-.4 0-.6-.1-.1 0-.1.1-.2.1-.6-.5-1.3-.5-2-.8s-1.3-.8-2.2-.6v-.1c-.2 0-.4-.2-.6-.2-.3 0-.6-.1-.8-.1-.2-.1-.7-.2-.9-.2-.1 0-.3-.1-.4-.1v.9c0 .3 0 .6.1.8h-.1c.1.5-.2 1-.1 1.6-.1.2 0 .5 0 .7.3 0 .5 0 .6.1l.7-.1zm3.2-2.7l-.3-.1c.1-.2.2 0 .3.1z"/><path d="M54.4 75.9l-.1-.1.1.1z"/><path d="M54.2 75.7c-.1 0-.1 0 0 0l.2.1c.2 0-.4-.1-.2-.1z"/><path d="M54.2 75.698c.1 0-.1-.1-.1-.1.1 0-.1.1.1.1zM84.4 95.8l-.1-.1v.1h.1z"/><path d="M84.1 95.5s-.1 0 0 0l.2.2c.2-.1-.3-.2-.2-.2zm0-.1c.1-.1-.1-.1-.1-.1.1 0 0 .1.1.1z"/><path opacity=".2" d="M70.7 91.698c.2.1.4.1.6.2.5.3 1.2.3 1.8.4l.6.2s.1 0 .1.1c.2.2.5.2.8.3l.9.3c.7.6 1.5.7 2.4.8l3.8 1.2c.2.2.4.3.6.4v-.1c.1.2.2 0 .4 0h.1v.1c0 .1.1 0 .2-.1l.4.1h.1v.2c-.1 0 0 .2-.1.2 0 .1.2.1.2-.1.1-.2.2-.3.1-.5v.1-3.7l-1.3-.4c.2 0 .4.1.6.1l.1-.1v.1c.1.2.5 0 .5.2.1 0 .1-.1.2-.1h.1c0 .8.1 1.3.2 1.8H84c.3.5.2 1 .1 1.6.1 0 .1-.1.2 0 .1-.2-.2-.3 0-.5h.1c0-.1-.2 0-.1-.1h.1c0-.2 0-.5-.1-.7.2-.1 0-.3.2-.3-.1-.1 0-.1-.2-.1.1-.5 0-.9 0-1.8l-.8-.2c-.2 0-.3-.1-.5-.1-.5.2-.8-.3-1.3-.4-.2 0-.4 0-.6-.1l-.2.1c-1-.6-2.1-.8-3.1-1.2-1.2-.5-2.2-1-3.5-1v-.1c-.4-.1-.6-.3-1-.3-.9 0-1.6-.6-2.5-.6-.2-.1-.4-.1-.7-.2v1.4c0 .4 0 .9.1 1.3h-.1c.1.4 0 .8 0 1.3.2.2.4.3.6.3zm5.9-2l-.5-.2c.2-.1.4.1.5.2zm-.6-.3c-.1 0-.1 0 0 0h0z"/><path opacity=".5" d="M58.8 106.598c0 .1.2-.1.3-.1v.1c0 .1.1 0 .1-.1l.2.1h.1v.2s0 .2-.1.2c0 0 .1.1.2-.1s.2-.3.2-.5l-.1.1v-3.1c0 .1.1.2.1.4h-.1s.1 0 .1.1h-.1c-.2.1.1.3 0 .3h.2c0 .4.1.8.2 1.1H60c.3.3.2.6.1 1h.2c.1-.1-.2-.2 0-.3h.1c0-.1-.2 0-.1-.1h.1c0-.1 0-.3-.1-.4.2 0 0-.2.2-.2-.1 0 0-.1-.2-.1.1-.5-.1-1-.1-1.6-.2-.1-.1-.2-.1-.4s.1-.5.1-.7c-.2 0-.4-.1-.5-.1s-.1 0-.2.1c-.5-.5-1.2-.6-1.8-1-.7-.4-1.2-.9-2.1-.8v-.1c-.2 0-.4-.2-.6-.2-.3 0-.5-.1-.8-.2s-.7-.3-.9-.2c-.1 0-.2-.1-.3-.1 0 .6 0 1.3.1 1.8H53c.1.5-.2 1-.1 1.5v.4c0 .2.1.3.1.5.1 0 .2 0 .3.1l.4.2h.1c.1.2.3.2.5.2l.5.2c.3.5.9.6 1.4.6l2.3.9c.1.1.2.3.3.3zm-2.5-5c.1-.1.1-.1 0 0h0zm.1 0c.2-.1.2 0 .3.1l-.3-.1z"/><path d="M60.4 106.8l-.1-.1v.1h.1z"/><path d="M60.1 106.598s-.1 0 0 0l.2.1c.2 0-.3-.1-.2-.1z"/><path d="M60.1 106.6c.1 0-.1-.1-.1-.1.1 0 0 .1.1.1zm-5.8 104.2h.1l-.1-.1v.1z"/><path d="M54.1 210.598s-.1 0 0 0l.2.1c.2 0-.3-.1-.2-.1z"/><path d="M54.1 210.6c.1 0-.1-.1-.1-.1.1 0 0 .1.1.1z"/><path opacity=".5" d="M54.1 210.498h.2c.1-.1-.2-.2 0-.3h.1c0-.1-.2 0-.1-.1h.1c0-.1 0-.3-.1-.4.2 0 0-.2.2-.2-.1 0 0-.1-.2-.1.1-.5-.1-1-.1-1.6-.2-.1-.1-.2-.1-.4s.1-.5.1-.7c-.2 0-.4-.1-.5-.1s-.1 0-.2.1c-.5-.5-1.2-.6-1.8-1-.7-.4-1.2-.9-2.1-.8v-.1c-.2 0-.4-.2-.6-.2-.3 0-.5-.1-.8-.2s-.7-.3-.9-.2c-.1 0-.2-.1-.3-.1 0 .6 0 1.3.1 1.8H47c.1.5-.2 1-.1 1.5v.4c0 .2.1.3.1.5.1 0 .2 0 .3.1l.4.2h.1c.1.2.3.2.5.2l.5.2c.3.5.9.6 1.4.6l2.3.9c.1.1.2.3.3.3v-.1c0 .2.2 0 .2 0v.1c0 .1.1 0 .1-.1l.2.1h.1v.2s0 .2-.1.2c0 0 .1.1.2-.1s.2-.3.2-.5l-.1.1v-3.1c0 .1.1.2.1.4h-.1s.1 0 .1.1h-.1c-.2.1.1.3 0 .3h.2c0 .4.1.8.2 1.1h-.1c.3.3.2.6.2 1zm-3.8-4.9c.1-.1.1-.1 0 0h0zm.1 0c.2-.1.2 0 .3.1l-.3-.1zm20.3-48.9c0 .1.1.2.1.4h-.1s.1 0 .1.1h-.1c-.2.1.1.3 0 .3h.2c0 .4.1.7.2 1.1H71c.3.3.2.6.1 1h.2c.1-.1-.2-.2 0-.3h.1c0-.1-.2 0-.1-.1h.1c0-.1 0-.3-.1-.4.2 0 0-.2.2-.2-.1 0 0-.1-.2-.1.1-.5-.1-1-.1-1.5-.2-.1-.1-.2-.1-.4s.1-.5.1-.6v-.1c-.2 0-.3 0-.4-.1-.1 0-.1 0-.2.1-.6-.5-1.3-.5-1.9-.8-.7-.3-1.3-.7-2.1-.6v-.1c-.2 0-.4-.2-.6-.2-.6.1-1-.4-1.5-.2-.6-.2-1.2-.4-1.8-.5v-.1c-.5 0-.9-.5-1.4-.6-.3-.2-.7-.1-1.1-.2l-.4-.1h-.1c-.1-.2-.3-.2-.5-.1l-.5-.2c-.2-.4-1.1-.6-1.4-.5 0 .1 0 .1.1.2v2.4a.76.76 0 0 0-.2.4h.1c-.2.1 0 .1.1.2h-.1c-.1 0 0 .1.1.1v.3h-.2s-.2.1-.2 0c0 0 0 .1.2.1h.3l13.4 4.4v-3.1h-.2zm-3.2-1.8c.2-.1.2 0 .3.1l-.3-.1zm.6.2c-.1 0 0 0 0 0h0z"/><path d="M71.3 159.8h.1l-.1-.1v.1z"/><path d="M71.1 159.598s-.1 0 0 0l.2.1c.2 0-.3-.1-.2-.1z"/><path d="M71.1 159.6c.1 0-.1-.1-.1-.1.1 0 0 .1.1.1zm8.4 36.8h.1l-.1-.1v.1z"/><path d="M79.298 196.2s-.1 0 0 0l.2.1c.2 0-.3-.1-.2-.1z"/><path d="M79.3 196.198c.1 0-.1-.1-.1-.1.1 0 0 .1.1.1z"/><path d="M79.3 196.098h.2c.1-.1-.2-.2 0-.3h.1c0-.1-.2 0-.1-.1h.1c0-.1 0-.3-.1-.4.2 0 0-.1.2-.2-.1 0 0-.1-.2-.1.1-.5-.1-1-.1-1.4-.3-.3.1-.4 0-.9-.1-.1-.1-.2-.1-.3h-.1l-.2.1c-.1-.1-.4-.2-.5-.3s-.3-.1-.4-.2l-.9-.3c-.7-.3-1.2-.7-2-.5v-.1c-.2 0-.4-.2-.6-.2-.3 0-.5 0-.7-.1s-.6-.2-.8-.1c-.1 0-.2-.1-.4-.1 0 .5 0 1.2.1 1.6h-.1c.1.5-.2.9-.1 1.4v.5c0 .2.1.3.1.5h.2l.3.1h.1c.1.2.3.2.5.1l.5.2c.3.5.8.5 1.4.5l2.2.7c.1.1.2.3.3.3v-.1c0 .2.1 0 .2 0v.1c0 .1.1 0 .1-.1l.2.1h.1v.2s0 .2-.1.2c0 0 .1.1.2-.1s.2-.3.1-.5l-.1.1v-2.9c0 .1.1.2.1.4h-.1s.1 0 .1.1h-.1c-.2.1.1.3 0 .3h.2c0 .3.1.7.2 1h-.1c.2.2.1.5.1.8zm-3.4-4.5h0zm.1 0c.2-.1.2 0 .3.1l-.3-.1z"/></g><defs ><path id="B" d="M76.298 84.398s-.1 0 0 0l.2.1c.2-.1-.3-.1-.2-.1z"/><path id="C" d="M91.3 117.298h.2c.1-.1-.2-.1 0-.2h.1c0-.1 0-.2-.1-.2.2 0 0-.1.2-.1h-.2c.1-.3-.1-.6-.1-.8-.3-.1.1-.3 0-.4s-.1-.1-.1-.2l-.1-.1c.1-.2.2-.4.2-.6v-.6c0-.2.1-.5.1-.7-.2-.1-.4-.2-.6-.2-.3-.1-.3 0-.5.1v-.1c-.1 0-.2-.1-.3-.1-.2.1-.4 0-.6-.1s-.4-.1-.4 0c-.1 0-.1-.1-.2-.1 0 .3 0 .7.1 1h-.1c.1.3-.2.6-.1.8-.1.2.1.4.2.6v.2c-.2.1-.1.2 0 .3v.3a.53.53 0 0 0-.1.8h.3l1.3.4c0 .1.1.2.2.2v-.1c0 .2.1 0 .1 0v.1c0 .1 0 0 .1-.1h.1v.2s0 .2-.1.2c0 0 .1 0 .1-.1.1-.2.1-.3.1-.5v.1-1.7c0 .1.1.1.1.2h-.1c-.2.1.1.2 0 .2h.2c0 .2.1.4.2.6h-.1c0 .4-.1.5-.1.7zm-.5-3.4h0zm0-.2l-.1-.1c.1-.1.2-.1.2 0s0 .1-.1.1z"/></defs></svg>