<svg xmlns="http://www.w3.org/2000/svg" xmlns:xlink="http://www.w3.org/1999/xlink" width="88" height="191" fill="none" xmlns:v="https://vecta.io/nano"><path d="M81.907 24.602l-.5-.4v-.3h-.2l-20.3-19.8-20.9 19.5h-.6l-16.8 5.3v157l31.8.5v-.5l29 .5-2-161.8h.5z" fill="#efefef"/><g fill="#202020"><use xlink:href="#B"/><path d="M38.51 159.9l-.3-.4c-.1.2.4.3.3.4 0 .1 0 0 0 0z"/><use xlink:href="#C"/><use xlink:href="#B" y="-4"/><path d="M38.51 156l-.2-.5c-.2.2.3.3.2.5z"/><use xlink:href="#C" y="-4"/><path d="M80.7 157.3H82v-2.2h-2.4l-2.4.1v-.1c-2.1.1-4.1-.2-6.2-.1-1.5-.1-3.1.1-4.6.2h-2c-.7-.1-1.4-.1-2.2 0h-.1c-.9.3-1.6.4-2.2.3-.3-.1-.5-.2-.7-.3-.1-.1-.3-.2-.5-.2h-2.4c-.9 0-1.7.1-2.6.2h-7.5c-.5-.4-1.9.7-2.4.5-.2-.1-.2-.3-.1-.6 0-.1 0-.1-.1-.1h-1.2v.1c-.3-.2-.6 0-.9.1h-.2c-.1 0-.1 0-.2-.1s-.3 0-.4.1h-1.4c-.1 0-.1-.1-.1-.2.2 0-.2-.2.1-.2-.1 0-.6 0-.5.2 0 .2-.2.3 0 .4v1.8h3.9c1.6-.5 2.6-.5 4.3-.2.1 0 .3.1.4.1s.2.1.4.1c-.1 0-.3-.1-.4-.1-.3 0-.5 0-.6-.1-.1 0-.2.1-.1.1-.7-.1-1.5-.1-2.2 0l-1.1.3-.3.1c-.1 0-.3.1-.4.1l-.6.1c-.1 0-.1-.1-.1-.1-.5.1-1.1.2-1.6.2h-2.1v-1.2c-.1-.1-.1.1-.2 0-.1.4 0 .9.1 1.3h.7l-.1.1c.5 0 .2-.2.6-.1.1.1 0 .1 0 .1.6 0 1.2 0 1.8-.1.1.2.6 0 .9.2.2-.1.3 0 .4-.2h.2c.1 0 .2-.1.3-.1l.4-.1c.2-.1.5-.1.7-.2.5-.1 1-.1 1.5-.1s1 .1 1.5.2c.1 0 .2.1.4.1 0 0 .2.1.3.1h1c1-.3 2.2.1 3.4 0 .4-.1 1-.1 1.4-.1l.4-.1c.7.1 1.4.1 2.1.1l6.3-.3 9.1.2-.1.1c1 0 1.7.1 2.6 0 2.4-.4 4.6-.1 6.7-.4zm-32.3 0s-.1.1-.2 0c0 0 0-.1.1-.1-.1 0-.2-.1-.3-.1h2c-.6.2-1.1.2-1.6.2zm15.6-.4h0zm1.3 0h1.2c-.4.1-.8.1-1.2 0zm1.7.1c-.1-.1-.1-.1 0 0 0-.1 0-.1 0 0z"/><use xlink:href="#B" y="-20"/><path d="M38.5 140l-.2-.5c-.2.2.3.4.2.5zm-.002.398c-.1-.1 0-.3-.1-.3 0 .2.1.3.1.3zM82 139.1h-2.4l-2.3.1v-.1c-2.1.1-4.2-.2-6.4-.1-1.5-.1-3.1.1-4.7.2h-2c-.7-.2-1.5-.1-2.2 0h-2.4c-.6-.1-1.2-.2-1.9-.2h-1c-.2 0-.4.1-.5.2s-.3.1-.4.2c-.6.2-1.2.3-1.9.4-.2.1-.3.1-.4.2-.1 0-.1 0-.2-.1l-.1-.1c-.1-.1-.2-.1-.4-.2-.2.2-.2-.8-.2-.8-.1-.1-.2-.1-.2-.2.1 0 .2-.1.3-.1.1-.1.2-.1.3-.2 0 0 .1 0 .1-.1v-.1l.1.1c.3-.1.5-.2.8-.4.1-.1.2-.3.2-.3h.1c.2 0 .5 0 .8.1h4.6c.1 0 .2 0 .3-.1l.2-.1c.2-.1.3-.1.5-.1 0 .1 0 .1.1.3l.2.2c.1.1.3.2.5.1.3-.1.3-.3.3-.4.2-.4.3-.7.3-1 .1-.2.1-.3.2-.5.1-.1.2 0 .2.1s.1.2.1.2l.1.3.1.4.1.2v.1h.1c.3.1.7.2.8.2h.1c.1 0 .2.1.3.1h.3l4.7-.2-.1.1c.9-.1 1.8.1 2.7 0 2.2-.3 4.6 0 6.7-.2h3.6v-2.2l-2.8.1v-.1c-2.2.1-4.3-.2-6.5-.1-1.6-.1-3.2.1-4.8.2h-2c-.3-.1-.7-.1-1.1-.1s-.8.1-1.2 0c-.7-.2-1.5-.3-2.3-.2-.3 0-.6-.1-.9 0a.9.9 0 0 0-.5.1c-.2 0-.3.1-.4.1h-2c-.9 0-1.8.1-2.7.2H44.4c-.6-.1-1.2-.2-1.8-.2v.1c-.3-.2-.6 0-.9.1h-.2c-.1 0-.1 0-.2-.1s-.3 0-.4.1h-1.4c-.1 0-.1-.1-.1-.2.2 0-.2-.2.1-.2-.1 0-.6 0-.5.2 0 .2-.2.3 0 .4v1.8h9.5c.1 0 .2.1.3.1s.2.1.3.1.2.1.3.1a1.85 1.85 0 0 0 .7.8c-.1-.1-.2-.1-.3-.2-.2-.1-.3-.3-.4-.5 0-.1-.2-.1-.2-.1-.1 0-.2 0-.3-.1h.1-.3c-.2-.2-.5-.2-.8-.1-.3 0-.6.1-.7 0-.1 0-.2.1-.1.2l-4.8.2c-.1 0-.1-.1-.1-.1-.6.1-1.1.2-1.7.2h-2.2v-1.1c-.1-.1-.1.2-.2 0-.1.5 0 .9.1 1.2.3 0 .6-.1.9 0l-.1.1c.3 0 .3 0 .3-.1 0 0 .1-.1.2 0s0 .1 0 .1c.6 0 1.3 0 1.8-.1.1.2.7 0 .9.2.2-.1.3 0 .4-.2h5.6l.3.1h-.1c.1 0 .3.1.3.1.1 0 .1 0 .2.1.1 0 .1.1.2.2s.2.2.4.3c.3.2.6.4.9.4h.3c-.5.3-1 .7-1.5.6-.1 0-.1-.1-.2-.1l-.2-.2c-.1 0-.3-.1-.4-.1-.4-.1-.7-.1-1.1 0H44c-.6-.1-1.2-.2-1.8-.2v.1c-.3-.2-.6 0-.9.1h-.2c-.1 0-.1 0-.2-.1s-.3 0-.4.1h-1.4c-.1 0-.1-.1-.1-.2.2 0-.2-.2.1-.2-.1 0-.6 0-.5.2 0 .2-.2.3 0 .4v1.8h10.9a.76.76 0 0 0 .2-.4l-.1.1c-.1.1-.1.2-.2.3h-1.1l.1-.1c-.1 0-.2.1-.3.1 0 0 0-.1.1-.1-.4-.2-1.2.1-1.5 0-.1 0-.2.1-.1.2l-4.7.2c-.1 0-.1-.1-.1-.1-.5.1-1.1.2-1.7.2H38v-1.2c-.1-.1-.1.2-.2 0-.1.5 0 .9.1 1.2h.8l-.1.1c.5 0 .2-.2.6-.1.1.1 0 .1 0 .1.6 0 1.2 0 1.8-.1.1.2.7 0 .9.2.2-.1.3 0 .4-.2 2.1.1 4.3-.1 6.5-.1.1 0 .3-.1.5-.1s.3-.2.4-.3l.1-.2.1-.1c.1-.1.3-.3.3-.5 0-.1 0-.2.1-.2.2.1.5.3.8.4.2.1.5.1.9.1.2-.1.3 0 .4.1l.2.1.1.1h.1c.1.1.3.3.5.4.1 0 .1.1.2.1l.1.1h7.8c3.3.1 6.2.3 9.4-.1l-.1.1c.9-.1 1.8.1 2.6 0 2.2-.3 4.5 0 6.6-.2h1.6c.5-.8.5-1.6.5-2.4zm-18-1.9h0c.1.1.1.1 0 0 0 .1.1.1 0 0zm-.8-.2c.2 0 .3.1.5.1h.1-.5c-.2 0-.1-.2-.2-.3l-.1-.3c0-.1 0-.2-.1-.3.1.2.2.5.3.8zm-.7-1.6h0zm-.5-.1s0 .1 0 0c-.1.2-.1.3-.2.3.1-.1.2-.2.2-.3zm1.4 6h0zm1.1-.1H66c-.5.2-1 .1-1.5 0zm1.9.1h-.1c0-.1 0-.1.1 0z"/><use xlink:href="#B" y="-24"/><path d="M38.5 136l-.2-.5c-.2.2.3.4.2.5zm-.002.398c-.1-.1 0-.3-.1-.3 0 .2.1.3.1.3z"/><use xlink:href="#B" y="-60"/><use xlink:href="#D"/><use xlink:href="#E"/><path d="M39.11 101.8l-.1.1c.5 0 .2-.2.6-.1.1.1 0 .1 0 .1.6 0 1.2 0 1.8-.1.1.2.6 0 .9.2.2-.1.3 0 .4-.2h6.4c.9-.5 2.1-.2 3.3-.3.4-.1.9-.1 1.4 0l.4-.1c.3.1.7.1 1 .2l.5.1c.3.1.4 0 .6 0h6.3l2.4.1.3-.1h.3l.5-.1c.4 0 .7-.1 1.1-.1 1.5-.1 2.9-.1 4.4.1h2.6c2.1-.3 4.4 0 6.4-.2h1.6v-2.2h-2.3l-2.2.1v-.1c-1 .1-2.1 0-3.1 0h-1.1c-.1 0-.2-.1-.4-.1-.5-.2-1-.2-1.6-.2-1.1-.1-2.2.3-3.3.5-.4 0-.9.1-1.3.1h-2c-.7-.2-1.4-.1-2.2 0h-2.3c-.6-.1-1.2-.2-1.8-.2h-1.9c-.8-.3-1.7-.2-2.6-.1-.7 0-1.3.2-1.9.4h-8.2c-.6-.1-1.2-.2-1.8-.2v.1c-.3-.2-.6 0-.9.1h-.2c-.1 0-.1 0-.2-.1s-.3 0-.4.1h-1.4c-.1 0-.1-.1-.1-.2.2 0-.2-.2.1-.2-.1 0-.6 0-.5.2 0 .2-.2.3 0 .4v1.8h9.7c.4-.1.8-.2 1.2-.2l-1.4.3.1-.1c-.1 0-.2.1-.3.1 0 0 0-.1.1-.1-.4-.2-1.2.1-1.4 0-.1 0-.2.1-.1.2l-4.6.2c-.1 0-.1-.1-.1-.1-.5.1-1.1.2-1.6.2h-2.1v-1.2c-.1-.1-.1.1-.2 0-.1.4 0 .9.1 1.3.6-.5.9-.5 1.1-.4zm27.7-.9s0 .1 0 0h-.1.1zm-.4.1c-.4.2-.7.2-1.1.2h-.3c.5-.1.9-.2 1.4-.2zm-2.4.2h.2c-.1.1-.2.1-.2 0z"/><use xlink:href="#B" y="-64"/><use xlink:href="#D" y="-4"/><use xlink:href="#C" y="-64"/><path d="M38.41 97.7h.7l-.1.1c.5 0 .2-.2.6-.1.1.1 0 .1 0 .1.6 0 1.2 0 1.8-.1.1.2.6 0 .9.2.2-.1.3 0 .4-.2 2.1.1 4.2-.1 6.3-.1 1-.3 2.2.1 3.4 0 .4-.1.9-.1 1.4-.1l.4-.1c2.8.3 5.6.1 8.4.2 3.2.1 6 .3 9.1-.1l-.1.1c.9-.1 1.7.1 2.6 0 2.1-.3 4.4 0 6.4-.2h1.5v-2.2h-2.3l-2.2.1v-.1c-1 .1-2.1 0-3.1 0-.5 0-1.1 0-1.5-.1l-1.5-.3c-.5-.1-1.1-.1-1.7-.1-.5.1-1.1.2-1.6.5-.2.1-.5.1-.8.1h-2.5c-.7-.2-1.4-.1-2.2 0h-2.3c-2.1-.4-4.2-.2-6.3 0h-10c-.6-.1-1.2-.2-1.8-.2v.1c-.3-.2-.6 0-.9.1h-.2c-.1 0-.1 0-.2-.1s-.3 0-.4.1h-1.4c-.1 0-.1-.1-.1-.2.2 0-.2-.2.1-.2-.1 0-.6 0-.5.2 0 .2-.2.3 0 .4v1.8h11c-.5 0-1 .1-1.5.1l.1-.1c-.1 0-.2.1-.3.1 0 0 0-.1.1-.1-.4-.2-1.2.1-1.4 0-.1 0-.2.1-.1.2l-4.6.2c-.1 0-.1-.1-.1-.1-.5.1-1 .2-1.6.2h-.8l-1.1-.1c.1-.5.1-.9.1-1.3-.1-.1-.1.1-.2 0v.7c0 .3.1.5.1.6zm28.4-.5c0 .1 0 .1 0 0h-.1.1zm-.3 0c-.5.2-.9.1-1.4 0h1.4zm-2.5 0h.2c-.1.1-.2.1-.2 0z"/><use xlink:href="#B" y="-80"/><use xlink:href="#D" y="-20"/><use xlink:href="#E" y="-20"/><path d="M39.1 81.798l-.1.1c.5 0 .2-.2.6-.1.1.1 0 .1 0 .1.6 0 1.2 0 1.8-.1.1.2.6 0 .9.2.2-.1.3 0 .4-.2h2.1l.4-.1c.2-.1.5-.1.7-.2 1-.2 2-.2 3 .1h1.7c.6 0 1.2.1 1.8.1.4-.1 1-.1 1.4-.1l.4-.1c2.8.3 5.6.1 8.4.2h2.1c.1 0 .3-.1.4-.1.6-.2 1.4-.2 2.1-.3h2.3c.7-.1 1.4-.1 2.2 0 0 0 0 .1-.1 0 .2 0 .4.1.6.2h2c2.1-.3 4.4 0 6.4-.2h1.5v-2.2h-2.3l-2.2.1v-.1c-1 .1-2.1 0-3.1 0l-1.5-.1h-1.2c-.1 0-.1 0-.3-.1-.5-.3-1.1-.3-1.7-.3-.3 0-.6 0-.8.1s-.6.1-.8.4c-.3.3-.7.4-1.1.4s-1-.1-1.7-.2c-.1 0-.3-.1-.4-.1-.7-.2-1.4-.1-2.2 0h-2.3c-2.2-.4-4.3-.2-6.5 0h-.8c-2.6-.5-4.6-.5-7.5 0h-1.5c-.6-.1-1.2-.2-1.8-.2v.1c-.3-.2-.6 0-.9.1h-.2c-.1 0-.1 0-.2-.1s-.3 0-.4.1h-1.4c-.1 0-.1-.1-.1-.2.2 0-.2-.2.1-.2-.1 0-.6 0-.5.2 0 .2-.2.3 0 .4v1.8h5.7c1.4-.4 2.3-.5 3.3-.3-.4-.1-.9.1-1.1 0-.1 0-.2.1-.1.2-.4 0-.7.1-1.1.2l-.5.1c-.2 0-.3.1-.6.1l-2.3.1c-.1 0-.1-.1-.1-.1-.5.1-1.1.2-1.6.2h-2.1v-1.2c-.1-.1-.1.1-.2 0-.1.4 0 .9.1 1.3.4-.1.7-.1.9 0zm27.7-1h-.1.1zm-.3 0c-.4.2-.7.2-1.1.2h-.3c.4 0 .9-.1 1.4-.2zm-2.5.4h.1s-.1.1-.1 0zm-14.8 0h.6c-.2 0-.5.1-.7 0s-.5-.1-.7-.1h.1c-.1 0-.2.1-.3 0l.1-.1c-.1-.1-.2-.1-.3-.1.3.1.7.2 1.2.3z"/><use xlink:href="#B" y="-84"/><use xlink:href="#D" y="-24"/><use xlink:href="#C" y="-84"/><path d="M38.41 77.698h.7l-.1.1c.5 0 .2-.2.6-.1.1.1 0 .1 0 .1.6 0 1.2 0 1.8-.1.1.2.6 0 .9.2.2-.1.3 0 .4-.2 2.1.1 4.2-.1 6.3-.1 1-.3 2.2.1 3.4 0 .4-.1.9-.1 1.4-.1l.4-.1c2.8.3 5.6.1 8.4.2h2.4c.8-.2 1.4-.2 2.2-.3.7 0 1.4-.1 2.2 0 .4 0 .7 0 1.1.1l.5.1.3.1h.3l-.1.1c.9-.1 1.7.1 2.6 0 2.1-.3 4.4 0 6.4-.2h1.6v-2.2h-2.3l-2.2.1v-.1c-2.1.1-4.1-.2-6.2-.1h-1.6c-.3 0-.6.1-.8 0-.3-.1-.5-.1-.8-.2h-1.2c-.7 0-1.4.1-2 .2h-.1c-.2 0-.3.1-.5 0h-.5c-.4 0-.7.1-1.1.1h-2.3c-1.3-.2-2.5-.3-3.7-.2-.6 0-1.3.1-1.9.1-.2 0-.5 0-.7.1h-.6c-3-.5-5-.5-7.9 0h-1.6l-1.7-.2v.1c-.3-.2-.6 0-.9.1h-.2c-.1 0-.1 0-.2-.1s-.3 0-.4.1h-1.4c-.1 0-.1-.1-.1-.2.2 0-.2-.2.1-.2-.1 0-.6 0-.5.2 0 .2-.2.3 0 .4v1.8h11c-.5 0-1 .1-1.5.1l.1-.1c-.1 0-.2.1-.3.1 0 0 0-.1.1-.1-.4-.2-1.2.1-1.4 0-.1 0-.2.1-.1.2l-4.6.2c-.1 0-.1-.1-.1-.1-.5.1-1.1.2-1.6.2h-.8l-1.2-.1c.1-.5.1-.9.1-1.3-.1-.1-.1.1-.2 0v.7c0 .3.1.5.1.6zm28.4-.8h-.1.1zm-.3.1c-.4.2-.7.2-1.1.2h-.3c.4-.1.9-.2 1.4-.2zm-2.5.2h.2c-.1.1-.2.1-.2 0z"/><use xlink:href="#B" y="-96"/><path d="M38.51 64l-.2-.5c-.2.2.3.3.2.5z"/><use xlink:href="#E" y="-36"/><path d="M79.81 63.2l-2.1.1v-.1c-2.1.1-4.1-.2-6.2-.1h-1.1c-.1 0-.3-.1-.4-.1-.6-.1-1.1-.1-1.7-.1-.5 0-1.1.1-1.6.1-.4 0-.7.1-1.1.2-.2 0-.4.1-.7.1-.7-.1-1.4 0-2.2 0h-2.3c-1.3-.2-2.5-.3-3.8-.2-.6 0-1.3.1-1.9.1-.2 0-.5 0-.7.1h-.5c-1.1-.3-1.9-.4-2.8-.4h-.4c-1.7-.2-3.7 1.8-5.5.3h-.5c-.6-.1-1.2-.2-1.8-.2v.1c-.3-.2-.6 0-.9.1h-.2c-.1 0-.1 0-.2-.1s-.3 0-.4.1h-1.4c-.1 0-.1-.1-.1-.2.2 0-.2-.2.1-.2-.1 0-.6 0-.5.2 0 .2-.2.3 0 .4v1.8h3.6c.3 0 .6-.1.9-.1.1 0 .3 0 .5-.1 1.6-.3 3.6-.3 5.5-.1h.8c-.6 0-1.1-.1-1.7-.1l.1-.1c-.1 0-.2.1-.3.1l.1-.1c-.4-.2-1.2.1-1.4-.1-.1 0-.2.1-.1.2-.7 0-1.5.1-2.3.2-.2 0-.4.1-.6.1l-1.2.2c-.1.1-.5.1-.6.1s-.1-.1-.1-.1c-.5.1-1.1.2-1.6.2h-2.1v-1.2c-.1-.1-.1.2-.2 0-.1.4 0 .9.1 1.2h.7l-.1.1c.5 0 .2-.2.6-.1.1.1 0 .1 0 .1.6 0 1.2 0 1.8-.1.1.2.6 0 .9.2.1 0 .2 0 .3-.1.1 0 .1-.1.1-.1.5-.1 1-.1 1.6-.2.5-.1 1-.1 1.5-.2 1-.1 2.1-.1 3.2 0 .5-.1 1.1 0 1.6.1.3.1.6.1.9.2.2 0 .2 0 .5.1h.4c.4-.1 1-.1 1.4-.1l.4-.1c2.8.3 5.7.1 8.5.2h.5c.1 0 .1 0 .3.1s.4.3.7.5c.1.1.4.3.6.3s.5-.1.7-.2l.6-.6h.3l.2-.2.2-.1.1-.1h.4l.3.1c.1 0 .2 0 .4.1l.7-.1 2.6-.3-.1.1c.9 0 1.7.2 2.5.2h3.3l3.2-.1h1.8V63c-.6.1-1.4.2-2.1.2zm-16.3 2.1c.1 0 .2.1.3.2 0 0 .1 0 .1.1-.1-.2-.3-.2-.4-.3zm.6.3s.1.1 0 0c.1 0 .1.1.2.1-.1 0-.2 0-.2-.1zm2.1-.3c-.1 0-.2.1-.3.1a1.31 1.31 0 0 1-.8.6c.2-.1.4-.3.7-.7.2-.1.3-.1.4 0 0-.1 0-.1 0 0 0-.1 0-.1 0 0zm.2-.2c0-.1.1-.1 0 0 .1-.1.1-.1.1 0 0-.1-.1-.1-.1 0z"/><use xlink:href="#B" y="-100"/><use xlink:href="#D" y="-40"/><use xlink:href="#E" y="-40"/><path d="M38.41 61.698h.7l-.1.1c.5 0 .2-.2.6-.1.1.1 0 .1 0 .1.6 0 1.2 0 1.8-.1.1.2.6 0 .9.2.2-.1.3 0 .4-.2 2.1.1 4.2-.1 6.3-.1 1-.3 2.2.1 3.4 0 .4-.1.9-.1 1.4-.1l.4-.1c2.8.3 5.6.1 8.4.2 3.2.1 6 .3 9.1-.1l-.1.1h1.3l1.2-.3c1-.3 2.1-.2 3.1 0l.8.2h.8c.5 0 1.1-.1 1.6-.1h1.6v-2.2h-2.3l-2.2.1v-.1h-1.8c-1.4-.4-2.9-.7-4.4-.4a4.53 4.53 0 0 0-1.6.3c-.5.1-1.1.1-1.6.1-.4 0-.9.1-1.3.1h-2c-.7-.2-1.4-.1-2.2 0h-2.3c-1.2-.2-2.5-.3-3.7-.2h-2.5c-3.4-.3-6.6-.2-10.1.1-.6 0-1.2-.1-1.7 0v.1c-.3-.2-.6 0-.9.1h-.2c-.1 0-.1 0-.2-.1s-.3 0-.4.1h-1.4c-.1 0-.1-.1-.1-.2.2 0-.2-.2.1-.2-.1 0-.6 0-.5.2 0 .2-.2.3 0 .4v1.8h11c-.5 0-1 .1-1.5.1l.1-.1c-.1 0-.2.1-.3.1 0 0 0-.1.1-.1-.4-.2-1.2.1-1.4 0-.1 0-.2.1-.1.2-1.5 0-3.1.1-4.6.2-.1 0-.1-.1-.1-.1-.5.1-1 .2-1.6.2h-.8l-1.1-.2c.1-.5.1-.9.1-1.3-.1-.1-.1.1-.2 0v.7c0 .3.1.5.1.6zm28.5-.5c0 .1-.1.1 0 0h-.1.1zm-.4 0c-.5.2-.9.1-1.4 0h1.4zm-2.5 0h.2c-.1.1-.2.1-.2 0z"/><use xlink:href="#B" y="4"/><path d="M38.5 164l-.2-.5c-.2.2.3.4.2.5zm-.002.398c-.1-.1 0-.3-.1-.3 0 .2.1.3.1.3zM82 165.2v-2.1h-3.2c-.9 0-1.8 0-2.8-.1h-.4v-.1c-1.1 0-2.1-.2-3.2-.3s-2.2-.1-3.2.1c-1.1 0-2.3.2-3.4.4-.4 0-.9.1-1.3.1h-2c-.7-.2-1.5-.1-2.2 0h-2.4c-2.2-.4-4.4-.2-6.6 0h-3c-.3-.2-.8-.3-1.4-.4h-.4c-.5 1.4-.7.2-1-.8h.3c.5 0 1.2-.1 1.7-.4h1.4c1-.3 2.2.1 3.4 0 .4-.1.9-.1 1.4-.1l.4-.1c2.8.3 5.6.1 8.4.2l4.6.1h1.8l.5-.1c.7-.2 1.4-.3 2.2-.4l-.1.1c.9-.1 1.7.1 2.5.2.1 0 .3 0 .4.1h2.9l3.2-.1h1.6v-2.2h-2.3l-2.2.1v-.1c-2.1.1-4.1-.2-6.2-.1-1.5-.1-3 .1-4.6.2h-2c-.7-.2-1.4-.1-2.2 0h-2.3c-2.1-.4-4.2-.2-6.3 0h-5.8c-.3-.2-1-.4-1.8-.4h-.2c-.4-.1-1.2-.1-2.1 0-.6 0-1.2 0-1.8.2l.1.1h-.3c-.1 0-.2.1-.3.1s-.1 0-.2.1h-.2c-.1 0-.1 0-.2-.1s-.3 0-.4.1h-1.4c-.1 0-.1-.1-.1-.2.2 0-.2-.2.1-.2-.1 0-.6 0-.5.2 0 .2-.2.3 0 .4v1.8h4.3c.5.2 1 .3 1.6.3 0 .1-.1.2-.1.2h-.3c-.4 0-.8-.1-1.2-.2h-1.1c-.1 0-.1-.1-.1-.1-.5.1-1.1.2-1.6.2h-2.1v-1.2c-.1-.1-.1.1-.2 0-.1.4 0 .9.1 1.3h.7l-.1.1c.5 0 .2-.2.6-.1.1.1 0 .1 0 .1.6 0 1.2 0 1.8-.1.1.2.6 0 .9.2.2-.1.3 0 .4-.2h.4c.1 0 0 0 .2.1.3.1.6.2.8.2a.9.9 0 0 1 .5.1 8.11 8.11 0 0 0-.3 1.1h-.4l-.5-.1c-.3 0-.6-.1-.9 0v.1c-.3-.2-.6 0-.9.1h-.2c-.1 0-.1 0-.2-.1s-.3 0-.4.1h-1.4c-.1 0-.1-.1-.1-.2.2 0-.2-.2.1-.2-.1 0-.6 0-.5.2 0 .2-.2.3 0 .4v1.8h11.1c.1 0 .3-.1.4-.1h-.1c-.2.1-.5.1-.7.1h-.7l.1-.1c-.1 0-.2.1-.3.1 0 0 0-.1.1-.1-.4-.2-1.2.1-1.5 0-.1 0-.2.1-.1.2l-4.7.2c-.1 0-.1-.1-.1-.1-.6.1-1.1.2-1.7.2h-2.2v-1.2c-.1-.1-.1.2-.2 0-.1.5 0 .9.1 1.2h.9l-.1.1c.3 0 .3 0 .3-.1 0 0 .1-.1.2 0s0 .1 0 .1c.6 0 1.3 0 1.8-.1.1.2.7 0 .9.2.2-.1.3 0 .4-.2 2.2.1 4.4-.1 6.6-.1.1 0 .3-.1.4-.1h.2c.1 0 .2-.1.3-.1.3-.1.5-.1.8-.2.6-.1 1.2 0 1.7-.1h.7c.1 0 .2 0 .3.1l.1.1c.1 0 .1.1.2.1.2 0 .4-.1.5-.1l4.3.2h1.1c.4-.1.7-.1 1.1-.2.7-.1 1.4-.1 2.2-.1 1.6 0 3.2.2 4.7.4l.6.1h1.9c.8 0 1.6-.1 2.4-.2l-.1.1c.9-.1 1.8.1 2.7 0 1.1-.1 2.2-.1 3.3-.1H81c.3 0 .6 0 .9-.1l.1-.5zm-15.2-4c0 .1 0 .1 0 0h-.1.1zm-.4 0c-.5.2-.9.1-1.4 0h1.4zm-2.5 0h.2c-.1.1-.1.1-.2 0zm-18.6.4c.8 0 1.6-.1 2-.4h2.5c-.5 0-1 .1-1.5.1l.1-.1c-.1 0-.2.1-.3.1 0 0 0-.1.1-.1-.2-.1-.5-.1-.8 0-.2.1-.5.3-.6.2-.1 0-.1.1-.1.2-.4.1-.9.2-1.3.2 0 0-.1-.1-.1-.2zm20.8 3.3c.4 0 .9.1 1.3.1-.4.1-.8 0-1.3-.1zm1.8.2c-.1 0-.1 0 0 0h0z"/><use xlink:href="#B" y="-16"/><use xlink:href="#D" y="44"/><use xlink:href="#C" y="-16"/><path d="M82 143.1h-2.4l-2.3.1v-.1c-1 .1-2.1 0-3.1 0l-1.5-.1h-1.2l-.4.1c-.5.1-1 .2-1.6.2-.5 0-1-.1-1.4-.5h-1.4c-.5 0-1.1 0-1.6.1h-.3c-.7-.1-1.4.1-2.2.3h-2.3c-1.3-.2-2.5-.3-3.7-.2l-.9.1a2.39 2.39 0 0 0-.9-.2h-.6c-1-.1-2 0-2.4.3h-7.7c-.6-.1-1.2-.2-1.8-.2v.1c-.3-.2-.6 0-.9.1h-.2c-.1 0-.1 0-.2-.1s-.3 0-.4.1h-1.4c-.1 0-.1-.1-.1-.2.2 0-.2-.2.1-.2-.1 0-.6 0-.5.2 0 .2-.2.3 0 .4v1.8h11.1c-.5 0-1 .1-1.5.1l.1-.1c-.1 0-.2.1-.3.1 0 0 0-.1.1-.1-.4-.2-1.2.1-1.4 0-.1 0-.2.1-.1.2l-4.6.2c-.1 0-.1-.1-.1-.1-.5.1-1.1.2-1.6.2h-2.1v-1.2c-.1-.1-.1.1-.2 0-.1.4 0 .9.1 1.3h.7l-.1.1c.5 0 .2-.2.6-.1.1.1 0 .1 0 .1.6 0 1.2 0 1.8-.1.1.2.6 0 .9.2.2-.1.3 0 .4-.2 2.1.1 4.2-.1 6.3-.1 1-.3 2.2.1 3.4 0 .4-.1 1-.1 1.4-.1l.4-.1c2.8.3 5.6.1 8.4.2l4.6.1h.6c.1 0 .5 0 .7-.1l1-.3s.7-.1 1-.1a.9.9 0 0 1 .5.1c.2 0 .3.1.6.2H74c2.1-.3 4.4 0 6.4-.2h1.5c.1-.7.1-1.5.1-2.3zm-17.9 2.2h0zm1.1-.1h1.4c-.5.2-.9.1-1.4 0zm1.8.1h-.1c0-.1 0-.1.1 0z"/><path d="M71.608 145.598c-.1-.1-.1-.1 0 0-.1 0-.1 0 0 0z"/><use xlink:href="#B" y="-36"/><use xlink:href="#D" y="24"/><use xlink:href="#E" y="24"/><path d="M82.01 123.1h-2.2l-2.1.1v-.1c-2.1.1-4.1-.2-6.2-.1-1.5-.1-3 .1-4.6.2h-2c-.7-.2-1.4-.1-2.2 0h-2.3c-2.1-.4-4.2-.2-6.3 0h-10c-.6-.1-1.2-.2-1.8-.2v.1c-.3-.2-.6 0-.9.1h-.2c-.1 0-.1 0-.2-.1s-.3 0-.4.1h-1.4c-.1 0-.1-.1-.1-.2.2 0-.2-.2.1-.2-.1 0-.6 0-.5.2 0 .2-.2.3 0 .4v1.8h4.7c1.3-.2 2.7-.3 4.2-.4-.4 0-.9.2-1 .1-.1 0-.2.1-.1.2-.7.1-1.5.1-2.2.3-.2 0-.4.1-.6.1-.1 0-.2 0-.3.1h-.3c-.4 0-.8.1-1.1.1-.1 0-.1-.1-.1-.1-.5.1-1.1.2-1.6.2h-2v-1.2c-.1-.1-.1.1-.2 0v.7c0 .2.1.4.1.6h.7l-.1.1c.5 0 .2-.2.6-.1.1.1 0 .1 0 .1.6 0 1.2 0 1.8-.1.1.2.6 0 .9.2.2-.1.3 0 .4-.2h1.2l.4-.1c.5-.1 1-.1 1.5-.2l3.1-.2c1-.3 2.2.1 3.3.2h1.5l.4-.1c2.8.3 5.6.1 8.4.2l3.2.1.2-.1h.1c.1 0 .1 0 .3.1l1 .3c.3.1.7.1 1.1.1.2 0 .4-.1.6-.1l.4-.2h.9c.4 0 .7-.1 1.1-.1l-.1.1c.9-.1 1.7.1 2.6 0 2.1-.3 4.4 0 6.4-.2h1.7c.2-1 .2-1.8.2-2.6zm-33.6 1.9c0-.1 0-.1 0 0 0 0-.1.1-.2 0 0 0 0-.1.1-.1-.1 0-.2-.1-.3-.1h2l-1.6.2zm15.5.3h0zm1.7 0c-.2 0-.4 0-.6-.1h.2c.1 0 .2 0 .4.1a.76.76 0 0 1 .4-.2c.1 0 .3 0 .4.1h.1c-.4.1-.6 0-.9.1zm1.2.1l-.1-.1.1.1z"/><use xlink:href="#B" y="-40"/><use xlink:href="#D" y="20"/><use xlink:href="#E" y="20"/><path d="M39.11 121.798l-.1.1c.5 0 .2-.2.6-.1.1.1 0 .1 0 .1.6 0 1.2 0 1.8-.1.1.2.6 0 .9.2.2-.1.3 0 .4-.2h2.4l.8-.1 3.1-.3c1-.3 2.2-.1 3.4-.2.4-.1.9-.1 1.4 0l.4-.1c1.4.2 2.8.1 4.2.2.7.1 1.4.1 2 .3.1 0 .3.1.3 0h1.9l2.3.1h1.8l.5-.1c1.4-.2 2.9-.3 4.4-.4l-.1.1 2.5.1c.5 0 1 0 1.6.1h1.6l3.2-.1h1.5v-2.2h-2.4l-2.3.1v-.1c-2.1.1-4.1-.2-6.2-.1h-.8c-.2 0-.5-.1-.8-.2-.6-.1-1.1-.1-1.7-.1-.4 0-.8.1-1.2.2s-.7.1-1.2.2h-.8c-.7-.2-1.4-.1-2.2 0h-2.3c-.3-.1-.6-.1-.9-.1-.2 0-.3 0-.4-.1l-.5-.2-.9-.3c-.2 0-.3-.1-.5-.1s-.4 0-.5.1c-.7.2-1.1.7-1.7 1-.2.1-.6.1-.9.1-1.6 0-2.6 0-4-.1h-.5l-5.4-.4c-.6-.1-1.2-.2-1.8-.1v.1c-.3-.1-.6.1-.9.1h-.2c-.1 0-.1 0-.2-.1s-.3 0-.4.1h-1.4c-.1 0-.1-.1-.1-.2.2 0-.2-.2.1-.2-.1 0-.6 0-.5.2 0 .2-.2.3 0 .4v1.8h5.8c1.4-.2 3-.3 4.7-.4h.5c-.5 0-.9.1-1.4.2l.1-.1c-.1 0-.2.1-.3.1 0 0 0-.1.1-.1-.4-.2-1.2.2-1.4.1-.1 0-.2.1-.1.2l-2.3.2-2.3.1c-.1 0-.1-.1-.1-.1-.5.1-1.1.2-1.6.2h-2.1v-1.2c-.1-.1-.1.1-.2 0-.1.4 0 .9.1 1.3.7 0 1 0 1.2.1zm27.8-.7s0 .1 0 0c-.1 0 0 0 0 0zm-1.1.1h.4c.1 0 .2 0 .3-.1-.4.2-.7.2-1.1.1h-.3.7zm-1.8 0h.2c-.1.1-.1.1-.2 0z"/><use xlink:href="#B" y="-44"/><use xlink:href="#D" y="16"/><use xlink:href="#E" y="16"/><path d="M38.41 117.698h.7l-.1.1c.5 0 .2-.2.6-.1.1.1 0 .1 0 .1.6 0 1.2 0 1.8-.1.1.2.6 0 .9.2.2-.1.3 0 .4-.2 2.1.1 4.2-.1 6.3-.1 1-.3 2.2.1 3.4 0 .4-.1.9-.1 1.4-.1l.4-.1c2.8.3 5.6.1 8.4.2 3.2.1 6 .3 9.1-.1l-.1.1c.9-.1 1.7.1 2.6 0 2.1-.3 4.4 0 6.4-.2h1.6v-2.2h-2.3l-2.2.1v-.1c-2.1.1-4.1-.2-6.2-.1-1.5-.1-3 .1-4.6.2h-2c-.7-.2-1.4-.1-2.2 0h-2.3c-2.1-.4-4.2-.2-6.3 0h-10c-.6-.1-1.2-.2-1.8-.2v.1c-.3-.2-.6 0-.9.1h-.2c-.1 0-.1 0-.2-.1s-.3 0-.4.1h-1.4c-.1 0-.1-.1-.1-.2.2 0-.2-.2.1-.2-.1 0-.6 0-.5.2 0 .2-.2.3 0 .4v1.8h11c-.5 0-1 .1-1.5.1l.1-.1c-.1 0-.2.1-.3.1 0 0 0-.1.1-.1-.4-.2-1.2.1-1.4 0-.1 0-.2.1-.1.2l-4.6.2c-.1 0-.1-.1-.1-.1-.5.1-1 .2-1.6.2h-.8l-1.1-.1c.1-.5.1-.9.1-1.3-.1-.1-.1.1-.2 0v.7c0 .3.1.5.1.6zm28.4-.5c0 .1 0 .1 0 0h-.1.1zm-.4 0c-.5.2-.9.1-1.4 0h1.4zm-2.5 0h.2c-.1.1-.1.1-.2 0z"/><use xlink:href="#B" y="-56"/><use xlink:href="#D" y="4"/><use xlink:href="#E" y="4"/><path d="M38.41 105.7h.7l-.1.1c.5 0 .2-.2.6-.1.1.1 0 .1 0 .1.6 0 1.2 0 1.8-.1.1.2.6 0 .9.2.2-.1.3 0 .4-.2 2.1.1 4.2-.1 6.3-.1 1-.3 2.2.1 3.4 0 .4-.1.9-.1 1.4-.1l.4-.1c2.8.3 5.6.1 8.4.2 3.2.1 6 .3 9.1-.1l-.1.1c.9-.1 1.7.1 2.6 0 2.1-.3 4.4 0 6.4-.2h1.6v-2.2h-2.3l-2.2.1v-.1c-.5.1-1-.1-1.5-.1l-1.5-.2c-1-.1-2.1-.2-3.1-.1-.3 0-.5 0-.8-.1h-.8c-.6 0-1.1.1-1.6.4-.3.2-.7.2-1.2.3h-2c-.7-.2-1.4-.1-2.2 0h-2.3c-2.1-.4-4.2-.2-6.3 0h-10c-.6-.1-1.2-.2-1.8-.2v.1c-.3-.2-.6 0-.9.1h-.2c-.1 0-.1 0-.2-.1s-.3 0-.4.1h-1.4c-.1 0-.1-.1-.1-.2.2 0-.2-.2.1-.2-.1 0-.6 0-.5.2 0 .2-.2.3 0 .4v1.8h11c-.5 0-1 .1-1.5.1l.1-.1c-.1 0-.2.1-.3.1 0 0 0-.1.1-.1-.4-.2-1.2.1-1.4 0-.1 0-.2.1-.1.2l-4.6.2c-.1 0-.1-.1-.1-.1-.5.1-1 .2-1.6.2h-.8l-1.4-.2c.1-.5.1-.9.1-1.3-.1-.1-.1.1-.2 0v.7c0 .3.1.5.1.6zm28.4-.5c0 .1 0 .1 0 0h-.1.1zm-.3 0c-.5.2-.9.1-1.4 0h1.4zm-2.5 0h.2c-.1.1-.2.1-.2 0z"/><use xlink:href="#B" y="-76"/><path d="M38.51 84l-.2-.5c-.2.2.3.4.2.5z"/><use xlink:href="#E" y="-16"/><path d="M82 83.098h-2.1l-2 .1v-.1c-1.8.1-3.7-.1-5.4-.1-.1 0-.2-.1-.4-.2-.1 0-.3-.1-.4-.1-.5-.1-1-.1-1.5-.1-.1 0-.3 0-.4.1-.1 0-.2 0-.2.1l-.2.1c-.2.2-.4.3-.6.4a2.2 2.2 0 0 1-1.4.2h-.2c-.4 0-.8-.1-1.2-.2-.1 0-.3-.1-.4-.1h-.1c-.2-.1-.4-.1-.6 0-.5 0-1.1 0-1.7.1h-2.3c-2.2-.4-4.3-.2-6.4 0H44.3c-.6-.1-1.2-.2-1.8-.2v.1c-.3-.2-.6 0-.9.1h-.2c-.1 0-.1 0-.2-.1s-.3 0-.4.1h-1.4c-.1 0-.1-.1-.1-.2.2 0-.2-.2.1-.2-.1 0-.6 0-.5.2 0 .2-.2.3 0 .4v1.8h10.9s.1 0 .1-.1l-.1.1h-1.3l.1-.1c-.1 0-.2.1-.3.1 0 0 0-.1.1-.1-.4-.2-1.2.1-1.4 0-.1 0-.2.1-.1.2l-4.6.2c-.1 0-.1-.1-.1-.1-.5.1-1.1.2-1.6.2h-2.1v-1.2c-.1-.1-.1.2-.2 0-.1.4 0 .9.1 1.2h.8l-.1.1c.5 0 .2-.2.6-.1.1.1 0 .1 0 .1.6 0 1.2 0 1.8-.1.1.2.6 0 .9.2.2-.1.3 0 .4-.2 2.1.1 4.3-.1 6.4-.1.1 0 .3-.1.4-.1s.4 0 .5-.1c.3-.2.5-.2.7-.2h1.7c.4 0 .9 0 1.3.2.2 0 .4 0 .5-.1 2.8.3 5.7.1 8.5.2h1.8l.2-.1c.2-.1.2-.1.3-.1l.2-.1c.1 0 .3-.1.4-.1.2 0 .3 0 .5-.1h.4c.7 0 1.1 0 1.7.2l.5.2h.4v.4h1.1c.2 0 .5 0 .7.1 0 0 0 .1-.1 0 .5.1.9.1 1.4.1a1.08 1.08 0 0 0 .7-.3c.2-.2.4-.4.4-.5s.1 0 .2-.1h2.8l3.2-.1h2.1c.3-.3.3-1.1.3-1.9zm-17.7 2.2c0-.1.1-.1 0 0 0-.1 0 0 0 0zm1.4-.3h-.3c.2 0 .3-.1.5-.1.1 0 .3-.1.5-.1h.4c-.4.1-.7.2-1.1.2zm1.5-.2h-.1.1zM38.3 55.3l.1.1-.1-.2v.1z"/><path d="M38.51 56c0-.1 0-.1 0 0l-.2-.5c-.2.2.3.3.2.5z"/><path d="M38.51 56.098c-.1.2.1.2.1.3-.1-.1 0-.4-.1-.3z"/><path d="M38.408 57.7c0 .1.2 0 .2 0h.5l-.1.1c.5 0 .2-.2.6-.1.1.1 0 .1 0 .1h1l.8-.3c.2.1.6-.1.8.1.1-.1.3-.1.3-.2l3 .1c.3 0 .5.1.8.1h2.5c1-.3 2.2.1 3.4 0 .4-.1.9-.1 1.4-.1l.4-.1c2.8.3 5.6.1 8.4.2 3.2.1 6 .3 9.1-.1l-.1.1c.9-.1 1.7.1 2.6 0 2.1-.3 4.4 0 6.4-.2h1.6v-2.2h-2.3l-2.2.1v-.1c-1 .1-2.1 0-3.1 0h-1.1l-.4-.1c-.5-.1-1-.2-1.6-.2-.6-.1-1.1 0-1.7.1-.3.1-.5.1-.8.2-.1 0-.3.1-.4.1h-.4c-.4 0-.9.1-1.3.1h-2c-.7-.2-1.4-.1-2.2 0h-2.3c-2.1-.4-4.2-.2-6.3 0h-1.5c-2-.5-3-.5-5 0h-2.9c-.2 0-.3-.1-.5-.1-.5-.2-1.1-.4-1.7-.4v.1c-.3-.2-.6 0-.9.1h-.2c-.1 0-.1 0-.2-.1s-.3 0-.4.2c-.3 0-.6.1-1 .1h-.4c-.1 0-.2 0-.2-.1.2 0-.3-.1.1-.3-.1 0-.6.1-.5.2 0 .2-.1.3 0 .4l-.1 1.3v.5h1.6c2-.5 4-.5 6.3 0h3.1c-.5 0-1 .1-1.5.1l.1-.1c-.1 0-.2.1-.3.1 0 0 0-.1.1-.1-.4-.2-1.2.1-1.4 0-.1 0-.2.1-.1.1-1.4-.3-3-.4-4.4-.1-.1 0-.1-.1-.1-.1l-.9.3-.5.1c-.1 0-.2.1-.3.1h-1.6c.1 0-.1 0-.2 0l.1-.5v-.8c-.1-.1-.1.2-.2 0-.1.3 0 .7 0 1l.1.3zm28.4-.5c0 .1 0 .1 0 0h-.1.1zm-.4 0c-.5.2-.9.1-1.4 0h1.4zm-2.5 0h.2c-.1.1-.1.1-.2 0z"/><use xlink:href="#B" y="-116"/><path d="M38.51 44l-.2-.5c-.2.2.3.3.2.5z"/><use xlink:href="#E" y="-56"/><path d="M40.51 45.698h-2.1v-1.2c-.1-.1-.1.1-.2 0-.1.4 0 .9.1 1.3h.7l-.1.1c.5 0 .2-.2.6-.1.1.1 0 .1 0 .1.6 0 1.2 0 1.8-.1.1.2.6 0 .9.2.2-.1.3 0 .4-.2 2.1.1 4.2-.1 6.4-.1.3-.1.5-.1.8-.1.3-.1.5-.1.8-.2.6-.1 1.1-.1 1.7-.1.4-.1.9 0 1.3.1h.4c.1 0 .2.1.3.1h4.1c.7-.3 1.3-.4 2-.3.3 0 .7.1 1 .2.2 0 .3.1.5.1.2.1.5 0 .7 0l9.1-.5-.1.1c.9-.1 1.7.1 2.6.1 1.1-.1 2.1 0 3.2.2 1.2.1 2.2 0 3.2-.1h1.5v-2.2h-2.4l-2.3.1v-.1c-.3 0-.5.1-.8 0-.1 0-.1-.1-.2-.1l-.2.1-.4.1-1.5.3c-1 .2-2 .3-3 .3l-1.6-.3c-.3-.1-.5-.1-.8-.2l-.4-.1h-.4c-.4 0-.8.1-1.2.2-.1 0-.3.1-.4.1h-.1c-.2 0-.4.1-.6.1s-.3.1-.4.1h-.5c-.6-.1-1.3.1-2-.1a.76.76 0 0 1-.4-.2c-.1-.1-.2-.1-.3-.2-.6.1-1.1.1-1.6.1l-3.7-.6c-.6-.1-1.3-.1-1.9-.1-.2 0-.4 0-.7.1-3 0-5.9 0-8.7.5h-1.4l-1.7-.2v.1c-.3-.2-.6 0-.9.1h-.2c-.1 0-.1 0-.2-.1s-.3 0-.4.1h-1.4c-.1 0-.1-.1-.1-.2.2 0-.2-.2.1-.2-.1 0-.6 0-.5.2 0 .2-.2.3 0 .4v1.8h10.9c-.4.1-.9.1-1.3.1l.1-.1c-.1 0-.2.1-.3.1 0 0 0-.1.1-.1-.4-.2-1.2.1-1.4 0-.1 0-.2.1-.1.2l-4.6.2c-.1 0-.1-.1-.1-.1-.6.1-1.1.2-1.7.2zm26.3-.8h0-.1.1zm-1.4 0h1.1c-.5.2-.9.1-1.4.1.1-.1.2-.1.3-.1zm-1.4.1h.1s-.1.1-.1 0zm-14 .2h-.1.1z"/><use xlink:href="#B" y="-120"/><use xlink:href="#D" y="-60"/><use xlink:href="#C" y="-120"/><path d="M79.708 39.198l-2.2.1v-.1c-2.1.1-4.1-.2-6.2-.1-1.5-.1-3 .1-4.6.2h-2c-.7-.2-1.4-.1-2.2 0h-2.3c-1.2-.2-2.5-.3-3.7-.2-.6 0-1.3 0-1.9.2-.2 0-.4.1-.6.1-3.1.4-5.9.4-9-.1h-1c-.6-.1-1.2-.2-1.8-.2v.1c-.3-.2-.6 0-.9.1h-.2c-.1 0-.1 0-.2-.1s-.3 0-.4.1h-1.4c-.1 0-.1-.1-.1-.2.2 0-.2-.2.1-.2-.1 0-.6 0-.5.2 0 .2-.2.3 0 .4v1.8h6.2l2.7-.3c-.4 0-.8.2-1 .1-.1 0-.2.1-.1.2-.4.1-.7.1-1.1.2-.2 0-.3.1-.6.1h-.6l-2.3.1c-.1 0-.1-.1-.1-.1-.5.1-1 .2-1.6.2h-2v-1.2c-.1-.1-.1.1-.2 0v.7c0 .2.1.4.1.6h.7l-.1.1c.5 0 .2-.2.6-.1.1.1 0 .1 0 .1.6 0 1.2 0 1.8-.1.1.2.6 0 .9.2.2-.1.3 0 .4-.2h2.9l.4-.1a16.28 16.28 0 0 1 3.1-.3c1-.4 2.2 0 3.3 0 .4-.1.9 0 1.4 0l.4-.1c.3.1.6.2 1 .2s.7 0 1.1.1h6.3l4.6.1h3.1c.1 0 .3-.1.4-.1.3-.1.7-.2 1.1-.3v.1c.9-.2 1.7-.1 2.5-.1h1.6c.3 0 .5.1.8.2h.9l3.2-.1h1.6v-2.2c-.7-.2-1.5-.1-2.3-.1zm-31.3 1.8s0-.1 0 0c0 0-.1.1-.2.1 0 0 0-.1.1-.1h-.3c.7 0 1.3-.1 2-.1-.6 0-1.1 0-1.6.1zm15.5.3h0zm1.1-.1h1.4c-.4.2-.9.1-1.4 0zm1.8.1h-.1c0-.1.1-.1.1 0z"/><use xlink:href="#B" y="-124"/><path d="M38.51 36l-.2-.5c-.2.2.3.3.2.5z"/><use xlink:href="#E" y="-64"/><path d="M38.9 37.2h7.8a.76.76 0 0 1 .4-.2h.7c-.1 0-.2 0-.4.1-.3 0-.4.2-.6.2-.1.1-.1.2 0 .2l-4.7.3c-.1 0-.1-.1-.1-.1-.5.1-1.1.2-1.6.2h-2.1v-1.2c-.1-.1-.1.2-.2 0-.1.4 0 .9.1 1.3h.7l-.1.1c.5 0 .2-.2.6-.1.1.1 0 .1 0 .1.6 0 1.2 0 1.8-.1.1.2.6 0 .9.2.2-.1.3 0 .4-.2h4c.1 0 .2 0 .3-.1l.2-.1c.1-.1.1-.1.2-.1.5-.1 1.1-.1 1.6-.1 1-.4 2.2 0 3.4-.1.4-.1 1-.1 1.4 0l.4-.1 4.2.5 4.3.1c3.2.1 6 .3 9.2-.1l-.1.1H73c.4-.2.7-.2 1.1-.3.5-.1 1-.1 1.5 0 .3.1.5.1.8.2.4.1.6 0 .9 0l3.2-.1h1.3v-2.2h-2.4l-2.4.1v-.1h-.2c-.1 0-.1.1-.2.1l-.3.2c-.2.2-.5.2-.7.3-.5.1-1 .2-1.5.1-1-.1-2-.4-3-.7-1-.4-2.2-.6-3.3-.4-.3.1-.6.1-.8.3-.1.1-.2.1-.4.2h-2.1c-.7-.2-1.4-.1-2.2 0H60c-.3-.1-.7-.1-1-.1h-1.1l-.2.1-.1.1c-.1.1-.2.1-.3.2-.2.1-.4.2-.6.2-.1 0-.2.1-.3.1h-2.6c-1.6-.1-3.3-.3-4.7-.8-.1 0-.3 0-.4-.1-.9-.1-1.8 0-2.3.2-.1 0-.3.1-.5.1h-2.1c-.6-.1-1.2-.2-1.8-.2v.1c-.3-.2-.6 0-.9.1h-.2c-.1 0-.1 0-.2-.1s-.3 0-.4.1h-1.4c-.1 0-.1-.1-.1-.2.2 0-.2-.2.1-.2-.1 0-.6 0-.5.2 0 .2-.2.3 0 .4v1.3h.5zm28.1 0c0 .1 0 .1 0 0h-.1.1zm-.3 0c-.5.2-.9.1-1.4 0h1.4zm-2.6 0h.2c-.1.1-.1.1-.2 0zm-14.2-.4c-.5.1-1 .1-1.5.2l.1-.1c-.1 0-.2.1-.3.1 0 0 0-.1.1-.1H48c.6 0 1.3 0 1.9-.1z"/><path d="M86.31 163.4c-.1-1 .1-3.1-.2-3.7-.3 1.7.4 1.7 0 3.8l-.3-.6-.1-4.2c-.1.2-.1.3-.2.2-.1-2-.5-2.6-.4-4.5.3-.3.3.9.3 1.7.2-1.3 0-1.3.1-3.3.3-.1 0 1.3.3 1.5l-.1-2.2h.1c-.4-.3 0-1.6-.1-3 0-3.1-.6-3.6-1-5.3.1-.5.2-.6.3-.4-.2.8 0 .6.1.9-.1-1.1.4-2.3.6-1.7-.1-1.7-.2.6-.4-.4v-2.3c-.2.3-.3 1.1-.4-.1-.1-1 0-1.5 0-2.8.1.2.3-.4.3.6.1-.6.1-1.6-.1-2-.2 1.4-.2-2.4-.5-1.3l.2-1.4c0 .3.1.4.1.8.3-.4-.1-1.2-.1-1.7.1-.5.1-1.8.2-1.9-.1-.5 0-1.6.1-1.8-.1-.7-.2-.1-.3-.2v-2.3c.2-.1.7-.3.8 0-.2-.9-.5-.3-.5-1.6.4.7.3-1.7.7-.7.3-.8.2-2.9.1-4.1-.3-.7-.1 1.3-.4 1.2-.1-3.3-.9-3.5-.8-6l-.1.6c-.2-1.5-.1-1.3-.4-2.2.4.4.9-1.7.8-4.2-.2-.2-.3 1.4-.6 1l-.1-1.7c0-.1.1.1.1.3-.1-1.5.4-2.8 0-3.2l.3-.9c-.2-.2-.3-1.9-.3-2.2-.2-1.7-.1-2.3.1-3.3-.1.3-.5 1-.5-.3.6 0 .2-2.8.5-2.8 0-.5.2-1.5-.1-1.6l.4.1c-.5-.1-.5-2.1-.6-3.6.7.3-.1-1.7.5-2.3-.5-.3-.2-2.7-.6-2.9 0-1.2.4-1.1.5-1.3l-.2-.5c.2-.6.2-2.8.4-4.1l-.4-1.2.2-.4c-.1-.2-.2-1.2-.3-.6v-.7c-.5 0-.1-.9-.3-2.2.1-.3.2-.2.2.1 0-.7.2-.4.4-.7-.1.5-.8-2.3-1-.6-.2.1-.3-.9-.3-1.5l.4-.4-.4-.8c-.1-1 .2-1.4.2-2.2 0 .8.8 1.8.8-.3.1 1.1.3 1.7.4 2.3 0-.4 0-.7.2 0-.1-1.7-.3-.6-.3-2.2.4.1.5-.4.6-1.8l-.3 1.1c0-.1-.1-.1-.1-.2 0 .4-.1.5-.2.6 0-.3-.5-1.9-.3-2.2-.5 1.7-.5-2.9-.8-1.8-.1-.2-.1-1.3 0-1.5.3 1.4.4-1 .7-.8-.1-.5-.3 1.1-.4.4 0-.8.2-1.4.3-1.9l.1.3.1-1.3c-.2-.2-.3 1.2-.4.1.1-.3 0-1.5.1-1.5.3.6.6.1.7 1.1 0-.8-.1-3.5-.4-2.4v-1c-.1.6-.4 2.4-.5.4h.1l-.3-1.4.2-.6c-.1 0-.2-.2-.2-.7.1-.1.1-.6.3-.6 0-1.5-.2-1.4-.3-1.6 0-.8 0-1.1.3-.8l.1-3.9c-.2-1.5-.1.3-.3-.6.6-1.3.2-5 .1-7.5-.5.7-.1-.6-.5-1.1.2 0 .4-2.3.5-.3l-.1-1.3c.3-.9.3 2.2.7.8 0-1.5-.7-2.5-.5-4.2.4.6-.1-1.4.3-.9.1.4.1.9.1 1.3l.1-.3c.1-3.3-.5-.9-.8-2.7-.1-2 .3-1.6.5-1.7.1-.3 0-1.3-.1-1.8.3 1.2-.2 2.3-.5 1.7.4-.7.1-2.2-.1-3l-.2.2c-.2 2 .1 1.6-.4 4 .1.4.5.3.4 1.9-.2-1-.2.1-.3.4.2-.3.1 1.1.2 1.6-.2.4-.5-1-.6.7l.5.3c-.1.6-.4-.3-.3 1.1-.3-.7-.4.2-.5-1.6-.4 2.2.3 3.4.5 5 0-.2-.1-.2-.1-.4.1.4.1 1 .2 1.5-.1 1.1-.3-.9-.4-.6v1.8c.1.5.1.9 0 1.1-.2-.5-.4-.7-.5-1.1l.4 1.9c-.2-.2-.3 1.6-.4.2l.1 2.8-.4.2c.1.7.1.7.2-.1-.1 1 .7 4.3 0 3.8.3 2.2.2 3 .4 5.7-.4-2.1-.4 2.4-.6.2-.1 1.3.3 1.5.3 2.5-.1.9-.5.5-.7-.5l.2 1.2h-.1l.2 1c-.2 1.1-.4.2-.4 1.4l.3.2-.2.8c.1-.3.2.4.3 1.2h-.1l.1 1c-.2-1-.1.9-.3.5l.1 2.4.2-.3c.2 2-.3.1-.3 1.7l.3-.1c-.4 2.4.3 4 0 5.8-.1-1-.4-.7-.3-.7l.4 5.5c-.4.6-.5.7-.6 2.3 0 1.2.1 1.3.3 1.7-.1 1.1.1 3.2-.2 3.3.2.3 0 1 .2 1.6l-.1.1.3-.1c-.5 2 .4 3.4-.1 5.4l-.1-.3.1.8c-.1.1-.2-.2-.3-.2v3.9l.2-.8c0 .8.3 1.4.1 2.3-.4-1.6 0 1.3-.3 1.6l-.1-.8c0 1.2 0 1.2.3 1.1.1 1.5-.5 1-.2 2.4v-1c.1-.3.4.4.4 1.1 0 .2-.1.6-.2.1.1 1.2 0 3 .1 3.5-.1.6-.3.4-.3.1.3 2.5 0 1.1.2 3.7h-.1l.2.9-.3 1.2.2-.4.1 2.3-.2-.4c.1 2.3-.3 2.7 0 4.9 0 .2-.1-.2-.1-.4.4 2.1-.4 1.6.1 3.6-.1-.1-.2.1-.2 0l.1.9-.3-.1.4.8-.3.6.1.4c-.5 1-.1 2.4-.5 3.8l.4-.2c.8 3.5-.3 8 .1 12.2l-.3-.1.4 1.7c-.2.9-.3-.6-.4-.3.2 1.9.4.8.5 2.9-.2 1.1-.2-.4-.3-.9.2 2 .4 5 .2 6.4 0 0 .1.1.1 0 .1 1.4 0 3.1.1 4.6-.1 0-.2-.4-.2-.8 0 .5-.1 1.3 0 1.7l-.3-.6c0 1.1.2 3.3-.1 3.6.1-.1.3-.1.3.9-.4.6.2 2.7 0 4.3-.1-.2-.1-1.3-.1-1-.1.8.1 1.5.3 2.2l-.2-.2.3 3.7c-.4.6.1 3.5-.2 3.2 0 1.3.2-1.1.3.6-.2.4.1 1.5-.2 1.4v-.2 1.2l-.3-.7c.1 1 .4 1.7.6 1.8-.1 1 0 2.3-.3 2.7l-.1-.4v1.9c0 .3-.1.6-.1.8 0 .3-.1.6-.1.6-.1.3-.2.3 0 .8l-.1-.1v.3h-.1c0-.1-.1-.1-.1-.2 0 .1-.2.2-.4.3v-.1h-5.7l.3-.1c-2.5.2-2.4-.2-4.3-.1.1 0 .1-.1.2-.1h-1.7l.4-.1c-1.2.3-3.5-.5-2.8-.2-.7.1-1.9.3-2.1.4-1.8 0-.4-.2-1.6-.3-1.3 0-1.5.2-3.3 0v-.1c-.8 0-1.4.1-2.5.1l.3-.1c-1.1.2-1.7 0-2.4-.1l1.8 1.8h-3.2l1.4-1.3-6.5.3c-.4-.5-.5 0-1.9-.3l.1.3c-3.3 0-7.1-.7-10.7-.7l-.1-.3-.7.3-6.2-.3c-.5 0-1 0-1.5-.1h-.6s-.1-.1-.1-.2v-.3c-.1-2.8-.3-5.8-.1-8.9.1.2.2-.1.3.2-.3-.7 0-1.8 0-2.5l-.2.8c-.2-.9 0-2.1.2-2.6l-.3-1.4c0-.1.1-.2.1-.3l-.1-.2.3-.7c-.1-.3-.2-2.2-.5-2.8.1-.1.2-1.4.3-.4l.1-5.1-.1.8c-.3.1-.4-1.4-.3-2.2.2 1 .4.1.5-.4-.1-.7-.2.6-.4.2-.2-.9-.3-2.7-.1-3.2l.1.5c-.1-1.2.3-1.7.3-2.9-.2-1 0-1.8-.5-1.6-.1-1.5.3-.6.3-1.1-.2-.7-.1-2.8.1-3.1-.6-.8.2-4.1-.3-4.4l.3-1.2c-.1 0-.5-.3-.5-1.3.2-.9.4-.7.6-1l-.5-.6c.6-5.5.2-12.6.7-18.6-.1-2.7-.4-6-.3-9.1l.1.3.1-1.1c1 .4 2 .7 2.2.7v.5c.1-.1.1-.5.1-.7h-.2c0-.5.1-.1.1-.6.1 0 .1.4.2.8 0-.4.1-.7 0-.9.1-.3.2 0 .2-.4 0-.3-.1-.7-.1-1 .1-.5 0-.9 0-1.3 1.2.1 2.7.3 2.9.3v.1c.1 0 .1-.1.1-.2h-.2c-.1-.2.1 0 .1-.2.1 0 .2.1.2.3 0-.1.1-.2 0-.3.1-.1.2 0 .2-.1s-.2-.2-.1-.3v-.1.1c.2 0 4.2.8 4.5.8v.2c.1 0 .1-.2.1-.3h-.2c-.1-.2.1-.1.1-.3.1 0 .2.2.2.4 0-.2.1-.4 0-.4.1-.2.2 0 .2-.2 0-.1-.2-.3-.1-.5s0-.4 0-.5l2.5.2v.1c.1 0 .1-.1.1-.2h-.2c-.1-.1.1 0 .1-.2.1 0 .2.1.2.2 0-.1.1-.2 0-.2.1-.1.2 0 .2-.1s-.2-.2-.1-.3c.1-.2-.2-.3-.1-.5.1-.1 0-.2.1-.3 0 0-.1.1-.1 0 .1-.1 0-.2.1-.3l-.1-.1c0-.5-.1-2.5-.1-3-.1-.8 0-2.3-.2-3.1.1-.1.1-.3.1-.4-.1.1-.1 0-.1 0 0-.4-.1 0-.1-.4-.1-.5 0-2.2.2-2.6-.2-.2 0-.5-.1-.7s.1-1.5.1-1.8c-.1-.2.1-.2.2-.4-.2 0-.3-.2-.3-.3s-.2-.4-.2-.6h.1c-.1-.2-.1-.5-.1-.6 0-.3.2-.6.1-1l.3-.2s-1.5-.2-2.8-.2c0-1.1.1-2.3.2-2.8 1.2.2 2.9.3 3.1.4v.1c.1 0 .1-.1.1-.2h-.2c-.1-.2.1 0 .1-.2.1 0 .2.1.2.3 0-.1.1-.2 0-.3.1-.1.2 0 .2-.1s-.2-.2-.1-.3c.1-.2-.2-.4-.1-.6.1-.1 0-.2.1-.4 0 0-.1.1-.1 0 .1-.2 0-.3.1-.4l-.1-.1c0-.6-.1-2.9-.1-3.4 0-.9 0-2.7-.2-3.6.1-.1.1-.3.1-.5-.1.1-.1.1-.1 0 0-.4-.1 0-.1-.5-.1-.5.1-2.5.2-3-.2-.3 0-.6-.1-.8-.1-.3.1-1.7.1-2.1-.1-.3.1-.2.2-.4-.2 0-.3-.2-.3-.3s-.2-.4-.2-.6h.1c-.1-.2-.1-.5-.1-.7.1-.3.3-.7.1-1.1l.3-.3s-1.5-.2-2.8-.2v-2.3l5.1.2c0 .1 0 .1-.1.1.1 0 .2-.1.1-.2h-.3c-.1-.1.2 0 .2-.2.3 0 .3.1.3.2 0-.1.2-.2-.1-.2.1-.1.3 0 .4-.1-.1-.1-.3-.2-.2-.3.3-.2-.4-.4-.1-.6h.1c.1-.1-.1-.2.1-.4-.1 0-.2.1-.3 0 .2-.2 0-.3.2-.4l-.2-.1c0-.5-.3-2.7-.3-3.2-.1-.8-.1-2.5-.4-3.4.2-.1.2-.3.3-.5-.1.1-.3 0-.3 0 0-.4-.2 0-.3-.5-.2-.5 0-2.4.2-2.8-.4-.2-.1-.5-.3-.8h.1c-.1-.2.2-1.6.1-1.9h-.1c-.2-.2.2-.2.3-.4-.4 0-.6-.2-.7-.3h.1c-.1-.1-.4-.4-.5-.6h.2c-.2-.2-.1-.5-.2-.6.1-.3.5-.7.2-1.1l.6-.2h-.1s-2-.1-4.1-.1V43c0-.3 0-.8-.1-1.2 2.3 0 4.9.1 5.2.1h-.1c.1 0 .2 0 .1-.1h-.3c-.1-.1.2 0 .2-.1.3 0 .3 0 .3.1 0 0 .2-.1-.1-.1h.4c-.1 0-.3-.1-.2-.1.3-.1-.4-.1-.1-.2h.1c.1 0-.1-.1.1-.1h-.3c.2-.1 0-.1.2-.1h-.2c0-.2-.3-.9-.3-1.1-.1-.3-.1-.9-.4-1.2.2 0 .2-.1.3-.2h-.3c0-.1-.2 0-.3-.2-.2-.2 0-.8.2-1-.4-.1-.1-.2-.3-.3h.1c-.1-.1.2-.6.1-.7h-.1c-.2-.1.2-.1.3-.1-.4 0-.6-.1-.7-.1h.1c-.1 0-.4-.1-.5-.2h.2c-.2-.1-.1-.2-.2-.2.1-.1.5-.2.2-.4l.6-.1h-.1s-2.3 0-4.6-.1c-.1 0-.2-.1-.2-.2s-.2-.3-.2-.4h.1c-.1-.1-.1-.4-.1-.4 0-.2.2-.5.1-.8l.3-.2s-1.9-.2-3.4-.1c0-.7.1-1.4 0-1.7v.1-.3c.7 0 1.6.1 2.2.1v.7c-.1.1-.2 0-.2 0 .1.1.1 0 .1.1h-.1v.1h.3v.1h-.1s.3 0 .2.1v.4c-.1 0-.1 0-.1-.1v.1c.1 0 .1.1.1 0 .3.1 0 .2.2.3.2 0 4.2.2 4.5.2v.1c.1 0 .1-.1.1-.1h-.2c-.1-.1.1 0 .1-.1.1 0 .2.1.2.1s.1-.1 0-.1h.2s-.2-.1-.1-.1c.1-.1-.2-.2-.1-.3.1 0 0-.1.1-.2h-.1c.1-.1 0-.1.1-.2l-.1-.1c0-.2-.1-1.2-.2-1.5-.1-.4 0-1.1-.2-1.5.1-.1.1-.1.1-.2h-.1c0-.2-.1 0-.1-.2-.1-.2 0-1.1.1-1.3-.2-.1 0-.2-.2-.3-.1-.1.1-.7 0-.9-.1-.1.1-.1.1-.2h-.1l.6-.2h.2s0-.1.1.1v.1h.8l11.6-10.9c1.8-1.7 3.5-3.4 5.3-5l1.3-1.2.9-.9s.1-.1.1-.2h.2l.1.1c1 .9 2 1.8 2.9 2.7 1.9 1.7 3.7 3.4 5.4 4.8 3.4 3 6.3 5.3 8.4 6.8.6.2 1.8 1.2 1.6.5l.5.5.3.4c.2.3.3.4.5.4-.2-.2-.2-.3-.3-.4l.7.1.3.3-.3-.3h.3l-.7-.7v-.1l-.2-.5-.3.1-.3-.3.1.2c-.1-.1-.1-.2-.2-.2h.1l-.3-.3c-.2-.3-.4-.5-.4-.7-.7-.4-1.5-.3-2.6-1.8l.4.3c-1.1-1-.4-.9-.6-1.1l.2.2-.7-1c.6.8 2 1.6 1.4 1.1-1.2-1.3.3.4-.7-.5-.6-.6-.3-.6-.1-.7l-1.1-1c.2-.1.7.7.4.1l-1.5-1.1c.1-.6-1.6-1.2-1.9-2.2 1.1.9 0-.2.3-.2l-2.4-2.3c-.2-.3.7.5.4.2-.3-.5-.8-.6-1.1-.9-.1-.3-1.8-1.7-1.4-1.9-1.4-1.7-1-.3-2.3-1.9 0-.4 1.2 1.1.7.3l-1.6-1.5c.2.1.6 0 1.1.6-.9-.9-1.5-1.7-2.4-2.8-.8-.9-1.5-1.8-2.2-2.6 0-.1 0-.3.1-.4-.2.2-.3 0-.3-.4-.4.1-.7.1-1 .6-.1-.1-.2-.1-.3-.2-.1.2-.4.8-.8 1-.2 0 0-.4-.1-.6l-.5.9c-.8.1-2 .7-3.2 1.3s-2.4 1.2-3.6 1.7c-.1.1-.2.2-.4.3l-.2.1-.1.1c-.1.1-.3.2-.4.3l-.9.6V6l-.7.2h.6c-.1.1-.2.3-.3.3-.8.2-1.8.4-2.6 1.1-.3.8-.6-.3-.9.4v-.2c-.5.5-.7.7-1.1 1.4-.2-.6-.4.2-.5-.1l.1.2c-.2-.1-.5 0-.6-.1l-.1.4-.1-.2c-.3.2-1 .7-1.4.4-.6.8-2 1.4-3.1 1.9 0 .3-.3.4-.6.6l-.4-.1c-.2.2-.3.7-.6.6v-.1c-.2.2-.5.2-.6.5-.3.1-.6.1-.7-.2.2.5-.6.2-.6.2s-14.2 6.4-16.3 10.6c0 .3-.2.5 0 .7-.1 0-.2 0-.2.1-.1 0-.2-.1-.2.1h.2c0 2.1 0 4.3-.1 6.3 0 1.3-.1 2.6-.1 3.9.2 9.9-.3 20.7-.1 30.5 0-1.5.5-.9.4.3-.9 3.1.2 5.3-.5 8.5.3 5.7-.5 10.8.2 16.1l-.3.1c-.1.8.1 1 .1 1.8h-.1c-.1 2 .2 4.3 0 5.5l.3.1c0 1.2-.2.6-.1 1.8h-.1l.3 1.4c-.5-.1 0 3.3-.3 4.2.1 1.5.3 4.4.2 6.7-.3.4-.3 3.2-.4 5 .1 3.5.1 8.4.1 12.9l.3-.1v1.2c-.1 0-.1.1-.1 0-.4.9.1 2.7-.1 3.6.3-.6 0-.8.1-1.5.2-.9.5 0 .3 1.2h-.1l.2.9c-.3.1-.4.9-.6 1 .1 3.8.5 6.4.4 10.3-.3-.4.1 2.8-.4 2 .2 2.4.4-.4.8.7 0 .7.1 1.4-.1 1.5-.1-.3-.3.5-.3 0v1.6c0 .2-.1-.2-.1-.4.3 3.2-.3 5.7 0 8.6.2.2.1-1.1.2-.9.4 2.9-.3 2.6-.1 5.3l-.2-.6c.2.9.4 1.3.2 2.7-.3.3-.2-1.2-.4-1.9 0 1 .1 3.5.3 2.7.1 1.2-.2 1.6-.2 2.2.1 0 .2-1.1.3-.4-.2 1.6-.2 4.1-.2 6.1-.1 0-.2.1-.2-.1.4 1.6-.3 1.4-.2 3.6l.1 9.2h11.1c2.4 0 4.6 0 6.7.1 1.3-.4 3.1-.3 4.9-.4l.2.5 1.5-.1c.6.2-1.2.1-.1.3l.6-.3c.1.2 3.9.2 1.4.5l5.9.1c1.3 0 .8-.4 2.2-.3.3.2-.5.1-.4.3.7.1 1.2.1 1.7.1h4.3v-1.3c.5 0 1 0 1-.1-.3-.3-.6-.1-1 0v-.4c.3 0 .6-.1.5-.2.9.2 1.5-.1 2.3-.1 1.4.3 3.4.1 4.5.5.7-.1 1.5-.5 3-.5 1.1.4-.3.3 1.2.5l.2-.2c1.2.1 1 .1 1 .2 1.3 0 1.1-.3 2.7-.1l-.9.2c1.2-.1 1.7 0 3.3 0 0 .1-.7.1-1.2.1.9.4 1.5-.1 2-.1-.1-.1-1.3-.2-.7-.4.8.1 1.7-.3 2.3 0l-.9.2c.4 0 .7-.1.9-.1h3c-.2 0-.1.1-.1.1 1.1-.2 2.5-.1 4.2 0 0-1 .1-2 .1-3.1l.1.6c-.1-1.3-.3-2-.3-2.6-.1 1.6-.2 1.1-.4 1.1.2-.9.1-1.8-.1-2.7-.2-.7-.3-1.4-.2-2.5.1 0 .3.6.2 1.2.2.4.4.6.6.9.2.2.3.9.4 2 0-.4-.1-.7-.1-1.1v-.8c0-.3 0-.5.1-.4l-.4-.3v-1.3c-.3-.2-.4 1-.6-.1-.1-1.3.4-.7.2-.9-.2-1.9-.4-.8-.3-2.6 0 .2.1.5.1.7.1-1.3-.1-3.1.4-3.5.1.2.3.2.2.7h-.1c.3 1.3 0-.8.2-.8-.2-.3-.1-1.8-.1-2.5l-.3.3c-.9-2.7.6.1.4-2.5-.2-1.7-.1.6-.3-.4 0-1.1.3-1.6.1-3.3-.7 1-.5 0-.2-.1zM26.11 108v-.3h.1l-.1.3zm-.1-62.9s0-.1 0 0c0-1.2.1-2.4.4-2.3-.2-.2-.1-1 0-1.7.5 0 1 .1 1.5.1 0 .1 0 0-.1.4 0 .3.2.5.2.7 0 0 .1-.1.1 0-.1 0 .1.2 0 .3 0 .1 0 .4.2.3-.1 0-.1.3-.2.1v.2l.1-.1c0 .3-.1.4 0 .6l.1-.1c0 .2 0 .3-.2.4l-.1-.2c0 .3 0 .5.1.7v-.1c.1.1.1.5.2.8-.7 0-1.5-.2-2.3-.1zm5.7 23.3c0 .1 0 .1 0 0 .2.2.2.4.2.5 0 0-.1 0-.1-.1 0-.4 0 0-.1-.4zm.1-1c-.1.3 0 .7 0 1-.1 0-.1 0-.1-.1v-1.1s.2.1.1.2zm-.1-.3v-.2h.1l-.1.2zm0-3.2l.2-.1.1.2s-.1 0-.3-.1zm-.4 27.5c-.1 0-.1 0 0 0-.1 0 0 0 0 0zm-2.3-34.7v.1c-.1-.9.1-.7.2-1.4-.2.1-.3-.7-.3-.9s0-.4-.1-.6c.2 0 .8.1 1.5.2.1.2.4.3.3.4 0 0 .2-.1.3 0-.3 0 .2.2-.1.2 0 0 0 .2.2.2v.1c-.1 0-.1.1-.2 0 0 .1-.1.1 0 .2l.1-.2c.1.2-.2.3.1.4v.1c.1 0 .1 0 .1.1 0 0-.1.1-.3.1l-.1-.1c0 .2 0 .3.2.5V56s.1 0 .1.1c.2 0 0 .1.1.2h.1l.1.2c-.1.1-.1.1-.2 0 0 .2-.1.7-.1 1.2-.5-.1-1.2-.1-1.9-.1-.1-.5-.1-.8-.1-.9zm-.3 28.9v-5.9l2.3.3-.1.1c.1-.1.1 1.9 0 2h.2c0 .4-.2.1-.2.5.3.1 0 .6.1.7 0 0 0 .2-.1.2.2.1 0 .2.1.3l.1-.1.1.2c-.1.1-.1.1-.2 0 0 .3-.1 1-.1 1.9-.5-.1-1.3-.2-2.2-.2zm2.4 2.7c0-.1-.1-.2-.1-.3 0 0 0-.1.1-.1 0 .2-.1.3 0 .4zm.4 11.6v-.3.3zm.1.9v.3-.3zm0 2.3c0-.3 0-1.1-.1-1.8.1.1.2.2.1.4 0 .4.1.9 0 1.4zm.1.4v.1-.1s0 .1 0 0zm0 .5c0 .1 0 .3.1.4-.1-.2-.2-.3-.1-.4zm-.2-8.1v3.7c-.1-.9 0-2.7-.2-3.6.1-.1.1-.3.1-.5-.1.1-.1.1-.1 0 0-.5-.1 0-.1-.5-.1-.3 0-.9 0-1.5.1.6.3 2.1.5 2.4l.1-.2.1.3c0 .1-.4 0-.4-.1zm2.6-22.1h-.2s0-.1.1-.1.1 0 .1.1zm-.1-4.3v.5h.2c0 .2-.2.1-.2.3.3.1 0 .4.1.4 0 0 0 .1-.1.1.2 0 0 .1.1.2h.1l.1.2c-.1.1-.1.1-.2 0-.1.4-.2 2-.2 2.6-.7 0-1.4 0-1.8.2v-.4c-.1-1 0-3.1-.2-4.2.1-.1.1-.2.1-.3v.1c.1 0 1 .1 2 .3z"/></g><path d="M16.11 80.098l-10 5-2 101.3 10.3.2v-.2h33.5v-105.9l-31.8-.4z" fill="#efefef"/><g fill="#202020"><path d="M50.71 180.6c.2-1.3-.2-2 0-3.2v.1c.1-.4 0-1.3.1-2 0 .2-.1.4-.1-.1.1-.9 0-1.5.1-2.1l-.1-.6-.1-7.9s0 .1.1.1c.3-.6.3-2.5.2-3.5-.2-.4-.2.1-.2.5l-.1-7.6-.2-19.3c.1-.8.1-1.8.1-2.6-.1.4-.1.3-.1-.1 0-2.4-.1-.2-.1-2.6v-1.3c0-.4.1-.7.1-1l-.1-.3v-8c0-.1.1 0 .2.3-.1-.7-.1-.8-.2-1v-.9c.3 0 .4-.5.5-1.6l-.3.9s-.1-.1-.1-.2c0 .2-.1.3-.1.4v-3.5c-.2-1.3 0-3-.2-4.3v.1-.3c.1.1.1.2.1.5 0-.4 0-1.5-.1-2v-9c-.1-1.4.1-1.2.1-2.4-.2.1-.3-1.1-.3-1.5 0-.7-.2-2.3-.2-3.4h.1c0-.2 0-.4-.1-.7.1.2.1.2.3-.2 0-.7-.2-1.2-.3-1.8V86h.1c.1.3.1.7.1 1.1l.1-.3c.1-1.6-.1-1.6-.3-1.6v-2.1c.1-.2 0-.9-.1-1.4v-.2l.3-1.4v-.2s-1.3-.7-2.5-.8c.2-1 .3-1.9.3-2.1h.1c0-.1-.1-.1-.2-.1v.2c-.2 0 0-.1-.2-.1 0-.1.1-.1.3-.2-.1 0-.2-.1-.3 0-.1-.1 0-.2-.1-.2s-.2.2-.3.1c-.2-.1-.4.2-.6 0-.1-.1-.2 0-.4-.1 0 0 .1.1 0 .1-.2-.1-.3 0-.4-.1l-.1.1c-.6-.1-2.8 0-3.4 0-.9 0-2.6-.1-3.6 0-.1-.1-.3-.1-.5-.2.1.1 0 .1 0 .1-.4 0 0 .1-.5.1-.5.1-2.5-.1-2.9-.3-.3.2-.6 0-.8.1-.3.1-1.7-.2-2-.1s-.2-.1-.4-.2c0 .2-.2.3-.3.3s-.4.2-.6.2v-.1c-.2.1-.5 0-.6 0-.3-.1-.7-.3-1.1-.2l-.2-.3s-.2 1.4-.3 2.7h-1.4c.2-.1.4-.4 1.1-.3-3.6-.2-5.4-.9-8.7-1.2l-.1-1c.2-.2.3-1.3.3-2.6l-4 1.9-4.4 2.3-2.6 1.3c-.3.1-.6.3-.9.4-.2.1-.5.2-.7.3-.1 0-.1 0-.5.1-.3.1-.7.3-1.2.5l-3.1 1.4c-.1 1-.1 1.9-.1 2.7v6.2l-.1 5.8.3-.1v1c-.1 0-.1.1-.1 0-.4.8.1 2.3-.2 3.1.3-.5.1-.7.1-1.2.2-.8.5 0 .3 1.1h-.1l.2.7c-.3.1-.4.7-.6.8 0 3.2.4 5.4.2 8.8-.3-.3 0 2.4-.5 1.7.1 2 .4-.3.7.6 0 .6.1 1.1-.1 1.2-.1-.3-.3.4-.3 0v1.3c0 .1-.1-.2-.1-.3.2 2.7-.4 4.8-.2 7.3.2.2.1-1 .2-.8.3 2.5-.4 2.2-.2 4.5l-.2-.5c.2.7.4 1.1.1 2.3-.3.2-.2-1-.3-1.6 0 .8 0 3 .3 2.3.1 1-.2 1.4-.3 1.9.1 0 .2-.9.3-.3-.2 1.4-.2 3.5-.3 5.1-.1 0-.2.1-.2 0 .4 1.3-.3 1.2-.3 3 0 4.9.3 11.3.1 16.2.4 1.1.3 2.6.4 4.2l-.5.2.1 1.3c-.2.5-.1-1-.3-.1l.3.5c-.2.1-.2 3.3-.5 1.1l-.1 5c0 1.1.4.7.3 1.9-.2.2-.1-.4-.3-.3-.5 3.7.9 4.3.6 7.7l-.1-.3c.1.6.1 1.7.2 1.7.5-.4-.3-.6.1-1.7.4.1.2 1.3.5 1.3-.2.8.1 1.3.1 2-.1.6-.2 1.3-.2 2 0 .5-.1 1-.1 1.5s-.1 1-.2 1.4c.1 1 .5 1.8.5 3.7 0 .1 0 .2-.1.3.8.3-.7.3 1.1.4l.5-.2c1.6.1 1.3.1 1.2.2 1.8 0 1.6-.3 3.8-.1l-1.3.2h1.3c-.1.2-.1.4 0 .5l-.1.9s3.8.3 4.6 0h.1v-.1c.1-.1-.1-.1 0-.1v.1c0-.1.1 0 .2 0 0 0 0-.1.1-.1h-.1s-.1-.1-.1-.2.2 0 .2-.1c0-.2.1-.5.1-.7h1c-.1 0 0 .1-.1.1.1 0 .3-.1.4-.1l1.5-.2c.6 0 1.2.1 1.9.1l-.3.1c.6-.1 1-.3 1.3-.3-.9-.1-.6-.2-.7-.5 1.2.4 1.8-.5 3.7-.2 0 .1-.5.3-1 .2-.7.4-.7.8-1.9 1 .7-.1 1.6-.2 1.4 0l.2-.4h1.1c.2-.3-.9-.4.1-.6 1.1-.1.6.4.8.2 1.6-.2.7-.4 2.2-.3-.2 0-.4.1-.6.1 1.1.2 2.7-.1 3 .4-.2.1-.2.2-.6.2v-.1c-1.1.3.7 0 .7.3.2-.2 1.5-.1 2.1-.1l-.2-.3c2.3-.9-.1.6 2.1.5 1.4-.2-.5-.1.3-.3 1 .1 1.3.3 2.8.2.4.1 1.2.3 1.3.6.9-.1 2.6.1 3.1-.2-1.5-.3-1.5.3-3.2-.1l.5-.3c1.2 0 2.7-.1 3.6 0-.2-.1-.2-.1-.1-.2 1.7-.1 2.2-.4 3.9-.3.2.3-.8.2-1.5.3.5.1.8.1 1.2.1h2.1c.1.1-.4.1-.9.1h-.6c-.1 0-.2 0-.3.1h2.7v.1c.1-.2.7-.2 1.4-.2s1.7.1 2.6.1h.5c0-2.5-.3-3.8-.5-4.9.3.2.5.2.6.2v.8c.1-.1.1-.8.1-1.1l-.2-.1c-.1-.8.1-.2.1-1 .1 0 .2.7.2 1.4 0-.6.1-1.2 0-1.4.1-.6.2.1.2-.6-.2-.4-.4-1-.3-1.6zM28.51 79.8v.1h-.2c0-.1.1-.1.2-.1zm-17.6 97.6c.1.4-.1.4-.1.8h.1c-.5 0-1.1-.1-1.7-.1 0-.1 0-.1.2-.1l.1.1c0-.1 0-.2-.1-.3-.2-.1-.3-.7-.6-.8h-.1l-.1-.1s.5 0 .4.1c0-.2-.1-1.2 0-1.4.7 0 1.5.1 2.2.1-.3.7-.4 1.4-.3 1.7zm-3.3-4.9v-.2c.1.2.1.2 0 .2zm3.1-14.4c-.4 0-.8-.1-1.2-.1.1-.3.2-1.1.1-1.3-.1 0 0 .1-.2.1-.1-.1 0-.1-.1-.1.3 0 .1-.1.3-.2h-.1c-.2-.3-.1-.1 0-.3 0-.1-.2-.2-.2-.3h-.1c.1 0-.1-.1 0-.1 0 0 0-.1-.2-.1.1 0 .1-.1.2-.1v-.1h-.1c0-.1.1-.2 0-.2h-.1c0-.1 0-.1.2-.1l.1.1v-.1c.4 0 .8.1 1.3 0v2.3c.1.2.1.4.1.6zm-3.1 14.6c.1 0 .2.2.2.2 0 .1.2.4.2.6h-.1c.1.2.1.5.1.6v.1h-.2c.1-.4.1-.8-.2-1.5zm4.7-35.7l-.2.1-.1-.2c.1 0 .2.1.3.1zm-.1-4.6c.1-.4 0-.9 0-1.3.1 0 .1.1.1.1 0 .5-.1 1-.1 1.4.1 0 0-.1 0-.2zm3 25.3s.1 0 .1.1v.3l-.1-.4zm0-10.8c.1.3.1.6.1.9-.2 0-1.2-.2-2.2-.5v-.2h-.1l-.1-.1c.1-.1.1-.1.2 0 .1-.5.2-3.1.2-3.7-.1.1 0 .3-.2.3-.1-.2 0-.2-.1-.3.3-.1.1-.3.3-.4h-.2l.1-.1c-.2-.7-.1-.2 0-.7 0-.3-.1-.4-.2-.6.7.1 1.7.2 2.5.1l-.3 5.3zm-2.8-17.8c.1.3 0 1.2 0 2 0 0 0-.2-.1-.1-.3-.3 0-.7-.2-1-.1 0-1-.2-2-.3v-.1c-.3-.1 0-.5-.1-.6 0 0 0-.1.1-.1-.2 0 0-.2-.1-.2h-.1l-.1-.2c.1-.1.1-.1.2 0 .1-.6.2-3.2.2-3.8-.1.1 0 .3-.2.3-.1-.2 0-.2-.1-.3.3-.1.1-.3.3-.5h-.2c.6 0 1.1 0 1.5-.1l-.2.8c0 .4.1.9.2 1.3 0 .9 0 1.7-.1 2.6h.6c.3.2.4-.2.4.3zm9-44.9s0-.1 0 0h0zm-10.3 2.4l.2-.1.1-.1c.1-.1.2-.1.3-.1l-.1.1h.2c0-.1 0-.2-.1-.2.1-.1.2-.3.3-.3h.2c-.1.4-.2.7-.2.9v.9c0 .4 0 .7.1 1.1.6 2.3-.6 1.5-.2 3.7-.1-.2-.1-.3-.2-.4.1.7.1 1.4.1 1.9-.4-.1-1-.2-1.6-.3 0-.2.1-.3 0-.4l-.1.1c0-.1 0-.3.2-.3l.1.2c0-.2 0-.4-.1-.6v.1c-.2-.3-.3-1.6-.5-1.9l-.1.1-.1-.2s.5.1.4.1c0-.4-.1-2.7 0-3.1.1-.2.2 0 .2 0-.1-.2-.1-.1-.1-.3h.1v-.1c-.1.1-.2.1-.3.1v-.2h.1l-.1-.1v-.1c.2-.1.5-.3.7-.4l.5-.1zm34.5 66.9l.1 8.9c-.1.3-.1.6 0 1.4v.2c-.1 0-.1.1-.2 0l.1.8-.3-.1.3.5v.3l-.2.3.1.3c-.6.9-.1 2.1-.6 3.2l.4-.2c0 .1 0 .3.1.4l-.1-.2v.7c0-.2.1-.2.1-.3.5 2.9-.5 6.4-.2 9.7l-.3-.1.3 1.5c-.2.8-.2-.5-.4-.2.1.8.2 1 .3 1.2 0 .1.1.3.1.3 0 .1.1.2.1.4-.2.3-.2-.2-.3-.4.1.4.2 1.1.2 1.6-.3 0-.5 0-.7-.1 0 0 0 .1.1.1-.5.1-.8 0-2.4 0 0-.1.3-.2.7-.2-.5 0-1.1-.1-1.5 0l.5-.2c-1-.1-2.8.2-3.1-.1.1.1.1.3-.8.3-.5-.4-2.3.2-3.6-.1.2-.1 1.1-.1.9-.1-.7-.1-1.3.1-1.9.2l.2-.2-3.1.2c-.5-.4-3 .1-2.7-.3-1.1 0 .9.2-.5.2-.4-.2-1.3.1-1.2-.2h.2-1l.6-.3c-.9.1-1.5.3-1.5.6-.8-.2-2 0-2.3-.3l.3-.1c-1.2.1-2.2-.2-3.1-.3h-.2c0-.1-.1-.2 0-.1v.1c0-.1.1 0 .2 0 0 0 0-.1.1-.1h-.1c0-.1-.1-.1-.1-.2s.2 0 .2-.1c.1-.7.2-1.3.2-2h.1c0-.2 0-.4-.1-.6.1-.1.1-.1.2-.1-.1 0-.1-1-.1-1h-.2c0-.2.2-.1.2-.2-.3-.1 0-.3-.1-.4 0 0 0-.1.1-.1-.2 0 0-.1-.1-.2h-.1l-.1-.1c.1-.1.1-.1.2 0 .1-.3.2-2 .2-2.4-.1 0 0 .2-.2.2-.1-.1 0-.1-.1-.2.3 0 .1-.2.3-.3h-.1c-.2-.4-.1-.1 0-.5 0-.2-.2-.3-.2-.5 0 0-.1.1-.1 0 .1 0-.1-.2 0-.2 0-.1 0-.2-.2-.2.1 0 .1-.2.2-.1v-.1l-.1.1c0-.2.1-.3 0-.4l-.1.1c0-.1 0-.2.2-.2l.1.1c0-.2 0-.3-.1-.4v.1c-.2-.2-.3-1.2-.5-1.4l-.1.1-.1-.2s.5.1.4.1c0-.3-.1-2.1 0-2.4.1-.1.2 0 .2 0-.1-.2-.1-.1-.1-.2h.1v-.1c-.1.1-.2 0-.3.1v-.2h.1s-.3-.1-.2-.3c.1-.3 0-.6 0-.8.1 0 .1.1.1.1v-.1c-.1.1-.1-.1-.1-.1-.3-.2 0-.5-.2-.6-.1 0-1.4-.2-2.6-.3h-.2c.2-.1 0-.4.3-.6l-.2-.1.1-.1c-.2-1-.1-.2 0-1.1 0-.5-.2-.7-.1-1 0 0-.1.1-.1 0 .1 0-.1-.3 0-.4 0-.1 0-.5-.2-.4.1-.1.1-.4.2-.2v-.3l-.1.2c0-.4.1-.6 0-.9l-.1.2c0-.2 0-.4.1-.5h.1v.2-.2c1.2.2 2.8.3 3.4-.4h.1v-.2c.1-.3-.1-.4 0-.4v.4c0-.3.1-.1.2 0 0-.1 0-.2.1-.3 0-.1 0 0-.1.1 0-.2-.1-.4-.1-.6 0-.3.2 0 .2-.4.1-1.8.3-3.6.4-5.4l.1.1v-1.6c.1-.1.1-.2.2-.2-.1.1 0-2.8 0-2.8h-.2c0-.5.2-.2.2-.7-.3-.2.1-.8-.1-1 0 0 0-.2.1-.2-.2-.1 0-.3-.1-.4 0-.1 0 0-.1.1v-.4c.1-.1.1-.2.2 0 .1-.9.4-5.4.3-6.4-.1.1-.1.4-.2.6-.1-.3 0-.4-.1-.5.3-.1.1-.6.4-.8l-.2-.1.1-.1c-.1-1.2-.1-.3 0-1.3 0-.6-.2-.9-.1-1.2 0 0-.1.2-.1 0 .1 0-.1-.4.1-.5 0-.2 0-.6-.2-.5.1-.1.1-.5.2-.3v-.4l-.1.2c0-.5.1-.8 0-1.1l-.1.2c0-.3 0-.6.2-.7v.3c0-.5 0-.8-.1-1.2v.1c-.2-.5-.2-3.3-.4-3.8l-.1.2-.1-.4s.5.2.4.3c0-.9.1-5.6.2-6.4.1-.3.2-.1.2 0 0-.4-.1-.2-.1-.5 0-.1.1 0 .1.1v-.3c-.1.2-.2.1-.3.2v-.4h.1c0-.1-.3-.3-.2-.7.1-.7.1-1.5.1-2.3.1 0 .1.2.1.3v-.3c-.1.2-.1-.3-.1-.2-.3-.6 0-1.2-.2-1.7-.1 0-.4-.1-.8-.2.1-1.8.1-4 .2-6.5.3 0 .6-.1.8-.3h.1v-.2c.1-.2-.1-.3 0-.3v.2c0-.2.1-.1.2 0 0-.1 0-.1.1-.2l-.1.1c0-.1-.1-.2-.1-.4s.2 0 .2-.2c.1-1.1.3-2.2.4-3.4h.1v-1c.1-.1.1-.1.2-.1-.1 0 0-1.8 0-1.8h-.2c0-.3.2-.1.2-.4-.3-.1.1-.5-.1-.6 0 0 0-.2.1-.1-.2-.1 0-.2-.1-.3h-.1v-.2c.1-.1.1-.1.2 0 .1-.6.4-3.4.3-4-.1.1-.1.3-.2.3-.1-.2 0-.2-.1-.3.3-.1.1-.4.4-.5l-.2-.1.1-.1c-.1-.7-.1-.2 0-.8 0-.4-.2-.6-.1-.8 0 0-.1.1-.1 0 .1 0-.1-.3.1-.3 0-.1 0-.4-.2-.3.1 0 .1-.3.2-.2v-.3l-.1.1c0-.3.1-.5 0-.7l-.1.1c0-.2 0-.3.2-.4v.2c0-.3 0-.5-.1-.8v.1c-.2-.3-.2-2.1-.4-2.4l-.1.1-.1-.3s.5.1.4.2c0-.6.1-3.5.2-4 .1-.2.2 0 .2 0 0-.3-.1-.1-.1-.3 0-.1.1 0 .1.1v-.2c-.1.1-.2.1-.3.1v-.3h.1c0-.1-.3-.2-.2-.4.1-.5.1-1 .1-1.4.1 0 .1.1.1.2v-.2c-.1.1-.1-.1-.1-.1 1.2 0 2.4 0 3.6-.1l8.1-.2c5-.2 9.2-.5 11.8-1 .1-.1.2-.1.4-.1v.1l-.4.1h.4v.5c0 .7-.2 0-.2.8l-.2 12.6c0 .1 0 0-.1-.1 0 1.3 0 2.4.1 3.6 0 .3-.1.4-.2.5.1-.2.1 6.5.1 6.6l.2.1c0 1.3-.2.4-.2 1.5.3.5 0 1.9.1 2.3 0 0 0 .6-.1.5.2.2 0 .6.1.9 0 .1 0-.1.1-.2l.1.8c0 .3-.1.4-.2.1-.1 2.2-.2 12.5-.1 14.8.1-.3 0-1 .2-1.3.1.6 0 .9.1 1.2-.3.2-.1 1.4-.3 1.8l.2.2-.1.3c.2 2.7.1.6 0 3 0 1.4.2 2 .2 2.8 0-.1.1-.4.1-.1-.1.1.1 1 0 1.1 0 .4 0 1.5.2 1.1-.1.2-.1 1.2-.2.6v.9l.1-.4c0 1.2-.1 1.8.1 2.5l.1-.4c0 .7 0 1.3-.2 1.5l-.1-.7c0 1.1 0 1.8.1 2.8v-.3c.2 1.2.3 7.6.6 8.7l.1-.5.1.9v.1c-.2.3-.6-.1-.6-.2z"/><use xlink:href="#F"/><use xlink:href="#G"/><use xlink:href="#H"/><path d="M42.01 165.2h-.8v-.1c-.4.1-.9 0-1.3 0-.2 0-.4-.1-.7-.1h-.6c-.1-.1-.4-.3-.6-.3-.3 0-.5.1-.8.2-.2.1-.3.2-.5.3 0 0-.1 0-.1.1h-.6c-.3-.2-.6-.1-.9 0h-1c-.3-.1-.6-.2-1-.2-.3 0-.7 0-.9.1-.1-.1-.4-.2-.6-.2h-.2c-.4-.1-.8 0-1.1.3h-3c-.2-.1-.5-.2-.8-.2v.1c-.1-.2-.3 0-.4.1h-.1s-.1 0-.1-.1c-.1-.1-.1 0-.2.1h-.5s-.1-.1-.1-.2c.1 0-.1-.2 0-.2 0 0-.2 0-.2.2s-.1.3 0 .4v1.8h3.5c-.2 0-.4.1-.6.1v-.1l-.1.1v-.1c-.2-.2-.5.1-.6 0 0 0-.1.1 0 .2-.3 0-.6.1-1 .1l-1.3.1v-.1c-.1 0-.3.1-.4.1-.1-.3-.1-.7-.1-1.1 0-.2 0-.5.1-.7-.1 0-.1.1-.2 0-.1.2.2.3 0 .5h-.1c0 .1.2 0 .1.1h-.1v.6c0 .2 0 .5.1.6 0 .1-.1.1-.1.2.1 0 .4 0 .5.1.2-.1.3 0 .4-.2h1.5c.5 0 .9-.1 1.4-.1.2-.2.4-.1.8-.1.1 0 .2-.1.2-.1h.2c.1 0 .2-.1.3-.1.1-.1.3-.2.5-.1 0 0 .1-.1.2-.1l.8.3c.1.1.2.1.4.2.1.1.2 0 .3 0h2c.3 0 .7.1 1 .1h.3c.1 0 .3 0 .4-.1s.2-.1.2-.1l.2-.1c.5-.1 1-.2 1.6-.2.1 0 .1.1.3.1.1.1.3 0 .4.1h.5c.9-.3 1.9 0 2.8-.2h.7v-2.1zm-7.6 2.1c0-.1 0-.1 0 0h0zm.6 0h-.1c0-.1 0-.1.1 0h.2c.1 0 .2-.1.2-.1-.1.1-.3.2-.4.1zm.5-.2h0z"/><use xlink:href="#F" y="-4"/><path d="M24.51 161.497l-.2-.2c-.2.1.3.2.2.2z"/><use xlink:href="#H" y="-4"/><path d="M24.3 162.4v.6c0 .2 0 .5.1.6-.1.1-.1.2-.1.2.1 0 .4 0 .4.1.2-.1.3 0 .4-.2h1.5c.4 0 .9-.1 1.3-.1.4-.3.9.1 1.4 0 .2-.1.4-.1.6-.1l.2-.1c1.2.3 2.4.1 3.6.2 1.4.1 2.5.3 3.9-.1v.1c.4-.1.7.1 1.1 0 .9-.3 1.8 0 2.7-.2h.6v-2.2h-.9v-.1c-.9.1-1.8-.2-2.6-.1-.3-.2-.8-.5-1.3-.3-.2 0-.3.1-.4.2h-.1c-.1.1-.2.2-.4.2h-.5c-.3-.2-.6-.1-.9 0h-1c-.9-.4-1.8-.2-2.7 0H27c-.2-.1-.5-.2-.7-.2v.1c-.1-.2-.3 0-.4.1h-.1s-.1 0-.1-.1-.1 0-.2.1H25s-.1-.1-.1-.2c.1 0-.1-.2 0-.2 0 0-.2 0-.2.2s-.1.3 0 .4v1.8h3.5c-.2 0-.4.1-.6.1v-.1l-.1.1v-.1c-.2-.2-.5.1-.6 0 0 0-.1.1 0 .2-.3 0-.6.1-1 .1l-1.3.1s0-.1.1-.1c-.1 0-.2.1-.4.1-.1-.3-.1-.7-.1-1.1 0-.2 0-.5.1-.7-.1 0-.1.1-.2 0-.1.2.2.3 0 .5H24c0 .1.2 0 .1.1l.2.1zm11.3.8c0 .1 0 .1 0 0h0zm-.2 0c-.2.2-.4.1-.6 0h.6zm-1 0c0 .1 0 .1 0 0h0z"/><use xlink:href="#F" y="-20"/><path d="M24.51 145.598c0-.1 0 0 0 0l-.2-.2c-.2 0 .3.1.2.2z"/><use xlink:href="#H" y="-20"/><path d="M24.31 146.396v.6c0 .2 0 .5.1.6l-.1.1c.1.1.4 0 .5.1.2-.1.3 0 .4-.2h1.9c.1 0 .2-.1.2-.1l.2-.1c.2-.1.3-.2.5-.2.1-.2.3-.1.5 0 .1 0 .2.3.4.3h.5c.2-.1.4-.1.6-.1l.2-.1c1.2.3 2.4.1 3.6.2h1.5c.1-.1.2-.2.3-.2 0 0 .1 0 .1-.1.1 0 .2-.1.3-.1h.3c.1 0 .2 0 .5.1l.3-.1h.4c.2 0 .2.1.5.3h.7c.9-.3 1.9 0 2.8-.2h.6v-2.2c-.3 0-.6 0-1 .1v-.1c-.9.1-1.8-.2-2.7-.1h-.5c-.3-.4-.9-.3-1.2-.1l-.1.1c-.1.3-.2.5-.4.5h-.1c-.2-.1-.5-.2-.8-.3h-1.1c-.9-.4-1.8-.2-2.7 0h-.9c-1-.5-1.8-.5-2.9 0h-.4c-.2-.1-.5-.2-.8-.2v.1c-.1-.2-.3 0-.4.1h-.1s-.1 0-.1-.1c-.1-.1-.1 0-.2.1h-.5s-.1-.1-.1-.2c.1 0-.1-.2 0-.2 0 0-.2 0-.2.2s-.1.3 0 .4v1.8h2.2c.2-.1.3-.2.4-.2-.1.1-.3.3-.4.3v.2c-.3 0-.7.1-1 .1l-1.2.1v-.1c-.1 0-.3.1-.5.1-.1-.3-.1-.7-.1-1.1 0-.2 0-.5.1-.7-.1 0-.1.1-.2 0-.1.2.2.3 0 .5h-.1c0 .1.2 0 .1.2.1 0 .1-.1.1-.1zm10.8.8c.1-.1.2-.2.4-.3-.1.2-.2.3-.4.3h-.2.2zm-.6 0c0 .1 0 .1 0 0h0zm-6.1-.3c-.2 0-.4 0-.5.1v-.1s0 .1-.1.1v-.1h-.2.8z"/><use xlink:href="#F" y="-24"/><use xlink:href="#G" y="-24"/><use xlink:href="#H" y="-24"/><path d="M24.51 143.598c-.1-.3-.1-.7-.1-1.1 0-.2 0-.5.1-.7-.1 0-.1.1-.2 0-.1.2.2.3 0 .5h-.1c0 .1.2 0 .1.1h-.1v.6c.1.2.1.5.3.6-.1 0-.2.1-.2.2.1 0 .4 0 .5.1.2-.1.3 0 .4-.2h1.5c.5 0 .9-.1 1.4-.1.4-.3.9.1 1.4 0 .2-.1.4-.1.6-.1l.2-.1c1.2.3 2.4.1 3.6.2.3 0 .7.1 1 .1h.3c.1 0 .2-.1.4-.1.1-.1.2-.1.4-.1.5-.1 1-.2 1.6-.1 0 0 0 .1-.1 0 .2.2.6.1.7.1h.5c.9-.3 1.8 0 2.7-.2h.6v-2.2h-.9v-.1c-.9.1-1.7-.2-2.6-.1-.5-.1-1.1.1-1.7.1-.1 0-.1-.1-.2-.1-.2-.1-.5-.2-.7-.2h-.1c-.3-.1-.6.1-.8.4h-1c-.9-.4-1.8-.2-2.7 0h-.5c-1.2-.5-2-.5-3.1 0h-.4c-.2-.1-.5-.2-.8-.2v.1c-.1-.2-.3 0-.4.1h-.1s-.1 0-.1-.1-.1 0-.2.1h-.5s-.1-.1-.1-.2c.1 0-.1-.2 0-.2 0 0-.2 0-.2.2s-.1.3 0 .4v1.8h3.6c-.2 0-.4.1-.7.1v-.1l-.1.1v-.1c-.2-.2-.5.1-.6 0 0 0-.1.1 0 .2-.3 0-.6.1-1 .1l-1.3.1s0-.1.1-.1c-.1.2-.2.2-.4.2zm10.5-.4h.2c.1-.1.2-.1.3-.1 0 .1-.1.1-.1.1-.2.1-.2.1-.4 0 0 .1 0 .1 0 0 0 0-.1 0 0 0zm-.5 0c0 .1 0 .1 0 0h0z"/><use xlink:href="#F" y="-36"/><path d="M24.51 129.598l-.3-.2c-.1 0 .4.1.3.2z"/><path d="M24.508 129.698c-.1 0 0-.1-.1-.1 0 .1.1.1.1.1z"/><path d="M41.41 129.196c-1 .1-1.8-.3-2.8-.2h-1.3s-.1 0-.1-.1c-.2-.1-.5-.2-.8-.2h-.7c-.2 0-.3 0-.5.1-.1 0-.1.1-.2.1l-.2.1h-1c-1-.4-1.9-.2-2.8 0h-.4c-.4-.3-.7-.4-1.1-.4h-.2c-.7-.2-1.5 1.8-2.2.3-.1-.1-.2-.1-.3-.1s-.3-.1-.4 0v.1c-.1-.2-.3 0-.4.1h-.1s-.1 0-.1-.1c-.1-.1-.1 0-.2.1h-.5s-.1-.1-.1-.2c.1 0-.1-.2 0-.2 0 0-.3 0-.2.2 0 .2-.1.3 0 .4v1.8h1.5c.1 0 .2-.1.4-.1.1 0 .1 0 .2-.1.2-.1.5-.2.8-.2-.2 0-.3.2-.4.1v.2c-.1 0-.3.1-.5.2-.1 0-.3.2-.5.2-.4 0-.6.1-1.3.1v-.1c-.2.1-.4.1-.6.1-.1-.3-.1-.7-.1-1.1 0-.2 0-.5.1-.7-.1 0-.1.1-.2 0-.1.2.2.3 0 .5h-.1c0 .1.2 0 .1.2-.1.1-.1 0-.1 0 0 .3 0 1 .1 1.3 0 .2.5 0 .6.2.2-.1.3 0 .3-.2h1.1l.2-.1c.1 0 .2-.1.3-.1.2-.1.2-.1.3-.2.1 0 .2-.1.3-.1.2 0 .4-.1.6 0 .4-.3.9.2 1.4.3h.3c.2.1.3 0 .4.1l.2-.1c1.2.3 2.5.1 3.7.2.1 0 .2 0 .2.1l.1.1c0 .1.1.2.1.3s.1.1.1.2c0 0 .1.1.3.2.2 0 .4-.1.4-.1.2-.2.2-.3.3-.4 0-.1.1-.1.1-.2h.1l.1-.3v-.1l.1.1c.4-.1.5-.2.7-.3v.1c.4-.1.7 0 1 .1.2 0 .4 0 .7.1.1 0 .3.1.4.1h.4c.5 0 1 0 1.4-.1h1.1l-.1-2.2v-.1zm-13.5 1.7c-.1 0 0 0 0 0 0-.1-.1-.1-.1-.1h.2l-.1.1zm.1 0c.2-.1.4-.1.6 0h-.6zm6.5.3h0c.1 0 .1.1.2.1-.1 0-.1 0-.2-.1zm.2.3c.1-.1.1-.1 0 0h0zm.7.5l-.1.1c-.1 0-.2-.1-.2-.1v-.1c0 .1.1.1.1.1.1.1.2 0 .3-.3-.1.1-.1.2-.1.3zm0-.4h0z"/><use xlink:href="#F" y="-40"/><use xlink:href="#G" y="-40"/><use xlink:href="#H" y="-40"/><path d="M37.61 127.6h.8l.2-.1c.1-.1.1-.1.2-.1.3-.3.7-.3 1.1-.1.2.1.4.3.7.2.2 0 .4-.1.7-.1h.7v-2.2h-.8v-.1c-.4.1-.9 0-1.3 0-.3 0-.3 0-.5-.2-.2-.1-.4-.2-.7-.2-.5-.2-1 .1-1.4.3-.1.1-.3.2-.5.2h-.8c-.3-.2-.6-.1-.9 0h-1c-.5-.2-1.1-.3-1.6-.2-.3 0-.6.1-.8.1h-.3a9.45 9.45 0 0 0-4.1 0h-.7v.1c-.1-.2-.3 0-.4.1h-.1s-.1 0-.1-.1-.1 0-.2.1h-.5s-.1-.1-.1-.2c.1 0-.1-.2 0-.2 0 0-.2 0-.2.2s-.1.3 0 .4v1.8h3.5c-.2 0-.4.1-.7.1v-.1l-.1.1v-.1c-.2-.2-.5.1-.6 0 0 0-.1.1 0 .2-.3 0-.6.1-1 .1l-1.3.1s0-.1.1-.1c-.1 0-.3.1-.4.1-.1-.3-.1-.7-.1-1.1 0-.2 0-.5.1-.7-.1 0-.1.1-.2 0-.1.2.2.3 0 .5h-.1c0 .1.2 0 .1.1h-.1v.6c0 .2 0 .5.1.6 0 .1-.1.1-.1.2.1 0 .4 0 .4.1.2-.1.3 0 .4-.2h1.5c.4 0 .9-.1 1.4-.1.4-.3.9.1 1.4 0 .2-.1.4-.1.6-.1l.2-.1c1.2.3 2.4.1 3.6.2 1.5 0 2.6.2 3.9-.1.1 0 .1-.1 0 0zm-3.2-.3c0-.1.1-.1 0 0h0zm.5-.1h.6c-.2.2-.4.1-.6 0zm.7.1c0-.1 0-.1 0 0h0z"/><use xlink:href="#F" y="16"/><path d="M24.51 181.497l-.2-.2c-.2.1.3.2.2.2z"/><use xlink:href="#H" y="16"/><path d="M41.21 181.197c-.9.1-1.7-.3-2.6-.2-.6-.1-1.3.1-1.9.2h-.8c-.3-.2-.6-.1-.9 0h-1c-.9-.4-1.8-.2-2.7 0h-4.2c-.2-.1-.5-.2-.7-.2v.1c-.1-.2-.3 0-.4.1h-.1s-.1 0-.1-.1-.1 0-.2.1h-.5s-.1-.1-.1-.2c.1 0-.1-.2 0-.2 0 0-.2 0-.2.2s-.1.3 0 .4v1.8h3.5c-.2 0-.4.1-.6.1v-.1l-.1.1v-.1c-.2-.2-.5.1-.6 0 0 0-.1.1 0 .2-.3 0-.6.1-1 .1l-1.3.1s0-.1.1-.1c-.1 0-.2.1-.3.1-.1-.3-.1-.7-.1-1.1 0-.2 0-.5.1-.7-.1 0-.1.1-.2 0-.1.2.2.3 0 .5h-.1c0 .1.2 0 .1.1h-.1v.6c0 .2 0 .4.1.6-.1.1-.1.2-.1.3.1 0 .4 0 .4.1.2-.1.3 0 .4-.2h1.5c.4 0 .9-.1 1.3-.1.4-.3.9.1 1.4 0 .2-.1.4-.1.6-.1l.2-.1c1.2.3 2.4.1 3.5.2 1.3.1 2.5.3 3.8-.1v.1c.4-.1.7.1 1.1 0 .9-.3 1.8 0 2.7-.2h.7v-2.2l-.6-.1zm-6.9 2.1h0zm.5-.1h.6c-.2.2-.4.1-.6 0z"/><use xlink:href="#F" y="4"/><path d="M24.51 169.497l-.2-.2c-.2.1.3.2.2.2z"/><use xlink:href="#H" y="4"/><path d="M41.4 171.297h.6v-2.2h-.9v-.1h-.7c-.2 0-.4 0-.6-.1-.4-.2-.8-.4-1.3-.4-.2-.1-.5-.1-.7 0-.1 0-.2.1-.3 0h-.4c-.2 0-.3.1-.5.2-.1.1-.2.1-.4.3-.1 0-.1 0-.2.1h-.2c-.3-.2-.6-.1-.9 0h-1c-.9-.4-1.8-.2-2.7 0H27c-.2-.1-.5-.2-.7-.2v.1c-.1-.2-.3 0-.4.1h-.1s-.1 0-.1-.1-.1 0-.2.1H25s-.1-.1-.1-.2c.1 0-.1-.2 0-.2 0 0-.2 0-.2.2s-.1.3 0 .4v1.8h3.5c-.2 0-.4.1-.6.1v-.1l-.1.1v-.1c-.2-.2-.5.1-.6 0 0 0-.1.1 0 .2-.3 0-.6.1-1 .1l-1.3.1s0-.1.1-.1c-.1 0-.2.1-.4.1-.1-.3-.1-.7-.1-1.1 0-.2 0-.5.1-.7-.1 0-.1.1-.2 0-.1.2.2.3 0 .5H24c0 .1.2 0 .1.1H24v.6c0 .2 0 .5.1.6-.1.1-.1.2-.1.2.1 0 .4 0 .4.1.2-.1.3 0 .4-.2h1.5c.4 0 .9-.1 1.3-.1.4-.3.9.1 1.4 0 .2-.1.4-.1.6-.1l.2-.1c1.2.3 2.4.1 3.6.2 1.4.1 2.5.3 3.9-.1v.1c.4-.1.7.1 1.1 0 1.2-.2 2.1.1 3-.2zm-6.6-.1h.6c-.2.2-.4.1-.6 0z"/><use xlink:href="#F" y="-16"/><path d="M24.51 149.598l-.2-.2c-.2 0 .3.1.2.2z"/><use xlink:href="#H" y="-16"/><path d="M24.3 150.498c0 .3 0 1 .1 1.3 0 .2.5 0 .6.2.2-.1.3 0 .3-.2h1.5c.5 0 .9-.1 1.4-.1.3-.2.6-.1.9-.1h.1l.4-.4c.1-.1.3-.1.4-.1s.1-.1.2-.1l.4.4c.4 0 .6.1.9.1h2.4c.3 0 .6 0 .9.1l.3-.1.2-.1s.1 0 .2-.1c.2-.1.2-.1.3-.1h.1l.3.2.1.1h.2v.1l.1-.1c.1 0 .2 0 .1.1 0 .1.1.1.1.2.1.1.3.1.4.2.3.1.6.1.8-.1.1-.1.2-.4.3-.5v-.3h.8c.3 0 .7 0 1-.1h1.4l-.1-2.1h-.2v-.1c-1.1.1-1.9-.2-2.8-.1h-.7c-.1-.1-.4-.3-.6-.2-.2 0-.3 0-.5.1h-.1c-.2.3-.3.5-.5.6h-.1c-.3-.1-.5-.2-.9-.3l-.1-.1c-.1-.1-.2-.1-.3 0h-.5c-1-.4-1.9-.2-2.8 0h-4.5c-.3-.1-.5-.2-.8-.2v.1c-.1-.2-.3 0-.4.1h-.1s-.1 0-.1-.1c-.1-.1-.1 0-.2.1h-.5s-.1-.1-.1-.2c.1 0-.1-.2 0-.2 0 0-.3 0-.2.2 0 .2-.1.3 0 .4v1.8h3.8c-.2 0-.4.1-.7.1v-.1l-.1.1v-.1c-.2-.2-.5.1-.6 0-.1 0-.1.1 0 .2-.3 0-.7.1-1 .1l-1.2.1v-.1c-.2.1-.4.1-.6.1-.1-.3-.1-.7-.1-1.1 0-.2 0-.5.1-.7-.1 0-.1.1-.2 0-.1.2.2.3 0 .5h-.1c0 .1.2 0 .1.2.5.4.5.3.5.4zm11.7.3c-.1 0 0 0 0 0h0zm-.4.1c.1 0 .1-.1.2-.1h.1c-.2.2-.4.2-.6.3 0-.1.1-.2.3-.2zm-.8.3h0c.1.1 0 .1 0 0zM24.3 121.2l-.1.1h.1v-.1z"/><path d="M24.5 121.497l-.2-.2c-.2.1.3.2.2.2zm-.1.1c-.1.1.1.1.1.1s.1-.1-.1-.1z"/><path d="M24.31 123.597l.6.2c.1 0 .2 0 .3.1.1-.1.1 0 .2-.2h.3l.2-.1c.1 0 .2-.1.2-.1.2-.1.3-.1.5-.1.4 0 .7 0 1.1.3.1 0 .4-.1.5-.1h.4c.2 0 .5.1.8.1.2-.1.4-.1.6-.1l.2-.1c1.2.3 2.4.1 3.6.2 1.4.1 2.6.3 3.9-.1v.1c.4-.1.7.1 1.1 0 .9-.3 1.8 0 2.8-.2h.6v-2.2c-.3 0-.6 0-1 .1v-.1c-.4.1-.9 0-1.3 0-.2 0-.4-.1-.7-.1h-.4l-.1-.1c-.1-.2-.4-.3-.7-.3s-.5.1-.7.3-.4.3-.6.3h-.7c-.3-.2-.6-.1-.9 0h-1c-.9-.4-1.8-.2-2.7 0h-.8c-.8-.5-1.2-.5-2 0h-1.2s-.1 0-.1-.1c-.2-.2-.4-.4-.7-.4v.1c-.1-.1-.2-.1-.3 0s-.2.1-.3 0-.1.1-.1.2c-.1 0-.2.1-.4.1-.1 0-.2.2-.3-.1.1 0-.2-.1-.1-.2-.1 0-.2.1-.1.2 0 .1.1.2.1.3v1.9h.6c.6-.4 1.3-.5 2-.2-.2 0-.4 0-.4-.1-.1 0-.1.1-.1.1-.3 0-.6 0-.8.1-.1.1-.2.1-.4.2l-.1.1h-.5v-.1c-.1 0-.1.1-.2.1l-.2.1-.2-.5c-.2-.5-.1-1 0-1.5-.1 0-.1.1-.2 0-.1.2.2.3 0 .5h-.1c-.1.1.2 0 .1.1h-.1c0 .3 0 .5.1.8 0 0-.1 0-.1.1l-.2.4zm11.3-.4c0 .1 0 .1 0 0-.1 0 0 0 0 0zm-.2 0c-.2.2-.4.1-.6 0h.6zm-1 0c0 .1 0 .1 0 0h0zm-6.4 0h.2c0 .1-.1.1-.2 0-.1 0-.2 0-.3-.1h.1c-.1 0-.1.1-.2 0l-.1-.1c.2.1.3.2.5.2z"/><use xlink:href="#F" y="-56"/><path d="M24.51 109.598l-.2-.2c-.2 0 .3.1.2.2z"/><use xlink:href="#H" y="-56"/><path d="M42.01 109.198c-.4 0-.8 0-1.2.1v-.1h-.9l-.1-.1h-.1c-.5.2-1 .5-1.4.7-.3.1-.6.1-.9 0s-.6-.3-.8-.5h-.2c-.2 0-.3.1-.5.1h-.1c-.3 0-.5.2-.8.4-.3.1-.6 0-.8-.3 0 0 0-.1-.1-.1v-.2c-.6 0-1-.1-1.5-.2-.3 0-.7-.1-1.1-.1h-.3c-1.3 0-2.5 0-3.7.5h-.3c-.3-.1-.5-.2-.8-.2v.1c-.1-.2-.3 0-.4.1h-.1s-.1 0-.1-.1c-.1-.1-.1 0-.2.1h-.5s-.1-.1-.1-.2c.1 0-.1-.2 0-.2 0 0-.2 0-.2.2s-.1.3 0 .4v1.8h3.7c-.2 0-.4.1-.7.1v-.1l-.1.1v-.1c-.2-.2-.5.1-.6 0 0 0-.1.1 0 .2-.3 0-.7.1-1 .1l-1.2.1v-.1c-.2 0-.3.1-.5.1-.1-.3-.1-.7-.1-1.1 0-.2 0-.5.1-.7-.1 0-.1.1-.2 0-.1.2.2.3 0 .5h-.1c0 .1.2 0 .1.2-.1.1-.1 0-.1 0 0 .3 0 1 .1 1.2v.1c.1.1.5 0 .5.1.2-.1.3 0 .3-.2h1.5c.5 0 .9-.1 1.4-.1.2-.2.5-.1.7-.1h.5c.2-.1.3-.2.3-.2a.76.76 0 0 1 .4-.2l.1-.1c.2.1.2.2.4.3.1 0 .1.1.2.1h1.8c.3-.3.4-.3.5-.3s.2 0 .4.1c.1.1.3.2.4.3l.4-.1c.2 0 .2 0 .3-.1l.4-.1c.3-.1.6-.1.8-.1.6-.1 1.2-.1 1.8-.3v.1c.4-.1.7.1 1.1.1.5-.1.9 0 1.4.3.6 0 .9 0 1.5-.1h.4c.3-.8.3-1.4.3-2.2zm-7.9 2s.1 0 .2-.1c-.1.1-.2.1-.2.1zm.3 0c0-.1 0-.1 0 0 0-.1 0 0 0 0zm.4-.2c.2 0 .3-.1.5-.1h.1c-.1.2-.3.2-.6.1z"/><use xlink:href="#F" y="-60"/><use xlink:href="#G" y="-60"/><use xlink:href="#H" y="-60"/><path d="M41.3 105.197c-.9.1-1.7-.3-2.6-.2-.6-.1-1.3.1-1.9.2H36c-.3-.2-.6-.1-.9 0h-1c-.5-.2-1.1-.3-1.6-.2-.3 0-.7.1-1 .2h-.1c-1.3.5-2.5.5-3.9 0h-.2c-.2-.1-.5-.2-.7-.2v.1c-.1-.2-.3 0-.4.1h-.1s-.1 0-.1-.1-.1 0-.2.1h-.5s-.1-.1-.1-.2c.1 0-.1-.2 0-.2 0 0-.2 0-.2.2s-.1.3 0 .4v1.8h2.6s-.1 0-.1.1c-.1.1-.2.1-.3 0 0 0-.1.1 0 .2-.3 0-.6.1-1 .1l-1.3.1s0-.1.1-.1c-.1 0-.3.1-.4.1-.1-.3-.1-.7-.1-1.1 0-.2 0-.5.1-.7-.1 0-.1.1-.2 0-.1.2.2.3 0 .5h-.1c0 .1.2 0 .1.1h-.1v.6c0 .2 0 .5.1.6 0 .1-.1.1-.1.2.1 0 .4 0 .4.1.2-.1.3 0 .4-.2h2.3c.3-.1.4-.2.7-.2.3-.4.9-.1 1.3-.2.2-.1.4-.1.6 0l.2-.1.5.2.3.1.1.1c.1 0 .1 0 .2.1h2.4c.7 0 1.3.1 1.9.1h.9c.2 0 .3 0 .5-.1.1 0 .3 0 .4-.1l.2-.2v.1c.3-.2.6-.1.9-.2.2-.1.4-.1.6 0 .1 0 .2.1.3.1s.2.2.4.2c.6 0 .9 0 1.4-.1h.8l-.1-2.2-.6-.2zm-13.5 2s0-.1 0 0c-.1 0-.1 0 0 0h-.2c.3-.1.5-.2.8-.2-.2 0-.4.1-.6.2zm6.5.1c0-.1.1-.1 0 0h0zm.5-.1h.6c-.2.2-.4.1-.6 0zm.7.1c0-.1 0-.1 0 0h0zm-10.6-4.1H28c.1-.1.1-.2.2-.2h.3c-.1 0-.2.1-.3.1-.1.1-.1.2-.2.3v-.1c0 .1 0 .1-.1.1v-.1c-.2-.2-.5.1-.7 0 0 0-.1.1 0 .2-.3 0-.7.1-1 .1l-1.2.1v-.1c-.2.1-.4.1-.5.1-.1-.3-.1-.7-.1-1.1 0-.2 0-.5.1-.7-.1 0-.1.1-.2 0-.1.2.2.3 0 .5h-.1c0 .1.2 0 .1.2-.1.1-.1 0-.1 0 0 .3 0 1 .1 1.2 0 .1.5 0 .6.1.2-.1.3 0 .3-.2h2.2c.3 0 .7.1.9-.3v-.1l-.2.1c.4-.3.9-.1 1.4-.2.2-.1.4-.1.6-.1l.2-.1c.6.1 1.2.3 1.8.4l.4.1c.3.1.4 0 .6 0h.9c1.4.1 2.6.3 4.1-.1v.1h.5c.1-.1.1-.2.2-.2 0 0 .1 0 .1-.1.1 0 .2 0 .2-.1h.3s.1 0 .1.1l.2.2h1.1c.3 0 .8 0 1.1-.1h.1v-2.2h-1.5v-.1h-.6c-.1 0-.1.1-.1.1-.1.1-.1.2-.2.3l-.2.2c-.4.2-.7 0-1.1-.1a2.73 2.73 0 0 0-1.3-.7c-.1 0-.3-.1-.5 0-.2 0-.4.1-.6.3h-.2c-.3-.2-.6-.1-1 0h-1c-.2-.1-.4-.1-.6-.2-.2 0-.6-.1-.8.1l-.1.3-.1.2c-.1.1-.1.2-.2.2h-.6c-.7-.1-1.6-.3-2.3-.9-.1 0-.1 0-.2-.1a.96.96 0 0 0-.9.2c-.1 0-.1.1-.2.1h-.6c-.3-.1-.5-.2-.8-.2v.1c-.1-.2-.3 0-.4.1h-.1s-.1 0-.1-.1c-.1-.1-.1 0-.2.1H25s-.1-.1-.1-.2c.1 0-.1-.2 0-.2 0 0-.3 0-.2.2 0 .2-.1.3 0 .4v2h.2zm11.1 0c0 .1 0 .1 0 0h0zm-.2 0c-.2.2-.4.1-.6 0h.6zm-1.1 0h0c.1.1 0 .1 0 0z"/><use xlink:href="#F" y="-64"/><path d="M24.51 101.598l-.2-.2c-.2 0 .3.1.2.2z"/><use xlink:href="#H" y="-64"/></g><defs ><path id="B" d="M38.21 159.2v.1l.1.1-.1-.2z"/><path id="C" d="M38.508 160.398c-.1-.1 0-.3-.1-.3 0 .2.1.2.1.3z"/><path id="D" d="M38.51 100c0-.1 0 0 0 0l-.2-.5c-.2.2.3.3.2.5z"/><path id="E" d="M38.41 100.098c-.1.2.1.2.1.3-.1-.1.1-.3-.1-.3z"/><path id="F" d="M24.21 165.2v.1h.1l-.1-.1z"/><path id="G" d="M24.51 165.598c0-.1 0-.1 0 0l-.2-.2c-.2 0 .3.1.2.2z"/><path id="H" d="M24.41 165.598c-.1.1.1.1.1.1-.1 0 .1-.1-.1-.1z"/></defs></svg>