<svg xmlns="http://www.w3.org/2000/svg" xmlns:xlink="http://www.w3.org/1999/xlink" width="115" height="139" fill="none" xmlns:v="https://vecta.io/nano"><g fill="#202020"><path d="M4.6 49.698l-.1-.1.1.1z"/><path d="M4.5 49.6c.1-.2-.4-.3-.4-.4l-.1.1c.3 0 .4.2.5.3zm-.4-.6c0-.2-.2-.2-.3-.2.2 0 .2.3.3.2zm-.5-.302l-.1-.1c0 .1 0 .1.1.1zM4.9 54.5v-.1l-.1-.1.1.2z"/><path d="M4.7 53.8c-.1 0-.1 0 0 0l.2.4c.1-.2-.4-.3-.2-.4zm0-.2c.1-.2-.1-.2-.1-.3.1.1-.1.4.1.3zm-.8 4.598v.1l.1-.7-.1.6z"/><path d="M4.1 57.798c0-.1-.1-.3 0-.4 0 .1-.1 0-.1.1v.1h-.1.1v.5c.2 0 .2-.1.1-.3zm-.6-1c-.1 0-.1.1-.1.1 0-.1.1-.1.2 0 .1 0 .3.1.3 0-.3-.2-.3-.1-.4-.1zm-.9.3c-.1 0-.1.1-.2.1.1-.1.1-.1.2-.1zm2 5.402l.1-.1-.1-.1v.2z"/><path d="M4.4 61.8l.2.4c.2-.2-.3-.3-.2-.4zm.1-.2c.1-.2-.1-.2-.1-.3 0 .1-.1.4.1.3zm0 4.9v-.1l-.1-.1.1.2z"/><path d="M4.3 65.7c0 .1-.1.1 0 0l.2.5c.2-.2-.3-.3-.2-.5zm0-.1c.1-.2-.1-.2-.1-.3.1.1 0 .3.1.3zm.1 4.9v-.1l-.1-.1.1.2z"/><path d="M4.2 69.8s-.1 0 0 0l.2.4c.2-.2-.3-.3-.2-.4zm0-.2c.1-.2-.1-.2-.1-.3.1.1 0 .4.1.3zm.1 4.9v-.1l-.1-.1.1.2z"/><path d="M4.1 73.8c-.1 0-.1 0 0 0l.2.4c.1-.2-.4-.3-.2-.4zm0-.2c.1-.2-.1-.2-.1-.3.1.1-.1.4.1.3zm0 4.698h.1l-.2-.2.1.2zM4 82.5l.1-.1-.1-.1v.2z"/><path d="M3.8 81.7c0 .1 0 .1 0 0l.2.4c.2-.1-.3-.2-.2-.4zm0-.1c.1-.2-.1-.2-.1-.3.1.1 0 .4.1.3zm.1 4.9v-.1l-.1-.1.1.2z"/><path d="M3.7 85.7c0 .1-.1 0 0 0l.2.5c.2-.2-.3-.3-.2-.5zm0-.1c.1-.2-.1-.2-.1-.3.1.1 0 .3.1.3zM0 83.898l.1.1-.1-.1zM3.8 90.4l-.1-.1.1.1zm-.2-.7c0 .1-.1.1 0 0l.2.4c.2-.1-.3-.2-.2-.4zm0-.1c.1-.2-.1-.2-.1-.3.1.1 0 .4.1.3zm.1 4.8l-.1-.1.1.1zm-.2-.7c-.1.1-.1.1 0 0l.2.4c.1-.1-.4-.2-.2-.4z"/><path d="M3.5 93.6c.1-.2-.1-.2-.1-.3.1.1-.1.4.1.3zm0 4.8h.1l-.1-.1v.1z"/><path d="M3.3 97.8l.2.4c.2-.2-.3-.3-.2-.4zm.1-.2c.1-.2-.1-.2-.1-.3.1.1-.1.4.1.3zm0 4.8h.1l-.1-.1v.1z"/><path d="M3.2 101.7c0 .1 0 .1 0 0l.2.4c.2-.1-.3-.2-.2-.4zm0-.1c.1-.2-.1-.2-.1-.3.1.1 0 .4.1.3zm-.4 3.9l.1-.1-.2-.1.1.2zm-.5-.6c-.1 0-.2.1-.2 0v.1s.1 0 .2-.1c0 .1.1 0 .1 0 .1-.1 0 0-.1 0zm-.5-.2c.1 0 .2.2.3.1-.1-.2-.3-.1-.3-.1zm1.4 5.7l-.1-.1.1.1zm-.2-.7c0 .1-.1 0 0 0l.2.4c.2-.1-.3-.2-.2-.4zm0-.1c.1-.2-.1-.2-.1-.3.1.1 0 .4.1.3zm.1 4.8l-.1-.1.1.1zm-.2-.7c-.1.1-.1 0 0 0l.2.4c.1-.1-.4-.2-.2-.4z"/><path d="M2.9 113.6c.1-.2-.1-.2-.1-.3.1.1-.1.3.1.3zm0 4.8H3l-.1-.1v.1z"/><path d="M2.7 117.7c0 .1 0 0 0 0l.2.4c.2-.1-.3-.2-.2-.4zm.1-.1c.1-.2-.1-.2-.1-.3.1.1-.1.3.1.3zm0 4.8h.1l-.1-.1v.1z"/><path d="M2.6 121.7c0 .1 0 0 0 0l.2.4c.2-.1-.3-.2-.2-.4zm0-.1c.1-.2-.1-.2-.1-.3.1.1 0 .3.1.3zm-.4 3.8v-.1h-.1l.1.1zm.4 5l-.1-.1.1.1z"/><path d="M2.4 129.7c-.1 0-.1 0 0 0l.2.5c.2-.2-.3-.4-.2-.5zm0-.1c.1-.2-.1-.2-.1-.3.1.1 0 .3.1.3zm.1 4.8l-.1-.1.1.1zm-.3-.7l.2.4c.2-.1-.3-.3-.2-.4z"/><path d="M2.3 133.6c.1-.2-.1-.2-.1-.3.1.1-.1.3.1.3z"/></g><path d="M108.6 83.5V2.7L36.7 5.3l-.5 14.2-20.2-.2-1.4 65.9-7.4.1-.6 48.5h106V83.5h-4z" fill="#efefef"/><g fill="#202020"><path d="M99.2 86.198l.2-.1-.3.1h.1zm1.2-.298l-.2.2c-.3.1-.4.1-.5.2h.2a.76.76 0 0 0 .4-.2c.1-.1.2-.3.3-.3h-.1l-.1.1zm.4-.2c.3-.1.4-.3.5-.4-.1.3-.6.3-.5.4zm2.8-79.8c-.9 0-1.8 0-2.9-.1l-.1 4.8v4.7h-.1c.1 3.8-.4 7.4-.3 11.2 0 .5 0 1-.1 1.5v.7c0 .4.1.5.2.8.1.5.1.9 0 1.4 0 .2-.2.5-.2.8v3.1c0 1 0 2-.1 3v.6c-.2 1.2-.1 2.6-.1 3.9 0 1.4-.1 2.8-.1 4.2-.3 2.3-.4 4.5-.4 6.7v.5l.1.4c0 .3.1.6.1.8.1.6.1 1.1.1 1.7v1.2c-.1.7-.1 1.4-.3 2.1v1.9c.3 2.1.3 3.2-.1 5.6v.9c.4 1.8.3 4-.1 6.4V76c-.1 1-.2 2.1-.2 3.2l.1-.1c-.2.5 0 1.1 0 1.6v.3c0 .1 0 .2-.1.3v-.1c-.1.2 0 .5.1.7v2.5c0 .1-.1.2-.2.3 0-.3-.2.4-.2-.2 0 .2 0 1 .1 1 .2.1.3.3.4 0h.6c1.5-.5 1.5-.5 1.9-2.6v-.3l.4-18.9v2.8c0-.1 0-.1-.1-.1 0 .2.1.4.1.5l-.1-.1c-.2.7.1 2.1-.1 2.6 0 .2.1.3.2.2v8.3c0 .1-.1.2-.1.1.1 1.2.1 2.4.1 3.6V83c0 .3 0 .3-.1.5-.1.3-.1.6-.2.9s-.2.7-.5 1c0 .2.3-.2.1.1.5-.5.5-.9.5-1.3s0-.7.2-1l.1.1V83s0-.1-.1-.1c0 0-.1-.1 0-.3s.1.1.1 0c0-1.1.1-2.2-.1-3.2.2-.2 0-1.2.2-1.6-.1-.3 0-.6-.1-.7.2-3.8.1-7.6.2-11.5-.3-1.8.1-4 .1-6.1-.1-.7-.1-1.7 0-2.6l-.1-.7c.4-5 .3-10.2.5-15.3.1-1.4.1-2.9.2-4.2v-.6c0-.2 0-.3-.1-.5v-.9c0-.1.1-.3.1-.4l.1-.3v-2.4c0-.3-.1-.7-.1-1v-6.1l.1.1V21c-.1-.5-.2-.8-.2-1.1v-.6l.1-.3c0-.1.1-.2.1-.4v-1.5c0-1 0-2 .1-2.9 0-2 .1-3.9 0-5.8.3-1 .3-1.7.3-2.5zm-.8 33.5v-.9.9zm0-1.3v-.3.3zm0-3.6c0 .4-.1.7-.1 1.1v.4c-.1-.8-.1-1.7.1-2.2v-.2c.2.3.1.6 0 .9zm.1-1.4v-.2.2zm-9 53l.2-.1-.3.1h.1z"/><use xlink:href="#B"/><path d="M95.4 85.9c.3.1.4-.1.6-.1-.3.1-.6-.1-.6.1zm0-80.2v1.2c0 .4-.1.7-.1 1.1-.1.8-.1 1.5-.1 2.3l-.1 4.6H95v6.7c0 .1-.1.2-.1.3-.1.5-.2.9-.2 1.4v.7c0 .2-.1.5-.1.7v3.7c0 .8 0 1.6.2 2.4v1.4c0 .1-.1.3-.1.4-.1.5-.1 1-.1 1.5 0 .8 0 1.7.2 2.4v1.6c-.1.3 0 .7-.1.9-.1.3-.2.7-.2 1-.1.7 0 1.3 0 2v1.4c-.1 1-.1 2 0 3 0 .5-.1.9-.1 1.3-.1.6-.2 1.2-.2 1.8v.9c0 .2 0 .3.1.4.1.2.1.2 0 .4V55l-.1.4c0 .3-.1.6-.1.9 0 .4 0 .8.1 1.2 0 .4.1.7.2 1.2v2.7c-.3 1.3-.4 3.4-.1 4.3v.6c-.5 1.5-.6 3.1-.5 4.6v.5l.2 4.3c0 .5 0 1 .1 1.6v1.6l.1-.1c-.1.4-.1.8-.1 1.2v.7c0 .1 0 .2-.1.3v-.1c-.1.2 0 .5.1.7v2.5c0 .1-.1.2-.2.3 0-.3-.2.4-.2-.2 0 .2 0 1 .1 1 .2.1.3.3.4 0l2.5.1.1-5.1v-.5l.1-6v-.5l.2-9.1v2.8c0-.1 0-.1-.1-.1 0 .2.1.4.1.5l-.1-.1c-.2.7.1 2.1-.1 2.6 0 .2.1.3.2.2v8.3c0 .1-.1.2-.1.1.1 1.1.1 2.3.1 3.4l-.1 1.7-.1 2.1h-.6c-.1.1.5.1.1.2h.7v-2.3l.1.1c.1-.5-.2-.1-.1-.6.1-.2.1.1.1 0 0-1.1.1-2.2-.1-3.2.2-.2 0-1.2.2-1.6-.1-.3 0-.6-.1-.7.2-3.8.1-7.7.2-11.6-.3-1.8.1-4 .1-6.2-.1-.7-.1-1.7 0-2.6l-.1-.7c.4-5.1.3-10.2.5-15.4l.3-8.4c.1-2.7.1-5.4-.1-8.3l.1.1c0-1.6.1-3.1.1-4.7-.2-3.8.2-8 0-11.7 0-.8 0-1.7.1-2.7-.9.4-1.9.4-3 .4zm2.2 27.7v-.1.1zm-.1 6.5V39v.9zm0-1.3v-.3.3zm.1-2c0-.9 0-1.7.1-2.6.1.9-.1 1.7-.1 2.6zm-9 49.398l.2-.1-.3.1h.1z"/><use xlink:href="#B" x="-5.3" y="-0.1"/><path d="M90.1 85.8c.3.1.4-.1.6-.1-.3.1-.6-.1-.6.1zM93 7.3V5.6c-.9 0-1.9 0-2.9-.1l-.1 6.9v1.9h-.1c.1 3.8-.4 7.5-.3 11.3-.2 2.8 0 5.6 0 8.5 0 .9 0 1.8-.1 2.9v.6c-.2 1.2-.1 2.6-.1 4v2.3c0 .2.1.4.1.6 0 .1.1.2.1.4-.1.2-.1.5-.2.9-.2 1.1-.3 2.2-.4 3.3-.1 1.2-.1 2.3-.1 3.5 0 1.6.1 3.2.1 4.7 0 1 0 2-.1 2.9v6c0 .6-.1 2.7-.1 3.7v.6c0 1.9-.1 3.6-.1 5.2-.1 1.1-.2 2.1-.2 3.2l.1-.1c-.2.5 0 1.1 0 1.6v.3c0 .1 0 .2-.1.3v-.1c-.1.2 0 .5.1.7v2.5c0 .1-.1.2-.2.3 0-.3-.2.4-.2-.2 0 .2 0 1 .1 1 .2.1.3.3.4 0l2.5.1.2-10.1v-.3c.4-.7.4-2.8.1-4.3v-1.4h.1v.6c0 .2.1.3.2.2v.5c0 .1.1.3.1.5.1.3.1.7.1 1 .1.7.1 1.4 0 2.2 0 .2-.1.4-.1.6 0 .1-.1.2-.1.2v3.4c0 .1-.1.2-.1.1.1 1.1.1 2.3.1 3.4l-.1 1.7c0 .7-.1 1.4-.1 2.1H91c-.1.1.5.1.1.2h.7v-2.3l.1.1c.1-.5-.2-.1-.1-.6.1-.2.1.1.1 0 0-1.1.1-2.2-.1-3.2.2-.2 0-1.2.2-1.6-.1-.3 0-.6-.1-.7 0-.7 0-1.4.1-2.2V75c.1-.2.1-.4.2-.6.1-.4.1-.8.1-1.2 0-.8 0-1.5-.2-2.3l-.1-.3v-1.5c.1-.1.2-.3.2-.3a.9.9 0 0 0 .1-.5c0-.3-.1-.6-.2-.8v-1.3c-.3-1.8.1-4 .1-6.2-.1-.7-.1-1.7 0-2.6l-.1-.7c.2-2.1.2-4.3.3-6.5v-.7c.1-.3.1-.5.2-.8.1-.6.1-1.1 0-1.7s-.3-1.2-.5-1.6v-.2c0-.1 0-.2.1-.4 0-.1.1-.2.1-.3.1-.1.1-.1.2-.3.1-.3.1-.5.1-.7l.1-.6c.1-.4.1-.8.1-1.2.1-1.5.2-2.9.1-4.3 0-.4 0-.7-.1-1.1v-.9c0-.7 0-1.4.1-2 .1-2.7.1-5.4-.1-8.3l.1.1c0-1.6.1-3.1.1-4.7-.1-1.9 0-3.9 0-5.9v-1.5c0-.1 0-.2.1-.3 0-.1.1-.3.1-.4 0-.3.1-.5.1-.8.1-1 0-2-.3-2.9-.1-.4 0-.9 0-1.4zm-.7 29.6c0-.2 0-.5-.1-.7v-1.9c.1.7.1 1.4 0 2.1.1.2.1.4.1.5zm-.6 30.3c0-.1 0-.1-.1-.1 0 .1.1.2.1.3v.1h-.1v-.1.4c0-.1-.1-.2-.2-.3.2-.1.2-.2.3-.3-.1-.9 0-1.9 0-2.8v2.8zm-.2 1.6h0zm.9-35.1v.2c-.1-.1-.1-.2 0-.2-.1 0-.1 0 0 0zm-.9 35.4v-.2h.1c.2 0 .2-.3.2-.6v.5c0 .1 0 .1-.1.2h-.1c0-.1 0 0-.1.1zm.9-28.8v-1c.1.3.1.7 0 1zm0-1.4v-.3c0 .1.1.3 0 .3zm-9.1 47l.2-.1h-.3l.1.1z"/><use xlink:href="#B" x="-10.6" y="-0.3"/><path d="M84.8 85.698c.3.1.4-.1.6-.1-.3.1-.7-.1-.6.1zm2.8-78l.1-.3v-1.8h-2.9c.2.9.2 1.6.2 2.3 0 .4 0 .7-.1 1.1 0 .1 0 .2-.1.3 0 .1-.1.2-.1.3v5.1h-.1l-.2 5.7v.4l.1.3c.1.2.1.4.1.6 0 .5-.2.8-.3 1.4v2.8c-.1 1-.1 2-.1 3v1.2c0 .2.1.2.1.4.1.5.2 1 .2 1.5s0 1-.1 1.5c0 .1 0 .2-.1.4 0 .1 0 .1-.1.2v3.9c-.2 1.2-.1 2.6-.1 4v1.9c.2.7.2 1.4.1 2.2 0 .2-.1.4-.2.7l-.1.4c-.1.2 0 .3-.1.5-.1.6-.1 1.2-.1 1.7v.9c0 .4.1.6.1.9.1.6.1 1.1.1 1.7s-.1 1.1-.1 1.7c0 .2 0 .3-.1.4v2.6l-.4 18.3-.2 3.2.1-.1c-.2.5 0 1.1 0 1.6v.3c0 .1 0 .2-.1.3v-.1c-.1.2 0 .5.1.7v2.5c0 .1-.1.2-.2.3 0-.3-.2.4-.2-.2 0 .2 0 1 .1 1 .2.1.3.3.4 0l2.5.1.5-20.9v2.6c0-.1 0-.1-.1-.1 0 .2.1.4.1.5 0 0 0-.1-.1-.1-.2.7.1 2.1-.1 2.6 0 .2.1.3.2.2v8.4c0 .1-.1.2-.1.1.1 1.1.1 2.3.1 3.4l-.1 1.7-.1 2.1h-.6c-.1.1.5.1.1.2h.7v-2.3l.1.1c.1-.5-.2-.1-.1-.6.1-.2.1.1.1 0 0-1.1.1-2.2-.1-3.2.2-.2 0-1.2.2-1.6-.1-.3 0-.6-.1-.7.2-3.8.1-7.7.2-11.6-.1-.5-.1-.9-.1-1.4v-1.3c-.1-.2-.1-.2-.1-.4-.1-.5-.1-1 0-1.5 0-.2.1-.5.2-.7 0-.1.1-.2.1-.3v-1.2c-.1-.2-.1-.4-.1-.6-.1-.4-.1-.9 0-1.3 0-.2-.1-.5-.1-.7.1-.3.1-.6.2-.9 0-.1.1-.2.1-.3v-.8l.2-3.8v-1c0-.3-.1-.4-.1-.5s-.1-.3-.1-.4c-.1-1.2 0-2.5 0-3.8 0-.6 0-1.3.1-1.9 0-.3.1-.6.2-.9l.1-.4.1-.3v-.3c.1-1.5.1-2.9.2-4.3 0-.7.1-1.4.1-2.1v-2.1c-.3-2.6-.2-5.3-.1-8.2 0 0 .1 0 .1.1 0-.4.1-.8.1-1.2.1-.4 0-.8.1-1.2 0-.8.1-1.5 0-2.3-.1-1.9 0-3.9 0-5.9 0-1 0-2 .1-2.9 0-.1 0-.3-.1-.4l-.1-.3c0-.2-.1-.5-.1-.7v-1.4c-.1-.6-.1-.8 0-1zm-.6 25.5v.2-.2zm-.1 6.6v-.9.9zm0-1.3v-.3.3zm0-2c0-.9 0-1.7.1-2.6.1.9 0 1.7-.1 2.6zM78 85.8l.2-.1h-.3l.1.1z"/><use xlink:href="#B" x="-15.9" y="-0.402"/><path d="M79.5 85.6c.3.1.4-.1.5-.1-.2.1-.6-.1-.5.1zm2.7-77.3c0-.8-.1-1.6-.2-2.5l-.1-.4v-.1h-2.4v.1c-.4 2.9-.5 6.2-.2 9.2h-.1c0 .5.1.9.1 1.4v1.4c0 .5 0 1-.1 1.4-.1.5-.3.9-.3 1.4 0 .3.1.5.1.7l.1.3v.3l-.1 1.4-.1 2.8c-.2 2.7 0 5.5 0 8.3l-.1 3v.6c-.1.6-.1 1.3-.1 1.9s-.1 1.3-.2 1.9c-.1 1.4-.1 2.7 0 4 0 .3.1.6 0 .9l-.1.9-.2 1.7-.2 3.5.2 4.9.1 4.5v.4L78 75.4l-.2 3.2.1-.1c-.2.5 0 1.1 0 1.6v.3c0 .1 0 .2-.1.3v-.1c-.1.2 0 .5.1.7v2.5c0 .1-.1.2-.2.3 0-.3-.2.4-.2-.2 0 .2 0 1 .1 1 .2.1.3.3.4 0l2.5.1.5-21.1v2.8c0-.1 0-.1-.1-.1 0 .2.1.4.1.5l-.1-.1c-.2.7.1 2.1-.1 2.6 0 .2.1.3.2.2v8.3c0 .1-.1.2-.1.1.1 1.1.1 2.2.1 3.4l-.1 1.7-.1 2.1h-.6c-.1.1.5.1.1.2h.7v-2.3l.1.1c.1-.5-.2-.1-.1-.6.1-.2.1.1.1 0 0-1.1.1-2.2-.1-3.2.2-.2 0-1.2.2-1.6-.1-.3 0-.6-.1-.7.2-3.8.1-7.7.2-11.5-.3-1.8.2-4 .1-6.1v-.4c-.1 0-.2 0-.3-.1h.3v-2.1l-.1-.7c.4-5 .3-10.2.5-15.3.2-5.8.5-10.9.2-16.6l.1.1c0-1.6.1-3.1.1-4.7-.1-3.7.4-7.9 0-11.6zm-.5 24.9v.3-.3zm-.1 6.6v-.9.9zm0-1.4v-.3.3zm0-2v-2.7c.2 1 .1 1.8 0 2.7zm-8.9 49.298l.2-.1h-.3l.1.1z"/><use xlink:href="#B" x="-21.2" y="-0.5"/><path d="M74.2 85.4c.3.1.4-.1.6-.1-.3.1-.7 0-.6.1zM77 16.1v-.3c0-.1.1-.3.1-.4.1-.5.1-1 .1-1.5v-1.5c0-.2-.1-.5-.1-.7-.1-.2 0-.4 0-.7L77 8.2l.1-2.8c-.9 0-1.8 0-2.9-.1l-.1 9.1H74c0 .5.1 1 0 1.4-.1.5-.2.9-.1 1.4 0 1 0 1.8-.3 2.8 0 1.9.1 3.8.3 5.6v2.9c0 .5-.1 1-.1 1.5-.1.5-.1 1-.1 1.5V33c-.1 1.2-.1 2.1 0 3.4v1.1c-.2 1.1-.1 2.4-.1 3.8l-.1 4.8c-.4 3.8-.3 7.4-.2 11.2l-.4 18.3c-.1 1.1-.2 2.1-.2 3.2l.1-.1c-.2.5 0 1.1 0 1.6v.3c0 .1 0 .2-.1.3v-.1c-.1.2 0 .5.1.7V84c0 .1-.1.2-.2.3 0-.3-.2.4-.2-.2 0 .2 0 1 .1 1 .2.1.3.3.4 0l2.5.1.5-21.1v2.8c0-.1 0-.1-.1-.1 0 .2.1.4.1.5l-.1-.1c-.2.7.1 2.1-.1 2.6 0 .2.1.3.2.2v8.3c0 .1-.1.2-.1.1.1 1.1.1 2.3.1 3.4l-.1 1.7c0 .7-.1 1.4-.1 2.1h-.6c-.1.1.5.1.1.2h.7v-2.3l.1.1c.1-.5-.2-.1-.1-.6.1-.2.1.1.1 0 0-1.1.1-2.2-.1-3.2.2-.2 0-1.2.2-1.6-.1-.3 0-.6-.1-.7.2-3.8.1-7.7.2-11.6-.3-1.8.1-4 .1-6.2-.1-.7-.1-1.7 0-2.6l-.1-.7a96.53 96.53 0 0 0 .3-7.6c0-1.3.1-2.6.1-3.9V44l.1-1c.1-.6.2-1.3.2-1.9.1-.7.1-1.5.1-2.2 0-.6.1-1.4 0-2.1 0-.2 0-.4-.1-.6v-1.4c0-.7 0-1.4.1-2v-2c0-.6.1-1.3.1-2 .1-1.4.1-2.8 0-4.2l.1.1V20c0-1-.1-2-.3-3 .1-.4.1-.7.1-.9zM76.4 33v.2-.2zm0 2.7v.3-2.4c.1.7 0 1.4 0 2.1zm.1 2.2v.2-.2zm0 1.6v-1 1zm-9.1 45.998l.2-.1-.3.1h.1z"/><use xlink:href="#B" x="-26.5" y="-0.6"/><path d="M68.9 85.3c.3.1.4-.1.6-.1-.3.1-.7 0-.6.1z"/><path d="M68.9 5.098l-.1 6.8c0 .7.2 1.5.2 2.2h-.1v2.2l-.2 2.2-.2 6.9-.1 9-.1 2.1c0 .3 0 .6-.1.9-.2 1.2-.2 2.6-.1 4l-.1 4.1-.3 3.3-.1 1.7v.5c0 .2.1.3.1.4 0 .3.1.6.1.8v1.7c0 .1 0 .3-.1.4 0 .1-.1.3 0 .5v2.2l-.3 13.1.1 5.2c-.1.5-.2 1-.2 1.5 0 .3-.1.5-.1.8v.8l.1-.1c-.2.5 0 1.1 0 1.6v.3c0 .1 0 .2-.1.3v-.1c-.1.2 0 .5.1.7v2.5c0 .1-.1.2-.2.3 0-.3-.2.4-.2-.2 0 .2 0 1 .1 1 .2.1.3.3.4 0l2.5.1.5-21.2v2.8c0-.1 0-.1-.1-.1 0 .2.1.4.1.5l-.1-.1c-.2.7.1 2.1-.1 2.6 0 .2.1.3.2.2v8.3c0 .1-.1.2-.1.1.1 1.1.1 2.3.1 3.4l-.1 1.7-.1 2.1h-.6c-.1.1.5.1.1.2h.7v-2.3l.1.1c.1-.5-.2-.1-.1-.6.1-.2.1.1.1 0 0-1.1.1-2.2-.1-3.2.2-.2 0-1.2.2-1.6-.1-.3 0-.6-.1-.7.2-3.8.1-7.7.2-11.6-.3-1.8.1-4 .1-6.2-.1-.7-.1-1.7 0-2.6l-.1-.7c.1-1.3.2-2.5.2-3.8l.1-1.9v-.5c0-.1-.1-.3-.1-.4-.1-.3-.1-.6-.1-.9 0-.6 0-1.2.1-1.8 0-.1.1-.3.1-.4s0-.1.1-.2l.1-.1v-1.2c0-1.3.1-2.6.1-3.9.1-1.5.1-2.9.2-4.3 0-.7.1-1.4.1-2.1v-.3l-.1-.3c0-.2-.1-.3-.1-.5 0-.3-.1-.6-.1-1 0-.6 0-1.3.1-1.9 0-.1.1-.3.1-.4s.1-.2.1-.3v-1.3c0-1.4 0-2.8-.1-4.2l.1.1c0-1.6.1-3.1.1-4.7 0-1-.1-1.9-.1-2.9v-1.1c0-.2-.1-.3-.1-.4-.1-.4-.2-.9-.2-1.4s.1-1 .1-1.4c.1-.2.1-.4.2-.7v-.8c0-1 0-1.9-.1-2.8 0-.9 0-1.8.1-2.9-.7 0-1.7-.1-2.7-.1zm2 28v-.2.2zm0 6.3v-.9c.1.3.1.7 0 .9zm.1-1.3v-.3.3zm.1-2.5c0 .2 0 .4-.1.5v-1.9c-.1-.2-.1-.5-.1-.7 0 .1.1.2.1.3.1.2.1.4.1.6v1.2zm-9 49.802l.2-.1-.3.1h.1z"/><use xlink:href="#B" x="-31.8" y="-0.702"/><path d="M63.6 85.198c.3.1.4-.1.6-.1-.3.1-.7 0-.6.1z"/><path d="M63.6 4.998l-.1 4.5v4.5c.1.1.2.3.3.5h-.1c.3.6.5 1.2.5 1.9-.1.3-.1.7-.3.9-.1.1-.2.3-.3.4a1.38 1.38 0 0 1-.4.3c-.3.2-.4.6-.4.9s0 .7.1 1 .2.6.2 1c.1.3.1.6 0 .8v.1l-.1 3.4c-.2 2.7 0 5.6 0 8.4l-.1 3v.6c-.2 1.2-.1 2.6-.1 4l-.1 4.2c-.3 2.3-.4 4.5-.4 6.8v1.3c0 .1-.1.2-.1.4-.1.3-.2.6-.2.9l.3.8c0 .4 0 .9.1 1.3v3.3c-.5.7-.5 1.8-.1 2.9v1.4l-.2 10.6-.2 3.2.1-.1c-.2.5 0 1.1 0 1.6v.3c0 .1 0 .2-.1.3v-.1c-.1.2 0 .5.1.7v2.5c0 .1-.1.3-.2.3 0-.3-.2.4-.2-.2 0 .2 0 1 .1 1 .2.1.3.3.4 0l2.5.1.2-11.3v-1.1c-.1-.8-.1-1.9.1-3.3v-1.2l.1-4.4v2.8c0-.1 0-.1-.1-.1 0 .2.1.4.1.5l-.1-.1c-.2.7.1 2.1-.1 2.6 0 .2.1.3.1.2-.1.7-.1 1.4-.1 2 0 .4 0 .6.1 1.1v1l.1 4.2c0 .1-.1.2-.1.1.1 1.1.1 2.3.1 3.4l-.1 1.7-.1 2.1h-.6c-.1.1.5.1.1.2h.7v-2.3l.1.1c.1-.5-.2-.1-.1-.6.1-.2.1.1.1 0 0-1.1.1-2.2-.1-3.3.2-.2 0-1.2.2-1.6-.1-.3 0-.6-.1-.7l.1-2.9v-4.2c0-.2.1-.5 0-.8v-3.6c-.3-1.8.1-4 .1-6.2-.1-.7-.1-1.7 0-2.6 0-.2-.1-.5-.1-.7 0-1.3.1-2.5.2-3.8s.1-2.6.1-3.9l.2-7.7c.2-5.9.6-11 .2-16.7l.1.1c.1-1.6.2-3.2.1-4.7-.1-1.9-.1-3.9 0-5.9 0-2 .1-4 0-5.8 0-.7 0-1.5.1-2.4-.6.1-1.6.1-2.6.1zm2.2 27.5v.2-.2zm-.2 6.6v-.9c.1.3.1.6 0 .9zm.1-1.4v-.3.3zm0-2c0-.9 0-1.8.1-2.6.1.9 0 1.7-.1 2.6zM56.8 85.3l.2-.1-.3.1h.1z"/><use xlink:href="#B" x="-37.1" y="-0.8"/><path d="M58.2 85.1c.3.1.4-.1.6-.1-.2.1-.6 0-.6.1zm.1-80.202l-.1 4.6v4.5h-.1c0 3.8-.3 7.5-.4 11.3-.1 1.4-.2 2.8-.1 4.3.1 1.2.1 2.4.2 3.6v.4c0 .9 0 1.9-.1 2.9v.8c-.2 1.2-.1 2.6-.1 3.9 0 1.2 0 2.3-.1 3.5v1c-.3 2.2-.4 4.4-.4 6.5-.1 1.2.1 2.3.2 3.5v1.3c-.1 2.4-.1 4.7-.1 6.9v.4c-.2 1-.2 3.1-.1 4v.3c-.1 2.4-.1 4.7-.1 6.7-.1 1.1-.2 2.1-.2 3.2l.1-.1c-.2.5 0 1.1 0 1.6v.3c0 .1 0 .2-.1.3v-.1c-.1.2 0 .5.1.7v2.5c0 .1-.1.2-.2.3 0-.3-.2.4-.2-.2 0 .2 0 1 .1 1 .2.1.3.3.4 0l2.5.1.3-16.1c.1-1.5.1-3.1.2-4.6v-.3 2.7c0-.1 0-.1-.1-.1 0 .2.1.4.1.5 0 0 0-.1-.1-.1-.2.7 0 2.1-.1 2.6 0 .2.1.3.2.2v8.3c0 .1-.1.2-.1.1.1 1.1.1 2.2.1 3.4l-.1 1.7c0 .7-.1 1.4-.1 2.1h-.6c-.1.1.5.1.1.2h.7v-2.3l.1.1c.1-.5-.2-.1-.1-.6.1-.2.1.1.1 0 0-1.1.1-2.2-.1-3.2.2-.2 0-1.2.2-1.6-.1-.3 0-.6-.1-.7.2-3.8.1-7.7.2-11.5-.3-1.8.2-4 .2-6.2 0-.7-.1-1.7 0-2.6l-.1-.7c.4-5 .2-10.2.4-15.3l.3-8.4v-6.1c0-.7.1-1.4 0-2.1l.1.1c0-.8 0-1.6-.1-2.4v-2.3c-.2-3.8.2-8 0-11.7 0-.9 0-1.8.1-2.8-.9-.3-1.9-.3-2.9-.3zm2.2 30.3v-1.6c.1.5.1 1.1 0 1.6zm-9 50l.2-.1-.3.1h.1z"/><use xlink:href="#B" x="-42.4" y="-0.902"/><path d="M52.9 84.998c.3.1.4-.1.6-.1-.2.1-.6-.1-.6.1z"/><path d="M56.5 27.4c0-.3-.1-.6-.2-.7-.2-.3-.4-.6-.6-.8s-.3-.5-.4-.7v-.5c0-.2-.1-.3-.1-.4l.1.1c0-.4 0-.7.1-1 0-.1.1-.2.1-.2 0-.1.2-.2.2-.3v-.7c0-.8.1-1.5 0-2.3-.2-3.9.2-8 0-11.7 0-1 .1-2.1.1-3.3-.9 0-1.9 0-2.9-.1l-.1 8.7h-.1c0 1.9-.1 3.8-.1 5.7s-.1 3.7-.1 5.6c0 .5-.1 1-.1 1.5v6.9c0 1 0 2-.1 3v.6c-.2 1.2-.1 2.6-.1 4 0 .9 0 1.7-.1 2.6v.5c0 .4 0 .7.1 1-.1 1.1-.1 2.3-.3 3.4 0 .3-.1.6-.1.9-.1.3 0 .6 0 .9v1.7c0 1.6.1 3.2.1 4.8L51.5 75c-.1 1.1-.2 2.1-.2 3.2l.1-.1c-.2.5 0 1.1 0 1.6v.3c0 .1 0 .2-.1.3v-.1c-.1.2 0 .5.1.7v2.5c0 .1-.1.3-.2.3 0-.3-.2.4-.2-.2 0 .2 0 1 .1 1 .2.1.3.3.4 0l2.5.1.5-21.3v2.8c0-.1 0-.1-.1-.1 0 .2.1.4.1.5l-.1-.1c-.2.7.1 2.2-.1 2.6 0 .2.1.3.2.2v8.4c0 .1-.1.2-.1.1.1 1.1.1 2.3.1 3.4l-.1 1.7c0 .7-.1 1.4-.1 2.1h-.6c-.1.1.5.1.1.2h.7v-2.3l.1.1c.1-.5-.2-.1-.1-.6.1-.2.1.1.1 0 0-1.1.1-2.2-.1-3.3.2-.2 0-1.2.2-1.6-.1-.3 0-.6-.1-.7.2-3.8.1-7.7.2-11.6-.3-1.8.1-4 .1-6.2-.1-.7-.1-1.7 0-2.6l-.1-.7a96.53 96.53 0 0 0 .3-7.6c0-.1 0-.1.1-.3.1-.1.2-.3.3-.5.2-.3.2-.8.2-1.1-.1-.7-.5-1.3-.6-1.8v-.4l.1-.2v-1.3l.1-1.9.4-10.6v-.3l.1-.1c0-.1.1-.2.1-.2.1-.2.1-.3.2-.5 0-.2.1-.4.1-.5v-.2c0-.2.2-.3.3-.7zm-1.3 5.1v.2-.2zm-.1 5.3v-.3.3zm-.1.4v.9-.9zm.1-2.4c0-.9 0-1.7.1-2.6.1.9 0 1.7-.1 2.6zm-9 49.3l.3-.1h-.3v.1z"/><use xlink:href="#B" x="-47.7" y="-1.1"/><path d="M47.6 84.9c.3.1.4-.1.6-.1-.2.1-.6-.1-.6.1z"/><path d="M47.7 4.7l-.1 4.1v1.5c0 .1 0 .2.1.3v.2c0 .3-.1.6-.2 1-.1.3-.2.7.1 1v1.1h-.1c0 .2 0 .5.1.7s.2.4.2.7c.1.5 0 .9 0 1.4-.1.5-.3.9-.3 1.4l-.1 1.4-.2 5.7c-.2 2.7 0 5.6 0 8.4l-.1 3v.6c-.1.6-.1 1.3-.1 1.9v.5c0 .2 0 .4.1.5.1.2.2.5.3.8.1.6 0 1.3-.4 2.1v2.2l-.3 3.3v.5l.1.4c.1.3.1.5.1.8v.8c-.1.3-.1.4-.3.8l.1 4.8-.2 9.8v.7c.5 1 .4 3.1-.1 4.3v.6l-.1 2.9-.2 3.2.1-.1c-.2.5 0 1.1 0 1.6v.3c0 .1 0 .2-.1.3v-.1c-.1.2 0 .5.1.7v2.5c0 .1-.1.2-.2.3 0-.3-.2.4-.2-.2 0 .2 0 1 .1 1 .2.1.3.3.4 0l2.5.1.2-11.3c-.1-1.9-.1-3 .1-4.5v-.3l.1-5v2.8c0-.1 0-.1-.1-.1 0 .2.1.4.1.5l-.1-.1c-.2.7.1 2.1-.1 2.6 0 .2.1.3.1.2-.1 1.3-.1 2.7 0 4.1l.1 4.2c0 .1-.1.2-.1.1.1 1.1.1 2.3.1 3.4l-.1 1.7-.1 2.1h-.6c-.1.1.5.1.1.2h.7v-2.3l.1.1c.1-.5-.2-.1-.1-.6.1-.2.1.1.1 0 0-1.1.1-2.2-.1-3.2.2-.2 0-1.2.2-1.6-.1-.3 0-.6-.1-.7l.1-2.9V71c0-.5 0-.9.1-1.4l.1-.7v-3.7c-.3-1.8.1-4 .1-6.2-.1-.7-.1-1.7 0-2.6l-.1-.7a97.18 97.18 0 0 0 .3-7.7v-1l-.1-1v-1.9c0-.6.1-1.3.1-1.9v-2c.2-5.8.5-10.9.2-16.7l.1.1v-1.2c0-.4.1-.8 0-1.2-.1-.7-.1-1.4.1-2.2 0-.6 0-1-.1-1.5s-.1-1-.1-1.4v-.7c0-.1 0-.2.1-.3 0-.1.1-.3.1-.4v-1.5c0-2 .1-3.9 0-5.8 0-.8 0-1.6.1-2.6-.7-.1-1.7-.1-2.7-.1zm2.2 27.6v.2-.2zm-.2 6.6V38c.1.3.1.6 0 .9zm0-1.4v-.3c.1.1.1.2 0 .3zm.1-2c0-.9 0-1.7.1-2.6.1.9 0 1.7-.1 2.6zm-9 49.498l.2-.1h-.2v.1zm.5-.1c.2.1.3 0 .5-.1.1-.1.3-.2.3-.1v-.1c-.3.2-.6.2-.8.3zm.9-.098c.3.2.4.1.5.1-.2 0-.6-.3-.5-.1zm3.1-80.2c-.9 0-1.9 0-2.9-.1v3.4c-.1.4-.1.7-.1 1.1 0 .7-.1 1.5 0 2.2 0 .2.1.4.1.5v1.6h-.1c.1 3.8-.4 7.5-.3 11.3-.2 2.7 0 5.6 0 8.4 0 1 0 2-.1 3v.6c-.2 1.2-.1 2.6-.1 4s-.1 2.8-.1 4.2c-.5 3.9-.4 7.7-.2 11.6 0 2.2-.1 4.4-.1 6.4v1.3c-.2.6-.3 2.7-.1 3.5v1.2c0 2.1-.1 4.1-.1 5.9-.1 1.1-.2 2.1-.2 3.2l.1-.1c-.2.5 0 1.1 0 1.6v.3c0 .1 0 .2-.1.3v-.1c-.1.2 0 .5.1.7v2.5c0 .1-.1.2-.2.3 0-.3-.2.4-.2-.2 0 .2 0 1 .1 1 .2.1.3.3.4 0h1.2c1.4.6 1.4.6 1.3-.1v-.3c0-1.4.1-6.6.3-13.9v-1.3c.1-.9.2-1.9.1-2.5v-2.8 2.8s0-.1-.1-.1c0 .2.2.3.1.5 0 .1-.1 0-.1-.1-.1.4 0 .9 0 1.4s0 1-.1 1.2c0 .2.1.3.1.2v8.4c0 .1-.1.2-.1.1.1 1.2.1 2.4.1 3.6l-.1 1.8v1.3c0 .1-.1.3-.3.4-.3.2-.4 0-.5 0s-.2-.1-.3-.1.2.2 0 .2c.1 0 .2.1.4.1h.4c.3-.1.5-.5.5-.6 0-.3 0-.3-.1-.4v-.1c0-.3-.1-.7 0-1l.1.1c.1-.5-.2-.1-.1-.6.1-.2.1.1.1 0 0-1.1.1-2.2-.1-3.2.2-.2 0-1.2.2-1.6-.1-.3 0-.6-.1-.7.1-1.9.1-3.8.1-5.8 0-1 0-1.9.1-2.9 0-.5.1-1 0-1.5v-1.4c-.3-1.8.1-4 .1-6.2-.1-.7-.1-1.7 0-2.6l-.1-.7a97.18 97.18 0 0 0 .3-7.7c0-1.3.1-2.6.1-3.9l.1-1.9v-1c0-.2.1-.6.1-.9.1-.8.1-1.5 0-2.2 0-.6.1-1.4.1-2.1 0-1.4.1-2.8.1-4.1.1-2.7.1-5.4-.1-8.3l.1.1c0-1.6.1-3.1.1-4.7-.1-1.9 0-3.9 0-5.9v-.7c0-.2.1-.5.1-.7v-1.5c0-1-.1-1.9-.2-2.8.1-.8.1-1.8.2-2.9zm-.7 28v.2c-.1-.1-.1-.1 0-.2zm-.1 5.3v-.3c-.1.1-.1.2 0 .3zm0 1.3c0-.3 0-.6-.1-.9v-.1c.1.4.1.7.1 1zm0-3.3c0-.9 0-1.7.1-2.6.1.9 0 1.7-.1 2.6zm-9 49l.2-.1h-.2v.1z"/><use xlink:href="#B" x="-58.4" y="-1.3"/><path d="M37 84.6c.3.1.4-.1.6-.1-.2.1-.6 0-.6.1zm2.9-68.502c-.1-.9 0-2 0-2.9v-5.8l.1-2.9c-.9 0-1.9 0-2.9-.1l-.1 4.5v4.5h-.1c0 3.8-.4 7.5-.3 11.3 0 1-.1 2 0 3 0 1 .1 2 0 3v5c0 .3 0 .6-.1.9-.1.6-.1 1.3-.1 2s.1 1.3.1 2-.1 1.3-.1 1.7v2.5l-.3 3.3v3.5c0 1.6 0 3.2.1 4.8 0 .9 0 1.7-.1 2.6v1.6c.1 1 0 2-.1 2.9v1.5l-.2 9.7c-.1 1.1-.2 2.1-.2 3.2l.1-.1c-.2.5 0 1.1 0 1.6v.3c0 .1 0 .2-.1.3v-.1c-.1.2 0 .5.1.7v2.5c0 .1-.1.2-.2.3 0-.3-.2.4-.2-.2 0 .2 0 1 .1 1 .2.1.3.3.4 0l2.5.1.4-17.4v-1.2c.2-.9.4-1.7.4-2.4v.2c0 .4 0 .8-.1 1.3 0 .4-.2.8-.2 1.3 0-.1 0-.1-.1-.1 0 .2.1.4.1.5l-.1-.1c-.2.7.1 2.1-.1 2.6 0 .2.1.3.2.2v8.3c0 .1-.1.2-.1.1.1 1.1.1 2.3.1 3.4l-.1 1.7c0 .7-.1 1.4-.1 2.1H38c-.1.1.5.1.1.2h.7v-2.3l.1.1c.1-.5-.2-.1-.1-.6.1-.2.1.1.1 0 0-1.1.1-2.2-.1-3.2.2-.2 0-1.2.2-1.6-.1-.3 0-.6-.1-.7.1-1.9.1-3.8.1-5.7v-5.1l.2-.7c0-.9.2-2 .1-3v-.3s.1-.2.1-.3c.1-.3.1-.5.1-.8.1-.6.1-1.1 0-1.7-.1-.4-.1-.8-.3-1.3-.1-.1-.1-.1-.1-.2v-1l-.1-.7c.4-5 .3-10.2.5-15.3l.3-8.4c0-1.4.1-2.7 0-4.1v-3.6l.1-.5s.1 0 0 .1c.2-1.6.4-3.2.3-4.7-.1-1.4-.2-2.3-.3-3.3zm-.6 16.1v.2c-.1 0-.1-.1 0-.2zm-.2 6.6v-.9.9zm0-1.3v-.3.3zm.1-2c0-.9 0-1.7.1-2.6.1.9 0 1.7-.1 2.6zm63.6 88l.1-.1-.1.1zm.4-.2c-.1 0-.2.1-.2.1 0 .1.2.1.2-.1.2-.1.2-.2.2-.1v-.1c0 .1-.1.2-.2.2zm.3-.1c.1 0 .1-.1.2-.1 0 .1-.2 0-.2.1z"/><path d="M106.2 114h0c-.1-.3-.2-.7-.2-1.1l-.2-.2.1-.4c.1 0 .1 0 .1-.1.1-.1.2-.2.2-.3.1-.2-.1-.4-.2-.5l.2-4.6c.1-2.4.4-4.5 0-6.8h.1c0-.7.1-1.3 0-1.9-.2-1.6.1-3.3-.1-4.8v-1.5H101v2.6h-.1c.1 1.6-.3 3-.2 4.6-.1.6 0 1.2 0 1.9.2.2.3.3.3.5 0 .1-.2.3-.3.5v1.8c-.2.5-.1 1.1 0 1.6v1.7a12.65 12.65 0 0 0-.3 2.8v.4c0 .1 0 .3.1.4l.3.6c0 .2.1.4.1.5 0 .4-.1.8-.3 1.2v.6c.4.8.4 1.2 0 2.2v.3c.4.7.4 1.5-.1 2.5v.3c-.1.4-.2.9-.2 1.3h.1c-.2.2 0 .5.1.7v.1s0 .1-.1.1c-.1.1 0 .2.1.3v1c0 .1-.1.1-.2.1 0-.1-.2.2-.2-.1 0 .1 0 .4.1.4.2 0 .3.1.4 0h.6c.5-.1.8-.1 1.1-.2 0 .1 0 .1.1.1.2.1.3.2.5 0h.1c-.1.1-.3.2-.5.3-.2 0-.3.1-.4.1l-.8.1c0 .1.1.1 0 .2.3.1.5-.3.9-.2v.1c.3 0 0-.2.3-.2.1 0 0 .1 0 .1.2-.1.5-.2.7-.4.5-.1.6-.1 1.2.1h.8l.1-5.3c.2-.6.3-1.2.3-1.9 0 .4 0 .8-.1 1.3v-.1c0 .1.1.2 0 .2v-.1c-.1.1-.2.3-.2.5s.1.4 0 .5c0 .1.1.1.2.1 0 1.1 0 2.3.2 3.4 0 .1-.1.1-.1 0 .1.3.1.4.1.9v.8h-1.3c-.1 0-.2-.1-.3-.1-.2-.1-.4-.2-.6-.1 0 .1.1.1 0 .2.1.1.3-.2.7.1l-.1.1c.4.1.1-.2.4 0 .2.1 0 .1 0 .1h1.1s.1 0 .1-.1c0-.4 0-.9-.1-1.2.2-.1 0-.5.2-.7-.1-.1 0-.2-.2-.3.1-.8.1-1.6 0-2.4v-1.4l.1-.3c0-.2.1-.4.1-.6.2-.5.6-1.4.4-2.4zm-.4-8.1v.3-.3zm0-.2v-.1.1zm0-.8v-1.1c.2.4.1.8 0 1.1zm-5.3 18.598l.1-.1h-.1v.1z"/><path d="M100.7 123.398c.1.2.3-.3.3-.2v-.1l-.3.3zm.4-.2c.1.1.2-.1.2-.1-.1.1-.2 0-.2.1zm-8.9.102l.1-.1-.1.1z"/><path d="M95.8 100.8c0-.5-.1-1.1-.2-1.6h.1c0-.7.1-1.3 0-1.9-.2-1.6.1-3.3-.1-4.8v-.8h-5.2v1.7h-.1v1c0 1.2-.3 2.4-.2 3.7-.1 1.1.1 2.3.1 3.5v1.5c-.2.5-.1 1.1 0 1.6v2c0 .2.1.2.1.3s.1.1 0 .2l-.1.1c-.2.4-.2.8-.2 1.2v1.2c0 .5.1 1 .1 1.5v7.5c-.1.4-.2.9-.2 1.3h.1c-.2.2 0 .5.1.7v.1s0 .1-.1.1c-.1.1 0 .2.1.3v1c0 .1-.1.1-.2.1 0-.1-.2.2-.2-.1 0 .1 0 .4.1.4.2 0 .3.1.4 0H92s0 0 .1 0c.2 0 .3.1.4 0h.6v.4c-.1 0-.2 0-.2.1h-.1v-.1l-.1.1h-.9l-.9-.1c0 .1.1.1 0 .2.3.1.6-.2.9 0v.1c.1 0 .1 0 .1-.1 0 0 0-.1.2 0s0 .1 0 .1h.4l-.1.1c.1.1.1 0 .2-.1h.6c.3.1.6-.2.9 0v.1c.2.1 0-.2.3-.1.2.1 0 .1 0 .1h1.1c0-.5 0-1-.1-1.3.2-.1 0-.5.2-.6-.1-.1 0-.2-.2-.3.1-.9.1-1.9 0-2.9v-1.9c-.3-.8.1-1.6 0-2.5-.1-.3-.1-.7-.1-1.1l-.1-.3c.3-2.1.2-4.2.3-6.3l.2-4.1c.1-.5.1-.9.1-1.3zm-.6 4.4v.3-.3zm0-.2v-.1.1zm0-2.2h0c0 .1 0 0 0 0zm-2.3 20.3c.1 0 .1-.1 0 0 .1-.1.1 0 0 0zm.2.1s0-.1 0 0c0-.1 0-.1 0 0zm2.2-1.8c0 .1-.1.1-.1 0 .1.2.1.4.1.7v1.1H94l-.9-.1v-.4h1.7v-2.2c.1-.9.1-1.7 0-2.3v-.2l.1-2.5c0 .4 0 .8.1 1.2 0 0 0 0-.1-.1 0 .1.1.1.1.2h-.1c-.2.3.1.9 0 1.1 0 .1.1.1.2.1v.2c0 1 .1 2.1.2 3.2zm-.1-17.3V103c.2.4.1.8 0 1.1z"/><path d="M89.9 123.198l.1-.1-.2.1h.1z"/><path d="M90 123.198c.1.2.3-.3.4-.2v-.1l-.4.3zm.5-.2c.1.1.2-.1.2-.1 0 .1-.2 0-.2.1zm-8.9.102l.1-.1h-.2l.1.1z"/><path d="M85.1 101.798c0-.1-.1-.2-.1-.3-.1-.2-.1-.4-.1-.7v-1.5l.1.1c0-.3.1-.6.2-.9v-1c-.1-.6-.1-1.3-.1-1.9v-2c-.2-.2-.2-.3-.3-.4 0-.1-.1-.3 0-.4 0-.1.2-.3.2-.5v-.6c.1-.3-.2-.2-.4-.2h-2.4s-.1-.1-.1 0h-.5c-.6 0-1.2-.1-1.8 0-.1.5-.2.9-.2 1.3v1.2h-.1c0 .3.1.7.1 1 0 .2.1.3.1.5.1.1 0 .3 0 .5v.5c0 .2 0 .3-.1.4s-.2.2-.2.5c0 .2.1.2.1.3l.1.1v.6c-.1 1.1.1 2.3.1 3.4v1.4c-.2.5-.1 1 0 1.6v.2c-.2.5-.3 1-.3 1.5 0 .2-.1.5 0 .7 0 .1 0 .2.1.3 0 .1-.1.2-.1.3-.1.5-.2.9-.2 1.4 0 .7 0 1.4.1 2 0 .8.1 1.5.2 2.3v.1l-.1 4.9c-.1.4-.2.9-.2 1.3h.1c-.2.2 0 .5.1.7v.1s0 .1-.1.1c-.1.1 0 .2.1.3v1c0 .1-.1.1-.2.1 0-.1-.2.2-.2-.1 0 .1 0 .4.1.4.2 0 .3.1.4 0h1.9c.2 0 .3.1.4 0h.6v.4c-.1 0-.2 0-.2.1h-.1v-.1l-.1.1h-.9l-.9-.1c0 .1.1.1 0 .2.3.1.6-.2.9 0v.1c.2.1 0-.2.3-.1.2.1 0 .1 0 .1h.5l-.1.1c.1.1.1 0 .2-.1h.6v-.1s.1.1 0 .1c.3.1.6-.2.9 0v.1c.1 0 .1 0 .1-.1 0 0 0-.1.2 0s0 .1 0 .1h1.1c0-.5 0-1-.1-1.3.2-.1 0-.5.2-.6-.1-.1 0-.2-.2-.3.1-1.6 0-3.2 0-4.8-.2-.6 0-1.3 0-2v-.1l-.1-.1c-.1-.1-.1-.1-.1-.2 0 0-.1-.1 0-.2v-.1c0-.1.1-.2.2-.2v-.6c-.1-.1-.2-.1-.2-.2-.1-.3 0-.8.1-1 0-.1.1-.1.1-.2s0-.1.1-.2c0-.7.1-1.2.1-1.9v-.3c0-.1-.1-.2-.1-.3-.1-.2-.2-.7-.1-1.1 0-.4 0-.8.1-1.2 0-.1.1-.2.1-.3 0 0 0-.1.1-.1 0 0 .1-.1.1-.2 0-.6.1-1.1.1-1.7 0-.5.1-1 .1-1.5v-.3l-.3-.4zm-.5 1c0 .1 0 .1 0 0h0zm-2.3 20h0zm2.2-6.2c-.1 0-.1-.1 0 0-.3.2 0 .8-.1 1 0 .1.1.1.2.1 0 1.1 0 2.3.2 3.5 0 .1-.1.1-.1 0 .1.2.1.4.1.7v1.1h-1.3l-.9-.1v-.4h1.7l.2-7.2c0 .4 0 .7.1 1.1l-.1-.1c-.1.1 0 .2 0 .3zm.1-11.1v-.3.3zm0-.5v-.1.1zm0-.8v-1.1c.2.4.1.7 0 1.1z"/><path d="M79.3 122.998v-.1l-.1.1h.1z"/><path d="M79.4 123c.1.2.3-.3.3-.2v-.1l-.3.3zm.5-.2c.1.1.2-.1.2-.1-.1.1-.3-.1-.2.1zm-8.9.1v-.1h-.1l.1.1z"/><path d="M74.4 95.698v-.4c.3-.5.2-1.1 0-1.6-.1-.1-.1-.1-.1-.3v-.4c0-.2 0-.5-.1-.7v-1.2H69v2h-.1v.9c.1.1.1.2.1.3v.6c0 .2 0 .4-.1.6 0 .2 0 .4-.1.6v1.5l.1 3.5v.4c0 .3 0 .6-.1.9-.2.5-.2 1-.1 1.6v1.7c-.3 1-.3 2-.3 2.9v.1h.1c.1.1.2.3.2.6 0 .2 0 .5-.1.7v.3l-.1 5.6c.1.6.2 1.3.1 1.9-.1.2-.1.4-.2.6l-.1.3c-.1.1 0 .3 0 .4h.1c-.2.2 0 .5.1.7v.1s0 .1-.1.1c-.1.1 0 .2.1.3v1c0 .1-.1.1-.2.1 0-.1-.2.2-.2-.1 0 .1 0 .4.1.4.2 0 .3.1.4 0h1.9c.2 0 .3.1.4 0h.6v.4c-.1 0-.2 0-.2.1h-.1v-.1l-.1.1h-.9l-.9-.1c0 .1.1.1 0 .2.3.1.6-.2.9 0v.1c.2.1 0-.2.3-.1.2.1 0 .1 0 .1h.5l-.1.1c.1.1.1 0 .2-.1h.5c.3.1.6-.2.9 0v.1c.2.1 0-.2.3-.1.2.1 0 .1 0 .1h1.1c0-.5 0-.9-.1-1.3.2-.1 0-.5.2-.6-.1-.1 0-.2-.2-.3.1-1.6 0-3.1 0-4.7-.3-.8.1-1.6 0-2.5-.1-.3-.1-.7-.1-1.1l-.1-.3c.2-1 .2-2.1.2-3.1v-2.7l.1-.4c.1-.4.2-.9.2-1.4v-.6c0-.1 0-.3-.1-.4 0-.1 0-.1-.1-.2v-3.2c0-.4 0-.7-.1-1.1h.1c0-.6.1-1.2 0-1.7v-.1c.8-.1.7-.6.5-1.1zm-.4 6.8c0 .1 0 .1 0 0h0zm.2 1.3c0-.2-.1-.4-.2-.6v-.4c.1.1.1.3.1.4.1.2.1.4.1.6zm-.2 17.1c0 .1-.1.1-.1 0 .1.2.1.4.1.7v1h-1.3l-.9-.1v-.4h1.7l.2-7.1c0 .4 0 .8.1 1.1l-.1-.1c0 .1.1.1.1.2h-.1c-.2.3.1.9 0 1.1 0 .1.1.1.2.1l.1 3.5zm.2-15.8v-.3.3zm0-.5v-.2.2zM68.6 122.8l.1-.1h-.1v.1z"/><path d="M68.8 122.698c.1.2.3-.3.3-.2v-.1l-.3.3zm.5-.1c.1.1.2-.1.2-.1-.1 0-.3-.1-.2.1zm-9 .002l.1-.1-.1.1z"/><path d="M63.8 98.198v-1c0-.4 0-.6-.1-1s-.1-.8-.1-1.2v-3.1c0-.2 0-.5-.1-.7v-.3h-5.2v2.2h-.1c.1 1.6-.3 3-.2 4.6 0 .3-.2.8-.1 1.2 0 .4 0 .8.1 1.2 0 .1 0 .3.1.4v.5c0 .3 0 .6.1.9v.6c-.2.5-.1 1 0 1.6v1.7c-.1.3-.1.6-.2.8-.1.3-.1.6-.2.9-.1.6 0 1.2 0 1.8 0 .4.1.7.2 1v.3l-.1 3v.1c-.1.4-.2 1.2 0 1.6v.1l-.1 2.4c-.1.4-.2.9-.2 1.3h.1c-.2.2 0 .5.1.7v.1s0 .1-.1.1c-.1.1 0 .2.1.3v1c0 .1-.1.1-.2.1 0-.1-.2.2-.2-.1 0 .1 0 .4.1.4.2 0 .3.1.4 0h1.9c.2 0 .3.1.4 0h.6v.4c-.1 0-.2 0-.2.1h-.1v-.1l-.1.1h-.9l-.9-.1c0 .1.1.1 0 .2.3.1.6-.2.9 0v.1c.2.1 0-.2.3-.1.2.1 0 .1 0 .1h.5l-.1.1c.1.1.1 0 .2-.1h.5v-.6h1.7l.1-4.4v-.4c-.1-.2-.1-.5 0-.8 0 .3.1.6 0 .7 0 .1.1.1.2 0v.1l.1 3.5c0 .1-.1.1-.1 0 .1.2.1.4.1.7v1.1h-1.3l-.9-.1c0 .1.1.1 0 .2.3.1.6-.2.9 0v.1c.2.1 0-.2.3-.1.2.1 0 .1 0 .1h1.1c0-.5 0-1.1-.1-1.4.2-.1 0-.5.2-.7-.1-.1 0-.2-.2-.3 0-.5.1-1 .1-1.5v-1.7c0-.1-.1-.2-.1-.2v-.6l.1-.5v-.5c-.3-.8.1-1.7 0-2.6-.1-.3-.1-.7-.1-1.1l-.1-.3.1-.5v-.6c0-.3 0-.7.1-1v-.2l.1-4.1c.6-2 1-4.2.6-6.5zm-2.3-3.2c.1.1.2.2.2.4-.1.1-.1.2-.2.3v-.7zm1.7 21c-.1.1-.1.1-.1.2 0-.1 0-.2.1-.2 0-.2-.1-.4 0-.5v-.8c0 .4 0 .8.1 1.2l-.1-.1c0 .1.1.2 0 .2 0 0 0 .1 0 0zm.2-11.5v-.3.3zm0-.5v-.1.1zm0-.9v-1.1c.2.4.1.8 0 1.1zM58 122.6l.1-.1H58v.1z"/><path d="M58.2 122.5c.1.2.3-.3.3-.2v-.1l-.3.3zm.4-.2c.1.1.2-.1.2-.1 0 .1-.2 0-.2.1zm-8.9.1l.1-.1-.1.1z"/><path d="M53.8 99.198c-.2-.2-.4-.2-.6-.3h.1c-.1-.1-.3-.1-.4-.2l-.1-.1h-.2l.1-.2v-.1l.1-.1c.1-.1.2-.1.3-.2v-.1l-.1-.8v-1.8l-.1-2.4.1-2.1h-2.3v-.1c-.9 0-1.9 0-2.9-.1v2.3c.2.1.1.2 0 .4-.1.1-.1.2-.2.3s0 .3.1.3v.6c.2.2.3.4.3.7 0 .1-.1.2-.2.3 0 .1-.3.2-.2.4 0 .6-.1 1.1-.1 1.7-.1 1.1.1 2.3.1 3.5v1.5c-.1.5-.1 1 0 1.5v.2c.5.3.5.7 0 1.2v.2c-.1.3-.2.7-.2 1 0 .2 0 .4-.1.5v.7c.2.3.3.4.4.6 0 .1 0 .2-.3.4 0 .5.1.8.1 1.2v.2l-.1 4.3v.3c.5.4.5 1.2 0 1.7v1.1c-.1.4-.2.9-.2 1.3h.1c-.2.2 0 .5.1.7v.1s0 .1-.1.1c-.1.1 0 .2.1.3v1c0 .1-.1.1-.2.1 0-.1-.2.2-.2-.1 0 .1 0 .4.1.4.2 0 .3.1.4 0h1.9c.2 0 .3.1.4 0h.6v.4c-.1 0-.2 0-.2.1h-.1v-.1l-.1.1h-.9l-.9-.1c0 .1.1.1 0 .2.3.1.6-.2.9 0v.1c.1 0 .1 0 .1-.1 0 0 0-.1.2 0s0 .1 0 .1h.4l-.1.1c.1.1.1 0 .2-.1h.6v-.6h1.7l.2-7.3c0 .4 0 .8.1 1.2l-.1-.1c0 .1.1.1.1.2h-.1c-.2.3.1.9 0 1.1 0 .1.1.1.2.1 0 1.1 0 2.3.2 3.5 0 .1-.1.1-.1 0 .1.2.1.4.1.7v1.1h-1.3l-.9-.1c0 .1.1.1 0 .2.3.1.6-.2.9 0v.1c.1 0 .1 0 .1-.1 0 0 0-.1.2 0s0 .1 0 .1h1.1c0-.5 0-1.1-.1-1.4.2-.1 0-.5.2-.6-.1-.1 0-.2-.2-.3.1-1.6 0-3.2 0-4.8-.3-.8.1-1.7 0-2.6-.1-.3-.1-.7-.1-1.1l-.1-.3.2-3v-.6c0-.1.1-.1.1-.1.1-.1.3-.2.4-.4s0-.6-.1-.7l-.5-.5.1-.2v-.5l.2-2.5c0-.4 0-.8.1-1.2v-1.2l.3-.3c0-.1.1-.2.1-.3 0 0 .1-.1.2-.1.1-.1.1-.2.1-.3 0-.2-.1-.2-.1-.2h.1zm-3.3 23c0-.1 0-.1 0 0 0-.1 0-.1 0 0zm2.2-17.7v.3-.3zm0-.2v-.1s.1.1 0 .1zm.1-.8v-1.1c.1.4 0 .7 0 1.1zm0-1.3s0-.1 0 0c0-.1 0-.1 0 0zM47.4 122.3l.1-.1-.1.1zm.2 0c.1.2.3-.3.4-.2v-.1l-.4.3z"/><path d="M48 122.1c.1.1.2-.1.2-.1 0 .1-.2-.1-.2.1zm-8.9.098l.1-.1h-.1v.1z"/><path d="M42.6 98.498c0-.7.1-1.3 0-1.9-.1-.9-.1-1.8-.1-2.7v-.1.1c.2-.4.1-.7.1-1.1 0-.2 0-.3-.1-.5 0-.1-.1-.1-.1-.2v-1.5h-5.2v2.1h-.1l-.1 2.3-.1 1.1v1.2c0 .3-.1.7-.1 1v1.3c.1.4.1.7.1 1.1v1.4c-.1.3-.1.7-.1 1v.2l.1.5v.1c.1.3.1 1.2 0 1.5v.1c-.1.4-.2.9-.2 1.3v1.1c0 .2.1.2.1.4v1.4a.9.9 0 0 0 .1.5v2.2c.1.4.1.8 0 1.1v.6l-.1 3.6c-.1.4-.2.9-.2 1.3h.1c-.2.2 0 .5.1.7v.1s0 .1-.1.1c-.1.1 0 .2.1.3v1c0 .1-.1.1-.2.1 0-.1-.2.2-.2-.1 0 .1 0 .4.1.4.2 0 .3.1.4 0h1.9c.2 0 .3.1.4 0h.6v.4c-.1 0-.2 0-.2.1h-.1v-.1l-.1.1h-.9l-.9-.1c0 .1.1.1 0 .2.3.1.6-.2.9 0v.1c.2.1 0-.2.3-.1.2.1 0 .1 0 .1h.5l-.1.1c.1.1.1 0 .2-.1h.8c.1 0 .3 0 .4.1v.1c.2.1.1-.2.3-.1.1.1 0 .1 0 .1h.9c.1 0 .2-.1.2-.2a.76.76 0 0 0 .2-.4v-.3s0-.2-.1-.4c.2-.1 0-.5.2-.6-.1-.1 0-.2-.2-.3.1-.8.1-1.6 0-2.3v-1.2c0-.4 0-.8.1-1.1 0-.3 0-.6-.1-.9 0-.5.2-1.1.1-1.7-.1-.3-.1-.7-.1-1.1l-.1-.3c.3-2.1.2-4.2.3-6.3v-.3c.3-2.5.6-4.4.3-6.6 0 0-.1 0 0 0zm-.4 3.5c0 .1 0 .1 0 0h0zm-2.2 20h0zm2.2-1.5c0 .1-.1.1-.1 0 0 .2.1.3.1.5s0 .4.1.4v.2c0 .1 0 .2-.1.3s-.2.1-.2.2h-.5c-.2 0-.3-.1-.5-.1l-.5-.1h-.4v-.4h.4c1.5.2 1.5.2 1.3 0v-.1l.1-5.4v-.5c.1-.2.1-.5.1-.8 0 .1.1.3 0 .4 0 .2-.1.4-.1.6l-.1-.1c0 .1.1.1.1.2h-.1c-.2.3.1.9-.1 1.1 0 .1.1.1.2.1.2 1.1.2 2.3.3 3.5zm-.1-15.7c0-.1 0-.1 0 0 0-.1.1-.2.1-.4 0 .1 0 .3-.1.4zm.1-.6v-.2.2zm0-1.1v.3c-.1-.1-.1-.2 0-.3v-.8c.1.3 0 .6 0 .8z"/><path d="M36.8 122.1l.1-.1-.1.1zm.2 0c.1.2.3-.3.3-.2v-.1l-.3.3zm.4-.2c.1.1.2-.1.2-.1 0 .1-.2-.1-.2.1z"/><path opacity=".5" d="M15.7 115.6c.1 0 .1.1.1.2v.2s.1 0 .1-.1v-.4l.1-1.7c0 .1.1.1.1.2 0 0 0 0-.1 0h0c-.2 0 .1.2 0 .2h.2c0 .2.1.4.2.6h-.1c.3.2.2.4.1.6h.2c.1-.1-.2-.1 0-.2h.1s-.2 0-.1-.1h.1c0-.1 0-.2-.1-.3.2 0 0-.1.2-.1-.1 0 0 0-.2-.1.1-.3-.1-.6 0-.9-.2-.1-.1-.1-.1-.2s.1-.3.1-.4c-.1-.1-.1-.1-.1-.3h-.1c0-.1.1-.2.1-.3-.3-.1-1 0-1.3-.1-.4-.1-.8-.3-1.3.1v-.1c-.1.1-.2-.1-.4 0a.9.9 0 0 1-.5.1c-.2 0-.4 0-.5.1h-.2c0 .3 0 .7.1 1h-.1c.1.3-.2.6-.1.9-.1.1 0 .3.1.5 0 .1.1.1.1.2v.2c0 .2.2.1.3 0h.3c.3.4.6.2.9 0h1.4l.2.2v-.1c0 .2.1 0 .1-.1v.1c0 .1 0 0 .1-.1v.2zm-.9-2.6c0-.1 0-.1 0 0h0zm-.2 0h-.2c0-.2.1-.1.2 0zm-.3 0c0-.1 0-.1 0 0h0z"/><path d="M16.3 115.5c-.1 0-.1 0 0 0l.2.1c.2 0-.4-.1-.2-.1zm-2.6-16.602c-.1 0-.1 0 0 0l.2.1c.2 0-.4-.1-.2-.1z"/><path opacity=".2" d="M11.3 99.1c.2 0 .3-.1.5-.2h1c.1.1.1.2.2.2V99c0 .2.1 0 .1-.1v.1c0 .1 0 0 0-.1h.1v.4s.1 0 .1-.1v-1.5l.1.1h-.1c-.2 0 .1.1 0 .1h.2a.76.76 0 0 0 .2.4h-.1c.3.1.2.3.1.4h.2c.1 0-.2-.1 0-.1h.1c0-.1 0-.1-.1-.2.2 0 0-.1.2-.1h-.2c.1-.2-.1-.4 0-.6-.3-.1.1-.2 0-.3-.1 0-.1-.1-.1-.1h-.1c.1-.1.2-.2.2-.5 0-.2 0-.4.1-.6 0-.1 0-.2.1-.3-.3-.1-.8-.2-1.2.1v-.1c-.1.1-.2-.1-.2 0-.1.1-.3.1-.4.1s-.3 0-.3.1h-.2c0 .2 0 .5.1.7h-.1c.1.2-.2.4-.1.6-.1.1.1.3.2.4v.2c-.2.1-.1.2 0 .2v.2c-.6.4-.7.6-.6.7zm1.9-2.7h-.1c.1-.2.1-.1.1 0zm-.2 0c0-.1 0-.1 0 0h0z"/><path d="M20.2 124.3v.1h.1l-.1-.1z"/><path d="M20 124.2l.2.1c.2 0-.3 0-.2-.1z"/><path opacity=".5" d="M20 124.198h.2c.1-.1-.2-.1 0-.2h.1s-.2 0-.1-.1h.1c0-.1 0-.2-.1-.3.2 0 0-.1.2-.1-.1 0 0 0-.2-.1.1-.3-.1-.6 0-.9-.2-.1-.1-.1-.1-.2s.1-.3.1-.4c-.1-.1-.1-.1-.1-.3H20c0-.1.1-.2.1-.3-.3-.1-1 0-1.3-.1-.4-.1-.8-.3-1.3.1v-.1c-.1.1-.2-.1-.4 0s-.3.1-.5.1-.4 0-.5.1h-.2c0 .3 0 .7.1 1h-.1c.1.3-.2.6-.1.9-.1.1 0 .3.1.5 0 .1.1.1.1.2v.2c0 .2.2.1.3 0h.3c.3.4.6.2.9 0h1.4l.2.2v-.1c0 .2.1 0 .1-.1v.1c0 .1 0 0 .1-.1h.1v.4s.1 0 .1-.1v-.4l.1-1.7c0 .1.1.1.1.2h-.1c-.2.1.1.2 0 .2h.2c0 .2.1.4.2.6h-.1c.3.4.1.6.1.8zm-1.5-2.5c-.1 0 0 0 0 0h0zm-.2 0h-.2c.1-.2.1-.1.2 0z"/><path d="M13.2 124.198l.1-.1h-.1v.1z"/><path d="M13 124l.2.1c.2 0-.3 0-.2-.1z"/><path d="M13 124h.2c.1-.1-.2-.1 0-.2h.1s-.2 0-.1-.1h.1c0-.1 0-.2-.1-.3.2 0 0-.1.2-.1-.1 0 0 0-.2-.1.1-.3-.1-.6 0-.9-.2-.1-.1-.1-.1-.2s.1-.3.1-.4c-.1-.1-.1-.1-.1-.3H13c0-.1.1-.2.1-.3-.3-.1-1 0-1.3-.1-.4-.1-.8-.3-1.3.1v-.1c-.1.1-.2-.1-.4 0s-.3.1-.5.1-.4 0-.5.1h-.2c0 .3 0 .7.1 1h-.1c.1.3-.2.6-.1.9-.1.1 0 .3.1.5 0 .1.1.1.1.2v.2c0 .2.2.1.3 0h.3c.3.4.6.2.9 0h1.4l.2.2v-.1c0 .2.1 0 .1-.1v.1c0 .1 0 0 .1-.1h.1v.4s.1 0 .1-.1v-.4l.1-1.7c0 .1.1.1.1.2h-.1c-.2.1.1.2 0 .2h.2c0 .2.1.4.2.6h-.1c.3.4.1.6.1.8zm-1.5-2.5c-.1 0-.1 0 0 0h0zm-.2 0h-.2c.1-.2.1-.1.2 0zm-.2 0c-.1 0 0 0 0 0h0zm7.9-17.1h.1l-.1-.1v.1z"/><path d="M18.8 104.3s-.1 0 0 0l.2.1c.2-.1-.3-.1-.2-.1z"/><path d="M18.8 104.298c.1 0-.1 0-.1 0 .1-.1 0 0 .1 0z"/><path opacity=".2" d="M16.1 103.5v.2c-.2.1-.1.2 0 .2v.2l-.1.1c0 .2.2.2.4.1.1 0 .2-.1.3-.2h1.1c.1.1.1.2.2.2v-.1c0 .2.1 0 .1-.1v.1c0 .1 0 0 0-.1h.1v.4s.1 0 .1-.1v-1.7c0 .1.1.1.1.2h-.1c-.2 0 .1.1 0 .2h.2c0 .2.1.3.2.5h-.1c.3.1.2.3.1.4h.2c.1 0-.2-.1 0-.1h.1c0-.1 0-.1-.1-.2.2 0 0-.1.2-.1h-.2c.1-.2-.1-.5 0-.7-.3-.1.1-.2 0-.4-.1 0-.1-.1-.1-.2h-.1c.2-.3.2-.7.2-1.1h-.2c-.2 0-.5-.1-.8-.2-.2 0-.3 0-.5.2v-.1c-.1.1-.2-.1-.3 0-.2.3-.7-.1-.8.2h-.2c0 .2 0 .6.1.8h-.1c.1.2-.2.4-.1.7-.2.4 0 .6.1.7zm2.1-1.8c-.1 0 0 0 0 0h0zm-.2 0h-.1c0-.1 0-.1.1 0z"/><path d="M96.5 81.4l.3-.1c-.2 0-.2 0-.3.1zm-21.6.098c.2 0 .4 0 .4-.1-.1.1-.3.1-.4.1zM10.5 105.3v.3c.1-.1.1-.2 0-.3zm9.3 32.298c-.2 0-.4 0-.6.1.4 0 .5 0 .6-.1zm38.1-50.8c.3 0 .6-.1 1-.2-.3-.1-.7.1-1 .2z"/><path d="M114.2 83.7c0-.7-.2-1-.2-1.7h-.3c.2 0 .3-.1.4-.1.1.1.1.1.1-.1-.3 0-1.7.1-1.7-.1l.9-.1c-1.2 0-1.1 0-1.2.3-1.4.1-.7-.5-2.2-.2h.9c.2.1-.3.3-.8.4 0-.2-.1-.3-.2-.4.1-1-.1-2.9.2-2.9-.2-.2 0-.9-.1-1.5l.1-.1-.3.1c.6-1.8-.3-3 .2-4.8l.1.3-.1-.8c.1-.1.2.2.3.2v-3.5l-.2.7c0-.7-.3-1.2-.1-2.1.4 1.4 0-1.2.3-1.4l.1.8c0-1 0-1-.3-.9-.1-1.3.5-.9.2-2.1v.9c-.1.3-.4-.4-.3-1 0-.1.2-.6.2-.1-.1-1 0-2.6-.1-3.1.1-.6.3-.4.3-.1-.2-2.2 0-1-.2-3.3h.1l-.2-.8.3-1.1-.2.4c0-.7-.1-1.2 0-2.1l.2.3c-.1-2.1.4-2.4.1-4.4 0-.1.1.2.1.3-.3-1.8.4-1.4 0-3.2.1.1.2-.1.2 0l-.1-.8.3.1-.4-.7.3-.5-.1-.3c.6-.9.1-2.2.6-3.4l-.4.2c-.8-3.1.4-7.1.1-10.8l.3.1-.3-1.5c.2-.8.2.5.4.2-.2-1.6-.4-.7-.5-2.6.2-1 .2.3.3.8-.1-1.8-.3-4.4-.1-5.7 0 0-.1-.1-.1 0-.1-1.2 0-2.8 0-4.1.1 0 .2.4.2.7 0-.5.1-1.1 0-1.5l.2.5c.1-1-.2-3 .1-3.2-.1.1-.3.1-.3-.8.4-.5-.2-2.4.1-3.8.1.2.1 1.2.1.9.1-.7-.1-1.3-.2-2l.2.2-.1-.8v-1l-.1-2.6c.3-.7.2-2.8.1-3.9-.6 0-1 0-.8-.1-1.9.1 1.4.1-1 .3-.5-.2-2.2.2-2-.1h.3l-1.7.1 1.2-.3c-1.6.1-2.7.4-2.7.7h-1.5c-.5 0-.8 0-1-.1l.3-.1c-2.4.2-3.9-.6-5.8-.1-.1 0-.1-.1.2-.1h-1.5l.3-.2-2.4.4V.4c-1.6 0-4.1.2-6.1.3l.3-.1c-2.2.3-2.2-.1-3.8.2.1 0 .1-.1.2-.1l-1.5.1.3-.2c-1.1.3-3.1-.3-2.5-.1-.6.2-1.7.4-1.8.5-1.6.1-.4-.2-1.4-.3-1.2 0-1.4.3-2.9.2V.8c-.7.1-1.2.2-2.2.2l.3-.1c-1.7.4-2.1-.4-3.4.3-.7-.1-2 0-2-.2-2.1.3-3.7.4-5.8.6-.3-.5-.4 0-1.7-.2l.1.3c-2.9.1-6.3-.4-9.6-.2l-.1-.3-.6.3h-8.5c-1.6.1-3.1.1-4.5.1-.8.1-1.7.2-2.8.3v.9c-1.7-.3-7.4-1.3-8.8.6h-.2v.4c-.1.5.1.8-.1.7v-.7c-.1.5-.2.2-.3 0 0 .2 0 .4-.1.6.1.1.1-.1.1-.2.1.3.3.7.2 1 0 .5-.4 0-.4.7-.2 3.3-.4 6.4-.4 9.8-.1.1-.1 0-.1-.1v.2c-.9 0-1.9-.1-2.8-.1-2.7-.1-5.2-.1-7.1-.1-.3 0-.6.1-1 .1 0 .3 0 .6.1.9-2.4-.3-5.9-.5-7 .7h-.2v.4c-.1.4.1.7-.1.6v-.6c-.1.4-.2.1-.3 0 0 .2 0 .4-.1.5.1.1.1-.1.1-.1.1.2.3.6.2.9 0 .5-.4 0-.4.6-.2 2.8-.4 5.6-.4 8.4-.1.1-.1 0-.1-.1.1.9.1 1.6.2 2.4-.1.2-.2.3-.3.3.2-.1.2 4.3.2 4.4l.4.1c0 .9-.5.2-.4 1 .6.3-.1 1.3.2 1.6 0 0-.1.4-.2.4.3.1.1.4.1.6.1.1.1-.1.2-.1l.1.6c-.1.2-.3.3-.3 0-.1 1.5-.4 8.4-.3 10 .2-.2.1-.7.4-.9.2.4-.1.6.1.8-.5.2-.1.9-.7 1.2l.3.1-.2.2c.3 1.8.2.4.1 2 0 .9.5 1.4.3 1.9 0-.1.2-.3.3 0-.3 0 .2.6-.1.8 0 .2 0 1 .4.7-.2.1-.3.8-.4.4 0 .2-.1.5 0 .6l.1-.3c.1.8-.2 1.2.1 1.7l.1-.3c0 .5.1.9-.3 1l-.1-.5c0 .8 0 1.2.2 1.9v-.2c.4.8.7 5.1 1.1 5.9l.3-.3.2.7c0-.1-.9-.3-.8-.4l.1 9.9c-.2.5-.5.1-.5.1.1.6.3.3.3.8-.1.1-.2 0-.3-.1 0 .2-.1.5.1.5.1-.3.5-.2.7-.3v.7h-.2c0 .2.6.4.5 1.1-.1 1 0 2.1-.1 3.1h-.3v-.1.1c-.7.1-1.4.1-2.2.1v.2c.1 3.5.2 7.9 0 9.3-.1-.1-.2.1-.2-.2.3.5 0 1.2 0 1.7l.2-.5c.2.6 0 1.4-.2 1.7l.3.9c0 .1-.1.2-.1.2l.1.2-.3.5c.1.2.1 1.5.5 1.9-.1.1-.2 1-.3.3l-.1 3.4.1-.5c.3-.1.4 1 .3 1.5-.2-.7-.4-.1-.6.2.1.5.2-.4.4-.2.2.6.2 1.8.1 2.1l-.1-.4c.1.8-.4 1.2-.4 1.9.2.7 0 1.2.4 1.1.1 1-.3.4-.3.7.2.5.1 1.9-.2 2.1.6.6-.3 2.7.3 3l-.3.8c.1 0 .5.2.5.9-.2.6-.4.5-.6.7l.5.4c-.6 3.7-.3 8.5-.8 12.6 0 .4 0 .9.1 1.4 0 .8 0 1.6.1 2.4 0 1.7.1 3.3.1 5h1.6l-.5.1 3.8.1-2.7-.2c.9-.1 1.6-.2 2.4-.2 1 .1 2.1.1 3.3.2.7.1 1.3.1 2 .1 1.4.1 2.9.1 4.3-.1 1.8-.6 1.2.5 3 .1-.1.1-.2.1-.3.2 1.9-.2 2.9-.3 4.8-.7-.2.6 1.2 0 1.1.3l.2-.2c.4.2 1.4.2 1.3.4l.8-.3.1.3c1.1 0 3.5-.2 4.1.3 2.7-.4 7.1-.3 10.5-.2.5-.2 1.5-.2 2.3-.2l.8.3c.8-.1 1.6-.5 2.4-.3 0 0 0 .1-.1.1.8-.1 1.6.1 2.3-.2.9 0 1.7.2 1.5.5.1-.5 1.9.1 1.9.1s45.5 1.2 56.6-1.5c.4-.2 1.4-.4 1-.7.8-.1 1.2.3 1.3.1-1.1-.2.3-.6-.7-1l.7-.1c.1-.2-.9.2-.8-.1l-.2.5c-.6-.1-.9-.2-1-.3-.5.2-.8.8-2.1.5h.3c-1 0-.6-.3-.8-.4h.2l-.8-.2c.6.2 1.7-.2 1.1-.2-1.2-.1.3.1-.6.2-.6 0-.4-.2-.4-.4h-1c0-.2.7 0 .3-.2l-1.3.2c-.2-.5-1.4.3-2-.3.9-.1-.1-.2.1-.4h-2.2c-.2-.1.6-.2.2-.1-.4-.2-.7.1-.9.1-.2-.2-1.7 0-1.6-.4-1.5-.2-.6.5-2 .3-.2-.2 1.1-.1.5-.3l-1.5.1c.1-.1.3-.4.8-.3-4-.3-6.1-1.5-9.7-1.2-.5-.3.4-.2.7-.3-2.6.3-3.7-.6-5.9-.5v.2c-3.1-.7-6.8-.3-10.4-.6l.4.2c-.5.2-1.3.2-1.8.3-.1-.1.4-.5-.6-.4.2.1.6.2.5.3-3-.6-9.4-.4-14.3-.7-6.7.2-14-.3-20.6-.1 1 0 .6.5-.2.4-2.1-.9-3.6.2-5.7-.5-3.8.3-7.3-.5-10.8.2l-.1-.3c-.5-.1-.7.1-1.2.1v-.1c-1.3-.1-2.9.2-3.7 0v.3c-.8 0-.4-.2-1.2-.1v-.1l-.9.3c0-.1-.1-.2-.3-.2h-.4c-.1 0-.2.1-.2 0-.1 0-.2.1-.4.2-.1-.1-.1-.2 0-.4l.2-.2v-.6c0-.4.1-.7.1-1 0-2.3-.1-5.7.1-8.7h-.3v-.8c.1 0 .1-.1.1 0 .4-.6-.1-1.8.1-2.4-.3.4-.1.5-.1 1-.2.6-.5 0-.3-.8h.1l-.2-.6c.3-.1.4-.6.6-.7 0-2.6-.4-4.3-.3-7 .3.3 0-1.9.4-1.4-.2-1.6-.4.3-.7-.5 0-.4-.1-.9.1-1 .1.2.3-.4.3 0v-1.1c0-.1.1.1.1.3-.3-2.2.4-3.8.1-5.8-.2-.1-.1.8-.2.6-.3-2 .3-1.7.1-3.5l.2.4c-.2-.6-.4-.9-.2-1.8.3-.2.2.8.4 1.3 0-.7 0-2.3-.3-1.8-.1-.8.2-1.1.3-1.5-.1 0-.2.7-.3.3.1-.5.1-1.2.2-1.9v-1.2c.1 0 .2 0 .2.1-.3-.2.1 0 .2 0v-.1s0 0 .1 0h.4l1.6-.1c2.1-.1 4.2-.2 6-.2.8-.4 2.1-.4 3.3-.5l.1.5 1-.2c.4.1-.8.1 0 .3l.4-.3c0 .1.7.1 1.1.2v.3c-.1 0-.1 0-.2.1h.2c0 .1 0 .2-.1.3h.1l.2.2c-.1 0-.2 0-.2.1l.1-.1c-.3.4-.2 1.1-.3 1.7.1.8-.1 1.6-.1 2.4 0-.1.3-.1.2 0-.5.2.1.4-.2.7.1.5-.2.9.1 1.3H25c-.1.1 0 .1 0 .1 0 .2.1.3 0 .4h.1c0 .1-.1 0 0 .1H25l.1.1c-.3 0 0 .3-.1.3 0 .1.2.3.1.5-.1 0-.1.3-.2.4 0 .3.1.7 0 1h.2v.1H25c-.2.1.1.2-.1.3.1 0 0-.1 0-.1.1-.1.2 0 .2.1l.1.1c-.1 0-.2.1-.3.1 0 .3.2.5.2.8-.1 0 0 .2-.2.2.1.2.2 0 .4.1 0 .1.1.1 0 .1h-.2v.1H25c.1.3-.2.5 0 .7.1 0 0-.1.1-.1.2.2-.2.2 0 .4H25c.1.1.2.1.1.2-.1 0-.1-.1-.2-.2 0 .1 0 .3.2.2 0 .1-.1.1-.1.2 0 0 .1-.1.2 0-.1.1-.1.3-.1.5H25c.2.1-.1.1-.1.3.1.5.2 1.1.2 1.5.2.1.2.2.2.4H25l.1.1c-.1 0 0-.1-.1 0h.2c-.1 0-.1.3-.2.1v.5c0 .1.2.1.2.2h-.1c-.2.3.5.4.4.7.1.1.1.2.1.2.3 0-.1-.1 0-.2.2 0 .1.1.3.1-.1.1 0 .1.1.2-.1.1 0 .3-.2.4.1.1.3.1.3.2-.2.1-.2 0-.2.1h.1c0 .1-.1.1-.1.1 0 .1.2.1.1.2l-.1-.1v.3c-.1 0-.1-.1 0-.1-.2.1.1.1.1.2.1 0 .1-.1.2-.1 0 .1.2.1 0 .2l-.1-.1c.1.1.2.1.1.2h-.1c.2.1 0 .2 0 .4.1 0 .1.1.1.1.1-.1.1-.1.2-.1-.2.1.2.2.1.3-.1 0-.2 0-.1-.1-.2-.1-.4-.1-.5-.2 0 .1.1.1 0 .1h.2v.1c.1 0 .2-.1.3 0s-.2.1-.1.1c.1.1.2.1.1.2 0 0-.1 0 0-.1-.1.1 0 .2-.2.3-.1 0-.1 0-.1-.1-.2-.1 0 .1-.2.1.1 0 .1.1.1.2h.1c.4.2-.3 0-.2.2.1.1 0-.1.1 0 0 .1-.2.1-.1.3-.1 0-.1.1-.3.1.1.1-.1.2.1.3.1-.1-.2-.1 0-.3h.2c0 .1.1.3 0 .3h.1c.1.2.2.2.2.4-.1 0-.1-.1-.1-.1-.1.1 0 .1-.1.3-.1 0 0-.1-.1-.1v.2c.2 0 0 .1 0 .2 0 .2.3.3.5.4h-.2c.1-.1 0-.1 0-.1 0 .1-.2.2-.3.1.1.1.1 0 .2 0v.2c.1 0 .1-.1.2 0v.2h-.2c0 .1 0 .1.1.2.1-.1.1.2.3.1l-.1.1s-.1 0 0-.1c-.2 0 0 .1.1.1 0 0 0 .1-.1.2 0 0 0 .1-.1.1 0 .1.1 0 .2 0v.2h-.4c.1.1.3 0 .3.1-.2-.1-.1.1-.3.1-.1.1-.1.2-.1.3.1.1.1-.1.2-.1.1.3.4.3.4.5v-.1l.2.2c-.2 0-.5.1-.4.3.1 0 .2-.1.3-.1v.1h-.1c.1.1-.2.2 0 .3l-.3.1h.1c.1 0 .1.1.1.2.1.1 0 .2-.1.3.1 0 .2-.1.3 0-.3 0-.1.2-.3.2 0 0-.1.1 0 .1h-.2c.3 0 .2.2.3.3-.3 0 0 .1-.3.2.2 0 .1.2.3.2 0 .1-.2.1-.3.1h.1c-.1 0-.1.2-.2.3l.2.1h-.1c.1 0 .1.1.2 0v.1c.2 0 .1.1.2.2h-.1c0 .1-.1 0-.2.1.1 0 .4.2.5 0 .1 0 .2.1.1.1h-.2l.2.1c0 .1-.1.1-.1.2 0-.1-.4-.1-.4 0 0-.1-.1-.1-.2-.2 0 0 0 .1-.1 0 .1.1.1 0 .1.2-.2 0-.2 0-.3.1l.1-.1s0 0 .1 0c0 0 .2.2.1.2.3-.1.2.2.4.1.1 0 .1.1 0 .1-.1-.1-.2.1-.3.1.1 0 .1-.1.2 0 0 .1-.1.1-.2.2l-.1.1c.1 0 .2-.1.2 0 0 0 0 .1-.1.1s-.3 0-.3-.1c0 .1 0 .3.2.2v.1c.1 0 .2-.2.2 0l.1.1h-.1s.1 0 .1.1h-.1c0 .1.1.1.2.1 0 .1 0 .1-.1.1 0 .1 0 .2-.1.3.1.1 0 0 .2 0-.3.1-.1.4-.1.6.3-.1 0 .1.3.1-.1 0-.2.2-.3 0v.1c-.2.1-.1-.2-.3-.1 0 .1.3.2.2.3-.2 0 .1.1-.1.1-.1 0 0-.1-.1-.1-.1.3.2.1.4.2 0 .2-.2.1-.2.1v.1c-.1-.1.1-.2.2-.1-.2.1 0 .2.1.3.2-.2 0-.2.3-.4-.1 0-.3 0-.2-.2.1.1.1 0 .1 0-.1 0 0-.1-.1-.1.1 0 .3.1.3-.1h-.3c0-.1.2 0 .1-.1.1.1.2 0 .3.1.2-.2-.1-.3-.2-.4h.1c-.1 0-.1-.1-.1-.1.1-.1.1.1.2 0v-.1s-.1-.1 0-.1.2.1.2.1l-.2-.2c.1 0 .2-.1.2 0v-.2h.2c0-.1-.1-.1-.1 0 0-.1-.3-.3 0-.3-.1-.2-.1-.2-.2-.5.2.2.2-.2.3 0 .1-.1-.1-.1-.1-.2.1-.1.3 0 .3 0l-.1-.1-.1-.1c.1-.1.2 0 .2-.1h-.2l.1-.1c-.1 0-.1 0-.1-.1v-.1c.1.1 0-.1.2 0v-.2h-.1c-.1-.2.2 0 .2-.1h-.1c.2-.2-.1-.3 0-.5 0 .1.2.1.1.1 0-.1 0-.3-.2-.4.2 0 .2-.1.3-.2 0-.1 0-.1-.1-.1.1-.1 0-.3.1-.3-.1 0 0-.1-.1-.1h0c.3-.2-.2-.3.1-.4v-.1h.2v-.3l-.1.1c0-.1-.1-.1-.1-.2.2.1 0-.1.2-.1v.1c0-.1 0-.1-.1-.1 0-.1.2-.1.1-.2v.1c-.1 0-.2 0-.2-.1h.1v-.3c0-.1.1 0 .2 0-.1-.2 0-.1-.1-.3h.1l-.1-.1.2-.1h-.1c0-.1-.1-.1 0-.2h.1c-.1-.2.2-.2 0-.4h.1c-.2-.2.2-.1 0-.3h.1l-.1-.1h.1l-.2-.1c.3-.1.1-.2.3-.3h-.2c-.4-.3.2-.6 0-1h.1l-.2-.1c.1-.1.1 0 .2 0-.1-.1-.2-.1-.3-.2.1-.1.1 0 .2.1-.1-.2-.1-.4-.1-.5 0 0 0 0-.1 0-.1-.1 0-.2 0-.4.1 0 .1 0 .1.1 0 0 .1-.1 0-.1h.1c0-.1-.1-.3.1-.3-.1 0-.2 0-.2-.1.2 0-.1-.2 0-.3.1 0 .1.1.1.1.1-.1 0-.1-.1-.2h.1l-.1-.3c.2 0 0-.3.1-.3 0-.1-.1.1-.1 0 .1 0 0-.1.1-.1v-.1l.1.1c0-.1-.2-.1-.3-.1.1-.1 0-.2.1-.2-.1-.2.4-.4.1-.5h.1v-.1h.1l-.2-.2h.1v-.6c-.1-.2.1-.2 0-.3v-.1h.1c-.2-.1.2-.3.1-.2l-.2-.2c0-.1.1 0 .2-.1 0-.1-.1-.1-.1-.3h.1c0-.1-.1-.1-.1-.2-.2-.2.2-.2-.1-.3.1-.1 0-.2.2-.2-.1-.2-.1-.3-.2-.5.2 0 0 0 .1-.2h-.1c0-.3.3-.6.2-.9h.1l-.1-.1c.1-.3.1-.7.1-1-.1-.1-.2-.2-.2-.3-.1-.2-.1-.5-.1-.7h.1c-.1-.1 0-.1 0-.2l-.1.1c-.1-.1 0-.2.1-.2l-.1-.1.2-.1s-.1-.2-.2-.2c.1 0 .1-.1.1 0l.1-.4-.1.1c-.1 0-.2-.1-.1-.2.1.1.2 0 .3 0-.1-.1-.1 0-.2 0-.1-.1-.1-.2-.1-.3h.1c0-.1.2-.1.2-.2-.1-.1 0-.1-.2-.1 0-.1.1 0 .2-.1-.1-.1 0-.2.1-.2-.3-.1.1-.3-.2-.3l.2-.1c-.1 0-.2 0-.3-.1.1-.1.2-.1.3-.1l-.3-.1c.3-.4.1-1 .3-1.5-.1-.2-.2-.5-.1-.7l.1-.2-.1.2c0-.1-.1-.1-.1-.1.1-.3.2-.6.1-1-.3-.2.3-.1 0-.3h.1c-.1-.2-.2-.3-.3-.6.3 0 0-.1.2-.1h-.1c.1 0 .1-.2.2-.1l-.2-.1h.1c0-.1-.1-.4.2-.5-.2-.3-.1-.8-.1-1.2-.1-.1-.1-.2-.1-.3l.2-.1c0-.1-.2-.2-.1-.3 0-.1 0-.2-.1-.3 0-.1.1-.2.2-.2-.3 0 0-.2 0-.2s.1-1.1.1-2.5h.1c.9 0 .5-.4 1.5-.3.2.1-.4.1-.3.3 2.9.3 3.4-1 6.1-.9l-.2.1c.5-.1 1.4-.1 1.4-.2-.4-.5-.5.3-1.3 0 .1-.4 1-.3 1-.6.6.1 1-.1 1.6-.1 1 .3 2.3 0 3 .4.5-.1 1-.6 2-.6.7.3-.2.3.8.4l.2-.3c.8 0 .7.1.7.2.9 0 .7-.4 1.8-.2l-.6.3c.8-.1 1.1-.1 2.2-.1 0 .1-.5.1-.8.1.6.4 1-.2 1.4-.1-.1-.1-.9-.1-.5-.4.6 0 1.2-.4 1.6-.1l-.6.3c1.1-.2.6-.3 1.9-.2-.1 0 0 .1-.1.1.8-.3 1.9-.1 3.2-.1l-.2.1c.5-.1.8-.3 1-.3-.7-.1-.5-.2-.6-.5.9.4 1.4-.5 2.9-.3 0 .1-.4.3-.8.2-.5.4-.6.8-1.5 1 .6-.1 1.2-.2 1.1 0l.2-.4h.9c.1-.3-.7-.4.1-.6.9-.1.5.4.6.2 1.2-.2.5-.4 1.7-.3-.1 0-.4.1-.5.1.9.1 2.1-.1 2.4.4-.1.1-.1.3-.5.2v-.1c-.9.3.5 0 .5.2.2-.2 1.2-.1 1.7-.1l-.2-.3c1.8-.9-.1.6 1.7.4 1.1-.2-.4-.1.3-.3.8 0 1.1.3 2.2.1.3.1 1 .3 1 .6.7-.1 2.1.1 2.5-.2-1.2-.3-1.2.4-2.5 0l.4-.3c1 0 2.2-.2 2.8-.1-.1-.1-.2-.1-.1-.2 1.4-.1 1.7-.5 3.1-.4.2.3-.6.3-1.2.3.9.2.9 0 2.2.1.1.3-.9 0-1 .3l1.5-.1v.1c.2-.4 1.1 0 2-.1 2.1 0 2.4-.6 3.6-1 .3.1.4.2.3.3-.5-.2-.4 0-.6.1.7-.1 1.6.4 1.2.6 1.1-.1-.4-.2.3-.4h1.6c-.2-.2-.7-.3.1-.4.7-.1 1 0 1.9 0-.1.1.3.3-.4.3.4.1 1.1.1 1.4-.1-1-.2 1.6-.2.9-.5l1 .2c-.2 0-.2.1-.6.1.3.3.8-.1 1.1-.1.3.1 1.2.1 1.3.2.3-.1 1.1 0 1.2.1.5-.1 0-.2.2-.3H95c.1.2.2.7 0 .8.6-.2.2-.5 1.1-.5-.5.4 1.2.3.4.7.5.3 2 .2 2.8.1.5-.3-.9-.1-.8-.4 2.2-.1 2.4-.9 4-.8l-.4-.1c1-.2.9-.1 1.5-.4-.3.4 1.2.9 2.9.8.1-.2-.9-.3-.7-.6l1.1-.1c.1 0 0 .1-.2.1 1-.1 1.9.4 2.2 0a1.38 1.38 0 0 1 .4.3c.1.1.2.2.2.3l-.2-.2c.1-.2.8-.2 1-.3.8-.2 1-.1 1.2.2 0-.1 0-.5.6-.5v.1c-.6.6-.2 1.4-.5 1.6 0 .2-.2.6.1.6l-.4.1c.3-.1.4.1.4.4v.6c0 .3 0 .5.1.8-.7-.2.1 1.1-.6 1.6.5.2.2 1.8.6 2 0 .8-.4.7-.6.9l.2.4c-.2.4-.3 1.9-.4 2.7l.4.8-.2.3c.1.1.2.8.3.4v.4c.4 0 .1.6.3 1.5-.1.2-.2.1-.2 0 0 .4-.2.3-.4.5.1-.3.8 1.6 1 .4.2-.1.3.6.2 1l-.4.3.4.5c.1.7-.2 1-.2 1.5 0-.6-.8-1.2-.8.2-.1-.8-.3-1.1-.4-1.5 0 .3-.1.4-.2 0 .1 1.1.2.4.3 1.5-.4-.1-.5.3-.6 1.2l.3-.7.1.1c0-.3.1-.4.2-.4 0 .2.4 1.3.2 1.5.6-1.1.4 2 .8 1.2.1.1.1.9-.1 1-.3-.9-.4.7-.7.6.1.3.3-.7.4-.3 0 .6-.2 1-.3 1.3l-.1-.2-.2.9c.2.1.3-.8.4 0-.1.2 0 1-.1 1-.2-.4-.6-.1-.6-.8 0 .6.1 2.3.4 1.6v.7c.2-.4.4-1.6.5-.3h-.1l.3.9-.2.4c.1 0 .2.1.2.5-.1.1-.2.4-.3.4 0 1 .2.9.3 1.1 0 .6-.1.8-.3.5 0 .8 0 2.1-.2 2.6.2 1 .1-.2.3.4-.6.9-.2 3.4-.2 5.1.5-.4.1.4.5.7-.2 0-.4 1.5-.5.2l.1.9c-.3.6-.2-1.5-.6-.6 0 1 .6 1.7.4 2.9-.4-.4.1.9-.3.6-.1-.2-.1-.6-.1-.9l-.1.2c-.1 2.2.5.6.7 1.8 0 1.3-.3 1.1-.5 1.1-.1.2 0 .9.1 1.2-.2-.8.2-1.5.5-1.1-.4.6 0 2 .1 2.4.5-1.9 0-1.3.5-3.1-.1-.2-.5-.2-.4-1.3.2.7.2 0 .3-.2-.2.2-.1-.8-.2-1.1.2-.3.5.6.6-.4l-.5-.2c.1-.4.4.2.3-.7.3.5.4-.1.5 1.1.5-1.5-.2-2.3-.4-3.4 0 .1.1.1.1.2-.1-.2-.1-.7-.2-1 .1-.8.2.6.4.4v-1.2c-.1-.3-.1-.6 0-.7.2.4.4.5.5.8l-.4-1.3c.2.1.3-1.1.4-.1l-.1-1.9.4-.2c-.1-.5-.1-.5-.2.1.1-.7-.6-2.9.1-2.5-.3-1.5-.2-2-.4-3.8.3 1.4.4-1.6.6-.1.2-.9-.2-1-.3-1.7.2-.6.5-.4.6.3l-.2-.8h.1l-.2-.7c.2-.7.4-.2.4-.9l-.3-.2.2-.5c-.1.2-.2-.3-.2-.8h.1l-.1-.7c.2.7.1-.6.3-.3v-1.6l-.2.2c-.2-1.4.3-.1.3-1.2l-.3.1c.4-1.6-.2-2.7 0-3.9.1.7.4.5.3.5-.1-1 0-2.7-.3-3.7.4-.4.5-.5.6-1.6 0-.8-.1-.9-.3-1.2.1-.8-.1-2.2.2-2.2-.2-.2 0-.7-.1-1.1l.1-.1-.3.1c.3-.7.2-1.2.1-1.8 0-.3-.1-.6-.1-.9s0-.7.2-1.2l.1.3-.1-.8c.1-.1.2.2.3.2v-3.8l-.4-.1zM33.3 4v.6a.9.9 0 0 0-.1-.5l.1-.1zM33 8.9c0-.4.1-.9.2-1.5v4c-.3-.7-.2-2-.2-2.5zm.1 2.7v1c-.1-.4-.1-.7-.1-1.1l.1.1zM25.5 60l.1.2s0 0-.1-.1V60v.1-.1zm-2.2-36.2l.3.1c0 .9-.4.4-.4 1-.2-.1 0-.6.3-.7-.4-.1-.1-.1-.3-.2h.1v-.2zm-.6-.6h.6v.2c-.2 0-.3 0-.3-.1h.1c-.1 0-.4-.1-.5-.2l.1.1zm-3.2 6.6c-.1-.8.2-1.1.3-1.5-.1 0-.2.7-.3.3.1-.4.1-.9.2-1.5 1.5 0 3 .1 3.9.1 0 .1-.1.1-.1.1.3.1.1.5.1.7.1.1.1-.1.2-.2l.1.6c-.1.3-.3.3-.3 0 0 .6-.1 1.8-.1 3.3-.9 0-2.4-.1-3.9-.1-.1-.4-.2-.7 0-1.4.3-.2.2.8.3 1.3-.1-.6-.1-2.2-.4-1.7zm-.2 21c0-2-.3-3.5-.3-5.4 1.6.1 3.4.2 4.6.2 0 .2.1.4 0 .6 0-.1.2-.3.3 0-.3 0 .2.7-.1.9 0 .3 0 1.2.4.9-.2.2-.3.9-.4.5 0 .3-.1.5 0 .7l.1-.3c.1.9-.2 1.4.1 2l.1-.3c0 .5.1 1-.3 1.2l-.1-.6c0 .7 0 1.1.1 1.6-1.2 0-3.1-.1-4.8-.1 0-.3 0-.6.1-.8-.2.3-.1.5-.1.8h-.3c0-.2 0-.4.1-.6h.1l-.2-.6c.2-.1.3-.6.6-.7zM18.5 67c.3-.3.3-2.1.5-3.3v-.8c1.9.1 4.5.2 5.8.2.1 3.1.1 7.2 0 8.2-.2.6-.5.1-.5.1.1.7.3.3.3.9-.1.2-.2 0-.3-.1 0 .3-.1.5.1.5.1-.3.5-.2.7-.3v.8h-.2c0 .1.2.3.4.6-.9-.1-1.9-.1-2.9-.2 0-.1 0-.1-.1-.2h.1c-.1-.2.3-1.4.1-1.7h-.1c-.2-.2.2-.2.3-.4-.4 0-.6-.2-.7-.3h.1c-.1-.1-.4-.4-.5-.6h.2c-.2-.2-.1-.4-.1-.5.1-.2.5-.6.2-.9l.6-.2h-.1s-2-.2-4.1-.3c.2-.5.2-1 .2-1.5zm86 14.9v-.1l-.6.2-.8-.3.3.2c-.6 0-.9.1-1.6.1l.3-.2c-1.6.1-1.8-.3-3.3 0-.1 0 .1-.1.2-.1-1.4.4-1.1-.4-2.5.1.1-.1-.1-.2 0-.2l-.6.1v-.3l-.5.4-.4-.3-.2.1c-.7-.5-1.6-.1-2.6-.5l.2.4c-2.3.8-5.4-.3-8.2.1v-.3l-1.2.4c-.6-.2.4-.3.2-.4-1.3.2-.5.4-2 .5-.7-.2.3-.2.6-.3-1.4.2-3.4.4-4.3.2 0 0-.1.1 0 .1-.9.1-2.1 0-3.1.1 0-.1.3-.2.5-.2-.4 0-.9-.1-1.2 0l.4-.3c-.8 0-2.3.2-2.4-.1.1.1.1.3-.6.3-.4-.4-1.8.2-2.9 0 .1-.1.9-.1.7-.1-.5-.1-1 .1-1.5.3l.1-.2-2.5.3c-.4-.4-2.3.1-2.2-.2-.9 0 .7.2-.4.3-.3-.2-1 .1-1-.2h.1-.8l.5-.3c-.7.1-1.2.4-1.2.6-.6-.1-1.6 0-1.8-.3l.2-.1c-1.8.1-3-.7-4.4-.2-.1 0-.1-.1.1-.1H53l.3-.2-1.8.4v-.1c-1.2 0-3.1.1-4.7.1l.2-.1c-1.7.3-1.6-.1-2.9.1l.1-.1h-1.1l.2-.1c-.8.3-2.4-.4-1.9-.1-.5.1-1.3.3-1.4.5-1.2 0-.3-.2-1.1-.3-.6 0-.9.1-1.4.2 0-.5 0-.9.1-1.2l-.3-.1c0-1 .2-.5.1-1.6h.1l-.2-1.2c.5.1.1-2.9.4-3.7 0-1.3-.2-3.9 0-5.9.3-.4.4-2.9.5-4.4 0-3.1.1-7.5.4-11.4l-.3.1v-1c.1 0 .1-.1.1 0 .4-.8 0-2.4.2-3.2-.3.5-.1.7-.1 1.3-.2.8-.5 0-.3-1.1h.1l-.1-.8c.3-.1.4-.8.7-.9.1-3.4-.3-5.7-.1-9.2.3.4 0-2.5.5-1.8-.1-2.1-.4.3-.7-.6 0-.6-.1-1.2.1-1.3.1.3.3-.5.3 0v-1.4c0-.1.1.2.1.3-.2-2.9.5-5 .3-7.6-.2-.2-.1 1-.3.8-.3-2.6.4-2.3.2-4.7l.2.5c-.1-.8-.3-1.1-.1-2.4.3-.2.2 1.1.3 1.7 0-.9 0-3.1-.2-2.4-.1-1.1.2-1.4.3-2-.1 0-.2 1-.3.4.2-1.4.3-3.6.4-5.4.1 0 .2-.1.2.1-.2-.7-.1-1 0-1.4.1-.2.1-.4.2-.7v-.1s0 0-.1-.1c0 0 0-.1.1-.1 0 0 0 0 .1 0h.5l.9-.1 1.8-.1a85.07 85.07 0 0 1 6.9-.3c1.1-.4 2.7-.5 4.3-.6l.2.5 1.3-.2c.6.1-1 .1-.1.3l.5-.3c.1.2 3.5 0 1.2.4l5.3-.2c1.2 0 .7-.4 2-.4.3.1-.5.1-.3.3 3.9.2 4.4-1.1 8-1l-.3.1c.6-.2 1.8-.2 1.8-.3-.5-.5-.6.3-1.7 0 .1-.4 1.4-.3 1.3-.6.8.1 1.3-.1 2.1-.2 1.3.2 3.1 0 4 .3.6-.2 1.3-.6 2.6-.7 1 .3-.2.3 1.1.4l.2-.3c1.1 0 .9.1.9.2 1.1 0 .9-.4 2.3-.3l-.8.3c1-.1 1.5-.1 2.9-.1 0 .1-.6.2-1 .1.8.3 1.3-.2 1.8-.2-.1-.1-1.1-.1-.7-.4.7 0 1.5-.4 2.1-.1l-.8.3c1.5-.2.8-.3 2.5-.3-.1 0 0 .1-.1.1 1.1-.4 2.5-.1 4.1-.2l-.3.1c.7-.1 1-.3 1.4-.3-.9-.1-.7-.2-.8-.4 1.2.4 1.8-.5 3.8-.4 0 .1-.5.3-1.1.2-.7.4-.7.8-1.9 1.1.8-.1 1.6-.2 1.5 0l.2-.4h1.2c.2-.3-.9-.4.1-.6 1.2-.2.6.4.8.2.8-.1 1-.2 1.1-.3.1 0 .2-.1.3-.1h.6c-.1 0-.2.1-.4.1h1.1c.3 0 .6.1.5.3-.2.1-.2.3-.4.2v-.1c-.7.4.5-.1.1.3.1-.2.4-.2.7-.2v.4l.3-.3c.4.2.3.4.1.5s-.6.3-.5.7c.2.5.1-.3.3.1 0 .1 0 .2-.1.3 0 .1-.1.1-.1.4-.1.4-.1.9 0 1.6-.1.4-.3 1.3-.6 1.3.1.9-.1 2.7.2 3.3.3-1.5-.3-1.5.1-3.3l.3.5c0 1.2.1 2.8 0 3.7.1-.2.1-.3.2-.1.1 1.8.4 2.3.3 4-.3.2-.2-.8-.3-1.5-.2 1.1 0 1.2-.1 2.9-.3.1 0-1.2-.2-1.4l.1 1.9h-.1c.4.3 0 1.5.1 2.6 0 2.8.6 3.2.9 4.7-.1.4-.2.5-.3.4.2-.7 0-.6-.1-.8 0 .9-.4 2.1-.6 1.5.1 1.5.2-.5.4.4v2c.2-.2.3-1 .4.1.1.9 0 1.3 0 2.5-.1-.2-.3.4-.3-.5-.1.6-.1 1.4.1 1.8.2-1.3.2 2.1.5 1.1l-.2 1.3c0-.3-.1-.3-.1-.8-.3.4.1 1 .1 1.5-.1.4-.1 1.6-.2 1.7.1.4 0 1.4-.2 1.6.1.6.2 0 .3.2v2c-.2.1-.7.3-.8 0 .2.8.5.3.5 1.4-.4-.7-.3 1.5-.7.6-.3.7-.3 2.6-.2 3.6.3.6.2-1.1.5-1.1.1 2.9.9 3.1.8 5.3l.1-.6c.2 1.3.1 1.2.4 2-.4-.4-1 1.5-.9 3.7.2.2.3-1.2.6-.9l.1 1.5c0 .1-.1-.1-.1-.2.1 1.3-.5 2.5 0 2.8l-.5 1.3.2-.5c.2.2.2 1.7.3 2 .2 1.5 0 2.1-.2 2.9.1-.3.5-.9.5.3-.6 0-.2 2.5-.5 2.5 0 .5-.2 1.3.1 1.4l-.4-.1c.5.1.5 1.9.6 3.2-.7-.3.1 1.5-.6 2.1.5.3.2 2.4.6 2.6 0 1-.4.9-.6 1.2l.2.5c-.1.1-.1.4-.1.7-.9.1-.3-.1-1.8.1z"/><path d="M76.3 87l.8-.2h-.5s0 .1-.3.2zm-24.5 0c-.1 0-.1 0-.2.1.1 0 .1 0 .2-.1zm-6.2.7c.4-.1 0-.1-.2-.2 0 0 0 .1.2.2zm45.7-1.8c.1-.1.2-.1.1-.1 0 0-.1 0-.1.1zm-9.5.1c-.1 0-.3 0-.4.1.3 0 .4 0 .4-.1zm-56 31.9c-.1-.1 0-.2-.1-.2 0 .1 0 .2.1.2zm0-9s0-.1-.1-.1l.1.1zm-.3-1.6h-.1c0 .1 0 0 .1 0z"/></g><path opacity=".125" d="M102.8 8.297c-.1.2-.1.7-.2 1.1.2-.3.2-.6.2-1.1zm-.6 20.2l.2.1c0 .9-.2.3-.2 1.1.3.3 0 1.4.1 1.7 0 0 0 .4-.1.4.2.1 0 .4.1.7 0 .1 0-.1.1-.1v.6c-.1.2-.1.3-.2 0-.1 1.6-.3 9.3-.2 11 .1-.2 0-.8.2-1 .1.5 0 .7.1.9-.3.2-.1 1-.4 1.3l.2.1-.1.2c.1 2 .1.5 0 2.2 0 1 .2 1.5.1 2.1 0-.1.1-.3.1 0-.1 0 .1.7 0 .8 0 .3 0 1.1.2.8-.1.1-.1.9-.2.4v.7l.1-.3c0 .9-.1 1.3 0 1.9l.1-.3c0 .5 0 .9-.2 1.1l-.1-.5c0 .9 0 1.4.1 2.1v-.3c.2.9.3 5.6.5 6.5l.1-.4.1.7c0-.1-.5-.3-.4-.4l-.1 11c-.1.6-.2.1-.2.1 0 .7.1.3.1.9 0 .2-.1 0-.1-.1v.5c.1-.3.2-.2.3-.3v.8h-.1c0 .2.3.4.2 1.2-.1 1.3 0 2.6-.1 3.9-.1 0-.1-.3-.1-.6v.6c.1-.3.1.5.1.3.3.9 0 2.1.2 3 .2.1 4.2 1.8 4.5 1.8v.6c.1-.1.1-.6.1-.8h-.2c0-.6.1-.1.1-.7.1 0 .1.5.2 1 0-.4.1-.9 0-1 .1-.4.2 0 .2-.4s-.2-.8-.1-1.2c.1-1-.2-1.5 0-2.4v.1c.1-.3 0-.9.1-1.5 0 .2-.1.3-.1 0 .1-.7 0-1.1.1-1.6l-.1-.5-.2-27.9c.1-.6.1-1.3.1-1.9-.1.3-.1.2-.1 0 0-1.8-.1-.1-.1-1.9-.1-2.1.1-10 .2-11.9-.2-1 0-2.2-.1-3.2v.1c-.1-1 .2-6.9.1-8.1v.2c-.1-1.1.1-.9.2-1.7-.2.1-.3-.8-.3-1.1 0-.5-.2-1.7-.2-2.6h.1c-.1-.7-.1-2.1-.1-2.6.1-1.2.3-3 .1-4.6l.3-1v-.1s-3.8-1.7-4.6.4h-.1v.4c-.1.5.1.7 0 .7v-.7c0 .5-.1.1-.2 0 0 .2 0 .4-.1.6 0 .1 0-.1.1-.1 0 .3.1.6.1 1 0 .5-.2 0-.2.6-.1 3.1-.3 6.2-.3 9.3 0 .1 0 0-.1-.1 0 1 0 1.8.1 2.7-.1.2-.1.3-.2.4.2-.7.2 4.2.2 4.3z" fill="#202020"/><defs ><path id="B" d="M94.3 86.1c.3.2.6-.3.8-.2 0 0 0-.1-.1-.1l-.7.3z"/></defs></svg>