<svg xmlns="http://www.w3.org/2000/svg" width="103" height="114" fill="none" xmlns:v="https://vecta.io/nano"><path d="M97.942 5.398v13.7c-.1.3-.2 1-.3.1l.1 2.4-.2.1v.1c0 1 .6 3.4-.1 3 .3 1.9.2 2.5.4 4.8-.3-1.7-.4 2-.6.1-.2 1.1.2 1.3.3 2.1-.2.7-.5.5-.6-.2l.1.8h-.1l.2.9c-.2.9-.4.2-.4 1.1l.3.2-.2.7c.2-.2.2.3.2 1h-.1l.1.8c-.2-.8-.1.8-.3.4v2l.2-.2c.2 1.7-.3.1-.4 1.4l.2-.1c-.4 2 .2 3.4-.1 4.8-.1-.8-.3-.6-.3-.6.1 1.3 0 3.3.3 4.6-.4.5-.5.6-.7 1.9 0 1 .1 1.1.3 1.4-.2 1 .1 2.7-.2 2.8.2.2 0 .8.1 1.4l-.1.1.3-.1c-.6 1.7.3 2.8-.2 4.5l-.1-.3.1.7c-.1.1-.2-.2-.3-.2l-.1 3.3.2-.6c0 .7.3 1.2.1 2-.4-1.3 0 1.1-.3 1.3l-.1-.7c0 1 0 1 .3.9.1 1.3-.5.9-.2 2v-.8c.1-.2.3.4.3.9 0 .1-.1.5-.2.1.1 1 0 2.5.1 2.9-.1.5-.3.4-.3.1.2 2.1-.1 1 .2 3.1h-.1l.2.7-.3 1 .2-.4c0 .7.1 1.1 0 2l-.2-.3c.1 2-.4 2.3-.1 4.2 0 .1-.1-.1-.1-.3.3 1.7-.4 1.3 0 3-.1-.1-.2.1-.2 0l.1.8-.3-.1.4.7-.3.5.1.3c-.6.8-.2 2-.6 3.2l.4-.2c.7 2.9-.5 6.7-.1 10.2l-.3-.1.3 1.5c-.2.8-.2-.5-.4-.2.1 1.6.4.6.5 2.5-.2.9-.2-.3-.3-.8v.7c0 .2 0 .5.1.6 0 .2.1.4.1.6v1l.1.1c-.4.1-1.1 0-1.6 0 0-.1.1-.2.2-.2h-.6c-.1 0-.2 0-.3.1l.5-.2c-1-.1-2.8.1-3-.2.1.1.1.3-.8.3-.4-.5-2.3.2-3.6-.1.1-.1.7-.1.9-.1-.7-.1-1.3.1-1.9.2l.2-.2-3.1.2c-.5-.5-2.9 0-2.7-.3-1.1 0 .9.2-.5.2-.4-.2-1.3.1-1.2-.2h.1-1l.6-.3c-.8 0-1.5.3-1.5.5-.8-.2-1.9 0-2.3-.3l.3-.1c-2.2.1-3.7-.8-5.5-.4-.1 0-.1-.1.1-.1h-1.3l.3-.2-2.3.3v-.2c-1.5-.1-3.9 0-5.8 0l.3-.1c-2.1.2-2.1-.2-3.6 0 .1 0 .1 0 .2-.1h-1.4l.3-.1c-.9.2-2.4-.2-2.4-.2s.1 0 .1.1c-.6.1-1.6.3-1.8.5-1.5 0-.4-.2-1.3-.3-1.1 0-1.3.2-2.8.1v-.1c-.7 0-1.1.1-2.1.1l.3-.1c-1.6.3-2-.5-3.2.2-.7-.1-1.9 0-1.9-.3-2 .2-3.5.2-5.5.3-.3-.5-.4 0-1.6-.3l.1.3c-2.8 0-6-.7-9-.6l-.1-.2-.6.3c-3.3-.2-7.6-.3-10.2-.3-.9.1-2.2.4-3.5.3h.2-1.5c0-.2 0-.4.1-.6.1 0 .2-.1.2-.1-.1 0-.1-.1-.1-.1 0-.1.1 0 .1-.4 0 .1-.1.2-.1.3l-.1.1s-.1 0-.1-.1v-.8c.1-.4.2-.8.3-.9l-.2-1.2c0-.1.1-.2.1-.2l-.1-.2.3-.6c-.1-.3-.1-1.8-.4-2.3.1-.1.2-1.2.3-.3l.2-4.3-.1.7c-.3.1-.4-1.2-.3-1.9.2.9.4.1.6-.3-.1-.6-.2.5-.4.2-.1-.7-.2-2.3-.1-2.7l.1.4c-.1-1 .4-1.4.4-2.4-.2-.9 0-1.5-.4-1.3-.1-1.3.3-.5.4-.9-.2-.6 0-2.4.2-2.6-.6-.7.3-3.4-.2-3.7l.3-1c-.1 0-.5-.2-.5-1.1.2-.8.4-.6.6-.8l-.5-.5c.7-4.6.4-10.6 1-15.6-.1-2.2-.3-5.1-.1-7.7l.1.3.2-2.6-.3 1.9c-.1-.6-.1-1-.1-1.6.3-2.8.6-6.6.4-10.2-.6-2.3.6-1.5.2-3.7.1.2.1.3.2.4-.2-2.3-.2-3.6-.5-6 .6.3 0-1.5.3-1.3l-.2-.2c.2-.5.2-1.8.4-1.6l-.3-1 .3-.1v-4c.1-.1.1-.1.3-.1v-.1c.2-.3.5-.8.8-1.2.6-.8 1.3-1.7 1.9-2.6 1.4-1.8 2.8-3.5 4.1-5.1.2-.6 1-1.6 1.5-2.4l.9-.6c.5-.8.9-1.9 1.6-2.5v.1c.8-1.1.7-.7.7-1.2.2 0 .4.2.4.4 0-.1 0-.1.1-.1h.8l1.1.2s14.2.4 30.1.4 33.5-.5 40.4-1.9c.5-.2 1.7-.4 1.2-.7 1-.3 1.4.2 1.6-.1z" fill="#efefef"/><path d="M102.64 108.6c-.1-.5-.3-1.1-.2-1.7.3-1.4-.4-2.1-.1-3.3l.1.1c.1-.4-.1-1.3.1-2.1-.1.2-.2.4-.3-.1.2-.9 0-1.5.2-2.2l-.2-.6c0-3.2-.3-15.7-.3-18.8v.1l-.4-19.8c.2-.8.2-1.8.3-2.6-.1.4-.3.3-.3-.1 0-2.5-.2-.2-.3-2.7-.2-2.9 0-13.8.2-16.4-.4-1.4-.1-3.1-.3-4.4l.1.1c-.1-1.4.2-9.6.1-11.2l-.1.2c-.2-1.5.2-1.3.3-2.4-.4.2-.6-1.1-.7-1.6h.1c-.1-.7-.4-2.3-.5-3.5h.2c-.2-1-.1-2.8-.2-3.6.1-1.6.5-4.1.2-6.3l.6-1.4-.1-.2-2-.5c0-.1 0-.1-.1-.2v.2c-1.6-.3-3.7-.6-5.4-.1h-6.7c.2-.1-.5-.1-.4-.3h-2.8c-.3-.1.7-.2.3-.1-.5-.2-.9.1-1.1.1-.2-.1-2.1 0-2-.3-1.9-.2-.8.5-2.6.3-.2-.2 1.4-.1.6-.3l-1.8.1c.1-.1.3-.3.9-.3-4.8-.3-7.5-1.4-11.9-1.1-.6-.3.4-.2.9-.3-3.3.4-4.6-.5-7.4-.5V1c-3.9-.7-8.5-.3-12.9-.6l.5.2c-.6.2-1.6.2-2.3.3-.1-.1.5-.5-.8-.4.3.1.8.2.6.3-3.8-.6-11.7-.5-17.8-.8h-8.6a40.31 40.31 0 0 1-2.6 3.2l-1.5 1.9-3 3.7-5.6 7.2c.7-.8.7-.1.1.5-.6.3-1 .7-1.4 1.2l-.1.1-.2.3-.5.6-.9 1.2v3c0 .6-.1 1.2-.2 1.9v3l-1.3 1.7v2.3s-.2 0-.2-.2c-.1 0-.2.2-.1.3s.2.3.4.3l-.1-.1c.1 0 .1 0 .2.1.1-.1.2-.1.3-.1v.1h-.1.1c-.1-.2.1-.2.2-.3h.1c.2.1-.1-.4.1-.2 0 .6-.1 1.3-.1 1.9l-1 1.3v2.3s-.2 0-.2-.2c-.1 0-.2.2-.1.3s.2.3.4.3l-.1-.1c.1 0 .1 0 .2.1.1-.1.2-.1.3-.1v.1h-.1.1c-.1-.2.1-.2.2-.3h.1c.2.1-.1-.4.1-.2 0 .5.1.9.1 1.4l-.3.1v.5l-.9 1.2v2.3s-.2 0-.2-.2c-.1 0-.2.2-.1.3s.2.3.4.3l-.1-.1c.1 0 .1 0 .2.1.1-.1.2-.1.3-.1v.1h-.1.1c-.1-.2.1-.2.2-.3v1.9l-.9 1.2v2.3s-.2 0-.2-.2c-.1 0-.2.2-.1.3s.2.3.4.3l-.1-.1c.1 0 .1 0 .2.1.1-.1.2-.1.3-.1v.1h-.1.1c-.1-.2.1-.2.2-.3V50l-.9 1.2v2.3s-.2 0-.2-.2c-.1 0-.2.2-.1.3s.2.3.4.3l-.1-.1c.1 0 .1 0 .2.1 1.5-.5 1.6-.5 1.7-.5v.1h-.1.1c-.1-.2.1-.2.2-.3v1.7l-1 1.3v2.3s-.2 0-.2-.2c-.1 0-.2.2-.1.3s.2.3.4.3l-.1-.1c.1 0 .1 0 .2.1.1-.1.2-.1.3-.1 0 .7-.1 1.3-.1 1.9v.2l-.2.5v2.3s-.2 0-.2-.2c-.1 0-.2.2-.1.3s.2.3.4.3l-.1-.1c.1 0 .1 0 .2.1.1-.1.1-.1.2-.1v2.1l-.4.6V69s-.2 0-.2-.2c-.1 0-.2.2-.1.3s.2.3.4.3h0c.1 0 .1 0 .2.1 0 0 .1 0 .1-.1 0 .7 0 1.4-.1 2h.2l-.5.7v2.3s-.2 0-.2-.2c-.1 0-.2.2-.1.3s.2.3.4.3l-.1-.1c.1 0 .1 0 .2.1 0 0 .1 0 .1-.1 0 .2 0 .5-.1.6.2-.3.2-.5.1-.7h.2v.1h-.1.1c0 .2 0 .3-.1.5h-.1l.2.7c-.3.1-.4.7-.7.8v.5l.2.2v2.3s-.2 0-.2-.2c-.1 0-.2.2-.1.3s.2.3.4.3l-.1-.1h.1c0 .7.1 1.4.1 2.2l-.3.5V85s-.2 0-.2-.2c-.1 0-.2.2-.1.3s.2.3.4.3l-.1-.1h.1c-.1.3 0 2.3-.4 1.7.1 1.6.3.4.6.4l-.4.6v2.3s-.2 0-.2-.2c-.1 0-.2.2-.1.3l.3.3c0 1.7-.2 3.2-.3 4.7-.1.1-.2.2 0 .3v1.2c.2.2.1-1 .2-.8.1 1.2.1 1.7 0 2.2l-.1.1v.3c-.1.4-.1.9 0 1.8l-.2-.5c0 .2.1.4.1.5-.1 0-.2.2-.1.3l.2.2c0 .3 0 .7-.1 1.2-.3.2-.2-1-.3-1.6 0 .8 0 2.9.3 2.3 0 .5 0 .8-.1 1.1 0 .1 0 .1-.1.2 0 .1 0 .2-.1.4 0 .2-.1.5-.1.7.1 0 .2-1.8.3-.7 0 .4-.1.8-.1 1.3v.2c-.1 1.8-.2 4.1-.2 6.1h2c-.1.1 0 .1-.2.2 1.4-.2 1.9-.1 2.5 0s1.4.3 3.3.2h4.1c1.4 0 2.8-.1 4.1-.1 2.8-.1 5.6-.1 8 0 1-.4 2.6-.4 4.1-.4l.2.5 1.3-.2c.5.2-1 .1-.1.3l.5-.3c.1.2 3.3.2 1.1.5l5 .1c1.1 0 .6-.4 1.9-.3.2.2-.4.1-.3.3 3.6.4 4.2-.9 7.6-.7l-.3.1c.6-.1 1.7-.1 1.7-.2-.4-.5-.6.3-1.7 0 .1-.4 1.3-.2 1.2-.5.8.2 1.3-.1 2-.1 1.2.3 2.9.1 3.8.5.6-.1 1.2-.6 2.5-.6.9.4-.2.3 1 .5l.2-.2c1 .1.8.1.8.2 1.1 0 .9-.3 2.2-.1l-.8.2c1-.1 1.4 0 2.8 0 0 .2-.6.1-1 .1.8.4 1.3-.1 1.7-.1-.1-.1-1.1-.2-.6-.4.7 0 1.5-.3 1.9 0l-.8.2c1.4-.2.8-.3 2.4-.2-.1 0-.1.1-.1.1-.1 0-.2 0-.2.1.2 0 .2 0 .2-.1 1-.3 2.4 0 3.9 0l-.3.1c.6-.1 1-.3 1.3-.3-.9-.2-.6-.2-.7-.5 1.2.4 1.8-.5 3.7-.2 0 .1-.5.3-1 .2-.7.4-.7.8-1.9 1 .6-.1 1.4-.1 1.4 0l.2-.4h1.1c.2-.2-.9-.4.1-.6.9-.1.8.2.8.3 1.6-.1.7-.4 2.2-.3-.1 0-.3.1-.5.1 1.1.1 2.6 0 2.8.4-.2.1-.2.2-.6.2v-.1c-1.1.3.7 0 .7.3.2-.2 1.5-.1 2.1 0l-.2-.3c2.3-.8-.1.6 2.1.5 1.4-.2-.5-.1.3-.3 1 .1 1.3.3 2.7.2.4.1 1.2.3 1.2.6.9-.1 2.6.2 3.1-.1-1.5-.3-1.5.3-3.2-.1l.5-.3c1.2 0 2.7-.1 3.5 0-.2-.1-.2-.2-.1-.2.8-.1 1.4-.2 1.9-.2.3 0 .5-.1.9-.1h1.6c.2.2-.1.2-.5.2h-1.4c.1 0 .2 0 .4.1h3.7c.3.3-1.8 0-2 .2h2.9v.1c.1-.3.9-.2 2-.1 0-.5.1-1.2 0-1.9v-.3c1 .3 1.7.4 1.9.4 0 .4 0 .7-.1.8.1-.1.2-.8.1-1.2l-.3-.1c-.1-.8.2-.2.2-1 .3 0 .3.7.3 1.4 0-.6.2-1.2-.1-1.4.9-.3 1.1.4 1.2-.3zm-100.3-77c-.1.1-.1 0-.2 0 0 0 .1.1 0 .2-.1-.1-.1 0-.2 0l.1-.1h.1v-.1l.1-.1v-.1l.1-.1v.3zm0 5.3c-.1.1-.1 0-.2 0 0 0 .1.1 0 .2-.1-.1-.1 0-.2 0l.1-.1h.1v-.1l.1-.1v-.1l.1-.1v.3zm0 5.3c-.1.1-.1 0-.2 0 0 0 .1.1 0 .2-.1-.1-.1 0-.2 0l.1-.1h.1v-.1l.1-.1V42l.1-.1v.3zm0 5.4c-.1.1-.1 0-.2 0 0 0 .1.1 0 .2-.1-.1-.1 0-.2 0l.1-.1h.1v-.4l.1-.1c.1.2.1.3.1.4zm0 5.3c-.1.1-.1 0-.2 0 0 0 .1.1 0 .2-.1-.1-.1 0-.2 0l.1-.1h.1v-.1l.1-.1v-.1l.1-.1v.3zm-.3 16c0 .1-.1.1 0 0h0zm0-5.2h-.1.1c0-.1 0-.1 0 0 0-.1 0-.1 0 0zm-.1 10.6c.1-.1.1 0 0 0h0zm.2-15.9c-.1-.1-.1 0-.2 0l.1-.1.1.1c0-.1 0-.1-.1-.2l.1-.1V58l.1-.1v.3s-.1-.1-.2 0c.1.1.2.1.1.2zm0 15.7s.1.1 0 .2h-.1c0-.1 0-.1.1-.2-.1.1-.1.1 0 0 0 0 0 .1 0 0l.1-.1v-.1l.1-.1v.1l.1.1c-.2.2-.2.1-.3.1zm7.4.9h-.1l.5-.6c-.2.2-.3.4-.4.6zm1.8 0h-1.2c.1-.1.3-.2.4-.4 0-.2-.1-.4-.1-.6.2 0 .5 0 .7.1v.2c0 .3.2.4.2.6v.1zm-1.4-29.8v-.5h.4v.1l-.4.4zm1 1.2l.3-.5c-.1.2-.2.4-.3.5zm.1-8.8h.2l-.1.1c0 .1 0 .1.1.2-.3.3-.6.5-.6.9l-.1-.1c.1.2-.3.3-.1.4v.1h-.1v.1l-.1.1h-.4c-.1-.9.3-1.1.4-1.7l.2-.2v-.1l.2-.2c0-.2-.1-.4-.1-.6.1-.1.2-.2.3-.2s.2.1.4.1v.4c.2-.1.1-.3.3-.3.1.2-.1.2.1.3-.5.3-.2.6-.6.7zm.6 8.8c.2-.3.4-.6.7-.9v.9h-.7zm4.4-25.1c0 .1 0 .1 0 0 .1.3 0 .5 0 .7-.1-.2-.1-.4 0-.7zm-.1 1.3h.2v.4h-.2c0 .1.4.2.4.6v1.1h-.4s0-.1.1-.1c-.1-.8-.1-1.4-.1-2zm-.3-1.3c-.2.3-.4.5-.5.7s-.3.4-.4.5v-1.4a2.39 2.39 0 0 0 .9.2zM13.94 60c0-.4.1-.8.1-1.2.1-.2.2-.3.4-.5v.1l.1-.3v.1l.3-.3h.3c.1 0 .1.1 0 .1 0 0 .1-.1.2 0-.2 0 .1.1-.1.2 0 0 0 .2.3.1-.1 0-.2.2-.3.1v.1l.1-.1c0 .1-.2.2.1.3 0 .1-.1.1-.1.2l-.1-.1v.2c0 .1-.1.1-.1.2-.2.2-.4.5-.5.8h-.7zm2.1 29.5h-1.1c.1-.2.2-.4.4-.6 0 0 0 .1.1.1 0-.4.5-.3.3-.6 0 0 .1 0 .1.1 0 0 0-.1.1-.1.1.2.2.4.4.4l.2-.1.2.1s-.7-.1-.6-.1c-.2.2-.1.5-.1.8zm72.6 12.9c0 .1 0 .1 0 0 .3.2 1.1-.1 1.3.1.1 0 .2-.1.1-.2h1c.3-.1.6-.1.9-.1h1v.3h-.3c-.4-.1-1.3-.1-1.6 0h-4c.5 0 1-.1 1.5-.1l-.1.1s.1-.1.2-.1zm2.8-5.3h1.1c0 .1.1.1.1.2h-1.6c-.1 0-.2.1-.3.1h-.1c.1 0 .2-.1.3-.1.2-.1.5-.1.5-.1v-.1zm-1.2-5.3s-.1.1 0 0c.3.2.9-.1 1.1.1.1 0 .1-.1.1-.2h1v.2h-3.6s-.1 0-.1-.1h1.4l-.1.1s.1-.1.2-.1zm.2-5.3s-.1.1 0 0c.3.3.9 0 1.1.1.1 0 .1-.1.1-.2h.8v.2h-2.1c-.4-.1-.8-.1-1.1 0h-.1.2c.3-.1.7-.1 1.1 0h-.1c-.1 0 0-.1.1-.1zm.9-5.2c.1 0 .3 0 .4-.1.1 0 .4-.1.5-.1v.2h-.3c-.7.1-1.1.2-1.6.1.3 0 .7-.1.9 0 .1 0 .1-.1.1-.1zm-1.3-5.4c.3.2.9-.1 1.2.1.1 0 .1-.1.1-.2h.8v.2h-3.6c.4 0 .9-.1 1.3-.1l-.1.1c.1 0 .2-.1.3-.1zm.2-5.3c.3.2.9-.1 1.1.1 0 0 .1 0 .1-.1v-.2h.1v.2h-2.7c.4 0 .9 0 1.3-.1l-.1.1h.2zm1-5.3h.2v.2c-.3.1-.6.1-1 0 .3 0 .7-.1.8 0 0-.1.1-.2 0-.2zm-1.1-5.3h0c.2.2.6.1.9.1v.1h-2.3c.4 0 .8-.1 1.3-.1l-.1.1c.1-.2.1-.2.2-.2zm.1-5.3s-.1 0 0 0c.1.2.4.1.6.1h-2c.4 0 .8-.1 1.3-.1l-.1.1c0-.1.1-.1.2-.1zm-1.4-5.2c.4 0 .8-.1 1.2-.1l-.1.1c.1 0 .2-.1.2-.1s0 .1-.1.1c.1.1.3.1.5 0h-1.7zm1.3-5.5c0 .1 0 .1 0 0 .1.2.4.1.7.1h-2.2c.4 0 .9-.1 1.3-.1l-.1.1c.1 0 .2-.1.3-.1zm.6-5.3c.1 0 .1-.1.2-.1v.1a.76.76 0 0 0-.4.2h-.4v-.1h.1s0 .1-.1.1c.2 0 .4 0 .6-.2zm-.6-5.3c0 .1 0 .1 0 0 .2.2.5.1.7.1v.1h-2.3c.4 0 .8-.1 1.3-.1l-.1.1c.2-.1.3-.2.4-.2zm-.5-5.3s0 .1 0 0c.3.2.9-.1 1.1.1v.1h-2.6c.4 0 .8-.1 1.3-.1l-.1.1c.2-.1.2-.2.3-.2zm.6-5.5c0 .1 0 .1 0 0 .1.2.3.2.6.2h.1v.1c-.7-.2-1.4-.3-2.2-.3h1.3c0 .1.1 0 .2 0zm-.2-5.1s0 .1 0 0c.2.2.7.1.9.1v.1h-2.4c.4 0 .9-.1 1.3-.1l-.1.1c.1-.1.2-.2.3-.2zm-.1-5.3h0c.3.2 1 0 1.2.1h-2.7c.4 0 .9-.1 1.3-.1l-.1.1c.2 0 .2-.1.3-.1zm-.3-5.2h.3l-.1.1c.1 0 .2-.1.2-.1s0 .1-.1.1c.3.2 1-.1 1.2 0 .1 0 .1-.1.1-.2h.3v.2h-1.9c.2-.1.1-.1 0-.1 0 .1 0 .2-.1.3-.2 0-.5.1-.7.1.2 0 .4-.1.7-.1 0-.2.1-.3.1-.3zm1.7 58v-.2c.1 0 .1.1 0 .2zm.3 3.1a.55.55 0 0 1-.3.5l-.1-.5h.4zm.6 26.5c-.1.1-.1 0-.2 0h.2zm-2.9-87.8l-.1.1c-.7.2-1.6.1-2.4.1.9 0 1.7-.1 2.5-.2zm-71.1 85.9c.8 0 1.9.1 2.8.1v.8c-.8-.1-1.7-.1-2.7-.1-.1-.2-.1-.6-.1-.8zm2.8-21.3v.6h-2.3v-.6h2.3zm1.8 34c.2 0 .5 0 .7-.1h.2l-.2.1h-.7zm17.4.3c-2 .2-3.5.2-5.5.3-.3-.5-.4 0-1.6-.3l.1.3c-2.8 0-6-.7-9-.6v-.1l7-.1v.1c2-.1 4 .2 6 .1 1.3.1 2.8-.1 4.1-.2.1.1.2.2.3.4.1.1.1.2.1.3-.7 0-1.6 0-1.5-.2zm-10.8-3.1s0-.1 0 0h0zm.3 0c.4-.2.8-.1 1.2 0h-1.2zm2.4 0h0zm47.2 4.3c-1.1 0 .9.2-.5.2-.4-.2-1.3.1-1.2-.2h.1-1l.6-.3c-.8 0-1.5.3-1.5.5-.8-.2-1.9 0-2.3-.3l.3-.1c-2.2.1-3.7-.8-5.5-.4-.1 0-.1-.1.1-.1h-1.3l.3-.2-2.3.3v-.2c-1.5-.1-3.9 0-5.8 0l.3-.1c-2.1.2-2.1-.2-3.6 0 .1 0 .1 0 .2-.1h-1.4l.3-.1c-.9.2-2.4-.2-2.4-.2s.1 0 .1.1c-.6.1-1.6.3-1.8.5-1.5 0-.4-.2-1.3-.3-1.1 0-1.3.2-2.8.1v-.1c-.7 0-1.1.1-2.1.1l.3-.1c-1.5.3-1.9-.4-3.1.1.3-.7.7-1.3 1.3-.7h6.7c.1.1.4.2.6.2.5.2 1.2.3 1.7.2v-.1c.2.1.4 0 .6-.2.1-.1.2-.1.2-.2h.2c.1 0 .1 0 .2.1s.2 0 .4-.1h1.3c.1 0 .1.1.1.2-.1 0 .2.2-.1.2.1 0 .6 0 .5-.2 0-.2.2-.3 0-.4v-2.5h-4.5c-.4-.1-1.3-.1-1.6 0h-4c.5 0 1-.1 1.5-.1l-.1.1c.1 0 .2-.1.3-.1 0 0 0 .1-.1.1.4.2 1.1-.1 1.4 0 .1 0 .2-.1.1-.2h1c.3-.1.6-.1.9-.1h.9c.6 0 1.2-.1 1.8-.1.1 0 .1.1.1.1.4-.1.8-.1 1.2-.2h1.7v1.9c.1 0 .1-.1.2 0 .1-.4-.2-.6 0-1.4h.1c0-.5-.2 0-.1-.5v-.1s0-.1.1-.1h-1.5c-.3 0-.6 0-.9.1-.1-.2-.6 0-.8-.2-.1.1-.3 0-.4.2h-1.5c-.5-.1-1-.1-1.6 0-1 0-2 .1-3 .1-1 .3-2.1-.1-3.3 0-.2 0-.4.1-.7.1h-.3c-.1 0-.3-.1-.4 0-.2.1-.2.1-.3.2-2.7-.3-5.5-.1-8.2-.2-.5 0-1.1 0-1.6-.1-.8 0-1.5-.1-2.4-.1h.1c-1.6 0-3.2 0-4.9.2l.1-.1c-.8.1-1.6 0-2.3 0 0-.8.1-1.7 0-2v.1c-.1-.2 0-.3 0-.4h1.3v.1h1.9c.2 0 .4-.1.6-.1.8-.1 1.7-.1 2.6-.1.9.1 1.8.1 2.7.2.4 0 .7 0 1.1-.1h1.7c.5.2 1.2.1 1.8 0h1.9c1.7.4 3.4.2 5.2 0l.1-.1c.5-.3 1.2-.3 1.6.1h2.6a26.62 26.62 0 0 1 3.9-.3c.5.1.9.2 1.4.2v-.1c.2.2.5 0 .7 0h.3l.1.1c.1.1.2 0 .3-.1.2 0 .4 0 .5.1h.6c.1 0 .1.1.1.2-.1 0 .2.2-.1.2.1 0 .5 0 .4-.2 0-.2.1-.3 0-.4v-2.5h-5.9c-.1 0-.2.1-.3.1h-.1c.1 0 .2-.1.3-.1.2-.1.5-.1.5-.1.1 0 .1-.1.1-.2 1.2 0 2.6-.1 3.8-.2.1 0 .1.1.1.1.3-.1.6-.1.8-.2h1.3v2.1c.1 0 .1-.1.2 0 .1-.4-.2-.6 0-1l.1.1c0-.4-.2-.1-.1-.5.1-.2.1 0 .1-.1v-.7h-1.4c-.1 0-.2 0-.3.1-.1-.2-.5 0-.7-.2-.1.1-.3 0-.3.2h-3.6c-.1 0-.3 0-.5.1l-.3.1h-.9c-.2.1-.4.1-.6 0-.1 0-.3-.1-.4-.1h-.4c-.5 0-1-.1-1.5-.1h-.3c-.2.2-.3.2-.4.2h-.4c-.1 0-.2.1-.3.1l-.3-.1c-.1-.1-.2 0-.3-.1h-1.9c-.2.1-.4.1-.5.2h-.3s-.1-.1-.2-.1h-3.3c-2.7-.1-5-.3-7.6.1v-.1c-.8.1-1.4-.1-2.1 0h-.4l-.4.2c-.3.1-.1.1-.5-.1h-2.1c-.7 0-1.3 0-1.9.1h-.4v-.6c.1-.5.3-1.2.2-1.9h1.5v.1c.9-.1 1.7 0 2.6 0l1.3.1c.5 0 .9-.1 1.3-.1.3 0 .7.1 1.1.1s.7 0 1.1-.1h.2c.5-.1 1-.1 1.5-.1h1.7c.3.1.6.1.9.1s.5 0 .8-.1c.4-.1 1.3-.1 1.7 0h.3c.5.1 1 .2 1.5.2h1.2c.1 0 .2 0 .4-.1h.8c.3 0 .5 0 .8-.1.2 0 .4 0 .6-.1h2.4c.4-.1.9-.1 1.3 0h4.8c.5.1 1 .2 1.5.2v-.1c.2.2.5 0 .7-.1h.2c.1 0 .1 0 .1.1.1.1.2 0 .3-.1h1.1c.1 0 .1.1.1.2-.1 0 .2.2-.1.2.1 0 .5 0 .4-.2 0-.2.1-.3 0-.4v-2.5h-8.1s-.1 0-.1-.1h1.4l-.1.1c.1 0 .2-.1.2-.1s0 .1-.1.1c.3.2 1-.1 1.2 0 .1 0 .1-.1.1-.2 1.2 0 2.6-.1 3.8-.2.1 0 .1.1.1.1.3-.1.6-.1.8-.2h1.3V93c.1 0 .1-.1.2 0 .1-.4-.2-.6 0-1l.1.1c0-.4-.2-.1-.1-.5.1-.2.1 0 .1-.1v-.7h-1.4c-.1 0-.2 0-.3.1-.1-.2-.5 0-.7-.2-.1.1-.3 0-.3.2-1.7-.1-3.5.1-5.3.1-.2.1-.4.1-.6.1h-.2l-.3-.2c-.2-.1-.5-.2-.8-.2h-.4l-.2.1h-.1c-.4-.1-.9 0-1.4.1l-.3.3c-.1 0-.1 0-.1.1-.2 0-.5-.1-.8-.1h-5.9c-2.7-.1-5-.3-7.6.1v-.1h-.2l-.2-.1c-.2-.1-.4-.1-.5-.1-.4-.1-.7-.1-1.1-.1l-1.4.3c-.1 0-.3.1-.3.1h-2.7s-.2.1-.2 0c.1-.1 0-.2.1-.3l-.2-.1c0-.3-.1-1.2-.2-1.9h.7v.1c.1 0 .3-.1.4-.1h.2c1.5 0 3 .2 4.5.1 1.2.1 2.5-.1 3.8-.2h1.7c.5.2 1.2.1 1.8 0h1.9c1.8.4 3.5.2 5.3 0h3.9c.3.2 1.2.2 1.5 0h2.9c.5.1 1 .2 1.5.2V89c.2.2.5 0 .7-.1h.2c.1 0 .1 0 .1.1.1.1.2 0 .3-.1h1.1c.1 0 .1.1.1.2-.1 0 .2.2-.1.2.1 0 .5 0 .4-.2 0-.2.1-.3 0-.4v-1.2c.2-1.5.2-1.5 0-1.3h-6.7c-.4-.1-.8-.1-1.1 0h-.1.2c.3-.1.7-.1 1.1 0h-.1c.1 0 .2-.1.2-.1s0 .1-.1.1c.3.2 1-.1 1.2 0 .1 0 .1-.1.1-.2 1.2 0 2.6-.1 3.8-.2.1 0 .1.1.1.1.2-.1.5-.1.7-.1h.8c.1 0 .2-.1.4.1l.2.2v.5c0 .2-.1.3-.1.5l-.1.5v.3c.1 0 .1-.1.2 0v-.4c0-.2 0-.3.1-.5l.1.1c.1-.2-.2-.1 0-.3.1-.1.1 0 .1 0v-.6c0-.1-.1-.4-.5-.5h-.7c-.1 0-.3.1-.4.1-.1-.2-.5 0-.7-.2-.1.1-.3 0-.3.2h-4.9c-.1 0-.3-.1-.4-.1-.2.1-.5.1-.7.2-.6 0-1.4-.2-2.1-.1-.3.1-.8.1-1.2.1l-.3.1c-2.3-.3-4.7-.1-7-.2h-.2c-2.6-.1-4.8-.3-7.3.1v-.1c-.8.1-1.4-.1-2.1 0-1 .1-2 .1-3 .1h-.1c-.5-.1-.8-.1-1.2-.1-.2 0-.4.1-.6.1-.1 0-.2 0-.2.1v-.1c.2-.1.1-.2.2-.3-.1.1-.2 0-.2 0 0-.3-.1 0-.2-.3s-.1-1.1 0-1.6h1.1c.1-.2.4-.1.6.1v.1c.1 0 .2.1.3.1s.2-.1.2-.2h.7c.2-.3.5-.4.8-.3a.76.76 0 0 1 .4.2c.1 0 .2.1.2.2h.3c.7 0 1.3.1 2 0 1.3.1 2.6-.1 3.9-.2h1.7c.6.2 1.2.1 1.8 0 .3-.5.8-.5 1.3 0h.4c.6.1 1.2.2 1.8.2h.5l.1-.1c.2-.1.3-.2.4-.2s.2-.1.3 0c0 0 .1 0 .1.1l.2.2c.6 0 .9-.1 1.4-.1h5.4c.4-.5 1.3-.5 1.9 0h1.3c.5.1 1 .2 1.5.2v-.1c.2.2.5 0 .7-.1h.2c.1 0 .1 0 .1.1.1.1.2 0 .3-.1h1.1c.1 0 .1.1.1.2-.1 0 .2.2-.1.2.1 0 .5 0 .4-.2 0-.2.1-.3 0-.4v-2.5h-4.9c-.7.1-1.1.2-1.6.1.3 0 .7-.1.9 0 .1 0 .1-.1.1-.2.1 0 .3 0 .4-.1.1 0 .4-.1.5-.1h1c.6 0 1.3-.1 1.9-.1.1 0 .1.1.1.1.3-.1.6-.1.9-.2h1.3v2.1c.1 0 .1-.1.2 0v-1l.1.1c0-.4-.2 0-.1-.5.1-.2.1 0 .1-.1v-.6h-1.4c-.1 0-.2 0-.3.1-.1-.2-.5 0-.7-.2-.1.1-.3 0-.3.2h-3.2l-.3.1c-.2 0-.4.1-.6 0-.2 0-.4 0-.6-.1h-.8c-.8.3-1.8-.1-2.8 0-.3.1-.8.1-1.2.1l-.3.1c-1.2-.1-2.3-.2-3.5-.2h-1.4c-.1 0-.3 0-.4.1h-.8c-.1 0-.3 0-.4-.1h-.5c-2.7-.1-5.1-.3-7.7.1l.1-.1h-1.1c-.2.1-.2.1-.3.1h-.5c-.1 0-.1-.1-.2-.1l-.5.1c-.2 0-.3.1-.5.1-.3.1-.6.1-.7 0h-.2c-1.1 0-2.1 0-3.1.1-.1 0-.1-.1-.1-.1h.1c0-.1-.3-.3-.3-.5h.2c-.2-.1-.1-.4-.1-.5.1-.2.3-.5.1-.8l.5-.2s-1.6-.1-3.3-.1c0-.8-.1-1.7-.1-2.6h1.9v2.3c.7 0 1.4 0 2.1-.1v.1c.9-.1 1.8 0 2.6 0l1.3.1h.7l.6-.1h2.1l.7-.1c.4 0 .7-.1 1.1-.1h1.7c.6.2 1.2.1 1.8 0h1.9c.2 0 .5.1.8.1h.8c.3 0 .5 0 .8.1h.8c.7 0 1.5-.1 2.2-.2h8.5c.5.1 1 .2 1.5.2v-.1c.2.2.5 0 .7-.1h.2c.1 0 .1 0 .1.1.1.1.2 0 .3-.1h1.1c.1 0 .1.1.1.2-.1 0 .2.2-.1.2.1 0 .5 0 .4-.2 0-.2.1-.3 0-.4v-2.5h-8.4c.4 0 .9-.1 1.3-.1l-.1.1c.1 0 .2-.1.2-.1s0 .1-.1.1c.3.2 1-.1 1.2 0 .1 0 .1-.1.1-.2 1.3 0 2.6-.1 3.9-.2.1 0 .1.1.1.1.3-.1.6-.1.9-.2h1.3v2.1c.1 0 .1-.1.2 0v-1l.1.1c0-.5-.2 0-.1-.5.1-.2.1 0 .1-.1v-.6h-1.5c-.1 0-.2 0-.3.1-.1-.2-.5 0-.7-.2-.1.1-.3 0-.3.2-1.8-.1-3.6.1-5.4.1-.8.3-1.9-.1-2.9 0-.3.1-.8.1-1.2.1l-.3.1c-1.3-.1-2.5-.2-3.8-.2h-.2c-.1-.2-.2-.3-.4-.5s-.5-.1-.8 0c-.2.1-.5.4-.6.5l-.1.1-.2-.1h-.7c-1 0-1.9-.1-2.8-.1h-2.5l-.2-.2c-.1-.1-.3-.1-.4-.1 0 0-.1-.1-.1-.2-.1-.1-.2-.1-.3-.1h-.2l-.3.3-.3.6v-.1c-.1.1-.1.2-.2.3 0 0-.1 0-.1.1v.1l-.2-.1h-.2s-.1 0-.1-.1c-.1-.1-.2-.2-.2-.3h-.5c-1.8.3-3.7 0-5.4.2 0-.2-.2-.6-.2-.7-.1-.2-.1-.6-.3-.8.2 0 .1-.1.2-.1h-.2c0-.1-.1 0-.2-.1-.2-.1 0-.6.2-.7h-.1 1.2v.1c1.7-.1 3.4.2 5.1.1.9.2 2 .1 3 0 .2 0 .3 0 .5-.1.4 0 .8 0 1.1-.1h.9c.5.2 1.2.1 1.8 0h1.9c.6.1 1.2.3 1.9.3s1.3 0 2-.1c.4 0 .8-.2 1.2-.2h3.9a5.44 5.44 0 0 0 1.8 0h2.8c.5.1 1 .2 1.5.2v-.1c.2.2.5 0 .7-.1h.2c.1 0 .1 0 .1.1.1.1.2 0 .3-.1h1.1c.1 0 .1.1.1.2-.1 0 .2.2-.1.2.1 0 .5 0 .4-.2 0-.2.1-.3 0-.4v-2.5h-8.1c.4 0 .9 0 1.3-.1l-.1.1c.1 0 .2-.1.2-.1s0 .1-.1.1c.3.2 1-.1 1.2 0 .1 0 .1-.1.1-.2 1.2 0 2.5-.1 3.8-.2.1 0 .1.1.1.1.3-.1.5-.1.8-.2h1.3v2.1c.1 0 .1-.1.2 0 .1-.4-.2-.6 0-1l.1.1c0-.4-.2-.1-.1-.5.1-.2.1 0 .1-.1v-.7h-1.3c-.1 0-.2 0-.3.1-.1-.2-.5 0-.7-.2-.1.1-.3 0-.3.2-1.7-.1-3.5.1-5.3.1-.6.2-1.2.1-1.9 0-.3 0-.6-.1-.9 0s-.8.1-1.2 0c-.1 0-.2.1-.3.1-.5-.1-1.2-.1-1.8-.1h-1.7c-1.2 0-2.3.1-3.5 0-1.3 0-2.6-.1-3.8-.1-.6 0-1.2 0-1.9.1-.3 0-.6.1-.9.1-.2.1-.6 0-.9 0 0 0 0-.1.1-.1h-1.2c-.2 0-.4.1-.5.1h-.5c-1.5.2-3.1.1-4.6.2-.1-.1-.1-.3-.1-.3-.1-.2-.1-.6-.3-.8.2 0 .1-.1.2-.1h-.2c0-.1-.1 0-.2-.1-.2-.1 0-.6.2-.7-.3-.1-.1-.1-.2-.2h.1v-.1h.4c.6 0 1.2 0 1.8-.1v.1h.4c.1-.2.2-.4.4-.6.2-.1.3-.2.5-.2.2.1.5.2.5.5.1.2.1.5.4.8.1.2.4.1.6.1.2-.1.3-.1.4-.2.2-.2.5-.3.4-.2l-.1.1h.5c1.3.1 2.6-.1 3.9-.2h1.7c.6.2 1.2.1 1.8 0h2c1.4.3 2.9.3 4.2.1l.2.1c.1.1.2.1.3.1.3-.1.3-.3.4-.4h2c.3.4.8.4 1.3 0h5c.5.1 1 .2 1.5.2v-.1c.2.2.5 0 .8-.1h.2c.1 0 .1 0 .1.1.1.1.2 0 .3-.1h1.1c.1 0 .1.1.1.2-.1 0 .2.2-.1.2.1 0 .5 0 .4-.2 0-.2.1-.3 0-.4v-2.5h-5.4c-.3.1-.7.1-1.2 0 .3 0 .7-.1.8 0 .1 0 .1-.1.1-.2 1.3-.2 2.6-.1 3.9-.3.1 0 .1.1.1.1.3-.1.6-.1.9-.2h1.3v2.1c.1 0 .1-.1.2 0v-1l.1.1c0-.5-.2 0-.1-.5.1-.2.1 0 .1-.1v-.6h-1.5c-.1 0-.2 0-.3.1-.1-.2-.5 0-.7-.2-.1.1-.3 0-.3.2h-3.2l-.2.1c-.2 0-.4.1-.6.1h-1.4c-.8.3-1.9-.1-2.9 0-.3.1-.8.1-1.2.1l-.3.1h-7.2c-2.7-.1-5.1-.4-7.7.2l.1-.1h-1.1c-.4 0-.7 0-1.1.1s-.9.1-1.3.1h-1.4c-.9 0-1.8 0-2.7.1h-.5v1.7h-2.3c0-.7.1-1.7.1-1.9v.1c-.2-.4.1-.3.2-.6-.2 0-.4-.2-.4-.3l4.5.2s0 .1-.1.1c.1 0 .1-.1.1-.1h-.2c-.1-.1.1 0 .1-.1.2 0 .2.1.2.2 0-.1.2-.2 0-.2.1-.1.2 0 .3-.1-.1-.1-.2-.1-.1-.2.2-.2-.3-.3-.1-.4h.1c.1-.1 0-.2.1-.3 0 0-.2.1-.2 0 .1-.1 0-.2.1-.3l-.2-.1v-.1h.4v.1h.8c.1-.1.2-.1.3-.1.2 0 .5-.1.7 0 .2 0 .5 0 .7.1.3 0 .4 0 .7.1h.1c.6 0 1.2 0 1.8-.1 1.3 0 2.6-.2 4-.2h.3c.4 0 .8 0 1.2.1.5.2 1.2.1 1.8.1h2c1.1.2 2.1.3 3.2.2h.1v-.1c.1-.1.4-.2.6-.2.3 0 .5 0 .8.1.2 0 .3 0 .5-.1h6.2c.7-.1 1.4-.2 2.1-.2.2.1.5.1.7.2l.4.1h.4v-.1c.2.2.5 0 .7-.1h.2c.1 0 .1 0 .1.1.1.1.2 0 .3-.1h1.1c.1 0 .1.1.1.2-.1 0 .2.2-.1.2.1 0 .5 0 .4-.2 0-.2.1-.3 0-.4v-2.5h-8.3c.4 0 .8-.1 1.3-.1l-.1.1c.1 0 .2-.1.2-.1s0 .1-.1.1c.3.2 1-.1 1.2 0 .1 0 .1-.1.1-.2 1.2 0 2.6-.1 3.8-.2.1 0 .1.1.1.1.3-.1.6-.1.8-.2h1.3v2.1c.1 0 .1-.1.2 0 .1-.4-.2-.6 0-1l.1.1c0-.4-.2-.1-.1-.5.1-.2.1 0 .1-.1v-.7h-1.5c-.1 0-.2 0-.3.1-.1-.2-.5 0-.7-.2-.1.1-.3 0-.3.2-1.7-.1-3.5.1-5.3.1-.8.3-1.8-.1-2.8 0-.3.1-.8.1-1.2.1l-.3.1c-.9-.1-1.8-.1-2.7-.2h-.8c-.4.1-.5.2-.7.3-.4.1-.8 0-.9-.1l-.1-.1h-1.7c-.7 0-1.3-.1-2-.1h-1.4c-.1 0-.3 0-.4.1s-.1.1-.2.1c-.2.1-.5.1-.7.1-.1 0-.2 0-.3-.1 0 0-.1 0-.2-.1l-.2-.1h-1.3c-.3 0-.6.1-1 .1v-.1c-.8.1-1.4-.1-2.1 0s-1.4.1-2.1.1h-.1l-.1.1c-.1.1-.4.2-.6.2-.1 0-.3 0-.4-.1-.1 0-.1 0-.2-.1-.1 0-.1-.1-.2-.2h-.4c-.2 0-.4 0-.6.1 0-.7-.1-1.6-.3-2.1.2-.1.1-.2.2-.3-.1.1-.2 0-.2 0h1.1v.1h1.8c.1.1.3.1.4.2h.9c.1 0 .2.1.4.2.6 0 1-.1 1.5-.2.9-.1 1.7-.5 2.6-.4.2 0 .4.1.7.1h.7c.4 0 .8.1 1.1 0h.2c.5.1 1.2 0 1.8-.1h.5c.6 0 1.2.1 1.7 0 .4.1.8.1 1.2.2 1.3.1 2.5 0 3.8-.2h8.4c.5.1 1 .2 1.5.2v-.1c.2.2.5 0 .7-.1h.2c.1 0 .1 0 .1.1.1.1.2 0 .3-.1h1.1c.1 0 .1.1.1.2-.1 0 .2.2-.1.2.1 0 .5 0 .4-.2 0-.2.1-.3 0-.4V55h-8.2c.4 0 .8-.1 1.3-.1l-.1.1c.1 0 .2-.1.2-.1s0 .1-.1.1c.3.2 1-.1 1.2 0 .1 0 .1-.1.1-.2 1.2 0 2.6-.1 3.8-.2.1 0 .1.1.1.1.3-.1.6-.1.8-.2h1.3v2.1c.1 0 .1-.1.2 0 .1-.4-.2-.6 0-1l.1.1c0-.4-.2-.1-.1-.5.1-.2.1 0 .1-.1v-.7h-1.4c-.1 0-.2 0-.3.1-.1-.2-.5 0-.7-.2-.1.1-.3 0-.3.2-1.7-.1-3.5.1-5.3.1-.8.3-1.8-.1-2.8 0-.3.1-.8.1-1.2.1l-.3.1c-1.2-.1-2.3-.2-3.5-.2h-2.7c-.1 0-.5-.1-.8-.2-.5-.1-1-.2-1.5-.1h-.7c-.1 0-.3 0-.4.1-.1 0-.3.1-.3.1h-3.4c-.4 0-.8 0-1.3.1l.1-.1h-2c-.6 0-1.1.1-1.6.3-.2 0-.2 0-.4-.1s-.3-.1-.5-.1c-.3 0-.7 0-1 .1-.1 0-.2.1-.2.1h-.5s0-.1-.1-.1c.1-.1.2 0 .3-.1-.1-.1-.2-.3-.1-.4.2-.3-.3-.5-.1-.8h.1c.1-.1 0-.3.1-.5 0 .1-.2.1-.2 0s.1-.1.1-.2h.8v.1c.4-.1.7-.1 1-.2.2 0 .4-.1.5-.1h1c.2 0 .3 0 .4.1.2.1.3.2.6.2.3-.1.4-.2.5-.3h.9c1.2.1 2.5-.1 3.8-.2h1.7c.6.2 1.2 0 1.8 0 .6.2 1.2.3 1.7.2h.8c.1 0 .2-.1.3 0 .1 0 .3.1.4.1.5.1 1.1.2 1.6.2.8 0 1.5-.1 2.3-.2.8 0 1.6-.1 2.4-.2h5.8c.5.1 1 .2 1.5.2v-.1c.2.2.5 0 .7-.1h.2c.1 0 .1 0 .1.1.1.1.2 0 .3-.1h1.1c.1 0 .1.1.1.2-.1 0 .2.2-.1.2.1 0 .5 0 .4-.2 0-.2.1-.3 0-.4v-2.5h-8.1c.4 0 .8-.1 1.2-.1l-.1.1c.1 0 .2-.1.2-.1s0 .1-.1.1c.3.2 1-.1 1.2 0 .1 0 .1-.1.1-.2 1.2 0 2.5-.1 3.8-.2.1 0 .1.1.1.1.3-.1.5-.1.8-.2h1.3v2.1c.1 0 .1-.1.2 0 .1-.4-.2-.6 0-1l.1.1c0-.4-.2-.1-.1-.5.1-.2.1 0 .1-.1v-.7h-1.4c-.1 0-.2 0-.3.1-.1-.2-.5 0-.7-.2-.1.1-.3 0-.3.2-1.7-.1-3.5.1-5.3.1-.8.3-1.8-.1-2.8 0-.2 0-.3.1-.5.1h-.7v.1c0 .1 0 .2-.1.2v-.3l-.3.1c-2.3-.3-4.7-.1-7-.2-1 0-2-.1-3-.1-1.5-.1-3 0-4.6.2v-.1h-2.3c-1.4.2-3 0-4.4.2-.1-.8-.1-1.5-.1-1.8V47h.8v.1c1.3-.1 2.6.1 3.9.1h.2c.2-.1.3-.2.4-.2s.1.1.2.1.2.1.4.1c1 .1 1.9 0 3-.1.2-.1.4-.2.7-.3h.2c.3 0 .6.1.8.2h.8c.6.2 1.2.1 1.8 0h1.7c.1 0 .1-.1.2-.1.2-.1.5-.1.7 0 .1 0 .2.1.3.1s.3.2.4.2h1.2l.4-.2a1.95 1.95 0 0 1 1.5 0h9c.5.1 1 .2 1.5.2v-.1c.2.2.5 0 .7-.1h.2c.1 0 .1 0 .1.1.1.1.2 0 .3-.1h1.1c.1 0 .1.1.1.2-.1 0 .2.2-.1.2.1 0 .5 0 .4-.2 0-.2.1-.3 0-.4v-2.5h-8.3c.4 0 .9-.1 1.3-.1l-.1.1c.1 0 .2-.1.2-.1s0 .1-.1.1c.3.2 1-.1 1.2 0 .1 0 .1-.1.1-.2 1.2 0 2.6-.1 3.8-.2.1 0 .1.1.1.1.3-.1.6-.1.9-.2h1.3v2.1c.1 0 .1-.1.2 0 .1-.4-.2-.6 0-1l.1.1c0-.4-.2 0-.1-.5.1-.2.1 0 .1-.1v-.7h-1.4c-.1 0-.2 0-.3.1-.1-.2-.5 0-.7-.2-.1.1-.3 0-.3.2-1.8-.1-3.5.1-5.3.1-.3.1-.7.1-1 .1h-1.2c-.1.1-.2.1-.2.2h-.3c-.1 0-.2 0-.5-.2h-.6s-.1 0-.1.1c-.1.1-.1.2-.2.2h-.8c-.1 0-.1 0-.2-.1-.1 0-.1 0-.2-.1s-.2-.1-.3-.1h-2.4c-.1 0-.1.1-.2.1-.3.2-.8.2-1.3.2s-1 0-1.4-.1c-.1 0-.2 0-.2-.1h-.1l-.2-.1c-.7 0-1.3-.1-1.9-.1h-2.2l-.2.1c-.1 0-.2.1-.4.1-.3.1-.5.1-.8.1s-.5 0-.8.1h-.8l.1-.1c-.2 0-.4 0-.5-.1-.2 0-.3-.1-.6-.1h-1.1c-.7.1-1.4.1-2.1.1h-2.2c-.3.2-.3.2-.5.3a4.44 4.44 0 0 0-.2-1.3c.2-.2.1-.4.2-.6-.1.1-.2.1-.2 0 0-.6-.1 0-.2-.6v-.1h.9v.1h.7c1.5 0 3 .2 4.5.1 1.3.1 2.6-.1 3.9-.2h1.6c.6.2 1.2.1 1.8 0h1.9c.1 0 .3-.1.3-.1.1 0 .1-.1.2 0 .2.1.4.2.7.3.2 0 .5.1.7.1h1.4c.6 0 1.2-.1 1.9-.2h8.6c.5.1 1 .2 1.5.2V42c.2.2.5 0 .7-.1h.2c.1 0 .1 0 .1.1.1.1.2 0 .3-.1h1.1c.1 0 .1.1.1.2-.1 0 .2.2-.1.2.1 0 .5 0 .4-.2 0-.2.1-.3 0-.4v-2.5h-4.5c-.3-.4-1.2-.4-1.9 0h-.4v-.1h.1s0 .1-.1.1a.47.47 0 0 0 .6-.1c.2-.1.4-.2.5-.1.1 0 .1-.1.1-.2.3 0 .7-.1 1.1.2.9 0 1.8-.1 2.7-.2.1 0 .1.1.1.1.3-.1.6-.1.9-.2h1.3v2.1c.1 0 .1-.1.2 0v-1l.1.1c0-.4-.2 0-.1-.5.1-.2.1 0 .1-.1v-.6h-1.4c-.1 0-.2 0-.3.1-.1-.2-.5 0-.7-.2-.1.1-.3 0-.3.2h-2.2c-.2-.2-.5-.2-.7-.2-.3 0-.5 0-.8.1-.1 0-.3.1-.4.1s-.1.1-.2.1h-.5a.76.76 0 0 0-.4-.2c-.1 0-.3 0-.3.1-.1.1-.2.2-.3.2-.6 0-1.3-.2-2-.1-.3.1-.8.1-1.2.1l-.3.1c-1-.1-2.1-.2-3.1-.2h-1c-.1-.1-.3-.1-.4-.1-.3-.1-.7 0-1 .2-.2.1-.3.3-.5.4-.1 0-.1-.1-.1-.1l-.2-.1c-.1-.1-.2-.1-.3-.2-.7-.3-1.4-.3-2.1-.3-.3 0-.7 0-1 .1-.2 0-.4.1-.4.1h-.4c-1.2 0-2.4 0-3.7.2l.1-.1c-.8.1-1.4-.1-2.2 0-1.2.2-2.6.1-3.7.1h-.1s-.1 0-.1-.1c-.5-.3-1-.2-1.4 0-.1 0-.2.1-.3.1 0-.4.1-.7.1-.9-.3-.3-.1-.7-.2-1h.1v-.4h1.7v.1h3c.3 0 .7-.1.9 0 0 0 .1.1.2.1s.2.1.3.1h.7c.5.1 1 .1 1.5 0 .3 0 .4-.1.7-.1a1.08 1.08 0 0 0 .7-.3h.6s.1 0 .1.1h.1c.4.1.9.1 1.3 0 .1 0 .2-.1.3-.1.3.1.6.1 1 .1.2.2.5.2.7.2.3 0 .7 0 1-.1h.9c.2 0 .4.1.6.1h.7c.2.1.5.2.7.1.1 0 .3 0 .4-.1s.2-.1.3-.2c.5 0 1.2-.1 1.7-.1.2.1.5.1.7.1.3 0 .6-.1.9-.2h1.2c.6.3 1.5.3 1.9 0h.4c.7.4 1.3.5 2 .4h.2c.5-.1 1.1-.1 1.7-.2.3 0 .5 0 .8-.1.1 0 .2-.1.3-.1h.4v-.1c.2.1.4.1.7.1h.2c.1 0 .1 0 .2.1s.2 0 .3-.1h1.1c.1 0 .1.1.1.2-.1 0 .2.2-.1.2.1 0 .5 0 .4-.2 0-.2.1-.3 0-.4v-2.5h-8.2c.4 0 .8-.1 1.3-.1l-.1.1c.1 0 .2-.1.2-.1s0 .1-.1.1c.3.2 1-.1 1.2 0 .1 0 .1-.1.1-.2 1.2 0 2.6-.1 3.8-.2.1 0 .1.1.1.1.3-.1.6-.1.8-.2h1.3v2.1c.1 0 .1-.1.2 0 .1-.4-.2-.6 0-1l.1.1c0-.4-.2 0-.1-.5.1-.2.1 0 .1-.1v-.7h-1.5c-.1 0-.2 0-.3.1-.1-.2-.5 0-.7-.2-.1.1-.3 0-.3.2h-2.6c-.9 0-1.8.1-2.7.1-.8.3-1.8-.1-2.8 0-.3.1-.8.1-1.2.1l-3-.2c-2.3-.3-4.7-.1-7.1-.2-1.6-.1-3.1-.1-4.6-.1-.4 0-.9 0-1.3.1-.6 0-1.2.1-1.8.2v-.1c-.8.1-1.4-.1-2.1 0-1.7.2-3.4 0-5.1.2-.1-.1-.1-.2-.1-.2h.1c0-.2-.3-.6-.3-.8h.2c-.2-.2-.1-.7-.1-.8 0-.2.1-.4.1-.6h2v.1c1.7-.1 3.4.2 5.1.1h2c.1 0 .1-.1.2-.1.2-.1.3-.3.5-.2.2 0 .4.3.6.2h2.1c.5.2 1.2.1 1.8 0h1.9c1 .2 2.1.3 3.1.2h.6l.2-.1c.2-.1.5-.2.7-.3.2 0 .4-.1.6-.1.4 0 .8.1 1.2.3h.9c.9-.4 1.4-.4 2.4 0h.3c.8-.4 1.7-.4 2.8 0h.3c.5.1 1 .2 1.5.2v-.1c.2.2.5 0 .7-.1h.2c.1 0 .1 0 .1.1.1.1.2 0 .3-.1h1.1c.1 0 .1.1.1.2-.1 0 .2.2-.1.2.1 0 .5 0 .4-.2 0-.2.1-.3 0-.4v-.6c-.2-1.5-.2-1.5-1.2-1.8h-7.6c.4 0 .8-.1 1.3-.1l-.1.1c.1 0 .2-.1.2-.1s0 .1-.1.1c.3.2 1-.1 1.2 0 .1 0 .1-.1.1-.2 1.2 0 2.5-.1 3.8-.2.1 0 .1.1.1.1.3-.1.5-.1.8-.2h.5c.1 0 .3.1.5.1.2.1.4.2.5.4s.2.4.2.5c.1.3.1.6.1.9.1 0 .1-.1.2 0 0-.4-.3-.6-.2-1h.1c-.1-.3-.2 0-.3-.4 0-.2.1 0 .1-.1-.1-.2-.3-.3-.5-.4s-.3-.1-.5-.2c-.1 0-.3-.1-.5-.1-.1 0-.2.1-.4.1-.1-.2-.5 0-.7-.2-.1.1-.3 0-.3.2-1.7-.1-3.5.1-5.3.1-.8.3-1.8-.1-2.8 0-.3.1-.8.1-1.2.1l-.3.1c-2.3-.3-4.7-.1-7-.2-.8 0-1.6-.1-2.4-.1l-.2.1h-.5l-.2-.2h-1c-.1 0-.3.1-.4.1-.3.1-.6.1-.9.2-.3 0-.6 0-1 .1h-1.1l.1-.1h-1.7c-.1 0-.2.1-.4.1l-.1.1c-.1.1-.2 0-.5-.1h-.2c-1.5.1-3-.1-4.5.2h-1v1.4c-.7 0-1.4-.1-2.2-.1-.1-.3.1-.3.2-.6a.55.55 0 0 1-.5-.4h.1c0-.2-.3-.6-.3-.9h.2c-.1-.1-.1-.3-.1-.5l4.8.6c0 .1 0 .2-.1.3.1 0 .1-.3.1-.4h-.2c-.1-.3.1-.1.1-.4.2 0 .2.2.2.5 0-.2.2-.4 0-.5.1-.2.2 0 .3-.2-.1-.2-.2-.4-.1-.6.1-.3-.1-.5-.1-.8h.3v.1c.9 0 1.7-.1 2.6 0 .4 0 .8.1 1.3.1h2c.3 0 .4-.1.7-.1h1c.1 0 .2-.1.4-.1.2-.1.4-.1.7 0h1c.2 0 .4-.1.7-.1h.4c.1 0 .3.1.4.1h.5c.3 0 .6-.1.9-.1h1.9c1.9.4 3.8.2 5.7-.1.2 0 .4 0 .7.1h7.3c.5.1 1 .2 1.5.2v-.1c.2.2.5 0 .7-.1h.2c.1 0 .1 0 .1.1.1.1.2 0 .3-.1h.5c.2 0 .3 0 .4-.1h.3c.1 0 .1.1.1.2-.1 0 .2.2-.1.2.1 0 .5.1.4-.1.1-.2.2-.3 0-.5v-.2c-.2-.7-.2-.7 0-1.4V23h-5.9c-.7-.2-1.5-.3-2.3-.3h1.3c.1 0 .2-.1.3-.1l-.1.1c.1.1.4.1.6.2h.5c.1 0 .1-.1.1-.2 1.2 0 2.6-.1 3.8-.2.1 0 .1.1.1.1.3-.1.5-.1.8-.2h1.3v1.4c-.1.2-.1.3-.2.5 0 .1-.1.2-.1.3.1 0 .1-.1.2 0v-.3c0-.1.1-.4.1-.6l.1.1c.1-.4-.2-.1-.1-.5.1-.2.1 0 .1-.1v-.7c0-.1 0-.1-.1-.1h-1.2c-.1 0-.2.1-.4.1-.1-.2-.5 0-.7-.2-.1.1-.3 0-.3.2h-3.8c-.5-.1-.9-.2-1.4-.2-.9.2-1.9-.2-2.9.1-.3.1-.8.2-1.1.3 0 0-.2.1-.3.1h-.2c0-.1 0-.1-.1-.2s-.2-.2-.3-.2-.4 0-.5.2v.1c-1.8-.1-3.6 0-5.4-.1-2.7-.1-5-.3-7.6.1v-.1c-.8.1-1.4-.1-2.1 0-1.5.2-3.2 0-4.7.2 0-.7-.1-1.5-.1-2.4 1.7-.1 3.4.2 5.1.1 1.3.1 2.6-.1 3.9-.2h1.7c.6.2 1.2.1 1.8 0h1.9c1.8.4 3.6.2 5.4 0h8.5c.5.1 1 .2 1.5.2v-.1c.2.2.5 0 .8-.1h.2c.1 0 .1 0 .1.1.1.1.2 0 .3-.1h1.2c.1 0 .1.1.1.2-.1 0 .2.2-.1.2.1 0 .5 0 .4-.2 0-.2.1-.3 0-.4v-2.5h-8.4c.4 0 .9-.1 1.3-.1l-.1.1c.1 0 .2-.1.3-.1 0 0 0 .1-.1.1.3.2 1-.1 1.2 0 .1 0 .1-.1.1-.2 1.3 0 2.6-.1 3.9-.2.1 0 .1.1.1.1.3-.1.6-.1.9-.2h1.3v2.1c.1 0 .1-.1.2 0v-1l.1.1c0-.5-.2 0-.1-.5.1-.2.1 0 .1-.1v-.6h-1.5c-.1 0-.2 0-.3.1-.1-.2-.5 0-.7-.2-.1.1-.3 0-.3.2-1.8-.1-3.6.1-5.4.1-.8.3-1.9-.1-2.9 0-.3.1-.8.1-1.2.1l-.3.1c-2.4-.3-4.8-.1-7.2-.2-1.1 0-2.2-.1-3.3-.1h-2.9c-.2-.4-.5-.9-.9-.8 0 0 0-.1.1-.1-.3 0-.5.2-.7.3l-.5.5c-.1.1-.2.1-.2.2h-.5c-.3.1-.7.1-1 .1h-.9c0-.1-.1-.2-.2-.3a.78.78 0 0 0-.4-.4c-.3-.2-.7-.1-.9.2-.1.1-.2.3-.3.4s-.1.2-.2.2c-.2 0-.5 0-.7.1h-.3v-.5c0-.5 0-1.2-.1-2h1.4v.5s0-.1.1-.1c.1-.1.1-.1.2-.1l-.1.3v.1c.3-.6.3-.3.4-.3.1.1.2.1.3.2h.2c.1-.1.1-.1.1-.2v-.3c.6 0 1.2.1 1.8.1h.5c.1-.1.2 0 .3.1l.1.2c.1.1.2.1.2.2.1.1.3.2.5.3.3.2.7.1.9-.1.2-.3.3-.6.4-.8 0-.1 0-.2.1-.3s.1-.2.1-.2c.1 0 .3.4.4.6h2.6c.6.2 1.2.1 1.9 0h2c1.9.4 3.7.2 5.5 0h8.7c.5.1 1 .2 1.5.2v-.1c.2.2.5 0 .8-.1h.2c.1 0 .1 0 .1.1.1.1.2 0 .3-.1h.3c.1-.2.2-.3.3-.3h.2c.1 0 .1 0 .2.1.1 0 .1.1 0 .2-.1-.1.1.2-.2.2 0 .1.4.3.4.1.1-.1.4-.2.2-.4l-.1.1v-.2c-.2-.1-.2-1.1 0-.9v-1.3h-8.5c.4 0 .9-.1 1.3-.1l-.1.1c.1 0 .2-.1.3-.1 0 0 0 .1-.1.1.3.2 1-.1 1.2 0 .1 0 .1-.1.1-.2 1.3 0 2.7-.1 4-.2.1 0 .1.1.1.1.3-.1.6-.1.8-.2h1.3v1.8l-.4.1v.1c.1 0 0-.1.1 0h-.1.1l.6-.1c0-.1-.1-.2-.1-.3v-.4l.1.1c0-.4-.2 0-.1-.5.1-.2.1 0 .1-.1v-.8h-1.4c-.1 0-.2 0-.3.1-.1-.2-.6 0-.7-.2-.1.1-.3 0-.3.2-1.8-.1-3.6.1-5.5.1-.9.3-1.9-.1-2.9 0-.3.1-.8.1-1.2.1l-.3.1c-2.4-.3-4.9-.1-7.3-.2-2.8-.1-5.2-.3-7.9.1l.1-.1h-.3c-.2 0-.2.1-.3.1-.2 0-.3.1-.5.1h-1c-.5.1-.9 0-1.3 0h-2.3c0-.7-.1-1.4-.2-1.9.1-.1.1-.3.1-.5h.7v.1h.6c.8-.1 1.5-.1 2.3 0l1.1.1.6.1c.3 0 .4 0 .6-.1.9 0 1.8-.1 2.7-.1.4 0 .8 0 1.2-.1h1.6c.6.2 1.3 0 2-.1h1.7c1.9.4 3.8.2 5.7 0h1.4c1.6-.1 2.9-.1 4.2 0h2.3c.5.1 1.1.3 1.6.2v-.1c.2.2.5 0 .7-.1h.2c.1 0 .1 0 .1.1.1.1.2 0 .3-.1h1.1c.1 0 .1.1.1.2-.1 0 .2.2-.1.2.1 0 .5 0 .4-.2 0-.2.1-.3 0-.4V8.5h.4v.6c.1 0 .1-.1.2 0 .1-.2 0-.4-.1-.6h5.6v1.8c.8 0 1.6 0 2.5-.1v.1h.6c.8-.1 1.5-.1 2.3 0l1.1.1.6.1c.3 0 .4 0 .6-.1.9 0 1.8-.1 2.7-.1.4 0 .8 0 1.2-.1h1.6c.6.2 1.3 0 2-.1h1.7c1.9.4 3.8.2 5.7 0h1.4c1.6-.1 2.9-.1 4.2 0h1.1c0 .8-.1 1.5-.1 2.3h-1.9c-.9.3-1.9-.1-2.9 0-.3.1-.8.1-1.2.1l-.3.1c-2.4-.3-4.9-.1-7.3-.2-2.8-.1-5.2-.3-7.9.1l.1-.1h-.3c-.2 0-.2.1-.3.1-.2 0-.3.1-.5.1h-1c-.5.1-.9 0-1.3 0h-3.4c-.3 0-.5 0-.8.1v2.9h3.3v.5s0-.1.1-.1c.1-.1.1-.1.2-.1l-.1.3v.1c.3-.6.3-.3.4-.3.1.1.2.1.3.2h.2c.1-.1.1-.1.1-.2v-.3c.6 0 1.2.1 1.8.1h.5c.1-.1.2 0 .3.1l.1.2c.1.1.2.1.2.2.1.1.3.2.5.3.3.2.7.1.9-.1.2-.3.3-.6.4-.8 0-.1 0-.2.1-.3s.1-.2.1-.2c.1 0 .3.4.4.6h2.6c.6.2 1.2.1 1.9 0h2c1.9.4 3.7.2 5.5 0h7.1c0 .7 0 1.5-.1 2.2h-1.6c-.8.3-1.9-.1-2.9 0-.3.1-.8.1-1.2.1l-.3.1c-2.4-.3-4.8-.1-7.2-.2-1.1 0-2.2-.1-3.3-.1h-2.9c-.2-.4-.5-.9-.9-.8 0 0 0-.1.1-.1-.3 0-.5.2-.7.3l-.5.5c-.1.1-.2.1-.2.2h-.5c-.3.1-.7.1-1 .1h-.9c0-.1-.1-.2-.2-.3a.78.78 0 0 0-.4-.4c-.3-.2-.7-.1-.9.2-.1.1-.2.3-.3.4s-.1.2-.2.2c-.2 0-.5 0-.7.1h-2.3v2.8c.6 0 1.3 0 1.9-.1v.1c1.8-.1 3.5.2 5.3.1 1.3.1 2.6-.1 3.9-.2h1.7c.6.2 1.2.1 1.8 0h1.9c1.8.4 3.6.2 5.4 0h6.9v.7c-.1.1-.1 0-.1-.1 0 .6.1 1.1.1 1.6-.4-.1-.8-.2-1.2-.2-.9.2-1.9-.2-2.9.1-.3.1-.8.2-1.1.3 0 0-.2.1-.3.1h-.2c0-.1 0-.1-.1-.2s-.2-.2-.3-.2-.4 0-.5.2v.1c-1.8-.1-3.6 0-5.4-.1-2.7-.1-5-.3-7.6.1v-.1c-.8.1-1.4-.1-2.1 0-1.8.3-3.7 0-5.3.2h-1.6v2.9c.8 0 1.7 0 2.5-.1v.1c.9 0 1.7-.1 2.6 0 .4 0 .8.1 1.3.1h2c.3 0 .4-.1.7-.1h1c.1 0 .2-.1.4-.1.2-.1.4-.1.7 0h1c.2 0 .4-.1.7-.1h.4c.1 0 .3.1.4.1h.5c.3 0 .6-.1.9-.1h1.9c1.9.4 3.8.2 5.7-.1.2 0 .4 0 .7.1h5.5c0 .5.1 1.3.1 2.2h-1.8c-.8.3-1.8-.1-2.8 0-.3.1-.8.1-1.2.1l-.3.1c-2.3-.3-4.7-.1-7-.2-.8 0-1.6-.1-2.4-.1l-.2.1h-.5l-.2-.2h-1c-.1 0-.3.1-.4.1-.3.1-.6.1-.9.2-.3 0-.6 0-1 .1h-1.1l.1-.1h-1.7c-.1 0-.2.1-.4.1l-.1.1c-.1.1-.2 0-.5-.1h-.2c-1.5.1-3-.1-4.5.2h-1v2.9h3.1v.1c1.7-.1 3.4.2 5.1.1h2c.1 0 .1-.1.2-.1.2-.1.3-.3.5-.2.2 0 .4.3.6.2h2.1c.5.2 1.2.1 1.8 0h1.9c1 .2 2.1.3 3.1.2h.6l.2-.1c.2-.1.5-.2.7-.3.2 0 .4-.1.6-.1.4 0 .8.1 1.2.3h.9c.9-.4 1.4-.4 2.4 0h.3c.4-.2.9-.3 1.4-.3v1.2l.4.1c0 1.2-.4.6-.4 1.3h-1.3c-.8.3-1.8-.1-2.8 0-.3.1-.8.1-1.2.1l-.5-.8c-2.3-.3-4.7-.1-7.1-.2-1.6-.1-3.1-.1-4.6-.1-.4 0-.9 0-1.3.1-.6 0-1.2.1-1.8.2v-.1c-.8.1-1.4-.1-2.1 0-1.8.3-3.7 0-5.4.2h-1v2.9h.1c.5 0 1 .1 1.5.1h1.5v.1h3c.3 0 .7-.1.9 0 0 0 .1.1.2.1s.2.1.3.1h.7c.5.1 1 .1 1.5 0 .3 0 .4-.1.7-.1a1.08 1.08 0 0 0 .7-.3h.6s.1 0 .1.1h.1c.4.1.9.1 1.3 0 .1 0 .2-.1.3-.1.3.1.6.1 1 .1.2.2.5.2.7.2.3 0 .7 0 1-.1h.9c.2 0 .4.1.6.1h.7c.2.1.5.2.7.1.1 0 .3 0 .4-.1s.2-.1.3-.2c.5 0 1.2-.1 1.7-.1.2.1.5.1.7.1.3 0 .6-.1.9-.2h1.2c.6.3 1.5.3 1.9 0h.4c.7.4 1.3.5 2 .4h.3c0 .2-.1.5 0 .7.1.1.1-.1.2-.2l.1.8c0 .1-.1.2-.1.2h-.1s-.1-.1-.1-.2v.2c-.1 0-.2 0-.3.1-.1 0-.1.1-.2.1h-.5a.76.76 0 0 0-.4-.2c-.1 0-.3 0-.3.1-.1.1-.2.2-.3.2-.6 0-1.3-.2-2-.1-.3.1-.8.1-1.2.1l-.3.1c-1-.1-2.1-.2-3.1-.2h-1c-.1-.1-.3-.1-.4-.1-.3-.1-.7 0-1 .2-.2.1-.3.3-.5.4-.1 0-.1-.1-.1-.1l-.2-.1c-.1-.1-.2-.1-.3-.2-.7-.3-1.4-.3-2.1-.3-.3 0-.7 0-1 .1-.2 0-.4.1-.4.1h-.4c-1.2 0-2.4 0-3.7.2l.1-.1c-.8.1-1.4-.1-2.2 0-1.2.2-2.6.1-3.7.1h-.1s-.1 0-.1-.1c-.5-.3-1-.2-1.4 0-.1 0-.3.1-.4.1-.1.1-.2 0-.4 0h-1v2.9c.9 0 1.6 0 2.3-.1v.1h.7c1.5 0 3 .2 4.5.1 1.3.1 2.6-.1 3.9-.2h1.6c.6.2 1.2.1 1.8 0h1.9c.1 0 .3-.1.3-.1.1 0 .1-.1.2 0 .2.1.4.2.7.3.2 0 .5.1.7.1h1.4c.6 0 1.2-.1 1.9-.2h6.8c0 .7 0 1.4-.1 2.2h-1.3c-.3.1-.7.1-1 .1h-1.2c-.1.1-.2.1-.2.2h-.3c-.1 0-.2 0-.5-.2h-.6s-.1 0-.1.1c-.1.1-.1.2-.2.2h-.8c-.1 0-.1 0-.2-.1-.1 0-.1 0-.2-.1s-.2-.1-.3-.1h-2.4c-.1 0-.1.1-.2.1-.3.2-.8.2-1.3.2s-1 0-1.4-.1c-.1 0-.2 0-.2-.1h-.1l-.2-.1c-.7 0-1.3-.1-1.9-.1h-2.2l-.2.1c-.1 0-.2.1-.4.1-.3.1-.5.1-.8.1s-.5 0-.8.1h-.8l.1-.1c-.2 0-.4 0-.5-.1-.2 0-.3-.1-.6-.1h-1.1c-.7.1-1.4.1-2.1.1h-2.2c-.3.2-.3.2-.5.3-.2 0-.3.1-.5 0-.1 0-.2-.1-.3-.1s-.2-.1-.3-.1h-.8v2.9h.1c.3-.2.6-.3.9-.2.2 0 .5 0 .7.2h1v.1c1.3-.1 2.6.1 3.9.1h.2c.2-.1.3-.2.4-.2s.1.1.2.1.2.1.4.1c1 .1 1.9 0 3-.1.2-.1.4-.2.7-.3h.2c.3 0 .6.1.8.2h.8c.6.2 1.2.1 1.8 0h1.7c.1 0 .1-.1.2-.1.2-.1.5-.1.7 0 .1 0 .2.1.3.1s.3.2.4.2h1.2l.4-.2a1.95 1.95 0 0 1 1.5 0h7.1v2.2h-1.1c-.8.3-1.8-.1-2.8 0-.2 0-.3.1-.5.1h-.7v.1c0 .1 0 .2-.1.2v-.3l-.3.1c-2.3-.3-4.7-.1-7-.2-1 0-2-.1-3-.1-1.5-.1-3 0-4.6.2v-.1h-2.3c-1.7.3-3.5-.1-5.2.3-.3 0-.6.1-.9.2-.2 0-.3.1-.5.2v2.4c.6.1 1 .2 1.5.2h1.5v.1c.4-.1.7-.1 1-.2.2 0 .4-.1.5-.1h1c.2 0 .3 0 .4.1.2.1.3.2.6.2.3-.1.4-.2.5-.3h.9c1.2.1 2.5-.1 3.8-.2h1.7c.6.2 1.2 0 1.8 0 .6.2 1.2.3 1.7.2h.8c.1 0 .2-.1.3 0 .1 0 .3.1.4.1.5.1 1.1.2 1.6.2.8 0 1.5-.1 2.3-.2.8 0 1.6-.1 2.4-.2h3.8v1.1c.2-.2.1-.8.3-1.1h.2c.1.5-.1.7.1 1-.4.2-.3.7-.4 1.2h-1.4c-.8.3-1.8-.1-2.8 0-.3.1-.8.1-1.2.1l-.3.1c-1.2-.1-2.3-.2-3.5-.2h-2.7c-.1 0-.5-.1-.8-.2-.5-.1-1-.2-1.5-.1h-.7c-.1 0-.3 0-.4.1-.1 0-.3.1-.3.1h-3.4c-.4 0-.8 0-1.3.1l.1-.1h-2c-.6 0-1.1.1-1.6.3-.2 0-.2 0-.4-.1s-.3-.1-.5-.1c-.3 0-.7 0-1 .1-.1 0-.2.1-.2.1h-.5c-.3 0-.6.1-.9.1h-1.4v2.9c.9 0 1.8 0 2.8-.1v.1h1.8c.1.1.3.1.4.2h.9c.1 0 .2.1.4.2.6 0 1-.1 1.5-.2.9-.1 1.7-.5 2.6-.4.2 0 .4.1.7.1h.7c.4 0 .8.1 1.1 0h.2c.5.1 1.2 0 1.8-.1h.5c.6 0 1.2.1 1.7 0 .4.1.8.1 1.2.2 1.3.1 2.5 0 3.8-.2h6.6c0 .2 0 .5-.1 1.1 0 .4.1.8.1 1.1h-1.4c-.8.3-1.8-.1-2.8 0-.3.1-.8.1-1.2.1l-.3.1c-.9-.1-1.8-.1-2.7-.2h-.8c-.4.1-.5.2-.7.3-.4.1-.8 0-.9-.1l-.1-.1h-1.7c-.7 0-1.3-.1-2-.1h-1.4c-.1 0-.3 0-.4.1s-.1.1-.2.1c-.2.1-.5.1-.7.1-.1 0-.2 0-.3-.1 0 0-.1 0-.2-.1l-.2-.1h-1.3c-.3 0-.6.1-1 .1v-.1c-.8.1-1.4-.1-2.1 0s-1.4.1-2.1.1h-.1l-.1.1c-.1.1-.4.2-.6.2-.1 0-.3 0-.4-.1-.1 0-.1 0-.2-.1-.1 0-.1-.1-.2-.2h-.4c-.4 0-.7.1-1.1.1h-1.5v2.9c.9 0 1.8 0 2.6-.1v.1h.8c.1-.1.2-.1.3-.1.2 0 .5-.1.7 0 .2 0 .5 0 .7.1a1.7 1.7 0 0 1 .7.1h.1c.6 0 1.2 0 1.8-.1 1.3 0 2.6-.2 4-.2h.3c.4 0 .8 0 1.2.1.5.2 1.2.1 1.8.1h2c1.1.2 2.1.3 3.2.2h.1v-.1c.1-.1.4-.2.6-.2.3 0 .5 0 .8.1.2 0 .3 0 .5-.1h6.2c.3-.1.5-.1.8-.1 0 .4 0 1.4.4 1-.2.2-.3 1.2-.4.6v.7c-.2 0-.3.1-.5 0h-1.4c-.8.3-1.9-.1-2.9 0-.3.1-.8.1-1.2.1l-.3.1h-7.2c-2.7-.1-5.1-.4-7.7.2l.1-.1h-1.1c-.4 0-.7 0-1.1.1s-.9.1-1.3.1h-1.4c-.9 0-1.8 0-2.7.1h-.5v2.9h1.9c.6 0 1.2 0 1.8-.1v.1h.4c.1-.2.2-.4.4-.6.2-.1.3-.2.5-.2.2.1.5.2.5.5.1.2.1.5.4.8.1.2.4.1.6.1.2-.1.3-.1.4-.2.2-.2.5-.3.4-.2l-.1.1h.5c1.3.1 2.6-.1 3.9-.2h1.7c.6.2 1.2.1 1.8 0h2c1.4.3 2.9.3 4.2.1l.2.1c.1.1.2.1.3.1.3-.1.3-.3.4-.4h2c.3.4.8.4 1.3 0h3.7c0 .9 0 1.5.2 2.2h-1.8c-.6.2-1.2.1-1.9 0-.3 0-.6-.1-.9 0s-.8.1-1.2 0c-.1 0-.2.1-.3.1-.5-.1-1.2-.1-1.8-.1h-1.7c-1.2 0-2.3.1-3.5 0-1.3 0-2.6-.1-3.8-.1-.6 0-1.2 0-1.9.1-.3 0-.6.1-.9.1-.2.1-.6 0-.9 0 0 0 0-.1.1-.1h-1.2c-.2 0-.4.1-.5.1h-.5c-1.7.3-3.6 0-5.3.2h-1.3v2.9c.9 0 1.8 0 2.7-.1v.1c1.7-.1 3.4.2 5.1.1.9.2 2 .1 3 0 .2 0 .3 0 .5-.1.4 0 .8 0 1.1-.1h.9c.5.2 1.2.1 1.8 0h1.9c.6.1 1.2.3 1.9.3s1.3 0 2-.1c.4 0 .8-.2 1.2-.2h3.9a5.44 5.44 0 0 0 1.8 0h2.1c.1.7.1 1.5.2 2.2-.9 0-1.8.1-2.7.1-.8.3-1.9-.1-2.9 0-.3.1-.8.1-1.2.1l-.3.1c-1.3-.1-2.5-.2-3.8-.2h-.2c-.1-.2-.2-.3-.4-.5s-.5-.1-.8 0c-.2.1-.5.4-.6.5l-.1.1-.2-.1h-.7c-1 0-1.9-.1-2.8-.1h-2.5l-.2-.2c-.1-.1-.3-.1-.4-.1 0 0-.1-.1-.1-.2-.1-.1-.2-.1-.3-.1h-.2l-.3.3-.3.6v-.1c-.1.1-.1.2-.2.3 0 0-.1 0-.1.1v.1l-.2-.1h-.2s-.1 0-.1-.1c-.1-.1-.2-.2-.2-.3h-.5c-1.8.3-3.7 0-5.4.2h-2.1v2.8c.7 0 1.4 0 2.1-.1v.1c.9-.1 1.8 0 2.6 0l1.3.1h.7l.6-.1h2.1l.7-.1c.4 0 .7-.1 1.1-.1h1.7c.6.2 1.2.1 1.8 0h1.9c.2 0 .5.1.8.1h.8c.3 0 .5 0 .8.1h.8c.7 0 1.5-.1 2.2-.2h8.4c0 .2.1.4.1.6l.3-.5.2 1c0-.1-.9-.5-.8-.6v1.7h-.7l-.3.1c-.2 0-.4.1-.6 0-.2 0-.4 0-.6-.1h-.8c-.8.3-1.8-.1-2.8 0-.3.1-.8.1-1.2.1l-.3.1c-1.2-.1-2.3-.2-3.5-.2h-1.4c-.1 0-.3 0-.4.1h-.8c-.1 0-.3 0-.4-.1h-.5c-2.7-.1-5.1-.3-7.7.1l.1-.1h-1.1c-.2.1-.2.1-.3.1h-.5c-.1 0-.1-.1-.2-.1l-.5.1c-.2 0-.3.1-.5.1-.3.1-.6.1-.7 0h-.2c-1.2 0-2.4-.1-3.6.1h-.9V84c.8 0 1.7 0 2.6-.1.1-.2.4-.1.6.1v.1c.1 0 .2.1.3.1s.2-.1.2-.2h.7c.2-.3.5-.4.8-.3a.76.76 0 0 1 .4.2c.1 0 .2.1.2.2h.3c.7 0 1.3.1 2 0 1.3.1 2.6-.1 3.9-.2h1.7c.6.2 1.2.1 1.8 0 .3-.5.8-.5 1.3 0h.4c.6.1 1.2.2 1.8.2h.5l.1-.1c.2-.1.3-.2.4-.2s.2-.1.3 0c0 0 .1 0 .1.1l.2.2c.6 0 .9-.1 1.4-.1h5.4c.4-.5 1.3-.5 1.9 0h1.1v2.2h-2.3c-.1 0-.3-.1-.4-.1-.2.1-.5.1-.7.2-.6 0-1.4-.2-2.1-.1-.3.1-.8.1-1.2.1l-.3.1c-2.3-.3-4.7-.1-7-.2h-.2c-2.6-.1-4.8-.3-7.3.1v-.1c-.8.1-1.4-.1-2.1 0-1 .1-2 .1-3 .1h-.1c-.5-.1-.8-.1-1.2-.1-.2 0-.4.1-.6.1-.2.1-.3.1-.5.1h-1.4v2.9h1.4c.4.1.9.2 1.3.1v.1c.1 0 .3-.1.4-.1h.2c1.5 0 3 .2 4.5.1 1.2.1 2.5-.1 3.8-.2h1.7c.5.2 1.2.1 1.8 0h1.9c1.8.4 3.5.2 5.3 0h3.9c.3.2 1.2.2 1.5 0h2.7v2.2c-.9 0-1.9.1-2.9.1-.2.1-.4.1-.6.1h-.2l-.3-.2c-.2-.1-.5-.2-.8-.2h-.4l-.2.1h-.1c-.4-.1-.9 0-1.4.1l-.3.3c-.1 0-.1 0-.1.1-.2 0-.5-.1-.8-.1h-5.9c-2.7-.1-5-.3-7.6.1v-.1h-.2l-.2-.1c-.2-.1-.4-.1-.5-.1-.4-.1-.7-.1-1.1-.1l-1.4.3c-.1 0-.3.1-.3.1h-1c-.9 0-1.8 0-2.6.1h-1.5v2.9c.9 0 1.8 0 2.6-.1v.1c.9-.1 1.7 0 2.6 0l1.3.1c.5 0 .9-.1 1.3-.1.3 0 .7.1 1.1.1s.7 0 1.1-.1h.2c.5-.1 1-.1 1.5-.1h1.7c.3.1.6.1.9.1s.5 0 .8-.1c.4-.1 1.3-.1 1.7 0h.3c.5.1 1 .2 1.5.2h1.2c.1 0 .2 0 .4-.1h.8c.3 0 .5 0 .8-.1.2 0 .4 0 .6-.1h2.4c.4-.1.9-.1 1.3 0h4c.1.6.3.3.2 1-.1.2-.2 0-.3-.2 0 .4-.1.7.1.7.1-.4.5-.3.7-.4v1.1h-.2v.1h-1.2c-.1 0-.3 0-.5.1l-.3.1h-.9c-.2.1-.4.1-.6 0-.1 0-.3-.1-.4-.1h-.4c-.5 0-1-.1-1.5-.1h-.3c-.2.2-.3.2-.4.2h-.4c-.1 0-.2.1-.3.1l-.3-.1c-.1-.1-.2 0-.3-.1h-1.9c-.2.1-.4.1-.5.2h-.3s-.1-.1-.2-.1h-3.3c-2.7-.1-5-.3-7.6.1v-.1c-.8.1-1.4-.1-2.1 0h-.4l-.4.2c-.3.1-.1.1-.5-.1h-2.1c-.7 0-1.3 0-1.9.1h-1.4v2.9c.9 0 1.8 0 2.8-.1v.1h1.9c.2 0 .4-.1.6-.1.8-.1 1.7-.1 2.6-.1.9.1 1.8.1 2.7.2.4 0 .7 0 1.1-.1h1.7c.5.2 1.2.1 1.8 0h1.9c1.7.4 3.4.2 5.2 0l.1-.1c.5-.3 1.2-.3 1.6.1h2.6a26.62 26.62 0 0 1 3.9-.3h.1v2.4h-.2c-.5-.1-1-.1-1.6 0-1 0-2 .1-3 .1-1 .3-2.1-.1-3.3 0-.2 0-.4.1-.7.1h-.3c-.1 0-.3-.1-.4 0-.2.1-.2.1-.3.2-2.7-.3-5.5-.1-8.2-.2-.5 0-1.1 0-1.6-.1-.8 0-1.5-.1-2.4-.1h.1c-1.6 0-3.2 0-4.9.2l.1-.1c-.9.1-1.7-.1-2.5 0-.2 0-.4 0-.6.1h-.8v3.1h1.4c.4 0 .8-.1 1.2-.1l7.7-.1v.1c2-.1 4 .2 6 .1 1.3.1 2.8-.1 4.1-.2a1.38 1.38 0 0 1 .3.4c.1.2.1.4.2.6v.1c-.2.1-.2.2-.3.3 0 .1-.1.3-.1.5v.1h-.3c.2-.7-2.3-.2-2.1-.5zm-45.6-9.6c0-.1 0-.1 0 0h0zm.3 0c.4-.2.8-.1 1.2 0h-1.2zm2 0h0zm13.2 0s-.1.1 0 0c0 .1.1.1.2.1-.4.1-1.1 0-1.6-.1.1 0 .2.1.4.1h.9l-.1.1c0-.1.1-.2.2-.2zM33.74 92c0-.1.1-.1 0 0h0zm.4 0c.4-.2.8-.1 1.2 0h-1.2zm1.9 0h0zm-2.2-5.4h0zm.3 0c.3-.1.6-.1.9 0h0-.9zm1.9 0c.1 0 .1 0 .2-.1v.1h-.2zm.3 0c.2 0 .4-.1.5 0h-.5zm-3-5.3h0zm.3 0c.4-.2.8-.1 1.2 0h-1.2zm2 0h0zm13.5-.1c0 .1 0 .1 0 0 0 .1.1.1.2.2-.1 0-.2 0-.3-.1h-1.4c.4 0 .9-.1 1.3-.1l-.1.1c.1 0 .2-.1.3-.1zM33.64 76h0zm.3 0c.4-.2.8-.1 1.2 0h-1.2zm2 0h0zm-1.8-5.4c.2-.1.5 0 .7 0h-.7zm-1-5.2h0zm.3 0c.4-.2.8-.1 1.2 0h-1.2zm2 0h0zm13.6-.1c0 .1.1.1.2.1h-1.7c.4 0 .9-.1 1.3-.1l-.1.1c.1-.1.2-.1.3-.1zm-26.2-10.7c0-.1.1 0 .1-.1.1 0 .2 0 .2.1h-.3zm10.8 5.5h0zm.3 0c.4-.2.8-.1 1.2 0h-1.2zm2 0h0zm-2.3-5.3h0zm.3 0c.2-.1.4-.1.5-.1.2-.1.4-.1.6-.1-.2 0-.4.1-.6.2h-.5zm1.9-.2h0zm-2.1-5.1h0zm.2 0c.1-.1.3-.1.4-.1.3 0 .5 0 .8.1h-.9c.1 0-.1 0-.3 0zm2 0h0zm-2.2-5.3h0zm.3 0c.4-.2.8-.1 1.2 0h-1.2zm2 0h0zm-1.8-5.3c0-.1 0-.1 0 0h0zm.3-.1c.3-.2.6-.3.9-.3h.3l-1.2.3zm1.9-.2h0zm.4 0c.2 0 .3 0 .4.1-.1 0-.2 0-.4-.1zm12.2.2c0 .1-.1.1-.1.1h-.1v-.1h-.1l.1.1h-.1c.1-.4-.4-.4-.6 0h-.1.1c.1-.1.2-.3.3-.3s.2 0 .2.1c0 0 .1.1.1.2h.1c.1-.1.1-.1.2-.1-.1 0-.1 0 0 0 0 0-.1 0 0 0zm-15.6-5.2c0-.1 0-.1 0 0h0zm.4 0c.4-.2.8-.1 1.2 0h-1.2zm1.9 0h0zm-2.3-5.2c.4 0 .6 0 1-.1h.1c-.4.2-.8.2-1.1.1zm1.9-.2h0zm-1.3-5.3h0zm.3 0c.4-.2.8-.1 1.2 0h-1.2zm1.9 0h0zm-3.1-5.3h0zm.3 0c.4-.2.8-.1 1.2 0h-1.2zm2 0h0zm-2.7-5.3h0zm.3 0c.4-.2.8-.1 1.2 0h-1.2zm2.1 0h0zm41.1 0h-.2.2zm-.9 0h-1.2c.3-.1.7 0 1.2 0zm-1.5 0h-.1.1zm2.7 5.3h-.2.2zm-.9 0h-1.2c.4-.1.8 0 1.2 0zm-1.4 0h-.1.1zm3.2 5.3h-.2.2zm-.9 0h-1.2c.4-.1.8 0 1.2 0zm-1.4 0h-.1.1zm1.4 5.3h-.1.1zm-.9 0h-.1c-.3.2-.7.2-1 .1.4 0 .6 0 1-.1h.1zm1.3 5.3h-.2.2zm-1 .1h-1.2c.5-.2.8-.1 1.2 0zm-1.4 0h-.1c0-.1 0-.1.1 0zm15.3 5.3c-.1 0-.1 0 0 0 0-.4-.4-.4-.6 0h-.1.1c.1-.1.2-.3.3-.3s.2 0 .2.1c.1 0 .1 0 .1.2 0-.1 0-.1 0 0 .1-.1.2-.1.2-.1h.1l.1.1h-.4c0-.1 0-.1 0 0-.1-.1-.1-.1 0 0zm-11.5-.2c-.1 0-.3-.1-.4-.1.1 0 .3.1.4.1zm-.7-.1h-.2.2zm-.8 0c-.5 0-.9.1-1.3.2.3-.2.6-.3.9-.3.2.1.3.1.4.1zm-1.5.3h-.1c0-.1 0-.1.1 0zm1.8 5.2h-.2c.1.1.2.1.2 0zm-.9.1h-1.2c.4-.2.8-.1 1.2 0zm-1.4 0h-.1.1zm2.3 5.3h-.2.2zm-.9 0h-1.3c.1-.1.3-.1.4-.1.3 0 .6 0 .9.1zm-1.4 0h-.2v-.1l.2.1zm2.2 5h-.2c.1.1.1.1.2 0zm-.9.1c-.2 0-.4.1-.6.2h-.6c.2-.1.4-.1.5-.1.2-.1.5-.1.7-.1zm-1.4.2h-.1.1zm2.3 5.3h-.2.2zm-.9 0h-1.2c.4-.2.8-.1 1.2 0zm-1.4 0c-.1 0-.1 0 0 0h0zm15.3 5.2c0 .1.1.1.2.1h-1.7c.4 0 .9-.1 1.3-.1l-.1.1c.1-.1.2-.1.3-.1zm-13.4.1h-.2.2zm-1 0h-1.2c.4-.2.8-.1 1.2 0zm-1.4 0h-.1.1zm1.6 5.2h-.7.7zm1.3 5.4h-.2.2zm-.9 0h-1.2c.4-.1.7 0 1.2 0zm-1.5 0h-.1.1zm15.4 5.2c0 .1 0 .1 0 0 0 .1.1.1.2.2-.1 0-.2 0-.3-.1h-1.4c.4 0 .9-.1 1.3-.1l-.1.1c.1 0 .2-.1.3-.1zm-13.3.1h-.2.2zm-1 0h-1.2c.4-.1.8 0 1.2 0zm-1.4 0h-.1.1zm3.4 5.3h-.5c.2-.1.4-.1.5 0zm-.6-.1c-.1.1-.2.1-.2.1.1 0 .1 0 .2-.1zm-.9.1h-1.2c.3-.1.6-.1.9 0h.3zm-1.4 0h-.1.1zm2.3 5.3h-.2.2zm-1 .1h-1.2c.5-.2.8-.1 1.2 0zm-1.4 0h-.1c0-.1.1-.1.1 0zm15.4 5.3s-.1.1 0 0c0 .1.1.1.2.1-.4.1-1.1 0-1.6-.1.1 0 .2.1.4.1h.9l-.1.1c0-.1.1-.2.2-.2zm-13.1-.1h-.2c.1.1.2 0 .2 0zm-.9.1h-1.2c.4-.2.8-.1 1.2 0zm-1.4 0h-.1c0-.1 0-.1.1 0zm-1.6 5.2h-.1c0 .1.1 0 .1 0zm-1.3 0h-1.2c.4-.1.8 0 1.2 0zm-1.4.1h-.1.1zm22.4 4.4c-1 0-2.4.1-2.6-.1.1.1.1.3-.8.3-.4-.5-2.3.2-3.6-.1.1-.1.7-.1.9-.1-.7-.1-1.3.1-1.9.2l.2-.2-1.9.1c0-.2.1-.5 0-.7 0-.1-.1-.1-.1-.2v-.1h.1v-.2c.3-.7.7-1.3 1.3-.7h6.7c.1.1.4.2.6.2.3.1.7.2 1 .2.1.5.1.9.1 1.4z" fill="#202020"/></svg>