<svg width="229" height="338" viewBox="0 0 229 338" fill="none" xmlns="http://www.w3.org/2000/svg">
<path d="M90.2584 317.1C107.258 291.3 127.759 248.7 126.859 217.5" stroke="#131112" stroke-width="4" stroke-miterlimit="10" stroke-linecap="round" stroke-linejoin="round"/>
<path d="M110.995 51.6013C111.098 55.0199 109.561 57.8169 107.307 57.9723C105.054 58.2831 103.21 55.9522 103.005 52.3783C102.902 48.9597 104.439 46.1627 106.693 46.0073C109.049 45.8519 110.893 48.1828 110.995 51.6013Z" fill="#131112"/>
<path d="M54.8585 183.6C56.6585 191.8 57.5 194.5 60 202.5" stroke="#131112" stroke-width="4" stroke-miterlimit="10" stroke-linecap="round" stroke-linejoin="round"/>
<path d="M209.458 70.2C204.658 70.5 198.459 70.1 193.859 70.6C183.759 71.7 179.959 77.7 177.859 86.4C174.659 99.5 168.258 108.2 154.558 109.9C140.858 111.6 133.858 102.7 130.458 90.6C123.758 91 112.458 92.4 106.958 92.8C101.458 93.3 101.759 93.3 97.3585 93.6C111.559 89.9 118.258 83.2 120.158 68.7C122.858 68.5 125.458 68.5 128.158 68C126.758 58.6 127.558 46.1 125.658 37.2C121.358 17.5 112.858 6.9 92.0585 8.2C71.2585 9.6 63.9585 21.6 62.4585 41.5C61.7585 50.5 64.1585 63.1 64.4585 71.9C64.7585 80.8 65.6584 87.6 65.7584 96C61.2584 96.8 54.6585 95.7 50.3585 96.4C21.7585 101.6 5.15841 114.1 2.25841 144.9C-0.141591 169.3 14.3584 184.7 38.1584 190C38.5584 191.2 38.2584 192 38.7584 193C42.3584 200.3 47.3585 203.5 55.5585 203.7C57.2585 203.7 58.7584 204 59.7584 201.5C64 219.5 67.6724 224.5 69.9585 237.1C74.2585 260.8 57.4585 300.7 44.9585 324.8L97.6584 335.7C98.5584 327.7 96.5585 322.1 90.4585 316.8C104.758 295.2 119.558 265.7 126.058 240.7C134.158 266.7 126.158 270.7 106.658 288.4C109.158 292.7 127.658 322.1 130.058 326.8C136.358 320.4 138.559 313.7 136.859 304.5C136.759 303.8 135.958 302.5 135.258 300.5C200.358 283.2 158.558 221.2 145.958 190.3C133.358 159.4 134.858 152.2 125.558 124.8C135.658 131.9 144.758 135.4 156.258 134.1C182.858 131 199.158 112 202.058 86.1C199.358 86 196.758 86.1 194.058 86.1C203.258 84.5 207.958 79.8 209.458 70.2ZM27.0585 145C27.4585 129.9 37.6584 124.1 50.7584 120.5C51.3584 136.3 51.3585 152.1 52.4585 167.8C38.4585 166.7 26.6585 160.2 27.0585 145Z" stroke="#131112" stroke-width="4" stroke-miterlimit="10" stroke-linecap="round" stroke-linejoin="round"/>
<path d="M92.3585 189.8C109.159 188.2 125.458 184.7 142.058 181.7" stroke="#131112" stroke-width="4" stroke-miterlimit="10" stroke-linecap="round" stroke-linejoin="round"/>
<path d="M195.258 58.1L162.958 18.3L178.859 2.2L210.859 2L226.958 17.9L195.258 58.1Z" fill="#F7F7FF" stroke="#516EFF" stroke-width="4" stroke-miterlimit="10" stroke-linecap="round" stroke-linejoin="round"/>
<path d="M210.859 2L202.958 18.1L195.258 58.1L186.958 18.2L178.859 2.2" stroke="#516EFF" stroke-width="4" stroke-miterlimit="10" stroke-linecap="round" stroke-linejoin="round"/>
<path d="M162.958 18.3L226.958 17.9" stroke="#516EFF" stroke-width="4" stroke-miterlimit="10" stroke-linecap="round" stroke-linejoin="round"/>
<path d="M37.9585 190.2L37.6584 180" stroke="#131112" stroke-width="4" stroke-miterlimit="10" stroke-linecap="round" stroke-linejoin="round"/>
<path d="M87.8247 3.50519C70.2217 5.35534 57.4948 21.0718 59.3449 38.6748L123 32C121.15 14.397 105.428 1.65503 87.8247 3.50519Z" fill="#ED6A5A"/>
<path d="M59.3449 38.6748L60.9547 53.9904C69.5076 53.0915 75.7584 45.597 75.2573 37.0023L59.3449 38.6748Z" fill="#ED6A5A"/>
<path d="M115 17.5L123 32C128.86 31.3841 132.956 23.8145 132.23 14.9418L115 17.5Z" fill="#ED6A5A"/>
<path d="M106.385 7.87911L108.057 23.7915C116.61 22.8925 122.929 15.0893 122.297 6.20665L106.385 7.87911Z" fill="#ED6A5A"/>
</svg>
