<svg width="212" height="335" viewBox="0 0 212 335" fill="none" xmlns="http://www.w3.org/2000/svg">
<path d="M209.458 66.8733C204.658 67.1733 198.459 66.7733 193.859 67.2733C183.759 68.3733 179.959 74.3733 177.859 83.0733C174.659 96.1733 168.258 104.873 154.558 106.573C140.858 108.273 133.858 99.3733 130.458 87.2733C123.758 87.6733 112.458 89.0733 106.958 89.4733C101.458 89.9733 101.759 89.9733 97.3585 90.2733C111.559 86.5733 118.258 79.8733 120.158 65.3733C122.858 65.1733 125.458 65.1733 128.158 64.6733C126.758 55.2733 127.558 42.7733 125.658 33.8733C121.358 14.1733 112.858 3.57333 92.0585 4.87333C71.2585 6.27333 63.9585 18.2733 62.4585 38.1733C61.7585 47.1733 64.1585 59.7733 64.4585 68.5733C64.7585 77.4733 65.6584 84.2733 65.7584 92.6733C61.2584 93.4733 54.6585 92.3733 50.3585 93.0733C21.7585 98.2733 5.15841 110.773 2.25841 141.573C-0.141591 165.973 14.3584 181.373 38.1584 186.673C38.5584 187.873 38.2584 188.673 38.7584 189.673C42.3584 196.973 47.3585 200.173 55.5585 200.373C57.2585 200.373 58.7584 200.673 59.7584 198.173C64 216.173 67.6724 221.173 69.9585 233.773C74.2585 257.473 57.4585 297.373 44.9585 321.473L97.6584 332.373C98.5584 324.373 96.5585 318.773 90.4585 313.473C104.758 291.873 119.558 262.373 126.058 237.373C134.158 263.373 126.158 267.373 106.658 285.073C109.158 289.373 127.658 318.773 130.058 323.473C136.358 317.073 138.559 310.373 136.859 301.173C136.759 300.473 135.958 299.173 135.258 297.173C200.358 279.873 158.558 217.873 145.958 186.973C133.358 156.073 134.858 148.873 125.558 121.473C135.658 128.573 144.758 132.073 156.258 130.773C182.858 127.673 199.158 108.673 202.058 82.7733C199.358 82.6733 196.758 82.7733 194.058 82.7733C203.258 81.1733 207.958 76.4733 209.458 66.8733ZM27.0585 141.673C27.4585 126.573 37.6584 120.773 50.7584 117.173C51.3584 132.973 51.3585 148.773 52.4585 164.473C38.4585 163.373 26.6585 156.873 27.0585 141.673Z" fill="white" stroke="#131112" stroke-width="4" stroke-miterlimit="10" stroke-linecap="round" stroke-linejoin="round"/>
<path d="M90.2583 313.773C107.258 287.973 127.758 245.373 126.858 214.173" stroke="#131112" stroke-width="4" stroke-miterlimit="10" stroke-linecap="round" stroke-linejoin="round"/>
<path d="M110.995 48.2747C111.098 51.6932 109.561 54.4902 107.307 54.6456C105.054 54.9564 103.21 52.6256 103.005 49.0516C102.902 45.6331 104.439 42.8361 106.693 42.6807C109.049 42.5253 110.893 44.8561 110.995 48.2747Z" fill="#131112"/>
<path d="M54.8584 180.273C56.6584 188.473 57.4999 191.173 59.9999 199.173" stroke="#131112" stroke-width="4" stroke-miterlimit="10" stroke-linecap="round" stroke-linejoin="round"/>
<path d="M92.3584 186.473C109.158 184.873 125.458 181.373 142.058 178.373" stroke="#131112" stroke-width="4" stroke-miterlimit="10" stroke-linecap="round" stroke-linejoin="round"/>
<path d="M37.9585 186.873L37.6584 176.673" stroke="#131112" stroke-width="4" stroke-miterlimit="10" stroke-linecap="round" stroke-linejoin="round"/>
<path d="M87.8247 0.178499C70.2217 2.02865 57.4948 17.7451 59.3449 35.3481C84.2038 32.7414 98.1412 31.28 123 28.6733C121.15 11.0703 105.428 -1.67165 87.8247 0.178499Z" fill="#ED6A5A"/>
<path d="M59.3449 35.3481L60.9547 50.6637C69.5076 49.7648 75.7584 42.2704 75.2573 33.6757C69.363 25.7753 65.8944 25.7858 59.3449 35.3481Z" fill="#ED6A5A"/>
<path d="M115 14.1733L123 28.6733C128.86 28.0574 132.956 20.4878 132.23 11.6151L115 14.1733Z" fill="#ED6A5A"/>
<path d="M106.385 4.55242L108.057 20.4648C116.61 19.5658 122.929 11.7626 122.297 2.87996L106.385 4.55242Z" fill="#ED6A5A"/>
</svg>
