<svg width="282" height="301" viewBox="0 0 282 301" fill="none" xmlns="http://www.w3.org/2000/svg">
<path d="M1.49999 272.3C35.4 271 62.7 257.3 81 228.3C115.1 174.1 85.5 102.9 23.1 88.6C17.3 87.3 16.1 85.2 17.1 79.7C21.5 55.1 25.6 30.4 29.6 5.59998C30.2 1.79998 31.7 0.900024 35.2 0.900024C70 1.00002 104.9 1.10005 139.7 0.800049C145.4 0.800049 145.8 3.59998 145.1 7.59998C144.1 14 146.8 15.4 152.9 15.3C187.7 15 222.6 15.2 257.3 15.2C258.3 18.3 256.2 20 255.1 21.9C238.4 51.2 221.8 80.5 204.9 109.7C202.1 114.5 202.5 115.8 208.2 117C252.7 126.7 284.2 169.1 281.3 212.2C277.9 262 238.4 299.1 191.4 300.4C177.9 300.8 164.5 300.4 151 300.8C145.7 301 143.8 299.2 144.7 294.2C146 287.2 142.6 286.2 136.4 286.3C93.9 286.6 51.4 286.4 8.89999 286.4C-0.600008 286.4 -0.600008 286.4 1.09999 276.9C1.29999 275.9 1.09999 274.8 1.09999 273.8C0.399992 273 0.599992 272.5 1.49999 272.3Z" fill="#151919"/>
</svg>
