<svg width="298" height="301" viewBox="0 0 298 301" fill="none" xmlns="http://www.w3.org/2000/svg">
<path d="M235.7 158C240.7 177.1 238.7 193.3 228.5 201.3C209.9 215.9 171.1 197.5 141.9 160.3C112.7 123.1 104.2 81 122.8 66.5C134.8 57.1 155 61.4 175.7 75.5C168.7 36.6 148.1 3.89997 128.4 1.09997C118.3 -0.400026 110.3 6.29999 105.4 18.3C92.8 7.29999 80.7 1.80002 72 4.40002C63.5 6.90002 59.7 16.6 60.3 30.4C46.2 24.4 34.7 23.7 28.7 29.7C22.6 35.8 23.5 47.8 29.9 62.4C15.5 61.6 5.40001 65.5 3.00001 74.3C0.600013 82.9 5.80001 94.5 16.4 106.7C5.00001 111.6 -1.29999 119.5 0.100013 129.3C1.60001 139.4 10.9 149.7 24.8 158.3C17.1 168.2 14.9 179.2 20.1 189.1C25.2 198.7 36.4 205.5 50.6 208.9C48.5 221.8 51.1 233.6 59.1 241.6C67.3 249.8 79.5 252.3 92.8 249.9C96.2 264.7 103.2 276.3 113.1 281.5C122.7 286.5 133.4 284.5 142.9 277.1C151.4 290.5 161.4 299.3 171.2 300.7C181.3 302.2 189.3 295.5 194.2 283.5C206.8 294.5 218.9 299.9 227.6 297.4C236.1 294.9 239.9 285.2 239.3 271.4C253.4 277.4 264.9 278.1 270.9 272.1C277 266 276.1 254 269.7 239.4C284.1 240.2 294.2 236.3 296.6 227.5C301.8 209.6 274.6 179.1 235.7 158Z" fill="black"/>
<path d="M224.127 176.924C237.907 166.125 231.57 135.029 209.973 107.469C188.376 79.9087 159.697 66.3207 145.917 77.1193C132.137 87.9179 138.474 119.014 160.071 146.574C181.668 174.134 210.347 187.722 224.127 176.924Z" fill="black"/>
</svg>
