<svg width="101" height="301" viewBox="0 0 101 301" fill="none" xmlns="http://www.w3.org/2000/svg">
<path d="M98.5 147C96.9 140.1 94.6 133.1 92.5 129.2C77.2 99 71.7 86.7 69.3 78.7C67.8 72.2 67.4999 67.1 66.3999 59.8V20.9C67.4999 20.9 68.3999 20 68.3999 18.9V10.9C68.3999 9.80002 67.4999 8.90002 66.3999 8.90002V4.90002C66.3999 2.70002 64.5999 0.900024 62.3999 0.900024H38.3C36.1 0.900024 34.3 2.70002 34.3 4.90002V8.90002C33.2 8.90002 32.3 9.80002 32.3 10.9V18.9C32.3 20 33.2 20.9 34.3 20.9V59.8C33.2 67.2 32.8999 72.2 31.3999 78.7C29.0999 86.7 23.5 99 8.19995 129.2C6.09995 133.1 3.79995 140.1 2.19995 147C0.899951 151.5 0.100098 156.3 0.100098 161.3V181.4V281.7C0.100098 290.9 11.1 298.6 34.2 301V247.6C34.2 245.4 36 243.6 38.2 243.6H62.3C64.5 243.6 66.3 245.4 66.3 247.6V301C89.4 298.6 100.4 290.9 100.4 281.7V181.4V161.3C100.6 156.3 99.9 151.5 98.5 147Z" fill="#151919"/>
<path d="M44.3999 280.5C46.609 280.5 48.3999 278.709 48.3999 276.5C48.3999 274.291 46.609 272.5 44.3999 272.5C42.1908 272.5 40.3999 274.291 40.3999 276.5C40.3999 278.709 42.1908 280.5 44.3999 280.5Z" fill="#151919"/>
</svg>
